<?xml version="1.0" encoding="utf-8" standalone="no"?>
<!DOCTYPE svg PUBLIC "-//W3C//DTD SVG 1.1//EN"
  "http://www.w3.org/Graphics/SVG/1.1/DTD/svg11.dtd">
<!-- Created with matplotlib (http://matplotlib.org/) -->
<svg height="345.6pt" version="1.1" viewBox="0 0 460.8 345.6" width="460.8pt" xmlns="http://www.w3.org/2000/svg" xmlns:xlink="http://www.w3.org/1999/xlink">
 <defs>
  <style type="text/css">
*{stroke-linecap:butt;stroke-linejoin:round;}
  </style>
 </defs>
 <g id="figure_1">
  <g id="patch_1">
   <path d="M 0 345.6 
L 460.8 345.6 
L 460.8 0 
L 0 0 
z
" style="fill:#ffffff;"/>
  </g>
  <g id="axes_1">
   <g id="patch_2">
    <path d="M 57.6 159.744 
L 414.72 159.744 
L 414.72 41.472 
L 57.6 41.472 
z
" style="fill:#ffffff;"/>
   </g>
   <g id="matplotlib.axis_1">
    <g id="xtick_1">
     <g id="line2d_1">
      <defs>
       <path d="M 0 0 
L 0 3.5 
" id="mddd4e09b6e" style="stroke:#000000;stroke-width:0.8;"/>
      </defs>
      <g>
       <use style="stroke:#000000;stroke-width:0.8;" x="57.183776" xlink:href="#mddd4e09b6e" y="159.744"/>
      </g>
     </g>
     <g id="text_1">
      <!-- 0 -->
      <defs>
       <path d="M 31.78125 66.40625 
Q 24.171875 66.40625 20.328125 58.90625 
Q 16.5 51.421875 16.5 36.375 
Q 16.5 21.390625 20.328125 13.890625 
Q 24.171875 6.390625 31.78125 6.390625 
Q 39.453125 6.390625 43.28125 13.890625 
Q 47.125 21.390625 47.125 36.375 
Q 47.125 51.421875 43.28125 58.90625 
Q 39.453125 66.40625 31.78125 66.40625 
z
M 31.78125 74.21875 
Q 44.046875 74.21875 50.515625 64.515625 
Q 56.984375 54.828125 56.984375 36.375 
Q 56.984375 17.96875 50.515625 8.265625 
Q 44.046875 -1.421875 31.78125 -1.421875 
Q 19.53125 -1.421875 13.0625 8.265625 
Q 6.59375 17.96875 6.59375 36.375 
Q 6.59375 54.828125 13.0625 64.515625 
Q 19.53125 74.21875 31.78125 74.21875 
z
" id="DejaVuSans-30"/>
      </defs>
      <g transform="translate(54.002526 174.342437)scale(0.1 -0.1)">
       <use xlink:href="#DejaVuSans-30"/>
      </g>
     </g>
    </g>
    <g id="xtick_2">
     <g id="line2d_2">
      <g>
       <use style="stroke:#000000;stroke-width:0.8;" x="98.475818" xlink:href="#mddd4e09b6e" y="159.744"/>
      </g>
     </g>
     <g id="text_2">
      <!-- 25 -->
      <defs>
       <path d="M 19.1875 8.296875 
L 53.609375 8.296875 
L 53.609375 0 
L 7.328125 0 
L 7.328125 8.296875 
Q 12.9375 14.109375 22.625 23.890625 
Q 32.328125 33.6875 34.8125 36.53125 
Q 39.546875 41.84375 41.421875 45.53125 
Q 43.3125 49.21875 43.3125 52.78125 
Q 43.3125 58.59375 39.234375 62.25 
Q 35.15625 65.921875 28.609375 65.921875 
Q 23.96875 65.921875 18.8125 64.3125 
Q 13.671875 62.703125 7.8125 59.421875 
L 7.8125 69.390625 
Q 13.765625 71.78125 18.9375 73 
Q 24.125 74.21875 28.421875 74.21875 
Q 39.75 74.21875 46.484375 68.546875 
Q 53.21875 62.890625 53.21875 53.421875 
Q 53.21875 48.921875 51.53125 44.890625 
Q 49.859375 40.875 45.40625 35.40625 
Q 44.1875 33.984375 37.640625 27.21875 
Q 31.109375 20.453125 19.1875 8.296875 
z
" id="DejaVuSans-32"/>
       <path d="M 10.796875 72.90625 
L 49.515625 72.90625 
L 49.515625 64.59375 
L 19.828125 64.59375 
L 19.828125 46.734375 
Q 21.96875 47.46875 24.109375 47.828125 
Q 26.265625 48.1875 28.421875 48.1875 
Q 40.625 48.1875 47.75 41.5 
Q 54.890625 34.8125 54.890625 23.390625 
Q 54.890625 11.625 47.5625 5.09375 
Q 40.234375 -1.421875 26.90625 -1.421875 
Q 22.3125 -1.421875 17.546875 -0.640625 
Q 12.796875 0.140625 7.71875 1.703125 
L 7.71875 11.625 
Q 12.109375 9.234375 16.796875 8.0625 
Q 21.484375 6.890625 26.703125 6.890625 
Q 35.15625 6.890625 40.078125 11.328125 
Q 45.015625 15.765625 45.015625 23.390625 
Q 45.015625 31 40.078125 35.4375 
Q 35.15625 39.890625 26.703125 39.890625 
Q 22.75 39.890625 18.8125 39.015625 
Q 14.890625 38.140625 10.796875 36.28125 
z
" id="DejaVuSans-35"/>
      </defs>
      <g transform="translate(92.113318 174.342437)scale(0.1 -0.1)">
       <use xlink:href="#DejaVuSans-32"/>
       <use x="63.623047" xlink:href="#DejaVuSans-35"/>
      </g>
     </g>
    </g>
    <g id="xtick_3">
     <g id="line2d_3">
      <g>
       <use style="stroke:#000000;stroke-width:0.8;" x="139.767859" xlink:href="#mddd4e09b6e" y="159.744"/>
      </g>
     </g>
     <g id="text_3">
      <!-- 50 -->
      <g transform="translate(133.405359 174.342437)scale(0.1 -0.1)">
       <use xlink:href="#DejaVuSans-35"/>
       <use x="63.623047" xlink:href="#DejaVuSans-30"/>
      </g>
     </g>
    </g>
    <g id="xtick_4">
     <g id="line2d_4">
      <g>
       <use style="stroke:#000000;stroke-width:0.8;" x="181.0599" xlink:href="#mddd4e09b6e" y="159.744"/>
      </g>
     </g>
     <g id="text_4">
      <!-- 75 -->
      <defs>
       <path d="M 8.203125 72.90625 
L 55.078125 72.90625 
L 55.078125 68.703125 
L 28.609375 0 
L 18.3125 0 
L 43.21875 64.59375 
L 8.203125 64.59375 
z
" id="DejaVuSans-37"/>
      </defs>
      <g transform="translate(174.6974 174.342437)scale(0.1 -0.1)">
       <use xlink:href="#DejaVuSans-37"/>
       <use x="63.623047" xlink:href="#DejaVuSans-35"/>
      </g>
     </g>
    </g>
    <g id="xtick_5">
     <g id="line2d_5">
      <g>
       <use style="stroke:#000000;stroke-width:0.8;" x="222.351941" xlink:href="#mddd4e09b6e" y="159.744"/>
      </g>
     </g>
     <g id="text_5">
      <!-- 100 -->
      <defs>
       <path d="M 12.40625 8.296875 
L 28.515625 8.296875 
L 28.515625 63.921875 
L 10.984375 60.40625 
L 10.984375 69.390625 
L 28.421875 72.90625 
L 38.28125 72.90625 
L 38.28125 8.296875 
L 54.390625 8.296875 
L 54.390625 0 
L 12.40625 0 
z
" id="DejaVuSans-31"/>
      </defs>
      <g transform="translate(212.808191 174.342437)scale(0.1 -0.1)">
       <use xlink:href="#DejaVuSans-31"/>
       <use x="63.623047" xlink:href="#DejaVuSans-30"/>
       <use x="127.246094" xlink:href="#DejaVuSans-30"/>
      </g>
     </g>
    </g>
    <g id="xtick_6">
     <g id="line2d_6">
      <g>
       <use style="stroke:#000000;stroke-width:0.8;" x="263.643983" xlink:href="#mddd4e09b6e" y="159.744"/>
      </g>
     </g>
     <g id="text_6">
      <!-- 125 -->
      <g transform="translate(254.100233 174.342437)scale(0.1 -0.1)">
       <use xlink:href="#DejaVuSans-31"/>
       <use x="63.623047" xlink:href="#DejaVuSans-32"/>
       <use x="127.246094" xlink:href="#DejaVuSans-35"/>
      </g>
     </g>
    </g>
    <g id="xtick_7">
     <g id="line2d_7">
      <g>
       <use style="stroke:#000000;stroke-width:0.8;" x="304.936024" xlink:href="#mddd4e09b6e" y="159.744"/>
      </g>
     </g>
     <g id="text_7">
      <!-- 150 -->
      <g transform="translate(295.392274 174.342437)scale(0.1 -0.1)">
       <use xlink:href="#DejaVuSans-31"/>
       <use x="63.623047" xlink:href="#DejaVuSans-35"/>
       <use x="127.246094" xlink:href="#DejaVuSans-30"/>
      </g>
     </g>
    </g>
    <g id="xtick_8">
     <g id="line2d_8">
      <g>
       <use style="stroke:#000000;stroke-width:0.8;" x="346.228065" xlink:href="#mddd4e09b6e" y="159.744"/>
      </g>
     </g>
     <g id="text_8">
      <!-- 175 -->
      <g transform="translate(336.684315 174.342437)scale(0.1 -0.1)">
       <use xlink:href="#DejaVuSans-31"/>
       <use x="63.623047" xlink:href="#DejaVuSans-37"/>
       <use x="127.246094" xlink:href="#DejaVuSans-35"/>
      </g>
     </g>
    </g>
    <g id="xtick_9">
     <g id="line2d_9">
      <g>
       <use style="stroke:#000000;stroke-width:0.8;" x="387.520107" xlink:href="#mddd4e09b6e" y="159.744"/>
      </g>
     </g>
     <g id="text_9">
      <!-- 200 -->
      <g transform="translate(377.976357 174.342437)scale(0.1 -0.1)">
       <use xlink:href="#DejaVuSans-32"/>
       <use x="63.623047" xlink:href="#DejaVuSans-30"/>
       <use x="127.246094" xlink:href="#DejaVuSans-30"/>
      </g>
     </g>
    </g>
   </g>
   <g id="matplotlib.axis_2">
    <g id="ytick_1">
     <g id="line2d_10">
      <defs>
       <path d="M 0 0 
L -3.5 0 
" id="ma68e40dfec" style="stroke:#000000;stroke-width:0.8;"/>
      </defs>
      <g>
       <use style="stroke:#000000;stroke-width:0.8;" x="57.6" xlink:href="#ma68e40dfec" y="153.119983"/>
      </g>
     </g>
     <g id="text_10">
      <!-- −2 -->
      <defs>
       <path d="M 10.59375 35.5 
L 73.1875 35.5 
L 73.1875 27.203125 
L 10.59375 27.203125 
z
" id="DejaVuSans-2212"/>
      </defs>
      <g transform="translate(35.857813 156.919202)scale(0.1 -0.1)">
       <use xlink:href="#DejaVuSans-2212"/>
       <use x="83.789062" xlink:href="#DejaVuSans-32"/>
      </g>
     </g>
    </g>
    <g id="ytick_2">
     <g id="line2d_11">
      <g>
       <use style="stroke:#000000;stroke-width:0.8;" x="57.6" xlink:href="#ma68e40dfec" y="125.975315"/>
      </g>
     </g>
     <g id="text_11">
      <!-- 0 -->
      <g transform="translate(44.2375 129.774534)scale(0.1 -0.1)">
       <use xlink:href="#DejaVuSans-30"/>
      </g>
     </g>
    </g>
    <g id="ytick_3">
     <g id="line2d_12">
      <g>
       <use style="stroke:#000000;stroke-width:0.8;" x="57.6" xlink:href="#ma68e40dfec" y="98.830648"/>
      </g>
     </g>
     <g id="text_12">
      <!-- 2 -->
      <g transform="translate(44.2375 102.629866)scale(0.1 -0.1)">
       <use xlink:href="#DejaVuSans-32"/>
      </g>
     </g>
    </g>
    <g id="ytick_4">
     <g id="line2d_13">
      <g>
       <use style="stroke:#000000;stroke-width:0.8;" x="57.6" xlink:href="#ma68e40dfec" y="71.68598"/>
      </g>
     </g>
     <g id="text_13">
      <!-- 4 -->
      <defs>
       <path d="M 37.796875 64.3125 
L 12.890625 25.390625 
L 37.796875 25.390625 
z
M 35.203125 72.90625 
L 47.609375 72.90625 
L 47.609375 25.390625 
L 58.015625 25.390625 
L 58.015625 17.1875 
L 47.609375 17.1875 
L 47.609375 0 
L 37.796875 0 
L 37.796875 17.1875 
L 4.890625 17.1875 
L 4.890625 26.703125 
z
" id="DejaVuSans-34"/>
      </defs>
      <g transform="translate(44.2375 75.485198)scale(0.1 -0.1)">
       <use xlink:href="#DejaVuSans-34"/>
      </g>
     </g>
    </g>
    <g id="ytick_5">
     <g id="line2d_14">
      <g>
       <use style="stroke:#000000;stroke-width:0.8;" x="57.6" xlink:href="#ma68e40dfec" y="44.541312"/>
      </g>
     </g>
     <g id="text_14">
      <!-- 6 -->
      <defs>
       <path d="M 33.015625 40.375 
Q 26.375 40.375 22.484375 35.828125 
Q 18.609375 31.296875 18.609375 23.390625 
Q 18.609375 15.53125 22.484375 10.953125 
Q 26.375 6.390625 33.015625 6.390625 
Q 39.65625 6.390625 43.53125 10.953125 
Q 47.40625 15.53125 47.40625 23.390625 
Q 47.40625 31.296875 43.53125 35.828125 
Q 39.65625 40.375 33.015625 40.375 
z
M 52.59375 71.296875 
L 52.59375 62.3125 
Q 48.875 64.0625 45.09375 64.984375 
Q 41.3125 65.921875 37.59375 65.921875 
Q 27.828125 65.921875 22.671875 59.328125 
Q 17.53125 52.734375 16.796875 39.40625 
Q 19.671875 43.65625 24.015625 45.921875 
Q 28.375 48.1875 33.59375 48.1875 
Q 44.578125 48.1875 50.953125 41.515625 
Q 57.328125 34.859375 57.328125 23.390625 
Q 57.328125 12.15625 50.6875 5.359375 
Q 44.046875 -1.421875 33.015625 -1.421875 
Q 20.359375 -1.421875 13.671875 8.265625 
Q 6.984375 17.96875 6.984375 36.375 
Q 6.984375 53.65625 15.1875 63.9375 
Q 23.390625 74.21875 37.203125 74.21875 
Q 40.921875 74.21875 44.703125 73.484375 
Q 48.484375 72.75 52.59375 71.296875 
z
" id="DejaVuSans-36"/>
      </defs>
      <g transform="translate(44.2375 48.340531)scale(0.1 -0.1)">
       <use xlink:href="#DejaVuSans-36"/>
      </g>
     </g>
    </g>
   </g>
   <g id="line2d_15">
    <path clip-path="url(#pbd44115262)" d="M 73.832727 123.779225 
L 85.724835 118.742389 
L 99.995365 103.711949 
L 114.265894 139.335546 
L 138.05011 142.188431 
L 142.806953 142.727122 
L 157.077483 135.288933 
L 171.348012 111.134155 
L 185.618541 113.574148 
L 199.889071 125.257611 
L 214.1596 126.386098 
L 228.43013 154.368 
L 242.700659 129.682614 
L 256.971189 110.172091 
L 271.241718 121.267968 
L 285.512248 107.070523 
L 299.782777 126.422495 
L 314.053307 140.535875 
L 328.323836 142.574067 
L 342.594366 46.848 
L 356.864895 131.395379 
L 371.135425 135.862912 
L 385.405954 89.396368 
L 398.487273 100.483707 
L 398.487273 100.483707 
" style="fill:none;stroke:#ff0000;stroke-linecap:square;stroke-width:2;"/>
   </g>
   <g id="patch_3">
    <path d="M 57.6 159.744 
L 57.6 41.472 
" style="fill:none;stroke:#000000;stroke-linecap:square;stroke-linejoin:miter;stroke-width:0.8;"/>
   </g>
   <g id="patch_4">
    <path d="M 414.72 159.744 
L 414.72 41.472 
" style="fill:none;stroke:#000000;stroke-linecap:square;stroke-linejoin:miter;stroke-width:0.8;"/>
   </g>
   <g id="patch_5">
    <path d="M 57.6 159.744 
L 414.72 159.744 
" style="fill:none;stroke:#000000;stroke-linecap:square;stroke-linejoin:miter;stroke-width:0.8;"/>
   </g>
   <g id="patch_6">
    <path d="M 57.6 41.472 
L 414.72 41.472 
" style="fill:none;stroke:#000000;stroke-linecap:square;stroke-linejoin:miter;stroke-width:0.8;"/>
   </g>
  </g>
  <g id="axes_2">
   <g id="patch_7">
    <path d="M 57.6 307.584 
L 414.72 307.584 
L 414.72 189.312 
L 57.6 189.312 
z
" style="fill:#ffffff;"/>
   </g>
   <g id="matplotlib.axis_3">
    <g id="xtick_10">
     <g id="line2d_16">
      <g>
       <use style="stroke:#000000;stroke-width:0.8;" x="57.183776" xlink:href="#mddd4e09b6e" y="307.584"/>
      </g>
     </g>
     <g id="text_15">
      <!-- 0 -->
      <g transform="translate(54.002526 322.182437)scale(0.1 -0.1)">
       <use xlink:href="#DejaVuSans-30"/>
      </g>
     </g>
    </g>
    <g id="xtick_11">
     <g id="line2d_17">
      <g>
       <use style="stroke:#000000;stroke-width:0.8;" x="98.475818" xlink:href="#mddd4e09b6e" y="307.584"/>
      </g>
     </g>
     <g id="text_16">
      <!-- 25 -->
      <g transform="translate(92.113318 322.182437)scale(0.1 -0.1)">
       <use xlink:href="#DejaVuSans-32"/>
       <use x="63.623047" xlink:href="#DejaVuSans-35"/>
      </g>
     </g>
    </g>
    <g id="xtick_12">
     <g id="line2d_18">
      <g>
       <use style="stroke:#000000;stroke-width:0.8;" x="139.767859" xlink:href="#mddd4e09b6e" y="307.584"/>
      </g>
     </g>
     <g id="text_17">
      <!-- 50 -->
      <g transform="translate(133.405359 322.182437)scale(0.1 -0.1)">
       <use xlink:href="#DejaVuSans-35"/>
       <use x="63.623047" xlink:href="#DejaVuSans-30"/>
      </g>
     </g>
    </g>
    <g id="xtick_13">
     <g id="line2d_19">
      <g>
       <use style="stroke:#000000;stroke-width:0.8;" x="181.0599" xlink:href="#mddd4e09b6e" y="307.584"/>
      </g>
     </g>
     <g id="text_18">
      <!-- 75 -->
      <g transform="translate(174.6974 322.182437)scale(0.1 -0.1)">
       <use xlink:href="#DejaVuSans-37"/>
       <use x="63.623047" xlink:href="#DejaVuSans-35"/>
      </g>
     </g>
    </g>
    <g id="xtick_14">
     <g id="line2d_20">
      <g>
       <use style="stroke:#000000;stroke-width:0.8;" x="222.351941" xlink:href="#mddd4e09b6e" y="307.584"/>
      </g>
     </g>
     <g id="text_19">
      <!-- 100 -->
      <g transform="translate(212.808191 322.182437)scale(0.1 -0.1)">
       <use xlink:href="#DejaVuSans-31"/>
       <use x="63.623047" xlink:href="#DejaVuSans-30"/>
       <use x="127.246094" xlink:href="#DejaVuSans-30"/>
      </g>
     </g>
    </g>
    <g id="xtick_15">
     <g id="line2d_21">
      <g>
       <use style="stroke:#000000;stroke-width:0.8;" x="263.643983" xlink:href="#mddd4e09b6e" y="307.584"/>
      </g>
     </g>
     <g id="text_20">
      <!-- 125 -->
      <g transform="translate(254.100233 322.182437)scale(0.1 -0.1)">
       <use xlink:href="#DejaVuSans-31"/>
       <use x="63.623047" xlink:href="#DejaVuSans-32"/>
       <use x="127.246094" xlink:href="#DejaVuSans-35"/>
      </g>
     </g>
    </g>
    <g id="xtick_16">
     <g id="line2d_22">
      <g>
       <use style="stroke:#000000;stroke-width:0.8;" x="304.936024" xlink:href="#mddd4e09b6e" y="307.584"/>
      </g>
     </g>
     <g id="text_21">
      <!-- 150 -->
      <g transform="translate(295.392274 322.182437)scale(0.1 -0.1)">
       <use xlink:href="#DejaVuSans-31"/>
       <use x="63.623047" xlink:href="#DejaVuSans-35"/>
       <use x="127.246094" xlink:href="#DejaVuSans-30"/>
      </g>
     </g>
    </g>
    <g id="xtick_17">
     <g id="line2d_23">
      <g>
       <use style="stroke:#000000;stroke-width:0.8;" x="346.228065" xlink:href="#mddd4e09b6e" y="307.584"/>
      </g>
     </g>
     <g id="text_22">
      <!-- 175 -->
      <g transform="translate(336.684315 322.182437)scale(0.1 -0.1)">
       <use xlink:href="#DejaVuSans-31"/>
       <use x="63.623047" xlink:href="#DejaVuSans-37"/>
       <use x="127.246094" xlink:href="#DejaVuSans-35"/>
      </g>
     </g>
    </g>
    <g id="xtick_18">
     <g id="line2d_24">
      <g>
       <use style="stroke:#000000;stroke-width:0.8;" x="387.520107" xlink:href="#mddd4e09b6e" y="307.584"/>
      </g>
     </g>
     <g id="text_23">
      <!-- 200 -->
      <g transform="translate(377.976357 322.182437)scale(0.1 -0.1)">
       <use xlink:href="#DejaVuSans-32"/>
       <use x="63.623047" xlink:href="#DejaVuSans-30"/>
       <use x="127.246094" xlink:href="#DejaVuSans-30"/>
      </g>
     </g>
    </g>
    <g id="text_24">
     <!-- Time (Sec) -->
     <defs>
      <path d="M -0.296875 72.90625 
L 61.375 72.90625 
L 61.375 64.59375 
L 35.5 64.59375 
L 35.5 0 
L 25.59375 0 
L 25.59375 64.59375 
L -0.296875 64.59375 
z
" id="DejaVuSans-54"/>
      <path d="M 9.421875 54.6875 
L 18.40625 54.6875 
L 18.40625 0 
L 9.421875 0 
z
M 9.421875 75.984375 
L 18.40625 75.984375 
L 18.40625 64.59375 
L 9.421875 64.59375 
z
" id="DejaVuSans-69"/>
      <path d="M 52 44.1875 
Q 55.375 50.25 60.0625 53.125 
Q 64.75 56 71.09375 56 
Q 79.640625 56 84.28125 50.015625 
Q 88.921875 44.046875 88.921875 33.015625 
L 88.921875 0 
L 79.890625 0 
L 79.890625 32.71875 
Q 79.890625 40.578125 77.09375 44.375 
Q 74.3125 48.1875 68.609375 48.1875 
Q 61.625 48.1875 57.5625 43.546875 
Q 53.515625 38.921875 53.515625 30.90625 
L 53.515625 0 
L 44.484375 0 
L 44.484375 32.71875 
Q 44.484375 40.625 41.703125 44.40625 
Q 38.921875 48.1875 33.109375 48.1875 
Q 26.21875 48.1875 22.15625 43.53125 
Q 18.109375 38.875 18.109375 30.90625 
L 18.109375 0 
L 9.078125 0 
L 9.078125 54.6875 
L 18.109375 54.6875 
L 18.109375 46.1875 
Q 21.1875 51.21875 25.484375 53.609375 
Q 29.78125 56 35.6875 56 
Q 41.65625 56 45.828125 52.96875 
Q 50 49.953125 52 44.1875 
z
" id="DejaVuSans-6d"/>
      <path d="M 56.203125 29.59375 
L 56.203125 25.203125 
L 14.890625 25.203125 
Q 15.484375 15.921875 20.484375 11.0625 
Q 25.484375 6.203125 34.421875 6.203125 
Q 39.59375 6.203125 44.453125 7.46875 
Q 49.3125 8.734375 54.109375 11.28125 
L 54.109375 2.78125 
Q 49.265625 0.734375 44.1875 -0.34375 
Q 39.109375 -1.421875 33.890625 -1.421875 
Q 20.796875 -1.421875 13.15625 6.1875 
Q 5.515625 13.8125 5.515625 26.8125 
Q 5.515625 40.234375 12.765625 48.109375 
Q 20.015625 56 32.328125 56 
Q 43.359375 56 49.78125 48.890625 
Q 56.203125 41.796875 56.203125 29.59375 
z
M 47.21875 32.234375 
Q 47.125 39.59375 43.09375 43.984375 
Q 39.0625 48.390625 32.421875 48.390625 
Q 24.90625 48.390625 20.390625 44.140625 
Q 15.875 39.890625 15.1875 32.171875 
z
" id="DejaVuSans-65"/>
      <path id="DejaVuSans-20"/>
      <path d="M 31 75.875 
Q 24.46875 64.65625 21.28125 53.65625 
Q 18.109375 42.671875 18.109375 31.390625 
Q 18.109375 20.125 21.3125 9.0625 
Q 24.515625 -2 31 -13.1875 
L 23.1875 -13.1875 
Q 15.875 -1.703125 12.234375 9.375 
Q 8.59375 20.453125 8.59375 31.390625 
Q 8.59375 42.28125 12.203125 53.3125 
Q 15.828125 64.359375 23.1875 75.875 
z
" id="DejaVuSans-28"/>
      <path d="M 53.515625 70.515625 
L 53.515625 60.890625 
Q 47.90625 63.578125 42.921875 64.890625 
Q 37.9375 66.21875 33.296875 66.21875 
Q 25.25 66.21875 20.875 63.09375 
Q 16.5 59.96875 16.5 54.203125 
Q 16.5 49.359375 19.40625 46.890625 
Q 22.3125 44.4375 30.421875 42.921875 
L 36.375 41.703125 
Q 47.40625 39.59375 52.65625 34.296875 
Q 57.90625 29 57.90625 20.125 
Q 57.90625 9.515625 50.796875 4.046875 
Q 43.703125 -1.421875 29.984375 -1.421875 
Q 24.8125 -1.421875 18.96875 -0.25 
Q 13.140625 0.921875 6.890625 3.21875 
L 6.890625 13.375 
Q 12.890625 10.015625 18.65625 8.296875 
Q 24.421875 6.59375 29.984375 6.59375 
Q 38.421875 6.59375 43.015625 9.90625 
Q 47.609375 13.234375 47.609375 19.390625 
Q 47.609375 24.75 44.3125 27.78125 
Q 41.015625 30.8125 33.5 32.328125 
L 27.484375 33.5 
Q 16.453125 35.6875 11.515625 40.375 
Q 6.59375 45.0625 6.59375 53.421875 
Q 6.59375 63.09375 13.40625 68.65625 
Q 20.21875 74.21875 32.171875 74.21875 
Q 37.3125 74.21875 42.625 73.28125 
Q 47.953125 72.359375 53.515625 70.515625 
z
" id="DejaVuSans-53"/>
      <path d="M 48.78125 52.59375 
L 48.78125 44.1875 
Q 44.96875 46.296875 41.140625 47.34375 
Q 37.3125 48.390625 33.40625 48.390625 
Q 24.65625 48.390625 19.8125 42.84375 
Q 14.984375 37.3125 14.984375 27.296875 
Q 14.984375 17.28125 19.8125 11.734375 
Q 24.65625 6.203125 33.40625 6.203125 
Q 37.3125 6.203125 41.140625 7.25 
Q 44.96875 8.296875 48.78125 10.40625 
L 48.78125 2.09375 
Q 45.015625 0.34375 40.984375 -0.53125 
Q 36.96875 -1.421875 32.421875 -1.421875 
Q 20.0625 -1.421875 12.78125 6.34375 
Q 5.515625 14.109375 5.515625 27.296875 
Q 5.515625 40.671875 12.859375 48.328125 
Q 20.21875 56 33.015625 56 
Q 37.15625 56 41.109375 55.140625 
Q 45.0625 54.296875 48.78125 52.59375 
z
" id="DejaVuSans-63"/>
      <path d="M 8.015625 75.875 
L 15.828125 75.875 
Q 23.140625 64.359375 26.78125 53.3125 
Q 30.421875 42.28125 30.421875 31.390625 
Q 30.421875 20.453125 26.78125 9.375 
Q 23.140625 -1.703125 15.828125 -13.1875 
L 8.015625 -13.1875 
Q 14.5 -2 17.703125 9.0625 
Q 20.90625 20.125 20.90625 31.390625 
Q 20.90625 42.671875 17.703125 53.65625 
Q 14.5 64.65625 8.015625 75.875 
z
" id="DejaVuSans-29"/>
     </defs>
     <g transform="translate(209.281875 335.860562)scale(0.1 -0.1)">
      <use xlink:href="#DejaVuSans-54"/>
      <use x="61.037109" xlink:href="#DejaVuSans-69"/>
      <use x="88.820312" xlink:href="#DejaVuSans-6d"/>
      <use x="186.232422" xlink:href="#DejaVuSans-65"/>
      <use x="247.755859" xlink:href="#DejaVuSans-20"/>
      <use x="279.542969" xlink:href="#DejaVuSans-28"/>
      <use x="318.556641" xlink:href="#DejaVuSans-53"/>
      <use x="382.033203" xlink:href="#DejaVuSans-65"/>
      <use x="443.556641" xlink:href="#DejaVuSans-63"/>
      <use x="498.537109" xlink:href="#DejaVuSans-29"/>
     </g>
    </g>
   </g>
   <g id="matplotlib.axis_4">
    <g id="ytick_6">
     <g id="line2d_25">
      <g>
       <use style="stroke:#000000;stroke-width:0.8;" x="57.6" xlink:href="#ma68e40dfec" y="293.833753"/>
      </g>
     </g>
     <g id="text_25">
      <!-- −20 -->
      <g transform="translate(29.495313 297.632972)scale(0.1 -0.1)">
       <use xlink:href="#DejaVuSans-2212"/>
       <use x="83.789062" xlink:href="#DejaVuSans-32"/>
       <use x="147.412109" xlink:href="#DejaVuSans-30"/>
      </g>
     </g>
    </g>
    <g id="ytick_7">
     <g id="line2d_26">
      <g>
       <use style="stroke:#000000;stroke-width:0.8;" x="57.6" xlink:href="#ma68e40dfec" y="252.031921"/>
      </g>
     </g>
     <g id="text_26">
      <!-- 0 -->
      <g transform="translate(44.2375 255.83114)scale(0.1 -0.1)">
       <use xlink:href="#DejaVuSans-30"/>
      </g>
     </g>
    </g>
    <g id="ytick_8">
     <g id="line2d_27">
      <g>
       <use style="stroke:#000000;stroke-width:0.8;" x="57.6" xlink:href="#ma68e40dfec" y="210.23009"/>
      </g>
     </g>
     <g id="text_27">
      <!-- 20 -->
      <g transform="translate(37.875 214.029308)scale(0.1 -0.1)">
       <use xlink:href="#DejaVuSans-32"/>
       <use x="63.623047" xlink:href="#DejaVuSans-30"/>
      </g>
     </g>
    </g>
   </g>
   <g id="line2d_28">
    <path clip-path="url(#pd275642fca)" d="M 73.832727 250.62877 
L 75.021938 248.599514 
L 76.211149 246.9622 
L 77.40036 245.665574 
L 79.778781 243.688614 
L 83.346414 241.124562 
L 84.535624 240.600223 
L 85.724835 240.601693 
L 86.914046 241.342423 
L 88.103257 242.934648 
L 89.292468 245.353681 
L 90.481678 248.420704 
L 92.8601 255.228516 
L 94.049311 258.296955 
L 95.238521 260.814038 
L 96.427732 262.673341 
L 97.616943 263.87219 
L 98.806154 264.483481 
L 99.995365 264.623585 
L 101.184575 264.424032 
L 103.562997 263.482776 
L 107.130629 261.641941 
L 109.509051 260.144821 
L 111.887473 258.290159 
L 113.076683 257.146529 
L 114.265894 255.786012 
L 115.455105 254.166815 
L 116.644316 252.2789 
L 121.401159 243.777012 
L 122.59037 242.229781 
L 123.77958 241.183138 
L 124.968791 240.664473 
L 126.158002 240.652253 
L 127.347213 241.099338 
L 128.536424 241.945059 
L 129.725634 243.119078 
L 132.104056 246.132781 
L 134.482478 249.398504 
L 135.671688 250.862325 
L 136.860899 252.099597 
L 138.05011 253.068012 
L 139.239321 253.777384 
L 142.806953 255.485748 
L 143.996164 256.462828 
L 145.185375 257.843813 
L 146.374585 259.61994 
L 148.753007 263.600842 
L 149.942218 265.163895 
L 151.131429 266.024548 
L 152.320639 266.000966 
L 153.50985 265.053947 
L 154.699061 263.272862 
L 155.888272 260.837277 
L 158.266693 254.883328 
L 160.645115 248.778735 
L 161.834326 246.067256 
L 163.023536 243.799908 
L 164.212747 242.129942 
L 165.401958 241.159467 
L 166.591169 240.913967 
L 167.78038 241.328829 
L 168.96959 242.240972 
L 171.348012 244.563843 
L 172.537223 245.474514 
L 173.726434 245.984161 
L 174.915644 246.042342 
L 176.104855 245.728981 
L 178.483277 244.826728 
L 179.672488 244.7163 
L 180.861698 245.062751 
L 182.050909 245.924311 
L 183.24012 247.268164 
L 184.429331 248.993584 
L 187.996963 255.122791 
L 190.375385 258.905662 
L 191.564595 260.467731 
L 192.753806 261.731456 
L 193.943017 262.666327 
L 195.132228 263.268313 
L 196.321439 263.506192 
L 197.510649 263.211601 
L 198.69986 262.045618 
L 199.889071 259.601069 
L 201.078282 255.554634 
L 202.267493 249.78142 
L 203.456703 242.474048 
L 205.835125 226.326773 
L 207.024336 219.838931 
L 208.213546 215.892492 
L 209.402757 215.120129 
L 210.591968 217.614981 
L 211.781179 222.919308 
L 212.97039 230.145683 
L 215.348811 246.131489 
L 216.538022 253.118215 
L 217.727233 258.696518 
L 218.916444 262.596005 
L 220.105654 264.679546 
L 221.294865 264.91903 
L 222.484076 263.401764 
L 223.673287 260.33092 
L 224.862498 256.030464 
L 228.43013 240.844087 
L 229.619341 236.848645 
L 230.808551 234.016095 
L 231.997762 232.465762 
L 233.186973 232.212588 
L 234.376184 233.229613 
L 235.565395 235.460579 
L 236.754605 238.804893 
L 237.943816 243.103013 
L 241.511449 258.270497 
L 242.700659 262.207765 
L 243.88987 264.644562 
L 245.079081 265.294305 
L 246.268292 264.136232 
L 247.457502 261.390891 
L 248.646713 257.44936 
L 251.025135 247.810106 
L 253.403556 238.367928 
L 254.592767 234.4088 
L 255.781978 231.274909 
L 256.971189 229.170061 
L 258.1604 228.214965 
L 259.34961 228.417533 
L 260.538821 229.683411 
L 261.728032 231.85871 
L 262.917243 234.772084 
L 264.106454 238.256211 
L 266.484875 246.316148 
L 268.863297 254.664815 
L 270.052507 258.242647 
L 271.241718 260.931898 
L 272.430929 262.441791 
L 273.62014 262.633159 
L 274.809351 261.531893 
L 275.998561 259.299384 
L 277.187772 256.18192 
L 279.566194 248.393619 
L 281.944615 240.185761 
L 283.133826 236.648313 
L 284.323037 234.126737 
L 285.512248 233.174877 
L 286.701459 234.215875 
L 287.890669 237.426789 
L 289.07988 242.684895 
L 290.269091 249.552729 
L 293.836723 272.721591 
L 295.025934 279.127441 
L 296.215145 284.240615 
L 297.404356 287.929714 
L 298.593566 290.141578 
L 299.782777 290.885929 
L 300.971988 290.247836 
L 302.161199 288.390542 
L 303.35041 285.519087 
L 304.53962 281.809181 
L 305.728831 277.364933 
L 306.918042 272.236802 
L 308.107253 266.468372 
L 310.485674 253.356408 
L 315.242517 225.785175 
L 316.431728 219.72923 
L 317.620939 214.277376 
L 318.81015 209.658565 
L 319.999361 206.255517 
L 321.188571 204.501358 
L 322.377782 204.722413 
L 323.566993 207.031177 
L 324.756204 211.303152 
L 325.945415 217.218338 
L 327.134625 224.337847 
L 333.080679 263.366323 
L 334.26989 269.844451 
L 335.459101 275.468905 
L 336.648312 280.177586 
L 337.837522 283.983933 
L 339.026733 286.942767 
L 340.215944 289.077748 
L 341.405155 290.344448 
L 342.594366 290.66426 
L 343.783576 289.988375 
L 344.972787 288.341257 
L 346.161998 285.810501 
L 347.351209 282.489279 
L 348.54042 278.435632 
L 349.72963 273.682735 
L 350.918841 268.274455 
L 353.297263 255.88626 
L 355.675684 242.797942 
L 356.864895 236.747428 
L 358.054106 231.395612 
L 359.243317 226.898358 
L 360.432527 223.307126 
L 361.621738 220.612008 
L 362.810949 218.779889 
L 364.00016 217.761828 
L 365.189371 217.483286 
L 366.378581 217.841143 
L 367.567792 218.740759 
L 368.757003 220.17233 
L 369.946214 222.24078 
L 371.135425 225.10974 
L 372.324635 228.911529 
L 373.513846 233.681602 
L 374.703057 239.327139 
L 380.649111 270.543928 
L 381.838322 275.399785 
L 383.027532 279.427691 
L 384.216743 282.530417 
L 385.405954 284.626648 
L 386.595165 285.688927 
L 387.784376 285.766003 
L 388.973586 284.962629 
L 390.162797 283.382036 
L 391.352008 281.087996 
L 392.541219 278.115709 
L 393.73043 274.50657 
L 394.91964 270.333727 
L 397.298062 260.714771 
L 398.487273 255.468223 
L 398.487273 255.468223 
" style="fill:none;stroke:#ff0000;stroke-linecap:square;stroke-width:2;"/>
   </g>
   <g id="line2d_29">
    <path clip-path="url(#pd275642fca)" d="M 73.832727 246.390307 
L 75.021938 246.671292 
L 76.211149 235.635143 
L 77.40036 243.621869 
L 78.58957 259.475207 
L 79.778781 248.481555 
L 80.967992 247.220112 
L 82.157203 228.287243 
L 83.346414 241.589046 
L 84.535624 246.458663 
L 85.724835 232.68486 
L 86.914046 246.007837 
L 88.103257 240.719629 
L 89.292468 240.153941 
L 90.481678 245.54275 
L 91.670889 262.327342 
L 92.8601 261.002299 
L 94.049311 263.946677 
L 95.238521 253.896024 
L 96.427732 256.43283 
L 97.616943 263.968183 
L 98.806154 264.925388 
L 99.995365 263.728043 
L 101.184575 261.139602 
L 102.373786 253.226517 
L 103.562997 279.88428 
L 104.752208 266.700317 
L 105.941419 258.487053 
L 107.130629 264.516655 
L 108.31984 259.230461 
L 109.509051 259.029841 
L 110.698262 262.872066 
L 111.887473 258.306637 
L 113.076683 257.815382 
L 114.265894 240.689289 
L 115.455105 259.016623 
L 116.644316 243.448861 
L 117.833526 259.53903 
L 119.022737 258.970532 
L 121.401159 235.933507 
L 122.59037 249.540731 
L 123.77958 231.319985 
L 124.968791 248.817805 
L 126.158002 241.789921 
L 127.347213 225.870614 
L 128.536424 237.778277 
L 129.725634 251.368719 
L 130.914845 254.965268 
L 132.104056 243.742136 
L 134.482478 251.068358 
L 135.671688 237.940979 
L 136.860899 254.723192 
L 138.05011 261.523555 
L 139.239321 257.979355 
L 140.428531 245.928452 
L 141.617742 255.388682 
L 142.806953 251.066364 
L 143.996164 258.013092 
L 145.185375 262.623954 
L 146.374585 259.072628 
L 147.563796 270.627193 
L 148.753007 255.3347 
L 149.942218 262.51414 
L 151.131429 262.6773 
L 152.320639 266.519879 
L 153.50985 258.855696 
L 154.699061 269.801399 
L 155.888272 275.171545 
L 157.077483 254.666182 
L 158.266693 249.965587 
L 159.455904 246.087904 
L 160.645115 255.537714 
L 161.834326 237.852539 
L 163.023536 245.560469 
L 164.212747 246.271087 
L 165.401958 241.856037 
L 166.591169 240.160284 
L 167.78038 234.391514 
L 168.96959 238.939368 
L 170.158801 255.38843 
L 171.348012 248.361561 
L 172.537223 242.658296 
L 173.726434 240.954613 
L 174.915644 250.285587 
L 176.104855 243.462889 
L 177.294066 246.378314 
L 178.483277 239.516328 
L 179.672488 237.302478 
L 180.861698 250.872085 
L 182.050909 250.920447 
L 183.24012 256.374813 
L 184.429331 247.383178 
L 185.618541 248.788842 
L 186.807752 237.98317 
L 187.996963 264.005308 
L 189.186174 245.792451 
L 190.375385 276.648417 
L 191.564595 255.697588 
L 192.753806 269.597233 
L 193.943017 252.301198 
L 195.132228 262.784263 
L 196.321439 266.957639 
L 197.510649 258.8668 
L 198.69986 263.675013 
L 199.889071 271.786712 
L 201.078282 249.773448 
L 202.267493 232.710588 
L 203.456703 242.312663 
L 204.645914 242.100262 
L 205.835125 234.788309 
L 207.024336 221.242897 
L 208.213546 222.651385 
L 209.402757 207.601743 
L 210.591968 209.728105 
L 211.781179 221.225817 
L 212.97039 240.971633 
L 214.1596 222.184103 
L 215.348811 252.383979 
L 216.538022 257.977473 
L 217.727233 260.703155 
L 218.916444 256.134245 
L 220.105654 263.763428 
L 221.294865 263.3918 
L 222.484076 280.286755 
L 223.673287 261.948528 
L 224.862498 246.479184 
L 226.051708 240.702357 
L 227.240919 253.72553 
L 228.43013 240.874645 
L 229.619341 225.314156 
L 230.808551 232.827579 
L 231.997762 248.307608 
L 233.186973 234.513907 
L 234.376184 227.811427 
L 235.565395 243.090653 
L 236.754605 229.370547 
L 237.943816 249.377106 
L 239.133027 233.952 
L 240.322238 259.575737 
L 241.511449 260.012888 
L 242.700659 260.969933 
L 243.88987 268.892012 
L 245.079081 266.75443 
L 246.268292 263.813993 
L 247.457502 261.473071 
L 248.646713 252.546015 
L 249.835924 253.822942 
L 251.025135 244.805218 
L 252.214346 237.337763 
L 253.403556 246.512695 
L 254.592767 235.883555 
L 255.781978 235.884583 
L 256.971189 227.76995 
L 258.1604 231.321182 
L 259.34961 221.988332 
L 260.538821 228.517132 
L 261.728032 223.975567 
L 262.917243 239.706177 
L 264.106454 236.632085 
L 265.295664 247.920772 
L 266.484875 254.586707 
L 267.674086 255.648938 
L 268.863297 243.678401 
L 270.052507 246.565138 
L 271.241718 264.548648 
L 272.430929 270.578229 
L 273.62014 253.222844 
L 274.809351 263.02592 
L 275.998561 261.650572 
L 277.187772 251.143993 
L 278.376983 262.50354 
L 279.566194 254.916871 
L 280.755405 260.800497 
L 281.944615 220.551741 
L 283.133826 227.20561 
L 284.323037 228.251341 
L 285.512248 229.111446 
L 286.701459 240.636977 
L 287.890669 239.068367 
L 289.07988 253.814812 
L 290.269091 246.362083 
L 291.458302 263.297677 
L 292.647512 254.909688 
L 293.836723 274.594668 
L 295.025934 289.036785 
L 296.215145 270.682216 
L 297.404356 291.964816 
L 298.593566 286.414784 
L 299.782777 293.261824 
L 300.971988 290.171203 
L 302.161199 283.207764 
L 303.35041 291.250552 
L 304.53962 297.238965 
L 305.728831 261.978127 
L 306.918042 272.066201 
L 308.107253 266.489748 
L 309.296464 254.783626 
L 310.485674 261.82135 
L 311.674885 232.836787 
L 312.864096 257.458437 
L 314.053307 229.670472 
L 315.242517 223.884945 
L 316.431728 214.064294 
L 317.620939 226.122391 
L 318.81015 195.133556 
L 319.999361 216.112317 
L 321.188571 204.557171 
L 322.377782 197.939559 
L 323.566993 194.688 
L 324.756204 225.583443 
L 325.945415 217.019592 
L 327.134625 224.497994 
L 328.323836 239.221306 
L 329.513047 241.204367 
L 330.702258 250.659276 
L 331.891469 248.727837 
L 333.080679 253.985225 
L 335.459101 286.852803 
L 336.648312 275.503934 
L 337.837522 271.750779 
L 339.026733 302.208 
L 340.215944 295.023538 
L 341.405155 282.720247 
L 342.594366 282.709749 
L 343.783576 299.011619 
L 344.972787 288.319454 
L 346.161998 290.282496 
L 347.351209 273.091874 
L 348.54042 289.546536 
L 349.72963 267.822736 
L 350.918841 255.710861 
L 352.108052 264.266994 
L 353.297263 255.734873 
L 354.486474 261.3465 
L 355.675684 243.308227 
L 356.864895 241.349866 
L 358.054106 224.019004 
L 359.243317 224.807259 
L 360.432527 233.661276 
L 361.621738 209.994272 
L 364.00016 219.95613 
L 365.189371 214.567761 
L 366.378581 218.121869 
L 367.567792 226.004212 
L 368.757003 222.106088 
L 369.946214 223.252356 
L 371.135425 222.611613 
L 372.324635 225.457087 
L 373.513846 235.029019 
L 374.703057 238.522545 
L 375.892268 240.784479 
L 377.081479 262.794912 
L 378.270689 258.783809 
L 379.4599 259.017003 
L 380.649111 273.048561 
L 381.838322 263.170736 
L 383.027532 282.432674 
L 384.216743 293.677153 
L 385.405954 289.936618 
L 386.595165 282.443486 
L 387.784376 283.943381 
L 388.973586 276.163999 
L 390.162797 283.701461 
L 391.352008 283.70777 
L 392.541219 283.468923 
L 393.73043 269.470573 
L 394.91964 276.261348 
L 396.108851 258.07541 
L 397.298062 256.964596 
L 398.487273 268.827736 
L 398.487273 268.827736 
" style="fill:none;stroke:#0000ff;stroke-linecap:square;stroke-width:2;"/>
   </g>
   <g id="patch_8">
    <path d="M 57.6 307.584 
L 57.6 189.312 
" style="fill:none;stroke:#000000;stroke-linecap:square;stroke-linejoin:miter;stroke-width:0.8;"/>
   </g>
   <g id="patch_9">
    <path d="M 414.72 307.584 
L 414.72 189.312 
" style="fill:none;stroke:#000000;stroke-linecap:square;stroke-linejoin:miter;stroke-width:0.8;"/>
   </g>
   <g id="patch_10">
    <path d="M 57.6 307.584 
L 414.72 307.584 
" style="fill:none;stroke:#000000;stroke-linecap:square;stroke-linejoin:miter;stroke-width:0.8;"/>
   </g>
   <g id="patch_11">
    <path d="M 57.6 189.312 
L 414.72 189.312 
" style="fill:none;stroke:#000000;stroke-linecap:square;stroke-linejoin:miter;stroke-width:0.8;"/>
   </g>
   <g id="text_28">
    <!-- BOLD signal -->
    <defs>
     <path d="M 19.671875 34.8125 
L 19.671875 8.109375 
L 35.5 8.109375 
Q 43.453125 8.109375 47.28125 11.40625 
Q 51.125 14.703125 51.125 21.484375 
Q 51.125 28.328125 47.28125 31.5625 
Q 43.453125 34.8125 35.5 34.8125 
z
M 19.671875 64.796875 
L 19.671875 42.828125 
L 34.28125 42.828125 
Q 41.5 42.828125 45.03125 45.53125 
Q 48.578125 48.25 48.578125 53.8125 
Q 48.578125 59.328125 45.03125 62.0625 
Q 41.5 64.796875 34.28125 64.796875 
z
M 9.8125 72.90625 
L 35.015625 72.90625 
Q 46.296875 72.90625 52.390625 68.21875 
Q 58.5 63.53125 58.5 54.890625 
Q 58.5 48.1875 55.375 44.234375 
Q 52.25 40.28125 46.1875 39.3125 
Q 53.46875 37.75 57.5 32.78125 
Q 61.53125 27.828125 61.53125 20.40625 
Q 61.53125 10.640625 54.890625 5.3125 
Q 48.25 0 35.984375 0 
L 9.8125 0 
z
" id="DejaVuSans-42"/>
     <path d="M 39.40625 66.21875 
Q 28.65625 66.21875 22.328125 58.203125 
Q 16.015625 50.203125 16.015625 36.375 
Q 16.015625 22.609375 22.328125 14.59375 
Q 28.65625 6.59375 39.40625 6.59375 
Q 50.140625 6.59375 56.421875 14.59375 
Q 62.703125 22.609375 62.703125 36.375 
Q 62.703125 50.203125 56.421875 58.203125 
Q 50.140625 66.21875 39.40625 66.21875 
z
M 39.40625 74.21875 
Q 54.734375 74.21875 63.90625 63.9375 
Q 73.09375 53.65625 73.09375 36.375 
Q 73.09375 19.140625 63.90625 8.859375 
Q 54.734375 -1.421875 39.40625 -1.421875 
Q 24.03125 -1.421875 14.8125 8.828125 
Q 5.609375 19.09375 5.609375 36.375 
Q 5.609375 53.65625 14.8125 63.9375 
Q 24.03125 74.21875 39.40625 74.21875 
z
" id="DejaVuSans-4f"/>
     <path d="M 9.8125 72.90625 
L 19.671875 72.90625 
L 19.671875 8.296875 
L 55.171875 8.296875 
L 55.171875 0 
L 9.8125 0 
z
" id="DejaVuSans-4c"/>
     <path d="M 19.671875 64.796875 
L 19.671875 8.109375 
L 31.59375 8.109375 
Q 46.6875 8.109375 53.6875 14.9375 
Q 60.6875 21.78125 60.6875 36.53125 
Q 60.6875 51.171875 53.6875 57.984375 
Q 46.6875 64.796875 31.59375 64.796875 
z
M 9.8125 72.90625 
L 30.078125 72.90625 
Q 51.265625 72.90625 61.171875 64.09375 
Q 71.09375 55.28125 71.09375 36.53125 
Q 71.09375 17.671875 61.125 8.828125 
Q 51.171875 0 30.078125 0 
L 9.8125 0 
z
" id="DejaVuSans-44"/>
     <path d="M 44.28125 53.078125 
L 44.28125 44.578125 
Q 40.484375 46.53125 36.375 47.5 
Q 32.28125 48.484375 27.875 48.484375 
Q 21.1875 48.484375 17.84375 46.4375 
Q 14.5 44.390625 14.5 40.28125 
Q 14.5 37.15625 16.890625 35.375 
Q 19.28125 33.59375 26.515625 31.984375 
L 29.59375 31.296875 
Q 39.15625 29.25 43.1875 25.515625 
Q 47.21875 21.78125 47.21875 15.09375 
Q 47.21875 7.46875 41.1875 3.015625 
Q 35.15625 -1.421875 24.609375 -1.421875 
Q 20.21875 -1.421875 15.453125 -0.5625 
Q 10.6875 0.296875 5.421875 2 
L 5.421875 11.28125 
Q 10.40625 8.6875 15.234375 7.390625 
Q 20.0625 6.109375 24.8125 6.109375 
Q 31.15625 6.109375 34.5625 8.28125 
Q 37.984375 10.453125 37.984375 14.40625 
Q 37.984375 18.0625 35.515625 20.015625 
Q 33.0625 21.96875 24.703125 23.78125 
L 21.578125 24.515625 
Q 13.234375 26.265625 9.515625 29.90625 
Q 5.8125 33.546875 5.8125 39.890625 
Q 5.8125 47.609375 11.28125 51.796875 
Q 16.75 56 26.8125 56 
Q 31.78125 56 36.171875 55.265625 
Q 40.578125 54.546875 44.28125 53.078125 
z
" id="DejaVuSans-73"/>
     <path d="M 45.40625 27.984375 
Q 45.40625 37.75 41.375 43.109375 
Q 37.359375 48.484375 30.078125 48.484375 
Q 22.859375 48.484375 18.828125 43.109375 
Q 14.796875 37.75 14.796875 27.984375 
Q 14.796875 18.265625 18.828125 12.890625 
Q 22.859375 7.515625 30.078125 7.515625 
Q 37.359375 7.515625 41.375 12.890625 
Q 45.40625 18.265625 45.40625 27.984375 
z
M 54.390625 6.78125 
Q 54.390625 -7.171875 48.1875 -13.984375 
Q 42 -20.796875 29.203125 -20.796875 
Q 24.46875 -20.796875 20.265625 -20.09375 
Q 16.0625 -19.390625 12.109375 -17.921875 
L 12.109375 -9.1875 
Q 16.0625 -11.328125 19.921875 -12.34375 
Q 23.78125 -13.375 27.78125 -13.375 
Q 36.625 -13.375 41.015625 -8.765625 
Q 45.40625 -4.15625 45.40625 5.171875 
L 45.40625 9.625 
Q 42.625 4.78125 38.28125 2.390625 
Q 33.9375 0 27.875 0 
Q 17.828125 0 11.671875 7.65625 
Q 5.515625 15.328125 5.515625 27.984375 
Q 5.515625 40.671875 11.671875 48.328125 
Q 17.828125 56 27.875 56 
Q 33.9375 56 38.28125 53.609375 
Q 42.625 51.21875 45.40625 46.390625 
L 45.40625 54.6875 
L 54.390625 54.6875 
z
" id="DejaVuSans-67"/>
     <path d="M 54.890625 33.015625 
L 54.890625 0 
L 45.90625 0 
L 45.90625 32.71875 
Q 45.90625 40.484375 42.875 44.328125 
Q 39.84375 48.1875 33.796875 48.1875 
Q 26.515625 48.1875 22.3125 43.546875 
Q 18.109375 38.921875 18.109375 30.90625 
L 18.109375 0 
L 9.078125 0 
L 9.078125 54.6875 
L 18.109375 54.6875 
L 18.109375 46.1875 
Q 21.34375 51.125 25.703125 53.5625 
Q 30.078125 56 35.796875 56 
Q 45.21875 56 50.046875 50.171875 
Q 54.890625 44.34375 54.890625 33.015625 
z
" id="DejaVuSans-6e"/>
     <path d="M 34.28125 27.484375 
Q 23.390625 27.484375 19.1875 25 
Q 14.984375 22.515625 14.984375 16.5 
Q 14.984375 11.71875 18.140625 8.90625 
Q 21.296875 6.109375 26.703125 6.109375 
Q 34.1875 6.109375 38.703125 11.40625 
Q 43.21875 16.703125 43.21875 25.484375 
L 43.21875 27.484375 
z
M 52.203125 31.203125 
L 52.203125 0 
L 43.21875 0 
L 43.21875 8.296875 
Q 40.140625 3.328125 35.546875 0.953125 
Q 30.953125 -1.421875 24.3125 -1.421875 
Q 15.921875 -1.421875 10.953125 3.296875 
Q 6 8.015625 6 15.921875 
Q 6 25.140625 12.171875 29.828125 
Q 18.359375 34.515625 30.609375 34.515625 
L 43.21875 34.515625 
L 43.21875 35.40625 
Q 43.21875 41.609375 39.140625 45 
Q 35.0625 48.390625 27.6875 48.390625 
Q 23 48.390625 18.546875 47.265625 
Q 14.109375 46.140625 10.015625 43.890625 
L 10.015625 52.203125 
Q 14.9375 54.109375 19.578125 55.046875 
Q 24.21875 56 28.609375 56 
Q 40.484375 56 46.34375 49.84375 
Q 52.203125 43.703125 52.203125 31.203125 
z
" id="DejaVuSans-61"/>
     <path d="M 9.421875 75.984375 
L 18.40625 75.984375 
L 18.40625 0 
L 9.421875 0 
z
" id="DejaVuSans-6c"/>
    </defs>
    <g transform="translate(199.703438 183.312)scale(0.12 -0.12)">
     <use xlink:href="#DejaVuSans-42"/>
     <use x="68.587891" xlink:href="#DejaVuSans-4f"/>
     <use x="147.298828" xlink:href="#DejaVuSans-4c"/>
     <use x="203.011719" xlink:href="#DejaVuSans-44"/>
     <use x="280.013672" xlink:href="#DejaVuSans-20"/>
     <use x="311.800781" xlink:href="#DejaVuSans-73"/>
     <use x="363.900391" xlink:href="#DejaVuSans-69"/>
     <use x="391.683594" xlink:href="#DejaVuSans-67"/>
     <use x="455.160156" xlink:href="#DejaVuSans-6e"/>
     <use x="518.539062" xlink:href="#DejaVuSans-61"/>
     <use x="579.818359" xlink:href="#DejaVuSans-6c"/>
    </g>
   </g>
  </g>
 </g>
 <defs>
  <clipPath id="pbd44115262">
   <rect height="118.272" width="357.12" x="57.6" y="41.472"/>
  </clipPath>
  <clipPath id="pd275642fca">
   <rect height="118.272" width="357.12" x="57.6" y="189.312"/>
  </clipPath>
 </defs>
</svg>
