<?xml version="1.0" encoding="utf-8" standalone="no"?>
<!DOCTYPE svg PUBLIC "-//W3C//DTD SVG 1.1//EN"
  "http://www.w3.org/Graphics/SVG/1.1/DTD/svg11.dtd">
<!-- Created with matplotlib (http://matplotlib.org/) -->
<svg height="345.6pt" version="1.1" viewBox="0 0 460.8 345.6" width="460.8pt" xmlns="http://www.w3.org/2000/svg" xmlns:xlink="http://www.w3.org/1999/xlink">
 <defs>
  <style type="text/css">
*{stroke-linecap:butt;stroke-linejoin:round;}
  </style>
 </defs>
 <g id="figure_1">
  <g id="patch_1">
   <path d="M 0 345.6 
L 460.8 345.6 
L 460.8 0 
L 0 0 
z
" style="fill:#ffffff;"/>
  </g>
  <g id="axes_1">
   <g id="patch_2">
    <path d="M 57.6 159.744 
L 414.72 159.744 
L 414.72 41.472 
L 57.6 41.472 
z
" style="fill:#ffffff;"/>
   </g>
   <g id="matplotlib.axis_1">
    <g id="xtick_1">
     <g id="line2d_1">
      <defs>
       <path d="M 0 0 
L 0 3.5 
" id="mb6c604a84b" style="stroke:#000000;stroke-width:0.8;"/>
      </defs>
      <g>
       <use style="stroke:#000000;stroke-width:0.8;" x="57.183776" xlink:href="#mb6c604a84b" y="159.744"/>
      </g>
     </g>
     <g id="text_1">
      <!-- 0 -->
      <defs>
       <path d="M 31.78125 66.40625 
Q 24.171875 66.40625 20.328125 58.90625 
Q 16.5 51.421875 16.5 36.375 
Q 16.5 21.390625 20.328125 13.890625 
Q 24.171875 6.390625 31.78125 6.390625 
Q 39.453125 6.390625 43.28125 13.890625 
Q 47.125 21.390625 47.125 36.375 
Q 47.125 51.421875 43.28125 58.90625 
Q 39.453125 66.40625 31.78125 66.40625 
z
M 31.78125 74.21875 
Q 44.046875 74.21875 50.515625 64.515625 
Q 56.984375 54.828125 56.984375 36.375 
Q 56.984375 17.96875 50.515625 8.265625 
Q 44.046875 -1.421875 31.78125 -1.421875 
Q 19.53125 -1.421875 13.0625 8.265625 
Q 6.59375 17.96875 6.59375 36.375 
Q 6.59375 54.828125 13.0625 64.515625 
Q 19.53125 74.21875 31.78125 74.21875 
z
" id="DejaVuSans-30"/>
      </defs>
      <g transform="translate(54.002526 174.342437)scale(0.1 -0.1)">
       <use xlink:href="#DejaVuSans-30"/>
      </g>
     </g>
    </g>
    <g id="xtick_2">
     <g id="line2d_2">
      <g>
       <use style="stroke:#000000;stroke-width:0.8;" x="98.475818" xlink:href="#mb6c604a84b" y="159.744"/>
      </g>
     </g>
     <g id="text_2">
      <!-- 25 -->
      <defs>
       <path d="M 19.1875 8.296875 
L 53.609375 8.296875 
L 53.609375 0 
L 7.328125 0 
L 7.328125 8.296875 
Q 12.9375 14.109375 22.625 23.890625 
Q 32.328125 33.6875 34.8125 36.53125 
Q 39.546875 41.84375 41.421875 45.53125 
Q 43.3125 49.21875 43.3125 52.78125 
Q 43.3125 58.59375 39.234375 62.25 
Q 35.15625 65.921875 28.609375 65.921875 
Q 23.96875 65.921875 18.8125 64.3125 
Q 13.671875 62.703125 7.8125 59.421875 
L 7.8125 69.390625 
Q 13.765625 71.78125 18.9375 73 
Q 24.125 74.21875 28.421875 74.21875 
Q 39.75 74.21875 46.484375 68.546875 
Q 53.21875 62.890625 53.21875 53.421875 
Q 53.21875 48.921875 51.53125 44.890625 
Q 49.859375 40.875 45.40625 35.40625 
Q 44.1875 33.984375 37.640625 27.21875 
Q 31.109375 20.453125 19.1875 8.296875 
z
" id="DejaVuSans-32"/>
       <path d="M 10.796875 72.90625 
L 49.515625 72.90625 
L 49.515625 64.59375 
L 19.828125 64.59375 
L 19.828125 46.734375 
Q 21.96875 47.46875 24.109375 47.828125 
Q 26.265625 48.1875 28.421875 48.1875 
Q 40.625 48.1875 47.75 41.5 
Q 54.890625 34.8125 54.890625 23.390625 
Q 54.890625 11.625 47.5625 5.09375 
Q 40.234375 -1.421875 26.90625 -1.421875 
Q 22.3125 -1.421875 17.546875 -0.640625 
Q 12.796875 0.140625 7.71875 1.703125 
L 7.71875 11.625 
Q 12.109375 9.234375 16.796875 8.0625 
Q 21.484375 6.890625 26.703125 6.890625 
Q 35.15625 6.890625 40.078125 11.328125 
Q 45.015625 15.765625 45.015625 23.390625 
Q 45.015625 31 40.078125 35.4375 
Q 35.15625 39.890625 26.703125 39.890625 
Q 22.75 39.890625 18.8125 39.015625 
Q 14.890625 38.140625 10.796875 36.28125 
z
" id="DejaVuSans-35"/>
      </defs>
      <g transform="translate(92.113318 174.342437)scale(0.1 -0.1)">
       <use xlink:href="#DejaVuSans-32"/>
       <use x="63.623047" xlink:href="#DejaVuSans-35"/>
      </g>
     </g>
    </g>
    <g id="xtick_3">
     <g id="line2d_3">
      <g>
       <use style="stroke:#000000;stroke-width:0.8;" x="139.767859" xlink:href="#mb6c604a84b" y="159.744"/>
      </g>
     </g>
     <g id="text_3">
      <!-- 50 -->
      <g transform="translate(133.405359 174.342437)scale(0.1 -0.1)">
       <use xlink:href="#DejaVuSans-35"/>
       <use x="63.623047" xlink:href="#DejaVuSans-30"/>
      </g>
     </g>
    </g>
    <g id="xtick_4">
     <g id="line2d_4">
      <g>
       <use style="stroke:#000000;stroke-width:0.8;" x="181.0599" xlink:href="#mb6c604a84b" y="159.744"/>
      </g>
     </g>
     <g id="text_4">
      <!-- 75 -->
      <defs>
       <path d="M 8.203125 72.90625 
L 55.078125 72.90625 
L 55.078125 68.703125 
L 28.609375 0 
L 18.3125 0 
L 43.21875 64.59375 
L 8.203125 64.59375 
z
" id="DejaVuSans-37"/>
      </defs>
      <g transform="translate(174.6974 174.342437)scale(0.1 -0.1)">
       <use xlink:href="#DejaVuSans-37"/>
       <use x="63.623047" xlink:href="#DejaVuSans-35"/>
      </g>
     </g>
    </g>
    <g id="xtick_5">
     <g id="line2d_5">
      <g>
       <use style="stroke:#000000;stroke-width:0.8;" x="222.351941" xlink:href="#mb6c604a84b" y="159.744"/>
      </g>
     </g>
     <g id="text_5">
      <!-- 100 -->
      <defs>
       <path d="M 12.40625 8.296875 
L 28.515625 8.296875 
L 28.515625 63.921875 
L 10.984375 60.40625 
L 10.984375 69.390625 
L 28.421875 72.90625 
L 38.28125 72.90625 
L 38.28125 8.296875 
L 54.390625 8.296875 
L 54.390625 0 
L 12.40625 0 
z
" id="DejaVuSans-31"/>
      </defs>
      <g transform="translate(212.808191 174.342437)scale(0.1 -0.1)">
       <use xlink:href="#DejaVuSans-31"/>
       <use x="63.623047" xlink:href="#DejaVuSans-30"/>
       <use x="127.246094" xlink:href="#DejaVuSans-30"/>
      </g>
     </g>
    </g>
    <g id="xtick_6">
     <g id="line2d_6">
      <g>
       <use style="stroke:#000000;stroke-width:0.8;" x="263.643983" xlink:href="#mb6c604a84b" y="159.744"/>
      </g>
     </g>
     <g id="text_6">
      <!-- 125 -->
      <g transform="translate(254.100233 174.342437)scale(0.1 -0.1)">
       <use xlink:href="#DejaVuSans-31"/>
       <use x="63.623047" xlink:href="#DejaVuSans-32"/>
       <use x="127.246094" xlink:href="#DejaVuSans-35"/>
      </g>
     </g>
    </g>
    <g id="xtick_7">
     <g id="line2d_7">
      <g>
       <use style="stroke:#000000;stroke-width:0.8;" x="304.936024" xlink:href="#mb6c604a84b" y="159.744"/>
      </g>
     </g>
     <g id="text_7">
      <!-- 150 -->
      <g transform="translate(295.392274 174.342437)scale(0.1 -0.1)">
       <use xlink:href="#DejaVuSans-31"/>
       <use x="63.623047" xlink:href="#DejaVuSans-35"/>
       <use x="127.246094" xlink:href="#DejaVuSans-30"/>
      </g>
     </g>
    </g>
    <g id="xtick_8">
     <g id="line2d_8">
      <g>
       <use style="stroke:#000000;stroke-width:0.8;" x="346.228065" xlink:href="#mb6c604a84b" y="159.744"/>
      </g>
     </g>
     <g id="text_8">
      <!-- 175 -->
      <g transform="translate(336.684315 174.342437)scale(0.1 -0.1)">
       <use xlink:href="#DejaVuSans-31"/>
       <use x="63.623047" xlink:href="#DejaVuSans-37"/>
       <use x="127.246094" xlink:href="#DejaVuSans-35"/>
      </g>
     </g>
    </g>
    <g id="xtick_9">
     <g id="line2d_9">
      <g>
       <use style="stroke:#000000;stroke-width:0.8;" x="387.520107" xlink:href="#mb6c604a84b" y="159.744"/>
      </g>
     </g>
     <g id="text_9">
      <!-- 200 -->
      <g transform="translate(377.976357 174.342437)scale(0.1 -0.1)">
       <use xlink:href="#DejaVuSans-32"/>
       <use x="63.623047" xlink:href="#DejaVuSans-30"/>
       <use x="127.246094" xlink:href="#DejaVuSans-30"/>
      </g>
     </g>
    </g>
   </g>
   <g id="matplotlib.axis_2">
    <g id="ytick_1">
     <g id="line2d_10">
      <defs>
       <path d="M 0 0 
L -3.5 0 
" id="m79e170f8ee" style="stroke:#000000;stroke-width:0.8;"/>
      </defs>
      <g>
       <use style="stroke:#000000;stroke-width:0.8;" x="57.6" xlink:href="#m79e170f8ee" y="130.143666"/>
      </g>
     </g>
     <g id="text_10">
      <!-- −2 -->
      <defs>
       <path d="M 10.59375 35.5 
L 73.1875 35.5 
L 73.1875 27.203125 
L 10.59375 27.203125 
z
" id="DejaVuSans-2212"/>
      </defs>
      <g transform="translate(35.857813 133.942885)scale(0.1 -0.1)">
       <use xlink:href="#DejaVuSans-2212"/>
       <use x="83.789062" xlink:href="#DejaVuSans-32"/>
      </g>
     </g>
    </g>
    <g id="ytick_2">
     <g id="line2d_11">
      <g>
       <use style="stroke:#000000;stroke-width:0.8;" x="57.6" xlink:href="#m79e170f8ee" y="86.722031"/>
      </g>
     </g>
     <g id="text_11">
      <!-- 0 -->
      <g transform="translate(44.2375 90.52125)scale(0.1 -0.1)">
       <use xlink:href="#DejaVuSans-30"/>
      </g>
     </g>
    </g>
    <g id="ytick_3">
     <g id="line2d_12">
      <g>
       <use style="stroke:#000000;stroke-width:0.8;" x="57.6" xlink:href="#m79e170f8ee" y="43.300396"/>
      </g>
     </g>
     <g id="text_12">
      <!-- 2 -->
      <g transform="translate(44.2375 47.099614)scale(0.1 -0.1)">
       <use xlink:href="#DejaVuSans-32"/>
      </g>
     </g>
    </g>
   </g>
   <g id="line2d_13">
    <path clip-path="url(#pc74f0a2667)" d="M 73.832727 97.327089 
L 85.724835 120.650063 
L 99.995365 102.991676 
L 114.265894 63.013323 
L 128.536424 104.512667 
L 142.806953 46.848 
L 157.077483 128.32402 
L 171.348012 56.87709 
L 185.618541 98.648564 
L 199.889071 55.968142 
L 214.1596 95.634996 
L 228.43013 73.08611 
L 242.700659 89.701697 
L 258.1604 86.775805 
L 271.241718 85.121552 
L 286.701459 81.386779 
L 299.782777 79.102392 
L 314.053307 110.497991 
L 328.323836 103.128498 
L 342.594366 47.191021 
L 356.864895 115.940177 
L 371.135425 57.2422 
L 385.405954 99.440446 
L 398.487273 154.368 
L 398.487273 154.368 
" style="fill:none;stroke:#ff0000;stroke-linecap:square;stroke-width:2;"/>
   </g>
   <g id="patch_3">
    <path d="M 57.6 159.744 
L 57.6 41.472 
" style="fill:none;stroke:#000000;stroke-linecap:square;stroke-linejoin:miter;stroke-width:0.8;"/>
   </g>
   <g id="patch_4">
    <path d="M 414.72 159.744 
L 414.72 41.472 
" style="fill:none;stroke:#000000;stroke-linecap:square;stroke-linejoin:miter;stroke-width:0.8;"/>
   </g>
   <g id="patch_5">
    <path d="M 57.6 159.744 
L 414.72 159.744 
" style="fill:none;stroke:#000000;stroke-linecap:square;stroke-linejoin:miter;stroke-width:0.8;"/>
   </g>
   <g id="patch_6">
    <path d="M 57.6 41.472 
L 414.72 41.472 
" style="fill:none;stroke:#000000;stroke-linecap:square;stroke-linejoin:miter;stroke-width:0.8;"/>
   </g>
  </g>
  <g id="axes_2">
   <g id="patch_7">
    <path d="M 57.6 307.584 
L 414.72 307.584 
L 414.72 189.312 
L 57.6 189.312 
z
" style="fill:#ffffff;"/>
   </g>
   <g id="matplotlib.axis_3">
    <g id="xtick_10">
     <g id="line2d_14">
      <g>
       <use style="stroke:#000000;stroke-width:0.8;" x="57.183776" xlink:href="#mb6c604a84b" y="307.584"/>
      </g>
     </g>
     <g id="text_13">
      <!-- 0 -->
      <g transform="translate(54.002526 322.182437)scale(0.1 -0.1)">
       <use xlink:href="#DejaVuSans-30"/>
      </g>
     </g>
    </g>
    <g id="xtick_11">
     <g id="line2d_15">
      <g>
       <use style="stroke:#000000;stroke-width:0.8;" x="98.475818" xlink:href="#mb6c604a84b" y="307.584"/>
      </g>
     </g>
     <g id="text_14">
      <!-- 25 -->
      <g transform="translate(92.113318 322.182437)scale(0.1 -0.1)">
       <use xlink:href="#DejaVuSans-32"/>
       <use x="63.623047" xlink:href="#DejaVuSans-35"/>
      </g>
     </g>
    </g>
    <g id="xtick_12">
     <g id="line2d_16">
      <g>
       <use style="stroke:#000000;stroke-width:0.8;" x="139.767859" xlink:href="#mb6c604a84b" y="307.584"/>
      </g>
     </g>
     <g id="text_15">
      <!-- 50 -->
      <g transform="translate(133.405359 322.182437)scale(0.1 -0.1)">
       <use xlink:href="#DejaVuSans-35"/>
       <use x="63.623047" xlink:href="#DejaVuSans-30"/>
      </g>
     </g>
    </g>
    <g id="xtick_13">
     <g id="line2d_17">
      <g>
       <use style="stroke:#000000;stroke-width:0.8;" x="181.0599" xlink:href="#mb6c604a84b" y="307.584"/>
      </g>
     </g>
     <g id="text_16">
      <!-- 75 -->
      <g transform="translate(174.6974 322.182437)scale(0.1 -0.1)">
       <use xlink:href="#DejaVuSans-37"/>
       <use x="63.623047" xlink:href="#DejaVuSans-35"/>
      </g>
     </g>
    </g>
    <g id="xtick_14">
     <g id="line2d_18">
      <g>
       <use style="stroke:#000000;stroke-width:0.8;" x="222.351941" xlink:href="#mb6c604a84b" y="307.584"/>
      </g>
     </g>
     <g id="text_17">
      <!-- 100 -->
      <g transform="translate(212.808191 322.182437)scale(0.1 -0.1)">
       <use xlink:href="#DejaVuSans-31"/>
       <use x="63.623047" xlink:href="#DejaVuSans-30"/>
       <use x="127.246094" xlink:href="#DejaVuSans-30"/>
      </g>
     </g>
    </g>
    <g id="xtick_15">
     <g id="line2d_19">
      <g>
       <use style="stroke:#000000;stroke-width:0.8;" x="263.643983" xlink:href="#mb6c604a84b" y="307.584"/>
      </g>
     </g>
     <g id="text_18">
      <!-- 125 -->
      <g transform="translate(254.100233 322.182437)scale(0.1 -0.1)">
       <use xlink:href="#DejaVuSans-31"/>
       <use x="63.623047" xlink:href="#DejaVuSans-32"/>
       <use x="127.246094" xlink:href="#DejaVuSans-35"/>
      </g>
     </g>
    </g>
    <g id="xtick_16">
     <g id="line2d_20">
      <g>
       <use style="stroke:#000000;stroke-width:0.8;" x="304.936024" xlink:href="#mb6c604a84b" y="307.584"/>
      </g>
     </g>
     <g id="text_19">
      <!-- 150 -->
      <g transform="translate(295.392274 322.182437)scale(0.1 -0.1)">
       <use xlink:href="#DejaVuSans-31"/>
       <use x="63.623047" xlink:href="#DejaVuSans-35"/>
       <use x="127.246094" xlink:href="#DejaVuSans-30"/>
      </g>
     </g>
    </g>
    <g id="xtick_17">
     <g id="line2d_21">
      <g>
       <use style="stroke:#000000;stroke-width:0.8;" x="346.228065" xlink:href="#mb6c604a84b" y="307.584"/>
      </g>
     </g>
     <g id="text_20">
      <!-- 175 -->
      <g transform="translate(336.684315 322.182437)scale(0.1 -0.1)">
       <use xlink:href="#DejaVuSans-31"/>
       <use x="63.623047" xlink:href="#DejaVuSans-37"/>
       <use x="127.246094" xlink:href="#DejaVuSans-35"/>
      </g>
     </g>
    </g>
    <g id="xtick_18">
     <g id="line2d_22">
      <g>
       <use style="stroke:#000000;stroke-width:0.8;" x="387.520107" xlink:href="#mb6c604a84b" y="307.584"/>
      </g>
     </g>
     <g id="text_21">
      <!-- 200 -->
      <g transform="translate(377.976357 322.182437)scale(0.1 -0.1)">
       <use xlink:href="#DejaVuSans-32"/>
       <use x="63.623047" xlink:href="#DejaVuSans-30"/>
       <use x="127.246094" xlink:href="#DejaVuSans-30"/>
      </g>
     </g>
    </g>
    <g id="text_22">
     <!-- Time (Sec) -->
     <defs>
      <path d="M -0.296875 72.90625 
L 61.375 72.90625 
L 61.375 64.59375 
L 35.5 64.59375 
L 35.5 0 
L 25.59375 0 
L 25.59375 64.59375 
L -0.296875 64.59375 
z
" id="DejaVuSans-54"/>
      <path d="M 9.421875 54.6875 
L 18.40625 54.6875 
L 18.40625 0 
L 9.421875 0 
z
M 9.421875 75.984375 
L 18.40625 75.984375 
L 18.40625 64.59375 
L 9.421875 64.59375 
z
" id="DejaVuSans-69"/>
      <path d="M 52 44.1875 
Q 55.375 50.25 60.0625 53.125 
Q 64.75 56 71.09375 56 
Q 79.640625 56 84.28125 50.015625 
Q 88.921875 44.046875 88.921875 33.015625 
L 88.921875 0 
L 79.890625 0 
L 79.890625 32.71875 
Q 79.890625 40.578125 77.09375 44.375 
Q 74.3125 48.1875 68.609375 48.1875 
Q 61.625 48.1875 57.5625 43.546875 
Q 53.515625 38.921875 53.515625 30.90625 
L 53.515625 0 
L 44.484375 0 
L 44.484375 32.71875 
Q 44.484375 40.625 41.703125 44.40625 
Q 38.921875 48.1875 33.109375 48.1875 
Q 26.21875 48.1875 22.15625 43.53125 
Q 18.109375 38.875 18.109375 30.90625 
L 18.109375 0 
L 9.078125 0 
L 9.078125 54.6875 
L 18.109375 54.6875 
L 18.109375 46.1875 
Q 21.1875 51.21875 25.484375 53.609375 
Q 29.78125 56 35.6875 56 
Q 41.65625 56 45.828125 52.96875 
Q 50 49.953125 52 44.1875 
z
" id="DejaVuSans-6d"/>
      <path d="M 56.203125 29.59375 
L 56.203125 25.203125 
L 14.890625 25.203125 
Q 15.484375 15.921875 20.484375 11.0625 
Q 25.484375 6.203125 34.421875 6.203125 
Q 39.59375 6.203125 44.453125 7.46875 
Q 49.3125 8.734375 54.109375 11.28125 
L 54.109375 2.78125 
Q 49.265625 0.734375 44.1875 -0.34375 
Q 39.109375 -1.421875 33.890625 -1.421875 
Q 20.796875 -1.421875 13.15625 6.1875 
Q 5.515625 13.8125 5.515625 26.8125 
Q 5.515625 40.234375 12.765625 48.109375 
Q 20.015625 56 32.328125 56 
Q 43.359375 56 49.78125 48.890625 
Q 56.203125 41.796875 56.203125 29.59375 
z
M 47.21875 32.234375 
Q 47.125 39.59375 43.09375 43.984375 
Q 39.0625 48.390625 32.421875 48.390625 
Q 24.90625 48.390625 20.390625 44.140625 
Q 15.875 39.890625 15.1875 32.171875 
z
" id="DejaVuSans-65"/>
      <path id="DejaVuSans-20"/>
      <path d="M 31 75.875 
Q 24.46875 64.65625 21.28125 53.65625 
Q 18.109375 42.671875 18.109375 31.390625 
Q 18.109375 20.125 21.3125 9.0625 
Q 24.515625 -2 31 -13.1875 
L 23.1875 -13.1875 
Q 15.875 -1.703125 12.234375 9.375 
Q 8.59375 20.453125 8.59375 31.390625 
Q 8.59375 42.28125 12.203125 53.3125 
Q 15.828125 64.359375 23.1875 75.875 
z
" id="DejaVuSans-28"/>
      <path d="M 53.515625 70.515625 
L 53.515625 60.890625 
Q 47.90625 63.578125 42.921875 64.890625 
Q 37.9375 66.21875 33.296875 66.21875 
Q 25.25 66.21875 20.875 63.09375 
Q 16.5 59.96875 16.5 54.203125 
Q 16.5 49.359375 19.40625 46.890625 
Q 22.3125 44.4375 30.421875 42.921875 
L 36.375 41.703125 
Q 47.40625 39.59375 52.65625 34.296875 
Q 57.90625 29 57.90625 20.125 
Q 57.90625 9.515625 50.796875 4.046875 
Q 43.703125 -1.421875 29.984375 -1.421875 
Q 24.8125 -1.421875 18.96875 -0.25 
Q 13.140625 0.921875 6.890625 3.21875 
L 6.890625 13.375 
Q 12.890625 10.015625 18.65625 8.296875 
Q 24.421875 6.59375 29.984375 6.59375 
Q 38.421875 6.59375 43.015625 9.90625 
Q 47.609375 13.234375 47.609375 19.390625 
Q 47.609375 24.75 44.3125 27.78125 
Q 41.015625 30.8125 33.5 32.328125 
L 27.484375 33.5 
Q 16.453125 35.6875 11.515625 40.375 
Q 6.59375 45.0625 6.59375 53.421875 
Q 6.59375 63.09375 13.40625 68.65625 
Q 20.21875 74.21875 32.171875 74.21875 
Q 37.3125 74.21875 42.625 73.28125 
Q 47.953125 72.359375 53.515625 70.515625 
z
" id="DejaVuSans-53"/>
      <path d="M 48.78125 52.59375 
L 48.78125 44.1875 
Q 44.96875 46.296875 41.140625 47.34375 
Q 37.3125 48.390625 33.40625 48.390625 
Q 24.65625 48.390625 19.8125 42.84375 
Q 14.984375 37.3125 14.984375 27.296875 
Q 14.984375 17.28125 19.8125 11.734375 
Q 24.65625 6.203125 33.40625 6.203125 
Q 37.3125 6.203125 41.140625 7.25 
Q 44.96875 8.296875 48.78125 10.40625 
L 48.78125 2.09375 
Q 45.015625 0.34375 40.984375 -0.53125 
Q 36.96875 -1.421875 32.421875 -1.421875 
Q 20.0625 -1.421875 12.78125 6.34375 
Q 5.515625 14.109375 5.515625 27.296875 
Q 5.515625 40.671875 12.859375 48.328125 
Q 20.21875 56 33.015625 56 
Q 37.15625 56 41.109375 55.140625 
Q 45.0625 54.296875 48.78125 52.59375 
z
" id="DejaVuSans-63"/>
      <path d="M 8.015625 75.875 
L 15.828125 75.875 
Q 23.140625 64.359375 26.78125 53.3125 
Q 30.421875 42.28125 30.421875 31.390625 
Q 30.421875 20.453125 26.78125 9.375 
Q 23.140625 -1.703125 15.828125 -13.1875 
L 8.015625 -13.1875 
Q 14.5 -2 17.703125 9.0625 
Q 20.90625 20.125 20.90625 31.390625 
Q 20.90625 42.671875 17.703125 53.65625 
Q 14.5 64.65625 8.015625 75.875 
z
" id="DejaVuSans-29"/>
     </defs>
     <g transform="translate(209.281875 335.860562)scale(0.1 -0.1)">
      <use xlink:href="#DejaVuSans-54"/>
      <use x="61.037109" xlink:href="#DejaVuSans-69"/>
      <use x="88.820312" xlink:href="#DejaVuSans-6d"/>
      <use x="186.232422" xlink:href="#DejaVuSans-65"/>
      <use x="247.755859" xlink:href="#DejaVuSans-20"/>
      <use x="279.542969" xlink:href="#DejaVuSans-28"/>
      <use x="318.556641" xlink:href="#DejaVuSans-53"/>
      <use x="382.033203" xlink:href="#DejaVuSans-65"/>
      <use x="443.556641" xlink:href="#DejaVuSans-63"/>
      <use x="498.537109" xlink:href="#DejaVuSans-29"/>
     </g>
    </g>
   </g>
   <g id="matplotlib.axis_4">
    <g id="ytick_4">
     <g id="line2d_23">
      <g>
       <use style="stroke:#000000;stroke-width:0.8;" x="57.6" xlink:href="#m79e170f8ee" y="289.832702"/>
      </g>
     </g>
     <g id="text_23">
      <!-- −10 -->
      <g transform="translate(29.495313 293.631921)scale(0.1 -0.1)">
       <use xlink:href="#DejaVuSans-2212"/>
       <use x="83.789062" xlink:href="#DejaVuSans-31"/>
       <use x="147.412109" xlink:href="#DejaVuSans-30"/>
      </g>
     </g>
    </g>
    <g id="ytick_5">
     <g id="line2d_24">
      <g>
       <use style="stroke:#000000;stroke-width:0.8;" x="57.6" xlink:href="#m79e170f8ee" y="258.061524"/>
      </g>
     </g>
     <g id="text_24">
      <!-- 0 -->
      <g transform="translate(44.2375 261.860743)scale(0.1 -0.1)">
       <use xlink:href="#DejaVuSans-30"/>
      </g>
     </g>
    </g>
    <g id="ytick_6">
     <g id="line2d_25">
      <g>
       <use style="stroke:#000000;stroke-width:0.8;" x="57.6" xlink:href="#m79e170f8ee" y="226.290345"/>
      </g>
     </g>
     <g id="text_25">
      <!-- 10 -->
      <g transform="translate(37.875 230.089564)scale(0.1 -0.1)">
       <use xlink:href="#DejaVuSans-31"/>
       <use x="63.623047" xlink:href="#DejaVuSans-30"/>
      </g>
     </g>
    </g>
    <g id="ytick_7">
     <g id="line2d_26">
      <g>
       <use style="stroke:#000000;stroke-width:0.8;" x="57.6" xlink:href="#m79e170f8ee" y="194.519167"/>
      </g>
     </g>
     <g id="text_26">
      <!-- 20 -->
      <g transform="translate(37.875 198.318386)scale(0.1 -0.1)">
       <use xlink:href="#DejaVuSans-32"/>
       <use x="63.623047" xlink:href="#DejaVuSans-30"/>
      </g>
     </g>
    </g>
   </g>
   <g id="line2d_27">
    <path clip-path="url(#p0d15495d52)" d="M 73.832727 264.910499 
L 75.021938 266.737984 
L 77.40036 270.890898 
L 78.58957 272.647209 
L 79.778781 273.824268 
L 80.967992 274.259421 
L 82.157203 273.896715 
L 83.346414 272.748374 
L 84.535624 270.856556 
L 85.724835 268.28156 
L 86.914046 265.106 
L 89.292468 257.463239 
L 90.481678 253.478299 
L 91.670889 249.929884 
L 92.8601 247.298042 
L 94.049311 245.967232 
L 95.238521 246.133013 
L 96.427732 247.733666 
L 97.616943 250.387637 
L 98.806154 253.43267 
L 99.995365 256.096974 
L 101.184575 257.704189 
L 102.373786 257.820056 
L 103.562997 256.364452 
L 104.752208 253.714318 
L 105.941419 250.660527 
L 107.130629 248.174705 
L 108.31984 247.1239 
L 109.509051 248.06549 
L 110.698262 251.107307 
L 111.887473 255.799937 
L 114.265894 266.153146 
L 115.455105 269.611468 
L 116.644316 270.881589 
L 117.833526 269.750787 
L 119.022737 266.554491 
L 122.59037 253.361522 
L 123.77958 250.723666 
L 124.968791 249.760935 
L 126.158002 250.329069 
L 127.347213 251.904956 
L 128.536424 253.774603 
L 129.725634 255.249962 
L 130.914845 255.826916 
L 132.104056 255.287312 
L 133.293267 253.765595 
L 135.671688 249.725835 
L 136.860899 248.381091 
L 138.05011 248.072856 
L 139.239321 248.944159 
L 140.428531 250.84127 
L 143.996164 258.139451 
L 145.185375 259.551559 
L 146.374585 260.034728 
L 147.563796 259.659827 
L 148.753007 258.689981 
L 151.131429 256.399777 
L 152.320639 255.695797 
L 153.50985 255.511608 
L 154.699061 255.843587 
L 155.888272 256.56907 
L 159.455904 259.249678 
L 160.645115 259.820681 
L 161.834326 260.123935 
L 163.023536 260.173626 
L 164.212747 260.014807 
L 166.591169 259.306622 
L 172.537223 257.171299 
L 177.294066 255.712802 
L 180.861698 254.816183 
L 182.050909 254.594647 
L 183.24012 254.493302 
L 184.429331 254.640619 
L 185.618541 255.186949 
L 186.807752 256.25281 
L 187.996963 257.891507 
L 189.186174 260.061542 
L 192.753806 267.687507 
L 193.943017 269.663885 
L 195.132228 271.001904 
L 196.321439 271.612427 
L 197.510649 271.427556 
L 198.69986 270.360394 
L 199.889071 268.325568 
L 201.078282 265.286815 
L 202.267493 261.295242 
L 205.835125 246.870291 
L 207.024336 243.406812 
L 208.213546 241.762767 
L 209.402757 242.29223 
L 210.591968 244.962719 
L 211.781179 249.280188 
L 214.1596 259.130464 
L 215.348811 262.675993 
L 216.538022 264.36659 
L 217.727233 264.001726 
L 218.916444 261.861724 
L 222.484076 252.383245 
L 223.673287 250.773744 
L 224.862498 250.680225 
L 226.051708 252.165866 
L 227.240919 255.124819 
L 228.43013 259.347373 
L 229.619341 264.567939 
L 233.186973 282.64541 
L 234.376184 287.292674 
L 235.565395 289.665329 
L 236.754605 288.969215 
L 237.943816 284.831291 
L 239.133027 277.435865 
L 240.322238 267.6344 
L 242.700659 246.716011 
L 243.88987 238.669821 
L 245.079081 233.653534 
L 246.268292 231.98201 
L 247.457502 233.309208 
L 248.646713 236.754835 
L 251.025135 245.50124 
L 252.214346 248.87953 
L 253.403556 250.840583 
L 254.592767 251.268181 
L 255.781978 250.337049 
L 256.971189 248.395648 
L 259.34961 243.055851 
L 260.538821 240.348484 
L 261.728032 238.057927 
L 262.917243 236.555686 
L 264.106454 236.192233 
L 265.295664 237.208205 
L 266.484875 239.675596 
L 267.674086 243.465103 
L 270.052507 253.418229 
L 271.241718 258.455169 
L 272.430929 262.820761 
L 273.62014 266.172339 
L 274.809351 268.371677 
L 275.998561 269.473471 
L 277.187772 269.677666 
L 278.376983 269.259495 
L 280.755405 267.643462 
L 283.133826 266.168764 
L 285.512248 264.924054 
L 286.701459 264.139525 
L 287.890669 263.12624 
L 289.07988 261.827336 
L 290.269091 260.170125 
L 291.458302 258.044421 
L 292.647512 255.330402 
L 293.836723 251.946731 
L 295.025934 247.88835 
L 298.593566 234.043868 
L 299.782777 230.613308 
L 300.971988 228.719617 
L 302.161199 228.661178 
L 303.35041 230.477416 
L 304.53962 233.999608 
L 305.728831 238.930363 
L 306.918042 244.915548 
L 309.296464 258.649032 
L 311.674885 272.593138 
L 312.864096 278.755147 
L 314.053307 283.873553 
L 315.242517 287.677873 
L 316.431728 290.056657 
L 317.620939 291.062544 
L 318.81015 290.879165 
L 319.999361 289.769726 
L 321.188571 288.024262 
L 323.566993 283.672273 
L 325.945415 278.953803 
L 327.134625 275.964339 
L 328.323836 271.923669 
L 329.513047 266.401441 
L 330.702258 259.182266 
L 331.891469 250.395987 
L 334.26989 231.05614 
L 335.459101 222.826374 
L 336.648312 217.043311 
L 337.837522 214.357695 
L 339.026733 214.919449 
L 340.215944 218.419034 
L 341.405155 224.217627 
L 342.594366 231.523631 
L 346.161998 255.385728 
L 347.351209 262.415773 
L 348.54042 268.622162 
L 349.72963 273.984939 
L 350.918841 278.565261 
L 352.108052 282.46794 
L 353.297263 285.769388 
L 354.486474 288.408958 
L 355.675684 290.155904 
L 356.864895 290.699811 
L 358.054106 289.786986 
L 359.243317 287.317288 
L 360.432527 283.377957 
L 361.621738 278.229689 
L 364.00016 265.865596 
L 366.378581 253.312787 
L 367.567792 247.651064 
L 368.757003 242.608853 
L 369.946214 238.287302 
L 371.135425 234.74712 
L 372.324635 231.996709 
L 373.513846 229.989883 
L 374.703057 228.660032 
L 375.892268 227.988818 
L 377.081479 228.03769 
L 378.270689 228.908843 
L 379.4599 230.676943 
L 380.649111 233.341019 
L 381.838322 236.81774 
L 383.027532 240.968462 
L 385.405954 250.652192 
L 390.162797 271.436383 
L 391.352008 275.982081 
L 392.541219 279.827817 
L 393.73043 282.796864 
L 394.91964 284.810806 
L 396.108851 285.866571 
L 397.298062 285.957169 
L 398.487273 285.024748 
L 398.487273 285.024748 
" style="fill:none;stroke:#ff0000;stroke-linecap:square;stroke-width:2;"/>
   </g>
   <g id="line2d_28">
    <path clip-path="url(#p0d15495d52)" d="M 73.832727 263.107166 
L 75.021938 243.587054 
L 76.211149 268.635433 
L 77.40036 264.993994 
L 78.58957 273.621131 
L 79.778781 278.767534 
L 80.967992 286.741442 
L 82.157203 267.721408 
L 83.346414 282.363188 
L 84.535624 257.638627 
L 85.724835 259.793887 
L 86.914046 274.256389 
L 88.103257 255.37686 
L 89.292468 258.409361 
L 90.481678 286.898509 
L 91.670889 225.284982 
L 92.8601 240.872825 
L 94.049311 250.294798 
L 95.238521 235.194713 
L 96.427732 245.311154 
L 97.616943 259.358098 
L 98.806154 262.653273 
L 99.995365 245.853206 
L 101.184575 273.390564 
L 103.562997 252.766813 
L 104.752208 244.281118 
L 105.941419 249.521408 
L 107.130629 213.42329 
L 108.31984 263.799616 
L 109.509051 268.599078 
L 110.698262 246.486591 
L 111.887473 261.291017 
L 113.076683 264.129339 
L 114.265894 264.649302 
L 115.455105 269.992781 
L 116.644316 259.689875 
L 117.833526 261.040166 
L 119.022737 276.826722 
L 120.211948 268.286957 
L 121.401159 267.016373 
L 122.59037 239.160911 
L 123.77958 243.969621 
L 124.968791 258.357541 
L 126.158002 235.495537 
L 127.347213 265.964332 
L 128.536424 252.526848 
L 129.725634 262.735171 
L 130.914845 259.502103 
L 132.104056 261.481462 
L 133.293267 231.135559 
L 134.482478 243.489631 
L 135.671688 270.372661 
L 136.860899 233.870858 
L 138.05011 253.34553 
L 139.239321 251.221725 
L 140.428531 237.003541 
L 141.617742 269.627775 
L 142.806953 263.995594 
L 143.996164 270.606986 
L 145.185375 234.768144 
L 146.374585 266.394576 
L 147.563796 258.504906 
L 148.753007 238.838211 
L 149.942218 266.326917 
L 151.131429 259.533013 
L 152.320639 262.403793 
L 153.50985 265.569349 
L 154.699061 250.350901 
L 155.888272 252.274308 
L 157.077483 261.478838 
L 158.266693 250.752669 
L 159.455904 243.161197 
L 160.645115 267.936118 
L 161.834326 274.048965 
L 163.023536 252.320685 
L 164.212747 281.652339 
L 165.401958 251.86076 
L 166.591169 254.956958 
L 167.78038 256.667114 
L 168.96959 245.868394 
L 170.158801 252.407122 
L 171.348012 256.151011 
L 172.537223 273.267133 
L 173.726434 277.571171 
L 174.915644 240.628408 
L 176.104855 274.856157 
L 177.294066 224.367854 
L 178.483277 257.587252 
L 179.672488 249.200241 
L 180.861698 252.132039 
L 182.050909 251.388412 
L 183.24012 281.054301 
L 184.429331 241.315853 
L 185.618541 276.236379 
L 186.807752 251.187748 
L 187.996963 256.622438 
L 189.186174 253.315774 
L 190.375385 259.495325 
L 191.564595 257.208759 
L 192.753806 271.164548 
L 193.943017 261.78587 
L 195.132228 263.08236 
L 196.321439 291.370243 
L 197.510649 279.130918 
L 198.69986 261.44151 
L 199.889071 282.208947 
L 201.078282 268.397333 
L 202.267493 250.782434 
L 203.456703 241.280412 
L 204.645914 254.719113 
L 207.024336 237.52422 
L 208.213546 267.199182 
L 209.402757 240.80806 
L 210.591968 239.028347 
L 212.97039 244.780222 
L 214.1596 278.901061 
L 215.348811 254.492697 
L 216.538022 262.845108 
L 218.916444 268.255483 
L 220.105654 242.666764 
L 221.294865 248.710498 
L 222.484076 275.389444 
L 223.673287 256.506472 
L 224.862498 272.620435 
L 226.051708 216.81429 
L 227.240919 249.384151 
L 228.43013 249.169968 
L 229.619341 255.760966 
L 230.808551 286.324814 
L 231.997762 295.421449 
L 233.186973 299.864219 
L 234.376184 275.860785 
L 235.565395 280.233147 
L 236.754605 275.466445 
L 237.943816 281.927146 
L 239.133027 276.877853 
L 240.322238 275.440082 
L 241.511449 262.089449 
L 242.700659 246.744325 
L 243.88987 253.572989 
L 245.079081 223.902508 
L 246.268292 230.014448 
L 247.457502 238.519117 
L 248.646713 238.952404 
L 249.835924 222.603704 
L 251.025135 223.639393 
L 252.214346 267.347151 
L 253.403556 258.222514 
L 254.592767 243.619342 
L 255.781978 248.463943 
L 256.971189 283.512367 
L 258.1604 249.571602 
L 259.34961 234.448056 
L 260.538821 222.66397 
L 261.728032 254.08713 
L 262.917243 222.423257 
L 264.106454 207.78534 
L 265.295664 235.859441 
L 266.484875 242.206275 
L 267.674086 264.281562 
L 268.863297 266.599323 
L 270.052507 258.664684 
L 271.241718 264.761865 
L 272.430929 245.4839 
L 273.62014 249.16726 
L 274.809351 265.290556 
L 275.998561 287.282896 
L 277.187772 257.604609 
L 278.376983 280.129511 
L 279.566194 258.40583 
L 280.755405 257.802768 
L 281.944615 293.090776 
L 283.133826 258.295703 
L 284.323037 271.814172 
L 285.512248 260.383087 
L 286.701459 258.092222 
L 287.890669 258.201103 
L 289.07988 267.948536 
L 290.269091 242.525815 
L 291.458302 269.825503 
L 292.647512 256.365718 
L 293.836723 284.240547 
L 295.025934 249.068805 
L 296.215145 210.447479 
L 297.404356 242.446727 
L 298.593566 226.167398 
L 299.782777 207.183727 
L 300.971988 248.472909 
L 302.161199 241.067773 
L 303.35041 262.944506 
L 304.53962 217.436021 
L 305.728831 225.521051 
L 306.918042 228.045454 
L 308.107253 242.111681 
L 309.296464 286.019671 
L 310.485674 260.308265 
L 311.674885 268.798359 
L 312.864096 295.263169 
L 315.242517 276.545534 
L 316.431728 288.897914 
L 317.620939 296.035079 
L 318.81015 282.720578 
L 319.999361 267.293667 
L 321.188571 302.178195 
L 322.377782 302.208 
L 323.566993 293.172991 
L 324.756204 289.25283 
L 325.945415 269.749757 
L 327.134625 252.279019 
L 328.323836 268.444274 
L 329.513047 273.123052 
L 330.702258 253.124479 
L 331.891469 261.234352 
L 333.080679 233.968225 
L 334.26989 230.215978 
L 335.459101 241.225252 
L 336.648312 235.810614 
L 337.837522 213.43265 
L 339.026733 194.688 
L 340.215944 213.770994 
L 341.405155 201.420976 
L 342.594366 233.000417 
L 343.783576 245.789866 
L 344.972787 261.9316 
L 346.161998 253.787506 
L 348.54042 276.526532 
L 349.72963 280.306815 
L 350.918841 261.857349 
L 352.108052 279.158273 
L 353.297263 282.526764 
L 354.486474 299.139143 
L 355.675684 292.898974 
L 356.864895 290.263042 
L 358.054106 270.626336 
L 359.243317 290.946271 
L 360.432527 296.713594 
L 361.621738 273.941704 
L 362.810949 274.313961 
L 364.00016 272.680648 
L 365.189371 255.761244 
L 367.567792 242.824095 
L 368.757003 244.792295 
L 369.946214 239.742997 
L 371.135425 238.451168 
L 372.324635 220.110148 
L 373.513846 253.415836 
L 374.703057 206.219493 
L 375.892268 235.160604 
L 377.081479 228.224128 
L 378.270689 230.659816 
L 379.4599 236.098278 
L 380.649111 219.159152 
L 381.838322 238.763187 
L 383.027532 261.381452 
L 384.216743 230.69164 
L 386.595165 261.461846 
L 387.784376 257.644291 
L 388.973586 262.525709 
L 390.162797 275.684892 
L 391.352008 292.617628 
L 392.541219 264.255698 
L 393.73043 277.422346 
L 394.91964 299.760031 
L 396.108851 272.900126 
L 397.298062 296.833712 
L 398.487273 281.358591 
L 398.487273 281.358591 
" style="fill:none;stroke:#0000ff;stroke-linecap:square;stroke-width:2;"/>
   </g>
   <g id="patch_8">
    <path d="M 57.6 307.584 
L 57.6 189.312 
" style="fill:none;stroke:#000000;stroke-linecap:square;stroke-linejoin:miter;stroke-width:0.8;"/>
   </g>
   <g id="patch_9">
    <path d="M 414.72 307.584 
L 414.72 189.312 
" style="fill:none;stroke:#000000;stroke-linecap:square;stroke-linejoin:miter;stroke-width:0.8;"/>
   </g>
   <g id="patch_10">
    <path d="M 57.6 307.584 
L 414.72 307.584 
" style="fill:none;stroke:#000000;stroke-linecap:square;stroke-linejoin:miter;stroke-width:0.8;"/>
   </g>
   <g id="patch_11">
    <path d="M 57.6 189.312 
L 414.72 189.312 
" style="fill:none;stroke:#000000;stroke-linecap:square;stroke-linejoin:miter;stroke-width:0.8;"/>
   </g>
   <g id="text_27">
    <!-- BOLD signal -->
    <defs>
     <path d="M 19.671875 34.8125 
L 19.671875 8.109375 
L 35.5 8.109375 
Q 43.453125 8.109375 47.28125 11.40625 
Q 51.125 14.703125 51.125 21.484375 
Q 51.125 28.328125 47.28125 31.5625 
Q 43.453125 34.8125 35.5 34.8125 
z
M 19.671875 64.796875 
L 19.671875 42.828125 
L 34.28125 42.828125 
Q 41.5 42.828125 45.03125 45.53125 
Q 48.578125 48.25 48.578125 53.8125 
Q 48.578125 59.328125 45.03125 62.0625 
Q 41.5 64.796875 34.28125 64.796875 
z
M 9.8125 72.90625 
L 35.015625 72.90625 
Q 46.296875 72.90625 52.390625 68.21875 
Q 58.5 63.53125 58.5 54.890625 
Q 58.5 48.1875 55.375 44.234375 
Q 52.25 40.28125 46.1875 39.3125 
Q 53.46875 37.75 57.5 32.78125 
Q 61.53125 27.828125 61.53125 20.40625 
Q 61.53125 10.640625 54.890625 5.3125 
Q 48.25 0 35.984375 0 
L 9.8125 0 
z
" id="DejaVuSans-42"/>
     <path d="M 39.40625 66.21875 
Q 28.65625 66.21875 22.328125 58.203125 
Q 16.015625 50.203125 16.015625 36.375 
Q 16.015625 22.609375 22.328125 14.59375 
Q 28.65625 6.59375 39.40625 6.59375 
Q 50.140625 6.59375 56.421875 14.59375 
Q 62.703125 22.609375 62.703125 36.375 
Q 62.703125 50.203125 56.421875 58.203125 
Q 50.140625 66.21875 39.40625 66.21875 
z
M 39.40625 74.21875 
Q 54.734375 74.21875 63.90625 63.9375 
Q 73.09375 53.65625 73.09375 36.375 
Q 73.09375 19.140625 63.90625 8.859375 
Q 54.734375 -1.421875 39.40625 -1.421875 
Q 24.03125 -1.421875 14.8125 8.828125 
Q 5.609375 19.09375 5.609375 36.375 
Q 5.609375 53.65625 14.8125 63.9375 
Q 24.03125 74.21875 39.40625 74.21875 
z
" id="DejaVuSans-4f"/>
     <path d="M 9.8125 72.90625 
L 19.671875 72.90625 
L 19.671875 8.296875 
L 55.171875 8.296875 
L 55.171875 0 
L 9.8125 0 
z
" id="DejaVuSans-4c"/>
     <path d="M 19.671875 64.796875 
L 19.671875 8.109375 
L 31.59375 8.109375 
Q 46.6875 8.109375 53.6875 14.9375 
Q 60.6875 21.78125 60.6875 36.53125 
Q 60.6875 51.171875 53.6875 57.984375 
Q 46.6875 64.796875 31.59375 64.796875 
z
M 9.8125 72.90625 
L 30.078125 72.90625 
Q 51.265625 72.90625 61.171875 64.09375 
Q 71.09375 55.28125 71.09375 36.53125 
Q 71.09375 17.671875 61.125 8.828125 
Q 51.171875 0 30.078125 0 
L 9.8125 0 
z
" id="DejaVuSans-44"/>
     <path d="M 44.28125 53.078125 
L 44.28125 44.578125 
Q 40.484375 46.53125 36.375 47.5 
Q 32.28125 48.484375 27.875 48.484375 
Q 21.1875 48.484375 17.84375 46.4375 
Q 14.5 44.390625 14.5 40.28125 
Q 14.5 37.15625 16.890625 35.375 
Q 19.28125 33.59375 26.515625 31.984375 
L 29.59375 31.296875 
Q 39.15625 29.25 43.1875 25.515625 
Q 47.21875 21.78125 47.21875 15.09375 
Q 47.21875 7.46875 41.1875 3.015625 
Q 35.15625 -1.421875 24.609375 -1.421875 
Q 20.21875 -1.421875 15.453125 -0.5625 
Q 10.6875 0.296875 5.421875 2 
L 5.421875 11.28125 
Q 10.40625 8.6875 15.234375 7.390625 
Q 20.0625 6.109375 24.8125 6.109375 
Q 31.15625 6.109375 34.5625 8.28125 
Q 37.984375 10.453125 37.984375 14.40625 
Q 37.984375 18.0625 35.515625 20.015625 
Q 33.0625 21.96875 24.703125 23.78125 
L 21.578125 24.515625 
Q 13.234375 26.265625 9.515625 29.90625 
Q 5.8125 33.546875 5.8125 39.890625 
Q 5.8125 47.609375 11.28125 51.796875 
Q 16.75 56 26.8125 56 
Q 31.78125 56 36.171875 55.265625 
Q 40.578125 54.546875 44.28125 53.078125 
z
" id="DejaVuSans-73"/>
     <path d="M 45.40625 27.984375 
Q 45.40625 37.75 41.375 43.109375 
Q 37.359375 48.484375 30.078125 48.484375 
Q 22.859375 48.484375 18.828125 43.109375 
Q 14.796875 37.75 14.796875 27.984375 
Q 14.796875 18.265625 18.828125 12.890625 
Q 22.859375 7.515625 30.078125 7.515625 
Q 37.359375 7.515625 41.375 12.890625 
Q 45.40625 18.265625 45.40625 27.984375 
z
M 54.390625 6.78125 
Q 54.390625 -7.171875 48.1875 -13.984375 
Q 42 -20.796875 29.203125 -20.796875 
Q 24.46875 -20.796875 20.265625 -20.09375 
Q 16.0625 -19.390625 12.109375 -17.921875 
L 12.109375 -9.1875 
Q 16.0625 -11.328125 19.921875 -12.34375 
Q 23.78125 -13.375 27.78125 -13.375 
Q 36.625 -13.375 41.015625 -8.765625 
Q 45.40625 -4.15625 45.40625 5.171875 
L 45.40625 9.625 
Q 42.625 4.78125 38.28125 2.390625 
Q 33.9375 0 27.875 0 
Q 17.828125 0 11.671875 7.65625 
Q 5.515625 15.328125 5.515625 27.984375 
Q 5.515625 40.671875 11.671875 48.328125 
Q 17.828125 56 27.875 56 
Q 33.9375 56 38.28125 53.609375 
Q 42.625 51.21875 45.40625 46.390625 
L 45.40625 54.6875 
L 54.390625 54.6875 
z
" id="DejaVuSans-67"/>
     <path d="M 54.890625 33.015625 
L 54.890625 0 
L 45.90625 0 
L 45.90625 32.71875 
Q 45.90625 40.484375 42.875 44.328125 
Q 39.84375 48.1875 33.796875 48.1875 
Q 26.515625 48.1875 22.3125 43.546875 
Q 18.109375 38.921875 18.109375 30.90625 
L 18.109375 0 
L 9.078125 0 
L 9.078125 54.6875 
L 18.109375 54.6875 
L 18.109375 46.1875 
Q 21.34375 51.125 25.703125 53.5625 
Q 30.078125 56 35.796875 56 
Q 45.21875 56 50.046875 50.171875 
Q 54.890625 44.34375 54.890625 33.015625 
z
" id="DejaVuSans-6e"/>
     <path d="M 34.28125 27.484375 
Q 23.390625 27.484375 19.1875 25 
Q 14.984375 22.515625 14.984375 16.5 
Q 14.984375 11.71875 18.140625 8.90625 
Q 21.296875 6.109375 26.703125 6.109375 
Q 34.1875 6.109375 38.703125 11.40625 
Q 43.21875 16.703125 43.21875 25.484375 
L 43.21875 27.484375 
z
M 52.203125 31.203125 
L 52.203125 0 
L 43.21875 0 
L 43.21875 8.296875 
Q 40.140625 3.328125 35.546875 0.953125 
Q 30.953125 -1.421875 24.3125 -1.421875 
Q 15.921875 -1.421875 10.953125 3.296875 
Q 6 8.015625 6 15.921875 
Q 6 25.140625 12.171875 29.828125 
Q 18.359375 34.515625 30.609375 34.515625 
L 43.21875 34.515625 
L 43.21875 35.40625 
Q 43.21875 41.609375 39.140625 45 
Q 35.0625 48.390625 27.6875 48.390625 
Q 23 48.390625 18.546875 47.265625 
Q 14.109375 46.140625 10.015625 43.890625 
L 10.015625 52.203125 
Q 14.9375 54.109375 19.578125 55.046875 
Q 24.21875 56 28.609375 56 
Q 40.484375 56 46.34375 49.84375 
Q 52.203125 43.703125 52.203125 31.203125 
z
" id="DejaVuSans-61"/>
     <path d="M 9.421875 75.984375 
L 18.40625 75.984375 
L 18.40625 0 
L 9.421875 0 
z
" id="DejaVuSans-6c"/>
    </defs>
    <g transform="translate(199.703438 183.312)scale(0.12 -0.12)">
     <use xlink:href="#DejaVuSans-42"/>
     <use x="68.587891" xlink:href="#DejaVuSans-4f"/>
     <use x="147.298828" xlink:href="#DejaVuSans-4c"/>
     <use x="203.011719" xlink:href="#DejaVuSans-44"/>
     <use x="280.013672" xlink:href="#DejaVuSans-20"/>
     <use x="311.800781" xlink:href="#DejaVuSans-73"/>
     <use x="363.900391" xlink:href="#DejaVuSans-69"/>
     <use x="391.683594" xlink:href="#DejaVuSans-67"/>
     <use x="455.160156" xlink:href="#DejaVuSans-6e"/>
     <use x="518.539062" xlink:href="#DejaVuSans-61"/>
     <use x="579.818359" xlink:href="#DejaVuSans-6c"/>
    </g>
   </g>
  </g>
 </g>
 <defs>
  <clipPath id="pc74f0a2667">
   <rect height="118.272" width="357.12" x="57.6" y="41.472"/>
  </clipPath>
  <clipPath id="p0d15495d52">
   <rect height="118.272" width="357.12" x="57.6" y="189.312"/>
  </clipPath>
 </defs>
</svg>
