<?xml version="1.0" encoding="utf-8" standalone="no"?>
<!DOCTYPE svg PUBLIC "-//W3C//DTD SVG 1.1//EN"
  "http://www.w3.org/Graphics/SVG/1.1/DTD/svg11.dtd">
<!-- Created with matplotlib (http://matplotlib.org/) -->
<svg height="345.6pt" version="1.1" viewBox="0 0 460.8 345.6" width="460.8pt" xmlns="http://www.w3.org/2000/svg" xmlns:xlink="http://www.w3.org/1999/xlink">
 <defs>
  <style type="text/css">
*{stroke-linecap:butt;stroke-linejoin:round;}
  </style>
 </defs>
 <g id="figure_1">
  <g id="patch_1">
   <path d="M 0 345.6 
L 460.8 345.6 
L 460.8 0 
L 0 0 
z
" style="fill:#ffffff;"/>
  </g>
  <g id="axes_1">
   <g id="patch_2">
    <path d="M 57.6 159.744 
L 414.72 159.744 
L 414.72 41.472 
L 57.6 41.472 
z
" style="fill:#ffffff;"/>
   </g>
   <g id="matplotlib.axis_1">
    <g id="xtick_1">
     <g id="line2d_1">
      <defs>
       <path d="M 0 0 
L 0 3.5 
" id="m3781dc7b78" style="stroke:#000000;stroke-width:0.8;"/>
      </defs>
      <g>
       <use style="stroke:#000000;stroke-width:0.8;" x="57.183776" xlink:href="#m3781dc7b78" y="159.744"/>
      </g>
     </g>
     <g id="text_1">
      <!-- 0 -->
      <defs>
       <path d="M 31.78125 66.40625 
Q 24.171875 66.40625 20.328125 58.90625 
Q 16.5 51.421875 16.5 36.375 
Q 16.5 21.390625 20.328125 13.890625 
Q 24.171875 6.390625 31.78125 6.390625 
Q 39.453125 6.390625 43.28125 13.890625 
Q 47.125 21.390625 47.125 36.375 
Q 47.125 51.421875 43.28125 58.90625 
Q 39.453125 66.40625 31.78125 66.40625 
z
M 31.78125 74.21875 
Q 44.046875 74.21875 50.515625 64.515625 
Q 56.984375 54.828125 56.984375 36.375 
Q 56.984375 17.96875 50.515625 8.265625 
Q 44.046875 -1.421875 31.78125 -1.421875 
Q 19.53125 -1.421875 13.0625 8.265625 
Q 6.59375 17.96875 6.59375 36.375 
Q 6.59375 54.828125 13.0625 64.515625 
Q 19.53125 74.21875 31.78125 74.21875 
z
" id="DejaVuSans-30"/>
      </defs>
      <g transform="translate(54.002526 174.342437)scale(0.1 -0.1)">
       <use xlink:href="#DejaVuSans-30"/>
      </g>
     </g>
    </g>
    <g id="xtick_2">
     <g id="line2d_2">
      <g>
       <use style="stroke:#000000;stroke-width:0.8;" x="98.475818" xlink:href="#m3781dc7b78" y="159.744"/>
      </g>
     </g>
     <g id="text_2">
      <!-- 25 -->
      <defs>
       <path d="M 19.1875 8.296875 
L 53.609375 8.296875 
L 53.609375 0 
L 7.328125 0 
L 7.328125 8.296875 
Q 12.9375 14.109375 22.625 23.890625 
Q 32.328125 33.6875 34.8125 36.53125 
Q 39.546875 41.84375 41.421875 45.53125 
Q 43.3125 49.21875 43.3125 52.78125 
Q 43.3125 58.59375 39.234375 62.25 
Q 35.15625 65.921875 28.609375 65.921875 
Q 23.96875 65.921875 18.8125 64.3125 
Q 13.671875 62.703125 7.8125 59.421875 
L 7.8125 69.390625 
Q 13.765625 71.78125 18.9375 73 
Q 24.125 74.21875 28.421875 74.21875 
Q 39.75 74.21875 46.484375 68.546875 
Q 53.21875 62.890625 53.21875 53.421875 
Q 53.21875 48.921875 51.53125 44.890625 
Q 49.859375 40.875 45.40625 35.40625 
Q 44.1875 33.984375 37.640625 27.21875 
Q 31.109375 20.453125 19.1875 8.296875 
z
" id="DejaVuSans-32"/>
       <path d="M 10.796875 72.90625 
L 49.515625 72.90625 
L 49.515625 64.59375 
L 19.828125 64.59375 
L 19.828125 46.734375 
Q 21.96875 47.46875 24.109375 47.828125 
Q 26.265625 48.1875 28.421875 48.1875 
Q 40.625 48.1875 47.75 41.5 
Q 54.890625 34.8125 54.890625 23.390625 
Q 54.890625 11.625 47.5625 5.09375 
Q 40.234375 -1.421875 26.90625 -1.421875 
Q 22.3125 -1.421875 17.546875 -0.640625 
Q 12.796875 0.140625 7.71875 1.703125 
L 7.71875 11.625 
Q 12.109375 9.234375 16.796875 8.0625 
Q 21.484375 6.890625 26.703125 6.890625 
Q 35.15625 6.890625 40.078125 11.328125 
Q 45.015625 15.765625 45.015625 23.390625 
Q 45.015625 31 40.078125 35.4375 
Q 35.15625 39.890625 26.703125 39.890625 
Q 22.75 39.890625 18.8125 39.015625 
Q 14.890625 38.140625 10.796875 36.28125 
z
" id="DejaVuSans-35"/>
      </defs>
      <g transform="translate(92.113318 174.342437)scale(0.1 -0.1)">
       <use xlink:href="#DejaVuSans-32"/>
       <use x="63.623047" xlink:href="#DejaVuSans-35"/>
      </g>
     </g>
    </g>
    <g id="xtick_3">
     <g id="line2d_3">
      <g>
       <use style="stroke:#000000;stroke-width:0.8;" x="139.767859" xlink:href="#m3781dc7b78" y="159.744"/>
      </g>
     </g>
     <g id="text_3">
      <!-- 50 -->
      <g transform="translate(133.405359 174.342437)scale(0.1 -0.1)">
       <use xlink:href="#DejaVuSans-35"/>
       <use x="63.623047" xlink:href="#DejaVuSans-30"/>
      </g>
     </g>
    </g>
    <g id="xtick_4">
     <g id="line2d_4">
      <g>
       <use style="stroke:#000000;stroke-width:0.8;" x="181.0599" xlink:href="#m3781dc7b78" y="159.744"/>
      </g>
     </g>
     <g id="text_4">
      <!-- 75 -->
      <defs>
       <path d="M 8.203125 72.90625 
L 55.078125 72.90625 
L 55.078125 68.703125 
L 28.609375 0 
L 18.3125 0 
L 43.21875 64.59375 
L 8.203125 64.59375 
z
" id="DejaVuSans-37"/>
      </defs>
      <g transform="translate(174.6974 174.342437)scale(0.1 -0.1)">
       <use xlink:href="#DejaVuSans-37"/>
       <use x="63.623047" xlink:href="#DejaVuSans-35"/>
      </g>
     </g>
    </g>
    <g id="xtick_5">
     <g id="line2d_5">
      <g>
       <use style="stroke:#000000;stroke-width:0.8;" x="222.351941" xlink:href="#m3781dc7b78" y="159.744"/>
      </g>
     </g>
     <g id="text_5">
      <!-- 100 -->
      <defs>
       <path d="M 12.40625 8.296875 
L 28.515625 8.296875 
L 28.515625 63.921875 
L 10.984375 60.40625 
L 10.984375 69.390625 
L 28.421875 72.90625 
L 38.28125 72.90625 
L 38.28125 8.296875 
L 54.390625 8.296875 
L 54.390625 0 
L 12.40625 0 
z
" id="DejaVuSans-31"/>
      </defs>
      <g transform="translate(212.808191 174.342437)scale(0.1 -0.1)">
       <use xlink:href="#DejaVuSans-31"/>
       <use x="63.623047" xlink:href="#DejaVuSans-30"/>
       <use x="127.246094" xlink:href="#DejaVuSans-30"/>
      </g>
     </g>
    </g>
    <g id="xtick_6">
     <g id="line2d_6">
      <g>
       <use style="stroke:#000000;stroke-width:0.8;" x="263.643983" xlink:href="#m3781dc7b78" y="159.744"/>
      </g>
     </g>
     <g id="text_6">
      <!-- 125 -->
      <g transform="translate(254.100233 174.342437)scale(0.1 -0.1)">
       <use xlink:href="#DejaVuSans-31"/>
       <use x="63.623047" xlink:href="#DejaVuSans-32"/>
       <use x="127.246094" xlink:href="#DejaVuSans-35"/>
      </g>
     </g>
    </g>
    <g id="xtick_7">
     <g id="line2d_7">
      <g>
       <use style="stroke:#000000;stroke-width:0.8;" x="304.936024" xlink:href="#m3781dc7b78" y="159.744"/>
      </g>
     </g>
     <g id="text_7">
      <!-- 150 -->
      <g transform="translate(295.392274 174.342437)scale(0.1 -0.1)">
       <use xlink:href="#DejaVuSans-31"/>
       <use x="63.623047" xlink:href="#DejaVuSans-35"/>
       <use x="127.246094" xlink:href="#DejaVuSans-30"/>
      </g>
     </g>
    </g>
    <g id="xtick_8">
     <g id="line2d_8">
      <g>
       <use style="stroke:#000000;stroke-width:0.8;" x="346.228065" xlink:href="#m3781dc7b78" y="159.744"/>
      </g>
     </g>
     <g id="text_8">
      <!-- 175 -->
      <g transform="translate(336.684315 174.342437)scale(0.1 -0.1)">
       <use xlink:href="#DejaVuSans-31"/>
       <use x="63.623047" xlink:href="#DejaVuSans-37"/>
       <use x="127.246094" xlink:href="#DejaVuSans-35"/>
      </g>
     </g>
    </g>
    <g id="xtick_9">
     <g id="line2d_9">
      <g>
       <use style="stroke:#000000;stroke-width:0.8;" x="387.520107" xlink:href="#m3781dc7b78" y="159.744"/>
      </g>
     </g>
     <g id="text_9">
      <!-- 200 -->
      <g transform="translate(377.976357 174.342437)scale(0.1 -0.1)">
       <use xlink:href="#DejaVuSans-32"/>
       <use x="63.623047" xlink:href="#DejaVuSans-30"/>
       <use x="127.246094" xlink:href="#DejaVuSans-30"/>
      </g>
     </g>
    </g>
   </g>
   <g id="matplotlib.axis_2">
    <g id="ytick_1">
     <g id="line2d_10">
      <defs>
       <path d="M 0 0 
L -3.5 0 
" id="m5d6676c771" style="stroke:#000000;stroke-width:0.8;"/>
      </defs>
      <g>
       <use style="stroke:#000000;stroke-width:0.8;" x="57.6" xlink:href="#m5d6676c771" y="116.886173"/>
      </g>
     </g>
     <g id="text_10">
      <!-- 0 -->
      <g transform="translate(44.2375 120.685392)scale(0.1 -0.1)">
       <use xlink:href="#DejaVuSans-30"/>
      </g>
     </g>
    </g>
    <g id="ytick_2">
     <g id="line2d_11">
      <g>
       <use style="stroke:#000000;stroke-width:0.8;" x="57.6" xlink:href="#m5d6676c771" y="73.04533"/>
      </g>
     </g>
     <g id="text_11">
      <!-- 2 -->
      <g transform="translate(44.2375 76.844549)scale(0.1 -0.1)">
       <use xlink:href="#DejaVuSans-32"/>
      </g>
     </g>
    </g>
   </g>
   <g id="line2d_12">
    <path clip-path="url(#p81e20e9531)" d="M 73.832727 94.185841 
L 85.724835 98.469554 
L 99.995365 141.370747 
L 114.265894 145.202007 
L 128.536424 109.293268 
L 142.806953 84.165041 
L 157.077483 126.749337 
L 171.348012 154.368 
L 185.618541 110.415731 
L 199.889071 98.627837 
L 214.1596 82.777388 
L 228.43013 137.024814 
L 256.971189 123.022268 
L 272.430929 101.623748 
L 285.512248 82.352759 
L 299.782777 149.2027 
L 314.053307 109.748236 
L 328.323836 99.283623 
L 342.594366 84.228806 
L 356.864895 87.764997 
L 371.135425 46.848 
L 385.405954 65.36978 
L 398.487273 73.438739 
L 398.487273 73.438739 
" style="fill:none;stroke:#ff0000;stroke-linecap:square;stroke-width:2;"/>
   </g>
   <g id="patch_3">
    <path d="M 57.6 159.744 
L 57.6 41.472 
" style="fill:none;stroke:#000000;stroke-linecap:square;stroke-linejoin:miter;stroke-width:0.8;"/>
   </g>
   <g id="patch_4">
    <path d="M 414.72 159.744 
L 414.72 41.472 
" style="fill:none;stroke:#000000;stroke-linecap:square;stroke-linejoin:miter;stroke-width:0.8;"/>
   </g>
   <g id="patch_5">
    <path d="M 57.6 159.744 
L 414.72 159.744 
" style="fill:none;stroke:#000000;stroke-linecap:square;stroke-linejoin:miter;stroke-width:0.8;"/>
   </g>
   <g id="patch_6">
    <path d="M 57.6 41.472 
L 414.72 41.472 
" style="fill:none;stroke:#000000;stroke-linecap:square;stroke-linejoin:miter;stroke-width:0.8;"/>
   </g>
  </g>
  <g id="axes_2">
   <g id="patch_7">
    <path d="M 57.6 307.584 
L 414.72 307.584 
L 414.72 189.312 
L 57.6 189.312 
z
" style="fill:#ffffff;"/>
   </g>
   <g id="matplotlib.axis_3">
    <g id="xtick_10">
     <g id="line2d_13">
      <g>
       <use style="stroke:#000000;stroke-width:0.8;" x="57.183776" xlink:href="#m3781dc7b78" y="307.584"/>
      </g>
     </g>
     <g id="text_12">
      <!-- 0 -->
      <g transform="translate(54.002526 322.182437)scale(0.1 -0.1)">
       <use xlink:href="#DejaVuSans-30"/>
      </g>
     </g>
    </g>
    <g id="xtick_11">
     <g id="line2d_14">
      <g>
       <use style="stroke:#000000;stroke-width:0.8;" x="98.475818" xlink:href="#m3781dc7b78" y="307.584"/>
      </g>
     </g>
     <g id="text_13">
      <!-- 25 -->
      <g transform="translate(92.113318 322.182437)scale(0.1 -0.1)">
       <use xlink:href="#DejaVuSans-32"/>
       <use x="63.623047" xlink:href="#DejaVuSans-35"/>
      </g>
     </g>
    </g>
    <g id="xtick_12">
     <g id="line2d_15">
      <g>
       <use style="stroke:#000000;stroke-width:0.8;" x="139.767859" xlink:href="#m3781dc7b78" y="307.584"/>
      </g>
     </g>
     <g id="text_14">
      <!-- 50 -->
      <g transform="translate(133.405359 322.182437)scale(0.1 -0.1)">
       <use xlink:href="#DejaVuSans-35"/>
       <use x="63.623047" xlink:href="#DejaVuSans-30"/>
      </g>
     </g>
    </g>
    <g id="xtick_13">
     <g id="line2d_16">
      <g>
       <use style="stroke:#000000;stroke-width:0.8;" x="181.0599" xlink:href="#m3781dc7b78" y="307.584"/>
      </g>
     </g>
     <g id="text_15">
      <!-- 75 -->
      <g transform="translate(174.6974 322.182437)scale(0.1 -0.1)">
       <use xlink:href="#DejaVuSans-37"/>
       <use x="63.623047" xlink:href="#DejaVuSans-35"/>
      </g>
     </g>
    </g>
    <g id="xtick_14">
     <g id="line2d_17">
      <g>
       <use style="stroke:#000000;stroke-width:0.8;" x="222.351941" xlink:href="#m3781dc7b78" y="307.584"/>
      </g>
     </g>
     <g id="text_16">
      <!-- 100 -->
      <g transform="translate(212.808191 322.182437)scale(0.1 -0.1)">
       <use xlink:href="#DejaVuSans-31"/>
       <use x="63.623047" xlink:href="#DejaVuSans-30"/>
       <use x="127.246094" xlink:href="#DejaVuSans-30"/>
      </g>
     </g>
    </g>
    <g id="xtick_15">
     <g id="line2d_18">
      <g>
       <use style="stroke:#000000;stroke-width:0.8;" x="263.643983" xlink:href="#m3781dc7b78" y="307.584"/>
      </g>
     </g>
     <g id="text_17">
      <!-- 125 -->
      <g transform="translate(254.100233 322.182437)scale(0.1 -0.1)">
       <use xlink:href="#DejaVuSans-31"/>
       <use x="63.623047" xlink:href="#DejaVuSans-32"/>
       <use x="127.246094" xlink:href="#DejaVuSans-35"/>
      </g>
     </g>
    </g>
    <g id="xtick_16">
     <g id="line2d_19">
      <g>
       <use style="stroke:#000000;stroke-width:0.8;" x="304.936024" xlink:href="#m3781dc7b78" y="307.584"/>
      </g>
     </g>
     <g id="text_18">
      <!-- 150 -->
      <g transform="translate(295.392274 322.182437)scale(0.1 -0.1)">
       <use xlink:href="#DejaVuSans-31"/>
       <use x="63.623047" xlink:href="#DejaVuSans-35"/>
       <use x="127.246094" xlink:href="#DejaVuSans-30"/>
      </g>
     </g>
    </g>
    <g id="xtick_17">
     <g id="line2d_20">
      <g>
       <use style="stroke:#000000;stroke-width:0.8;" x="346.228065" xlink:href="#m3781dc7b78" y="307.584"/>
      </g>
     </g>
     <g id="text_19">
      <!-- 175 -->
      <g transform="translate(336.684315 322.182437)scale(0.1 -0.1)">
       <use xlink:href="#DejaVuSans-31"/>
       <use x="63.623047" xlink:href="#DejaVuSans-37"/>
       <use x="127.246094" xlink:href="#DejaVuSans-35"/>
      </g>
     </g>
    </g>
    <g id="xtick_18">
     <g id="line2d_21">
      <g>
       <use style="stroke:#000000;stroke-width:0.8;" x="387.520107" xlink:href="#m3781dc7b78" y="307.584"/>
      </g>
     </g>
     <g id="text_20">
      <!-- 200 -->
      <g transform="translate(377.976357 322.182437)scale(0.1 -0.1)">
       <use xlink:href="#DejaVuSans-32"/>
       <use x="63.623047" xlink:href="#DejaVuSans-30"/>
       <use x="127.246094" xlink:href="#DejaVuSans-30"/>
      </g>
     </g>
    </g>
    <g id="text_21">
     <!-- Time (Sec) -->
     <defs>
      <path d="M -0.296875 72.90625 
L 61.375 72.90625 
L 61.375 64.59375 
L 35.5 64.59375 
L 35.5 0 
L 25.59375 0 
L 25.59375 64.59375 
L -0.296875 64.59375 
z
" id="DejaVuSans-54"/>
      <path d="M 9.421875 54.6875 
L 18.40625 54.6875 
L 18.40625 0 
L 9.421875 0 
z
M 9.421875 75.984375 
L 18.40625 75.984375 
L 18.40625 64.59375 
L 9.421875 64.59375 
z
" id="DejaVuSans-69"/>
      <path d="M 52 44.1875 
Q 55.375 50.25 60.0625 53.125 
Q 64.75 56 71.09375 56 
Q 79.640625 56 84.28125 50.015625 
Q 88.921875 44.046875 88.921875 33.015625 
L 88.921875 0 
L 79.890625 0 
L 79.890625 32.71875 
Q 79.890625 40.578125 77.09375 44.375 
Q 74.3125 48.1875 68.609375 48.1875 
Q 61.625 48.1875 57.5625 43.546875 
Q 53.515625 38.921875 53.515625 30.90625 
L 53.515625 0 
L 44.484375 0 
L 44.484375 32.71875 
Q 44.484375 40.625 41.703125 44.40625 
Q 38.921875 48.1875 33.109375 48.1875 
Q 26.21875 48.1875 22.15625 43.53125 
Q 18.109375 38.875 18.109375 30.90625 
L 18.109375 0 
L 9.078125 0 
L 9.078125 54.6875 
L 18.109375 54.6875 
L 18.109375 46.1875 
Q 21.1875 51.21875 25.484375 53.609375 
Q 29.78125 56 35.6875 56 
Q 41.65625 56 45.828125 52.96875 
Q 50 49.953125 52 44.1875 
z
" id="DejaVuSans-6d"/>
      <path d="M 56.203125 29.59375 
L 56.203125 25.203125 
L 14.890625 25.203125 
Q 15.484375 15.921875 20.484375 11.0625 
Q 25.484375 6.203125 34.421875 6.203125 
Q 39.59375 6.203125 44.453125 7.46875 
Q 49.3125 8.734375 54.109375 11.28125 
L 54.109375 2.78125 
Q 49.265625 0.734375 44.1875 -0.34375 
Q 39.109375 -1.421875 33.890625 -1.421875 
Q 20.796875 -1.421875 13.15625 6.1875 
Q 5.515625 13.8125 5.515625 26.8125 
Q 5.515625 40.234375 12.765625 48.109375 
Q 20.015625 56 32.328125 56 
Q 43.359375 56 49.78125 48.890625 
Q 56.203125 41.796875 56.203125 29.59375 
z
M 47.21875 32.234375 
Q 47.125 39.59375 43.09375 43.984375 
Q 39.0625 48.390625 32.421875 48.390625 
Q 24.90625 48.390625 20.390625 44.140625 
Q 15.875 39.890625 15.1875 32.171875 
z
" id="DejaVuSans-65"/>
      <path id="DejaVuSans-20"/>
      <path d="M 31 75.875 
Q 24.46875 64.65625 21.28125 53.65625 
Q 18.109375 42.671875 18.109375 31.390625 
Q 18.109375 20.125 21.3125 9.0625 
Q 24.515625 -2 31 -13.1875 
L 23.1875 -13.1875 
Q 15.875 -1.703125 12.234375 9.375 
Q 8.59375 20.453125 8.59375 31.390625 
Q 8.59375 42.28125 12.203125 53.3125 
Q 15.828125 64.359375 23.1875 75.875 
z
" id="DejaVuSans-28"/>
      <path d="M 53.515625 70.515625 
L 53.515625 60.890625 
Q 47.90625 63.578125 42.921875 64.890625 
Q 37.9375 66.21875 33.296875 66.21875 
Q 25.25 66.21875 20.875 63.09375 
Q 16.5 59.96875 16.5 54.203125 
Q 16.5 49.359375 19.40625 46.890625 
Q 22.3125 44.4375 30.421875 42.921875 
L 36.375 41.703125 
Q 47.40625 39.59375 52.65625 34.296875 
Q 57.90625 29 57.90625 20.125 
Q 57.90625 9.515625 50.796875 4.046875 
Q 43.703125 -1.421875 29.984375 -1.421875 
Q 24.8125 -1.421875 18.96875 -0.25 
Q 13.140625 0.921875 6.890625 3.21875 
L 6.890625 13.375 
Q 12.890625 10.015625 18.65625 8.296875 
Q 24.421875 6.59375 29.984375 6.59375 
Q 38.421875 6.59375 43.015625 9.90625 
Q 47.609375 13.234375 47.609375 19.390625 
Q 47.609375 24.75 44.3125 27.78125 
Q 41.015625 30.8125 33.5 32.328125 
L 27.484375 33.5 
Q 16.453125 35.6875 11.515625 40.375 
Q 6.59375 45.0625 6.59375 53.421875 
Q 6.59375 63.09375 13.40625 68.65625 
Q 20.21875 74.21875 32.171875 74.21875 
Q 37.3125 74.21875 42.625 73.28125 
Q 47.953125 72.359375 53.515625 70.515625 
z
" id="DejaVuSans-53"/>
      <path d="M 48.78125 52.59375 
L 48.78125 44.1875 
Q 44.96875 46.296875 41.140625 47.34375 
Q 37.3125 48.390625 33.40625 48.390625 
Q 24.65625 48.390625 19.8125 42.84375 
Q 14.984375 37.3125 14.984375 27.296875 
Q 14.984375 17.28125 19.8125 11.734375 
Q 24.65625 6.203125 33.40625 6.203125 
Q 37.3125 6.203125 41.140625 7.25 
Q 44.96875 8.296875 48.78125 10.40625 
L 48.78125 2.09375 
Q 45.015625 0.34375 40.984375 -0.53125 
Q 36.96875 -1.421875 32.421875 -1.421875 
Q 20.0625 -1.421875 12.78125 6.34375 
Q 5.515625 14.109375 5.515625 27.296875 
Q 5.515625 40.671875 12.859375 48.328125 
Q 20.21875 56 33.015625 56 
Q 37.15625 56 41.109375 55.140625 
Q 45.0625 54.296875 48.78125 52.59375 
z
" id="DejaVuSans-63"/>
      <path d="M 8.015625 75.875 
L 15.828125 75.875 
Q 23.140625 64.359375 26.78125 53.3125 
Q 30.421875 42.28125 30.421875 31.390625 
Q 30.421875 20.453125 26.78125 9.375 
Q 23.140625 -1.703125 15.828125 -13.1875 
L 8.015625 -13.1875 
Q 14.5 -2 17.703125 9.0625 
Q 20.90625 20.125 20.90625 31.390625 
Q 20.90625 42.671875 17.703125 53.65625 
Q 14.5 64.65625 8.015625 75.875 
z
" id="DejaVuSans-29"/>
     </defs>
     <g transform="translate(209.281875 335.860562)scale(0.1 -0.1)">
      <use xlink:href="#DejaVuSans-54"/>
      <use x="61.037109" xlink:href="#DejaVuSans-69"/>
      <use x="88.820312" xlink:href="#DejaVuSans-6d"/>
      <use x="186.232422" xlink:href="#DejaVuSans-65"/>
      <use x="247.755859" xlink:href="#DejaVuSans-20"/>
      <use x="279.542969" xlink:href="#DejaVuSans-28"/>
      <use x="318.556641" xlink:href="#DejaVuSans-53"/>
      <use x="382.033203" xlink:href="#DejaVuSans-65"/>
      <use x="443.556641" xlink:href="#DejaVuSans-63"/>
      <use x="498.537109" xlink:href="#DejaVuSans-29"/>
     </g>
    </g>
   </g>
   <g id="matplotlib.axis_4">
    <g id="ytick_3">
     <g id="line2d_22">
      <g>
       <use style="stroke:#000000;stroke-width:0.8;" x="57.6" xlink:href="#m5d6676c771" y="282.652632"/>
      </g>
     </g>
     <g id="text_22">
      <!-- −10 -->
      <defs>
       <path d="M 10.59375 35.5 
L 73.1875 35.5 
L 73.1875 27.203125 
L 10.59375 27.203125 
z
" id="DejaVuSans-2212"/>
      </defs>
      <g transform="translate(29.495313 286.45185)scale(0.1 -0.1)">
       <use xlink:href="#DejaVuSans-2212"/>
       <use x="83.789062" xlink:href="#DejaVuSans-31"/>
       <use x="147.412109" xlink:href="#DejaVuSans-30"/>
      </g>
     </g>
    </g>
    <g id="ytick_4">
     <g id="line2d_23">
      <g>
       <use style="stroke:#000000;stroke-width:0.8;" x="57.6" xlink:href="#m5d6676c771" y="251.066807"/>
      </g>
     </g>
     <g id="text_23">
      <!-- 0 -->
      <g transform="translate(44.2375 254.866026)scale(0.1 -0.1)">
       <use xlink:href="#DejaVuSans-30"/>
      </g>
     </g>
    </g>
    <g id="ytick_5">
     <g id="line2d_24">
      <g>
       <use style="stroke:#000000;stroke-width:0.8;" x="57.6" xlink:href="#m5d6676c771" y="219.480983"/>
      </g>
     </g>
     <g id="text_24">
      <!-- 10 -->
      <g transform="translate(37.875 223.280201)scale(0.1 -0.1)">
       <use xlink:href="#DejaVuSans-31"/>
       <use x="63.623047" xlink:href="#DejaVuSans-30"/>
      </g>
     </g>
    </g>
   </g>
   <g id="line2d_25">
    <path clip-path="url(#pd58535c9be)" d="M 73.832727 238.75447 
L 75.021938 238.229651 
L 76.211149 238.320147 
L 77.40036 239.092801 
L 78.58957 240.612162 
L 79.778781 242.904594 
L 80.967992 245.932329 
L 82.157203 249.573838 
L 85.724835 261.553257 
L 86.914046 264.856971 
L 88.103257 267.441735 
L 89.292468 269.225558 
L 90.481678 270.166858 
L 91.670889 270.224186 
L 92.8601 269.364932 
L 94.049311 267.597218 
L 95.238521 264.991667 
L 96.427732 261.68487 
L 98.806154 253.775376 
L 101.184575 245.608427 
L 102.373786 241.864094 
L 103.562997 238.506007 
L 104.752208 235.697796 
L 105.941419 233.680488 
L 107.130629 232.714639 
L 108.31984 232.99033 
L 109.509051 234.565884 
L 110.698262 237.350612 
L 111.887473 241.119737 
L 114.265894 250.324981 
L 116.644316 259.676212 
L 117.833526 263.828411 
L 119.022737 267.347552 
L 120.211948 269.954009 
L 121.401159 271.364722 
L 122.59037 271.382832 
L 123.77958 269.958295 
L 124.968791 267.210279 
L 126.158002 263.424557 
L 130.914845 246.113718 
L 132.104056 242.856221 
L 133.293267 240.273438 
L 134.482478 238.302086 
L 135.671688 236.82282 
L 136.860899 235.69656 
L 138.05011 234.795167 
L 139.239321 234.051756 
L 140.428531 233.534768 
L 141.617742 233.462357 
L 142.806953 234.122511 
L 143.996164 235.760029 
L 145.185375 238.494203 
L 146.374585 242.266364 
L 151.131429 260.23254 
L 152.320639 263.200509 
L 153.50985 265.056916 
L 154.699061 265.835507 
L 155.888272 265.683579 
L 157.077483 264.809829 
L 158.266693 263.43918 
L 160.645115 259.995747 
L 167.78038 249.065355 
L 174.915644 237.275186 
L 176.104855 235.684651 
L 177.294066 234.728706 
L 178.483277 234.805655 
L 179.672488 236.234271 
L 180.861698 239.157603 
L 182.050909 243.469908 
L 185.618541 259.278889 
L 186.807752 263.023732 
L 187.996963 265.074244 
L 189.186174 265.293066 
L 190.375385 263.842541 
L 191.564595 261.111908 
L 193.943017 253.79466 
L 195.132228 250.09495 
L 196.321439 246.766793 
L 197.510649 243.941231 
L 198.69986 241.635512 
L 199.889071 239.789624 
L 201.078282 238.304625 
L 202.267493 237.074291 
L 204.645914 235.087871 
L 205.835125 234.315539 
L 207.024336 233.748979 
L 208.213546 233.439967 
L 209.402757 233.413386 
L 210.591968 233.636356 
L 212.97039 234.213892 
L 214.1596 234.078001 
L 215.348811 233.347929 
L 216.538022 231.897367 
L 217.727233 229.740575 
L 221.294865 221.718199 
L 222.484076 219.830039 
L 223.673287 218.833776 
L 224.862498 218.806639 
L 226.051708 219.672838 
L 227.240919 221.244164 
L 229.619341 225.530008 
L 234.376184 234.452431 
L 235.565395 237.255436 
L 236.754605 240.802775 
L 237.943816 245.242492 
L 239.133027 250.534343 
L 241.511449 262.243969 
L 242.700659 267.498136 
L 243.88987 271.597729 
L 245.079081 274.19813 
L 246.268292 275.142656 
L 247.457502 274.336634 
L 248.646713 271.660087 
L 249.835924 266.99916 
L 251.025135 260.33228 
L 252.214346 251.799309 
L 255.781978 221.312305 
L 256.971189 213.497854 
L 258.1604 208.941355 
L 259.34961 208.291847 
L 260.538821 211.54505 
L 261.728032 217.980771 
L 265.295664 242.507246 
L 266.484875 248.010221 
L 267.674086 250.987377 
L 268.863297 251.537847 
L 270.052507 250.214122 
L 271.241718 247.807528 
L 272.430929 245.117355 
L 273.62014 242.783813 
L 274.809351 241.196684 
L 275.998561 240.462084 
L 277.187772 240.440207 
L 280.755405 241.720908 
L 281.944615 241.797109 
L 284.323037 241.551453 
L 285.512248 241.846942 
L 286.701459 242.867226 
L 287.890669 244.814055 
L 289.07988 247.688157 
L 292.647512 258.049338 
L 293.836723 260.173691 
L 295.025934 260.906542 
L 296.215145 260.189402 
L 297.404356 258.312332 
L 299.782777 253.587231 
L 300.971988 252.123672 
L 302.161199 251.921271 
L 303.35041 253.107629 
L 304.53962 255.417195 
L 306.918042 260.780584 
L 308.107253 262.351346 
L 309.296464 262.473618 
L 310.485674 261.006837 
L 311.674885 258.197294 
L 314.053307 251.014417 
L 315.242517 248.04981 
L 316.431728 246.207084 
L 317.620939 245.693232 
L 318.81015 246.427403 
L 319.999361 248.093725 
L 323.566993 254.419913 
L 324.756204 255.874561 
L 325.945415 256.782345 
L 327.134625 257.206222 
L 328.323836 257.283548 
L 333.080679 256.948906 
L 334.26989 257.132221 
L 335.459101 257.476924 
L 336.648312 257.969815 
L 340.215944 259.880369 
L 341.405155 260.245173 
L 342.594366 260.137227 
L 343.783576 259.381484 
L 344.972787 257.89401 
L 346.161998 255.715646 
L 349.72963 247.569059 
L 350.918841 245.481229 
L 352.108052 244.149295 
L 353.297263 243.631957 
L 354.486474 243.815817 
L 358.054106 245.759723 
L 359.243317 245.929543 
L 360.432527 245.621112 
L 364.00016 243.598713 
L 365.189371 243.614639 
L 366.378581 244.397195 
L 367.567792 245.991749 
L 368.757003 248.261866 
L 372.324635 255.986377 
L 373.513846 257.833138 
L 374.703057 259.019641 
L 375.892268 259.511235 
L 377.081479 259.330552 
L 378.270689 258.537904 
L 379.4599 257.221298 
L 380.649111 255.489635 
L 384.216743 249.436927 
L 385.405954 247.889918 
L 386.595165 246.934798 
L 387.784376 246.67352 
L 388.973586 247.097829 
L 390.162797 248.082698 
L 393.73043 252.089883 
L 394.91964 253.044763 
L 396.108851 253.596814 
L 397.298062 253.716297 
L 398.487273 253.413386 
L 398.487273 253.413386 
" style="fill:none;stroke:#ff0000;stroke-linecap:square;stroke-width:2;"/>
   </g>
   <g id="line2d_26">
    <path clip-path="url(#pd58535c9be)" d="M 73.832727 250.477754 
L 75.021938 237.257303 
L 76.211149 230.964317 
L 77.40036 219.103002 
L 78.58957 240.027127 
L 79.778781 237.741863 
L 80.967992 269.950989 
L 82.157203 260.442344 
L 83.346414 241.612131 
L 84.535624 258.820075 
L 85.724835 240.524104 
L 86.914046 279.846486 
L 88.103257 257.373835 
L 89.292468 302.208 
L 90.481678 270.385881 
L 91.670889 243.729651 
L 92.8601 264.336079 
L 94.049311 261.622734 
L 95.238521 287.116129 
L 96.427732 245.014846 
L 97.616943 243.744627 
L 98.806154 288.668443 
L 99.995365 250.249746 
L 101.184575 246.792351 
L 102.373786 250.82645 
L 103.562997 236.132422 
L 104.752208 194.688 
L 105.941419 228.787534 
L 107.130629 253.752349 
L 108.31984 239.533576 
L 109.509051 234.702847 
L 110.698262 250.53597 
L 111.887473 221.872007 
L 114.265894 269.788697 
L 115.455105 231.927543 
L 116.644316 275.178269 
L 117.833526 244.300222 
L 119.022737 275.412262 
L 120.211948 266.369013 
L 121.401159 275.273589 
L 122.59037 279.775841 
L 123.77958 282.568793 
L 124.968791 259.227788 
L 126.158002 265.671669 
L 127.347213 234.551754 
L 128.536424 258.548713 
L 129.725634 233.967461 
L 130.914845 265.644223 
L 132.104056 250.826328 
L 133.293267 251.414626 
L 134.482478 226.75195 
L 135.671688 244.31272 
L 136.860899 230.545436 
L 138.05011 230.902607 
L 139.239321 220.498741 
L 140.428531 233.261705 
L 141.617742 243.635087 
L 142.806953 244.674743 
L 143.996164 220.839062 
L 145.185375 243.887865 
L 146.374585 264.218677 
L 147.563796 249.553731 
L 148.753007 246.725381 
L 149.942218 216.669226 
L 151.131429 254.9206 
L 152.320639 264.688814 
L 153.50985 269.720871 
L 154.699061 288.073235 
L 155.888272 292.914024 
L 157.077483 253.730399 
L 158.266693 256.8349 
L 159.455904 276.05605 
L 160.645115 225.534316 
L 161.834326 253.208123 
L 163.023536 242.381517 
L 164.212747 280.682223 
L 166.591169 247.975789 
L 167.78038 234.787938 
L 168.96959 262.459227 
L 170.158801 237.686634 
L 171.348012 246.981188 
L 172.537223 237.775901 
L 173.726434 227.464153 
L 174.915644 250.968238 
L 176.104855 223.413832 
L 177.294066 237.934817 
L 178.483277 246.148422 
L 179.672488 249.594613 
L 180.861698 228.85865 
L 182.050909 228.019948 
L 183.24012 252.540183 
L 184.429331 251.821897 
L 185.618541 265.706674 
L 186.807752 251.974381 
L 187.996963 276.035311 
L 189.186174 278.003349 
L 190.375385 251.458937 
L 191.564595 258.920691 
L 192.753806 255.763309 
L 193.943017 258.672804 
L 195.132228 249.020006 
L 196.321439 241.783233 
L 197.510649 240.948155 
L 198.69986 254.400953 
L 199.889071 235.690548 
L 201.078282 251.101014 
L 202.267493 223.497214 
L 203.456703 222.664004 
L 204.645914 241.800674 
L 205.835125 254.331644 
L 207.024336 206.810136 
L 208.213546 255.055374 
L 209.402757 218.349146 
L 210.591968 245.416427 
L 211.781179 240.351281 
L 212.97039 220.957864 
L 214.1596 231.481687 
L 215.348811 221.031664 
L 216.538022 246.123198 
L 217.727233 239.024396 
L 218.916444 233.680691 
L 220.105654 209.453492 
L 221.294865 221.233486 
L 222.484076 223.128557 
L 223.673287 208.61807 
L 224.862498 222.715617 
L 226.051708 232.547566 
L 227.240919 206.46079 
L 228.43013 237.000804 
L 229.619341 218.229549 
L 230.808551 235.957371 
L 233.186973 218.966044 
L 234.376184 233.188347 
L 235.565395 237.154407 
L 236.754605 251.026176 
L 237.943816 258.42796 
L 239.133027 242.323272 
L 240.322238 259.408291 
L 241.511449 247.697977 
L 242.700659 270.616431 
L 243.88987 253.3151 
L 245.079081 289.343146 
L 246.268292 288.572721 
L 247.457502 272.463704 
L 248.646713 273.319351 
L 249.835924 265.765725 
L 251.025135 251.412721 
L 252.214346 246.796984 
L 253.403556 248.345559 
L 254.592767 225.470216 
L 255.781978 230.895245 
L 256.971189 200.964107 
L 258.1604 238.638406 
L 259.34961 195.448265 
L 260.538821 199.937634 
L 261.728032 217.796776 
L 262.917243 221.645878 
L 264.106454 259.235703 
L 265.295664 229.568227 
L 266.484875 233.229523 
L 267.674086 255.883242 
L 268.863297 257.657523 
L 270.052507 249.754342 
L 271.241718 259.413692 
L 272.430929 248.616036 
L 273.62014 235.409247 
L 274.809351 233.641675 
L 275.998561 232.731376 
L 277.187772 246.611254 
L 278.376983 240.870525 
L 279.566194 252.985923 
L 280.755405 233.673802 
L 281.944615 226.041507 
L 283.133826 257.232111 
L 284.323037 254.163866 
L 285.512248 245.310598 
L 286.701459 239.383708 
L 287.890669 216.388092 
L 290.269091 262.71695 
L 291.458302 259.508364 
L 292.647512 274.850292 
L 293.836723 272.871307 
L 295.025934 252.400451 
L 296.215145 256.884361 
L 297.404356 254.078474 
L 298.593566 225.809224 
L 299.782777 268.866685 
L 300.971988 256.288886 
L 302.161199 245.950708 
L 303.35041 254.336949 
L 304.53962 261.746926 
L 305.728831 267.509551 
L 306.918042 255.232719 
L 308.107253 281.535471 
L 309.296464 251.291353 
L 310.485674 255.49268 
L 311.674885 254.118305 
L 312.864096 258.744036 
L 314.053307 229.845512 
L 315.242517 254.775959 
L 316.431728 244.549965 
L 317.620939 263.368322 
L 318.81015 237.440205 
L 321.188571 264.580134 
L 322.377782 239.707133 
L 323.566993 257.950482 
L 324.756204 262.01909 
L 325.945415 257.091495 
L 327.134625 241.321908 
L 328.323836 244.451489 
L 329.513047 253.04015 
L 330.702258 277.009086 
L 331.891469 265.278663 
L 333.080679 261.072796 
L 334.26989 238.578912 
L 335.459101 266.071276 
L 336.648312 272.014415 
L 337.837522 237.993972 
L 339.026733 264.694614 
L 340.215944 265.413208 
L 341.405155 268.552131 
L 342.594366 233.715701 
L 343.783576 260.309864 
L 344.972787 267.232013 
L 346.161998 243.939333 
L 347.351209 271.258708 
L 348.54042 259.311869 
L 349.72963 236.545504 
L 350.918841 254.662246 
L 352.108052 233.514742 
L 353.297263 241.768565 
L 354.486474 235.520241 
L 355.675684 249.010022 
L 356.864895 251.321576 
L 358.054106 243.991296 
L 359.243317 253.200925 
L 360.432527 245.058379 
L 361.621738 235.35835 
L 362.810949 234.852406 
L 364.00016 256.927297 
L 365.189371 243.915626 
L 366.378581 246.830115 
L 367.567792 250.354121 
L 368.757003 245.201231 
L 369.946214 246.594017 
L 371.135425 245.614382 
L 372.324635 263.904911 
L 373.513846 246.149635 
L 374.703057 270.832637 
L 375.892268 255.854912 
L 377.081479 274.459203 
L 378.270689 248.972477 
L 379.4599 249.037871 
L 380.649111 258.942629 
L 381.838322 267.633309 
L 383.027532 254.952695 
L 384.216743 228.670108 
L 385.405954 236.624383 
L 386.595165 259.394347 
L 387.784376 237.918279 
L 388.973586 276.316227 
L 390.162797 227.050962 
L 391.352008 255.932073 
L 392.541219 268.851505 
L 393.73043 236.823921 
L 394.91964 236.497142 
L 396.108851 252.753935 
L 397.298062 262.738671 
L 398.487273 255.655518 
L 398.487273 255.655518 
" style="fill:none;stroke:#0000ff;stroke-linecap:square;stroke-width:2;"/>
   </g>
   <g id="patch_8">
    <path d="M 57.6 307.584 
L 57.6 189.312 
" style="fill:none;stroke:#000000;stroke-linecap:square;stroke-linejoin:miter;stroke-width:0.8;"/>
   </g>
   <g id="patch_9">
    <path d="M 414.72 307.584 
L 414.72 189.312 
" style="fill:none;stroke:#000000;stroke-linecap:square;stroke-linejoin:miter;stroke-width:0.8;"/>
   </g>
   <g id="patch_10">
    <path d="M 57.6 307.584 
L 414.72 307.584 
" style="fill:none;stroke:#000000;stroke-linecap:square;stroke-linejoin:miter;stroke-width:0.8;"/>
   </g>
   <g id="patch_11">
    <path d="M 57.6 189.312 
L 414.72 189.312 
" style="fill:none;stroke:#000000;stroke-linecap:square;stroke-linejoin:miter;stroke-width:0.8;"/>
   </g>
   <g id="text_25">
    <!-- BOLD signal -->
    <defs>
     <path d="M 19.671875 34.8125 
L 19.671875 8.109375 
L 35.5 8.109375 
Q 43.453125 8.109375 47.28125 11.40625 
Q 51.125 14.703125 51.125 21.484375 
Q 51.125 28.328125 47.28125 31.5625 
Q 43.453125 34.8125 35.5 34.8125 
z
M 19.671875 64.796875 
L 19.671875 42.828125 
L 34.28125 42.828125 
Q 41.5 42.828125 45.03125 45.53125 
Q 48.578125 48.25 48.578125 53.8125 
Q 48.578125 59.328125 45.03125 62.0625 
Q 41.5 64.796875 34.28125 64.796875 
z
M 9.8125 72.90625 
L 35.015625 72.90625 
Q 46.296875 72.90625 52.390625 68.21875 
Q 58.5 63.53125 58.5 54.890625 
Q 58.5 48.1875 55.375 44.234375 
Q 52.25 40.28125 46.1875 39.3125 
Q 53.46875 37.75 57.5 32.78125 
Q 61.53125 27.828125 61.53125 20.40625 
Q 61.53125 10.640625 54.890625 5.3125 
Q 48.25 0 35.984375 0 
L 9.8125 0 
z
" id="DejaVuSans-42"/>
     <path d="M 39.40625 66.21875 
Q 28.65625 66.21875 22.328125 58.203125 
Q 16.015625 50.203125 16.015625 36.375 
Q 16.015625 22.609375 22.328125 14.59375 
Q 28.65625 6.59375 39.40625 6.59375 
Q 50.140625 6.59375 56.421875 14.59375 
Q 62.703125 22.609375 62.703125 36.375 
Q 62.703125 50.203125 56.421875 58.203125 
Q 50.140625 66.21875 39.40625 66.21875 
z
M 39.40625 74.21875 
Q 54.734375 74.21875 63.90625 63.9375 
Q 73.09375 53.65625 73.09375 36.375 
Q 73.09375 19.140625 63.90625 8.859375 
Q 54.734375 -1.421875 39.40625 -1.421875 
Q 24.03125 -1.421875 14.8125 8.828125 
Q 5.609375 19.09375 5.609375 36.375 
Q 5.609375 53.65625 14.8125 63.9375 
Q 24.03125 74.21875 39.40625 74.21875 
z
" id="DejaVuSans-4f"/>
     <path d="M 9.8125 72.90625 
L 19.671875 72.90625 
L 19.671875 8.296875 
L 55.171875 8.296875 
L 55.171875 0 
L 9.8125 0 
z
" id="DejaVuSans-4c"/>
     <path d="M 19.671875 64.796875 
L 19.671875 8.109375 
L 31.59375 8.109375 
Q 46.6875 8.109375 53.6875 14.9375 
Q 60.6875 21.78125 60.6875 36.53125 
Q 60.6875 51.171875 53.6875 57.984375 
Q 46.6875 64.796875 31.59375 64.796875 
z
M 9.8125 72.90625 
L 30.078125 72.90625 
Q 51.265625 72.90625 61.171875 64.09375 
Q 71.09375 55.28125 71.09375 36.53125 
Q 71.09375 17.671875 61.125 8.828125 
Q 51.171875 0 30.078125 0 
L 9.8125 0 
z
" id="DejaVuSans-44"/>
     <path d="M 44.28125 53.078125 
L 44.28125 44.578125 
Q 40.484375 46.53125 36.375 47.5 
Q 32.28125 48.484375 27.875 48.484375 
Q 21.1875 48.484375 17.84375 46.4375 
Q 14.5 44.390625 14.5 40.28125 
Q 14.5 37.15625 16.890625 35.375 
Q 19.28125 33.59375 26.515625 31.984375 
L 29.59375 31.296875 
Q 39.15625 29.25 43.1875 25.515625 
Q 47.21875 21.78125 47.21875 15.09375 
Q 47.21875 7.46875 41.1875 3.015625 
Q 35.15625 -1.421875 24.609375 -1.421875 
Q 20.21875 -1.421875 15.453125 -0.5625 
Q 10.6875 0.296875 5.421875 2 
L 5.421875 11.28125 
Q 10.40625 8.6875 15.234375 7.390625 
Q 20.0625 6.109375 24.8125 6.109375 
Q 31.15625 6.109375 34.5625 8.28125 
Q 37.984375 10.453125 37.984375 14.40625 
Q 37.984375 18.0625 35.515625 20.015625 
Q 33.0625 21.96875 24.703125 23.78125 
L 21.578125 24.515625 
Q 13.234375 26.265625 9.515625 29.90625 
Q 5.8125 33.546875 5.8125 39.890625 
Q 5.8125 47.609375 11.28125 51.796875 
Q 16.75 56 26.8125 56 
Q 31.78125 56 36.171875 55.265625 
Q 40.578125 54.546875 44.28125 53.078125 
z
" id="DejaVuSans-73"/>
     <path d="M 45.40625 27.984375 
Q 45.40625 37.75 41.375 43.109375 
Q 37.359375 48.484375 30.078125 48.484375 
Q 22.859375 48.484375 18.828125 43.109375 
Q 14.796875 37.75 14.796875 27.984375 
Q 14.796875 18.265625 18.828125 12.890625 
Q 22.859375 7.515625 30.078125 7.515625 
Q 37.359375 7.515625 41.375 12.890625 
Q 45.40625 18.265625 45.40625 27.984375 
z
M 54.390625 6.78125 
Q 54.390625 -7.171875 48.1875 -13.984375 
Q 42 -20.796875 29.203125 -20.796875 
Q 24.46875 -20.796875 20.265625 -20.09375 
Q 16.0625 -19.390625 12.109375 -17.921875 
L 12.109375 -9.1875 
Q 16.0625 -11.328125 19.921875 -12.34375 
Q 23.78125 -13.375 27.78125 -13.375 
Q 36.625 -13.375 41.015625 -8.765625 
Q 45.40625 -4.15625 45.40625 5.171875 
L 45.40625 9.625 
Q 42.625 4.78125 38.28125 2.390625 
Q 33.9375 0 27.875 0 
Q 17.828125 0 11.671875 7.65625 
Q 5.515625 15.328125 5.515625 27.984375 
Q 5.515625 40.671875 11.671875 48.328125 
Q 17.828125 56 27.875 56 
Q 33.9375 56 38.28125 53.609375 
Q 42.625 51.21875 45.40625 46.390625 
L 45.40625 54.6875 
L 54.390625 54.6875 
z
" id="DejaVuSans-67"/>
     <path d="M 54.890625 33.015625 
L 54.890625 0 
L 45.90625 0 
L 45.90625 32.71875 
Q 45.90625 40.484375 42.875 44.328125 
Q 39.84375 48.1875 33.796875 48.1875 
Q 26.515625 48.1875 22.3125 43.546875 
Q 18.109375 38.921875 18.109375 30.90625 
L 18.109375 0 
L 9.078125 0 
L 9.078125 54.6875 
L 18.109375 54.6875 
L 18.109375 46.1875 
Q 21.34375 51.125 25.703125 53.5625 
Q 30.078125 56 35.796875 56 
Q 45.21875 56 50.046875 50.171875 
Q 54.890625 44.34375 54.890625 33.015625 
z
" id="DejaVuSans-6e"/>
     <path d="M 34.28125 27.484375 
Q 23.390625 27.484375 19.1875 25 
Q 14.984375 22.515625 14.984375 16.5 
Q 14.984375 11.71875 18.140625 8.90625 
Q 21.296875 6.109375 26.703125 6.109375 
Q 34.1875 6.109375 38.703125 11.40625 
Q 43.21875 16.703125 43.21875 25.484375 
L 43.21875 27.484375 
z
M 52.203125 31.203125 
L 52.203125 0 
L 43.21875 0 
L 43.21875 8.296875 
Q 40.140625 3.328125 35.546875 0.953125 
Q 30.953125 -1.421875 24.3125 -1.421875 
Q 15.921875 -1.421875 10.953125 3.296875 
Q 6 8.015625 6 15.921875 
Q 6 25.140625 12.171875 29.828125 
Q 18.359375 34.515625 30.609375 34.515625 
L 43.21875 34.515625 
L 43.21875 35.40625 
Q 43.21875 41.609375 39.140625 45 
Q 35.0625 48.390625 27.6875 48.390625 
Q 23 48.390625 18.546875 47.265625 
Q 14.109375 46.140625 10.015625 43.890625 
L 10.015625 52.203125 
Q 14.9375 54.109375 19.578125 55.046875 
Q 24.21875 56 28.609375 56 
Q 40.484375 56 46.34375 49.84375 
Q 52.203125 43.703125 52.203125 31.203125 
z
" id="DejaVuSans-61"/>
     <path d="M 9.421875 75.984375 
L 18.40625 75.984375 
L 18.40625 0 
L 9.421875 0 
z
" id="DejaVuSans-6c"/>
    </defs>
    <g transform="translate(199.703438 183.312)scale(0.12 -0.12)">
     <use xlink:href="#DejaVuSans-42"/>
     <use x="68.587891" xlink:href="#DejaVuSans-4f"/>
     <use x="147.298828" xlink:href="#DejaVuSans-4c"/>
     <use x="203.011719" xlink:href="#DejaVuSans-44"/>
     <use x="280.013672" xlink:href="#DejaVuSans-20"/>
     <use x="311.800781" xlink:href="#DejaVuSans-73"/>
     <use x="363.900391" xlink:href="#DejaVuSans-69"/>
     <use x="391.683594" xlink:href="#DejaVuSans-67"/>
     <use x="455.160156" xlink:href="#DejaVuSans-6e"/>
     <use x="518.539062" xlink:href="#DejaVuSans-61"/>
     <use x="579.818359" xlink:href="#DejaVuSans-6c"/>
    </g>
   </g>
  </g>
 </g>
 <defs>
  <clipPath id="p81e20e9531">
   <rect height="118.272" width="357.12" x="57.6" y="41.472"/>
  </clipPath>
  <clipPath id="pd58535c9be">
   <rect height="118.272" width="357.12" x="57.6" y="189.312"/>
  </clipPath>
 </defs>
</svg>
