<?xml version="1.0" encoding="utf-8" standalone="no"?>
<!DOCTYPE svg PUBLIC "-//W3C//DTD SVG 1.1//EN"
  "http://www.w3.org/Graphics/SVG/1.1/DTD/svg11.dtd">
<!-- Created with matplotlib (http://matplotlib.org/) -->
<svg height="345.6pt" version="1.1" viewBox="0 0 460.8 345.6" width="460.8pt" xmlns="http://www.w3.org/2000/svg" xmlns:xlink="http://www.w3.org/1999/xlink">
 <defs>
  <style type="text/css">
*{stroke-linecap:butt;stroke-linejoin:round;}
  </style>
 </defs>
 <g id="figure_1">
  <g id="patch_1">
   <path d="M 0 345.6 
L 460.8 345.6 
L 460.8 0 
L 0 0 
z
" style="fill:#ffffff;"/>
  </g>
  <g id="axes_1">
   <g id="patch_2">
    <path d="M 57.6 159.744 
L 414.72 159.744 
L 414.72 41.472 
L 57.6 41.472 
z
" style="fill:#ffffff;"/>
   </g>
   <g id="matplotlib.axis_1">
    <g id="xtick_1">
     <g id="line2d_1">
      <defs>
       <path d="M 0 0 
L 0 3.5 
" id="m6e3240f03c" style="stroke:#000000;stroke-width:0.8;"/>
      </defs>
      <g>
       <use style="stroke:#000000;stroke-width:0.8;" x="57.183776" xlink:href="#m6e3240f03c" y="159.744"/>
      </g>
     </g>
     <g id="text_1">
      <!-- 0 -->
      <defs>
       <path d="M 31.78125 66.40625 
Q 24.171875 66.40625 20.328125 58.90625 
Q 16.5 51.421875 16.5 36.375 
Q 16.5 21.390625 20.328125 13.890625 
Q 24.171875 6.390625 31.78125 6.390625 
Q 39.453125 6.390625 43.28125 13.890625 
Q 47.125 21.390625 47.125 36.375 
Q 47.125 51.421875 43.28125 58.90625 
Q 39.453125 66.40625 31.78125 66.40625 
z
M 31.78125 74.21875 
Q 44.046875 74.21875 50.515625 64.515625 
Q 56.984375 54.828125 56.984375 36.375 
Q 56.984375 17.96875 50.515625 8.265625 
Q 44.046875 -1.421875 31.78125 -1.421875 
Q 19.53125 -1.421875 13.0625 8.265625 
Q 6.59375 17.96875 6.59375 36.375 
Q 6.59375 54.828125 13.0625 64.515625 
Q 19.53125 74.21875 31.78125 74.21875 
z
" id="DejaVuSans-30"/>
      </defs>
      <g transform="translate(54.002526 174.342437)scale(0.1 -0.1)">
       <use xlink:href="#DejaVuSans-30"/>
      </g>
     </g>
    </g>
    <g id="xtick_2">
     <g id="line2d_2">
      <g>
       <use style="stroke:#000000;stroke-width:0.8;" x="98.475818" xlink:href="#m6e3240f03c" y="159.744"/>
      </g>
     </g>
     <g id="text_2">
      <!-- 25 -->
      <defs>
       <path d="M 19.1875 8.296875 
L 53.609375 8.296875 
L 53.609375 0 
L 7.328125 0 
L 7.328125 8.296875 
Q 12.9375 14.109375 22.625 23.890625 
Q 32.328125 33.6875 34.8125 36.53125 
Q 39.546875 41.84375 41.421875 45.53125 
Q 43.3125 49.21875 43.3125 52.78125 
Q 43.3125 58.59375 39.234375 62.25 
Q 35.15625 65.921875 28.609375 65.921875 
Q 23.96875 65.921875 18.8125 64.3125 
Q 13.671875 62.703125 7.8125 59.421875 
L 7.8125 69.390625 
Q 13.765625 71.78125 18.9375 73 
Q 24.125 74.21875 28.421875 74.21875 
Q 39.75 74.21875 46.484375 68.546875 
Q 53.21875 62.890625 53.21875 53.421875 
Q 53.21875 48.921875 51.53125 44.890625 
Q 49.859375 40.875 45.40625 35.40625 
Q 44.1875 33.984375 37.640625 27.21875 
Q 31.109375 20.453125 19.1875 8.296875 
z
" id="DejaVuSans-32"/>
       <path d="M 10.796875 72.90625 
L 49.515625 72.90625 
L 49.515625 64.59375 
L 19.828125 64.59375 
L 19.828125 46.734375 
Q 21.96875 47.46875 24.109375 47.828125 
Q 26.265625 48.1875 28.421875 48.1875 
Q 40.625 48.1875 47.75 41.5 
Q 54.890625 34.8125 54.890625 23.390625 
Q 54.890625 11.625 47.5625 5.09375 
Q 40.234375 -1.421875 26.90625 -1.421875 
Q 22.3125 -1.421875 17.546875 -0.640625 
Q 12.796875 0.140625 7.71875 1.703125 
L 7.71875 11.625 
Q 12.109375 9.234375 16.796875 8.0625 
Q 21.484375 6.890625 26.703125 6.890625 
Q 35.15625 6.890625 40.078125 11.328125 
Q 45.015625 15.765625 45.015625 23.390625 
Q 45.015625 31 40.078125 35.4375 
Q 35.15625 39.890625 26.703125 39.890625 
Q 22.75 39.890625 18.8125 39.015625 
Q 14.890625 38.140625 10.796875 36.28125 
z
" id="DejaVuSans-35"/>
      </defs>
      <g transform="translate(92.113318 174.342437)scale(0.1 -0.1)">
       <use xlink:href="#DejaVuSans-32"/>
       <use x="63.623047" xlink:href="#DejaVuSans-35"/>
      </g>
     </g>
    </g>
    <g id="xtick_3">
     <g id="line2d_3">
      <g>
       <use style="stroke:#000000;stroke-width:0.8;" x="139.767859" xlink:href="#m6e3240f03c" y="159.744"/>
      </g>
     </g>
     <g id="text_3">
      <!-- 50 -->
      <g transform="translate(133.405359 174.342437)scale(0.1 -0.1)">
       <use xlink:href="#DejaVuSans-35"/>
       <use x="63.623047" xlink:href="#DejaVuSans-30"/>
      </g>
     </g>
    </g>
    <g id="xtick_4">
     <g id="line2d_4">
      <g>
       <use style="stroke:#000000;stroke-width:0.8;" x="181.0599" xlink:href="#m6e3240f03c" y="159.744"/>
      </g>
     </g>
     <g id="text_4">
      <!-- 75 -->
      <defs>
       <path d="M 8.203125 72.90625 
L 55.078125 72.90625 
L 55.078125 68.703125 
L 28.609375 0 
L 18.3125 0 
L 43.21875 64.59375 
L 8.203125 64.59375 
z
" id="DejaVuSans-37"/>
      </defs>
      <g transform="translate(174.6974 174.342437)scale(0.1 -0.1)">
       <use xlink:href="#DejaVuSans-37"/>
       <use x="63.623047" xlink:href="#DejaVuSans-35"/>
      </g>
     </g>
    </g>
    <g id="xtick_5">
     <g id="line2d_5">
      <g>
       <use style="stroke:#000000;stroke-width:0.8;" x="222.351941" xlink:href="#m6e3240f03c" y="159.744"/>
      </g>
     </g>
     <g id="text_5">
      <!-- 100 -->
      <defs>
       <path d="M 12.40625 8.296875 
L 28.515625 8.296875 
L 28.515625 63.921875 
L 10.984375 60.40625 
L 10.984375 69.390625 
L 28.421875 72.90625 
L 38.28125 72.90625 
L 38.28125 8.296875 
L 54.390625 8.296875 
L 54.390625 0 
L 12.40625 0 
z
" id="DejaVuSans-31"/>
      </defs>
      <g transform="translate(212.808191 174.342437)scale(0.1 -0.1)">
       <use xlink:href="#DejaVuSans-31"/>
       <use x="63.623047" xlink:href="#DejaVuSans-30"/>
       <use x="127.246094" xlink:href="#DejaVuSans-30"/>
      </g>
     </g>
    </g>
    <g id="xtick_6">
     <g id="line2d_6">
      <g>
       <use style="stroke:#000000;stroke-width:0.8;" x="263.643983" xlink:href="#m6e3240f03c" y="159.744"/>
      </g>
     </g>
     <g id="text_6">
      <!-- 125 -->
      <g transform="translate(254.100233 174.342437)scale(0.1 -0.1)">
       <use xlink:href="#DejaVuSans-31"/>
       <use x="63.623047" xlink:href="#DejaVuSans-32"/>
       <use x="127.246094" xlink:href="#DejaVuSans-35"/>
      </g>
     </g>
    </g>
    <g id="xtick_7">
     <g id="line2d_7">
      <g>
       <use style="stroke:#000000;stroke-width:0.8;" x="304.936024" xlink:href="#m6e3240f03c" y="159.744"/>
      </g>
     </g>
     <g id="text_7">
      <!-- 150 -->
      <g transform="translate(295.392274 174.342437)scale(0.1 -0.1)">
       <use xlink:href="#DejaVuSans-31"/>
       <use x="63.623047" xlink:href="#DejaVuSans-35"/>
       <use x="127.246094" xlink:href="#DejaVuSans-30"/>
      </g>
     </g>
    </g>
    <g id="xtick_8">
     <g id="line2d_8">
      <g>
       <use style="stroke:#000000;stroke-width:0.8;" x="346.228065" xlink:href="#m6e3240f03c" y="159.744"/>
      </g>
     </g>
     <g id="text_8">
      <!-- 175 -->
      <g transform="translate(336.684315 174.342437)scale(0.1 -0.1)">
       <use xlink:href="#DejaVuSans-31"/>
       <use x="63.623047" xlink:href="#DejaVuSans-37"/>
       <use x="127.246094" xlink:href="#DejaVuSans-35"/>
      </g>
     </g>
    </g>
    <g id="xtick_9">
     <g id="line2d_9">
      <g>
       <use style="stroke:#000000;stroke-width:0.8;" x="387.520107" xlink:href="#m6e3240f03c" y="159.744"/>
      </g>
     </g>
     <g id="text_9">
      <!-- 200 -->
      <g transform="translate(377.976357 174.342437)scale(0.1 -0.1)">
       <use xlink:href="#DejaVuSans-32"/>
       <use x="63.623047" xlink:href="#DejaVuSans-30"/>
       <use x="127.246094" xlink:href="#DejaVuSans-30"/>
      </g>
     </g>
    </g>
   </g>
   <g id="matplotlib.axis_2">
    <g id="ytick_1">
     <g id="line2d_10">
      <defs>
       <path d="M 0 0 
L -3.5 0 
" id="md57d25d817" style="stroke:#000000;stroke-width:0.8;"/>
      </defs>
      <g>
       <use style="stroke:#000000;stroke-width:0.8;" x="57.6" xlink:href="#md57d25d817" y="152.623355"/>
      </g>
     </g>
     <g id="text_10">
      <!-- −2 -->
      <defs>
       <path d="M 10.59375 35.5 
L 73.1875 35.5 
L 73.1875 27.203125 
L 10.59375 27.203125 
z
" id="DejaVuSans-2212"/>
      </defs>
      <g transform="translate(35.857813 156.422574)scale(0.1 -0.1)">
       <use xlink:href="#DejaVuSans-2212"/>
       <use x="83.789062" xlink:href="#DejaVuSans-32"/>
      </g>
     </g>
    </g>
    <g id="ytick_2">
     <g id="line2d_11">
      <g>
       <use style="stroke:#000000;stroke-width:0.8;" x="57.6" xlink:href="#md57d25d817" y="115.830735"/>
      </g>
     </g>
     <g id="text_11">
      <!-- 0 -->
      <g transform="translate(44.2375 119.629954)scale(0.1 -0.1)">
       <use xlink:href="#DejaVuSans-30"/>
      </g>
     </g>
    </g>
    <g id="ytick_3">
     <g id="line2d_12">
      <g>
       <use style="stroke:#000000;stroke-width:0.8;" x="57.6" xlink:href="#md57d25d817" y="79.038115"/>
      </g>
     </g>
     <g id="text_12">
      <!-- 2 -->
      <g transform="translate(44.2375 82.837334)scale(0.1 -0.1)">
       <use xlink:href="#DejaVuSans-32"/>
      </g>
     </g>
    </g>
    <g id="ytick_4">
     <g id="line2d_13">
      <g>
       <use style="stroke:#000000;stroke-width:0.8;" x="57.6" xlink:href="#md57d25d817" y="42.245496"/>
      </g>
     </g>
     <g id="text_13">
      <!-- 4 -->
      <defs>
       <path d="M 37.796875 64.3125 
L 12.890625 25.390625 
L 37.796875 25.390625 
z
M 35.203125 72.90625 
L 47.609375 72.90625 
L 47.609375 25.390625 
L 58.015625 25.390625 
L 58.015625 17.1875 
L 47.609375 17.1875 
L 47.609375 0 
L 37.796875 0 
L 37.796875 17.1875 
L 4.890625 17.1875 
L 4.890625 26.703125 
z
" id="DejaVuSans-34"/>
      </defs>
      <g transform="translate(44.2375 46.044714)scale(0.1 -0.1)">
       <use xlink:href="#DejaVuSans-34"/>
      </g>
     </g>
    </g>
   </g>
   <g id="line2d_14">
    <path clip-path="url(#p9498498caf)" d="M 73.832727 119.873439 
L 85.724835 152.890795 
L 99.995365 116.701312 
L 114.265894 153.148654 
L 128.536424 134.021434 
L 142.806953 137.617346 
L 157.077483 106.37205 
L 171.348012 135.049372 
L 185.618541 99.887485 
L 201.078282 105.842318 
L 214.1596 111.943783 
L 228.43013 99.893311 
L 242.700659 132.310962 
L 256.971189 108.108558 
L 271.241718 143.139304 
L 285.512248 124.311118 
L 299.782777 154.368 
L 314.053307 98.85603 
L 328.323836 137.194874 
L 342.594366 46.848 
L 356.864895 106.431916 
L 371.135425 119.618393 
L 385.405954 95.70338 
L 398.487273 96.243768 
L 398.487273 96.243768 
" style="fill:none;stroke:#ff0000;stroke-linecap:square;stroke-width:2;"/>
   </g>
   <g id="patch_3">
    <path d="M 57.6 159.744 
L 57.6 41.472 
" style="fill:none;stroke:#000000;stroke-linecap:square;stroke-linejoin:miter;stroke-width:0.8;"/>
   </g>
   <g id="patch_4">
    <path d="M 414.72 159.744 
L 414.72 41.472 
" style="fill:none;stroke:#000000;stroke-linecap:square;stroke-linejoin:miter;stroke-width:0.8;"/>
   </g>
   <g id="patch_5">
    <path d="M 57.6 159.744 
L 414.72 159.744 
" style="fill:none;stroke:#000000;stroke-linecap:square;stroke-linejoin:miter;stroke-width:0.8;"/>
   </g>
   <g id="patch_6">
    <path d="M 57.6 41.472 
L 414.72 41.472 
" style="fill:none;stroke:#000000;stroke-linecap:square;stroke-linejoin:miter;stroke-width:0.8;"/>
   </g>
  </g>
  <g id="axes_2">
   <g id="patch_7">
    <path d="M 57.6 307.584 
L 414.72 307.584 
L 414.72 189.312 
L 57.6 189.312 
z
" style="fill:#ffffff;"/>
   </g>
   <g id="matplotlib.axis_3">
    <g id="xtick_10">
     <g id="line2d_15">
      <g>
       <use style="stroke:#000000;stroke-width:0.8;" x="57.183776" xlink:href="#m6e3240f03c" y="307.584"/>
      </g>
     </g>
     <g id="text_14">
      <!-- 0 -->
      <g transform="translate(54.002526 322.182437)scale(0.1 -0.1)">
       <use xlink:href="#DejaVuSans-30"/>
      </g>
     </g>
    </g>
    <g id="xtick_11">
     <g id="line2d_16">
      <g>
       <use style="stroke:#000000;stroke-width:0.8;" x="98.475818" xlink:href="#m6e3240f03c" y="307.584"/>
      </g>
     </g>
     <g id="text_15">
      <!-- 25 -->
      <g transform="translate(92.113318 322.182437)scale(0.1 -0.1)">
       <use xlink:href="#DejaVuSans-32"/>
       <use x="63.623047" xlink:href="#DejaVuSans-35"/>
      </g>
     </g>
    </g>
    <g id="xtick_12">
     <g id="line2d_17">
      <g>
       <use style="stroke:#000000;stroke-width:0.8;" x="139.767859" xlink:href="#m6e3240f03c" y="307.584"/>
      </g>
     </g>
     <g id="text_16">
      <!-- 50 -->
      <g transform="translate(133.405359 322.182437)scale(0.1 -0.1)">
       <use xlink:href="#DejaVuSans-35"/>
       <use x="63.623047" xlink:href="#DejaVuSans-30"/>
      </g>
     </g>
    </g>
    <g id="xtick_13">
     <g id="line2d_18">
      <g>
       <use style="stroke:#000000;stroke-width:0.8;" x="181.0599" xlink:href="#m6e3240f03c" y="307.584"/>
      </g>
     </g>
     <g id="text_17">
      <!-- 75 -->
      <g transform="translate(174.6974 322.182437)scale(0.1 -0.1)">
       <use xlink:href="#DejaVuSans-37"/>
       <use x="63.623047" xlink:href="#DejaVuSans-35"/>
      </g>
     </g>
    </g>
    <g id="xtick_14">
     <g id="line2d_19">
      <g>
       <use style="stroke:#000000;stroke-width:0.8;" x="222.351941" xlink:href="#m6e3240f03c" y="307.584"/>
      </g>
     </g>
     <g id="text_18">
      <!-- 100 -->
      <g transform="translate(212.808191 322.182437)scale(0.1 -0.1)">
       <use xlink:href="#DejaVuSans-31"/>
       <use x="63.623047" xlink:href="#DejaVuSans-30"/>
       <use x="127.246094" xlink:href="#DejaVuSans-30"/>
      </g>
     </g>
    </g>
    <g id="xtick_15">
     <g id="line2d_20">
      <g>
       <use style="stroke:#000000;stroke-width:0.8;" x="263.643983" xlink:href="#m6e3240f03c" y="307.584"/>
      </g>
     </g>
     <g id="text_19">
      <!-- 125 -->
      <g transform="translate(254.100233 322.182437)scale(0.1 -0.1)">
       <use xlink:href="#DejaVuSans-31"/>
       <use x="63.623047" xlink:href="#DejaVuSans-32"/>
       <use x="127.246094" xlink:href="#DejaVuSans-35"/>
      </g>
     </g>
    </g>
    <g id="xtick_16">
     <g id="line2d_21">
      <g>
       <use style="stroke:#000000;stroke-width:0.8;" x="304.936024" xlink:href="#m6e3240f03c" y="307.584"/>
      </g>
     </g>
     <g id="text_20">
      <!-- 150 -->
      <g transform="translate(295.392274 322.182437)scale(0.1 -0.1)">
       <use xlink:href="#DejaVuSans-31"/>
       <use x="63.623047" xlink:href="#DejaVuSans-35"/>
       <use x="127.246094" xlink:href="#DejaVuSans-30"/>
      </g>
     </g>
    </g>
    <g id="xtick_17">
     <g id="line2d_22">
      <g>
       <use style="stroke:#000000;stroke-width:0.8;" x="346.228065" xlink:href="#m6e3240f03c" y="307.584"/>
      </g>
     </g>
     <g id="text_21">
      <!-- 175 -->
      <g transform="translate(336.684315 322.182437)scale(0.1 -0.1)">
       <use xlink:href="#DejaVuSans-31"/>
       <use x="63.623047" xlink:href="#DejaVuSans-37"/>
       <use x="127.246094" xlink:href="#DejaVuSans-35"/>
      </g>
     </g>
    </g>
    <g id="xtick_18">
     <g id="line2d_23">
      <g>
       <use style="stroke:#000000;stroke-width:0.8;" x="387.520107" xlink:href="#m6e3240f03c" y="307.584"/>
      </g>
     </g>
     <g id="text_22">
      <!-- 200 -->
      <g transform="translate(377.976357 322.182437)scale(0.1 -0.1)">
       <use xlink:href="#DejaVuSans-32"/>
       <use x="63.623047" xlink:href="#DejaVuSans-30"/>
       <use x="127.246094" xlink:href="#DejaVuSans-30"/>
      </g>
     </g>
    </g>
    <g id="text_23">
     <!-- Time (Sec) -->
     <defs>
      <path d="M -0.296875 72.90625 
L 61.375 72.90625 
L 61.375 64.59375 
L 35.5 64.59375 
L 35.5 0 
L 25.59375 0 
L 25.59375 64.59375 
L -0.296875 64.59375 
z
" id="DejaVuSans-54"/>
      <path d="M 9.421875 54.6875 
L 18.40625 54.6875 
L 18.40625 0 
L 9.421875 0 
z
M 9.421875 75.984375 
L 18.40625 75.984375 
L 18.40625 64.59375 
L 9.421875 64.59375 
z
" id="DejaVuSans-69"/>
      <path d="M 52 44.1875 
Q 55.375 50.25 60.0625 53.125 
Q 64.75 56 71.09375 56 
Q 79.640625 56 84.28125 50.015625 
Q 88.921875 44.046875 88.921875 33.015625 
L 88.921875 0 
L 79.890625 0 
L 79.890625 32.71875 
Q 79.890625 40.578125 77.09375 44.375 
Q 74.3125 48.1875 68.609375 48.1875 
Q 61.625 48.1875 57.5625 43.546875 
Q 53.515625 38.921875 53.515625 30.90625 
L 53.515625 0 
L 44.484375 0 
L 44.484375 32.71875 
Q 44.484375 40.625 41.703125 44.40625 
Q 38.921875 48.1875 33.109375 48.1875 
Q 26.21875 48.1875 22.15625 43.53125 
Q 18.109375 38.875 18.109375 30.90625 
L 18.109375 0 
L 9.078125 0 
L 9.078125 54.6875 
L 18.109375 54.6875 
L 18.109375 46.1875 
Q 21.1875 51.21875 25.484375 53.609375 
Q 29.78125 56 35.6875 56 
Q 41.65625 56 45.828125 52.96875 
Q 50 49.953125 52 44.1875 
z
" id="DejaVuSans-6d"/>
      <path d="M 56.203125 29.59375 
L 56.203125 25.203125 
L 14.890625 25.203125 
Q 15.484375 15.921875 20.484375 11.0625 
Q 25.484375 6.203125 34.421875 6.203125 
Q 39.59375 6.203125 44.453125 7.46875 
Q 49.3125 8.734375 54.109375 11.28125 
L 54.109375 2.78125 
Q 49.265625 0.734375 44.1875 -0.34375 
Q 39.109375 -1.421875 33.890625 -1.421875 
Q 20.796875 -1.421875 13.15625 6.1875 
Q 5.515625 13.8125 5.515625 26.8125 
Q 5.515625 40.234375 12.765625 48.109375 
Q 20.015625 56 32.328125 56 
Q 43.359375 56 49.78125 48.890625 
Q 56.203125 41.796875 56.203125 29.59375 
z
M 47.21875 32.234375 
Q 47.125 39.59375 43.09375 43.984375 
Q 39.0625 48.390625 32.421875 48.390625 
Q 24.90625 48.390625 20.390625 44.140625 
Q 15.875 39.890625 15.1875 32.171875 
z
" id="DejaVuSans-65"/>
      <path id="DejaVuSans-20"/>
      <path d="M 31 75.875 
Q 24.46875 64.65625 21.28125 53.65625 
Q 18.109375 42.671875 18.109375 31.390625 
Q 18.109375 20.125 21.3125 9.0625 
Q 24.515625 -2 31 -13.1875 
L 23.1875 -13.1875 
Q 15.875 -1.703125 12.234375 9.375 
Q 8.59375 20.453125 8.59375 31.390625 
Q 8.59375 42.28125 12.203125 53.3125 
Q 15.828125 64.359375 23.1875 75.875 
z
" id="DejaVuSans-28"/>
      <path d="M 53.515625 70.515625 
L 53.515625 60.890625 
Q 47.90625 63.578125 42.921875 64.890625 
Q 37.9375 66.21875 33.296875 66.21875 
Q 25.25 66.21875 20.875 63.09375 
Q 16.5 59.96875 16.5 54.203125 
Q 16.5 49.359375 19.40625 46.890625 
Q 22.3125 44.4375 30.421875 42.921875 
L 36.375 41.703125 
Q 47.40625 39.59375 52.65625 34.296875 
Q 57.90625 29 57.90625 20.125 
Q 57.90625 9.515625 50.796875 4.046875 
Q 43.703125 -1.421875 29.984375 -1.421875 
Q 24.8125 -1.421875 18.96875 -0.25 
Q 13.140625 0.921875 6.890625 3.21875 
L 6.890625 13.375 
Q 12.890625 10.015625 18.65625 8.296875 
Q 24.421875 6.59375 29.984375 6.59375 
Q 38.421875 6.59375 43.015625 9.90625 
Q 47.609375 13.234375 47.609375 19.390625 
Q 47.609375 24.75 44.3125 27.78125 
Q 41.015625 30.8125 33.5 32.328125 
L 27.484375 33.5 
Q 16.453125 35.6875 11.515625 40.375 
Q 6.59375 45.0625 6.59375 53.421875 
Q 6.59375 63.09375 13.40625 68.65625 
Q 20.21875 74.21875 32.171875 74.21875 
Q 37.3125 74.21875 42.625 73.28125 
Q 47.953125 72.359375 53.515625 70.515625 
z
" id="DejaVuSans-53"/>
      <path d="M 48.78125 52.59375 
L 48.78125 44.1875 
Q 44.96875 46.296875 41.140625 47.34375 
Q 37.3125 48.390625 33.40625 48.390625 
Q 24.65625 48.390625 19.8125 42.84375 
Q 14.984375 37.3125 14.984375 27.296875 
Q 14.984375 17.28125 19.8125 11.734375 
Q 24.65625 6.203125 33.40625 6.203125 
Q 37.3125 6.203125 41.140625 7.25 
Q 44.96875 8.296875 48.78125 10.40625 
L 48.78125 2.09375 
Q 45.015625 0.34375 40.984375 -0.53125 
Q 36.96875 -1.421875 32.421875 -1.421875 
Q 20.0625 -1.421875 12.78125 6.34375 
Q 5.515625 14.109375 5.515625 27.296875 
Q 5.515625 40.671875 12.859375 48.328125 
Q 20.21875 56 33.015625 56 
Q 37.15625 56 41.109375 55.140625 
Q 45.0625 54.296875 48.78125 52.59375 
z
" id="DejaVuSans-63"/>
      <path d="M 8.015625 75.875 
L 15.828125 75.875 
Q 23.140625 64.359375 26.78125 53.3125 
Q 30.421875 42.28125 30.421875 31.390625 
Q 30.421875 20.453125 26.78125 9.375 
Q 23.140625 -1.703125 15.828125 -13.1875 
L 8.015625 -13.1875 
Q 14.5 -2 17.703125 9.0625 
Q 20.90625 20.125 20.90625 31.390625 
Q 20.90625 42.671875 17.703125 53.65625 
Q 14.5 64.65625 8.015625 75.875 
z
" id="DejaVuSans-29"/>
     </defs>
     <g transform="translate(209.281875 335.860562)scale(0.1 -0.1)">
      <use xlink:href="#DejaVuSans-54"/>
      <use x="61.037109" xlink:href="#DejaVuSans-69"/>
      <use x="88.820312" xlink:href="#DejaVuSans-6d"/>
      <use x="186.232422" xlink:href="#DejaVuSans-65"/>
      <use x="247.755859" xlink:href="#DejaVuSans-20"/>
      <use x="279.542969" xlink:href="#DejaVuSans-28"/>
      <use x="318.556641" xlink:href="#DejaVuSans-53"/>
      <use x="382.033203" xlink:href="#DejaVuSans-65"/>
      <use x="443.556641" xlink:href="#DejaVuSans-63"/>
      <use x="498.537109" xlink:href="#DejaVuSans-29"/>
     </g>
    </g>
   </g>
   <g id="matplotlib.axis_4">
    <g id="ytick_5">
     <g id="line2d_24">
      <g>
       <use style="stroke:#000000;stroke-width:0.8;" x="57.6" xlink:href="#md57d25d817" y="282.21567"/>
      </g>
     </g>
     <g id="text_24">
      <!-- −10 -->
      <g transform="translate(29.495313 286.014888)scale(0.1 -0.1)">
       <use xlink:href="#DejaVuSans-2212"/>
       <use x="83.789062" xlink:href="#DejaVuSans-31"/>
       <use x="147.412109" xlink:href="#DejaVuSans-30"/>
      </g>
     </g>
    </g>
    <g id="ytick_6">
     <g id="line2d_25">
      <g>
       <use style="stroke:#000000;stroke-width:0.8;" x="57.6" xlink:href="#md57d25d817" y="248.961939"/>
      </g>
     </g>
     <g id="text_25">
      <!-- 0 -->
      <g transform="translate(44.2375 252.761158)scale(0.1 -0.1)">
       <use xlink:href="#DejaVuSans-30"/>
      </g>
     </g>
    </g>
    <g id="ytick_7">
     <g id="line2d_26">
      <g>
       <use style="stroke:#000000;stroke-width:0.8;" x="57.6" xlink:href="#md57d25d817" y="215.708209"/>
      </g>
     </g>
     <g id="text_26">
      <!-- 10 -->
      <g transform="translate(37.875 219.507427)scale(0.1 -0.1)">
       <use xlink:href="#DejaVuSans-31"/>
       <use x="63.623047" xlink:href="#DejaVuSans-30"/>
      </g>
     </g>
    </g>
   </g>
   <g id="line2d_27">
    <path clip-path="url(#p40c7f17425)" d="M 73.832727 253.402136 
L 75.021938 255.578873 
L 78.58957 264.642108 
L 79.778781 266.454992 
L 80.967992 266.871941 
L 82.157203 265.811406 
L 83.346414 263.550183 
L 85.724835 257.913528 
L 86.914046 255.92399 
L 88.103257 255.158301 
L 89.292468 255.775708 
L 90.481678 257.601144 
L 94.049311 265.21642 
L 95.238521 266.718909 
L 96.427732 267.218561 
L 97.616943 266.754741 
L 98.806154 265.55334 
L 102.373786 260.717205 
L 103.562997 259.51437 
L 105.941419 257.841528 
L 107.130629 256.950265 
L 108.31984 255.699703 
L 109.509051 253.931279 
L 110.698262 251.628389 
L 113.076683 246.371634 
L 114.265894 244.270116 
L 115.455105 243.084781 
L 116.644316 243.063683 
L 117.833526 244.224754 
L 119.022737 246.302548 
L 121.401159 251.046864 
L 122.59037 252.539544 
L 123.77958 252.891826 
L 124.968791 251.982882 
L 126.158002 249.96525 
L 130.914845 239.249734 
L 132.104056 237.786713 
L 133.293267 237.113565 
L 134.482478 237.166355 
L 135.671688 237.815879 
L 136.860899 238.904901 
L 139.239321 241.775376 
L 140.428531 243.246174 
L 141.617742 244.519601 
L 142.806953 245.441053 
L 143.996164 245.900228 
L 145.185375 245.852394 
L 146.374585 245.345822 
L 148.753007 243.808413 
L 149.942218 243.43871 
L 151.131429 243.753502 
L 152.320639 244.928506 
L 153.50985 246.9613 
L 157.077483 255.025246 
L 158.266693 256.798235 
L 159.455904 257.510759 
L 160.645115 257.102652 
L 161.834326 255.79308 
L 164.212747 252.432436 
L 165.401958 251.471781 
L 166.591169 251.513491 
L 167.78038 252.667299 
L 168.96959 254.758427 
L 171.348012 259.951581 
L 172.537223 262.021322 
L 173.726434 263.230017 
L 174.915644 263.453726 
L 176.104855 262.831751 
L 178.483277 260.63636 
L 179.672488 259.987721 
L 180.861698 260.096551 
L 182.050909 261.045982 
L 184.429331 264.237038 
L 185.618541 265.283858 
L 186.807752 265.152934 
L 187.996963 263.477272 
L 189.186174 260.217102 
L 190.375385 255.741576 
L 192.753806 246.221675 
L 193.943017 242.853942 
L 195.132228 241.19666 
L 196.321439 241.360067 
L 197.510649 242.925328 
L 198.69986 244.99351 
L 199.889071 246.453263 
L 201.078282 246.308823 
L 202.267493 243.916811 
L 203.456703 239.152808 
L 204.645914 232.545832 
L 207.024336 218.50466 
L 208.213546 213.666114 
L 209.402757 211.505785 
L 210.591968 212.304735 
L 211.781179 215.810388 
L 212.97039 221.356081 
L 216.538022 241.762997 
L 217.727233 247.568865 
L 218.916444 252.205975 
L 220.105654 255.467734 
L 221.294865 257.247325 
L 222.484076 257.550242 
L 223.673287 256.496765 
L 224.862498 254.315155 
L 226.051708 251.334231 
L 229.619341 241.496863 
L 230.808551 238.983351 
L 231.997762 237.170813 
L 233.186973 236.230156 
L 234.376184 236.39981 
L 235.565395 237.930937 
L 236.754605 240.991508 
L 237.943816 245.592477 
L 239.133027 251.489078 
L 241.511449 264.210985 
L 242.700659 268.849056 
L 243.88987 270.982152 
L 245.079081 270.052714 
L 246.268292 266.014149 
L 247.457502 259.344557 
L 249.835924 241.838188 
L 251.025135 233.047843 
L 252.214346 225.297348 
L 253.403556 219.026738 
L 254.592767 214.432579 
L 255.781978 211.544182 
L 256.971189 210.272292 
L 258.1604 210.43613 
L 259.34961 211.789952 
L 260.538821 214.068305 
L 261.728032 217.047331 
L 262.917243 220.578744 
L 264.106454 224.576341 
L 266.484875 233.720552 
L 271.241718 253.326974 
L 272.430929 257.435702 
L 273.62014 260.930643 
L 274.809351 263.71408 
L 275.998561 265.562717 
L 277.187772 266.078074 
L 278.376983 264.799769 
L 279.566194 261.379974 
L 280.755405 255.713039 
L 281.944615 248.061731 
L 284.323037 230.414837 
L 285.512248 223.112084 
L 286.701459 218.515006 
L 287.890669 217.354011 
L 289.07988 219.731815 
L 290.269091 225.059144 
L 293.836723 246.264136 
L 295.025934 251.021141 
L 296.215145 253.540231 
L 297.404356 254.001202 
L 298.593566 253.085518 
L 299.782777 251.728247 
L 300.971988 250.832763 
L 302.161199 251.0635 
L 303.35041 252.717221 
L 304.53962 255.646129 
L 306.918042 262.973613 
L 308.107253 265.935777 
L 309.296464 267.700843 
L 310.485674 268.079379 
L 311.674885 267.246596 
L 314.053307 264.070441 
L 315.242517 262.981929 
L 316.431728 262.861681 
L 317.620939 263.875852 
L 318.81015 265.86455 
L 321.188571 270.83099 
L 322.377782 272.672187 
L 323.566993 273.521307 
L 324.756204 273.228544 
L 325.945415 271.893354 
L 327.134625 269.819248 
L 329.513047 265.063876 
L 330.702258 263.078978 
L 331.891469 261.612955 
L 333.080679 260.640744 
L 335.459101 259.333827 
L 336.648312 258.455263 
L 337.837522 257.144927 
L 339.026733 255.311266 
L 340.215944 252.954246 
L 341.405155 250.139279 
L 343.783576 243.558823 
L 347.351209 233.025771 
L 348.54042 229.851973 
L 349.72963 227.096224 
L 350.918841 224.868663 
L 352.108052 223.215803 
L 353.297263 222.126354 
L 354.486474 221.561411 
L 355.675684 221.479341 
L 356.864895 221.839057 
L 358.054106 222.591258 
L 359.243317 223.671223 
L 361.621738 226.452112 
L 364.00016 229.270763 
L 365.189371 230.409405 
L 366.378581 231.274467 
L 367.567792 231.849252 
L 368.757003 232.159288 
L 369.946214 232.262763 
L 372.324635 232.143636 
L 374.703057 232.034339 
L 375.892268 232.222992 
L 377.081479 232.837524 
L 378.270689 234.122595 
L 379.4599 236.269229 
L 380.649111 239.358025 
L 381.838322 243.324617 
L 386.595165 261.761296 
L 387.784376 265.202256 
L 388.973586 267.775876 
L 390.162797 269.523003 
L 391.352008 270.588593 
L 392.541219 271.17188 
L 394.91964 271.684305 
L 398.487273 272.451435 
L 398.487273 272.451435 
" style="fill:none;stroke:#ff0000;stroke-linecap:square;stroke-width:2;"/>
   </g>
   <g id="line2d_28">
    <path clip-path="url(#p40c7f17425)" d="M 73.832727 254.170527 
L 75.021938 259.181817 
L 76.211149 268.882233 
L 77.40036 262.847988 
L 78.58957 279.311519 
L 79.778781 245.879327 
L 82.157203 269.207073 
L 83.346414 273.628214 
L 84.535624 249.782774 
L 85.724835 271.116878 
L 86.914046 234.910622 
L 88.103257 270.821705 
L 89.292468 281.399754 
L 90.481678 241.958527 
L 91.670889 244.313441 
L 92.8601 257.046822 
L 94.049311 258.07607 
L 95.238521 270.605126 
L 96.427732 290.200986 
L 97.616943 265.058873 
L 98.806154 264.787631 
L 99.995365 264.373742 
L 101.184575 260.69927 
L 102.373786 248.157327 
L 103.562997 264.650081 
L 104.752208 247.105596 
L 105.941419 281.19269 
L 107.130629 255.4965 
L 108.31984 245.73389 
L 109.509051 245.092666 
L 110.698262 274.705808 
L 111.887473 227.926906 
L 113.076683 254.494009 
L 114.265894 239.072063 
L 115.455105 252.308856 
L 116.644316 247.058548 
L 117.833526 228.834407 
L 119.022737 267.910763 
L 120.211948 231.462472 
L 121.401159 253.128139 
L 122.59037 242.383799 
L 123.77958 271.993776 
L 124.968791 241.743661 
L 126.158002 242.893521 
L 127.347213 248.71457 
L 128.536424 270.377314 
L 129.725634 237.596745 
L 130.914845 211.432136 
L 132.104056 252.356226 
L 133.293267 247.922306 
L 134.482478 227.085086 
L 135.671688 218.242016 
L 136.860899 263.408113 
L 138.05011 232.623646 
L 139.239321 233.542166 
L 140.428531 253.330111 
L 141.617742 235.264436 
L 142.806953 262.335444 
L 143.996164 243.983687 
L 145.185375 258.863159 
L 146.374585 227.670363 
L 147.563796 229.01509 
L 148.753007 248.619534 
L 149.942218 253.01275 
L 151.131429 250.292059 
L 152.320639 234.293962 
L 153.50985 240.57359 
L 154.699061 252.271603 
L 155.888272 266.17779 
L 157.077483 267.160518 
L 158.266693 240.924666 
L 159.455904 253.226397 
L 160.645115 238.633492 
L 161.834326 277.808989 
L 163.023536 263.982622 
L 164.212747 244.032961 
L 165.401958 238.966298 
L 166.591169 258.967631 
L 167.78038 249.336673 
L 168.96959 258.955395 
L 170.158801 269.914448 
L 171.348012 253.136464 
L 172.537223 263.434176 
L 173.726434 243.228855 
L 174.915644 275.713976 
L 176.104855 249.73133 
L 177.294066 269.401825 
L 178.483277 271.963689 
L 179.672488 256.406592 
L 180.861698 283.109132 
L 182.050909 251.375665 
L 183.24012 257.294318 
L 184.429331 240.696061 
L 186.807752 279.771902 
L 187.996963 280.695706 
L 189.186174 226.187228 
L 190.375385 266.967439 
L 191.564595 250.65088 
L 192.753806 263.951908 
L 193.943017 268.76981 
L 195.132228 238.227696 
L 196.321439 218.522046 
L 197.510649 228.151418 
L 198.69986 239.799133 
L 199.889071 239.34956 
L 201.078282 257.775191 
L 202.267493 255.284501 
L 203.456703 225.960046 
L 204.645914 234.189454 
L 205.835125 232.604868 
L 207.024336 231.854429 
L 208.213546 220.579898 
L 209.402757 197.429823 
L 210.591968 227.043294 
L 211.781179 202.358355 
L 212.97039 213.739705 
L 214.1596 210.800665 
L 215.348811 220.609187 
L 216.538022 264.546356 
L 217.727233 256.333965 
L 218.916444 264.778241 
L 220.105654 264.735836 
L 221.294865 240.413038 
L 222.484076 255.098975 
L 223.673287 259.929525 
L 224.862498 252.699667 
L 226.051708 244.639417 
L 227.240919 248.943364 
L 228.43013 254.308778 
L 229.619341 225.169312 
L 230.808551 250.340067 
L 231.997762 224.360417 
L 233.186973 241.296755 
L 234.376184 231.750593 
L 235.565395 257.863234 
L 236.754605 245.540079 
L 237.943816 240.150225 
L 239.133027 260.64559 
L 240.322238 242.615575 
L 241.511449 262.193198 
L 242.700659 248.221574 
L 243.88987 267.354718 
L 245.079081 302.208 
L 246.268292 252.336713 
L 247.457502 259.749067 
L 248.646713 251.814601 
L 249.835924 268.720547 
L 251.025135 219.961253 
L 252.214346 228.00871 
L 253.403556 207.061659 
L 254.592767 206.699753 
L 255.781978 219.325589 
L 256.971189 194.688 
L 258.1604 219.780112 
L 259.34961 224.182846 
L 260.538821 201.208827 
L 261.728032 222.557233 
L 262.917243 230.860496 
L 264.106454 208.113452 
L 265.295664 248.504553 
L 266.484875 227.230465 
L 267.674086 231.18023 
L 268.863297 244.622173 
L 270.052507 237.777868 
L 271.241718 263.905422 
L 272.430929 254.747248 
L 273.62014 276.950394 
L 274.809351 246.315457 
L 275.998561 275.349914 
L 277.187772 266.82855 
L 278.376983 253.435074 
L 279.566194 255.360963 
L 280.755405 265.029258 
L 281.944615 254.119791 
L 283.133826 253.181073 
L 284.323037 215.887135 
L 285.512248 225.54353 
L 286.701459 198.656244 
L 287.890669 220.690138 
L 289.07988 222.310567 
L 290.269091 241.3549 
L 291.458302 228.74172 
L 292.647512 244.410306 
L 293.836723 241.123579 
L 295.025934 239.089378 
L 297.404356 272.219674 
L 298.593566 255.118587 
L 299.782777 249.422999 
L 300.971988 227.307597 
L 302.161199 229.658894 
L 303.35041 274.593119 
L 304.53962 266.438867 
L 305.728831 277.743908 
L 306.918042 256.848368 
L 308.107253 261.611514 
L 309.296464 263.166881 
L 310.485674 283.396636 
L 311.674885 250.653263 
L 312.864096 239.251956 
L 314.053307 283.680456 
L 315.242517 258.86059 
L 316.431728 275.743985 
L 317.620939 257.988565 
L 318.81015 282.270678 
L 319.999361 251.111155 
L 321.188571 280.532713 
L 322.377782 273.029068 
L 323.566993 251.501621 
L 324.756204 284.741091 
L 325.945415 286.815186 
L 327.134625 262.573843 
L 328.323836 269.834828 
L 329.513047 251.602683 
L 330.702258 255.927256 
L 331.891469 281.642147 
L 333.080679 246.303959 
L 334.26989 279.461215 
L 335.459101 261.716466 
L 336.648312 251.791002 
L 337.837522 233.834678 
L 339.026733 257.470607 
L 340.215944 271.327243 
L 342.594366 246.515853 
L 343.783576 234.411799 
L 344.972787 234.689932 
L 346.161998 224.481922 
L 347.351209 235.948849 
L 348.54042 238.589702 
L 349.72963 237.680099 
L 350.918841 220.467847 
L 352.108052 229.733676 
L 353.297263 226.456302 
L 354.486474 216.309667 
L 355.675684 219.137622 
L 358.054106 200.261157 
L 359.243317 237.78137 
L 360.432527 230.755832 
L 361.621738 222.548017 
L 362.810949 237.604807 
L 364.00016 269.856415 
L 365.189371 217.024493 
L 366.378581 205.459947 
L 367.567792 237.6676 
L 368.757003 225.336742 
L 369.946214 208.485327 
L 371.135425 247.719735 
L 372.324635 258.912384 
L 373.513846 195.035278 
L 374.703057 248.360821 
L 375.892268 244.159395 
L 377.081479 237.804236 
L 379.4599 218.005918 
L 380.649111 268.312562 
L 381.838322 220.105244 
L 383.027532 236.15916 
L 384.216743 273.344597 
L 385.405954 253.485342 
L 386.595165 276.445802 
L 387.784376 271.785278 
L 388.973586 230.49162 
L 390.162797 283.953006 
L 391.352008 250.141802 
L 392.541219 294.597045 
L 393.73043 279.831972 
L 394.91964 280.126329 
L 396.108851 267.595551 
L 397.298062 267.493001 
L 398.487273 258.752612 
L 398.487273 258.752612 
" style="fill:none;stroke:#0000ff;stroke-linecap:square;stroke-width:2;"/>
   </g>
   <g id="patch_8">
    <path d="M 57.6 307.584 
L 57.6 189.312 
" style="fill:none;stroke:#000000;stroke-linecap:square;stroke-linejoin:miter;stroke-width:0.8;"/>
   </g>
   <g id="patch_9">
    <path d="M 414.72 307.584 
L 414.72 189.312 
" style="fill:none;stroke:#000000;stroke-linecap:square;stroke-linejoin:miter;stroke-width:0.8;"/>
   </g>
   <g id="patch_10">
    <path d="M 57.6 307.584 
L 414.72 307.584 
" style="fill:none;stroke:#000000;stroke-linecap:square;stroke-linejoin:miter;stroke-width:0.8;"/>
   </g>
   <g id="patch_11">
    <path d="M 57.6 189.312 
L 414.72 189.312 
" style="fill:none;stroke:#000000;stroke-linecap:square;stroke-linejoin:miter;stroke-width:0.8;"/>
   </g>
   <g id="text_27">
    <!-- BOLD signal -->
    <defs>
     <path d="M 19.671875 34.8125 
L 19.671875 8.109375 
L 35.5 8.109375 
Q 43.453125 8.109375 47.28125 11.40625 
Q 51.125 14.703125 51.125 21.484375 
Q 51.125 28.328125 47.28125 31.5625 
Q 43.453125 34.8125 35.5 34.8125 
z
M 19.671875 64.796875 
L 19.671875 42.828125 
L 34.28125 42.828125 
Q 41.5 42.828125 45.03125 45.53125 
Q 48.578125 48.25 48.578125 53.8125 
Q 48.578125 59.328125 45.03125 62.0625 
Q 41.5 64.796875 34.28125 64.796875 
z
M 9.8125 72.90625 
L 35.015625 72.90625 
Q 46.296875 72.90625 52.390625 68.21875 
Q 58.5 63.53125 58.5 54.890625 
Q 58.5 48.1875 55.375 44.234375 
Q 52.25 40.28125 46.1875 39.3125 
Q 53.46875 37.75 57.5 32.78125 
Q 61.53125 27.828125 61.53125 20.40625 
Q 61.53125 10.640625 54.890625 5.3125 
Q 48.25 0 35.984375 0 
L 9.8125 0 
z
" id="DejaVuSans-42"/>
     <path d="M 39.40625 66.21875 
Q 28.65625 66.21875 22.328125 58.203125 
Q 16.015625 50.203125 16.015625 36.375 
Q 16.015625 22.609375 22.328125 14.59375 
Q 28.65625 6.59375 39.40625 6.59375 
Q 50.140625 6.59375 56.421875 14.59375 
Q 62.703125 22.609375 62.703125 36.375 
Q 62.703125 50.203125 56.421875 58.203125 
Q 50.140625 66.21875 39.40625 66.21875 
z
M 39.40625 74.21875 
Q 54.734375 74.21875 63.90625 63.9375 
Q 73.09375 53.65625 73.09375 36.375 
Q 73.09375 19.140625 63.90625 8.859375 
Q 54.734375 -1.421875 39.40625 -1.421875 
Q 24.03125 -1.421875 14.8125 8.828125 
Q 5.609375 19.09375 5.609375 36.375 
Q 5.609375 53.65625 14.8125 63.9375 
Q 24.03125 74.21875 39.40625 74.21875 
z
" id="DejaVuSans-4f"/>
     <path d="M 9.8125 72.90625 
L 19.671875 72.90625 
L 19.671875 8.296875 
L 55.171875 8.296875 
L 55.171875 0 
L 9.8125 0 
z
" id="DejaVuSans-4c"/>
     <path d="M 19.671875 64.796875 
L 19.671875 8.109375 
L 31.59375 8.109375 
Q 46.6875 8.109375 53.6875 14.9375 
Q 60.6875 21.78125 60.6875 36.53125 
Q 60.6875 51.171875 53.6875 57.984375 
Q 46.6875 64.796875 31.59375 64.796875 
z
M 9.8125 72.90625 
L 30.078125 72.90625 
Q 51.265625 72.90625 61.171875 64.09375 
Q 71.09375 55.28125 71.09375 36.53125 
Q 71.09375 17.671875 61.125 8.828125 
Q 51.171875 0 30.078125 0 
L 9.8125 0 
z
" id="DejaVuSans-44"/>
     <path d="M 44.28125 53.078125 
L 44.28125 44.578125 
Q 40.484375 46.53125 36.375 47.5 
Q 32.28125 48.484375 27.875 48.484375 
Q 21.1875 48.484375 17.84375 46.4375 
Q 14.5 44.390625 14.5 40.28125 
Q 14.5 37.15625 16.890625 35.375 
Q 19.28125 33.59375 26.515625 31.984375 
L 29.59375 31.296875 
Q 39.15625 29.25 43.1875 25.515625 
Q 47.21875 21.78125 47.21875 15.09375 
Q 47.21875 7.46875 41.1875 3.015625 
Q 35.15625 -1.421875 24.609375 -1.421875 
Q 20.21875 -1.421875 15.453125 -0.5625 
Q 10.6875 0.296875 5.421875 2 
L 5.421875 11.28125 
Q 10.40625 8.6875 15.234375 7.390625 
Q 20.0625 6.109375 24.8125 6.109375 
Q 31.15625 6.109375 34.5625 8.28125 
Q 37.984375 10.453125 37.984375 14.40625 
Q 37.984375 18.0625 35.515625 20.015625 
Q 33.0625 21.96875 24.703125 23.78125 
L 21.578125 24.515625 
Q 13.234375 26.265625 9.515625 29.90625 
Q 5.8125 33.546875 5.8125 39.890625 
Q 5.8125 47.609375 11.28125 51.796875 
Q 16.75 56 26.8125 56 
Q 31.78125 56 36.171875 55.265625 
Q 40.578125 54.546875 44.28125 53.078125 
z
" id="DejaVuSans-73"/>
     <path d="M 45.40625 27.984375 
Q 45.40625 37.75 41.375 43.109375 
Q 37.359375 48.484375 30.078125 48.484375 
Q 22.859375 48.484375 18.828125 43.109375 
Q 14.796875 37.75 14.796875 27.984375 
Q 14.796875 18.265625 18.828125 12.890625 
Q 22.859375 7.515625 30.078125 7.515625 
Q 37.359375 7.515625 41.375 12.890625 
Q 45.40625 18.265625 45.40625 27.984375 
z
M 54.390625 6.78125 
Q 54.390625 -7.171875 48.1875 -13.984375 
Q 42 -20.796875 29.203125 -20.796875 
Q 24.46875 -20.796875 20.265625 -20.09375 
Q 16.0625 -19.390625 12.109375 -17.921875 
L 12.109375 -9.1875 
Q 16.0625 -11.328125 19.921875 -12.34375 
Q 23.78125 -13.375 27.78125 -13.375 
Q 36.625 -13.375 41.015625 -8.765625 
Q 45.40625 -4.15625 45.40625 5.171875 
L 45.40625 9.625 
Q 42.625 4.78125 38.28125 2.390625 
Q 33.9375 0 27.875 0 
Q 17.828125 0 11.671875 7.65625 
Q 5.515625 15.328125 5.515625 27.984375 
Q 5.515625 40.671875 11.671875 48.328125 
Q 17.828125 56 27.875 56 
Q 33.9375 56 38.28125 53.609375 
Q 42.625 51.21875 45.40625 46.390625 
L 45.40625 54.6875 
L 54.390625 54.6875 
z
" id="DejaVuSans-67"/>
     <path d="M 54.890625 33.015625 
L 54.890625 0 
L 45.90625 0 
L 45.90625 32.71875 
Q 45.90625 40.484375 42.875 44.328125 
Q 39.84375 48.1875 33.796875 48.1875 
Q 26.515625 48.1875 22.3125 43.546875 
Q 18.109375 38.921875 18.109375 30.90625 
L 18.109375 0 
L 9.078125 0 
L 9.078125 54.6875 
L 18.109375 54.6875 
L 18.109375 46.1875 
Q 21.34375 51.125 25.703125 53.5625 
Q 30.078125 56 35.796875 56 
Q 45.21875 56 50.046875 50.171875 
Q 54.890625 44.34375 54.890625 33.015625 
z
" id="DejaVuSans-6e"/>
     <path d="M 34.28125 27.484375 
Q 23.390625 27.484375 19.1875 25 
Q 14.984375 22.515625 14.984375 16.5 
Q 14.984375 11.71875 18.140625 8.90625 
Q 21.296875 6.109375 26.703125 6.109375 
Q 34.1875 6.109375 38.703125 11.40625 
Q 43.21875 16.703125 43.21875 25.484375 
L 43.21875 27.484375 
z
M 52.203125 31.203125 
L 52.203125 0 
L 43.21875 0 
L 43.21875 8.296875 
Q 40.140625 3.328125 35.546875 0.953125 
Q 30.953125 -1.421875 24.3125 -1.421875 
Q 15.921875 -1.421875 10.953125 3.296875 
Q 6 8.015625 6 15.921875 
Q 6 25.140625 12.171875 29.828125 
Q 18.359375 34.515625 30.609375 34.515625 
L 43.21875 34.515625 
L 43.21875 35.40625 
Q 43.21875 41.609375 39.140625 45 
Q 35.0625 48.390625 27.6875 48.390625 
Q 23 48.390625 18.546875 47.265625 
Q 14.109375 46.140625 10.015625 43.890625 
L 10.015625 52.203125 
Q 14.9375 54.109375 19.578125 55.046875 
Q 24.21875 56 28.609375 56 
Q 40.484375 56 46.34375 49.84375 
Q 52.203125 43.703125 52.203125 31.203125 
z
" id="DejaVuSans-61"/>
     <path d="M 9.421875 75.984375 
L 18.40625 75.984375 
L 18.40625 0 
L 9.421875 0 
z
" id="DejaVuSans-6c"/>
    </defs>
    <g transform="translate(199.703438 183.312)scale(0.12 -0.12)">
     <use xlink:href="#DejaVuSans-42"/>
     <use x="68.587891" xlink:href="#DejaVuSans-4f"/>
     <use x="147.298828" xlink:href="#DejaVuSans-4c"/>
     <use x="203.011719" xlink:href="#DejaVuSans-44"/>
     <use x="280.013672" xlink:href="#DejaVuSans-20"/>
     <use x="311.800781" xlink:href="#DejaVuSans-73"/>
     <use x="363.900391" xlink:href="#DejaVuSans-69"/>
     <use x="391.683594" xlink:href="#DejaVuSans-67"/>
     <use x="455.160156" xlink:href="#DejaVuSans-6e"/>
     <use x="518.539062" xlink:href="#DejaVuSans-61"/>
     <use x="579.818359" xlink:href="#DejaVuSans-6c"/>
    </g>
   </g>
  </g>
 </g>
 <defs>
  <clipPath id="p9498498caf">
   <rect height="118.272" width="357.12" x="57.6" y="41.472"/>
  </clipPath>
  <clipPath id="p40c7f17425">
   <rect height="118.272" width="357.12" x="57.6" y="189.312"/>
  </clipPath>
 </defs>
</svg>
