<?xml version="1.0" encoding="utf-8" standalone="no"?>
<!DOCTYPE svg PUBLIC "-//W3C//DTD SVG 1.1//EN"
  "http://www.w3.org/Graphics/SVG/1.1/DTD/svg11.dtd">
<!-- Created with matplotlib (http://matplotlib.org/) -->
<svg height="345.6pt" version="1.1" viewBox="0 0 460.8 345.6" width="460.8pt" xmlns="http://www.w3.org/2000/svg" xmlns:xlink="http://www.w3.org/1999/xlink">
 <defs>
  <style type="text/css">
*{stroke-linecap:butt;stroke-linejoin:round;}
  </style>
 </defs>
 <g id="figure_1">
  <g id="patch_1">
   <path d="M 0 345.6 
L 460.8 345.6 
L 460.8 0 
L 0 0 
z
" style="fill:#ffffff;"/>
  </g>
  <g id="axes_1">
   <g id="patch_2">
    <path d="M 57.6 159.744 
L 414.72 159.744 
L 414.72 41.472 
L 57.6 41.472 
z
" style="fill:#ffffff;"/>
   </g>
   <g id="matplotlib.axis_1">
    <g id="xtick_1">
     <g id="line2d_1">
      <defs>
       <path d="M 0 0 
L 0 3.5 
" id="m301478ce1a" style="stroke:#000000;stroke-width:0.8;"/>
      </defs>
      <g>
       <use style="stroke:#000000;stroke-width:0.8;" x="57.183776" xlink:href="#m301478ce1a" y="159.744"/>
      </g>
     </g>
     <g id="text_1">
      <!-- 0 -->
      <defs>
       <path d="M 31.78125 66.40625 
Q 24.171875 66.40625 20.328125 58.90625 
Q 16.5 51.421875 16.5 36.375 
Q 16.5 21.390625 20.328125 13.890625 
Q 24.171875 6.390625 31.78125 6.390625 
Q 39.453125 6.390625 43.28125 13.890625 
Q 47.125 21.390625 47.125 36.375 
Q 47.125 51.421875 43.28125 58.90625 
Q 39.453125 66.40625 31.78125 66.40625 
z
M 31.78125 74.21875 
Q 44.046875 74.21875 50.515625 64.515625 
Q 56.984375 54.828125 56.984375 36.375 
Q 56.984375 17.96875 50.515625 8.265625 
Q 44.046875 -1.421875 31.78125 -1.421875 
Q 19.53125 -1.421875 13.0625 8.265625 
Q 6.59375 17.96875 6.59375 36.375 
Q 6.59375 54.828125 13.0625 64.515625 
Q 19.53125 74.21875 31.78125 74.21875 
z
" id="DejaVuSans-30"/>
      </defs>
      <g transform="translate(54.002526 174.342437)scale(0.1 -0.1)">
       <use xlink:href="#DejaVuSans-30"/>
      </g>
     </g>
    </g>
    <g id="xtick_2">
     <g id="line2d_2">
      <g>
       <use style="stroke:#000000;stroke-width:0.8;" x="98.475818" xlink:href="#m301478ce1a" y="159.744"/>
      </g>
     </g>
     <g id="text_2">
      <!-- 25 -->
      <defs>
       <path d="M 19.1875 8.296875 
L 53.609375 8.296875 
L 53.609375 0 
L 7.328125 0 
L 7.328125 8.296875 
Q 12.9375 14.109375 22.625 23.890625 
Q 32.328125 33.6875 34.8125 36.53125 
Q 39.546875 41.84375 41.421875 45.53125 
Q 43.3125 49.21875 43.3125 52.78125 
Q 43.3125 58.59375 39.234375 62.25 
Q 35.15625 65.921875 28.609375 65.921875 
Q 23.96875 65.921875 18.8125 64.3125 
Q 13.671875 62.703125 7.8125 59.421875 
L 7.8125 69.390625 
Q 13.765625 71.78125 18.9375 73 
Q 24.125 74.21875 28.421875 74.21875 
Q 39.75 74.21875 46.484375 68.546875 
Q 53.21875 62.890625 53.21875 53.421875 
Q 53.21875 48.921875 51.53125 44.890625 
Q 49.859375 40.875 45.40625 35.40625 
Q 44.1875 33.984375 37.640625 27.21875 
Q 31.109375 20.453125 19.1875 8.296875 
z
" id="DejaVuSans-32"/>
       <path d="M 10.796875 72.90625 
L 49.515625 72.90625 
L 49.515625 64.59375 
L 19.828125 64.59375 
L 19.828125 46.734375 
Q 21.96875 47.46875 24.109375 47.828125 
Q 26.265625 48.1875 28.421875 48.1875 
Q 40.625 48.1875 47.75 41.5 
Q 54.890625 34.8125 54.890625 23.390625 
Q 54.890625 11.625 47.5625 5.09375 
Q 40.234375 -1.421875 26.90625 -1.421875 
Q 22.3125 -1.421875 17.546875 -0.640625 
Q 12.796875 0.140625 7.71875 1.703125 
L 7.71875 11.625 
Q 12.109375 9.234375 16.796875 8.0625 
Q 21.484375 6.890625 26.703125 6.890625 
Q 35.15625 6.890625 40.078125 11.328125 
Q 45.015625 15.765625 45.015625 23.390625 
Q 45.015625 31 40.078125 35.4375 
Q 35.15625 39.890625 26.703125 39.890625 
Q 22.75 39.890625 18.8125 39.015625 
Q 14.890625 38.140625 10.796875 36.28125 
z
" id="DejaVuSans-35"/>
      </defs>
      <g transform="translate(92.113318 174.342437)scale(0.1 -0.1)">
       <use xlink:href="#DejaVuSans-32"/>
       <use x="63.623047" xlink:href="#DejaVuSans-35"/>
      </g>
     </g>
    </g>
    <g id="xtick_3">
     <g id="line2d_3">
      <g>
       <use style="stroke:#000000;stroke-width:0.8;" x="139.767859" xlink:href="#m301478ce1a" y="159.744"/>
      </g>
     </g>
     <g id="text_3">
      <!-- 50 -->
      <g transform="translate(133.405359 174.342437)scale(0.1 -0.1)">
       <use xlink:href="#DejaVuSans-35"/>
       <use x="63.623047" xlink:href="#DejaVuSans-30"/>
      </g>
     </g>
    </g>
    <g id="xtick_4">
     <g id="line2d_4">
      <g>
       <use style="stroke:#000000;stroke-width:0.8;" x="181.0599" xlink:href="#m301478ce1a" y="159.744"/>
      </g>
     </g>
     <g id="text_4">
      <!-- 75 -->
      <defs>
       <path d="M 8.203125 72.90625 
L 55.078125 72.90625 
L 55.078125 68.703125 
L 28.609375 0 
L 18.3125 0 
L 43.21875 64.59375 
L 8.203125 64.59375 
z
" id="DejaVuSans-37"/>
      </defs>
      <g transform="translate(174.6974 174.342437)scale(0.1 -0.1)">
       <use xlink:href="#DejaVuSans-37"/>
       <use x="63.623047" xlink:href="#DejaVuSans-35"/>
      </g>
     </g>
    </g>
    <g id="xtick_5">
     <g id="line2d_5">
      <g>
       <use style="stroke:#000000;stroke-width:0.8;" x="222.351941" xlink:href="#m301478ce1a" y="159.744"/>
      </g>
     </g>
     <g id="text_5">
      <!-- 100 -->
      <defs>
       <path d="M 12.40625 8.296875 
L 28.515625 8.296875 
L 28.515625 63.921875 
L 10.984375 60.40625 
L 10.984375 69.390625 
L 28.421875 72.90625 
L 38.28125 72.90625 
L 38.28125 8.296875 
L 54.390625 8.296875 
L 54.390625 0 
L 12.40625 0 
z
" id="DejaVuSans-31"/>
      </defs>
      <g transform="translate(212.808191 174.342437)scale(0.1 -0.1)">
       <use xlink:href="#DejaVuSans-31"/>
       <use x="63.623047" xlink:href="#DejaVuSans-30"/>
       <use x="127.246094" xlink:href="#DejaVuSans-30"/>
      </g>
     </g>
    </g>
    <g id="xtick_6">
     <g id="line2d_6">
      <g>
       <use style="stroke:#000000;stroke-width:0.8;" x="263.643983" xlink:href="#m301478ce1a" y="159.744"/>
      </g>
     </g>
     <g id="text_6">
      <!-- 125 -->
      <g transform="translate(254.100233 174.342437)scale(0.1 -0.1)">
       <use xlink:href="#DejaVuSans-31"/>
       <use x="63.623047" xlink:href="#DejaVuSans-32"/>
       <use x="127.246094" xlink:href="#DejaVuSans-35"/>
      </g>
     </g>
    </g>
    <g id="xtick_7">
     <g id="line2d_7">
      <g>
       <use style="stroke:#000000;stroke-width:0.8;" x="304.936024" xlink:href="#m301478ce1a" y="159.744"/>
      </g>
     </g>
     <g id="text_7">
      <!-- 150 -->
      <g transform="translate(295.392274 174.342437)scale(0.1 -0.1)">
       <use xlink:href="#DejaVuSans-31"/>
       <use x="63.623047" xlink:href="#DejaVuSans-35"/>
       <use x="127.246094" xlink:href="#DejaVuSans-30"/>
      </g>
     </g>
    </g>
    <g id="xtick_8">
     <g id="line2d_8">
      <g>
       <use style="stroke:#000000;stroke-width:0.8;" x="346.228065" xlink:href="#m301478ce1a" y="159.744"/>
      </g>
     </g>
     <g id="text_8">
      <!-- 175 -->
      <g transform="translate(336.684315 174.342437)scale(0.1 -0.1)">
       <use xlink:href="#DejaVuSans-31"/>
       <use x="63.623047" xlink:href="#DejaVuSans-37"/>
       <use x="127.246094" xlink:href="#DejaVuSans-35"/>
      </g>
     </g>
    </g>
    <g id="xtick_9">
     <g id="line2d_9">
      <g>
       <use style="stroke:#000000;stroke-width:0.8;" x="387.520107" xlink:href="#m301478ce1a" y="159.744"/>
      </g>
     </g>
     <g id="text_9">
      <!-- 200 -->
      <g transform="translate(377.976357 174.342437)scale(0.1 -0.1)">
       <use xlink:href="#DejaVuSans-32"/>
       <use x="63.623047" xlink:href="#DejaVuSans-30"/>
       <use x="127.246094" xlink:href="#DejaVuSans-30"/>
      </g>
     </g>
    </g>
   </g>
   <g id="matplotlib.axis_2">
    <g id="ytick_1">
     <g id="line2d_10">
      <defs>
       <path d="M 0 0 
L -3.5 0 
" id="m75f5f6a42d" style="stroke:#000000;stroke-width:0.8;"/>
      </defs>
      <g>
       <use style="stroke:#000000;stroke-width:0.8;" x="57.6" xlink:href="#m75f5f6a42d" y="156.357361"/>
      </g>
     </g>
     <g id="text_10">
      <!-- −4 -->
      <defs>
       <path d="M 10.59375 35.5 
L 73.1875 35.5 
L 73.1875 27.203125 
L 10.59375 27.203125 
z
" id="DejaVuSans-2212"/>
       <path d="M 37.796875 64.3125 
L 12.890625 25.390625 
L 37.796875 25.390625 
z
M 35.203125 72.90625 
L 47.609375 72.90625 
L 47.609375 25.390625 
L 58.015625 25.390625 
L 58.015625 17.1875 
L 47.609375 17.1875 
L 47.609375 0 
L 37.796875 0 
L 37.796875 17.1875 
L 4.890625 17.1875 
L 4.890625 26.703125 
z
" id="DejaVuSans-34"/>
      </defs>
      <g transform="translate(35.857813 160.15658)scale(0.1 -0.1)">
       <use xlink:href="#DejaVuSans-2212"/>
       <use x="83.789062" xlink:href="#DejaVuSans-34"/>
      </g>
     </g>
    </g>
    <g id="ytick_2">
     <g id="line2d_11">
      <g>
       <use style="stroke:#000000;stroke-width:0.8;" x="57.6" xlink:href="#m75f5f6a42d" y="117.787616"/>
      </g>
     </g>
     <g id="text_11">
      <!-- −2 -->
      <g transform="translate(35.857813 121.586835)scale(0.1 -0.1)">
       <use xlink:href="#DejaVuSans-2212"/>
       <use x="83.789062" xlink:href="#DejaVuSans-32"/>
      </g>
     </g>
    </g>
    <g id="ytick_3">
     <g id="line2d_12">
      <g>
       <use style="stroke:#000000;stroke-width:0.8;" x="57.6" xlink:href="#m75f5f6a42d" y="79.217871"/>
      </g>
     </g>
     <g id="text_12">
      <!-- 0 -->
      <g transform="translate(44.2375 83.01709)scale(0.1 -0.1)">
       <use xlink:href="#DejaVuSans-30"/>
      </g>
     </g>
    </g>
   </g>
   <g id="line2d_13">
    <path clip-path="url(#p4669d960ba)" d="M 73.832727 65.405616 
L 85.724835 75.1578 
L 99.995365 67.347575 
L 114.265894 66.125545 
L 128.536424 66.59639 
L 142.806953 88.042607 
L 157.077483 48.839928 
L 171.348012 98.948402 
L 185.618541 66.350466 
L 199.889071 87.470092 
L 214.1596 74.771056 
L 228.43013 74.666725 
L 242.700659 100.784269 
L 256.971189 66.286899 
L 271.241718 90.462096 
L 285.512248 84.723958 
L 299.782777 46.848 
L 314.053307 123.972034 
L 328.323836 60.508023 
L 342.594366 61.683144 
L 356.864895 51.741401 
L 372.324635 108.503217 
L 385.405954 154.368 
L 398.487273 53.766514 
L 398.487273 53.766514 
" style="fill:none;stroke:#ff0000;stroke-linecap:square;stroke-width:2;"/>
   </g>
   <g id="patch_3">
    <path d="M 57.6 159.744 
L 57.6 41.472 
" style="fill:none;stroke:#000000;stroke-linecap:square;stroke-linejoin:miter;stroke-width:0.8;"/>
   </g>
   <g id="patch_4">
    <path d="M 414.72 159.744 
L 414.72 41.472 
" style="fill:none;stroke:#000000;stroke-linecap:square;stroke-linejoin:miter;stroke-width:0.8;"/>
   </g>
   <g id="patch_5">
    <path d="M 57.6 159.744 
L 414.72 159.744 
" style="fill:none;stroke:#000000;stroke-linecap:square;stroke-linejoin:miter;stroke-width:0.8;"/>
   </g>
   <g id="patch_6">
    <path d="M 57.6 41.472 
L 414.72 41.472 
" style="fill:none;stroke:#000000;stroke-linecap:square;stroke-linejoin:miter;stroke-width:0.8;"/>
   </g>
  </g>
  <g id="axes_2">
   <g id="patch_7">
    <path d="M 57.6 307.584 
L 414.72 307.584 
L 414.72 189.312 
L 57.6 189.312 
z
" style="fill:#ffffff;"/>
   </g>
   <g id="matplotlib.axis_3">
    <g id="xtick_10">
     <g id="line2d_14">
      <g>
       <use style="stroke:#000000;stroke-width:0.8;" x="57.183776" xlink:href="#m301478ce1a" y="307.584"/>
      </g>
     </g>
     <g id="text_13">
      <!-- 0 -->
      <g transform="translate(54.002526 322.182437)scale(0.1 -0.1)">
       <use xlink:href="#DejaVuSans-30"/>
      </g>
     </g>
    </g>
    <g id="xtick_11">
     <g id="line2d_15">
      <g>
       <use style="stroke:#000000;stroke-width:0.8;" x="98.475818" xlink:href="#m301478ce1a" y="307.584"/>
      </g>
     </g>
     <g id="text_14">
      <!-- 25 -->
      <g transform="translate(92.113318 322.182437)scale(0.1 -0.1)">
       <use xlink:href="#DejaVuSans-32"/>
       <use x="63.623047" xlink:href="#DejaVuSans-35"/>
      </g>
     </g>
    </g>
    <g id="xtick_12">
     <g id="line2d_16">
      <g>
       <use style="stroke:#000000;stroke-width:0.8;" x="139.767859" xlink:href="#m301478ce1a" y="307.584"/>
      </g>
     </g>
     <g id="text_15">
      <!-- 50 -->
      <g transform="translate(133.405359 322.182437)scale(0.1 -0.1)">
       <use xlink:href="#DejaVuSans-35"/>
       <use x="63.623047" xlink:href="#DejaVuSans-30"/>
      </g>
     </g>
    </g>
    <g id="xtick_13">
     <g id="line2d_17">
      <g>
       <use style="stroke:#000000;stroke-width:0.8;" x="181.0599" xlink:href="#m301478ce1a" y="307.584"/>
      </g>
     </g>
     <g id="text_16">
      <!-- 75 -->
      <g transform="translate(174.6974 322.182437)scale(0.1 -0.1)">
       <use xlink:href="#DejaVuSans-37"/>
       <use x="63.623047" xlink:href="#DejaVuSans-35"/>
      </g>
     </g>
    </g>
    <g id="xtick_14">
     <g id="line2d_18">
      <g>
       <use style="stroke:#000000;stroke-width:0.8;" x="222.351941" xlink:href="#m301478ce1a" y="307.584"/>
      </g>
     </g>
     <g id="text_17">
      <!-- 100 -->
      <g transform="translate(212.808191 322.182437)scale(0.1 -0.1)">
       <use xlink:href="#DejaVuSans-31"/>
       <use x="63.623047" xlink:href="#DejaVuSans-30"/>
       <use x="127.246094" xlink:href="#DejaVuSans-30"/>
      </g>
     </g>
    </g>
    <g id="xtick_15">
     <g id="line2d_19">
      <g>
       <use style="stroke:#000000;stroke-width:0.8;" x="263.643983" xlink:href="#m301478ce1a" y="307.584"/>
      </g>
     </g>
     <g id="text_18">
      <!-- 125 -->
      <g transform="translate(254.100233 322.182437)scale(0.1 -0.1)">
       <use xlink:href="#DejaVuSans-31"/>
       <use x="63.623047" xlink:href="#DejaVuSans-32"/>
       <use x="127.246094" xlink:href="#DejaVuSans-35"/>
      </g>
     </g>
    </g>
    <g id="xtick_16">
     <g id="line2d_20">
      <g>
       <use style="stroke:#000000;stroke-width:0.8;" x="304.936024" xlink:href="#m301478ce1a" y="307.584"/>
      </g>
     </g>
     <g id="text_19">
      <!-- 150 -->
      <g transform="translate(295.392274 322.182437)scale(0.1 -0.1)">
       <use xlink:href="#DejaVuSans-31"/>
       <use x="63.623047" xlink:href="#DejaVuSans-35"/>
       <use x="127.246094" xlink:href="#DejaVuSans-30"/>
      </g>
     </g>
    </g>
    <g id="xtick_17">
     <g id="line2d_21">
      <g>
       <use style="stroke:#000000;stroke-width:0.8;" x="346.228065" xlink:href="#m301478ce1a" y="307.584"/>
      </g>
     </g>
     <g id="text_20">
      <!-- 175 -->
      <g transform="translate(336.684315 322.182437)scale(0.1 -0.1)">
       <use xlink:href="#DejaVuSans-31"/>
       <use x="63.623047" xlink:href="#DejaVuSans-37"/>
       <use x="127.246094" xlink:href="#DejaVuSans-35"/>
      </g>
     </g>
    </g>
    <g id="xtick_18">
     <g id="line2d_22">
      <g>
       <use style="stroke:#000000;stroke-width:0.8;" x="387.520107" xlink:href="#m301478ce1a" y="307.584"/>
      </g>
     </g>
     <g id="text_21">
      <!-- 200 -->
      <g transform="translate(377.976357 322.182437)scale(0.1 -0.1)">
       <use xlink:href="#DejaVuSans-32"/>
       <use x="63.623047" xlink:href="#DejaVuSans-30"/>
       <use x="127.246094" xlink:href="#DejaVuSans-30"/>
      </g>
     </g>
    </g>
    <g id="text_22">
     <!-- Time (Sec) -->
     <defs>
      <path d="M -0.296875 72.90625 
L 61.375 72.90625 
L 61.375 64.59375 
L 35.5 64.59375 
L 35.5 0 
L 25.59375 0 
L 25.59375 64.59375 
L -0.296875 64.59375 
z
" id="DejaVuSans-54"/>
      <path d="M 9.421875 54.6875 
L 18.40625 54.6875 
L 18.40625 0 
L 9.421875 0 
z
M 9.421875 75.984375 
L 18.40625 75.984375 
L 18.40625 64.59375 
L 9.421875 64.59375 
z
" id="DejaVuSans-69"/>
      <path d="M 52 44.1875 
Q 55.375 50.25 60.0625 53.125 
Q 64.75 56 71.09375 56 
Q 79.640625 56 84.28125 50.015625 
Q 88.921875 44.046875 88.921875 33.015625 
L 88.921875 0 
L 79.890625 0 
L 79.890625 32.71875 
Q 79.890625 40.578125 77.09375 44.375 
Q 74.3125 48.1875 68.609375 48.1875 
Q 61.625 48.1875 57.5625 43.546875 
Q 53.515625 38.921875 53.515625 30.90625 
L 53.515625 0 
L 44.484375 0 
L 44.484375 32.71875 
Q 44.484375 40.625 41.703125 44.40625 
Q 38.921875 48.1875 33.109375 48.1875 
Q 26.21875 48.1875 22.15625 43.53125 
Q 18.109375 38.875 18.109375 30.90625 
L 18.109375 0 
L 9.078125 0 
L 9.078125 54.6875 
L 18.109375 54.6875 
L 18.109375 46.1875 
Q 21.1875 51.21875 25.484375 53.609375 
Q 29.78125 56 35.6875 56 
Q 41.65625 56 45.828125 52.96875 
Q 50 49.953125 52 44.1875 
z
" id="DejaVuSans-6d"/>
      <path d="M 56.203125 29.59375 
L 56.203125 25.203125 
L 14.890625 25.203125 
Q 15.484375 15.921875 20.484375 11.0625 
Q 25.484375 6.203125 34.421875 6.203125 
Q 39.59375 6.203125 44.453125 7.46875 
Q 49.3125 8.734375 54.109375 11.28125 
L 54.109375 2.78125 
Q 49.265625 0.734375 44.1875 -0.34375 
Q 39.109375 -1.421875 33.890625 -1.421875 
Q 20.796875 -1.421875 13.15625 6.1875 
Q 5.515625 13.8125 5.515625 26.8125 
Q 5.515625 40.234375 12.765625 48.109375 
Q 20.015625 56 32.328125 56 
Q 43.359375 56 49.78125 48.890625 
Q 56.203125 41.796875 56.203125 29.59375 
z
M 47.21875 32.234375 
Q 47.125 39.59375 43.09375 43.984375 
Q 39.0625 48.390625 32.421875 48.390625 
Q 24.90625 48.390625 20.390625 44.140625 
Q 15.875 39.890625 15.1875 32.171875 
z
" id="DejaVuSans-65"/>
      <path id="DejaVuSans-20"/>
      <path d="M 31 75.875 
Q 24.46875 64.65625 21.28125 53.65625 
Q 18.109375 42.671875 18.109375 31.390625 
Q 18.109375 20.125 21.3125 9.0625 
Q 24.515625 -2 31 -13.1875 
L 23.1875 -13.1875 
Q 15.875 -1.703125 12.234375 9.375 
Q 8.59375 20.453125 8.59375 31.390625 
Q 8.59375 42.28125 12.203125 53.3125 
Q 15.828125 64.359375 23.1875 75.875 
z
" id="DejaVuSans-28"/>
      <path d="M 53.515625 70.515625 
L 53.515625 60.890625 
Q 47.90625 63.578125 42.921875 64.890625 
Q 37.9375 66.21875 33.296875 66.21875 
Q 25.25 66.21875 20.875 63.09375 
Q 16.5 59.96875 16.5 54.203125 
Q 16.5 49.359375 19.40625 46.890625 
Q 22.3125 44.4375 30.421875 42.921875 
L 36.375 41.703125 
Q 47.40625 39.59375 52.65625 34.296875 
Q 57.90625 29 57.90625 20.125 
Q 57.90625 9.515625 50.796875 4.046875 
Q 43.703125 -1.421875 29.984375 -1.421875 
Q 24.8125 -1.421875 18.96875 -0.25 
Q 13.140625 0.921875 6.890625 3.21875 
L 6.890625 13.375 
Q 12.890625 10.015625 18.65625 8.296875 
Q 24.421875 6.59375 29.984375 6.59375 
Q 38.421875 6.59375 43.015625 9.90625 
Q 47.609375 13.234375 47.609375 19.390625 
Q 47.609375 24.75 44.3125 27.78125 
Q 41.015625 30.8125 33.5 32.328125 
L 27.484375 33.5 
Q 16.453125 35.6875 11.515625 40.375 
Q 6.59375 45.0625 6.59375 53.421875 
Q 6.59375 63.09375 13.40625 68.65625 
Q 20.21875 74.21875 32.171875 74.21875 
Q 37.3125 74.21875 42.625 73.28125 
Q 47.953125 72.359375 53.515625 70.515625 
z
" id="DejaVuSans-53"/>
      <path d="M 48.78125 52.59375 
L 48.78125 44.1875 
Q 44.96875 46.296875 41.140625 47.34375 
Q 37.3125 48.390625 33.40625 48.390625 
Q 24.65625 48.390625 19.8125 42.84375 
Q 14.984375 37.3125 14.984375 27.296875 
Q 14.984375 17.28125 19.8125 11.734375 
Q 24.65625 6.203125 33.40625 6.203125 
Q 37.3125 6.203125 41.140625 7.25 
Q 44.96875 8.296875 48.78125 10.40625 
L 48.78125 2.09375 
Q 45.015625 0.34375 40.984375 -0.53125 
Q 36.96875 -1.421875 32.421875 -1.421875 
Q 20.0625 -1.421875 12.78125 6.34375 
Q 5.515625 14.109375 5.515625 27.296875 
Q 5.515625 40.671875 12.859375 48.328125 
Q 20.21875 56 33.015625 56 
Q 37.15625 56 41.109375 55.140625 
Q 45.0625 54.296875 48.78125 52.59375 
z
" id="DejaVuSans-63"/>
      <path d="M 8.015625 75.875 
L 15.828125 75.875 
Q 23.140625 64.359375 26.78125 53.3125 
Q 30.421875 42.28125 30.421875 31.390625 
Q 30.421875 20.453125 26.78125 9.375 
Q 23.140625 -1.703125 15.828125 -13.1875 
L 8.015625 -13.1875 
Q 14.5 -2 17.703125 9.0625 
Q 20.90625 20.125 20.90625 31.390625 
Q 20.90625 42.671875 17.703125 53.65625 
Q 14.5 64.65625 8.015625 75.875 
z
" id="DejaVuSans-29"/>
     </defs>
     <g transform="translate(209.281875 335.860562)scale(0.1 -0.1)">
      <use xlink:href="#DejaVuSans-54"/>
      <use x="61.037109" xlink:href="#DejaVuSans-69"/>
      <use x="88.820312" xlink:href="#DejaVuSans-6d"/>
      <use x="186.232422" xlink:href="#DejaVuSans-65"/>
      <use x="247.755859" xlink:href="#DejaVuSans-20"/>
      <use x="279.542969" xlink:href="#DejaVuSans-28"/>
      <use x="318.556641" xlink:href="#DejaVuSans-53"/>
      <use x="382.033203" xlink:href="#DejaVuSans-65"/>
      <use x="443.556641" xlink:href="#DejaVuSans-63"/>
      <use x="498.537109" xlink:href="#DejaVuSans-29"/>
     </g>
    </g>
   </g>
   <g id="matplotlib.axis_4">
    <g id="ytick_4">
     <g id="line2d_23">
      <g>
       <use style="stroke:#000000;stroke-width:0.8;" x="57.6" xlink:href="#m75f5f6a42d" y="296.58039"/>
      </g>
     </g>
     <g id="text_23">
      <!-- −20 -->
      <g transform="translate(29.495313 300.379609)scale(0.1 -0.1)">
       <use xlink:href="#DejaVuSans-2212"/>
       <use x="83.789062" xlink:href="#DejaVuSans-32"/>
       <use x="147.412109" xlink:href="#DejaVuSans-30"/>
      </g>
     </g>
    </g>
    <g id="ytick_5">
     <g id="line2d_24">
      <g>
       <use style="stroke:#000000;stroke-width:0.8;" x="57.6" xlink:href="#m75f5f6a42d" y="250.46546"/>
      </g>
     </g>
     <g id="text_24">
      <!-- 0 -->
      <g transform="translate(44.2375 254.264679)scale(0.1 -0.1)">
       <use xlink:href="#DejaVuSans-30"/>
      </g>
     </g>
    </g>
    <g id="ytick_6">
     <g id="line2d_25">
      <g>
       <use style="stroke:#000000;stroke-width:0.8;" x="57.6" xlink:href="#m75f5f6a42d" y="204.35053"/>
      </g>
     </g>
     <g id="text_25">
      <!-- 20 -->
      <g transform="translate(37.875 208.149749)scale(0.1 -0.1)">
       <use xlink:href="#DejaVuSans-32"/>
       <use x="63.623047" xlink:href="#DejaVuSans-30"/>
      </g>
     </g>
    </g>
   </g>
   <g id="line2d_26">
    <path clip-path="url(#p65a2ca8f56)" d="M 73.832727 244.459677 
L 75.021938 244.868194 
L 76.211149 245.529868 
L 78.58957 247.09988 
L 79.778781 247.734863 
L 80.967992 248.138279 
L 82.157203 248.273031 
L 83.346414 248.153654 
L 84.535624 247.835341 
L 90.481678 245.699449 
L 92.8601 245.325219 
L 95.238521 245.279042 
L 97.616943 245.513681 
L 98.806154 245.808674 
L 99.995365 246.30557 
L 101.184575 247.058485 
L 102.373786 248.088724 
L 105.941419 251.908428 
L 107.130629 252.6542 
L 108.31984 252.70669 
L 109.509051 251.932691 
L 110.698262 250.360401 
L 114.265894 244.140121 
L 115.455105 243.14064 
L 116.644316 243.269844 
L 117.833526 244.577136 
L 119.022737 246.838928 
L 121.401159 252.290099 
L 122.59037 254.408717 
L 123.77958 255.603209 
L 124.968791 255.742501 
L 126.158002 254.937917 
L 127.347213 253.503739 
L 129.725634 250.380673 
L 130.914845 249.37873 
L 132.104056 248.990847 
L 133.293267 249.192681 
L 134.482478 249.816516 
L 136.860899 251.35749 
L 138.05011 251.847141 
L 139.239321 251.988091 
L 140.428531 251.773452 
L 141.617742 251.273713 
L 146.374585 248.668585 
L 147.563796 248.33386 
L 148.753007 248.292546 
L 149.942218 248.625836 
L 151.131429 249.385501 
L 152.320639 250.576026 
L 153.50985 252.129592 
L 155.888272 255.509829 
L 157.077483 256.735286 
L 158.266693 257.27866 
L 159.455904 256.988048 
L 160.645115 255.864931 
L 161.834326 254.091881 
L 164.212747 250.010258 
L 165.401958 248.46217 
L 166.591169 247.604571 
L 167.78038 247.527131 
L 168.96959 248.157942 
L 170.158801 249.293824 
L 172.537223 252.019267 
L 173.726434 253.149334 
L 174.915644 253.923421 
L 176.104855 254.244668 
L 177.294066 254.030244 
L 178.483277 253.217934 
L 179.672488 251.786287 
L 180.861698 249.771307 
L 184.429331 242.481797 
L 185.618541 241.16109 
L 186.807752 241.206269 
L 187.996963 242.858976 
L 189.186174 246.066613 
L 192.753806 259.364474 
L 193.943017 262.334616 
L 195.132228 263.545109 
L 196.321439 262.846257 
L 197.510649 260.448745 
L 198.69986 256.850142 
L 201.078282 248.553772 
L 202.267493 244.926634 
L 203.456703 242.075341 
L 204.645914 240.081372 
L 205.835125 238.87156 
L 207.024336 238.277774 
L 208.213546 238.097494 
L 210.591968 238.290379 
L 211.781179 238.545118 
L 212.97039 239.045001 
L 214.1596 239.998712 
L 215.348811 241.595361 
L 216.538022 243.939994 
L 217.727233 247.031578 
L 218.916444 250.77493 
L 221.294865 259.559078 
L 224.862498 273.342554 
L 226.051708 277.229537 
L 227.240919 280.014682 
L 228.43013 281.096098 
L 229.619341 280.005827 
L 230.808551 276.544325 
L 231.997762 270.846193 
L 233.186973 263.402966 
L 236.754605 238.637391 
L 237.943816 232.028328 
L 239.133027 226.957953 
L 240.322238 223.590793 
L 241.511449 222.024007 
L 242.700659 222.292421 
L 243.88987 224.335501 
L 245.079081 227.973744 
L 246.268292 232.874693 
L 248.646713 244.109755 
L 249.835924 248.948872 
L 251.025135 252.384096 
L 252.214346 254.0449 
L 253.403556 253.887343 
L 254.592767 252.232888 
L 256.971189 247.072371 
L 258.1604 245.014654 
L 259.34961 244.018858 
L 260.538821 244.296514 
L 261.728032 245.775545 
L 262.917243 248.154581 
L 266.484875 256.594253 
L 267.674086 258.810105 
L 270.052507 262.211811 
L 271.241718 263.926912 
L 272.430929 266.056546 
L 273.62014 268.796845 
L 275.998561 275.55426 
L 277.187772 278.251882 
L 278.376983 279.161232 
L 279.566194 277.400329 
L 280.755405 272.488426 
L 281.944615 264.497572 
L 283.133826 254.158108 
L 285.512248 231.828266 
L 286.701459 222.702473 
L 287.890669 216.291546 
L 289.07988 212.95221 
L 290.269091 212.506306 
L 291.458302 214.365625 
L 292.647512 217.731943 
L 296.215145 229.58349 
L 297.404356 232.747505 
L 299.782777 238.3406 
L 300.971988 241.465564 
L 302.161199 245.187638 
L 303.35041 249.606363 
L 305.728831 260.046647 
L 308.107253 270.761823 
L 309.296464 275.544883 
L 310.485674 279.709783 
L 311.674885 283.095981 
L 312.864096 285.506336 
L 314.053307 286.747352 
L 315.242517 286.699997 
L 316.431728 285.366148 
L 317.620939 282.873438 
L 318.81015 279.448972 
L 321.188571 270.944194 
L 324.756204 257.783575 
L 330.702258 238.015947 
L 334.26989 225.033303 
L 335.459101 221.741171 
L 336.648312 219.64328 
L 337.837522 218.952569 
L 339.026733 219.660743 
L 340.215944 221.525123 
L 343.783576 229.508061 
L 344.972787 231.512314 
L 346.161998 232.822026 
L 348.54042 234.345639 
L 349.72963 235.61564 
L 350.918841 237.955116 
L 352.108052 241.692541 
L 353.297263 246.860065 
L 358.054106 271.640778 
L 359.243317 275.540661 
L 360.432527 277.780578 
L 361.621738 278.475473 
L 362.810949 277.964712 
L 364.00016 276.700764 
L 366.378581 273.636326 
L 367.567792 272.41347 
L 369.946214 270.506588 
L 371.135425 269.22722 
L 372.324635 267.277332 
L 373.513846 264.442904 
L 374.703057 260.66937 
L 375.892268 256.052919 
L 378.270689 245.162111 
L 381.838322 228.303141 
L 383.027532 223.429854 
L 384.216743 219.430529 
L 385.405954 216.658411 
L 386.595165 215.371414 
L 387.784376 215.658368 
L 388.973586 217.404319 
L 390.162797 220.279077 
L 393.73043 230.535456 
L 394.91964 232.956251 
L 396.108851 234.540777 
L 398.487273 236.660137 
L 398.487273 236.660137 
" style="fill:none;stroke:#ff0000;stroke-linecap:square;stroke-width:2;"/>
   </g>
   <g id="line2d_27">
    <path clip-path="url(#p65a2ca8f56)" d="M 73.832727 263.945034 
L 75.021938 237.18077 
L 76.211149 234.542841 
L 77.40036 228.749269 
L 78.58957 249.650378 
L 79.778781 256.214587 
L 80.967992 251.695024 
L 82.157203 258.262164 
L 84.535624 229.44388 
L 85.724835 263.18415 
L 86.914046 250.339562 
L 88.103257 241.834176 
L 89.292468 247.530023 
L 90.481678 240.730495 
L 91.670889 249.016224 
L 92.8601 242.083825 
L 94.049311 246.844684 
L 95.238521 243.543561 
L 96.427732 234.803957 
L 97.616943 257.074702 
L 98.806154 258.547154 
L 99.995365 232.201347 
L 101.184575 258.079372 
L 102.373786 241.177883 
L 103.562997 242.728893 
L 104.752208 251.379454 
L 105.941419 258.081047 
L 107.130629 243.083387 
L 108.31984 265.563123 
L 109.509051 251.118983 
L 110.698262 246.540279 
L 111.887473 238.186374 
L 113.076683 255.571669 
L 114.265894 243.271882 
L 115.455105 248.557975 
L 116.644316 235.938968 
L 117.833526 246.985458 
L 119.022737 255.542017 
L 120.211948 242.411133 
L 121.401159 249.889614 
L 122.59037 254.291118 
L 123.77958 249.88383 
L 124.968791 250.240196 
L 126.158002 264.487392 
L 127.347213 260.883822 
L 128.536424 254.994485 
L 130.914845 244.541733 
L 132.104056 249.43169 
L 133.293267 245.814823 
L 134.482478 249.588788 
L 135.671688 252.381794 
L 136.860899 242.355566 
L 138.05011 246.536527 
L 139.239321 261.06172 
L 140.428531 255.549355 
L 141.617742 258.375352 
L 142.806953 254.455373 
L 143.996164 254.958923 
L 145.185375 232.633788 
L 146.374585 242.246515 
L 147.563796 247.791338 
L 148.753007 242.25549 
L 149.942218 256.36187 
L 151.131429 256.720497 
L 152.320639 275.283677 
L 153.50985 239.641555 
L 154.699061 237.94785 
L 155.888272 254.823048 
L 157.077483 247.126993 
L 158.266693 261.615439 
L 159.455904 267.685028 
L 160.645115 237.320616 
L 161.834326 274.204701 
L 163.023536 247.467769 
L 164.212747 262.791926 
L 165.401958 255.821185 
L 166.591169 235.476852 
L 167.78038 226.040698 
L 168.96959 255.471365 
L 170.158801 252.003229 
L 171.348012 258.937575 
L 172.537223 255.150515 
L 173.726434 242.291328 
L 174.915644 244.619547 
L 176.104855 269.112271 
L 177.294066 250.87238 
L 178.483277 253.607071 
L 179.672488 262.517034 
L 182.050909 237.102037 
L 184.429331 247.060081 
L 185.618541 239.015096 
L 186.807752 237.396556 
L 187.996963 243.019275 
L 189.186174 244.318904 
L 190.375385 259.607931 
L 191.564595 264.671231 
L 192.753806 242.302319 
L 193.943017 269.581013 
L 195.132228 250.55857 
L 196.321439 282.132191 
L 198.69986 250.154397 
L 199.889071 249.84941 
L 201.078282 232.694459 
L 202.267493 240.217418 
L 203.456703 239.488701 
L 205.835125 256.442047 
L 207.024336 249.399358 
L 208.213546 241.571741 
L 209.402757 231.317821 
L 210.591968 230.190728 
L 211.781179 232.044473 
L 212.97039 226.351673 
L 214.1596 237.226418 
L 215.348811 239.923485 
L 216.538022 271.703867 
L 217.727233 228.949096 
L 218.916444 260.343122 
L 220.105654 265.451764 
L 221.294865 245.787171 
L 222.484076 283.135213 
L 223.673287 252.757538 
L 224.862498 265.995198 
L 226.051708 280.525501 
L 227.240919 278.429805 
L 228.43013 284.76097 
L 229.619341 275.875379 
L 230.808551 285.899656 
L 231.997762 278.331414 
L 233.186973 248.25736 
L 234.376184 252.976938 
L 235.565395 243.922515 
L 236.754605 253.988469 
L 237.943816 232.267371 
L 239.133027 219.49602 
L 240.322238 221.426871 
L 241.511449 210.11486 
L 242.700659 238.678616 
L 243.88987 220.987819 
L 245.079081 234.914312 
L 246.268292 237.2881 
L 247.457502 232.274972 
L 248.646713 242.084248 
L 249.835924 236.755295 
L 251.025135 254.563987 
L 252.214346 255.80246 
L 253.403556 259.319058 
L 256.971189 246.382017 
L 258.1604 241.511157 
L 259.34961 248.31681 
L 260.538821 249.708908 
L 261.728032 242.320357 
L 262.917243 244.187961 
L 264.106454 239.040209 
L 265.295664 255.525453 
L 266.484875 266.473112 
L 267.674086 252.62479 
L 268.863297 268.291848 
L 270.052507 249.369306 
L 271.241718 276.630625 
L 272.430929 275.266032 
L 273.62014 267.190085 
L 274.809351 275.670614 
L 275.998561 270.43207 
L 277.187772 258.027564 
L 278.376983 279.180817 
L 279.566194 284.471343 
L 280.755405 268.316841 
L 281.944615 271.087868 
L 283.133826 254.061409 
L 284.323037 239.550595 
L 285.512248 237.054723 
L 286.701459 244.071233 
L 287.890669 209.351686 
L 289.07988 215.055277 
L 290.269091 202.513488 
L 291.458302 194.688 
L 292.647512 214.316832 
L 293.836723 220.550649 
L 295.025934 246.149197 
L 296.215145 221.928614 
L 297.404356 239.091819 
L 298.593566 237.339161 
L 299.782777 239.331243 
L 300.971988 258.487093 
L 302.161199 230.188775 
L 303.35041 251.954232 
L 304.53962 245.390464 
L 305.728831 248.336335 
L 306.918042 275.774804 
L 308.107253 261.001274 
L 309.296464 291.179888 
L 310.485674 277.048762 
L 311.674885 281.375352 
L 312.864096 281.525475 
L 314.053307 292.491233 
L 315.242517 302.208 
L 316.431728 279.415485 
L 317.620939 276.802655 
L 318.81015 273.801094 
L 319.999361 268.855166 
L 321.188571 273.340207 
L 322.377782 268.877411 
L 323.566993 259.603591 
L 324.756204 263.172848 
L 325.945415 256.48754 
L 327.134625 255.515629 
L 328.323836 245.55337 
L 329.513047 239.532238 
L 330.702258 225.674617 
L 331.891469 238.000244 
L 333.080679 228.824348 
L 334.26989 230.875737 
L 335.459101 226.103704 
L 336.648312 211.884785 
L 337.837522 210.360997 
L 339.026733 235.500766 
L 340.215944 226.903367 
L 341.405155 213.947095 
L 342.594366 227.336266 
L 343.783576 225.988767 
L 344.972787 219.530321 
L 346.161998 233.582619 
L 347.351209 256.069489 
L 348.54042 227.004319 
L 349.72963 238.559789 
L 350.918841 238.764907 
L 352.108052 248.063733 
L 353.297263 234.222268 
L 354.486474 247.074336 
L 355.675684 264.111976 
L 356.864895 259.355919 
L 358.054106 285.086502 
L 359.243317 280.506973 
L 360.432527 262.657309 
L 361.621738 275.633104 
L 362.810949 284.257793 
L 364.00016 276.060852 
L 365.189371 295.513004 
L 366.378581 267.428019 
L 367.567792 260.362914 
L 368.757003 267.347806 
L 369.946214 270.694735 
L 371.135425 278.122379 
L 372.324635 257.606503 
L 373.513846 263.34085 
L 374.703057 269.976511 
L 375.892268 257.405711 
L 377.081479 242.505047 
L 378.270689 249.094562 
L 379.4599 244.54593 
L 380.649111 236.933226 
L 381.838322 226.475367 
L 383.027532 223.112022 
L 384.216743 202.726531 
L 385.405954 222.053306 
L 386.595165 217.245655 
L 387.784376 220.785276 
L 388.973586 217.579182 
L 390.162797 217.62207 
L 391.352008 224.994744 
L 392.541219 228.210949 
L 393.73043 230.658856 
L 394.91964 239.506382 
L 396.108851 226.573507 
L 397.298062 237.442141 
L 398.487273 240.773765 
L 398.487273 240.773765 
" style="fill:none;stroke:#0000ff;stroke-linecap:square;stroke-width:2;"/>
   </g>
   <g id="patch_8">
    <path d="M 57.6 307.584 
L 57.6 189.312 
" style="fill:none;stroke:#000000;stroke-linecap:square;stroke-linejoin:miter;stroke-width:0.8;"/>
   </g>
   <g id="patch_9">
    <path d="M 414.72 307.584 
L 414.72 189.312 
" style="fill:none;stroke:#000000;stroke-linecap:square;stroke-linejoin:miter;stroke-width:0.8;"/>
   </g>
   <g id="patch_10">
    <path d="M 57.6 307.584 
L 414.72 307.584 
" style="fill:none;stroke:#000000;stroke-linecap:square;stroke-linejoin:miter;stroke-width:0.8;"/>
   </g>
   <g id="patch_11">
    <path d="M 57.6 189.312 
L 414.72 189.312 
" style="fill:none;stroke:#000000;stroke-linecap:square;stroke-linejoin:miter;stroke-width:0.8;"/>
   </g>
   <g id="text_26">
    <!-- BOLD signal -->
    <defs>
     <path d="M 19.671875 34.8125 
L 19.671875 8.109375 
L 35.5 8.109375 
Q 43.453125 8.109375 47.28125 11.40625 
Q 51.125 14.703125 51.125 21.484375 
Q 51.125 28.328125 47.28125 31.5625 
Q 43.453125 34.8125 35.5 34.8125 
z
M 19.671875 64.796875 
L 19.671875 42.828125 
L 34.28125 42.828125 
Q 41.5 42.828125 45.03125 45.53125 
Q 48.578125 48.25 48.578125 53.8125 
Q 48.578125 59.328125 45.03125 62.0625 
Q 41.5 64.796875 34.28125 64.796875 
z
M 9.8125 72.90625 
L 35.015625 72.90625 
Q 46.296875 72.90625 52.390625 68.21875 
Q 58.5 63.53125 58.5 54.890625 
Q 58.5 48.1875 55.375 44.234375 
Q 52.25 40.28125 46.1875 39.3125 
Q 53.46875 37.75 57.5 32.78125 
Q 61.53125 27.828125 61.53125 20.40625 
Q 61.53125 10.640625 54.890625 5.3125 
Q 48.25 0 35.984375 0 
L 9.8125 0 
z
" id="DejaVuSans-42"/>
     <path d="M 39.40625 66.21875 
Q 28.65625 66.21875 22.328125 58.203125 
Q 16.015625 50.203125 16.015625 36.375 
Q 16.015625 22.609375 22.328125 14.59375 
Q 28.65625 6.59375 39.40625 6.59375 
Q 50.140625 6.59375 56.421875 14.59375 
Q 62.703125 22.609375 62.703125 36.375 
Q 62.703125 50.203125 56.421875 58.203125 
Q 50.140625 66.21875 39.40625 66.21875 
z
M 39.40625 74.21875 
Q 54.734375 74.21875 63.90625 63.9375 
Q 73.09375 53.65625 73.09375 36.375 
Q 73.09375 19.140625 63.90625 8.859375 
Q 54.734375 -1.421875 39.40625 -1.421875 
Q 24.03125 -1.421875 14.8125 8.828125 
Q 5.609375 19.09375 5.609375 36.375 
Q 5.609375 53.65625 14.8125 63.9375 
Q 24.03125 74.21875 39.40625 74.21875 
z
" id="DejaVuSans-4f"/>
     <path d="M 9.8125 72.90625 
L 19.671875 72.90625 
L 19.671875 8.296875 
L 55.171875 8.296875 
L 55.171875 0 
L 9.8125 0 
z
" id="DejaVuSans-4c"/>
     <path d="M 19.671875 64.796875 
L 19.671875 8.109375 
L 31.59375 8.109375 
Q 46.6875 8.109375 53.6875 14.9375 
Q 60.6875 21.78125 60.6875 36.53125 
Q 60.6875 51.171875 53.6875 57.984375 
Q 46.6875 64.796875 31.59375 64.796875 
z
M 9.8125 72.90625 
L 30.078125 72.90625 
Q 51.265625 72.90625 61.171875 64.09375 
Q 71.09375 55.28125 71.09375 36.53125 
Q 71.09375 17.671875 61.125 8.828125 
Q 51.171875 0 30.078125 0 
L 9.8125 0 
z
" id="DejaVuSans-44"/>
     <path d="M 44.28125 53.078125 
L 44.28125 44.578125 
Q 40.484375 46.53125 36.375 47.5 
Q 32.28125 48.484375 27.875 48.484375 
Q 21.1875 48.484375 17.84375 46.4375 
Q 14.5 44.390625 14.5 40.28125 
Q 14.5 37.15625 16.890625 35.375 
Q 19.28125 33.59375 26.515625 31.984375 
L 29.59375 31.296875 
Q 39.15625 29.25 43.1875 25.515625 
Q 47.21875 21.78125 47.21875 15.09375 
Q 47.21875 7.46875 41.1875 3.015625 
Q 35.15625 -1.421875 24.609375 -1.421875 
Q 20.21875 -1.421875 15.453125 -0.5625 
Q 10.6875 0.296875 5.421875 2 
L 5.421875 11.28125 
Q 10.40625 8.6875 15.234375 7.390625 
Q 20.0625 6.109375 24.8125 6.109375 
Q 31.15625 6.109375 34.5625 8.28125 
Q 37.984375 10.453125 37.984375 14.40625 
Q 37.984375 18.0625 35.515625 20.015625 
Q 33.0625 21.96875 24.703125 23.78125 
L 21.578125 24.515625 
Q 13.234375 26.265625 9.515625 29.90625 
Q 5.8125 33.546875 5.8125 39.890625 
Q 5.8125 47.609375 11.28125 51.796875 
Q 16.75 56 26.8125 56 
Q 31.78125 56 36.171875 55.265625 
Q 40.578125 54.546875 44.28125 53.078125 
z
" id="DejaVuSans-73"/>
     <path d="M 45.40625 27.984375 
Q 45.40625 37.75 41.375 43.109375 
Q 37.359375 48.484375 30.078125 48.484375 
Q 22.859375 48.484375 18.828125 43.109375 
Q 14.796875 37.75 14.796875 27.984375 
Q 14.796875 18.265625 18.828125 12.890625 
Q 22.859375 7.515625 30.078125 7.515625 
Q 37.359375 7.515625 41.375 12.890625 
Q 45.40625 18.265625 45.40625 27.984375 
z
M 54.390625 6.78125 
Q 54.390625 -7.171875 48.1875 -13.984375 
Q 42 -20.796875 29.203125 -20.796875 
Q 24.46875 -20.796875 20.265625 -20.09375 
Q 16.0625 -19.390625 12.109375 -17.921875 
L 12.109375 -9.1875 
Q 16.0625 -11.328125 19.921875 -12.34375 
Q 23.78125 -13.375 27.78125 -13.375 
Q 36.625 -13.375 41.015625 -8.765625 
Q 45.40625 -4.15625 45.40625 5.171875 
L 45.40625 9.625 
Q 42.625 4.78125 38.28125 2.390625 
Q 33.9375 0 27.875 0 
Q 17.828125 0 11.671875 7.65625 
Q 5.515625 15.328125 5.515625 27.984375 
Q 5.515625 40.671875 11.671875 48.328125 
Q 17.828125 56 27.875 56 
Q 33.9375 56 38.28125 53.609375 
Q 42.625 51.21875 45.40625 46.390625 
L 45.40625 54.6875 
L 54.390625 54.6875 
z
" id="DejaVuSans-67"/>
     <path d="M 54.890625 33.015625 
L 54.890625 0 
L 45.90625 0 
L 45.90625 32.71875 
Q 45.90625 40.484375 42.875 44.328125 
Q 39.84375 48.1875 33.796875 48.1875 
Q 26.515625 48.1875 22.3125 43.546875 
Q 18.109375 38.921875 18.109375 30.90625 
L 18.109375 0 
L 9.078125 0 
L 9.078125 54.6875 
L 18.109375 54.6875 
L 18.109375 46.1875 
Q 21.34375 51.125 25.703125 53.5625 
Q 30.078125 56 35.796875 56 
Q 45.21875 56 50.046875 50.171875 
Q 54.890625 44.34375 54.890625 33.015625 
z
" id="DejaVuSans-6e"/>
     <path d="M 34.28125 27.484375 
Q 23.390625 27.484375 19.1875 25 
Q 14.984375 22.515625 14.984375 16.5 
Q 14.984375 11.71875 18.140625 8.90625 
Q 21.296875 6.109375 26.703125 6.109375 
Q 34.1875 6.109375 38.703125 11.40625 
Q 43.21875 16.703125 43.21875 25.484375 
L 43.21875 27.484375 
z
M 52.203125 31.203125 
L 52.203125 0 
L 43.21875 0 
L 43.21875 8.296875 
Q 40.140625 3.328125 35.546875 0.953125 
Q 30.953125 -1.421875 24.3125 -1.421875 
Q 15.921875 -1.421875 10.953125 3.296875 
Q 6 8.015625 6 15.921875 
Q 6 25.140625 12.171875 29.828125 
Q 18.359375 34.515625 30.609375 34.515625 
L 43.21875 34.515625 
L 43.21875 35.40625 
Q 43.21875 41.609375 39.140625 45 
Q 35.0625 48.390625 27.6875 48.390625 
Q 23 48.390625 18.546875 47.265625 
Q 14.109375 46.140625 10.015625 43.890625 
L 10.015625 52.203125 
Q 14.9375 54.109375 19.578125 55.046875 
Q 24.21875 56 28.609375 56 
Q 40.484375 56 46.34375 49.84375 
Q 52.203125 43.703125 52.203125 31.203125 
z
" id="DejaVuSans-61"/>
     <path d="M 9.421875 75.984375 
L 18.40625 75.984375 
L 18.40625 0 
L 9.421875 0 
z
" id="DejaVuSans-6c"/>
    </defs>
    <g transform="translate(199.703438 183.312)scale(0.12 -0.12)">
     <use xlink:href="#DejaVuSans-42"/>
     <use x="68.587891" xlink:href="#DejaVuSans-4f"/>
     <use x="147.298828" xlink:href="#DejaVuSans-4c"/>
     <use x="203.011719" xlink:href="#DejaVuSans-44"/>
     <use x="280.013672" xlink:href="#DejaVuSans-20"/>
     <use x="311.800781" xlink:href="#DejaVuSans-73"/>
     <use x="363.900391" xlink:href="#DejaVuSans-69"/>
     <use x="391.683594" xlink:href="#DejaVuSans-67"/>
     <use x="455.160156" xlink:href="#DejaVuSans-6e"/>
     <use x="518.539062" xlink:href="#DejaVuSans-61"/>
     <use x="579.818359" xlink:href="#DejaVuSans-6c"/>
    </g>
   </g>
  </g>
 </g>
 <defs>
  <clipPath id="p4669d960ba">
   <rect height="118.272" width="357.12" x="57.6" y="41.472"/>
  </clipPath>
  <clipPath id="p65a2ca8f56">
   <rect height="118.272" width="357.12" x="57.6" y="189.312"/>
  </clipPath>
 </defs>
</svg>
