<?xml version="1.0" encoding="utf-8" standalone="no"?>
<!DOCTYPE svg PUBLIC "-//W3C//DTD SVG 1.1//EN"
  "http://www.w3.org/Graphics/SVG/1.1/DTD/svg11.dtd">
<!-- Created with matplotlib (http://matplotlib.org/) -->
<svg height="345.6pt" version="1.1" viewBox="0 0 460.8 345.6" width="460.8pt" xmlns="http://www.w3.org/2000/svg" xmlns:xlink="http://www.w3.org/1999/xlink">
 <defs>
  <style type="text/css">
*{stroke-linecap:butt;stroke-linejoin:round;}
  </style>
 </defs>
 <g id="figure_1">
  <g id="patch_1">
   <path d="M 0 345.6 
L 460.8 345.6 
L 460.8 0 
L 0 0 
z
" style="fill:#ffffff;"/>
  </g>
  <g id="axes_1">
   <g id="patch_2">
    <path d="M 57.6 159.744 
L 414.72 159.744 
L 414.72 41.472 
L 57.6 41.472 
z
" style="fill:#ffffff;"/>
   </g>
   <g id="matplotlib.axis_1">
    <g id="xtick_1">
     <g id="line2d_1">
      <defs>
       <path d="M 0 0 
L 0 3.5 
" id="m5eb504d7bf" style="stroke:#000000;stroke-width:0.8;"/>
      </defs>
      <g>
       <use style="stroke:#000000;stroke-width:0.8;" x="57.183776" xlink:href="#m5eb504d7bf" y="159.744"/>
      </g>
     </g>
     <g id="text_1">
      <!-- 0 -->
      <defs>
       <path d="M 31.78125 66.40625 
Q 24.171875 66.40625 20.328125 58.90625 
Q 16.5 51.421875 16.5 36.375 
Q 16.5 21.390625 20.328125 13.890625 
Q 24.171875 6.390625 31.78125 6.390625 
Q 39.453125 6.390625 43.28125 13.890625 
Q 47.125 21.390625 47.125 36.375 
Q 47.125 51.421875 43.28125 58.90625 
Q 39.453125 66.40625 31.78125 66.40625 
z
M 31.78125 74.21875 
Q 44.046875 74.21875 50.515625 64.515625 
Q 56.984375 54.828125 56.984375 36.375 
Q 56.984375 17.96875 50.515625 8.265625 
Q 44.046875 -1.421875 31.78125 -1.421875 
Q 19.53125 -1.421875 13.0625 8.265625 
Q 6.59375 17.96875 6.59375 36.375 
Q 6.59375 54.828125 13.0625 64.515625 
Q 19.53125 74.21875 31.78125 74.21875 
z
" id="DejaVuSans-30"/>
      </defs>
      <g transform="translate(54.002526 174.342437)scale(0.1 -0.1)">
       <use xlink:href="#DejaVuSans-30"/>
      </g>
     </g>
    </g>
    <g id="xtick_2">
     <g id="line2d_2">
      <g>
       <use style="stroke:#000000;stroke-width:0.8;" x="98.475818" xlink:href="#m5eb504d7bf" y="159.744"/>
      </g>
     </g>
     <g id="text_2">
      <!-- 25 -->
      <defs>
       <path d="M 19.1875 8.296875 
L 53.609375 8.296875 
L 53.609375 0 
L 7.328125 0 
L 7.328125 8.296875 
Q 12.9375 14.109375 22.625 23.890625 
Q 32.328125 33.6875 34.8125 36.53125 
Q 39.546875 41.84375 41.421875 45.53125 
Q 43.3125 49.21875 43.3125 52.78125 
Q 43.3125 58.59375 39.234375 62.25 
Q 35.15625 65.921875 28.609375 65.921875 
Q 23.96875 65.921875 18.8125 64.3125 
Q 13.671875 62.703125 7.8125 59.421875 
L 7.8125 69.390625 
Q 13.765625 71.78125 18.9375 73 
Q 24.125 74.21875 28.421875 74.21875 
Q 39.75 74.21875 46.484375 68.546875 
Q 53.21875 62.890625 53.21875 53.421875 
Q 53.21875 48.921875 51.53125 44.890625 
Q 49.859375 40.875 45.40625 35.40625 
Q 44.1875 33.984375 37.640625 27.21875 
Q 31.109375 20.453125 19.1875 8.296875 
z
" id="DejaVuSans-32"/>
       <path d="M 10.796875 72.90625 
L 49.515625 72.90625 
L 49.515625 64.59375 
L 19.828125 64.59375 
L 19.828125 46.734375 
Q 21.96875 47.46875 24.109375 47.828125 
Q 26.265625 48.1875 28.421875 48.1875 
Q 40.625 48.1875 47.75 41.5 
Q 54.890625 34.8125 54.890625 23.390625 
Q 54.890625 11.625 47.5625 5.09375 
Q 40.234375 -1.421875 26.90625 -1.421875 
Q 22.3125 -1.421875 17.546875 -0.640625 
Q 12.796875 0.140625 7.71875 1.703125 
L 7.71875 11.625 
Q 12.109375 9.234375 16.796875 8.0625 
Q 21.484375 6.890625 26.703125 6.890625 
Q 35.15625 6.890625 40.078125 11.328125 
Q 45.015625 15.765625 45.015625 23.390625 
Q 45.015625 31 40.078125 35.4375 
Q 35.15625 39.890625 26.703125 39.890625 
Q 22.75 39.890625 18.8125 39.015625 
Q 14.890625 38.140625 10.796875 36.28125 
z
" id="DejaVuSans-35"/>
      </defs>
      <g transform="translate(92.113318 174.342437)scale(0.1 -0.1)">
       <use xlink:href="#DejaVuSans-32"/>
       <use x="63.623047" xlink:href="#DejaVuSans-35"/>
      </g>
     </g>
    </g>
    <g id="xtick_3">
     <g id="line2d_3">
      <g>
       <use style="stroke:#000000;stroke-width:0.8;" x="139.767859" xlink:href="#m5eb504d7bf" y="159.744"/>
      </g>
     </g>
     <g id="text_3">
      <!-- 50 -->
      <g transform="translate(133.405359 174.342437)scale(0.1 -0.1)">
       <use xlink:href="#DejaVuSans-35"/>
       <use x="63.623047" xlink:href="#DejaVuSans-30"/>
      </g>
     </g>
    </g>
    <g id="xtick_4">
     <g id="line2d_4">
      <g>
       <use style="stroke:#000000;stroke-width:0.8;" x="181.0599" xlink:href="#m5eb504d7bf" y="159.744"/>
      </g>
     </g>
     <g id="text_4">
      <!-- 75 -->
      <defs>
       <path d="M 8.203125 72.90625 
L 55.078125 72.90625 
L 55.078125 68.703125 
L 28.609375 0 
L 18.3125 0 
L 43.21875 64.59375 
L 8.203125 64.59375 
z
" id="DejaVuSans-37"/>
      </defs>
      <g transform="translate(174.6974 174.342437)scale(0.1 -0.1)">
       <use xlink:href="#DejaVuSans-37"/>
       <use x="63.623047" xlink:href="#DejaVuSans-35"/>
      </g>
     </g>
    </g>
    <g id="xtick_5">
     <g id="line2d_5">
      <g>
       <use style="stroke:#000000;stroke-width:0.8;" x="222.351941" xlink:href="#m5eb504d7bf" y="159.744"/>
      </g>
     </g>
     <g id="text_5">
      <!-- 100 -->
      <defs>
       <path d="M 12.40625 8.296875 
L 28.515625 8.296875 
L 28.515625 63.921875 
L 10.984375 60.40625 
L 10.984375 69.390625 
L 28.421875 72.90625 
L 38.28125 72.90625 
L 38.28125 8.296875 
L 54.390625 8.296875 
L 54.390625 0 
L 12.40625 0 
z
" id="DejaVuSans-31"/>
      </defs>
      <g transform="translate(212.808191 174.342437)scale(0.1 -0.1)">
       <use xlink:href="#DejaVuSans-31"/>
       <use x="63.623047" xlink:href="#DejaVuSans-30"/>
       <use x="127.246094" xlink:href="#DejaVuSans-30"/>
      </g>
     </g>
    </g>
    <g id="xtick_6">
     <g id="line2d_6">
      <g>
       <use style="stroke:#000000;stroke-width:0.8;" x="263.643983" xlink:href="#m5eb504d7bf" y="159.744"/>
      </g>
     </g>
     <g id="text_6">
      <!-- 125 -->
      <g transform="translate(254.100233 174.342437)scale(0.1 -0.1)">
       <use xlink:href="#DejaVuSans-31"/>
       <use x="63.623047" xlink:href="#DejaVuSans-32"/>
       <use x="127.246094" xlink:href="#DejaVuSans-35"/>
      </g>
     </g>
    </g>
    <g id="xtick_7">
     <g id="line2d_7">
      <g>
       <use style="stroke:#000000;stroke-width:0.8;" x="304.936024" xlink:href="#m5eb504d7bf" y="159.744"/>
      </g>
     </g>
     <g id="text_7">
      <!-- 150 -->
      <g transform="translate(295.392274 174.342437)scale(0.1 -0.1)">
       <use xlink:href="#DejaVuSans-31"/>
       <use x="63.623047" xlink:href="#DejaVuSans-35"/>
       <use x="127.246094" xlink:href="#DejaVuSans-30"/>
      </g>
     </g>
    </g>
    <g id="xtick_8">
     <g id="line2d_8">
      <g>
       <use style="stroke:#000000;stroke-width:0.8;" x="346.228065" xlink:href="#m5eb504d7bf" y="159.744"/>
      </g>
     </g>
     <g id="text_8">
      <!-- 175 -->
      <g transform="translate(336.684315 174.342437)scale(0.1 -0.1)">
       <use xlink:href="#DejaVuSans-31"/>
       <use x="63.623047" xlink:href="#DejaVuSans-37"/>
       <use x="127.246094" xlink:href="#DejaVuSans-35"/>
      </g>
     </g>
    </g>
    <g id="xtick_9">
     <g id="line2d_9">
      <g>
       <use style="stroke:#000000;stroke-width:0.8;" x="387.520107" xlink:href="#m5eb504d7bf" y="159.744"/>
      </g>
     </g>
     <g id="text_9">
      <!-- 200 -->
      <g transform="translate(377.976357 174.342437)scale(0.1 -0.1)">
       <use xlink:href="#DejaVuSans-32"/>
       <use x="63.623047" xlink:href="#DejaVuSans-30"/>
       <use x="127.246094" xlink:href="#DejaVuSans-30"/>
      </g>
     </g>
    </g>
   </g>
   <g id="matplotlib.axis_2">
    <g id="ytick_1">
     <g id="line2d_10">
      <defs>
       <path d="M 0 0 
L -3.5 0 
" id="m7738ee761e" style="stroke:#000000;stroke-width:0.8;"/>
      </defs>
      <g>
       <use style="stroke:#000000;stroke-width:0.8;" x="57.6" xlink:href="#m7738ee761e" y="135.660177"/>
      </g>
     </g>
     <g id="text_10">
      <!-- −4 -->
      <defs>
       <path d="M 10.59375 35.5 
L 73.1875 35.5 
L 73.1875 27.203125 
L 10.59375 27.203125 
z
" id="DejaVuSans-2212"/>
       <path d="M 37.796875 64.3125 
L 12.890625 25.390625 
L 37.796875 25.390625 
z
M 35.203125 72.90625 
L 47.609375 72.90625 
L 47.609375 25.390625 
L 58.015625 25.390625 
L 58.015625 17.1875 
L 47.609375 17.1875 
L 47.609375 0 
L 37.796875 0 
L 37.796875 17.1875 
L 4.890625 17.1875 
L 4.890625 26.703125 
z
" id="DejaVuSans-34"/>
      </defs>
      <g transform="translate(35.857813 139.459396)scale(0.1 -0.1)">
       <use xlink:href="#DejaVuSans-2212"/>
       <use x="83.789062" xlink:href="#DejaVuSans-34"/>
      </g>
     </g>
    </g>
    <g id="ytick_2">
     <g id="line2d_11">
      <g>
       <use style="stroke:#000000;stroke-width:0.8;" x="57.6" xlink:href="#m7738ee761e" y="108.348701"/>
      </g>
     </g>
     <g id="text_11">
      <!-- −2 -->
      <g transform="translate(35.857813 112.147919)scale(0.1 -0.1)">
       <use xlink:href="#DejaVuSans-2212"/>
       <use x="83.789062" xlink:href="#DejaVuSans-32"/>
      </g>
     </g>
    </g>
    <g id="ytick_3">
     <g id="line2d_12">
      <g>
       <use style="stroke:#000000;stroke-width:0.8;" x="57.6" xlink:href="#m7738ee761e" y="81.037224"/>
      </g>
     </g>
     <g id="text_12">
      <!-- 0 -->
      <g transform="translate(44.2375 84.836443)scale(0.1 -0.1)">
       <use xlink:href="#DejaVuSans-30"/>
      </g>
     </g>
    </g>
    <g id="ytick_4">
     <g id="line2d_13">
      <g>
       <use style="stroke:#000000;stroke-width:0.8;" x="57.6" xlink:href="#m7738ee761e" y="53.725748"/>
      </g>
     </g>
     <g id="text_13">
      <!-- 2 -->
      <g transform="translate(44.2375 57.524967)scale(0.1 -0.1)">
       <use xlink:href="#DejaVuSans-32"/>
      </g>
     </g>
    </g>
   </g>
   <g id="line2d_14">
    <path clip-path="url(#pa6079ce053)" d="M 73.832727 79.918166 
L 85.724835 85.302374 
L 99.995365 81.534575 
L 114.265894 70.320064 
L 128.536424 96.267114 
L 142.806953 86.858274 
L 157.077483 89.597356 
L 171.348012 78.00559 
L 185.618541 84.55943 
L 199.889071 67.185264 
L 214.1596 93.300798 
L 228.43013 86.505421 
L 242.700659 81.647522 
L 256.971189 84.196664 
L 271.241718 71.250671 
L 285.512248 98.178068 
L 299.782777 64.35117 
L 314.053307 100.829983 
L 328.323836 46.848 
L 342.594366 65.960588 
L 356.864895 135.007679 
L 371.135425 154.368 
L 385.405954 73.690953 
L 398.487273 67.487019 
L 398.487273 67.487019 
" style="fill:none;stroke:#7e1e9c;stroke-linecap:square;stroke-width:2;"/>
   </g>
   <g id="patch_3">
    <path d="M 57.6 159.744 
L 57.6 41.472 
" style="fill:none;stroke:#000000;stroke-linecap:square;stroke-linejoin:miter;stroke-width:0.8;"/>
   </g>
   <g id="patch_4">
    <path d="M 414.72 159.744 
L 414.72 41.472 
" style="fill:none;stroke:#000000;stroke-linecap:square;stroke-linejoin:miter;stroke-width:0.8;"/>
   </g>
   <g id="patch_5">
    <path d="M 57.6 159.744 
L 414.72 159.744 
" style="fill:none;stroke:#000000;stroke-linecap:square;stroke-linejoin:miter;stroke-width:0.8;"/>
   </g>
   <g id="patch_6">
    <path d="M 57.6 41.472 
L 414.72 41.472 
" style="fill:none;stroke:#000000;stroke-linecap:square;stroke-linejoin:miter;stroke-width:0.8;"/>
   </g>
  </g>
  <g id="axes_2">
   <g id="patch_7">
    <path d="M 57.6 307.584 
L 414.72 307.584 
L 414.72 189.312 
L 57.6 189.312 
z
" style="fill:#ffffff;"/>
   </g>
   <g id="matplotlib.axis_3">
    <g id="xtick_10">
     <g id="line2d_15">
      <g>
       <use style="stroke:#000000;stroke-width:0.8;" x="57.183776" xlink:href="#m5eb504d7bf" y="307.584"/>
      </g>
     </g>
     <g id="text_14">
      <!-- 0 -->
      <g transform="translate(54.002526 322.182437)scale(0.1 -0.1)">
       <use xlink:href="#DejaVuSans-30"/>
      </g>
     </g>
    </g>
    <g id="xtick_11">
     <g id="line2d_16">
      <g>
       <use style="stroke:#000000;stroke-width:0.8;" x="98.475818" xlink:href="#m5eb504d7bf" y="307.584"/>
      </g>
     </g>
     <g id="text_15">
      <!-- 25 -->
      <g transform="translate(92.113318 322.182437)scale(0.1 -0.1)">
       <use xlink:href="#DejaVuSans-32"/>
       <use x="63.623047" xlink:href="#DejaVuSans-35"/>
      </g>
     </g>
    </g>
    <g id="xtick_12">
     <g id="line2d_17">
      <g>
       <use style="stroke:#000000;stroke-width:0.8;" x="139.767859" xlink:href="#m5eb504d7bf" y="307.584"/>
      </g>
     </g>
     <g id="text_16">
      <!-- 50 -->
      <g transform="translate(133.405359 322.182437)scale(0.1 -0.1)">
       <use xlink:href="#DejaVuSans-35"/>
       <use x="63.623047" xlink:href="#DejaVuSans-30"/>
      </g>
     </g>
    </g>
    <g id="xtick_13">
     <g id="line2d_18">
      <g>
       <use style="stroke:#000000;stroke-width:0.8;" x="181.0599" xlink:href="#m5eb504d7bf" y="307.584"/>
      </g>
     </g>
     <g id="text_17">
      <!-- 75 -->
      <g transform="translate(174.6974 322.182437)scale(0.1 -0.1)">
       <use xlink:href="#DejaVuSans-37"/>
       <use x="63.623047" xlink:href="#DejaVuSans-35"/>
      </g>
     </g>
    </g>
    <g id="xtick_14">
     <g id="line2d_19">
      <g>
       <use style="stroke:#000000;stroke-width:0.8;" x="222.351941" xlink:href="#m5eb504d7bf" y="307.584"/>
      </g>
     </g>
     <g id="text_18">
      <!-- 100 -->
      <g transform="translate(212.808191 322.182437)scale(0.1 -0.1)">
       <use xlink:href="#DejaVuSans-31"/>
       <use x="63.623047" xlink:href="#DejaVuSans-30"/>
       <use x="127.246094" xlink:href="#DejaVuSans-30"/>
      </g>
     </g>
    </g>
    <g id="xtick_15">
     <g id="line2d_20">
      <g>
       <use style="stroke:#000000;stroke-width:0.8;" x="263.643983" xlink:href="#m5eb504d7bf" y="307.584"/>
      </g>
     </g>
     <g id="text_19">
      <!-- 125 -->
      <g transform="translate(254.100233 322.182437)scale(0.1 -0.1)">
       <use xlink:href="#DejaVuSans-31"/>
       <use x="63.623047" xlink:href="#DejaVuSans-32"/>
       <use x="127.246094" xlink:href="#DejaVuSans-35"/>
      </g>
     </g>
    </g>
    <g id="xtick_16">
     <g id="line2d_21">
      <g>
       <use style="stroke:#000000;stroke-width:0.8;" x="304.936024" xlink:href="#m5eb504d7bf" y="307.584"/>
      </g>
     </g>
     <g id="text_20">
      <!-- 150 -->
      <g transform="translate(295.392274 322.182437)scale(0.1 -0.1)">
       <use xlink:href="#DejaVuSans-31"/>
       <use x="63.623047" xlink:href="#DejaVuSans-35"/>
       <use x="127.246094" xlink:href="#DejaVuSans-30"/>
      </g>
     </g>
    </g>
    <g id="xtick_17">
     <g id="line2d_22">
      <g>
       <use style="stroke:#000000;stroke-width:0.8;" x="346.228065" xlink:href="#m5eb504d7bf" y="307.584"/>
      </g>
     </g>
     <g id="text_21">
      <!-- 175 -->
      <g transform="translate(336.684315 322.182437)scale(0.1 -0.1)">
       <use xlink:href="#DejaVuSans-31"/>
       <use x="63.623047" xlink:href="#DejaVuSans-37"/>
       <use x="127.246094" xlink:href="#DejaVuSans-35"/>
      </g>
     </g>
    </g>
    <g id="xtick_18">
     <g id="line2d_23">
      <g>
       <use style="stroke:#000000;stroke-width:0.8;" x="387.520107" xlink:href="#m5eb504d7bf" y="307.584"/>
      </g>
     </g>
     <g id="text_22">
      <!-- 200 -->
      <g transform="translate(377.976357 322.182437)scale(0.1 -0.1)">
       <use xlink:href="#DejaVuSans-32"/>
       <use x="63.623047" xlink:href="#DejaVuSans-30"/>
       <use x="127.246094" xlink:href="#DejaVuSans-30"/>
      </g>
     </g>
    </g>
    <g id="text_23">
     <!-- Time (Sec) -->
     <defs>
      <path d="M -0.296875 72.90625 
L 61.375 72.90625 
L 61.375 64.59375 
L 35.5 64.59375 
L 35.5 0 
L 25.59375 0 
L 25.59375 64.59375 
L -0.296875 64.59375 
z
" id="DejaVuSans-54"/>
      <path d="M 9.421875 54.6875 
L 18.40625 54.6875 
L 18.40625 0 
L 9.421875 0 
z
M 9.421875 75.984375 
L 18.40625 75.984375 
L 18.40625 64.59375 
L 9.421875 64.59375 
z
" id="DejaVuSans-69"/>
      <path d="M 52 44.1875 
Q 55.375 50.25 60.0625 53.125 
Q 64.75 56 71.09375 56 
Q 79.640625 56 84.28125 50.015625 
Q 88.921875 44.046875 88.921875 33.015625 
L 88.921875 0 
L 79.890625 0 
L 79.890625 32.71875 
Q 79.890625 40.578125 77.09375 44.375 
Q 74.3125 48.1875 68.609375 48.1875 
Q 61.625 48.1875 57.5625 43.546875 
Q 53.515625 38.921875 53.515625 30.90625 
L 53.515625 0 
L 44.484375 0 
L 44.484375 32.71875 
Q 44.484375 40.625 41.703125 44.40625 
Q 38.921875 48.1875 33.109375 48.1875 
Q 26.21875 48.1875 22.15625 43.53125 
Q 18.109375 38.875 18.109375 30.90625 
L 18.109375 0 
L 9.078125 0 
L 9.078125 54.6875 
L 18.109375 54.6875 
L 18.109375 46.1875 
Q 21.1875 51.21875 25.484375 53.609375 
Q 29.78125 56 35.6875 56 
Q 41.65625 56 45.828125 52.96875 
Q 50 49.953125 52 44.1875 
z
" id="DejaVuSans-6d"/>
      <path d="M 56.203125 29.59375 
L 56.203125 25.203125 
L 14.890625 25.203125 
Q 15.484375 15.921875 20.484375 11.0625 
Q 25.484375 6.203125 34.421875 6.203125 
Q 39.59375 6.203125 44.453125 7.46875 
Q 49.3125 8.734375 54.109375 11.28125 
L 54.109375 2.78125 
Q 49.265625 0.734375 44.1875 -0.34375 
Q 39.109375 -1.421875 33.890625 -1.421875 
Q 20.796875 -1.421875 13.15625 6.1875 
Q 5.515625 13.8125 5.515625 26.8125 
Q 5.515625 40.234375 12.765625 48.109375 
Q 20.015625 56 32.328125 56 
Q 43.359375 56 49.78125 48.890625 
Q 56.203125 41.796875 56.203125 29.59375 
z
M 47.21875 32.234375 
Q 47.125 39.59375 43.09375 43.984375 
Q 39.0625 48.390625 32.421875 48.390625 
Q 24.90625 48.390625 20.390625 44.140625 
Q 15.875 39.890625 15.1875 32.171875 
z
" id="DejaVuSans-65"/>
      <path id="DejaVuSans-20"/>
      <path d="M 31 75.875 
Q 24.46875 64.65625 21.28125 53.65625 
Q 18.109375 42.671875 18.109375 31.390625 
Q 18.109375 20.125 21.3125 9.0625 
Q 24.515625 -2 31 -13.1875 
L 23.1875 -13.1875 
Q 15.875 -1.703125 12.234375 9.375 
Q 8.59375 20.453125 8.59375 31.390625 
Q 8.59375 42.28125 12.203125 53.3125 
Q 15.828125 64.359375 23.1875 75.875 
z
" id="DejaVuSans-28"/>
      <path d="M 53.515625 70.515625 
L 53.515625 60.890625 
Q 47.90625 63.578125 42.921875 64.890625 
Q 37.9375 66.21875 33.296875 66.21875 
Q 25.25 66.21875 20.875 63.09375 
Q 16.5 59.96875 16.5 54.203125 
Q 16.5 49.359375 19.40625 46.890625 
Q 22.3125 44.4375 30.421875 42.921875 
L 36.375 41.703125 
Q 47.40625 39.59375 52.65625 34.296875 
Q 57.90625 29 57.90625 20.125 
Q 57.90625 9.515625 50.796875 4.046875 
Q 43.703125 -1.421875 29.984375 -1.421875 
Q 24.8125 -1.421875 18.96875 -0.25 
Q 13.140625 0.921875 6.890625 3.21875 
L 6.890625 13.375 
Q 12.890625 10.015625 18.65625 8.296875 
Q 24.421875 6.59375 29.984375 6.59375 
Q 38.421875 6.59375 43.015625 9.90625 
Q 47.609375 13.234375 47.609375 19.390625 
Q 47.609375 24.75 44.3125 27.78125 
Q 41.015625 30.8125 33.5 32.328125 
L 27.484375 33.5 
Q 16.453125 35.6875 11.515625 40.375 
Q 6.59375 45.0625 6.59375 53.421875 
Q 6.59375 63.09375 13.40625 68.65625 
Q 20.21875 74.21875 32.171875 74.21875 
Q 37.3125 74.21875 42.625 73.28125 
Q 47.953125 72.359375 53.515625 70.515625 
z
" id="DejaVuSans-53"/>
      <path d="M 48.78125 52.59375 
L 48.78125 44.1875 
Q 44.96875 46.296875 41.140625 47.34375 
Q 37.3125 48.390625 33.40625 48.390625 
Q 24.65625 48.390625 19.8125 42.84375 
Q 14.984375 37.3125 14.984375 27.296875 
Q 14.984375 17.28125 19.8125 11.734375 
Q 24.65625 6.203125 33.40625 6.203125 
Q 37.3125 6.203125 41.140625 7.25 
Q 44.96875 8.296875 48.78125 10.40625 
L 48.78125 2.09375 
Q 45.015625 0.34375 40.984375 -0.53125 
Q 36.96875 -1.421875 32.421875 -1.421875 
Q 20.0625 -1.421875 12.78125 6.34375 
Q 5.515625 14.109375 5.515625 27.296875 
Q 5.515625 40.671875 12.859375 48.328125 
Q 20.21875 56 33.015625 56 
Q 37.15625 56 41.109375 55.140625 
Q 45.0625 54.296875 48.78125 52.59375 
z
" id="DejaVuSans-63"/>
      <path d="M 8.015625 75.875 
L 15.828125 75.875 
Q 23.140625 64.359375 26.78125 53.3125 
Q 30.421875 42.28125 30.421875 31.390625 
Q 30.421875 20.453125 26.78125 9.375 
Q 23.140625 -1.703125 15.828125 -13.1875 
L 8.015625 -13.1875 
Q 14.5 -2 17.703125 9.0625 
Q 20.90625 20.125 20.90625 31.390625 
Q 20.90625 42.671875 17.703125 53.65625 
Q 14.5 64.65625 8.015625 75.875 
z
" id="DejaVuSans-29"/>
     </defs>
     <g transform="translate(209.281875 335.860562)scale(0.1 -0.1)">
      <use xlink:href="#DejaVuSans-54"/>
      <use x="61.037109" xlink:href="#DejaVuSans-69"/>
      <use x="88.820312" xlink:href="#DejaVuSans-6d"/>
      <use x="186.232422" xlink:href="#DejaVuSans-65"/>
      <use x="247.755859" xlink:href="#DejaVuSans-20"/>
      <use x="279.542969" xlink:href="#DejaVuSans-28"/>
      <use x="318.556641" xlink:href="#DejaVuSans-53"/>
      <use x="382.033203" xlink:href="#DejaVuSans-65"/>
      <use x="443.556641" xlink:href="#DejaVuSans-63"/>
      <use x="498.537109" xlink:href="#DejaVuSans-29"/>
     </g>
    </g>
   </g>
   <g id="matplotlib.axis_4">
    <g id="ytick_5">
     <g id="line2d_24">
      <g>
       <use style="stroke:#000000;stroke-width:0.8;" x="57.6" xlink:href="#m7738ee761e" y="288.422146"/>
      </g>
     </g>
     <g id="text_24">
      <!-- −20 -->
      <g transform="translate(29.495313 292.221365)scale(0.1 -0.1)">
       <use xlink:href="#DejaVuSans-2212"/>
       <use x="83.789062" xlink:href="#DejaVuSans-32"/>
       <use x="147.412109" xlink:href="#DejaVuSans-30"/>
      </g>
     </g>
    </g>
    <g id="ytick_6">
     <g id="line2d_25">
      <g>
       <use style="stroke:#000000;stroke-width:0.8;" x="57.6" xlink:href="#m7738ee761e" y="244.206723"/>
      </g>
     </g>
     <g id="text_25">
      <!-- 0 -->
      <g transform="translate(44.2375 248.005942)scale(0.1 -0.1)">
       <use xlink:href="#DejaVuSans-30"/>
      </g>
     </g>
    </g>
    <g id="ytick_7">
     <g id="line2d_26">
      <g>
       <use style="stroke:#000000;stroke-width:0.8;" x="57.6" xlink:href="#m7738ee761e" y="199.9913"/>
      </g>
     </g>
     <g id="text_26">
      <!-- 20 -->
      <g transform="translate(37.875 203.790519)scale(0.1 -0.1)">
       <use xlink:href="#DejaVuSans-32"/>
       <use x="63.623047" xlink:href="#DejaVuSans-30"/>
      </g>
     </g>
    </g>
   </g>
   <g id="line2d_27">
    <path clip-path="url(#p03da4bc29c)" d="M 73.832727 243.764564 
L 75.021938 243.884784 
L 76.211149 244.206618 
L 79.778781 245.504216 
L 80.967992 245.754289 
L 82.157203 245.825354 
L 83.346414 245.697133 
L 84.535624 245.357532 
L 85.724835 244.80204 
L 86.914046 244.037937 
L 89.292468 242.013194 
L 90.481678 240.94042 
L 91.670889 240.073699 
L 92.8601 239.640462 
L 94.049311 239.825345 
L 95.238521 240.723006 
L 96.427732 242.308163 
L 97.616943 244.41378 
L 99.995365 248.989014 
L 101.184575 250.828407 
L 102.373786 252.072687 
L 103.562997 252.647103 
L 104.752208 252.599867 
L 105.941419 252.075313 
L 110.698262 248.826365 
L 113.076683 247.889782 
L 115.455105 247.026056 
L 116.644316 246.408158 
L 119.022737 244.708887 
L 121.401159 242.957483 
L 122.59037 242.371016 
L 123.77958 242.093329 
L 124.968791 242.1341 
L 128.536424 243.049857 
L 129.725634 243.042867 
L 130.914845 242.655731 
L 132.104056 241.877306 
L 134.482478 239.774521 
L 135.671688 239.010518 
L 136.860899 238.80992 
L 138.05011 239.338223 
L 139.239321 240.619517 
L 140.428531 242.516484 
L 142.806953 247.007187 
L 143.996164 248.966639 
L 145.185375 250.421629 
L 146.374585 251.271052 
L 147.563796 251.517583 
L 148.753007 251.241033 
L 149.942218 250.564552 
L 152.320639 248.54257 
L 154.699061 246.367968 
L 155.888272 245.440263 
L 157.077483 244.703567 
L 158.266693 244.192829 
L 159.455904 243.915125 
L 160.645115 243.843989 
L 164.212747 243.999997 
L 165.401958 243.799165 
L 166.591169 243.338465 
L 167.78038 242.626746 
L 170.158801 241.016942 
L 171.348012 240.599872 
L 172.537223 240.75228 
L 173.726434 241.602031 
L 174.915644 243.13209 
L 177.294066 247.203731 
L 178.483277 248.889391 
L 179.672488 249.782224 
L 180.861698 249.631495 
L 182.050909 248.40637 
L 183.24012 246.349536 
L 185.618541 241.783402 
L 186.807752 240.38955 
L 187.996963 240.10984 
L 189.186174 241.021529 
L 190.375385 242.858715 
L 191.564595 245.046319 
L 192.753806 246.872113 
L 193.943017 247.696131 
L 195.132228 247.099962 
L 196.321439 244.974873 
L 197.510649 241.571543 
L 199.889071 233.298807 
L 201.078282 229.768409 
L 202.267493 227.312581 
L 203.456703 226.18137 
L 204.645914 226.493894 
L 205.835125 228.308879 
L 207.024336 231.632534 
L 208.213546 236.393387 
L 209.402757 242.425469 
L 211.781179 257.07501 
L 214.1596 272.051578 
L 215.348811 278.46572 
L 216.538022 283.757919 
L 217.727233 287.779801 
L 218.916444 290.362454 
L 220.105654 291.243867 
L 221.294865 290.138886 
L 222.484076 286.868247 
L 223.673287 281.450373 
L 224.862498 274.152953 
L 227.240919 256.338283 
L 228.43013 247.429153 
L 229.619341 239.512719 
L 230.808551 233.0667 
L 231.997762 228.318339 
L 233.186973 225.31929 
L 234.376184 224.02404 
L 235.565395 224.321537 
L 236.754605 226.037746 
L 237.943816 228.939449 
L 239.133027 232.746591 
L 241.511449 241.828729 
L 243.88987 250.938814 
L 245.079081 254.989622 
L 246.268292 258.552757 
L 247.457502 261.523694 
L 248.646713 263.766469 
L 249.835924 265.142993 
L 251.025135 265.565106 
L 252.214346 265.032565 
L 253.403556 263.668265 
L 256.971189 258.101884 
L 258.1604 257.245811 
L 259.34961 257.427744 
L 260.538821 258.695149 
L 261.728032 260.864752 
L 265.295664 268.71675 
L 266.484875 270.451635 
L 267.674086 271.330704 
L 268.863297 271.182913 
L 270.052507 269.803614 
L 271.241718 266.994729 
L 272.430929 262.645263 
L 273.62014 256.789812 
L 274.809351 249.663471 
L 278.376983 226.708197 
L 279.566194 221.034456 
L 280.755405 217.241601 
L 281.944615 215.451626 
L 283.133826 215.545961 
L 284.323037 217.250528 
L 285.512248 220.213837 
L 286.701459 224.066428 
L 289.07988 233.121716 
L 296.215145 261.266196 
L 297.404356 265.755184 
L 298.593566 269.808558 
L 299.782777 273.114001 
L 300.971988 275.414534 
L 302.161199 276.577562 
L 303.35041 276.606389 
L 304.53962 275.60465 
L 305.728831 273.730308 
L 306.918042 271.16366 
L 308.107253 268.089254 
L 310.485674 261.081112 
L 312.864096 253.448781 
L 315.242517 244.831027 
L 317.620939 234.847656 
L 319.999361 224.64009 
L 321.188571 220.362354 
L 322.377782 217.127807 
L 323.566993 215.136888 
L 324.756204 214.4165 
L 325.945415 214.847624 
L 327.134625 216.216127 
L 328.323836 218.26537 
L 330.702258 223.412891 
L 336.648312 237.193103 
L 339.026733 243.835493 
L 341.405155 251.33163 
L 346.161998 266.615144 
L 347.351209 270.028819 
L 348.54042 273.009765 
L 349.72963 275.371173 
L 350.918841 276.97191 
L 352.108052 277.75483 
L 353.297263 277.734489 
L 354.486474 276.940268 
L 355.675684 275.377528 
L 356.864895 273.03941 
L 358.054106 269.942825 
L 359.243317 266.154348 
L 361.621738 257.030791 
L 366.378581 237.458202 
L 368.757003 229.015996 
L 371.135425 221.801526 
L 373.513846 215.578389 
L 374.703057 212.790774 
L 375.892268 210.374078 
L 377.081479 208.642915 
L 378.270689 207.978461 
L 379.4599 208.689875 
L 380.649111 210.917749 
L 381.838322 214.600679 
L 383.027532 219.488776 
L 385.405954 231.30478 
L 387.784376 243.208914 
L 388.973586 248.501561 
L 390.162797 253.168128 
L 391.352008 257.147549 
L 392.541219 260.426231 
L 393.73043 263.035448 
L 394.91964 265.046372 
L 396.108851 266.559822 
L 397.298062 267.693199 
L 398.487273 268.566688 
L 398.487273 268.566688 
" style="fill:none;stroke:#7e1e9c;stroke-linecap:square;stroke-width:2;"/>
   </g>
   <g id="line2d_28">
    <path clip-path="url(#p03da4bc29c)" d="M 73.832727 242.012753 
L 76.211149 250.161233 
L 77.40036 237.820071 
L 78.58957 244.674036 
L 79.778781 250.423072 
L 80.967992 248.61777 
L 82.157203 250.877771 
L 83.346414 239.670918 
L 84.535624 235.455164 
L 85.724835 249.74906 
L 86.914046 241.535092 
L 88.103257 235.27139 
L 89.292468 248.034271 
L 90.481678 245.760384 
L 91.670889 239.627 
L 92.8601 250.416657 
L 94.049311 234.247138 
L 95.238521 239.377131 
L 96.427732 248.589824 
L 97.616943 237.014814 
L 98.806154 249.342506 
L 99.995365 229.936862 
L 101.184575 257.299181 
L 102.373786 249.613926 
L 104.752208 268.425275 
L 105.941419 237.220163 
L 107.130629 252.426439 
L 108.31984 265.094493 
L 109.509051 243.390464 
L 110.698262 251.863347 
L 111.887473 243.110389 
L 113.076683 239.84676 
L 114.265894 235.990385 
L 115.455105 254.328197 
L 116.644316 253.795157 
L 117.833526 245.629299 
L 119.022737 240.527866 
L 120.211948 257.427261 
L 121.401159 234.380648 
L 122.59037 246.547342 
L 123.77958 246.102235 
L 126.158002 234.510669 
L 127.347213 244.250995 
L 128.536424 236.518607 
L 129.725634 247.751858 
L 130.914845 232.122166 
L 132.104056 245.451524 
L 133.293267 251.904616 
L 134.482478 249.300085 
L 135.671688 241.998511 
L 136.860899 230.6146 
L 138.05011 225.448343 
L 139.239321 248.74059 
L 140.428531 231.712915 
L 142.806953 256.821085 
L 143.996164 262.008762 
L 145.185375 237.387492 
L 146.374585 261.628209 
L 147.563796 253.544818 
L 148.753007 238.428819 
L 149.942218 242.200781 
L 151.131429 249.991558 
L 152.320639 255.793328 
L 153.50985 243.510212 
L 154.699061 242.919808 
L 155.888272 254.161692 
L 157.077483 256.640643 
L 158.266693 244.378634 
L 159.455904 238.965239 
L 160.645115 248.745714 
L 161.834326 236.770211 
L 163.023536 229.793606 
L 164.212747 249.749816 
L 165.401958 234.765268 
L 166.591169 244.199584 
L 167.78038 244.88603 
L 168.96959 254.66078 
L 170.158801 248.900577 
L 171.348012 251.748434 
L 172.537223 228.185513 
L 173.726434 228.398372 
L 174.915644 234.654155 
L 176.104855 251.42475 
L 177.294066 257.694807 
L 178.483277 238.842195 
L 179.672488 268.276714 
L 180.861698 235.997799 
L 182.050909 240.006458 
L 184.429331 258.685245 
L 185.618541 233.706867 
L 186.807752 245.314676 
L 187.996963 243.344831 
L 189.186174 221.424506 
L 190.375385 248.837177 
L 191.564595 248.689115 
L 192.753806 247.906829 
L 193.943017 246.646204 
L 195.132228 256.31329 
L 196.321439 244.989499 
L 197.510649 235.844105 
L 198.69986 234.288402 
L 199.889071 228.759823 
L 201.078282 232.197881 
L 202.267493 223.555632 
L 203.456703 231.510074 
L 204.645914 225.845726 
L 205.835125 232.739032 
L 207.024336 236.585864 
L 208.213546 231.97231 
L 209.402757 249.705279 
L 210.591968 248.114746 
L 211.781179 239.963828 
L 214.1596 274.970608 
L 215.348811 289.877968 
L 216.538022 302.208 
L 217.727233 278.866201 
L 220.105654 291.484315 
L 221.294865 292.714571 
L 222.484076 273.946456 
L 223.673287 269.584238 
L 224.862498 271.510911 
L 226.051708 283.741185 
L 227.240919 273.917633 
L 228.43013 243.016904 
L 229.619341 241.05961 
L 230.808551 218.950778 
L 231.997762 248.123932 
L 233.186973 227.008408 
L 234.376184 194.977853 
L 235.565395 213.716191 
L 236.754605 218.734601 
L 237.943816 247.170427 
L 239.133027 249.036367 
L 240.322238 244.693104 
L 241.511449 239.337062 
L 242.700659 240.658921 
L 243.88987 252.067367 
L 245.079081 239.678469 
L 246.268292 263.090151 
L 247.457502 265.719923 
L 248.646713 256.956757 
L 249.835924 274.894366 
L 251.025135 265.450414 
L 252.214346 267.652346 
L 253.403556 258.623664 
L 254.592767 252.83967 
L 255.781978 272.464623 
L 256.971189 248.990847 
L 258.1604 258.313378 
L 259.34961 263.218688 
L 260.538821 265.126117 
L 261.728032 251.85146 
L 262.917243 262.022137 
L 264.106454 274.062106 
L 265.295664 263.066711 
L 266.484875 261.733277 
L 267.674086 272.218644 
L 268.863297 275.718967 
L 270.052507 277.60079 
L 271.241718 257.702706 
L 272.430929 279.132075 
L 273.62014 254.283601 
L 274.809351 242.887203 
L 275.998561 240.299244 
L 277.187772 228.822703 
L 278.376983 224.81932 
L 279.566194 224.7301 
L 280.755405 208.812683 
L 281.944615 220.509428 
L 283.133826 225.255921 
L 284.323037 216.758421 
L 285.512248 222.327956 
L 286.701459 224.402853 
L 287.890669 230.747588 
L 289.07988 216.838787 
L 290.269091 241.247112 
L 291.458302 248.376677 
L 292.647512 238.921279 
L 293.836723 261.865358 
L 295.025934 258.755345 
L 296.215145 253.121808 
L 297.404356 257.942237 
L 298.593566 285.798727 
L 299.782777 278.903609 
L 300.971988 257.733473 
L 302.161199 282.598542 
L 303.35041 279.914204 
L 304.53962 280.476146 
L 305.728831 264.115675 
L 306.918042 269.720333 
L 308.107253 257.837643 
L 309.296464 281.7618 
L 310.485674 260.316635 
L 311.674885 266.696354 
L 312.864096 245.60277 
L 314.053307 242.919989 
L 315.242517 243.136841 
L 316.431728 232.910501 
L 317.620939 254.851023 
L 318.81015 213.025868 
L 319.999361 226.001189 
L 321.188571 230.23143 
L 322.377782 229.753127 
L 323.566993 203.608128 
L 324.756204 212.759609 
L 325.945415 213.378408 
L 327.134625 194.688 
L 328.323836 233.293126 
L 329.513047 233.433854 
L 330.702258 215.186098 
L 331.891469 232.851587 
L 333.080679 222.281917 
L 334.26989 229.074102 
L 335.459101 232.64016 
L 336.648312 242.956616 
L 337.837522 241.178435 
L 339.026733 241.12118 
L 340.215944 260.969412 
L 341.405155 231.630339 
L 342.594366 255.43155 
L 343.783576 253.937918 
L 344.972787 279.562156 
L 346.161998 270.192065 
L 347.351209 272.854889 
L 348.54042 261.763837 
L 349.72963 264.845732 
L 350.918841 283.405124 
L 352.108052 279.164106 
L 353.297263 283.727076 
L 354.486474 272.836851 
L 355.675684 277.869419 
L 356.864895 267.845444 
L 358.054106 273.018605 
L 359.243317 275.780174 
L 360.432527 258.19737 
L 361.621738 252.297327 
L 362.810949 249.242387 
L 364.00016 239.804507 
L 365.189371 250.922385 
L 366.378581 233.957112 
L 367.567792 232.975552 
L 368.757003 238.748426 
L 371.135425 214.157404 
L 372.324635 214.30539 
L 373.513846 227.423373 
L 374.703057 205.698798 
L 375.892268 215.797173 
L 377.081479 201.999516 
L 378.270689 203.221681 
L 379.4599 221.666537 
L 380.649111 206.091885 
L 381.838322 204.847587 
L 383.027532 222.344885 
L 384.216743 227.945754 
L 385.405954 235.511764 
L 386.595165 240.445504 
L 387.784376 252.018721 
L 388.973586 240.664055 
L 390.162797 243.574165 
L 391.352008 260.815889 
L 392.541219 254.410637 
L 393.73043 258.806507 
L 394.91964 275.402974 
L 396.108851 266.218887 
L 397.298062 266.087819 
L 398.487273 272.534095 
L 398.487273 272.534095 
" style="fill:none;stroke:#0343df;stroke-linecap:square;stroke-width:2;"/>
   </g>
   <g id="patch_8">
    <path d="M 57.6 307.584 
L 57.6 189.312 
" style="fill:none;stroke:#000000;stroke-linecap:square;stroke-linejoin:miter;stroke-width:0.8;"/>
   </g>
   <g id="patch_9">
    <path d="M 414.72 307.584 
L 414.72 189.312 
" style="fill:none;stroke:#000000;stroke-linecap:square;stroke-linejoin:miter;stroke-width:0.8;"/>
   </g>
   <g id="patch_10">
    <path d="M 57.6 307.584 
L 414.72 307.584 
" style="fill:none;stroke:#000000;stroke-linecap:square;stroke-linejoin:miter;stroke-width:0.8;"/>
   </g>
   <g id="patch_11">
    <path d="M 57.6 189.312 
L 414.72 189.312 
" style="fill:none;stroke:#000000;stroke-linecap:square;stroke-linejoin:miter;stroke-width:0.8;"/>
   </g>
  </g>
 </g>
 <defs>
  <clipPath id="pa6079ce053">
   <rect height="118.272" width="357.12" x="57.6" y="41.472"/>
  </clipPath>
  <clipPath id="p03da4bc29c">
   <rect height="118.272" width="357.12" x="57.6" y="189.312"/>
  </clipPath>
 </defs>
</svg>
