<?xml version="1.0" encoding="utf-8" standalone="no"?>
<!DOCTYPE svg PUBLIC "-//W3C//DTD SVG 1.1//EN"
  "http://www.w3.org/Graphics/SVG/1.1/DTD/svg11.dtd">
<!-- Created with matplotlib (http://matplotlib.org/) -->
<svg height="345pt" version="1.1" viewBox="0 0 460 345" width="460pt" xmlns="http://www.w3.org/2000/svg" xmlns:xlink="http://www.w3.org/1999/xlink">
 <defs>
  <style type="text/css">
*{stroke-linecap:butt;stroke-linejoin:round;}
  </style>
 </defs>
 <g id="figure_1">
  <g id="patch_1">
   <path d="M 0 345.6 
L 460.8 345.6 
L 460.8 0 
L 0 0 
z
" style="fill:#ffffff;"/>
  </g>
  <g id="axes_1">
   <g id="patch_2">
    <path d="M 57.6 159.744 
L 414.72 159.744 
L 414.72 41.472 
L 57.6 41.472 
z
" style="fill:#ffffff;"/>
   </g>
   <g id="matplotlib.axis_1">
    <g id="xtick_1">
     <g id="line2d_1">
      <defs>
       <path d="M 0 0 
L 0 3.5 
" id="m550990a593" style="stroke:#000000;stroke-width:0.8;"/>
      </defs>
      <g>
       <use style="stroke:#000000;stroke-width:0.8;" x="57.183776" xlink:href="#m550990a593" y="159.744"/>
      </g>
     </g>
     <g id="text_1">
      <!-- 0 -->
      <defs>
       <path d="M 31.78125 66.40625 
Q 24.171875 66.40625 20.328125 58.90625 
Q 16.5 51.421875 16.5 36.375 
Q 16.5 21.390625 20.328125 13.890625 
Q 24.171875 6.390625 31.78125 6.390625 
Q 39.453125 6.390625 43.28125 13.890625 
Q 47.125 21.390625 47.125 36.375 
Q 47.125 51.421875 43.28125 58.90625 
Q 39.453125 66.40625 31.78125 66.40625 
M 31.78125 74.21875 
Q 44.046875 74.21875 50.515625 64.515625 
Q 56.984375 54.828125 56.984375 36.375 
Q 56.984375 17.96875 50.515625 8.265625 
Q 44.046875 -1.421875 31.78125 -1.421875 
Q 19.53125 -1.421875 13.0625 8.265625 
Q 6.59375 17.96875 6.59375 36.375 
Q 6.59375 54.828125 13.0625 64.515625 
Q 19.53125 74.21875 31.78125 74.21875 
" id="DejaVuSans-30"/>
      </defs>
      <g transform="translate(54.002526 174.342437)scale(0.1 -0.1)">
       <use xlink:href="#DejaVuSans-30"/>
      </g>
     </g>
    </g>
    <g id="xtick_2">
     <g id="line2d_2">
      <g>
       <use style="stroke:#000000;stroke-width:0.8;" x="98.475818" xlink:href="#m550990a593" y="159.744"/>
      </g>
     </g>
     <g id="text_2">
      <!-- 25 -->
      <defs>
       <path d="M 19.1875 8.296875 
L 53.609375 8.296875 
L 53.609375 0 
L 7.328125 0 
L 7.328125 8.296875 
Q 12.9375 14.109375 22.625 23.890625 
Q 32.328125 33.6875 34.8125 36.53125 
Q 39.546875 41.84375 41.421875 45.53125 
Q 43.3125 49.21875 43.3125 52.78125 
Q 43.3125 58.59375 39.234375 62.25 
Q 35.15625 65.921875 28.609375 65.921875 
Q 23.96875 65.921875 18.8125 64.3125 
Q 13.671875 62.703125 7.8125 59.421875 
L 7.8125 69.390625 
Q 13.765625 71.78125 18.9375 73 
Q 24.125 74.21875 28.421875 74.21875 
Q 39.75 74.21875 46.484375 68.546875 
Q 53.21875 62.890625 53.21875 53.421875 
Q 53.21875 48.921875 51.53125 44.890625 
Q 49.859375 40.875 45.40625 35.40625 
Q 44.1875 33.984375 37.640625 27.21875 
Q 31.109375 20.453125 19.1875 8.296875 
" id="DejaVuSans-32"/>
       <path d="M 10.796875 72.90625 
L 49.515625 72.90625 
L 49.515625 64.59375 
L 19.828125 64.59375 
L 19.828125 46.734375 
Q 21.96875 47.46875 24.109375 47.828125 
Q 26.265625 48.1875 28.421875 48.1875 
Q 40.625 48.1875 47.75 41.5 
Q 54.890625 34.8125 54.890625 23.390625 
Q 54.890625 11.625 47.5625 5.09375 
Q 40.234375 -1.421875 26.90625 -1.421875 
Q 22.3125 -1.421875 17.546875 -0.640625 
Q 12.796875 0.140625 7.71875 1.703125 
L 7.71875 11.625 
Q 12.109375 9.234375 16.796875 8.0625 
Q 21.484375 6.890625 26.703125 6.890625 
Q 35.15625 6.890625 40.078125 11.328125 
Q 45.015625 15.765625 45.015625 23.390625 
Q 45.015625 31 40.078125 35.4375 
Q 35.15625 39.890625 26.703125 39.890625 
Q 22.75 39.890625 18.8125 39.015625 
Q 14.890625 38.140625 10.796875 36.28125 
z
" id="DejaVuSans-35"/>
      </defs>
      <g transform="translate(92.113318 174.342437)scale(0.1 -0.1)">
       <use xlink:href="#DejaVuSans-32"/>
       <use x="63.623047" xlink:href="#DejaVuSans-35"/>
      </g>
     </g>
    </g>
    <g id="xtick_3">
     <g id="line2d_3">
      <g>
       <use style="stroke:#000000;stroke-width:0.8;" x="139.767859" xlink:href="#m550990a593" y="159.744"/>
      </g>
     </g>
     <g id="text_3">
      <!-- 50 -->
      <g transform="translate(133.405359 174.342437)scale(0.1 -0.1)">
       <use xlink:href="#DejaVuSans-35"/>
       <use x="63.623047" xlink:href="#DejaVuSans-30"/>
      </g>
     </g>
    </g>
    <g id="xtick_4">
     <g id="line2d_4">
      <g>
       <use style="stroke:#000000;stroke-width:0.8;" x="181.0599" xlink:href="#m550990a593" y="159.744"/>
      </g>
     </g>
     <g id="text_4">
      <!-- 75 -->
      <defs>
       <path d="M 8.203125 72.90625 
L 55.078125 72.90625 
L 55.078125 68.703125 
L 28.609375 0 
L 18.3125 0 
L 43.21875 64.59375 
L 8.203125 64.59375 
z
" id="DejaVuSans-37"/>
      </defs>
      <g transform="translate(174.6974 174.342437)scale(0.1 -0.1)">
       <use xlink:href="#DejaVuSans-37"/>
       <use x="63.623047" xlink:href="#DejaVuSans-35"/>
      </g>
     </g>
    </g>
    <g id="xtick_5">
     <g id="line2d_5">
      <g>
       <use style="stroke:#000000;stroke-width:0.8;" x="222.351941" xlink:href="#m550990a593" y="159.744"/>
      </g>
     </g>
     <g id="text_5">
      <!-- 100 -->
      <defs>
       <path d="M 12.40625 8.296875 
L 28.515625 8.296875 
L 28.515625 63.921875 
L 10.984375 60.40625 
L 10.984375 69.390625 
L 28.421875 72.90625 
L 38.28125 72.90625 
L 38.28125 8.296875 
L 54.390625 8.296875 
L 54.390625 0 
L 12.40625 0 
z
" id="DejaVuSans-31"/>
      </defs>
      <g transform="translate(212.808191 174.342437)scale(0.1 -0.1)">
       <use xlink:href="#DejaVuSans-31"/>
       <use x="63.623047" xlink:href="#DejaVuSans-30"/>
       <use x="127.246094" xlink:href="#DejaVuSans-30"/>
      </g>
     </g>
    </g>
    <g id="xtick_6">
     <g id="line2d_6">
      <g>
       <use style="stroke:#000000;stroke-width:0.8;" x="263.643983" xlink:href="#m550990a593" y="159.744"/>
      </g>
     </g>
     <g id="text_6">
      <!-- 125 -->
      <g transform="translate(254.100233 174.342437)scale(0.1 -0.1)">
       <use xlink:href="#DejaVuSans-31"/>
       <use x="63.623047" xlink:href="#DejaVuSans-32"/>
       <use x="127.246094" xlink:href="#DejaVuSans-35"/>
      </g>
     </g>
    </g>
    <g id="xtick_7">
     <g id="line2d_7">
      <g>
       <use style="stroke:#000000;stroke-width:0.8;" x="304.936024" xlink:href="#m550990a593" y="159.744"/>
      </g>
     </g>
     <g id="text_7">
      <!-- 150 -->
      <g transform="translate(295.392274 174.342437)scale(0.1 -0.1)">
       <use xlink:href="#DejaVuSans-31"/>
       <use x="63.623047" xlink:href="#DejaVuSans-35"/>
       <use x="127.246094" xlink:href="#DejaVuSans-30"/>
      </g>
     </g>
    </g>
    <g id="xtick_8">
     <g id="line2d_8">
      <g>
       <use style="stroke:#000000;stroke-width:0.8;" x="346.228065" xlink:href="#m550990a593" y="159.744"/>
      </g>
     </g>
     <g id="text_8">
      <!-- 175 -->
      <g transform="translate(336.684315 174.342437)scale(0.1 -0.1)">
       <use xlink:href="#DejaVuSans-31"/>
       <use x="63.623047" xlink:href="#DejaVuSans-37"/>
       <use x="127.246094" xlink:href="#DejaVuSans-35"/>
      </g>
     </g>
    </g>
    <g id="xtick_9">
     <g id="line2d_9">
      <g>
       <use style="stroke:#000000;stroke-width:0.8;" x="387.520107" xlink:href="#m550990a593" y="159.744"/>
      </g>
     </g>
     <g id="text_9">
      <!-- 200 -->
      <g transform="translate(377.976357 174.342437)scale(0.1 -0.1)">
       <use xlink:href="#DejaVuSans-32"/>
       <use x="63.623047" xlink:href="#DejaVuSans-30"/>
       <use x="127.246094" xlink:href="#DejaVuSans-30"/>
      </g>
     </g>
    </g>
   </g>
   <g id="matplotlib.axis_2">
    <g id="ytick_1">
     <g id="line2d_10">
      <defs>
       <path d="M 0 0 
L -3.5 0 
" id="mfe584b2196" style="stroke:#000000;stroke-width:0.8;"/>
      </defs>
      <g>
       <use style="stroke:#000000;stroke-width:0.8;" x="57.6" xlink:href="#mfe584b2196" y="141.205954"/>
      </g>
     </g>
     <g id="text_10">
      <!-- −4 -->
      <defs>
       <path d="M 10.59375 35.5 
L 73.1875 35.5 
L 73.1875 27.203125 
L 10.59375 27.203125 
z
" id="DejaVuSans-2212"/>
       <path d="M 37.796875 64.3125 
L 12.890625 25.390625 
L 37.796875 25.390625 
z
M 35.203125 72.90625 
L 47.609375 72.90625 
L 47.609375 25.390625 
L 58.015625 25.390625 
L 58.015625 17.1875 
L 47.609375 17.1875 
L 47.609375 0 
L 37.796875 0 
L 37.796875 17.1875 
L 4.890625 17.1875 
L 4.890625 26.703125 
z
" id="DejaVuSans-34"/>
      </defs>
      <g transform="translate(35.857813 145.005173)scale(0.1 -0.1)">
       <use xlink:href="#DejaVuSans-2212"/>
       <use x="83.789062" xlink:href="#DejaVuSans-34"/>
      </g>
     </g>
    </g>
    <g id="ytick_2">
     <g id="line2d_11">
      <g>
       <use style="stroke:#000000;stroke-width:0.8;" x="57.6" xlink:href="#mfe584b2196" y="112.80727"/>
      </g>
     </g>
     <g id="text_11">
      <!-- −2 -->
      <g transform="translate(35.857813 116.606489)scale(0.1 -0.1)">
       <use xlink:href="#DejaVuSans-2212"/>
       <use x="83.789062" xlink:href="#DejaVuSans-32"/>
      </g>
     </g>
    </g>
    <g id="ytick_3">
     <g id="line2d_12">
      <g>
       <use style="stroke:#000000;stroke-width:0.8;" x="57.6" xlink:href="#mfe584b2196" y="84.408585"/>
      </g>
     </g>
     <g id="text_12">
      <!-- 0 -->
      <g transform="translate(44.2375 88.207804)scale(0.1 -0.1)">
       <use xlink:href="#DejaVuSans-30"/>
      </g>
     </g>
    </g>
    <g id="ytick_4">
     <g id="line2d_13">
      <g>
       <use style="stroke:#000000;stroke-width:0.8;" x="57.6" xlink:href="#mfe584b2196" y="56.009901"/>
      </g>
     </g>
     <g id="text_13">
      <!-- 2 -->
      <g transform="translate(44.2375 59.80912)scale(0.1 -0.1)">
       <use xlink:href="#DejaVuSans-32"/>
      </g>
     </g>
    </g>
   </g>
   <g id="line2d_14">
    <path clip-path="url(#p8168cf3619)" d="M 73.832727 78.337404 
L 85.724835 93.752234 
L 99.995365 68.470456 
L 114.265894 99.601552 
L 128.536424 94.323917 
L 142.806953 68.800278 
L 157.077483 91.906616 
L 171.348012 67.735441 
L 185.618541 78.318137 
L 199.889071 84.15436 
L 214.1596 84.612413 
L 228.43013 81.294098 
L 242.700659 96.29331 
L 256.971189 77.427007 
L 272.430929 79.339593 
L 286.701459 79.973195 
L 299.782777 81.366053 
L 314.053307 76.222466 
L 328.323836 64.691095 
L 342.594366 46.848 
L 356.864895 139.219044 
L 371.135425 154.368 
L 385.405954 65.876214 
L 398.487273 76.771264 
L 398.487273 76.771264 
" style="fill:none;stroke:#7e1e9c;stroke-linecap:square;stroke-width:2;"/>
   </g>
   <g id="patch_3">
    <path d="M 57.6 159.744 
L 57.6 41.472 
" style="fill:none;stroke:#000000;stroke-linecap:square;stroke-linejoin:miter;stroke-width:0.8;"/>
   </g>
   <g id="patch_4">
    <path d="M 414.72 159.744 
L 414.72 41.472 
" style="fill:none;stroke:#000000;stroke-linecap:square;stroke-linejoin:miter;stroke-width:0.8;"/>
   </g>
   <g id="patch_5">
    <path d="M 57.6 159.744 
L 414.72 159.744 
" style="fill:none;stroke:#000000;stroke-linecap:square;stroke-linejoin:miter;stroke-width:0.8;"/>
   </g>
   <g id="patch_6">
    <path d="M 57.6 41.472 
L 414.72 41.472 
" style="fill:none;stroke:#000000;stroke-linecap:square;stroke-linejoin:miter;stroke-width:0.8;"/>
   </g>
  </g>
  <g id="axes_2">
   <g id="patch_7">
    <path d="M 57.6 307.584 
L 414.72 307.584 
L 414.72 189.312 
L 57.6 189.312 
z
" style="fill:#ffffff;"/>
   </g>
   <g id="matplotlib.axis_3">
    <g id="xtick_10">
     <g id="line2d_15">
      <g>
       <use style="stroke:#000000;stroke-width:0.8;" x="57.183776" xlink:href="#m550990a593" y="307.584"/>
      </g>
     </g>
     <g id="text_14">
      <!-- 0 -->
      <g transform="translate(54.002526 322.182437)scale(0.1 -0.1)">
       <use xlink:href="#DejaVuSans-30"/>
      </g>
     </g>
    </g>
    <g id="xtick_11">
     <g id="line2d_16">
      <g>
       <use style="stroke:#000000;stroke-width:0.8;" x="98.475818" xlink:href="#m550990a593" y="307.584"/>
      </g>
     </g>
     <g id="text_15">
      <!-- 25 -->
      <g transform="translate(92.113318 322.182437)scale(0.1 -0.1)">
       <use xlink:href="#DejaVuSans-32"/>
       <use x="63.623047" xlink:href="#DejaVuSans-35"/>
      </g>
     </g>
    </g>
    <g id="xtick_12">
     <g id="line2d_17">
      <g>
       <use style="stroke:#000000;stroke-width:0.8;" x="139.767859" xlink:href="#m550990a593" y="307.584"/>
      </g>
     </g>
     <g id="text_16">
      <!-- 50 -->
      <g transform="translate(133.405359 322.182437)scale(0.1 -0.1)">
       <use xlink:href="#DejaVuSans-35"/>
       <use x="63.623047" xlink:href="#DejaVuSans-30"/>
      </g>
     </g>
    </g>
    <g id="xtick_13">
     <g id="line2d_18">
      <g>
       <use style="stroke:#000000;stroke-width:0.8;" x="181.0599" xlink:href="#m550990a593" y="307.584"/>
      </g>
     </g>
     <g id="text_17">
      <!-- 75 -->
      <g transform="translate(174.6974 322.182437)scale(0.1 -0.1)">
       <use xlink:href="#DejaVuSans-37"/>
       <use x="63.623047" xlink:href="#DejaVuSans-35"/>
      </g>
     </g>
    </g>
    <g id="xtick_14">
     <g id="line2d_19">
      <g>
       <use style="stroke:#000000;stroke-width:0.8;" x="222.351941" xlink:href="#m550990a593" y="307.584"/>
      </g>
     </g>
     <g id="text_18">
      <!-- 100 -->
      <g transform="translate(212.808191 322.182437)scale(0.1 -0.1)">
       <use xlink:href="#DejaVuSans-31"/>
       <use x="63.623047" xlink:href="#DejaVuSans-30"/>
       <use x="127.246094" xlink:href="#DejaVuSans-30"/>
      </g>
     </g>
    </g>
    <g id="xtick_15">
     <g id="line2d_20">
      <g>
       <use style="stroke:#000000;stroke-width:0.8;" x="263.643983" xlink:href="#m550990a593" y="307.584"/>
      </g>
     </g>
     <g id="text_19">
      <!-- 125 -->
      <g transform="translate(254.100233 322.182437)scale(0.1 -0.1)">
       <use xlink:href="#DejaVuSans-31"/>
       <use x="63.623047" xlink:href="#DejaVuSans-32"/>
       <use x="127.246094" xlink:href="#DejaVuSans-35"/>
      </g>
     </g>
    </g>
    <g id="xtick_16">
     <g id="line2d_21">
      <g>
       <use style="stroke:#000000;stroke-width:0.8;" x="304.936024" xlink:href="#m550990a593" y="307.584"/>
      </g>
     </g>
     <g id="text_20">
      <!-- 150 -->
      <g transform="translate(295.392274 322.182437)scale(0.1 -0.1)">
       <use xlink:href="#DejaVuSans-31"/>
       <use x="63.623047" xlink:href="#DejaVuSans-35"/>
       <use x="127.246094" xlink:href="#DejaVuSans-30"/>
      </g>
     </g>
    </g>
    <g id="xtick_17">
     <g id="line2d_22">
      <g>
       <use style="stroke:#000000;stroke-width:0.8;" x="346.228065" xlink:href="#m550990a593" y="307.584"/>
      </g>
     </g>
     <g id="text_21">
      <!-- 175 -->
      <g transform="translate(336.684315 322.182437)scale(0.1 -0.1)">
       <use xlink:href="#DejaVuSans-31"/>
       <use x="63.623047" xlink:href="#DejaVuSans-37"/>
       <use x="127.246094" xlink:href="#DejaVuSans-35"/>
      </g>
     </g>
    </g>
    <g id="xtick_18">
     <g id="line2d_23">
      <g>
       <use style="stroke:#000000;stroke-width:0.8;" x="387.520107" xlink:href="#m550990a593" y="307.584"/>
      </g>
     </g>
     <g id="text_22">
      <!-- 200 -->
      <g transform="translate(377.976357 322.182437)scale(0.1 -0.1)">
       <use xlink:href="#DejaVuSans-32"/>
       <use x="63.623047" xlink:href="#DejaVuSans-30"/>
       <use x="127.246094" xlink:href="#DejaVuSans-30"/>
      </g>
     </g>
    </g>
    <g id="text_23">
     <!-- Time (Sec) -->
     <defs>
      <path d="M -0.296875 72.90625 
L 61.375 72.90625 
L 61.375 64.59375 
L 35.5 64.59375 
L 35.5 0 
L 25.59375 0 
L 25.59375 64.59375 
L -0.296875 64.59375 
z
" id="DejaVuSans-54"/>
      <path d="M 9.421875 54.6875 
L 18.40625 54.6875 
L 18.40625 0 
L 9.421875 0 
z
M 9.421875 75.984375 
L 18.40625 75.984375 
L 18.40625 64.59375 
L 9.421875 64.59375 
z
" id="DejaVuSans-69"/>
      <path d="M 52 44.1875 
Q 55.375 50.25 60.0625 53.125 
Q 64.75 56 71.09375 56 
Q 79.640625 56 84.28125 50.015625 
Q 88.921875 44.046875 88.921875 33.015625 
L 88.921875 0 
L 79.890625 0 
L 79.890625 32.71875 
Q 79.890625 40.578125 77.09375 44.375 
Q 74.3125 48.1875 68.609375 48.1875 
Q 61.625 48.1875 57.5625 43.546875 
Q 53.515625 38.921875 53.515625 30.90625 
L 53.515625 0 
L 44.484375 0 
L 44.484375 32.71875 
Q 44.484375 40.625 41.703125 44.40625 
Q 38.921875 48.1875 33.109375 48.1875 
Q 26.21875 48.1875 22.15625 43.53125 
Q 18.109375 38.875 18.109375 30.90625 
L 18.109375 0 
L 9.078125 0 
L 9.078125 54.6875 
L 18.109375 54.6875 
L 18.109375 46.1875 
Q 21.1875 51.21875 25.484375 53.609375 
Q 29.78125 56 35.6875 56 
Q 41.65625 56 45.828125 52.96875 
Q 50 49.953125 52 44.1875 
" id="DejaVuSans-6d"/>
      <path d="M 56.203125 29.59375 
L 56.203125 25.203125 
L 14.890625 25.203125 
Q 15.484375 15.921875 20.484375 11.0625 
Q 25.484375 6.203125 34.421875 6.203125 
Q 39.59375 6.203125 44.453125 7.46875 
Q 49.3125 8.734375 54.109375 11.28125 
L 54.109375 2.78125 
Q 49.265625 0.734375 44.1875 -0.34375 
Q 39.109375 -1.421875 33.890625 -1.421875 
Q 20.796875 -1.421875 13.15625 6.1875 
Q 5.515625 13.8125 5.515625 26.8125 
Q 5.515625 40.234375 12.765625 48.109375 
Q 20.015625 56 32.328125 56 
Q 43.359375 56 49.78125 48.890625 
Q 56.203125 41.796875 56.203125 29.59375 
M 47.21875 32.234375 
Q 47.125 39.59375 43.09375 43.984375 
Q 39.0625 48.390625 32.421875 48.390625 
Q 24.90625 48.390625 20.390625 44.140625 
Q 15.875 39.890625 15.1875 32.171875 
z
" id="DejaVuSans-65"/>
      <path id="DejaVuSans-20"/>
      <path d="M 31 75.875 
Q 24.46875 64.65625 21.28125 53.65625 
Q 18.109375 42.671875 18.109375 31.390625 
Q 18.109375 20.125 21.3125 9.0625 
Q 24.515625 -2 31 -13.1875 
L 23.1875 -13.1875 
Q 15.875 -1.703125 12.234375 9.375 
Q 8.59375 20.453125 8.59375 31.390625 
Q 8.59375 42.28125 12.203125 53.3125 
Q 15.828125 64.359375 23.1875 75.875 
z
" id="DejaVuSans-28"/>
      <path d="M 53.515625 70.515625 
L 53.515625 60.890625 
Q 47.90625 63.578125 42.921875 64.890625 
Q 37.9375 66.21875 33.296875 66.21875 
Q 25.25 66.21875 20.875 63.09375 
Q 16.5 59.96875 16.5 54.203125 
Q 16.5 49.359375 19.40625 46.890625 
Q 22.3125 44.4375 30.421875 42.921875 
L 36.375 41.703125 
Q 47.40625 39.59375 52.65625 34.296875 
Q 57.90625 29 57.90625 20.125 
Q 57.90625 9.515625 50.796875 4.046875 
Q 43.703125 -1.421875 29.984375 -1.421875 
Q 24.8125 -1.421875 18.96875 -0.25 
Q 13.140625 0.921875 6.890625 3.21875 
L 6.890625 13.375 
Q 12.890625 10.015625 18.65625 8.296875 
Q 24.421875 6.59375 29.984375 6.59375 
Q 38.421875 6.59375 43.015625 9.90625 
Q 47.609375 13.234375 47.609375 19.390625 
Q 47.609375 24.75 44.3125 27.78125 
Q 41.015625 30.8125 33.5 32.328125 
L 27.484375 33.5 
Q 16.453125 35.6875 11.515625 40.375 
Q 6.59375 45.0625 6.59375 53.421875 
Q 6.59375 63.09375 13.40625 68.65625 
Q 20.21875 74.21875 32.171875 74.21875 
Q 37.3125 74.21875 42.625 73.28125 
Q 47.953125 72.359375 53.515625 70.515625 
" id="DejaVuSans-53"/>
      <path d="M 48.78125 52.59375 
L 48.78125 44.1875 
Q 44.96875 46.296875 41.140625 47.34375 
Q 37.3125 48.390625 33.40625 48.390625 
Q 24.65625 48.390625 19.8125 42.84375 
Q 14.984375 37.3125 14.984375 27.296875 
Q 14.984375 17.28125 19.8125 11.734375 
Q 24.65625 6.203125 33.40625 6.203125 
Q 37.3125 6.203125 41.140625 7.25 
Q 44.96875 8.296875 48.78125 10.40625 
L 48.78125 2.09375 
Q 45.015625 0.34375 40.984375 -0.53125 
Q 36.96875 -1.421875 32.421875 -1.421875 
Q 20.0625 -1.421875 12.78125 6.34375 
Q 5.515625 14.109375 5.515625 27.296875 
Q 5.515625 40.671875 12.859375 48.328125 
Q 20.21875 56 33.015625 56 
Q 37.15625 56 41.109375 55.140625 
Q 45.0625 54.296875 48.78125 52.59375 
" id="DejaVuSans-63"/>
      <path d="M 8.015625 75.875 
L 15.828125 75.875 
Q 23.140625 64.359375 26.78125 53.3125 
Q 30.421875 42.28125 30.421875 31.390625 
Q 30.421875 20.453125 26.78125 9.375 
Q 23.140625 -1.703125 15.828125 -13.1875 
L 8.015625 -13.1875 
Q 14.5 -2 17.703125 9.0625 
Q 20.90625 20.125 20.90625 31.390625 
Q 20.90625 42.671875 17.703125 53.65625 
Q 14.5 64.65625 8.015625 75.875 
" id="DejaVuSans-29"/>
     </defs>
     <g transform="translate(209.281875 335.860562)scale(0.1 -0.1)">
      <use xlink:href="#DejaVuSans-54"/>
      <use x="61.037109" xlink:href="#DejaVuSans-69"/>
      <use x="88.820312" xlink:href="#DejaVuSans-6d"/>
      <use x="186.232422" xlink:href="#DejaVuSans-65"/>
      <use x="247.755859" xlink:href="#DejaVuSans-20"/>
      <use x="279.542969" xlink:href="#DejaVuSans-28"/>
      <use x="318.556641" xlink:href="#DejaVuSans-53"/>
      <use x="382.033203" xlink:href="#DejaVuSans-65"/>
      <use x="443.556641" xlink:href="#DejaVuSans-63"/>
      <use x="498.537109" xlink:href="#DejaVuSans-29"/>
     </g>
    </g>
   </g>
   <g id="matplotlib.axis_4">
    <g id="ytick_5">
     <g id="line2d_24">
      <g>
       <use style="stroke:#000000;stroke-width:0.8;" x="57.6" xlink:href="#mfe584b2196" y="290.29312"/>
      </g>
     </g>
     <g id="text_24">
      <!-- −20 -->
      <g transform="translate(29.495313 294.092338)scale(0.1 -0.1)">
       <use xlink:href="#DejaVuSans-2212"/>
       <use x="83.789062" xlink:href="#DejaVuSans-32"/>
       <use x="147.412109" xlink:href="#DejaVuSans-30"/>
      </g>
     </g>
    </g>
    <g id="ytick_6">
     <g id="line2d_25">
      <g>
       <use style="stroke:#000000;stroke-width:0.8;" x="57.6" xlink:href="#mfe584b2196" y="265.319796"/>
      </g>
     </g>
     <g id="text_25">
      <!-- −10 -->
      <g transform="translate(29.495313 269.119015)scale(0.1 -0.1)">
       <use xlink:href="#DejaVuSans-2212"/>
       <use x="83.789062" xlink:href="#DejaVuSans-31"/>
       <use x="147.412109" xlink:href="#DejaVuSans-30"/>
      </g>
     </g>
    </g>
    <g id="ytick_7">
     <g id="line2d_26">
      <g>
       <use style="stroke:#000000;stroke-width:0.8;" x="57.6" xlink:href="#mfe584b2196" y="240.346472"/>
      </g>
     </g>
     <g id="text_26">
      <!-- 0 -->
      <g transform="translate(44.2375 244.145691)scale(0.1 -0.1)">
       <use xlink:href="#DejaVuSans-30"/>
      </g>
     </g>
    </g>
    <g id="ytick_8">
     <g id="line2d_27">
      <g>
       <use style="stroke:#000000;stroke-width:0.8;" x="57.6" xlink:href="#mfe584b2196" y="215.373148"/>
      </g>
     </g>
     <g id="text_27">
      <!-- 10 -->
      <g transform="translate(37.875 219.172367)scale(0.1 -0.1)">
       <use xlink:href="#DejaVuSans-31"/>
       <use x="63.623047" xlink:href="#DejaVuSans-30"/>
      </g>
     </g>
    </g>
    <g id="ytick_9">
     <g id="line2d_28">
      <g>
       <use style="stroke:#000000;stroke-width:0.8;" x="57.6" xlink:href="#mfe584b2196" y="190.399824"/>
      </g>
     </g>
     <g id="text_28">
      <!-- 20 -->
      <g transform="translate(37.875 194.199043)scale(0.1 -0.1)">
       <use xlink:href="#DejaVuSans-32"/>
       <use x="63.623047" xlink:href="#DejaVuSans-30"/>
      </g>
     </g>
    </g>
   </g>
   <g id="line2d_29">
    <path clip-path="url(#p827f8b3cc7)" d="M 73.832727 236.981765 
L 75.021938 238.255428 
L 77.40036 241.437115 
L 78.58957 242.68507 
L 79.778781 243.280008 
L 80.967992 243.037252 
L 82.157203 241.946872 
L 83.346414 240.221643 
L 84.535624 238.273641 
L 85.724835 236.598799 
L 86.914046 235.636864 
L 88.103257 235.672858 
L 89.292468 236.784764 
L 90.481678 238.822233 
L 94.049311 246.774025 
L 95.238521 248.786916 
L 96.427732 250.098893 
L 97.616943 250.630436 
L 98.806154 250.354315 
L 99.995365 249.283747 
L 101.184575 247.475436 
L 102.373786 245.032246 
L 105.941419 236.095538 
L 107.130629 233.749736 
L 108.31984 232.301061 
L 109.509051 231.924582 
L 110.698262 232.608411 
L 111.887473 234.124003 
L 114.265894 237.926829 
L 115.455105 239.29247 
L 116.644316 239.862007 
L 117.833526 239.531115 
L 119.022737 238.408094 
L 122.59037 233.484023 
L 123.77958 232.424764 
L 124.968791 231.974125 
L 126.158002 232.138833 
L 127.347213 232.830118 
L 128.536424 233.905135 
L 134.482478 240.296078 
L 135.671688 241.165464 
L 136.860899 241.80613 
L 138.05011 242.224519 
L 139.239321 242.44302 
L 140.428531 242.488717 
L 141.617742 242.385383 
L 143.996164 241.808981 
L 148.753007 240.073637 
L 149.942218 239.974152 
L 151.131429 240.217162 
L 152.320639 240.850339 
L 153.50985 241.846353 
L 155.888272 244.294128 
L 157.077483 245.242723 
L 158.266693 245.685306 
L 159.455904 245.481476 
L 160.645115 244.609848 
L 161.834326 243.177861 
L 165.401958 237.803711 
L 166.591169 236.400607 
L 167.78038 235.408194 
L 168.96959 234.839584 
L 170.158801 234.64911 
L 171.348012 234.756564 
L 172.537223 235.069936 
L 180.861698 237.994693 
L 183.24012 238.507011 
L 185.618541 238.710973 
L 186.807752 238.624265 
L 187.996963 238.390486 
L 189.186174 238.010019 
L 190.375385 237.485585 
L 191.564595 236.815161 
L 192.753806 235.99471 
L 195.132228 233.918556 
L 197.510649 231.358822 
L 199.889071 228.380334 
L 204.645914 221.811272 
L 205.835125 221.234035 
L 207.024336 222.143874 
L 208.213546 225.053124 
L 209.402757 230.207082 
L 210.591968 237.504002 
L 211.781179 246.455147 
L 214.1596 265.986384 
L 215.348811 274.82529 
L 216.538022 282.200476 
L 217.727233 287.771169 
L 218.916444 291.274075 
L 220.105654 292.421713 
L 221.294865 290.953879 
L 222.484076 286.756463 
L 223.673287 279.945168 
L 224.862498 270.923674 
L 228.43013 239.28299 
L 229.619341 230.641699 
L 230.808551 224.193001 
L 231.997762 220.150953 
L 233.186973 218.40465 
L 234.376184 218.618347 
L 235.565395 220.339656 
L 236.754605 223.091611 
L 239.133027 230.036096 
L 242.700659 240.674609 
L 246.268292 250.833061 
L 247.457502 253.907895 
L 248.646713 256.310107 
L 249.835924 257.559517 
L 251.025135 257.261184 
L 252.214346 255.224615 
L 253.403556 251.573114 
L 255.781978 242.068142 
L 256.971189 238.295702 
L 258.1604 236.511414 
L 259.34961 237.304944 
L 260.538821 240.777408 
L 261.728032 246.490436 
L 265.295664 267.540927 
L 266.484875 272.738728 
L 267.674086 276.080436 
L 268.863297 277.321721 
L 270.052507 276.291766 
L 271.241718 272.896419 
L 272.430929 267.174053 
L 273.62014 259.33528 
L 274.809351 249.812882 
L 277.187772 228.914309 
L 278.376983 219.59271 
L 279.566194 212.244348 
L 280.755405 207.389088 
L 281.944615 205.176136 
L 283.133826 205.474826 
L 284.323037 207.989767 
L 285.512248 212.342013 
L 286.701459 218.117155 
L 289.07988 232.258914 
L 291.458302 246.906964 
L 292.647512 253.276365 
L 293.836723 258.537467 
L 295.025934 262.526718 
L 296.215145 265.250134 
L 297.404356 266.86382 
L 298.593566 267.629043 
L 299.782777 267.850005 
L 303.35041 267.776842 
L 304.53962 267.83344 
L 305.728831 267.683415 
L 306.918042 267.002432 
L 308.107253 265.502087 
L 309.296464 263.017583 
L 310.485674 259.546588 
L 311.674885 255.252363 
L 316.431728 235.97705 
L 317.620939 231.935322 
L 318.81015 228.395208 
L 321.188571 222.393928 
L 325.945415 211.259807 
L 327.134625 208.964708 
L 328.323836 207.535083 
L 329.513047 207.329227 
L 330.702258 208.538481 
L 331.891469 211.155222 
L 333.080679 214.995342 
L 334.26989 219.755484 
L 340.215944 246.363985 
L 342.594366 254.989273 
L 344.972787 262.167146 
L 347.351209 268.182688 
L 348.54042 270.649423 
L 349.72963 272.595742 
L 350.918841 273.916644 
L 352.108052 274.568089 
L 353.297263 274.553472 
L 354.486474 273.863274 
L 355.675684 272.440306 
L 356.864895 270.206999 
L 358.054106 267.119622 
L 359.243317 263.20647 
L 360.432527 258.577447 
L 362.810949 247.932394 
L 366.378581 231.681769 
L 368.757003 222.353338 
L 369.946214 218.364816 
L 371.135425 214.884526 
L 372.324635 211.92243 
L 373.513846 209.455809 
L 374.703057 207.467696 
L 375.892268 206.027018 
L 377.081479 205.317275 
L 378.270689 205.571509 
L 379.4599 206.971635 
L 380.649111 209.577273 
L 381.838322 213.298246 
L 383.027532 217.898444 
L 387.784376 238.198549 
L 388.973586 242.39101 
L 391.352008 249.452564 
L 393.73043 256.159941 
L 396.108851 263.959901 
L 398.487273 272.100378 
L 398.487273 272.100378 
" style="fill:none;stroke:#7e1e9c;stroke-linecap:square;stroke-width:2;"/>
   </g>
   <g id="line2d_30">
    <path clip-path="url(#p827f8b3cc7)" d="M 73.832727 241.039711 
L 75.021938 235.835682 
L 76.211149 250.436668 
L 77.40036 245.51068 
L 78.58957 239.344558 
L 79.778781 259.700988 
L 80.967992 233.096387 
L 82.157203 240.213786 
L 83.346414 235.63136 
L 84.535624 238.070087 
L 85.724835 228.35296 
L 86.914046 235.960173 
L 88.103257 228.715015 
L 89.292468 253.340875 
L 90.481678 234.79439 
L 91.670889 239.944237 
L 92.8601 260.078608 
L 94.049311 250.169642 
L 95.238521 229.670233 
L 96.427732 261.89055 
L 97.616943 247.101667 
L 98.806154 249.156931 
L 99.995365 233.524582 
L 101.184575 240.865232 
L 102.373786 255.409702 
L 103.562997 250.892656 
L 104.752208 246.979941 
L 105.941419 227.60531 
L 107.130629 250.231272 
L 108.31984 225.809538 
L 109.509051 213.392494 
L 110.698262 238.186918 
L 111.887473 236.944424 
L 113.076683 231.289551 
L 114.265894 238.586008 
L 115.455105 246.709812 
L 116.644316 243.362314 
L 117.833526 230.008619 
L 119.022737 247.634118 
L 120.211948 232.905264 
L 121.401159 228.414096 
L 122.59037 234.006934 
L 123.77958 231.742411 
L 124.968791 238.21858 
L 126.158002 232.00358 
L 127.347213 230.152058 
L 128.536424 232.600929 
L 129.725634 237.552799 
L 130.914845 246.806712 
L 132.104056 240.442311 
L 133.293267 219.869864 
L 134.482478 238.320386 
L 135.671688 240.583768 
L 136.860899 246.554198 
L 138.05011 251.735086 
L 139.239321 243.651029 
L 140.428531 252.170001 
L 141.617742 228.802221 
L 142.806953 223.537821 
L 143.996164 242.204702 
L 145.185375 255.204467 
L 146.374585 262.855958 
L 147.563796 223.209285 
L 148.753007 237.318257 
L 149.942218 242.682365 
L 151.131429 229.522442 
L 152.320639 246.437028 
L 153.50985 239.719679 
L 154.699061 251.079586 
L 155.888272 244.051501 
L 157.077483 240.17138 
L 158.266693 261.558853 
L 159.455904 230.352978 
L 160.645115 236.008406 
L 161.834326 249.130394 
L 163.023536 244.195155 
L 164.212747 247.217525 
L 165.401958 224.89955 
L 166.591169 246.212678 
L 167.78038 236.779627 
L 168.96959 236.298302 
L 170.158801 227.555891 
L 171.348012 234.823882 
L 172.537223 227.180955 
L 173.726434 233.548015 
L 174.915644 235.940201 
L 176.104855 262.45745 
L 177.294066 228.339264 
L 178.483277 242.918716 
L 179.672488 231.53791 
L 180.861698 218.424439 
L 182.050909 240.516624 
L 183.24012 230.220939 
L 184.429331 267.250374 
L 185.618541 237.387509 
L 186.807752 243.227648 
L 187.996963 236.555355 
L 189.186174 223.822808 
L 190.375385 235.935884 
L 191.564595 233.855189 
L 192.753806 250.054942 
L 193.943017 215.032065 
L 195.132228 246.711857 
L 196.321439 235.294762 
L 197.510649 234.341163 
L 199.889071 223.776894 
L 201.078282 224.761088 
L 202.267493 228.034549 
L 203.456703 231.846442 
L 204.645914 216.314015 
L 205.835125 204.864249 
L 207.024336 225.579046 
L 208.213546 243.334362 
L 209.402757 233.453864 
L 210.591968 227.57764 
L 211.781179 241.24642 
L 212.97039 239.699682 
L 214.1596 278.681493 
L 215.348811 283.847854 
L 216.538022 302.208 
L 217.727233 276.357982 
L 218.916444 288.565931 
L 220.105654 275.762947 
L 222.484076 296.422925 
L 223.673287 276.21653 
L 224.862498 269.298495 
L 226.051708 269.999061 
L 227.240919 263.549147 
L 228.43013 240.924979 
L 229.619341 212.438691 
L 230.808551 234.06983 
L 231.997762 200.865722 
L 233.186973 231.008173 
L 234.376184 205.054194 
L 235.565395 233.16009 
L 236.754605 227.020893 
L 237.943816 226.357362 
L 239.133027 227.110976 
L 240.322238 243.643942 
L 241.511449 227.618172 
L 242.700659 226.806724 
L 243.88987 266.171416 
L 245.079081 224.293599 
L 246.268292 255.628189 
L 247.457502 260.780995 
L 248.646713 256.982475 
L 249.835924 266.570176 
L 251.025135 257.953099 
L 252.214346 255.92325 
L 253.403556 246.963389 
L 255.781978 239.572223 
L 256.971189 234.027139 
L 258.1604 231.736938 
L 259.34961 238.993998 
L 260.538821 241.137345 
L 261.728032 258.089024 
L 262.917243 262.74555 
L 264.106454 254.61229 
L 265.295664 259.364947 
L 266.484875 286.893615 
L 267.674086 260.14572 
L 268.863297 280.991858 
L 270.052507 281.809409 
L 271.241718 263.997499 
L 272.430929 253.239667 
L 273.62014 271.328591 
L 274.809351 265.205722 
L 275.998561 234.149053 
L 277.187772 224.974791 
L 278.376983 213.013191 
L 279.566194 221.388227 
L 281.944615 201.315634 
L 283.133826 198.305789 
L 284.323037 212.343769 
L 285.512248 218.49198 
L 286.701459 206.21177 
L 287.890669 222.316813 
L 289.07988 236.098192 
L 290.269091 245.284301 
L 291.458302 250.147899 
L 292.647512 244.139492 
L 293.836723 278.965547 
L 295.025934 247.19629 
L 296.215145 265.845963 
L 297.404356 263.543596 
L 298.593566 263.012953 
L 299.782777 278.638153 
L 300.971988 268.548997 
L 302.161199 249.374575 
L 303.35041 281.644033 
L 304.53962 264.68948 
L 305.728831 281.52644 
L 306.918042 258.733892 
L 308.107253 259.62034 
L 309.296464 272.399261 
L 310.485674 253.24425 
L 311.674885 255.991516 
L 312.864096 248.513756 
L 314.053307 235.522158 
L 315.242517 247.594215 
L 316.431728 239.671348 
L 317.620939 246.874676 
L 318.81015 225.331642 
L 319.999361 219.782159 
L 321.188571 208.691747 
L 322.377782 228.529656 
L 323.566993 197.714247 
L 324.756204 215.723194 
L 325.945415 224.659291 
L 327.134625 224.303262 
L 328.323836 201.550092 
L 329.513047 215.163298 
L 330.702258 206.473892 
L 331.891469 198.669912 
L 333.080679 212.291311 
L 334.26989 220.31897 
L 335.459101 216.617206 
L 336.648312 229.795547 
L 337.837522 248.647896 
L 339.026733 241.064737 
L 340.215944 245.359477 
L 342.594366 265.666387 
L 343.783576 241.685393 
L 344.972787 264.595115 
L 346.161998 267.461037 
L 347.351209 254.008545 
L 348.54042 281.777772 
L 349.72963 276.034527 
L 350.918841 277.00108 
L 352.108052 268.186298 
L 353.297263 274.131989 
L 354.486474 267.15482 
L 355.675684 284.759676 
L 356.864895 273.127511 
L 358.054106 267.308474 
L 359.243317 250.685978 
L 360.432527 247.352282 
L 361.621738 259.772465 
L 362.810949 260.07159 
L 364.00016 257.031329 
L 365.189371 230.150343 
L 367.567792 217.392179 
L 368.757003 229.510485 
L 369.946214 207.126239 
L 371.135425 215.013367 
L 372.324635 236.490916 
L 373.513846 194.688 
L 374.703057 213.871606 
L 375.892268 209.123437 
L 377.081479 199.286692 
L 378.270689 196.039137 
L 379.4599 209.968747 
L 380.649111 213.956091 
L 381.838322 206.71293 
L 383.027532 209.519502 
L 384.216743 242.429267 
L 385.405954 233.936676 
L 386.595165 238.747202 
L 387.784376 230.788952 
L 388.973586 233.243226 
L 390.162797 240.079529 
L 391.352008 249.837144 
L 392.541219 253.554821 
L 393.73043 265.106353 
L 394.91964 248.510765 
L 396.108851 282.368925 
L 397.298062 258.890656 
L 398.487273 273.0825 
L 398.487273 273.0825 
" style="fill:none;stroke:#0343df;stroke-linecap:square;stroke-width:2;"/>
   </g>
   <g id="patch_8">
    <path d="M 57.6 307.584 
L 57.6 189.312 
" style="fill:none;stroke:#000000;stroke-linecap:square;stroke-linejoin:miter;stroke-width:0.8;"/>
   </g>
   <g id="patch_9">
    <path d="M 414.72 307.584 
L 414.72 189.312 
" style="fill:none;stroke:#000000;stroke-linecap:square;stroke-linejoin:miter;stroke-width:0.8;"/>
   </g>
   <g id="patch_10">
    <path d="M 57.6 307.584 
L 414.72 307.584 
" style="fill:none;stroke:#000000;stroke-linecap:square;stroke-linejoin:miter;stroke-width:0.8;"/>
   </g>
   <g id="patch_11">
    <path d="M 57.6 189.312 
L 414.72 189.312 
" style="fill:none;stroke:#000000;stroke-linecap:square;stroke-linejoin:miter;stroke-width:0.8;"/>
   </g>
  </g>
 </g>
 <defs>
  <clipPath id="p8168cf3619">
   <rect height="118.272" width="357.12" x="57.6" y="41.472"/>
  </clipPath>
  <clipPath id="p827f8b3cc7">
   <rect height="118.272" width="357.12" x="57.6" y="189.312"/>
  </clipPath>
 </defs>
</svg>
