<?xml version="1.0" encoding="utf-8" standalone="no"?>
<!DOCTYPE svg PUBLIC "-//W3C//DTD SVG 1.1//EN"
  "http://www.w3.org/Graphics/SVG/1.1/DTD/svg11.dtd">
<!-- Created with matplotlib (http://matplotlib.org/) -->
<svg height="345.6pt" version="1.1" viewBox="0 0 460.8 345.6" width="460.8pt" xmlns="http://www.w3.org/2000/svg" xmlns:xlink="http://www.w3.org/1999/xlink">
 <defs>
  <style type="text/css">
*{stroke-linecap:butt;stroke-linejoin:round;}
  </style>
 </defs>
 <g id="figure_1">
  <g id="patch_1">
   <path d="M 0 345.6 
L 460.8 345.6 
L 460.8 0 
L 0 0 
z
" style="fill:#ffffff;"/>
  </g>
  <g id="axes_1">
   <g id="patch_2">
    <path d="M 57.6 159.744 
L 414.72 159.744 
L 414.72 41.472 
L 57.6 41.472 
z
" style="fill:#ffffff;"/>
   </g>
   <g id="matplotlib.axis_1">
    <g id="xtick_1">
     <g id="line2d_1">
      <defs>
       <path d="M 0 0 
L 0 3.5 
" id="md0bb5c3a26" style="stroke:#000000;stroke-width:0.8;"/>
      </defs>
      <g>
       <use style="stroke:#000000;stroke-width:0.8;" x="57.183776" xlink:href="#md0bb5c3a26" y="159.744"/>
      </g>
     </g>
     <g id="text_1">
      <!-- 0 -->
      <defs>
       <path d="M 31.78125 66.40625 
Q 24.171875 66.40625 20.328125 58.90625 
Q 16.5 51.421875 16.5 36.375 
Q 16.5 21.390625 20.328125 13.890625 
Q 24.171875 6.390625 31.78125 6.390625 
Q 39.453125 6.390625 43.28125 13.890625 
Q 47.125 21.390625 47.125 36.375 
Q 47.125 51.421875 43.28125 58.90625 
Q 39.453125 66.40625 31.78125 66.40625 
z
M 31.78125 74.21875 
Q 44.046875 74.21875 50.515625 64.515625 
Q 56.984375 54.828125 56.984375 36.375 
Q 56.984375 17.96875 50.515625 8.265625 
Q 44.046875 -1.421875 31.78125 -1.421875 
Q 19.53125 -1.421875 13.0625 8.265625 
Q 6.59375 17.96875 6.59375 36.375 
Q 6.59375 54.828125 13.0625 64.515625 
Q 19.53125 74.21875 31.78125 74.21875 
z
" id="DejaVuSans-30"/>
      </defs>
      <g transform="translate(54.002526 174.342437)scale(0.1 -0.1)">
       <use xlink:href="#DejaVuSans-30"/>
      </g>
     </g>
    </g>
    <g id="xtick_2">
     <g id="line2d_2">
      <g>
       <use style="stroke:#000000;stroke-width:0.8;" x="98.475818" xlink:href="#md0bb5c3a26" y="159.744"/>
      </g>
     </g>
     <g id="text_2">
      <!-- 25 -->
      <defs>
       <path d="M 19.1875 8.296875 
L 53.609375 8.296875 
L 53.609375 0 
L 7.328125 0 
L 7.328125 8.296875 
Q 12.9375 14.109375 22.625 23.890625 
Q 32.328125 33.6875 34.8125 36.53125 
Q 39.546875 41.84375 41.421875 45.53125 
Q 43.3125 49.21875 43.3125 52.78125 
Q 43.3125 58.59375 39.234375 62.25 
Q 35.15625 65.921875 28.609375 65.921875 
Q 23.96875 65.921875 18.8125 64.3125 
Q 13.671875 62.703125 7.8125 59.421875 
L 7.8125 69.390625 
Q 13.765625 71.78125 18.9375 73 
Q 24.125 74.21875 28.421875 74.21875 
Q 39.75 74.21875 46.484375 68.546875 
Q 53.21875 62.890625 53.21875 53.421875 
Q 53.21875 48.921875 51.53125 44.890625 
Q 49.859375 40.875 45.40625 35.40625 
Q 44.1875 33.984375 37.640625 27.21875 
Q 31.109375 20.453125 19.1875 8.296875 
z
" id="DejaVuSans-32"/>
       <path d="M 10.796875 72.90625 
L 49.515625 72.90625 
L 49.515625 64.59375 
L 19.828125 64.59375 
L 19.828125 46.734375 
Q 21.96875 47.46875 24.109375 47.828125 
Q 26.265625 48.1875 28.421875 48.1875 
Q 40.625 48.1875 47.75 41.5 
Q 54.890625 34.8125 54.890625 23.390625 
Q 54.890625 11.625 47.5625 5.09375 
Q 40.234375 -1.421875 26.90625 -1.421875 
Q 22.3125 -1.421875 17.546875 -0.640625 
Q 12.796875 0.140625 7.71875 1.703125 
L 7.71875 11.625 
Q 12.109375 9.234375 16.796875 8.0625 
Q 21.484375 6.890625 26.703125 6.890625 
Q 35.15625 6.890625 40.078125 11.328125 
Q 45.015625 15.765625 45.015625 23.390625 
Q 45.015625 31 40.078125 35.4375 
Q 35.15625 39.890625 26.703125 39.890625 
Q 22.75 39.890625 18.8125 39.015625 
Q 14.890625 38.140625 10.796875 36.28125 
z
" id="DejaVuSans-35"/>
      </defs>
      <g transform="translate(92.113318 174.342437)scale(0.1 -0.1)">
       <use xlink:href="#DejaVuSans-32"/>
       <use x="63.623047" xlink:href="#DejaVuSans-35"/>
      </g>
     </g>
    </g>
    <g id="xtick_3">
     <g id="line2d_3">
      <g>
       <use style="stroke:#000000;stroke-width:0.8;" x="139.767859" xlink:href="#md0bb5c3a26" y="159.744"/>
      </g>
     </g>
     <g id="text_3">
      <!-- 50 -->
      <g transform="translate(133.405359 174.342437)scale(0.1 -0.1)">
       <use xlink:href="#DejaVuSans-35"/>
       <use x="63.623047" xlink:href="#DejaVuSans-30"/>
      </g>
     </g>
    </g>
    <g id="xtick_4">
     <g id="line2d_4">
      <g>
       <use style="stroke:#000000;stroke-width:0.8;" x="181.0599" xlink:href="#md0bb5c3a26" y="159.744"/>
      </g>
     </g>
     <g id="text_4">
      <!-- 75 -->
      <defs>
       <path d="M 8.203125 72.90625 
L 55.078125 72.90625 
L 55.078125 68.703125 
L 28.609375 0 
L 18.3125 0 
L 43.21875 64.59375 
L 8.203125 64.59375 
z
" id="DejaVuSans-37"/>
      </defs>
      <g transform="translate(174.6974 174.342437)scale(0.1 -0.1)">
       <use xlink:href="#DejaVuSans-37"/>
       <use x="63.623047" xlink:href="#DejaVuSans-35"/>
      </g>
     </g>
    </g>
    <g id="xtick_5">
     <g id="line2d_5">
      <g>
       <use style="stroke:#000000;stroke-width:0.8;" x="222.351941" xlink:href="#md0bb5c3a26" y="159.744"/>
      </g>
     </g>
     <g id="text_5">
      <!-- 100 -->
      <defs>
       <path d="M 12.40625 8.296875 
L 28.515625 8.296875 
L 28.515625 63.921875 
L 10.984375 60.40625 
L 10.984375 69.390625 
L 28.421875 72.90625 
L 38.28125 72.90625 
L 38.28125 8.296875 
L 54.390625 8.296875 
L 54.390625 0 
L 12.40625 0 
z
" id="DejaVuSans-31"/>
      </defs>
      <g transform="translate(212.808191 174.342437)scale(0.1 -0.1)">
       <use xlink:href="#DejaVuSans-31"/>
       <use x="63.623047" xlink:href="#DejaVuSans-30"/>
       <use x="127.246094" xlink:href="#DejaVuSans-30"/>
      </g>
     </g>
    </g>
    <g id="xtick_6">
     <g id="line2d_6">
      <g>
       <use style="stroke:#000000;stroke-width:0.8;" x="263.643983" xlink:href="#md0bb5c3a26" y="159.744"/>
      </g>
     </g>
     <g id="text_6">
      <!-- 125 -->
      <g transform="translate(254.100233 174.342437)scale(0.1 -0.1)">
       <use xlink:href="#DejaVuSans-31"/>
       <use x="63.623047" xlink:href="#DejaVuSans-32"/>
       <use x="127.246094" xlink:href="#DejaVuSans-35"/>
      </g>
     </g>
    </g>
    <g id="xtick_7">
     <g id="line2d_7">
      <g>
       <use style="stroke:#000000;stroke-width:0.8;" x="304.936024" xlink:href="#md0bb5c3a26" y="159.744"/>
      </g>
     </g>
     <g id="text_7">
      <!-- 150 -->
      <g transform="translate(295.392274 174.342437)scale(0.1 -0.1)">
       <use xlink:href="#DejaVuSans-31"/>
       <use x="63.623047" xlink:href="#DejaVuSans-35"/>
       <use x="127.246094" xlink:href="#DejaVuSans-30"/>
      </g>
     </g>
    </g>
    <g id="xtick_8">
     <g id="line2d_8">
      <g>
       <use style="stroke:#000000;stroke-width:0.8;" x="346.228065" xlink:href="#md0bb5c3a26" y="159.744"/>
      </g>
     </g>
     <g id="text_8">
      <!-- 175 -->
      <g transform="translate(336.684315 174.342437)scale(0.1 -0.1)">
       <use xlink:href="#DejaVuSans-31"/>
       <use x="63.623047" xlink:href="#DejaVuSans-37"/>
       <use x="127.246094" xlink:href="#DejaVuSans-35"/>
      </g>
     </g>
    </g>
    <g id="xtick_9">
     <g id="line2d_9">
      <g>
       <use style="stroke:#000000;stroke-width:0.8;" x="387.520107" xlink:href="#md0bb5c3a26" y="159.744"/>
      </g>
     </g>
     <g id="text_9">
      <!-- 200 -->
      <g transform="translate(377.976357 174.342437)scale(0.1 -0.1)">
       <use xlink:href="#DejaVuSans-32"/>
       <use x="63.623047" xlink:href="#DejaVuSans-30"/>
       <use x="127.246094" xlink:href="#DejaVuSans-30"/>
      </g>
     </g>
    </g>
   </g>
   <g id="matplotlib.axis_2">
    <g id="ytick_1">
     <g id="line2d_10">
      <defs>
       <path d="M 0 0 
L -3.5 0 
" id="m9e738a00f9" style="stroke:#000000;stroke-width:0.8;"/>
      </defs>
      <g>
       <use style="stroke:#000000;stroke-width:0.8;" x="57.6" xlink:href="#m9e738a00f9" y="138.602913"/>
      </g>
     </g>
     <g id="text_10">
      <!-- −4 -->
      <defs>
       <path d="M 10.59375 35.5 
L 73.1875 35.5 
L 73.1875 27.203125 
L 10.59375 27.203125 
z
" id="DejaVuSans-2212"/>
       <path d="M 37.796875 64.3125 
L 12.890625 25.390625 
L 37.796875 25.390625 
z
M 35.203125 72.90625 
L 47.609375 72.90625 
L 47.609375 25.390625 
L 58.015625 25.390625 
L 58.015625 17.1875 
L 47.609375 17.1875 
L 47.609375 0 
L 37.796875 0 
L 37.796875 17.1875 
L 4.890625 17.1875 
L 4.890625 26.703125 
z
" id="DejaVuSans-34"/>
      </defs>
      <g transform="translate(35.857813 142.402132)scale(0.1 -0.1)">
       <use xlink:href="#DejaVuSans-2212"/>
       <use x="83.789062" xlink:href="#DejaVuSans-34"/>
      </g>
     </g>
    </g>
    <g id="ytick_2">
     <g id="line2d_11">
      <g>
       <use style="stroke:#000000;stroke-width:0.8;" x="57.6" xlink:href="#m9e738a00f9" y="104.814003"/>
      </g>
     </g>
     <g id="text_11">
      <!-- −2 -->
      <g transform="translate(35.857813 108.613222)scale(0.1 -0.1)">
       <use xlink:href="#DejaVuSans-2212"/>
       <use x="83.789062" xlink:href="#DejaVuSans-32"/>
      </g>
     </g>
    </g>
    <g id="ytick_3">
     <g id="line2d_12">
      <g>
       <use style="stroke:#000000;stroke-width:0.8;" x="57.6" xlink:href="#m9e738a00f9" y="71.025092"/>
      </g>
     </g>
     <g id="text_12">
      <!-- 0 -->
      <g transform="translate(44.2375 74.824311)scale(0.1 -0.1)">
       <use xlink:href="#DejaVuSans-30"/>
      </g>
     </g>
    </g>
   </g>
   <g id="line2d_13">
    <path clip-path="url(#pf99c9d6ced)" d="M 73.832727 70.974223 
L 85.724835 61.460114 
L 99.995365 88.071774 
L 114.265894 62.139192 
L 128.536424 61.842177 
L 142.806953 79.637902 
L 157.077483 46.848 
L 171.348012 86.910293 
L 185.618541 82.892945 
L 199.889071 85.40429 
L 214.1596 79.537464 
L 228.43013 75.308477 
L 242.700659 87.583183 
L 256.971189 68.719981 
L 271.241718 77.810313 
L 285.512248 59.892209 
L 299.782777 65.325923 
L 314.053307 76.346265 
L 328.323836 64.046583 
L 342.594366 122.175717 
L 356.864895 134.599526 
L 371.135425 79.172451 
L 385.405954 64.962551 
L 398.487273 154.368 
L 398.487273 154.368 
" style="fill:none;stroke:#ff0000;stroke-linecap:square;stroke-width:2;"/>
   </g>
   <g id="patch_3">
    <path d="M 57.6 159.744 
L 57.6 41.472 
" style="fill:none;stroke:#000000;stroke-linecap:square;stroke-linejoin:miter;stroke-width:0.8;"/>
   </g>
   <g id="patch_4">
    <path d="M 414.72 159.744 
L 414.72 41.472 
" style="fill:none;stroke:#000000;stroke-linecap:square;stroke-linejoin:miter;stroke-width:0.8;"/>
   </g>
   <g id="patch_5">
    <path d="M 57.6 159.744 
L 414.72 159.744 
" style="fill:none;stroke:#000000;stroke-linecap:square;stroke-linejoin:miter;stroke-width:0.8;"/>
   </g>
   <g id="patch_6">
    <path d="M 57.6 41.472 
L 414.72 41.472 
" style="fill:none;stroke:#000000;stroke-linecap:square;stroke-linejoin:miter;stroke-width:0.8;"/>
   </g>
  </g>
  <g id="axes_2">
   <g id="patch_7">
    <path d="M 57.6 307.584 
L 414.72 307.584 
L 414.72 189.312 
L 57.6 189.312 
z
" style="fill:#ffffff;"/>
   </g>
   <g id="matplotlib.axis_3">
    <g id="xtick_10">
     <g id="line2d_14">
      <g>
       <use style="stroke:#000000;stroke-width:0.8;" x="57.183776" xlink:href="#md0bb5c3a26" y="307.584"/>
      </g>
     </g>
     <g id="text_13">
      <!-- 0 -->
      <g transform="translate(54.002526 322.182437)scale(0.1 -0.1)">
       <use xlink:href="#DejaVuSans-30"/>
      </g>
     </g>
    </g>
    <g id="xtick_11">
     <g id="line2d_15">
      <g>
       <use style="stroke:#000000;stroke-width:0.8;" x="98.475818" xlink:href="#md0bb5c3a26" y="307.584"/>
      </g>
     </g>
     <g id="text_14">
      <!-- 25 -->
      <g transform="translate(92.113318 322.182437)scale(0.1 -0.1)">
       <use xlink:href="#DejaVuSans-32"/>
       <use x="63.623047" xlink:href="#DejaVuSans-35"/>
      </g>
     </g>
    </g>
    <g id="xtick_12">
     <g id="line2d_16">
      <g>
       <use style="stroke:#000000;stroke-width:0.8;" x="139.767859" xlink:href="#md0bb5c3a26" y="307.584"/>
      </g>
     </g>
     <g id="text_15">
      <!-- 50 -->
      <g transform="translate(133.405359 322.182437)scale(0.1 -0.1)">
       <use xlink:href="#DejaVuSans-35"/>
       <use x="63.623047" xlink:href="#DejaVuSans-30"/>
      </g>
     </g>
    </g>
    <g id="xtick_13">
     <g id="line2d_17">
      <g>
       <use style="stroke:#000000;stroke-width:0.8;" x="181.0599" xlink:href="#md0bb5c3a26" y="307.584"/>
      </g>
     </g>
     <g id="text_16">
      <!-- 75 -->
      <g transform="translate(174.6974 322.182437)scale(0.1 -0.1)">
       <use xlink:href="#DejaVuSans-37"/>
       <use x="63.623047" xlink:href="#DejaVuSans-35"/>
      </g>
     </g>
    </g>
    <g id="xtick_14">
     <g id="line2d_18">
      <g>
       <use style="stroke:#000000;stroke-width:0.8;" x="222.351941" xlink:href="#md0bb5c3a26" y="307.584"/>
      </g>
     </g>
     <g id="text_17">
      <!-- 100 -->
      <g transform="translate(212.808191 322.182437)scale(0.1 -0.1)">
       <use xlink:href="#DejaVuSans-31"/>
       <use x="63.623047" xlink:href="#DejaVuSans-30"/>
       <use x="127.246094" xlink:href="#DejaVuSans-30"/>
      </g>
     </g>
    </g>
    <g id="xtick_15">
     <g id="line2d_19">
      <g>
       <use style="stroke:#000000;stroke-width:0.8;" x="263.643983" xlink:href="#md0bb5c3a26" y="307.584"/>
      </g>
     </g>
     <g id="text_18">
      <!-- 125 -->
      <g transform="translate(254.100233 322.182437)scale(0.1 -0.1)">
       <use xlink:href="#DejaVuSans-31"/>
       <use x="63.623047" xlink:href="#DejaVuSans-32"/>
       <use x="127.246094" xlink:href="#DejaVuSans-35"/>
      </g>
     </g>
    </g>
    <g id="xtick_16">
     <g id="line2d_20">
      <g>
       <use style="stroke:#000000;stroke-width:0.8;" x="304.936024" xlink:href="#md0bb5c3a26" y="307.584"/>
      </g>
     </g>
     <g id="text_19">
      <!-- 150 -->
      <g transform="translate(295.392274 322.182437)scale(0.1 -0.1)">
       <use xlink:href="#DejaVuSans-31"/>
       <use x="63.623047" xlink:href="#DejaVuSans-35"/>
       <use x="127.246094" xlink:href="#DejaVuSans-30"/>
      </g>
     </g>
    </g>
    <g id="xtick_17">
     <g id="line2d_21">
      <g>
       <use style="stroke:#000000;stroke-width:0.8;" x="346.228065" xlink:href="#md0bb5c3a26" y="307.584"/>
      </g>
     </g>
     <g id="text_20">
      <!-- 175 -->
      <g transform="translate(336.684315 322.182437)scale(0.1 -0.1)">
       <use xlink:href="#DejaVuSans-31"/>
       <use x="63.623047" xlink:href="#DejaVuSans-37"/>
       <use x="127.246094" xlink:href="#DejaVuSans-35"/>
      </g>
     </g>
    </g>
    <g id="xtick_18">
     <g id="line2d_22">
      <g>
       <use style="stroke:#000000;stroke-width:0.8;" x="387.520107" xlink:href="#md0bb5c3a26" y="307.584"/>
      </g>
     </g>
     <g id="text_21">
      <!-- 200 -->
      <g transform="translate(377.976357 322.182437)scale(0.1 -0.1)">
       <use xlink:href="#DejaVuSans-32"/>
       <use x="63.623047" xlink:href="#DejaVuSans-30"/>
       <use x="127.246094" xlink:href="#DejaVuSans-30"/>
      </g>
     </g>
    </g>
    <g id="text_22">
     <!-- Time (Sec) -->
     <defs>
      <path d="M -0.296875 72.90625 
L 61.375 72.90625 
L 61.375 64.59375 
L 35.5 64.59375 
L 35.5 0 
L 25.59375 0 
L 25.59375 64.59375 
L -0.296875 64.59375 
z
" id="DejaVuSans-54"/>
      <path d="M 9.421875 54.6875 
L 18.40625 54.6875 
L 18.40625 0 
L 9.421875 0 
z
M 9.421875 75.984375 
L 18.40625 75.984375 
L 18.40625 64.59375 
L 9.421875 64.59375 
z
" id="DejaVuSans-69"/>
      <path d="M 52 44.1875 
Q 55.375 50.25 60.0625 53.125 
Q 64.75 56 71.09375 56 
Q 79.640625 56 84.28125 50.015625 
Q 88.921875 44.046875 88.921875 33.015625 
L 88.921875 0 
L 79.890625 0 
L 79.890625 32.71875 
Q 79.890625 40.578125 77.09375 44.375 
Q 74.3125 48.1875 68.609375 48.1875 
Q 61.625 48.1875 57.5625 43.546875 
Q 53.515625 38.921875 53.515625 30.90625 
L 53.515625 0 
L 44.484375 0 
L 44.484375 32.71875 
Q 44.484375 40.625 41.703125 44.40625 
Q 38.921875 48.1875 33.109375 48.1875 
Q 26.21875 48.1875 22.15625 43.53125 
Q 18.109375 38.875 18.109375 30.90625 
L 18.109375 0 
L 9.078125 0 
L 9.078125 54.6875 
L 18.109375 54.6875 
L 18.109375 46.1875 
Q 21.1875 51.21875 25.484375 53.609375 
Q 29.78125 56 35.6875 56 
Q 41.65625 56 45.828125 52.96875 
Q 50 49.953125 52 44.1875 
z
" id="DejaVuSans-6d"/>
      <path d="M 56.203125 29.59375 
L 56.203125 25.203125 
L 14.890625 25.203125 
Q 15.484375 15.921875 20.484375 11.0625 
Q 25.484375 6.203125 34.421875 6.203125 
Q 39.59375 6.203125 44.453125 7.46875 
Q 49.3125 8.734375 54.109375 11.28125 
L 54.109375 2.78125 
Q 49.265625 0.734375 44.1875 -0.34375 
Q 39.109375 -1.421875 33.890625 -1.421875 
Q 20.796875 -1.421875 13.15625 6.1875 
Q 5.515625 13.8125 5.515625 26.8125 
Q 5.515625 40.234375 12.765625 48.109375 
Q 20.015625 56 32.328125 56 
Q 43.359375 56 49.78125 48.890625 
Q 56.203125 41.796875 56.203125 29.59375 
z
M 47.21875 32.234375 
Q 47.125 39.59375 43.09375 43.984375 
Q 39.0625 48.390625 32.421875 48.390625 
Q 24.90625 48.390625 20.390625 44.140625 
Q 15.875 39.890625 15.1875 32.171875 
z
" id="DejaVuSans-65"/>
      <path id="DejaVuSans-20"/>
      <path d="M 31 75.875 
Q 24.46875 64.65625 21.28125 53.65625 
Q 18.109375 42.671875 18.109375 31.390625 
Q 18.109375 20.125 21.3125 9.0625 
Q 24.515625 -2 31 -13.1875 
L 23.1875 -13.1875 
Q 15.875 -1.703125 12.234375 9.375 
Q 8.59375 20.453125 8.59375 31.390625 
Q 8.59375 42.28125 12.203125 53.3125 
Q 15.828125 64.359375 23.1875 75.875 
z
" id="DejaVuSans-28"/>
      <path d="M 53.515625 70.515625 
L 53.515625 60.890625 
Q 47.90625 63.578125 42.921875 64.890625 
Q 37.9375 66.21875 33.296875 66.21875 
Q 25.25 66.21875 20.875 63.09375 
Q 16.5 59.96875 16.5 54.203125 
Q 16.5 49.359375 19.40625 46.890625 
Q 22.3125 44.4375 30.421875 42.921875 
L 36.375 41.703125 
Q 47.40625 39.59375 52.65625 34.296875 
Q 57.90625 29 57.90625 20.125 
Q 57.90625 9.515625 50.796875 4.046875 
Q 43.703125 -1.421875 29.984375 -1.421875 
Q 24.8125 -1.421875 18.96875 -0.25 
Q 13.140625 0.921875 6.890625 3.21875 
L 6.890625 13.375 
Q 12.890625 10.015625 18.65625 8.296875 
Q 24.421875 6.59375 29.984375 6.59375 
Q 38.421875 6.59375 43.015625 9.90625 
Q 47.609375 13.234375 47.609375 19.390625 
Q 47.609375 24.75 44.3125 27.78125 
Q 41.015625 30.8125 33.5 32.328125 
L 27.484375 33.5 
Q 16.453125 35.6875 11.515625 40.375 
Q 6.59375 45.0625 6.59375 53.421875 
Q 6.59375 63.09375 13.40625 68.65625 
Q 20.21875 74.21875 32.171875 74.21875 
Q 37.3125 74.21875 42.625 73.28125 
Q 47.953125 72.359375 53.515625 70.515625 
z
" id="DejaVuSans-53"/>
      <path d="M 48.78125 52.59375 
L 48.78125 44.1875 
Q 44.96875 46.296875 41.140625 47.34375 
Q 37.3125 48.390625 33.40625 48.390625 
Q 24.65625 48.390625 19.8125 42.84375 
Q 14.984375 37.3125 14.984375 27.296875 
Q 14.984375 17.28125 19.8125 11.734375 
Q 24.65625 6.203125 33.40625 6.203125 
Q 37.3125 6.203125 41.140625 7.25 
Q 44.96875 8.296875 48.78125 10.40625 
L 48.78125 2.09375 
Q 45.015625 0.34375 40.984375 -0.53125 
Q 36.96875 -1.421875 32.421875 -1.421875 
Q 20.0625 -1.421875 12.78125 6.34375 
Q 5.515625 14.109375 5.515625 27.296875 
Q 5.515625 40.671875 12.859375 48.328125 
Q 20.21875 56 33.015625 56 
Q 37.15625 56 41.109375 55.140625 
Q 45.0625 54.296875 48.78125 52.59375 
z
" id="DejaVuSans-63"/>
      <path d="M 8.015625 75.875 
L 15.828125 75.875 
Q 23.140625 64.359375 26.78125 53.3125 
Q 30.421875 42.28125 30.421875 31.390625 
Q 30.421875 20.453125 26.78125 9.375 
Q 23.140625 -1.703125 15.828125 -13.1875 
L 8.015625 -13.1875 
Q 14.5 -2 17.703125 9.0625 
Q 20.90625 20.125 20.90625 31.390625 
Q 20.90625 42.671875 17.703125 53.65625 
Q 14.5 64.65625 8.015625 75.875 
z
" id="DejaVuSans-29"/>
     </defs>
     <g transform="translate(209.281875 335.860562)scale(0.1 -0.1)">
      <use xlink:href="#DejaVuSans-54"/>
      <use x="61.037109" xlink:href="#DejaVuSans-69"/>
      <use x="88.820312" xlink:href="#DejaVuSans-6d"/>
      <use x="186.232422" xlink:href="#DejaVuSans-65"/>
      <use x="247.755859" xlink:href="#DejaVuSans-20"/>
      <use x="279.542969" xlink:href="#DejaVuSans-28"/>
      <use x="318.556641" xlink:href="#DejaVuSans-53"/>
      <use x="382.033203" xlink:href="#DejaVuSans-65"/>
      <use x="443.556641" xlink:href="#DejaVuSans-63"/>
      <use x="498.537109" xlink:href="#DejaVuSans-29"/>
     </g>
    </g>
   </g>
   <g id="matplotlib.axis_4">
    <g id="ytick_4">
     <g id="line2d_23">
      <g>
       <use style="stroke:#000000;stroke-width:0.8;" x="57.6" xlink:href="#m9e738a00f9" y="297.369714"/>
      </g>
     </g>
     <g id="text_23">
      <!-- −20 -->
      <g transform="translate(29.495313 301.168932)scale(0.1 -0.1)">
       <use xlink:href="#DejaVuSans-2212"/>
       <use x="83.789062" xlink:href="#DejaVuSans-32"/>
       <use x="147.412109" xlink:href="#DejaVuSans-30"/>
      </g>
     </g>
    </g>
    <g id="ytick_5">
     <g id="line2d_24">
      <g>
       <use style="stroke:#000000;stroke-width:0.8;" x="57.6" xlink:href="#m9e738a00f9" y="272.380819"/>
      </g>
     </g>
     <g id="text_24">
      <!-- −10 -->
      <g transform="translate(29.495313 276.180037)scale(0.1 -0.1)">
       <use xlink:href="#DejaVuSans-2212"/>
       <use x="83.789062" xlink:href="#DejaVuSans-31"/>
       <use x="147.412109" xlink:href="#DejaVuSans-30"/>
      </g>
     </g>
    </g>
    <g id="ytick_6">
     <g id="line2d_25">
      <g>
       <use style="stroke:#000000;stroke-width:0.8;" x="57.6" xlink:href="#m9e738a00f9" y="247.391924"/>
      </g>
     </g>
     <g id="text_25">
      <!-- 0 -->
      <g transform="translate(44.2375 251.191143)scale(0.1 -0.1)">
       <use xlink:href="#DejaVuSans-30"/>
      </g>
     </g>
    </g>
    <g id="ytick_7">
     <g id="line2d_26">
      <g>
       <use style="stroke:#000000;stroke-width:0.8;" x="57.6" xlink:href="#m9e738a00f9" y="222.403029"/>
      </g>
     </g>
     <g id="text_26">
      <!-- 10 -->
      <g transform="translate(37.875 226.202248)scale(0.1 -0.1)">
       <use xlink:href="#DejaVuSans-31"/>
       <use x="63.623047" xlink:href="#DejaVuSans-30"/>
      </g>
     </g>
    </g>
    <g id="ytick_8">
     <g id="line2d_27">
      <g>
       <use style="stroke:#000000;stroke-width:0.8;" x="57.6" xlink:href="#m9e738a00f9" y="197.414134"/>
      </g>
     </g>
     <g id="text_27">
      <!-- 20 -->
      <g transform="translate(37.875 201.213353)scale(0.1 -0.1)">
       <use xlink:href="#DejaVuSans-32"/>
       <use x="63.623047" xlink:href="#DejaVuSans-30"/>
      </g>
     </g>
    </g>
   </g>
   <g id="line2d_28">
    <path clip-path="url(#pcd178107f2)" d="M 73.832727 247.01053 
L 76.211149 244.944847 
L 77.40036 244.123755 
L 78.58957 243.71542 
L 79.778781 243.889901 
L 80.967992 244.732909 
L 82.157203 246.209438 
L 85.724835 251.894074 
L 86.914046 253.017184 
L 88.103257 253.307427 
L 89.292468 252.710081 
L 90.481678 251.335737 
L 91.670889 249.426731 
L 94.049311 245.199985 
L 95.238521 243.387177 
L 96.427732 241.985415 
L 97.616943 241.075294 
L 98.806154 240.703721 
L 99.995365 240.888299 
L 101.184575 241.6115 
L 102.373786 242.816074 
L 105.941419 247.683806 
L 107.130629 248.776035 
L 108.31984 249.118139 
L 109.509051 248.563964 
L 110.698262 247.139952 
L 114.265894 241.029643 
L 115.455105 240.001977 
L 116.644316 240.093049 
L 117.833526 241.374453 
L 119.022737 243.676953 
L 122.59037 252.723414 
L 123.77958 255.117324 
L 124.968791 256.80866 
L 126.158002 257.776348 
L 127.347213 258.11134 
L 128.536424 257.969572 
L 129.725634 257.525666 
L 134.482478 255.239816 
L 138.05011 253.752393 
L 140.428531 252.56609 
L 146.374585 249.428712 
L 147.563796 248.968833 
L 148.753007 248.671912 
L 149.942218 248.609387 
L 151.131429 248.835605 
L 152.320639 249.370114 
L 153.50985 250.178871 
L 155.888272 252.10036 
L 157.077483 252.818458 
L 158.266693 253.125984 
L 159.455904 252.917026 
L 160.645115 252.183268 
L 161.834326 251.029934 
L 164.212747 248.312566 
L 165.401958 247.210159 
L 166.591169 246.501105 
L 167.78038 246.236861 
L 168.96959 246.352403 
L 171.348012 247.008515 
L 172.537223 247.135263 
L 173.726434 246.922754 
L 174.915644 246.320802 
L 176.104855 245.384213 
L 178.483277 243.13488 
L 179.672488 242.188712 
L 180.861698 241.546056 
L 182.050909 241.269293 
L 183.24012 241.368819 
L 184.429331 241.820712 
L 185.618541 242.579874 
L 186.807752 243.588408 
L 189.186174 246.079639 
L 191.564595 248.526933 
L 192.753806 249.389443 
L 193.943017 249.849888 
L 195.132228 249.855334 
L 196.321439 249.452486 
L 197.510649 248.846689 
L 198.69986 248.399287 
L 199.889071 248.531397 
L 201.078282 249.598638 
L 202.267493 251.803307 
L 203.456703 255.148426 
L 204.645914 259.418644 
L 208.213546 273.597862 
L 209.402757 277.444303 
L 210.591968 280.435168 
L 211.781179 282.408719 
L 212.97039 283.183015 
L 214.1596 282.588828 
L 215.348811 280.538627 
L 216.538022 277.073669 
L 217.727233 272.384695 
L 220.105654 260.839129 
L 222.484076 249.529311 
L 223.673287 244.9057 
L 224.862498 241.264018 
L 226.051708 238.842761 
L 227.240919 237.983341 
L 228.43013 239.048543 
L 229.619341 242.283653 
L 230.808551 247.712675 
L 231.997762 255.024045 
L 234.376184 271.649923 
L 235.565395 278.31001 
L 236.754605 282.218822 
L 237.943816 282.676195 
L 239.133027 279.585733 
L 240.322238 273.485623 
L 242.700659 256.653976 
L 243.88987 248.358987 
L 245.079081 241.402678 
L 246.268292 236.276298 
L 247.457502 233.139819 
L 248.646713 231.913032 
L 249.835924 232.361564 
L 251.025135 234.165537 
L 252.214346 236.974932 
L 253.403556 240.462012 
L 255.781978 248.540127 
L 259.34961 261.925242 
L 261.728032 270.793231 
L 262.917243 274.39707 
L 264.106454 276.798614 
L 265.295664 277.590472 
L 266.484875 276.572312 
L 267.674086 273.799449 
L 268.863297 269.587834 
L 273.62014 249.079591 
L 274.809351 245.296821 
L 275.998561 242.5668 
L 277.187772 241.053025 
L 278.376983 240.881023 
L 279.566194 242.093143 
L 280.755405 244.617979 
L 281.944615 248.247614 
L 285.512248 261.498901 
L 286.701459 265.037062 
L 287.890669 267.53663 
L 289.07988 268.89435 
L 290.269091 269.161785 
L 291.458302 268.496299 
L 292.647512 267.110024 
L 293.836723 265.227368 
L 296.215145 260.710863 
L 297.404356 258.184756 
L 298.593566 255.28684 
L 299.782777 251.747471 
L 300.971988 247.329435 
L 302.161199 241.916863 
L 304.53962 228.806244 
L 305.728831 222.236224 
L 306.918042 216.724863 
L 308.107253 212.978408 
L 309.296464 211.415419 
L 310.485674 212.109494 
L 311.674885 214.812823 
L 312.864096 219.045033 
L 315.242517 229.776313 
L 317.620939 240.340171 
L 319.999361 249.136753 
L 324.756204 265.356408 
L 327.134625 273.41125 
L 328.323836 276.329378 
L 329.513047 277.919878 
L 330.702258 277.943222 
L 331.891469 276.362264 
L 333.080679 273.281962 
L 334.26989 268.878673 
L 335.459101 263.362178 
L 336.648312 256.962505 
L 339.026733 242.533583 
L 341.405155 228.310905 
L 342.594366 222.445858 
L 343.783576 217.951276 
L 344.972787 215.020474 
L 346.161998 213.676728 
L 347.351209 213.86192 
L 348.54042 215.507971 
L 349.72963 218.540768 
L 350.918841 222.848272 
L 352.108052 228.254029 
L 354.486474 241.114373 
L 355.675684 247.590768 
L 356.864895 253.332427 
L 358.054106 257.868845 
L 359.243317 260.931387 
L 360.432527 262.514767 
L 361.621738 262.92672 
L 364.00016 262.664639 
L 365.189371 263.302563 
L 366.378581 265.070076 
L 367.567792 268.036118 
L 369.946214 275.396365 
L 371.135425 277.79818 
L 372.324635 278.022654 
L 373.513846 275.490858 
L 374.703057 270.134317 
L 375.892268 262.452004 
L 379.4599 235.818817 
L 380.649111 229.101379 
L 381.838322 224.407887 
L 383.027532 221.770914 
L 384.216743 220.961103 
L 385.405954 221.597053 
L 386.595165 223.245695 
L 387.784376 225.500144 
L 390.162797 230.791041 
L 391.352008 233.780125 
L 392.541219 237.214191 
L 393.73043 241.287274 
L 394.91964 246.108009 
L 397.298062 257.552559 
L 398.487273 263.386635 
L 398.487273 263.386635 
" style="fill:none;stroke:#ff0000;stroke-linecap:square;stroke-width:2;"/>
   </g>
   <g id="line2d_29">
    <path clip-path="url(#pcd178107f2)" d="M 73.832727 262.345313 
L 75.021938 236.812023 
L 76.211149 251.921359 
L 77.40036 249.470408 
L 78.58957 241.142149 
L 79.778781 251.753918 
L 80.967992 248.372629 
L 82.157203 232.310687 
L 83.346414 239.985666 
L 84.535624 259.080775 
L 85.724835 258.627516 
L 86.914046 236.118454 
L 88.103257 258.171237 
L 89.292468 249.971927 
L 90.481678 247.69557 
L 91.670889 272.815907 
L 92.8601 249.065292 
L 94.049311 242.818279 
L 95.238521 227.316255 
L 96.427732 246.250527 
L 97.616943 247.11067 
L 98.806154 221.724222 
L 99.995365 240.831619 
L 101.184575 270.687146 
L 102.373786 228.639429 
L 103.562997 244.823782 
L 104.752208 232.46197 
L 105.941419 255.224726 
L 107.130629 272.700955 
L 108.31984 230.791828 
L 109.509051 240.609891 
L 110.698262 251.505744 
L 111.887473 245.605652 
L 113.076683 244.262369 
L 114.265894 240.181402 
L 115.455105 242.853831 
L 116.644316 245.008287 
L 117.833526 239.963766 
L 119.022737 236.959074 
L 120.211948 237.587707 
L 121.401159 259.553173 
L 122.59037 259.891691 
L 123.77958 245.290473 
L 124.968791 264.089815 
L 126.158002 258.8908 
L 127.347213 247.581174 
L 128.536424 257.778763 
L 129.725634 257.01634 
L 130.914845 280.266815 
L 132.104056 244.665866 
L 133.293267 249.836788 
L 134.482478 248.984608 
L 135.671688 256.216283 
L 136.860899 260.030462 
L 138.05011 248.645782 
L 139.239321 268.034375 
L 140.428531 244.597462 
L 141.617742 251.800757 
L 142.806953 242.836643 
L 143.996164 256.510302 
L 145.185375 252.436203 
L 146.374585 243.208413 
L 147.563796 259.975169 
L 148.753007 240.074963 
L 149.942218 254.76357 
L 151.131429 241.549496 
L 152.320639 248.576196 
L 153.50985 254.011455 
L 154.699061 256.330987 
L 155.888272 246.082761 
L 157.077483 247.645441 
L 158.266693 264.9294 
L 160.645115 239.768029 
L 161.834326 251.463417 
L 163.023536 264.378001 
L 164.212747 245.094982 
L 165.401958 242.40763 
L 166.591169 230.531409 
L 167.78038 266.334329 
L 168.96959 239.765303 
L 170.158801 259.378506 
L 171.348012 251.227636 
L 172.537223 231.66656 
L 173.726434 233.131228 
L 174.915644 248.76111 
L 176.104855 249.281663 
L 177.294066 261.334539 
L 178.483277 232.240519 
L 179.672488 253.031934 
L 180.861698 250.793654 
L 182.050909 230.103362 
L 183.24012 234.627135 
L 184.429331 230.968822 
L 185.618541 244.044048 
L 186.807752 253.215694 
L 187.996963 230.831534 
L 189.186174 258.705346 
L 190.375385 251.370271 
L 191.564595 249.345508 
L 192.753806 253.020475 
L 193.943017 247.760619 
L 195.132228 241.344942 
L 196.321439 253.260388 
L 197.510649 259.69285 
L 198.69986 239.434225 
L 199.889071 240.183463 
L 201.078282 247.553268 
L 202.267493 237.734364 
L 203.456703 279.998984 
L 204.645914 262.498437 
L 205.835125 267.368034 
L 207.024336 263.660791 
L 208.213546 271.141663 
L 209.402757 284.080409 
L 210.591968 273.631648 
L 211.781179 277.083166 
L 212.97039 270.669631 
L 214.1596 302.208 
L 215.348811 281.911141 
L 216.538022 265.338777 
L 217.727233 294.123194 
L 218.916444 263.437525 
L 220.105654 244.437489 
L 221.294865 249.769581 
L 222.484076 256.50717 
L 223.673287 246.045565 
L 224.862498 244.505154 
L 226.051708 241.228587 
L 227.240919 234.837878 
L 228.43013 245.63525 
L 229.619341 239.811621 
L 230.808551 242.543819 
L 231.997762 254.138716 
L 233.186973 254.081117 
L 234.376184 287.815351 
L 235.565395 276.355092 
L 236.754605 277.412735 
L 237.943816 279.953265 
L 239.133027 300.713755 
L 240.322238 258.610659 
L 241.511449 263.200339 
L 242.700659 241.569377 
L 243.88987 265.801462 
L 245.079081 239.893915 
L 246.268292 238.455734 
L 247.457502 224.278671 
L 248.646713 247.05114 
L 249.835924 223.845979 
L 251.025135 240.670498 
L 253.403556 228.238136 
L 254.592767 240.917443 
L 255.781978 259.827816 
L 256.971189 256.084554 
L 258.1604 268.072716 
L 259.34961 246.995395 
L 260.538821 274.265777 
L 261.728032 262.589122 
L 262.917243 264.323841 
L 264.106454 285.751733 
L 265.295664 285.025118 
L 266.484875 270.109436 
L 267.674086 276.024719 
L 268.863297 275.860807 
L 270.052507 261.172289 
L 272.430929 248.355909 
L 273.62014 255.864844 
L 274.809351 242.566247 
L 275.998561 238.925555 
L 277.187772 257.455992 
L 278.376983 231.437446 
L 279.566194 247.142403 
L 280.755405 238.762294 
L 281.944615 247.234906 
L 283.133826 245.202964 
L 284.323037 256.930617 
L 285.512248 272.345745 
L 286.701459 267.027014 
L 287.890669 271.816818 
L 289.07988 269.016361 
L 290.269091 259.745544 
L 291.458302 263.081645 
L 292.647512 270.235724 
L 293.836723 265.084928 
L 295.025934 268.246786 
L 296.215145 252.086765 
L 297.404356 256.708633 
L 298.593566 267.926979 
L 299.782777 256.256508 
L 300.971988 232.968302 
L 302.161199 256.344334 
L 303.35041 240.745135 
L 304.53962 223.029927 
L 305.728831 194.688 
L 306.918042 223.540067 
L 308.107253 221.242772 
L 309.296464 223.758098 
L 310.485674 205.367957 
L 311.674885 213.12703 
L 312.864096 207.205325 
L 314.053307 240.272168 
L 315.242517 237.404499 
L 316.431728 228.719531 
L 317.620939 231.338373 
L 318.81015 254.876255 
L 319.999361 244.215841 
L 321.188571 247.874798 
L 322.377782 250.796648 
L 323.566993 268.330342 
L 324.756204 265.067018 
L 325.945415 272.382942 
L 327.134625 274.49857 
L 328.323836 287.055768 
L 329.513047 263.741999 
L 330.702258 288.620046 
L 331.891469 269.605793 
L 333.080679 270.721943 
L 334.26989 275.459341 
L 335.459101 252.445909 
L 336.648312 256.996858 
L 337.837522 249.058573 
L 339.026733 246.570864 
L 340.215944 237.685621 
L 341.405155 231.642733 
L 342.594366 223.695648 
L 343.783576 226.841257 
L 344.972787 196.681447 
L 346.161998 212.251729 
L 347.351209 222.571621 
L 348.54042 219.26305 
L 349.72963 217.770514 
L 350.918841 202.552413 
L 352.108052 239.457419 
L 353.297263 233.84599 
L 354.486474 251.017013 
L 355.675684 236.624968 
L 356.864895 274.419262 
L 358.054106 243.850234 
L 359.243317 259.645117 
L 360.432527 265.713873 
L 361.621738 260.367052 
L 362.810949 242.880826 
L 364.00016 269.742841 
L 365.189371 281.746893 
L 366.378581 280.389187 
L 367.567792 259.211339 
L 368.757003 251.36628 
L 369.946214 271.630271 
L 371.135425 284.665712 
L 372.324635 274.879197 
L 373.513846 286.304445 
L 374.703057 269.33624 
L 375.892268 266.811582 
L 377.081479 241.754141 
L 378.270689 247.713677 
L 379.4599 233.005016 
L 380.649111 238.099742 
L 381.838322 222.060511 
L 383.027532 224.738046 
L 385.405954 214.899147 
L 386.595165 217.807 
L 387.784376 224.993546 
L 388.973586 224.972944 
L 390.162797 246.17842 
L 391.352008 232.00513 
L 392.541219 246.815999 
L 393.73043 233.95416 
L 394.91964 250.158928 
L 396.108851 236.752684 
L 397.298062 255.50671 
L 398.487273 260.340625 
L 398.487273 260.340625 
" style="fill:none;stroke:#0000ff;stroke-linecap:square;stroke-width:2;"/>
   </g>
   <g id="patch_8">
    <path d="M 57.6 307.584 
L 57.6 189.312 
" style="fill:none;stroke:#000000;stroke-linecap:square;stroke-linejoin:miter;stroke-width:0.8;"/>
   </g>
   <g id="patch_9">
    <path d="M 414.72 307.584 
L 414.72 189.312 
" style="fill:none;stroke:#000000;stroke-linecap:square;stroke-linejoin:miter;stroke-width:0.8;"/>
   </g>
   <g id="patch_10">
    <path d="M 57.6 307.584 
L 414.72 307.584 
" style="fill:none;stroke:#000000;stroke-linecap:square;stroke-linejoin:miter;stroke-width:0.8;"/>
   </g>
   <g id="patch_11">
    <path d="M 57.6 189.312 
L 414.72 189.312 
" style="fill:none;stroke:#000000;stroke-linecap:square;stroke-linejoin:miter;stroke-width:0.8;"/>
   </g>
   <g id="text_28">
    <!-- BOLD signal -->
    <defs>
     <path d="M 19.671875 34.8125 
L 19.671875 8.109375 
L 35.5 8.109375 
Q 43.453125 8.109375 47.28125 11.40625 
Q 51.125 14.703125 51.125 21.484375 
Q 51.125 28.328125 47.28125 31.5625 
Q 43.453125 34.8125 35.5 34.8125 
z
M 19.671875 64.796875 
L 19.671875 42.828125 
L 34.28125 42.828125 
Q 41.5 42.828125 45.03125 45.53125 
Q 48.578125 48.25 48.578125 53.8125 
Q 48.578125 59.328125 45.03125 62.0625 
Q 41.5 64.796875 34.28125 64.796875 
z
M 9.8125 72.90625 
L 35.015625 72.90625 
Q 46.296875 72.90625 52.390625 68.21875 
Q 58.5 63.53125 58.5 54.890625 
Q 58.5 48.1875 55.375 44.234375 
Q 52.25 40.28125 46.1875 39.3125 
Q 53.46875 37.75 57.5 32.78125 
Q 61.53125 27.828125 61.53125 20.40625 
Q 61.53125 10.640625 54.890625 5.3125 
Q 48.25 0 35.984375 0 
L 9.8125 0 
z
" id="DejaVuSans-42"/>
     <path d="M 39.40625 66.21875 
Q 28.65625 66.21875 22.328125 58.203125 
Q 16.015625 50.203125 16.015625 36.375 
Q 16.015625 22.609375 22.328125 14.59375 
Q 28.65625 6.59375 39.40625 6.59375 
Q 50.140625 6.59375 56.421875 14.59375 
Q 62.703125 22.609375 62.703125 36.375 
Q 62.703125 50.203125 56.421875 58.203125 
Q 50.140625 66.21875 39.40625 66.21875 
z
M 39.40625 74.21875 
Q 54.734375 74.21875 63.90625 63.9375 
Q 73.09375 53.65625 73.09375 36.375 
Q 73.09375 19.140625 63.90625 8.859375 
Q 54.734375 -1.421875 39.40625 -1.421875 
Q 24.03125 -1.421875 14.8125 8.828125 
Q 5.609375 19.09375 5.609375 36.375 
Q 5.609375 53.65625 14.8125 63.9375 
Q 24.03125 74.21875 39.40625 74.21875 
z
" id="DejaVuSans-4f"/>
     <path d="M 9.8125 72.90625 
L 19.671875 72.90625 
L 19.671875 8.296875 
L 55.171875 8.296875 
L 55.171875 0 
L 9.8125 0 
z
" id="DejaVuSans-4c"/>
     <path d="M 19.671875 64.796875 
L 19.671875 8.109375 
L 31.59375 8.109375 
Q 46.6875 8.109375 53.6875 14.9375 
Q 60.6875 21.78125 60.6875 36.53125 
Q 60.6875 51.171875 53.6875 57.984375 
Q 46.6875 64.796875 31.59375 64.796875 
z
M 9.8125 72.90625 
L 30.078125 72.90625 
Q 51.265625 72.90625 61.171875 64.09375 
Q 71.09375 55.28125 71.09375 36.53125 
Q 71.09375 17.671875 61.125 8.828125 
Q 51.171875 0 30.078125 0 
L 9.8125 0 
z
" id="DejaVuSans-44"/>
     <path d="M 44.28125 53.078125 
L 44.28125 44.578125 
Q 40.484375 46.53125 36.375 47.5 
Q 32.28125 48.484375 27.875 48.484375 
Q 21.1875 48.484375 17.84375 46.4375 
Q 14.5 44.390625 14.5 40.28125 
Q 14.5 37.15625 16.890625 35.375 
Q 19.28125 33.59375 26.515625 31.984375 
L 29.59375 31.296875 
Q 39.15625 29.25 43.1875 25.515625 
Q 47.21875 21.78125 47.21875 15.09375 
Q 47.21875 7.46875 41.1875 3.015625 
Q 35.15625 -1.421875 24.609375 -1.421875 
Q 20.21875 -1.421875 15.453125 -0.5625 
Q 10.6875 0.296875 5.421875 2 
L 5.421875 11.28125 
Q 10.40625 8.6875 15.234375 7.390625 
Q 20.0625 6.109375 24.8125 6.109375 
Q 31.15625 6.109375 34.5625 8.28125 
Q 37.984375 10.453125 37.984375 14.40625 
Q 37.984375 18.0625 35.515625 20.015625 
Q 33.0625 21.96875 24.703125 23.78125 
L 21.578125 24.515625 
Q 13.234375 26.265625 9.515625 29.90625 
Q 5.8125 33.546875 5.8125 39.890625 
Q 5.8125 47.609375 11.28125 51.796875 
Q 16.75 56 26.8125 56 
Q 31.78125 56 36.171875 55.265625 
Q 40.578125 54.546875 44.28125 53.078125 
z
" id="DejaVuSans-73"/>
     <path d="M 45.40625 27.984375 
Q 45.40625 37.75 41.375 43.109375 
Q 37.359375 48.484375 30.078125 48.484375 
Q 22.859375 48.484375 18.828125 43.109375 
Q 14.796875 37.75 14.796875 27.984375 
Q 14.796875 18.265625 18.828125 12.890625 
Q 22.859375 7.515625 30.078125 7.515625 
Q 37.359375 7.515625 41.375 12.890625 
Q 45.40625 18.265625 45.40625 27.984375 
z
M 54.390625 6.78125 
Q 54.390625 -7.171875 48.1875 -13.984375 
Q 42 -20.796875 29.203125 -20.796875 
Q 24.46875 -20.796875 20.265625 -20.09375 
Q 16.0625 -19.390625 12.109375 -17.921875 
L 12.109375 -9.1875 
Q 16.0625 -11.328125 19.921875 -12.34375 
Q 23.78125 -13.375 27.78125 -13.375 
Q 36.625 -13.375 41.015625 -8.765625 
Q 45.40625 -4.15625 45.40625 5.171875 
L 45.40625 9.625 
Q 42.625 4.78125 38.28125 2.390625 
Q 33.9375 0 27.875 0 
Q 17.828125 0 11.671875 7.65625 
Q 5.515625 15.328125 5.515625 27.984375 
Q 5.515625 40.671875 11.671875 48.328125 
Q 17.828125 56 27.875 56 
Q 33.9375 56 38.28125 53.609375 
Q 42.625 51.21875 45.40625 46.390625 
L 45.40625 54.6875 
L 54.390625 54.6875 
z
" id="DejaVuSans-67"/>
     <path d="M 54.890625 33.015625 
L 54.890625 0 
L 45.90625 0 
L 45.90625 32.71875 
Q 45.90625 40.484375 42.875 44.328125 
Q 39.84375 48.1875 33.796875 48.1875 
Q 26.515625 48.1875 22.3125 43.546875 
Q 18.109375 38.921875 18.109375 30.90625 
L 18.109375 0 
L 9.078125 0 
L 9.078125 54.6875 
L 18.109375 54.6875 
L 18.109375 46.1875 
Q 21.34375 51.125 25.703125 53.5625 
Q 30.078125 56 35.796875 56 
Q 45.21875 56 50.046875 50.171875 
Q 54.890625 44.34375 54.890625 33.015625 
z
" id="DejaVuSans-6e"/>
     <path d="M 34.28125 27.484375 
Q 23.390625 27.484375 19.1875 25 
Q 14.984375 22.515625 14.984375 16.5 
Q 14.984375 11.71875 18.140625 8.90625 
Q 21.296875 6.109375 26.703125 6.109375 
Q 34.1875 6.109375 38.703125 11.40625 
Q 43.21875 16.703125 43.21875 25.484375 
L 43.21875 27.484375 
z
M 52.203125 31.203125 
L 52.203125 0 
L 43.21875 0 
L 43.21875 8.296875 
Q 40.140625 3.328125 35.546875 0.953125 
Q 30.953125 -1.421875 24.3125 -1.421875 
Q 15.921875 -1.421875 10.953125 3.296875 
Q 6 8.015625 6 15.921875 
Q 6 25.140625 12.171875 29.828125 
Q 18.359375 34.515625 30.609375 34.515625 
L 43.21875 34.515625 
L 43.21875 35.40625 
Q 43.21875 41.609375 39.140625 45 
Q 35.0625 48.390625 27.6875 48.390625 
Q 23 48.390625 18.546875 47.265625 
Q 14.109375 46.140625 10.015625 43.890625 
L 10.015625 52.203125 
Q 14.9375 54.109375 19.578125 55.046875 
Q 24.21875 56 28.609375 56 
Q 40.484375 56 46.34375 49.84375 
Q 52.203125 43.703125 52.203125 31.203125 
z
" id="DejaVuSans-61"/>
     <path d="M 9.421875 75.984375 
L 18.40625 75.984375 
L 18.40625 0 
L 9.421875 0 
z
" id="DejaVuSans-6c"/>
    </defs>
    <g transform="translate(199.703438 183.312)scale(0.12 -0.12)">
     <use xlink:href="#DejaVuSans-42"/>
     <use x="68.587891" xlink:href="#DejaVuSans-4f"/>
     <use x="147.298828" xlink:href="#DejaVuSans-4c"/>
     <use x="203.011719" xlink:href="#DejaVuSans-44"/>
     <use x="280.013672" xlink:href="#DejaVuSans-20"/>
     <use x="311.800781" xlink:href="#DejaVuSans-73"/>
     <use x="363.900391" xlink:href="#DejaVuSans-69"/>
     <use x="391.683594" xlink:href="#DejaVuSans-67"/>
     <use x="455.160156" xlink:href="#DejaVuSans-6e"/>
     <use x="518.539062" xlink:href="#DejaVuSans-61"/>
     <use x="579.818359" xlink:href="#DejaVuSans-6c"/>
    </g>
   </g>
  </g>
 </g>
 <defs>
  <clipPath id="pf99c9d6ced">
   <rect height="118.272" width="357.12" x="57.6" y="41.472"/>
  </clipPath>
  <clipPath id="pcd178107f2">
   <rect height="118.272" width="357.12" x="57.6" y="189.312"/>
  </clipPath>
 </defs>
</svg>
