<?xml version="1.0" encoding="utf-8" standalone="no"?>
<!DOCTYPE svg PUBLIC "-//W3C//DTD SVG 1.1//EN"
  "http://www.w3.org/Graphics/SVG/1.1/DTD/svg11.dtd">
<!-- Created with matplotlib (http://matplotlib.org/) -->
<svg height="345.6pt" version="1.1" viewBox="0 0 460.8 345.6" width="460.8pt" xmlns="http://www.w3.org/2000/svg" xmlns:xlink="http://www.w3.org/1999/xlink">
 <defs>
  <style type="text/css">
*{stroke-linecap:butt;stroke-linejoin:round;}
  </style>
 </defs>
 <g id="figure_1">
  <g id="patch_1">
   <path d="M 0 345.6 
L 460.8 345.6 
L 460.8 0 
L 0 0 
z
" style="fill:#ffffff;"/>
  </g>
  <g id="axes_1">
   <g id="patch_2">
    <path d="M 57.6 159.744 
L 414.72 159.744 
L 414.72 41.472 
L 57.6 41.472 
z
" style="fill:#ffffff;"/>
   </g>
   <g id="matplotlib.axis_1">
    <g id="xtick_1">
     <g id="line2d_1">
      <defs>
       <path d="M 0 0 
L 0 3.5 
" id="m59dd0397fb" style="stroke:#000000;stroke-width:0.8;"/>
      </defs>
      <g>
       <use style="stroke:#000000;stroke-width:0.8;" x="57.183776" xlink:href="#m59dd0397fb" y="159.744"/>
      </g>
     </g>
     <g id="text_1">
      <!-- 0 -->
      <defs>
       <path d="M 31.78125 66.40625 
Q 24.171875 66.40625 20.328125 58.90625 
Q 16.5 51.421875 16.5 36.375 
Q 16.5 21.390625 20.328125 13.890625 
Q 24.171875 6.390625 31.78125 6.390625 
Q 39.453125 6.390625 43.28125 13.890625 
Q 47.125 21.390625 47.125 36.375 
Q 47.125 51.421875 43.28125 58.90625 
Q 39.453125 66.40625 31.78125 66.40625 
z
M 31.78125 74.21875 
Q 44.046875 74.21875 50.515625 64.515625 
Q 56.984375 54.828125 56.984375 36.375 
Q 56.984375 17.96875 50.515625 8.265625 
Q 44.046875 -1.421875 31.78125 -1.421875 
Q 19.53125 -1.421875 13.0625 8.265625 
Q 6.59375 17.96875 6.59375 36.375 
Q 6.59375 54.828125 13.0625 64.515625 
Q 19.53125 74.21875 31.78125 74.21875 
z
" id="DejaVuSans-30"/>
      </defs>
      <g transform="translate(54.002526 174.342437)scale(0.1 -0.1)">
       <use xlink:href="#DejaVuSans-30"/>
      </g>
     </g>
    </g>
    <g id="xtick_2">
     <g id="line2d_2">
      <g>
       <use style="stroke:#000000;stroke-width:0.8;" x="98.475818" xlink:href="#m59dd0397fb" y="159.744"/>
      </g>
     </g>
     <g id="text_2">
      <!-- 25 -->
      <defs>
       <path d="M 19.1875 8.296875 
L 53.609375 8.296875 
L 53.609375 0 
L 7.328125 0 
L 7.328125 8.296875 
Q 12.9375 14.109375 22.625 23.890625 
Q 32.328125 33.6875 34.8125 36.53125 
Q 39.546875 41.84375 41.421875 45.53125 
Q 43.3125 49.21875 43.3125 52.78125 
Q 43.3125 58.59375 39.234375 62.25 
Q 35.15625 65.921875 28.609375 65.921875 
Q 23.96875 65.921875 18.8125 64.3125 
Q 13.671875 62.703125 7.8125 59.421875 
L 7.8125 69.390625 
Q 13.765625 71.78125 18.9375 73 
Q 24.125 74.21875 28.421875 74.21875 
Q 39.75 74.21875 46.484375 68.546875 
Q 53.21875 62.890625 53.21875 53.421875 
Q 53.21875 48.921875 51.53125 44.890625 
Q 49.859375 40.875 45.40625 35.40625 
Q 44.1875 33.984375 37.640625 27.21875 
Q 31.109375 20.453125 19.1875 8.296875 
z
" id="DejaVuSans-32"/>
       <path d="M 10.796875 72.90625 
L 49.515625 72.90625 
L 49.515625 64.59375 
L 19.828125 64.59375 
L 19.828125 46.734375 
Q 21.96875 47.46875 24.109375 47.828125 
Q 26.265625 48.1875 28.421875 48.1875 
Q 40.625 48.1875 47.75 41.5 
Q 54.890625 34.8125 54.890625 23.390625 
Q 54.890625 11.625 47.5625 5.09375 
Q 40.234375 -1.421875 26.90625 -1.421875 
Q 22.3125 -1.421875 17.546875 -0.640625 
Q 12.796875 0.140625 7.71875 1.703125 
L 7.71875 11.625 
Q 12.109375 9.234375 16.796875 8.0625 
Q 21.484375 6.890625 26.703125 6.890625 
Q 35.15625 6.890625 40.078125 11.328125 
Q 45.015625 15.765625 45.015625 23.390625 
Q 45.015625 31 40.078125 35.4375 
Q 35.15625 39.890625 26.703125 39.890625 
Q 22.75 39.890625 18.8125 39.015625 
Q 14.890625 38.140625 10.796875 36.28125 
z
" id="DejaVuSans-35"/>
      </defs>
      <g transform="translate(92.113318 174.342437)scale(0.1 -0.1)">
       <use xlink:href="#DejaVuSans-32"/>
       <use x="63.623047" xlink:href="#DejaVuSans-35"/>
      </g>
     </g>
    </g>
    <g id="xtick_3">
     <g id="line2d_3">
      <g>
       <use style="stroke:#000000;stroke-width:0.8;" x="139.767859" xlink:href="#m59dd0397fb" y="159.744"/>
      </g>
     </g>
     <g id="text_3">
      <!-- 50 -->
      <g transform="translate(133.405359 174.342437)scale(0.1 -0.1)">
       <use xlink:href="#DejaVuSans-35"/>
       <use x="63.623047" xlink:href="#DejaVuSans-30"/>
      </g>
     </g>
    </g>
    <g id="xtick_4">
     <g id="line2d_4">
      <g>
       <use style="stroke:#000000;stroke-width:0.8;" x="181.0599" xlink:href="#m59dd0397fb" y="159.744"/>
      </g>
     </g>
     <g id="text_4">
      <!-- 75 -->
      <defs>
       <path d="M 8.203125 72.90625 
L 55.078125 72.90625 
L 55.078125 68.703125 
L 28.609375 0 
L 18.3125 0 
L 43.21875 64.59375 
L 8.203125 64.59375 
z
" id="DejaVuSans-37"/>
      </defs>
      <g transform="translate(174.6974 174.342437)scale(0.1 -0.1)">
       <use xlink:href="#DejaVuSans-37"/>
       <use x="63.623047" xlink:href="#DejaVuSans-35"/>
      </g>
     </g>
    </g>
    <g id="xtick_5">
     <g id="line2d_5">
      <g>
       <use style="stroke:#000000;stroke-width:0.8;" x="222.351941" xlink:href="#m59dd0397fb" y="159.744"/>
      </g>
     </g>
     <g id="text_5">
      <!-- 100 -->
      <defs>
       <path d="M 12.40625 8.296875 
L 28.515625 8.296875 
L 28.515625 63.921875 
L 10.984375 60.40625 
L 10.984375 69.390625 
L 28.421875 72.90625 
L 38.28125 72.90625 
L 38.28125 8.296875 
L 54.390625 8.296875 
L 54.390625 0 
L 12.40625 0 
z
" id="DejaVuSans-31"/>
      </defs>
      <g transform="translate(212.808191 174.342437)scale(0.1 -0.1)">
       <use xlink:href="#DejaVuSans-31"/>
       <use x="63.623047" xlink:href="#DejaVuSans-30"/>
       <use x="127.246094" xlink:href="#DejaVuSans-30"/>
      </g>
     </g>
    </g>
    <g id="xtick_6">
     <g id="line2d_6">
      <g>
       <use style="stroke:#000000;stroke-width:0.8;" x="263.643983" xlink:href="#m59dd0397fb" y="159.744"/>
      </g>
     </g>
     <g id="text_6">
      <!-- 125 -->
      <g transform="translate(254.100233 174.342437)scale(0.1 -0.1)">
       <use xlink:href="#DejaVuSans-31"/>
       <use x="63.623047" xlink:href="#DejaVuSans-32"/>
       <use x="127.246094" xlink:href="#DejaVuSans-35"/>
      </g>
     </g>
    </g>
    <g id="xtick_7">
     <g id="line2d_7">
      <g>
       <use style="stroke:#000000;stroke-width:0.8;" x="304.936024" xlink:href="#m59dd0397fb" y="159.744"/>
      </g>
     </g>
     <g id="text_7">
      <!-- 150 -->
      <g transform="translate(295.392274 174.342437)scale(0.1 -0.1)">
       <use xlink:href="#DejaVuSans-31"/>
       <use x="63.623047" xlink:href="#DejaVuSans-35"/>
       <use x="127.246094" xlink:href="#DejaVuSans-30"/>
      </g>
     </g>
    </g>
    <g id="xtick_8">
     <g id="line2d_8">
      <g>
       <use style="stroke:#000000;stroke-width:0.8;" x="346.228065" xlink:href="#m59dd0397fb" y="159.744"/>
      </g>
     </g>
     <g id="text_8">
      <!-- 175 -->
      <g transform="translate(336.684315 174.342437)scale(0.1 -0.1)">
       <use xlink:href="#DejaVuSans-31"/>
       <use x="63.623047" xlink:href="#DejaVuSans-37"/>
       <use x="127.246094" xlink:href="#DejaVuSans-35"/>
      </g>
     </g>
    </g>
    <g id="xtick_9">
     <g id="line2d_9">
      <g>
       <use style="stroke:#000000;stroke-width:0.8;" x="387.520107" xlink:href="#m59dd0397fb" y="159.744"/>
      </g>
     </g>
     <g id="text_9">
      <!-- 200 -->
      <g transform="translate(377.976357 174.342437)scale(0.1 -0.1)">
       <use xlink:href="#DejaVuSans-32"/>
       <use x="63.623047" xlink:href="#DejaVuSans-30"/>
       <use x="127.246094" xlink:href="#DejaVuSans-30"/>
      </g>
     </g>
    </g>
   </g>
   <g id="matplotlib.axis_2">
    <g id="ytick_1">
     <g id="line2d_10">
      <defs>
       <path d="M 0 0 
L -3.5 0 
" id="mee5ab6b34f" style="stroke:#000000;stroke-width:0.8;"/>
      </defs>
      <g>
       <use style="stroke:#000000;stroke-width:0.8;" x="57.6" xlink:href="#mee5ab6b34f" y="157.55134"/>
      </g>
     </g>
     <g id="text_10">
      <!-- −2 -->
      <defs>
       <path d="M 10.59375 35.5 
L 73.1875 35.5 
L 73.1875 27.203125 
L 10.59375 27.203125 
z
" id="DejaVuSans-2212"/>
      </defs>
      <g transform="translate(35.857813 161.350558)scale(0.1 -0.1)">
       <use xlink:href="#DejaVuSans-2212"/>
       <use x="83.789062" xlink:href="#DejaVuSans-32"/>
      </g>
     </g>
    </g>
    <g id="ytick_2">
     <g id="line2d_11">
      <g>
       <use style="stroke:#000000;stroke-width:0.8;" x="57.6" xlink:href="#mee5ab6b34f" y="127.280731"/>
      </g>
     </g>
     <g id="text_11">
      <!-- 0 -->
      <g transform="translate(44.2375 131.07995)scale(0.1 -0.1)">
       <use xlink:href="#DejaVuSans-30"/>
      </g>
     </g>
    </g>
    <g id="ytick_3">
     <g id="line2d_12">
      <g>
       <use style="stroke:#000000;stroke-width:0.8;" x="57.6" xlink:href="#mee5ab6b34f" y="97.010123"/>
      </g>
     </g>
     <g id="text_12">
      <!-- 2 -->
      <g transform="translate(44.2375 100.809342)scale(0.1 -0.1)">
       <use xlink:href="#DejaVuSans-32"/>
      </g>
     </g>
    </g>
    <g id="ytick_4">
     <g id="line2d_13">
      <g>
       <use style="stroke:#000000;stroke-width:0.8;" x="57.6" xlink:href="#mee5ab6b34f" y="66.739515"/>
      </g>
     </g>
     <g id="text_13">
      <!-- 4 -->
      <defs>
       <path d="M 37.796875 64.3125 
L 12.890625 25.390625 
L 37.796875 25.390625 
z
M 35.203125 72.90625 
L 47.609375 72.90625 
L 47.609375 25.390625 
L 58.015625 25.390625 
L 58.015625 17.1875 
L 47.609375 17.1875 
L 47.609375 0 
L 37.796875 0 
L 37.796875 17.1875 
L 4.890625 17.1875 
L 4.890625 26.703125 
z
" id="DejaVuSans-34"/>
      </defs>
      <g transform="translate(44.2375 70.538734)scale(0.1 -0.1)">
       <use xlink:href="#DejaVuSans-34"/>
      </g>
     </g>
    </g>
   </g>
   <g id="line2d_14">
    <path clip-path="url(#p57f003e0cf)" d="M 73.832727 141.073831 
L 85.724835 123.209347 
L 99.995365 124.738767 
L 114.265894 108.796547 
L 134.482478 122.662701 
L 142.806953 128.493028 
L 157.077483 141.132447 
L 172.537223 142.533298 
L 185.618541 142.937015 
L 199.889071 102.154297 
L 214.1596 114.323182 
L 228.43013 124.409672 
L 242.700659 142.883666 
L 256.971189 137.933874 
L 271.241718 130.679357 
L 285.512248 104.643423 
L 299.782777 136.884931 
L 314.053307 125.45446 
L 328.323836 154.368 
L 342.594366 60.154743 
L 356.864895 46.848 
L 371.135425 130.27052 
L 385.405954 126.150719 
L 398.487273 88.357985 
L 398.487273 88.357985 
" style="fill:none;stroke:#ff0000;stroke-linecap:square;stroke-width:2;"/>
   </g>
   <g id="patch_3">
    <path d="M 57.6 159.744 
L 57.6 41.472 
" style="fill:none;stroke:#000000;stroke-linecap:square;stroke-linejoin:miter;stroke-width:0.8;"/>
   </g>
   <g id="patch_4">
    <path d="M 414.72 159.744 
L 414.72 41.472 
" style="fill:none;stroke:#000000;stroke-linecap:square;stroke-linejoin:miter;stroke-width:0.8;"/>
   </g>
   <g id="patch_5">
    <path d="M 57.6 159.744 
L 414.72 159.744 
" style="fill:none;stroke:#000000;stroke-linecap:square;stroke-linejoin:miter;stroke-width:0.8;"/>
   </g>
   <g id="patch_6">
    <path d="M 57.6 41.472 
L 414.72 41.472 
" style="fill:none;stroke:#000000;stroke-linecap:square;stroke-linejoin:miter;stroke-width:0.8;"/>
   </g>
  </g>
  <g id="axes_2">
   <g id="patch_7">
    <path d="M 57.6 307.584 
L 414.72 307.584 
L 414.72 189.312 
L 57.6 189.312 
z
" style="fill:#ffffff;"/>
   </g>
   <g id="matplotlib.axis_3">
    <g id="xtick_10">
     <g id="line2d_15">
      <g>
       <use style="stroke:#000000;stroke-width:0.8;" x="57.183776" xlink:href="#m59dd0397fb" y="307.584"/>
      </g>
     </g>
     <g id="text_14">
      <!-- 0 -->
      <g transform="translate(54.002526 322.182437)scale(0.1 -0.1)">
       <use xlink:href="#DejaVuSans-30"/>
      </g>
     </g>
    </g>
    <g id="xtick_11">
     <g id="line2d_16">
      <g>
       <use style="stroke:#000000;stroke-width:0.8;" x="98.475818" xlink:href="#m59dd0397fb" y="307.584"/>
      </g>
     </g>
     <g id="text_15">
      <!-- 25 -->
      <g transform="translate(92.113318 322.182437)scale(0.1 -0.1)">
       <use xlink:href="#DejaVuSans-32"/>
       <use x="63.623047" xlink:href="#DejaVuSans-35"/>
      </g>
     </g>
    </g>
    <g id="xtick_12">
     <g id="line2d_17">
      <g>
       <use style="stroke:#000000;stroke-width:0.8;" x="139.767859" xlink:href="#m59dd0397fb" y="307.584"/>
      </g>
     </g>
     <g id="text_16">
      <!-- 50 -->
      <g transform="translate(133.405359 322.182437)scale(0.1 -0.1)">
       <use xlink:href="#DejaVuSans-35"/>
       <use x="63.623047" xlink:href="#DejaVuSans-30"/>
      </g>
     </g>
    </g>
    <g id="xtick_13">
     <g id="line2d_18">
      <g>
       <use style="stroke:#000000;stroke-width:0.8;" x="181.0599" xlink:href="#m59dd0397fb" y="307.584"/>
      </g>
     </g>
     <g id="text_17">
      <!-- 75 -->
      <g transform="translate(174.6974 322.182437)scale(0.1 -0.1)">
       <use xlink:href="#DejaVuSans-37"/>
       <use x="63.623047" xlink:href="#DejaVuSans-35"/>
      </g>
     </g>
    </g>
    <g id="xtick_14">
     <g id="line2d_19">
      <g>
       <use style="stroke:#000000;stroke-width:0.8;" x="222.351941" xlink:href="#m59dd0397fb" y="307.584"/>
      </g>
     </g>
     <g id="text_18">
      <!-- 100 -->
      <g transform="translate(212.808191 322.182437)scale(0.1 -0.1)">
       <use xlink:href="#DejaVuSans-31"/>
       <use x="63.623047" xlink:href="#DejaVuSans-30"/>
       <use x="127.246094" xlink:href="#DejaVuSans-30"/>
      </g>
     </g>
    </g>
    <g id="xtick_15">
     <g id="line2d_20">
      <g>
       <use style="stroke:#000000;stroke-width:0.8;" x="263.643983" xlink:href="#m59dd0397fb" y="307.584"/>
      </g>
     </g>
     <g id="text_19">
      <!-- 125 -->
      <g transform="translate(254.100233 322.182437)scale(0.1 -0.1)">
       <use xlink:href="#DejaVuSans-31"/>
       <use x="63.623047" xlink:href="#DejaVuSans-32"/>
       <use x="127.246094" xlink:href="#DejaVuSans-35"/>
      </g>
     </g>
    </g>
    <g id="xtick_16">
     <g id="line2d_21">
      <g>
       <use style="stroke:#000000;stroke-width:0.8;" x="304.936024" xlink:href="#m59dd0397fb" y="307.584"/>
      </g>
     </g>
     <g id="text_20">
      <!-- 150 -->
      <g transform="translate(295.392274 322.182437)scale(0.1 -0.1)">
       <use xlink:href="#DejaVuSans-31"/>
       <use x="63.623047" xlink:href="#DejaVuSans-35"/>
       <use x="127.246094" xlink:href="#DejaVuSans-30"/>
      </g>
     </g>
    </g>
    <g id="xtick_17">
     <g id="line2d_22">
      <g>
       <use style="stroke:#000000;stroke-width:0.8;" x="346.228065" xlink:href="#m59dd0397fb" y="307.584"/>
      </g>
     </g>
     <g id="text_21">
      <!-- 175 -->
      <g transform="translate(336.684315 322.182437)scale(0.1 -0.1)">
       <use xlink:href="#DejaVuSans-31"/>
       <use x="63.623047" xlink:href="#DejaVuSans-37"/>
       <use x="127.246094" xlink:href="#DejaVuSans-35"/>
      </g>
     </g>
    </g>
    <g id="xtick_18">
     <g id="line2d_23">
      <g>
       <use style="stroke:#000000;stroke-width:0.8;" x="387.520107" xlink:href="#m59dd0397fb" y="307.584"/>
      </g>
     </g>
     <g id="text_22">
      <!-- 200 -->
      <g transform="translate(377.976357 322.182437)scale(0.1 -0.1)">
       <use xlink:href="#DejaVuSans-32"/>
       <use x="63.623047" xlink:href="#DejaVuSans-30"/>
       <use x="127.246094" xlink:href="#DejaVuSans-30"/>
      </g>
     </g>
    </g>
    <g id="text_23">
     <!-- Time (Sec) -->
     <defs>
      <path d="M -0.296875 72.90625 
L 61.375 72.90625 
L 61.375 64.59375 
L 35.5 64.59375 
L 35.5 0 
L 25.59375 0 
L 25.59375 64.59375 
L -0.296875 64.59375 
z
" id="DejaVuSans-54"/>
      <path d="M 9.421875 54.6875 
L 18.40625 54.6875 
L 18.40625 0 
L 9.421875 0 
z
M 9.421875 75.984375 
L 18.40625 75.984375 
L 18.40625 64.59375 
L 9.421875 64.59375 
z
" id="DejaVuSans-69"/>
      <path d="M 52 44.1875 
Q 55.375 50.25 60.0625 53.125 
Q 64.75 56 71.09375 56 
Q 79.640625 56 84.28125 50.015625 
Q 88.921875 44.046875 88.921875 33.015625 
L 88.921875 0 
L 79.890625 0 
L 79.890625 32.71875 
Q 79.890625 40.578125 77.09375 44.375 
Q 74.3125 48.1875 68.609375 48.1875 
Q 61.625 48.1875 57.5625 43.546875 
Q 53.515625 38.921875 53.515625 30.90625 
L 53.515625 0 
L 44.484375 0 
L 44.484375 32.71875 
Q 44.484375 40.625 41.703125 44.40625 
Q 38.921875 48.1875 33.109375 48.1875 
Q 26.21875 48.1875 22.15625 43.53125 
Q 18.109375 38.875 18.109375 30.90625 
L 18.109375 0 
L 9.078125 0 
L 9.078125 54.6875 
L 18.109375 54.6875 
L 18.109375 46.1875 
Q 21.1875 51.21875 25.484375 53.609375 
Q 29.78125 56 35.6875 56 
Q 41.65625 56 45.828125 52.96875 
Q 50 49.953125 52 44.1875 
z
" id="DejaVuSans-6d"/>
      <path d="M 56.203125 29.59375 
L 56.203125 25.203125 
L 14.890625 25.203125 
Q 15.484375 15.921875 20.484375 11.0625 
Q 25.484375 6.203125 34.421875 6.203125 
Q 39.59375 6.203125 44.453125 7.46875 
Q 49.3125 8.734375 54.109375 11.28125 
L 54.109375 2.78125 
Q 49.265625 0.734375 44.1875 -0.34375 
Q 39.109375 -1.421875 33.890625 -1.421875 
Q 20.796875 -1.421875 13.15625 6.1875 
Q 5.515625 13.8125 5.515625 26.8125 
Q 5.515625 40.234375 12.765625 48.109375 
Q 20.015625 56 32.328125 56 
Q 43.359375 56 49.78125 48.890625 
Q 56.203125 41.796875 56.203125 29.59375 
z
M 47.21875 32.234375 
Q 47.125 39.59375 43.09375 43.984375 
Q 39.0625 48.390625 32.421875 48.390625 
Q 24.90625 48.390625 20.390625 44.140625 
Q 15.875 39.890625 15.1875 32.171875 
z
" id="DejaVuSans-65"/>
      <path id="DejaVuSans-20"/>
      <path d="M 31 75.875 
Q 24.46875 64.65625 21.28125 53.65625 
Q 18.109375 42.671875 18.109375 31.390625 
Q 18.109375 20.125 21.3125 9.0625 
Q 24.515625 -2 31 -13.1875 
L 23.1875 -13.1875 
Q 15.875 -1.703125 12.234375 9.375 
Q 8.59375 20.453125 8.59375 31.390625 
Q 8.59375 42.28125 12.203125 53.3125 
Q 15.828125 64.359375 23.1875 75.875 
z
" id="DejaVuSans-28"/>
      <path d="M 53.515625 70.515625 
L 53.515625 60.890625 
Q 47.90625 63.578125 42.921875 64.890625 
Q 37.9375 66.21875 33.296875 66.21875 
Q 25.25 66.21875 20.875 63.09375 
Q 16.5 59.96875 16.5 54.203125 
Q 16.5 49.359375 19.40625 46.890625 
Q 22.3125 44.4375 30.421875 42.921875 
L 36.375 41.703125 
Q 47.40625 39.59375 52.65625 34.296875 
Q 57.90625 29 57.90625 20.125 
Q 57.90625 9.515625 50.796875 4.046875 
Q 43.703125 -1.421875 29.984375 -1.421875 
Q 24.8125 -1.421875 18.96875 -0.25 
Q 13.140625 0.921875 6.890625 3.21875 
L 6.890625 13.375 
Q 12.890625 10.015625 18.65625 8.296875 
Q 24.421875 6.59375 29.984375 6.59375 
Q 38.421875 6.59375 43.015625 9.90625 
Q 47.609375 13.234375 47.609375 19.390625 
Q 47.609375 24.75 44.3125 27.78125 
Q 41.015625 30.8125 33.5 32.328125 
L 27.484375 33.5 
Q 16.453125 35.6875 11.515625 40.375 
Q 6.59375 45.0625 6.59375 53.421875 
Q 6.59375 63.09375 13.40625 68.65625 
Q 20.21875 74.21875 32.171875 74.21875 
Q 37.3125 74.21875 42.625 73.28125 
Q 47.953125 72.359375 53.515625 70.515625 
z
" id="DejaVuSans-53"/>
      <path d="M 48.78125 52.59375 
L 48.78125 44.1875 
Q 44.96875 46.296875 41.140625 47.34375 
Q 37.3125 48.390625 33.40625 48.390625 
Q 24.65625 48.390625 19.8125 42.84375 
Q 14.984375 37.3125 14.984375 27.296875 
Q 14.984375 17.28125 19.8125 11.734375 
Q 24.65625 6.203125 33.40625 6.203125 
Q 37.3125 6.203125 41.140625 7.25 
Q 44.96875 8.296875 48.78125 10.40625 
L 48.78125 2.09375 
Q 45.015625 0.34375 40.984375 -0.53125 
Q 36.96875 -1.421875 32.421875 -1.421875 
Q 20.0625 -1.421875 12.78125 6.34375 
Q 5.515625 14.109375 5.515625 27.296875 
Q 5.515625 40.671875 12.859375 48.328125 
Q 20.21875 56 33.015625 56 
Q 37.15625 56 41.109375 55.140625 
Q 45.0625 54.296875 48.78125 52.59375 
z
" id="DejaVuSans-63"/>
      <path d="M 8.015625 75.875 
L 15.828125 75.875 
Q 23.140625 64.359375 26.78125 53.3125 
Q 30.421875 42.28125 30.421875 31.390625 
Q 30.421875 20.453125 26.78125 9.375 
Q 23.140625 -1.703125 15.828125 -13.1875 
L 8.015625 -13.1875 
Q 14.5 -2 17.703125 9.0625 
Q 20.90625 20.125 20.90625 31.390625 
Q 20.90625 42.671875 17.703125 53.65625 
Q 14.5 64.65625 8.015625 75.875 
z
" id="DejaVuSans-29"/>
     </defs>
     <g transform="translate(209.281875 335.860562)scale(0.1 -0.1)">
      <use xlink:href="#DejaVuSans-54"/>
      <use x="61.037109" xlink:href="#DejaVuSans-69"/>
      <use x="88.820312" xlink:href="#DejaVuSans-6d"/>
      <use x="186.232422" xlink:href="#DejaVuSans-65"/>
      <use x="247.755859" xlink:href="#DejaVuSans-20"/>
      <use x="279.542969" xlink:href="#DejaVuSans-28"/>
      <use x="318.556641" xlink:href="#DejaVuSans-53"/>
      <use x="382.033203" xlink:href="#DejaVuSans-65"/>
      <use x="443.556641" xlink:href="#DejaVuSans-63"/>
      <use x="498.537109" xlink:href="#DejaVuSans-29"/>
     </g>
    </g>
   </g>
   <g id="matplotlib.axis_4">
    <g id="ytick_5">
     <g id="line2d_24">
      <g>
       <use style="stroke:#000000;stroke-width:0.8;" x="57.6" xlink:href="#mee5ab6b34f" y="288.682747"/>
      </g>
     </g>
     <g id="text_24">
      <!-- −20 -->
      <g transform="translate(29.495313 292.481966)scale(0.1 -0.1)">
       <use xlink:href="#DejaVuSans-2212"/>
       <use x="83.789062" xlink:href="#DejaVuSans-32"/>
       <use x="147.412109" xlink:href="#DejaVuSans-30"/>
      </g>
     </g>
    </g>
    <g id="ytick_6">
     <g id="line2d_25">
      <g>
       <use style="stroke:#000000;stroke-width:0.8;" x="57.6" xlink:href="#mee5ab6b34f" y="250.269444"/>
      </g>
     </g>
     <g id="text_25">
      <!-- 0 -->
      <g transform="translate(44.2375 254.068663)scale(0.1 -0.1)">
       <use xlink:href="#DejaVuSans-30"/>
      </g>
     </g>
    </g>
    <g id="ytick_7">
     <g id="line2d_26">
      <g>
       <use style="stroke:#000000;stroke-width:0.8;" x="57.6" xlink:href="#mee5ab6b34f" y="211.856141"/>
      </g>
     </g>
     <g id="text_26">
      <!-- 20 -->
      <g transform="translate(37.875 215.65536)scale(0.1 -0.1)">
       <use xlink:href="#DejaVuSans-32"/>
       <use x="63.623047" xlink:href="#DejaVuSans-30"/>
      </g>
     </g>
    </g>
   </g>
   <g id="line2d_27">
    <path clip-path="url(#p777ca33519)" d="M 73.832727 256.361942 
L 75.021938 255.364406 
L 76.211149 253.971971 
L 79.778781 249.252136 
L 80.967992 248.069296 
L 82.157203 247.229431 
L 83.346414 246.704506 
L 85.724835 246.173974 
L 86.914046 245.907563 
L 88.103257 245.503051 
L 89.292468 244.921642 
L 92.8601 242.794057 
L 94.049311 242.377659 
L 95.238521 242.277931 
L 96.427732 242.522883 
L 97.616943 243.091722 
L 98.806154 243.929923 
L 101.184575 246.125183 
L 105.941419 250.889104 
L 109.509051 254.053365 
L 111.887473 255.973987 
L 114.265894 257.545194 
L 115.455105 258.100591 
L 116.644316 258.473075 
L 117.833526 258.666566 
L 119.022737 258.701897 
L 121.401159 258.425197 
L 124.968791 257.605083 
L 126.158002 257.216611 
L 127.347213 256.614429 
L 128.536424 255.641761 
L 129.725634 254.168922 
L 130.914845 252.134737 
L 132.104056 249.579527 
L 135.671688 241.055349 
L 136.860899 238.9675 
L 138.05011 237.643912 
L 139.239321 237.141662 
L 140.428531 237.405446 
L 141.617742 238.301622 
L 142.806953 239.657789 
L 145.185375 243.065217 
L 147.563796 246.561047 
L 151.131429 251.28652 
L 154.699061 255.70065 
L 155.888272 256.991973 
L 157.077483 258.044505 
L 158.266693 258.773073 
L 159.455904 259.132613 
L 160.645115 259.123822 
L 161.834326 258.783975 
L 163.023536 258.172396 
L 164.212747 257.357606 
L 166.591169 255.384638 
L 170.158801 252.100525 
L 171.348012 250.832401 
L 172.537223 249.389335 
L 174.915644 245.934431 
L 176.104855 244.093284 
L 177.294066 242.465477 
L 178.483277 241.334503 
L 179.672488 240.937077 
L 180.861698 241.401845 
L 182.050909 242.715018 
L 183.24012 244.702104 
L 185.618541 249.414486 
L 186.807752 251.454258 
L 187.996963 252.95034 
L 189.186174 253.816139 
L 190.375385 254.125697 
L 193.943017 254.103284 
L 195.132228 254.596898 
L 196.321439 255.505857 
L 197.510649 256.605136 
L 198.69986 257.416412 
L 199.889071 257.352554 
L 201.078282 255.908071 
L 202.267493 252.794463 
L 203.456703 248.013228 
L 204.645914 241.888641 
L 208.213546 221.715354 
L 209.402757 216.384615 
L 210.591968 212.354315 
L 211.781179 209.820409 
L 212.97039 208.975629 
L 214.1596 209.981287 
L 215.348811 212.893609 
L 216.538022 217.612755 
L 217.727233 223.849798 
L 221.294865 245.832592 
L 222.484076 251.98701 
L 223.673287 256.736887 
L 224.862498 259.916721 
L 226.051708 261.521505 
L 227.240919 261.635252 
L 228.43013 260.396777 
L 229.619341 257.990683 
L 230.808551 254.642601 
L 233.186973 246.334037 
L 234.376184 242.202985 
L 235.565395 238.700618 
L 236.754605 236.190995 
L 237.943816 234.875501 
L 239.133027 234.769634 
L 240.322238 235.708935 
L 241.511449 237.393338 
L 245.079081 243.508317 
L 246.268292 245.045336 
L 247.457502 246.076407 
L 248.646713 246.501351 
L 249.835924 246.249041 
L 251.025135 245.296449 
L 252.214346 243.678921 
L 253.403556 241.480645 
L 254.592767 238.809306 
L 256.971189 232.4696 
L 261.728032 218.750547 
L 262.917243 216.592274 
L 264.106454 216.054683 
L 265.295664 217.656798 
L 266.484875 221.638847 
L 267.674086 227.876243 
L 268.863297 235.827306 
L 271.241718 253.193764 
L 272.430929 260.696934 
L 273.62014 266.501009 
L 274.809351 270.297592 
L 275.998561 271.985197 
L 277.187772 271.570356 
L 278.376983 269.138213 
L 279.566194 264.863416 
L 280.755405 259.018209 
L 283.133826 244.343049 
L 284.323037 236.760571 
L 285.512248 229.953156 
L 286.701459 224.489647 
L 287.890669 220.705101 
L 289.07988 218.701748 
L 290.269091 218.429533 
L 291.458302 219.766077 
L 292.647512 222.548649 
L 293.836723 226.575554 
L 295.025934 231.60753 
L 297.404356 243.642226 
L 302.161199 269.498496 
L 304.53962 280.938805 
L 305.728831 285.531712 
L 306.918042 288.877946 
L 308.107253 290.683623 
L 309.296464 290.829101 
L 310.485674 289.394166 
L 311.674885 286.637031 
L 312.864096 282.936356 
L 317.620939 266.272888 
L 321.188571 255.223286 
L 322.377782 250.698657 
L 323.566993 245.338792 
L 325.945415 232.458025 
L 327.134625 225.816876 
L 328.323836 219.918397 
L 329.513047 215.357368 
L 330.702258 212.501397 
L 331.891469 211.450036 
L 333.080679 212.069887 
L 334.26989 214.068833 
L 335.459101 217.07777 
L 337.837522 224.663174 
L 341.405155 236.77551 
L 342.594366 241.161793 
L 343.783576 246.029887 
L 344.972787 251.492122 
L 349.72963 275.250168 
L 350.918841 279.327288 
L 352.108052 281.855052 
L 353.297263 282.76918 
L 354.486474 282.198359 
L 355.675684 280.398968 
L 356.864895 277.687767 
L 359.243317 270.78257 
L 362.810949 259.457187 
L 364.00016 255.271152 
L 365.189371 250.602211 
L 366.378581 245.353618 
L 371.135425 222.281651 
L 372.324635 218.101622 
L 373.513846 215.281488 
L 374.703057 213.886958 
L 375.892268 213.819795 
L 377.081479 214.876201 
L 378.270689 216.801008 
L 379.4599 219.329057 
L 381.838322 225.295469 
L 384.216743 232.073849 
L 385.405954 236.126381 
L 386.595165 240.894127 
L 387.784376 246.477945 
L 390.162797 259.650942 
L 392.541219 272.875924 
L 393.73043 278.282879 
L 394.91964 282.443596 
L 396.108851 285.250872 
L 397.298062 286.728484 
L 398.487273 286.971935 
L 398.487273 286.971935 
" style="fill:none;stroke:#ff0000;stroke-linecap:square;stroke-width:2;"/>
   </g>
   <g id="line2d_28">
    <path clip-path="url(#p777ca33519)" d="M 73.832727 244.241322 
L 75.021938 260.650437 
L 76.211149 251.840818 
L 77.40036 257.817187 
L 78.58957 249.809824 
L 79.778781 252.115729 
L 80.967992 235.759782 
L 82.157203 253.839231 
L 83.346414 246.379942 
L 84.535624 253.319972 
L 85.724835 250.69906 
L 86.914046 226.415389 
L 88.103257 242.307261 
L 89.292468 255.732141 
L 90.481678 243.575273 
L 91.670889 242.89789 
L 92.8601 254.732437 
L 94.049311 241.478161 
L 95.238521 235.403324 
L 96.427732 240.727337 
L 97.616943 236.243087 
L 98.806154 245.780625 
L 99.995365 247.420668 
L 101.184575 253.161365 
L 102.373786 243.698846 
L 103.562997 248.433461 
L 104.752208 241.849332 
L 105.941419 258.042511 
L 107.130629 256.344425 
L 108.31984 251.085796 
L 109.509051 254.594939 
L 110.698262 238.713202 
L 111.887473 278.349735 
L 113.076683 249.869662 
L 114.265894 260.513885 
L 115.455105 245.388754 
L 116.644316 258.242363 
L 117.833526 266.904142 
L 119.022737 261.912713 
L 120.211948 258.183078 
L 121.401159 257.56012 
L 122.59037 255.317358 
L 123.77958 254.077547 
L 124.968791 262.637992 
L 126.158002 257.19441 
L 127.347213 260.78015 
L 128.536424 255.413147 
L 129.725634 246.453347 
L 130.914845 254.777185 
L 132.104056 239.620427 
L 133.293267 248.098789 
L 134.482478 258.824593 
L 135.671688 238.987148 
L 136.860899 245.68011 
L 138.05011 226.47392 
L 139.239321 239.683411 
L 140.428531 236.99877 
L 141.617742 239.800465 
L 142.806953 231.617159 
L 143.996164 238.027283 
L 145.185375 246.015677 
L 146.374585 242.226657 
L 147.563796 258.530204 
L 148.753007 248.116183 
L 149.942218 256.118893 
L 151.131429 244.630386 
L 152.320639 243.382537 
L 153.50985 266.2115 
L 154.699061 246.866631 
L 155.888272 250.161972 
L 157.077483 271.522194 
L 158.266693 255.539003 
L 159.455904 257.308093 
L 160.645115 254.115628 
L 161.834326 262.53105 
L 163.023536 267.308285 
L 164.212747 257.228869 
L 165.401958 244.750177 
L 166.591169 259.607037 
L 167.78038 250.59191 
L 168.96959 260.153815 
L 170.158801 249.721097 
L 171.348012 251.738928 
L 172.537223 251.740417 
L 174.915644 238.662069 
L 176.104855 243.290968 
L 177.294066 252.099063 
L 178.483277 248.038584 
L 179.672488 235.755557 
L 180.861698 235.762544 
L 182.050909 242.111198 
L 183.24012 241.170086 
L 184.429331 257.36403 
L 185.618541 242.998087 
L 186.807752 255.14698 
L 187.996963 253.555709 
L 189.186174 258.069655 
L 190.375385 242.660524 
L 191.564595 250.136867 
L 192.753806 259.277176 
L 193.943017 256.874736 
L 195.132228 259.291628 
L 196.321439 264.56979 
L 198.69986 247.346748 
L 199.889071 232.875661 
L 201.078282 268.539021 
L 202.267493 265.109233 
L 203.456703 244.777906 
L 204.645914 237.083121 
L 205.835125 238.203398 
L 207.024336 238.698956 
L 208.213546 224.940476 
L 209.402757 203.552443 
L 210.591968 215.28084 
L 211.781179 213.48408 
L 212.97039 194.688 
L 214.1596 214.211515 
L 215.348811 209.193474 
L 216.538022 230.819086 
L 217.727233 213.94656 
L 218.916444 229.952969 
L 220.105654 248.509728 
L 221.294865 248.801923 
L 222.484076 253.912856 
L 223.673287 242.196779 
L 226.051708 274.769849 
L 227.240919 261.124997 
L 228.43013 257.673333 
L 229.619341 248.881715 
L 230.808551 249.631132 
L 231.997762 247.484089 
L 233.186973 260.855268 
L 234.376184 246.169797 
L 235.565395 254.13336 
L 236.754605 227.160773 
L 237.943816 224.786323 
L 239.133027 219.204294 
L 240.322238 238.855043 
L 241.511449 247.321687 
L 242.700659 248.635592 
L 243.88987 229.479506 
L 245.079081 264.349245 
L 246.268292 229.213231 
L 247.457502 246.924253 
L 248.646713 236.378008 
L 249.835924 252.39508 
L 251.025135 250.510543 
L 252.214346 239.53065 
L 253.403556 249.753322 
L 254.592767 212.763932 
L 255.781978 257.653999 
L 256.971189 240.148498 
L 258.1604 227.828624 
L 260.538821 215.185219 
L 261.728032 210.897013 
L 262.917243 225.105356 
L 264.106454 219.642653 
L 265.295664 209.336887 
L 266.484875 227.081966 
L 267.674086 233.44538 
L 268.863297 236.186133 
L 270.052507 242.088855 
L 271.241718 251.002903 
L 272.430929 253.35388 
L 273.62014 269.513338 
L 274.809351 265.031747 
L 275.998561 288.305082 
L 277.187772 266.430633 
L 278.376983 266.25168 
L 279.566194 269.432653 
L 280.755405 255.69928 
L 281.944615 256.691647 
L 283.133826 241.296743 
L 284.323037 228.243208 
L 285.512248 233.081747 
L 286.701459 221.689366 
L 287.890669 236.472197 
L 289.07988 204.892285 
L 290.269091 215.6152 
L 291.458302 227.439542 
L 292.647512 224.242755 
L 293.836723 227.577265 
L 295.025934 236.072697 
L 296.215145 229.397055 
L 297.404356 237.346731 
L 298.593566 256.982896 
L 299.782777 254.311485 
L 300.971988 265.817301 
L 302.161199 270.61999 
L 303.35041 270.701483 
L 304.53962 277.181608 
L 305.728831 292.674544 
L 306.918042 288.888645 
L 308.107253 295.19619 
L 309.296464 289.799079 
L 310.485674 294.023781 
L 311.674885 282.581565 
L 312.864096 272.281058 
L 314.053307 272.028951 
L 315.242517 281.759913 
L 316.431728 278.537118 
L 317.620939 274.324244 
L 318.81015 248.975937 
L 319.999361 250.248637 
L 321.188571 268.925863 
L 322.377782 254.653988 
L 323.566993 244.795485 
L 324.756204 241.432495 
L 325.945415 224.081199 
L 327.134625 219.31167 
L 328.323836 215.685472 
L 329.513047 228.692137 
L 330.702258 208.605656 
L 331.891469 216.449477 
L 333.080679 210.602203 
L 334.26989 219.918473 
L 335.459101 207.461574 
L 336.648312 220.533977 
L 337.837522 220.84451 
L 339.026733 232.022031 
L 340.215944 239.238997 
L 341.405155 242.021552 
L 342.594366 226.46685 
L 343.783576 245.342202 
L 344.972787 259.827654 
L 346.161998 263.898619 
L 347.351209 253.552697 
L 348.54042 275.007929 
L 349.72963 265.835035 
L 350.918841 282.470519 
L 352.108052 274.170874 
L 353.297263 302.208 
L 354.486474 286.410179 
L 355.675684 266.163727 
L 356.864895 276.512571 
L 358.054106 267.839171 
L 359.243317 277.350423 
L 360.432527 277.819427 
L 361.621738 253.730027 
L 362.810949 256.167061 
L 364.00016 257.956686 
L 365.189371 259.111038 
L 367.567792 229.516705 
L 368.757003 238.712917 
L 369.946214 227.297108 
L 371.135425 217.52174 
L 372.324635 217.940664 
L 373.513846 223.468989 
L 374.703057 203.492904 
L 375.892268 222.248972 
L 377.081479 212.113943 
L 378.270689 221.866978 
L 379.4599 217.416279 
L 380.649111 219.197115 
L 381.838322 221.214457 
L 383.027532 229.348067 
L 384.216743 239.877321 
L 385.405954 238.453397 
L 386.595165 233.599693 
L 387.784376 241.217627 
L 388.973586 255.385151 
L 390.162797 262.83006 
L 391.352008 258.754268 
L 392.541219 291.519826 
L 393.73043 272.51632 
L 394.91964 273.796539 
L 396.108851 293.169565 
L 397.298062 284.882784 
L 398.487273 283.251475 
L 398.487273 283.251475 
" style="fill:none;stroke:#0000ff;stroke-linecap:square;stroke-width:2;"/>
   </g>
   <g id="patch_8">
    <path d="M 57.6 307.584 
L 57.6 189.312 
" style="fill:none;stroke:#000000;stroke-linecap:square;stroke-linejoin:miter;stroke-width:0.8;"/>
   </g>
   <g id="patch_9">
    <path d="M 414.72 307.584 
L 414.72 189.312 
" style="fill:none;stroke:#000000;stroke-linecap:square;stroke-linejoin:miter;stroke-width:0.8;"/>
   </g>
   <g id="patch_10">
    <path d="M 57.6 307.584 
L 414.72 307.584 
" style="fill:none;stroke:#000000;stroke-linecap:square;stroke-linejoin:miter;stroke-width:0.8;"/>
   </g>
   <g id="patch_11">
    <path d="M 57.6 189.312 
L 414.72 189.312 
" style="fill:none;stroke:#000000;stroke-linecap:square;stroke-linejoin:miter;stroke-width:0.8;"/>
   </g>
   <g id="text_27">
    <!-- BOLD signal -->
    <defs>
     <path d="M 19.671875 34.8125 
L 19.671875 8.109375 
L 35.5 8.109375 
Q 43.453125 8.109375 47.28125 11.40625 
Q 51.125 14.703125 51.125 21.484375 
Q 51.125 28.328125 47.28125 31.5625 
Q 43.453125 34.8125 35.5 34.8125 
z
M 19.671875 64.796875 
L 19.671875 42.828125 
L 34.28125 42.828125 
Q 41.5 42.828125 45.03125 45.53125 
Q 48.578125 48.25 48.578125 53.8125 
Q 48.578125 59.328125 45.03125 62.0625 
Q 41.5 64.796875 34.28125 64.796875 
z
M 9.8125 72.90625 
L 35.015625 72.90625 
Q 46.296875 72.90625 52.390625 68.21875 
Q 58.5 63.53125 58.5 54.890625 
Q 58.5 48.1875 55.375 44.234375 
Q 52.25 40.28125 46.1875 39.3125 
Q 53.46875 37.75 57.5 32.78125 
Q 61.53125 27.828125 61.53125 20.40625 
Q 61.53125 10.640625 54.890625 5.3125 
Q 48.25 0 35.984375 0 
L 9.8125 0 
z
" id="DejaVuSans-42"/>
     <path d="M 39.40625 66.21875 
Q 28.65625 66.21875 22.328125 58.203125 
Q 16.015625 50.203125 16.015625 36.375 
Q 16.015625 22.609375 22.328125 14.59375 
Q 28.65625 6.59375 39.40625 6.59375 
Q 50.140625 6.59375 56.421875 14.59375 
Q 62.703125 22.609375 62.703125 36.375 
Q 62.703125 50.203125 56.421875 58.203125 
Q 50.140625 66.21875 39.40625 66.21875 
z
M 39.40625 74.21875 
Q 54.734375 74.21875 63.90625 63.9375 
Q 73.09375 53.65625 73.09375 36.375 
Q 73.09375 19.140625 63.90625 8.859375 
Q 54.734375 -1.421875 39.40625 -1.421875 
Q 24.03125 -1.421875 14.8125 8.828125 
Q 5.609375 19.09375 5.609375 36.375 
Q 5.609375 53.65625 14.8125 63.9375 
Q 24.03125 74.21875 39.40625 74.21875 
z
" id="DejaVuSans-4f"/>
     <path d="M 9.8125 72.90625 
L 19.671875 72.90625 
L 19.671875 8.296875 
L 55.171875 8.296875 
L 55.171875 0 
L 9.8125 0 
z
" id="DejaVuSans-4c"/>
     <path d="M 19.671875 64.796875 
L 19.671875 8.109375 
L 31.59375 8.109375 
Q 46.6875 8.109375 53.6875 14.9375 
Q 60.6875 21.78125 60.6875 36.53125 
Q 60.6875 51.171875 53.6875 57.984375 
Q 46.6875 64.796875 31.59375 64.796875 
z
M 9.8125 72.90625 
L 30.078125 72.90625 
Q 51.265625 72.90625 61.171875 64.09375 
Q 71.09375 55.28125 71.09375 36.53125 
Q 71.09375 17.671875 61.125 8.828125 
Q 51.171875 0 30.078125 0 
L 9.8125 0 
z
" id="DejaVuSans-44"/>
     <path d="M 44.28125 53.078125 
L 44.28125 44.578125 
Q 40.484375 46.53125 36.375 47.5 
Q 32.28125 48.484375 27.875 48.484375 
Q 21.1875 48.484375 17.84375 46.4375 
Q 14.5 44.390625 14.5 40.28125 
Q 14.5 37.15625 16.890625 35.375 
Q 19.28125 33.59375 26.515625 31.984375 
L 29.59375 31.296875 
Q 39.15625 29.25 43.1875 25.515625 
Q 47.21875 21.78125 47.21875 15.09375 
Q 47.21875 7.46875 41.1875 3.015625 
Q 35.15625 -1.421875 24.609375 -1.421875 
Q 20.21875 -1.421875 15.453125 -0.5625 
Q 10.6875 0.296875 5.421875 2 
L 5.421875 11.28125 
Q 10.40625 8.6875 15.234375 7.390625 
Q 20.0625 6.109375 24.8125 6.109375 
Q 31.15625 6.109375 34.5625 8.28125 
Q 37.984375 10.453125 37.984375 14.40625 
Q 37.984375 18.0625 35.515625 20.015625 
Q 33.0625 21.96875 24.703125 23.78125 
L 21.578125 24.515625 
Q 13.234375 26.265625 9.515625 29.90625 
Q 5.8125 33.546875 5.8125 39.890625 
Q 5.8125 47.609375 11.28125 51.796875 
Q 16.75 56 26.8125 56 
Q 31.78125 56 36.171875 55.265625 
Q 40.578125 54.546875 44.28125 53.078125 
z
" id="DejaVuSans-73"/>
     <path d="M 45.40625 27.984375 
Q 45.40625 37.75 41.375 43.109375 
Q 37.359375 48.484375 30.078125 48.484375 
Q 22.859375 48.484375 18.828125 43.109375 
Q 14.796875 37.75 14.796875 27.984375 
Q 14.796875 18.265625 18.828125 12.890625 
Q 22.859375 7.515625 30.078125 7.515625 
Q 37.359375 7.515625 41.375 12.890625 
Q 45.40625 18.265625 45.40625 27.984375 
z
M 54.390625 6.78125 
Q 54.390625 -7.171875 48.1875 -13.984375 
Q 42 -20.796875 29.203125 -20.796875 
Q 24.46875 -20.796875 20.265625 -20.09375 
Q 16.0625 -19.390625 12.109375 -17.921875 
L 12.109375 -9.1875 
Q 16.0625 -11.328125 19.921875 -12.34375 
Q 23.78125 -13.375 27.78125 -13.375 
Q 36.625 -13.375 41.015625 -8.765625 
Q 45.40625 -4.15625 45.40625 5.171875 
L 45.40625 9.625 
Q 42.625 4.78125 38.28125 2.390625 
Q 33.9375 0 27.875 0 
Q 17.828125 0 11.671875 7.65625 
Q 5.515625 15.328125 5.515625 27.984375 
Q 5.515625 40.671875 11.671875 48.328125 
Q 17.828125 56 27.875 56 
Q 33.9375 56 38.28125 53.609375 
Q 42.625 51.21875 45.40625 46.390625 
L 45.40625 54.6875 
L 54.390625 54.6875 
z
" id="DejaVuSans-67"/>
     <path d="M 54.890625 33.015625 
L 54.890625 0 
L 45.90625 0 
L 45.90625 32.71875 
Q 45.90625 40.484375 42.875 44.328125 
Q 39.84375 48.1875 33.796875 48.1875 
Q 26.515625 48.1875 22.3125 43.546875 
Q 18.109375 38.921875 18.109375 30.90625 
L 18.109375 0 
L 9.078125 0 
L 9.078125 54.6875 
L 18.109375 54.6875 
L 18.109375 46.1875 
Q 21.34375 51.125 25.703125 53.5625 
Q 30.078125 56 35.796875 56 
Q 45.21875 56 50.046875 50.171875 
Q 54.890625 44.34375 54.890625 33.015625 
z
" id="DejaVuSans-6e"/>
     <path d="M 34.28125 27.484375 
Q 23.390625 27.484375 19.1875 25 
Q 14.984375 22.515625 14.984375 16.5 
Q 14.984375 11.71875 18.140625 8.90625 
Q 21.296875 6.109375 26.703125 6.109375 
Q 34.1875 6.109375 38.703125 11.40625 
Q 43.21875 16.703125 43.21875 25.484375 
L 43.21875 27.484375 
z
M 52.203125 31.203125 
L 52.203125 0 
L 43.21875 0 
L 43.21875 8.296875 
Q 40.140625 3.328125 35.546875 0.953125 
Q 30.953125 -1.421875 24.3125 -1.421875 
Q 15.921875 -1.421875 10.953125 3.296875 
Q 6 8.015625 6 15.921875 
Q 6 25.140625 12.171875 29.828125 
Q 18.359375 34.515625 30.609375 34.515625 
L 43.21875 34.515625 
L 43.21875 35.40625 
Q 43.21875 41.609375 39.140625 45 
Q 35.0625 48.390625 27.6875 48.390625 
Q 23 48.390625 18.546875 47.265625 
Q 14.109375 46.140625 10.015625 43.890625 
L 10.015625 52.203125 
Q 14.9375 54.109375 19.578125 55.046875 
Q 24.21875 56 28.609375 56 
Q 40.484375 56 46.34375 49.84375 
Q 52.203125 43.703125 52.203125 31.203125 
z
" id="DejaVuSans-61"/>
     <path d="M 9.421875 75.984375 
L 18.40625 75.984375 
L 18.40625 0 
L 9.421875 0 
z
" id="DejaVuSans-6c"/>
    </defs>
    <g transform="translate(199.703438 183.312)scale(0.12 -0.12)">
     <use xlink:href="#DejaVuSans-42"/>
     <use x="68.587891" xlink:href="#DejaVuSans-4f"/>
     <use x="147.298828" xlink:href="#DejaVuSans-4c"/>
     <use x="203.011719" xlink:href="#DejaVuSans-44"/>
     <use x="280.013672" xlink:href="#DejaVuSans-20"/>
     <use x="311.800781" xlink:href="#DejaVuSans-73"/>
     <use x="363.900391" xlink:href="#DejaVuSans-69"/>
     <use x="391.683594" xlink:href="#DejaVuSans-67"/>
     <use x="455.160156" xlink:href="#DejaVuSans-6e"/>
     <use x="518.539062" xlink:href="#DejaVuSans-61"/>
     <use x="579.818359" xlink:href="#DejaVuSans-6c"/>
    </g>
   </g>
  </g>
 </g>
 <defs>
  <clipPath id="p57f003e0cf">
   <rect height="118.272" width="357.12" x="57.6" y="41.472"/>
  </clipPath>
  <clipPath id="p777ca33519">
   <rect height="118.272" width="357.12" x="57.6" y="189.312"/>
  </clipPath>
 </defs>
</svg>
