<?xml version="1.0" encoding="utf-8" standalone="no"?>
<!DOCTYPE svg PUBLIC "-//W3C//DTD SVG 1.1//EN"
  "http://www.w3.org/Graphics/SVG/1.1/DTD/svg11.dtd">
<!-- Created with matplotlib (http://matplotlib.org/) -->
<svg height="345.6pt" version="1.1" viewBox="0 0 460.8 345.6" width="460.8pt" xmlns="http://www.w3.org/2000/svg" xmlns:xlink="http://www.w3.org/1999/xlink">
 <defs>
  <style type="text/css">
*{stroke-linecap:butt;stroke-linejoin:round;}
  </style>
 </defs>
 <g id="figure_1">
  <g id="patch_1">
   <path d="M 0 345.6 
L 460.8 345.6 
L 460.8 0 
L 0 0 
z
" style="fill:#ffffff;"/>
  </g>
  <g id="axes_1">
   <g id="patch_2">
    <path d="M 57.6 159.744 
L 414.72 159.744 
L 414.72 41.472 
L 57.6 41.472 
z
" style="fill:#ffffff;"/>
   </g>
   <g id="matplotlib.axis_1">
    <g id="xtick_1">
     <g id="line2d_1">
      <defs>
       <path d="M 0 0 
L 0 3.5 
" id="ma1b5d81aac" style="stroke:#000000;stroke-width:0.8;"/>
      </defs>
      <g>
       <use style="stroke:#000000;stroke-width:0.8;" x="57.183776" xlink:href="#ma1b5d81aac" y="159.744"/>
      </g>
     </g>
     <g id="text_1">
      <!-- 0 -->
      <defs>
       <path d="M 31.78125 66.40625 
Q 24.171875 66.40625 20.328125 58.90625 
Q 16.5 51.421875 16.5 36.375 
Q 16.5 21.390625 20.328125 13.890625 
Q 24.171875 6.390625 31.78125 6.390625 
Q 39.453125 6.390625 43.28125 13.890625 
Q 47.125 21.390625 47.125 36.375 
Q 47.125 51.421875 43.28125 58.90625 
Q 39.453125 66.40625 31.78125 66.40625 
z
M 31.78125 74.21875 
Q 44.046875 74.21875 50.515625 64.515625 
Q 56.984375 54.828125 56.984375 36.375 
Q 56.984375 17.96875 50.515625 8.265625 
Q 44.046875 -1.421875 31.78125 -1.421875 
Q 19.53125 -1.421875 13.0625 8.265625 
Q 6.59375 17.96875 6.59375 36.375 
Q 6.59375 54.828125 13.0625 64.515625 
Q 19.53125 74.21875 31.78125 74.21875 
z
" id="DejaVuSans-30"/>
      </defs>
      <g transform="translate(54.002526 174.342437)scale(0.1 -0.1)">
       <use xlink:href="#DejaVuSans-30"/>
      </g>
     </g>
    </g>
    <g id="xtick_2">
     <g id="line2d_2">
      <g>
       <use style="stroke:#000000;stroke-width:0.8;" x="98.475818" xlink:href="#ma1b5d81aac" y="159.744"/>
      </g>
     </g>
     <g id="text_2">
      <!-- 25 -->
      <defs>
       <path d="M 19.1875 8.296875 
L 53.609375 8.296875 
L 53.609375 0 
L 7.328125 0 
L 7.328125 8.296875 
Q 12.9375 14.109375 22.625 23.890625 
Q 32.328125 33.6875 34.8125 36.53125 
Q 39.546875 41.84375 41.421875 45.53125 
Q 43.3125 49.21875 43.3125 52.78125 
Q 43.3125 58.59375 39.234375 62.25 
Q 35.15625 65.921875 28.609375 65.921875 
Q 23.96875 65.921875 18.8125 64.3125 
Q 13.671875 62.703125 7.8125 59.421875 
L 7.8125 69.390625 
Q 13.765625 71.78125 18.9375 73 
Q 24.125 74.21875 28.421875 74.21875 
Q 39.75 74.21875 46.484375 68.546875 
Q 53.21875 62.890625 53.21875 53.421875 
Q 53.21875 48.921875 51.53125 44.890625 
Q 49.859375 40.875 45.40625 35.40625 
Q 44.1875 33.984375 37.640625 27.21875 
Q 31.109375 20.453125 19.1875 8.296875 
z
" id="DejaVuSans-32"/>
       <path d="M 10.796875 72.90625 
L 49.515625 72.90625 
L 49.515625 64.59375 
L 19.828125 64.59375 
L 19.828125 46.734375 
Q 21.96875 47.46875 24.109375 47.828125 
Q 26.265625 48.1875 28.421875 48.1875 
Q 40.625 48.1875 47.75 41.5 
Q 54.890625 34.8125 54.890625 23.390625 
Q 54.890625 11.625 47.5625 5.09375 
Q 40.234375 -1.421875 26.90625 -1.421875 
Q 22.3125 -1.421875 17.546875 -0.640625 
Q 12.796875 0.140625 7.71875 1.703125 
L 7.71875 11.625 
Q 12.109375 9.234375 16.796875 8.0625 
Q 21.484375 6.890625 26.703125 6.890625 
Q 35.15625 6.890625 40.078125 11.328125 
Q 45.015625 15.765625 45.015625 23.390625 
Q 45.015625 31 40.078125 35.4375 
Q 35.15625 39.890625 26.703125 39.890625 
Q 22.75 39.890625 18.8125 39.015625 
Q 14.890625 38.140625 10.796875 36.28125 
z
" id="DejaVuSans-35"/>
      </defs>
      <g transform="translate(92.113318 174.342437)scale(0.1 -0.1)">
       <use xlink:href="#DejaVuSans-32"/>
       <use x="63.623047" xlink:href="#DejaVuSans-35"/>
      </g>
     </g>
    </g>
    <g id="xtick_3">
     <g id="line2d_3">
      <g>
       <use style="stroke:#000000;stroke-width:0.8;" x="139.767859" xlink:href="#ma1b5d81aac" y="159.744"/>
      </g>
     </g>
     <g id="text_3">
      <!-- 50 -->
      <g transform="translate(133.405359 174.342437)scale(0.1 -0.1)">
       <use xlink:href="#DejaVuSans-35"/>
       <use x="63.623047" xlink:href="#DejaVuSans-30"/>
      </g>
     </g>
    </g>
    <g id="xtick_4">
     <g id="line2d_4">
      <g>
       <use style="stroke:#000000;stroke-width:0.8;" x="181.0599" xlink:href="#ma1b5d81aac" y="159.744"/>
      </g>
     </g>
     <g id="text_4">
      <!-- 75 -->
      <defs>
       <path d="M 8.203125 72.90625 
L 55.078125 72.90625 
L 55.078125 68.703125 
L 28.609375 0 
L 18.3125 0 
L 43.21875 64.59375 
L 8.203125 64.59375 
z
" id="DejaVuSans-37"/>
      </defs>
      <g transform="translate(174.6974 174.342437)scale(0.1 -0.1)">
       <use xlink:href="#DejaVuSans-37"/>
       <use x="63.623047" xlink:href="#DejaVuSans-35"/>
      </g>
     </g>
    </g>
    <g id="xtick_5">
     <g id="line2d_5">
      <g>
       <use style="stroke:#000000;stroke-width:0.8;" x="222.351941" xlink:href="#ma1b5d81aac" y="159.744"/>
      </g>
     </g>
     <g id="text_5">
      <!-- 100 -->
      <defs>
       <path d="M 12.40625 8.296875 
L 28.515625 8.296875 
L 28.515625 63.921875 
L 10.984375 60.40625 
L 10.984375 69.390625 
L 28.421875 72.90625 
L 38.28125 72.90625 
L 38.28125 8.296875 
L 54.390625 8.296875 
L 54.390625 0 
L 12.40625 0 
z
" id="DejaVuSans-31"/>
      </defs>
      <g transform="translate(212.808191 174.342437)scale(0.1 -0.1)">
       <use xlink:href="#DejaVuSans-31"/>
       <use x="63.623047" xlink:href="#DejaVuSans-30"/>
       <use x="127.246094" xlink:href="#DejaVuSans-30"/>
      </g>
     </g>
    </g>
    <g id="xtick_6">
     <g id="line2d_6">
      <g>
       <use style="stroke:#000000;stroke-width:0.8;" x="263.643983" xlink:href="#ma1b5d81aac" y="159.744"/>
      </g>
     </g>
     <g id="text_6">
      <!-- 125 -->
      <g transform="translate(254.100233 174.342437)scale(0.1 -0.1)">
       <use xlink:href="#DejaVuSans-31"/>
       <use x="63.623047" xlink:href="#DejaVuSans-32"/>
       <use x="127.246094" xlink:href="#DejaVuSans-35"/>
      </g>
     </g>
    </g>
    <g id="xtick_7">
     <g id="line2d_7">
      <g>
       <use style="stroke:#000000;stroke-width:0.8;" x="304.936024" xlink:href="#ma1b5d81aac" y="159.744"/>
      </g>
     </g>
     <g id="text_7">
      <!-- 150 -->
      <g transform="translate(295.392274 174.342437)scale(0.1 -0.1)">
       <use xlink:href="#DejaVuSans-31"/>
       <use x="63.623047" xlink:href="#DejaVuSans-35"/>
       <use x="127.246094" xlink:href="#DejaVuSans-30"/>
      </g>
     </g>
    </g>
    <g id="xtick_8">
     <g id="line2d_8">
      <g>
       <use style="stroke:#000000;stroke-width:0.8;" x="346.228065" xlink:href="#ma1b5d81aac" y="159.744"/>
      </g>
     </g>
     <g id="text_8">
      <!-- 175 -->
      <g transform="translate(336.684315 174.342437)scale(0.1 -0.1)">
       <use xlink:href="#DejaVuSans-31"/>
       <use x="63.623047" xlink:href="#DejaVuSans-37"/>
       <use x="127.246094" xlink:href="#DejaVuSans-35"/>
      </g>
     </g>
    </g>
    <g id="xtick_9">
     <g id="line2d_9">
      <g>
       <use style="stroke:#000000;stroke-width:0.8;" x="387.520107" xlink:href="#ma1b5d81aac" y="159.744"/>
      </g>
     </g>
     <g id="text_9">
      <!-- 200 -->
      <g transform="translate(377.976357 174.342437)scale(0.1 -0.1)">
       <use xlink:href="#DejaVuSans-32"/>
       <use x="63.623047" xlink:href="#DejaVuSans-30"/>
       <use x="127.246094" xlink:href="#DejaVuSans-30"/>
      </g>
     </g>
    </g>
   </g>
   <g id="matplotlib.axis_2">
    <g id="ytick_1">
     <g id="line2d_10">
      <defs>
       <path d="M 0 0 
L -3.5 0 
" id="m6e54dba107" style="stroke:#000000;stroke-width:0.8;"/>
      </defs>
      <g>
       <use style="stroke:#000000;stroke-width:0.8;" x="57.6" xlink:href="#m6e54dba107" y="145.607297"/>
      </g>
     </g>
     <g id="text_10">
      <!-- −2 -->
      <defs>
       <path d="M 10.59375 35.5 
L 73.1875 35.5 
L 73.1875 27.203125 
L 10.59375 27.203125 
z
" id="DejaVuSans-2212"/>
      </defs>
      <g transform="translate(35.857813 149.406516)scale(0.1 -0.1)">
       <use xlink:href="#DejaVuSans-2212"/>
       <use x="83.789062" xlink:href="#DejaVuSans-32"/>
      </g>
     </g>
    </g>
    <g id="ytick_2">
     <g id="line2d_11">
      <g>
       <use style="stroke:#000000;stroke-width:0.8;" x="57.6" xlink:href="#m6e54dba107" y="121.216994"/>
      </g>
     </g>
     <g id="text_11">
      <!-- −1 -->
      <g transform="translate(35.857813 125.016213)scale(0.1 -0.1)">
       <use xlink:href="#DejaVuSans-2212"/>
       <use x="83.789062" xlink:href="#DejaVuSans-31"/>
      </g>
     </g>
    </g>
    <g id="ytick_3">
     <g id="line2d_12">
      <g>
       <use style="stroke:#000000;stroke-width:0.8;" x="57.6" xlink:href="#m6e54dba107" y="96.826691"/>
      </g>
     </g>
     <g id="text_12">
      <!-- 0 -->
      <g transform="translate(44.2375 100.62591)scale(0.1 -0.1)">
       <use xlink:href="#DejaVuSans-30"/>
      </g>
     </g>
    </g>
    <g id="ytick_4">
     <g id="line2d_13">
      <g>
       <use style="stroke:#000000;stroke-width:0.8;" x="57.6" xlink:href="#m6e54dba107" y="72.436389"/>
      </g>
     </g>
     <g id="text_13">
      <!-- 1 -->
      <g transform="translate(44.2375 76.235607)scale(0.1 -0.1)">
       <use xlink:href="#DejaVuSans-31"/>
      </g>
     </g>
    </g>
    <g id="ytick_5">
     <g id="line2d_14">
      <g>
       <use style="stroke:#000000;stroke-width:0.8;" x="57.6" xlink:href="#m6e54dba107" y="48.046086"/>
      </g>
     </g>
     <g id="text_14">
      <!-- 2 -->
      <g transform="translate(44.2375 51.845305)scale(0.1 -0.1)">
       <use xlink:href="#DejaVuSans-32"/>
      </g>
     </g>
    </g>
   </g>
   <g id="line2d_15">
    <path clip-path="url(#p7b85da0ad5)" d="M 73.832727 77.325427 
L 85.724835 154.368 
L 99.995365 83.755015 
L 114.265894 112.993186 
L 128.536424 53.853149 
L 142.806953 133.165286 
L 157.077483 134.98335 
L 171.348012 102.117424 
L 185.618541 80.598068 
L 199.889071 94.279467 
L 214.1596 116.032211 
L 228.43013 117.930456 
L 242.700659 97.408079 
L 256.971189 52.721592 
L 271.241718 95.911229 
L 285.512248 103.905781 
L 299.782777 91.880081 
L 314.053307 93.059639 
L 328.323836 46.848 
L 342.594366 85.659041 
L 356.864895 54.8783 
L 371.135425 122.884505 
L 385.405954 127.265409 
L 398.487273 145.455507 
L 398.487273 145.455507 
" style="fill:none;stroke:#7e1e9c;stroke-linecap:square;stroke-width:2;"/>
   </g>
   <g id="patch_3">
    <path d="M 57.6 159.744 
L 57.6 41.472 
" style="fill:none;stroke:#000000;stroke-linecap:square;stroke-linejoin:miter;stroke-width:0.8;"/>
   </g>
   <g id="patch_4">
    <path d="M 414.72 159.744 
L 414.72 41.472 
" style="fill:none;stroke:#000000;stroke-linecap:square;stroke-linejoin:miter;stroke-width:0.8;"/>
   </g>
   <g id="patch_5">
    <path d="M 57.6 159.744 
L 414.72 159.744 
" style="fill:none;stroke:#000000;stroke-linecap:square;stroke-linejoin:miter;stroke-width:0.8;"/>
   </g>
   <g id="patch_6">
    <path d="M 57.6 41.472 
L 414.72 41.472 
" style="fill:none;stroke:#000000;stroke-linecap:square;stroke-linejoin:miter;stroke-width:0.8;"/>
   </g>
  </g>
  <g id="axes_2">
   <g id="patch_7">
    <path d="M 57.6 307.584 
L 414.72 307.584 
L 414.72 189.312 
L 57.6 189.312 
z
" style="fill:#ffffff;"/>
   </g>
   <g id="matplotlib.axis_3">
    <g id="xtick_10">
     <g id="line2d_16">
      <g>
       <use style="stroke:#000000;stroke-width:0.8;" x="57.183776" xlink:href="#ma1b5d81aac" y="307.584"/>
      </g>
     </g>
     <g id="text_15">
      <!-- 0 -->
      <g transform="translate(54.002526 322.182437)scale(0.1 -0.1)">
       <use xlink:href="#DejaVuSans-30"/>
      </g>
     </g>
    </g>
    <g id="xtick_11">
     <g id="line2d_17">
      <g>
       <use style="stroke:#000000;stroke-width:0.8;" x="98.475818" xlink:href="#ma1b5d81aac" y="307.584"/>
      </g>
     </g>
     <g id="text_16">
      <!-- 25 -->
      <g transform="translate(92.113318 322.182437)scale(0.1 -0.1)">
       <use xlink:href="#DejaVuSans-32"/>
       <use x="63.623047" xlink:href="#DejaVuSans-35"/>
      </g>
     </g>
    </g>
    <g id="xtick_12">
     <g id="line2d_18">
      <g>
       <use style="stroke:#000000;stroke-width:0.8;" x="139.767859" xlink:href="#ma1b5d81aac" y="307.584"/>
      </g>
     </g>
     <g id="text_17">
      <!-- 50 -->
      <g transform="translate(133.405359 322.182437)scale(0.1 -0.1)">
       <use xlink:href="#DejaVuSans-35"/>
       <use x="63.623047" xlink:href="#DejaVuSans-30"/>
      </g>
     </g>
    </g>
    <g id="xtick_13">
     <g id="line2d_19">
      <g>
       <use style="stroke:#000000;stroke-width:0.8;" x="181.0599" xlink:href="#ma1b5d81aac" y="307.584"/>
      </g>
     </g>
     <g id="text_18">
      <!-- 75 -->
      <g transform="translate(174.6974 322.182437)scale(0.1 -0.1)">
       <use xlink:href="#DejaVuSans-37"/>
       <use x="63.623047" xlink:href="#DejaVuSans-35"/>
      </g>
     </g>
    </g>
    <g id="xtick_14">
     <g id="line2d_20">
      <g>
       <use style="stroke:#000000;stroke-width:0.8;" x="222.351941" xlink:href="#ma1b5d81aac" y="307.584"/>
      </g>
     </g>
     <g id="text_19">
      <!-- 100 -->
      <g transform="translate(212.808191 322.182437)scale(0.1 -0.1)">
       <use xlink:href="#DejaVuSans-31"/>
       <use x="63.623047" xlink:href="#DejaVuSans-30"/>
       <use x="127.246094" xlink:href="#DejaVuSans-30"/>
      </g>
     </g>
    </g>
    <g id="xtick_15">
     <g id="line2d_21">
      <g>
       <use style="stroke:#000000;stroke-width:0.8;" x="263.643983" xlink:href="#ma1b5d81aac" y="307.584"/>
      </g>
     </g>
     <g id="text_20">
      <!-- 125 -->
      <g transform="translate(254.100233 322.182437)scale(0.1 -0.1)">
       <use xlink:href="#DejaVuSans-31"/>
       <use x="63.623047" xlink:href="#DejaVuSans-32"/>
       <use x="127.246094" xlink:href="#DejaVuSans-35"/>
      </g>
     </g>
    </g>
    <g id="xtick_16">
     <g id="line2d_22">
      <g>
       <use style="stroke:#000000;stroke-width:0.8;" x="304.936024" xlink:href="#ma1b5d81aac" y="307.584"/>
      </g>
     </g>
     <g id="text_21">
      <!-- 150 -->
      <g transform="translate(295.392274 322.182437)scale(0.1 -0.1)">
       <use xlink:href="#DejaVuSans-31"/>
       <use x="63.623047" xlink:href="#DejaVuSans-35"/>
       <use x="127.246094" xlink:href="#DejaVuSans-30"/>
      </g>
     </g>
    </g>
    <g id="xtick_17">
     <g id="line2d_23">
      <g>
       <use style="stroke:#000000;stroke-width:0.8;" x="346.228065" xlink:href="#ma1b5d81aac" y="307.584"/>
      </g>
     </g>
     <g id="text_22">
      <!-- 175 -->
      <g transform="translate(336.684315 322.182437)scale(0.1 -0.1)">
       <use xlink:href="#DejaVuSans-31"/>
       <use x="63.623047" xlink:href="#DejaVuSans-37"/>
       <use x="127.246094" xlink:href="#DejaVuSans-35"/>
      </g>
     </g>
    </g>
    <g id="xtick_18">
     <g id="line2d_24">
      <g>
       <use style="stroke:#000000;stroke-width:0.8;" x="387.520107" xlink:href="#ma1b5d81aac" y="307.584"/>
      </g>
     </g>
     <g id="text_23">
      <!-- 200 -->
      <g transform="translate(377.976357 322.182437)scale(0.1 -0.1)">
       <use xlink:href="#DejaVuSans-32"/>
       <use x="63.623047" xlink:href="#DejaVuSans-30"/>
       <use x="127.246094" xlink:href="#DejaVuSans-30"/>
      </g>
     </g>
    </g>
    <g id="text_24">
     <!-- Time (Sec) -->
     <defs>
      <path d="M -0.296875 72.90625 
L 61.375 72.90625 
L 61.375 64.59375 
L 35.5 64.59375 
L 35.5 0 
L 25.59375 0 
L 25.59375 64.59375 
L -0.296875 64.59375 
z
" id="DejaVuSans-54"/>
      <path d="M 9.421875 54.6875 
L 18.40625 54.6875 
L 18.40625 0 
L 9.421875 0 
z
M 9.421875 75.984375 
L 18.40625 75.984375 
L 18.40625 64.59375 
L 9.421875 64.59375 
z
" id="DejaVuSans-69"/>
      <path d="M 52 44.1875 
Q 55.375 50.25 60.0625 53.125 
Q 64.75 56 71.09375 56 
Q 79.640625 56 84.28125 50.015625 
Q 88.921875 44.046875 88.921875 33.015625 
L 88.921875 0 
L 79.890625 0 
L 79.890625 32.71875 
Q 79.890625 40.578125 77.09375 44.375 
Q 74.3125 48.1875 68.609375 48.1875 
Q 61.625 48.1875 57.5625 43.546875 
Q 53.515625 38.921875 53.515625 30.90625 
L 53.515625 0 
L 44.484375 0 
L 44.484375 32.71875 
Q 44.484375 40.625 41.703125 44.40625 
Q 38.921875 48.1875 33.109375 48.1875 
Q 26.21875 48.1875 22.15625 43.53125 
Q 18.109375 38.875 18.109375 30.90625 
L 18.109375 0 
L 9.078125 0 
L 9.078125 54.6875 
L 18.109375 54.6875 
L 18.109375 46.1875 
Q 21.1875 51.21875 25.484375 53.609375 
Q 29.78125 56 35.6875 56 
Q 41.65625 56 45.828125 52.96875 
Q 50 49.953125 52 44.1875 
z
" id="DejaVuSans-6d"/>
      <path d="M 56.203125 29.59375 
L 56.203125 25.203125 
L 14.890625 25.203125 
Q 15.484375 15.921875 20.484375 11.0625 
Q 25.484375 6.203125 34.421875 6.203125 
Q 39.59375 6.203125 44.453125 7.46875 
Q 49.3125 8.734375 54.109375 11.28125 
L 54.109375 2.78125 
Q 49.265625 0.734375 44.1875 -0.34375 
Q 39.109375 -1.421875 33.890625 -1.421875 
Q 20.796875 -1.421875 13.15625 6.1875 
Q 5.515625 13.8125 5.515625 26.8125 
Q 5.515625 40.234375 12.765625 48.109375 
Q 20.015625 56 32.328125 56 
Q 43.359375 56 49.78125 48.890625 
Q 56.203125 41.796875 56.203125 29.59375 
z
M 47.21875 32.234375 
Q 47.125 39.59375 43.09375 43.984375 
Q 39.0625 48.390625 32.421875 48.390625 
Q 24.90625 48.390625 20.390625 44.140625 
Q 15.875 39.890625 15.1875 32.171875 
z
" id="DejaVuSans-65"/>
      <path id="DejaVuSans-20"/>
      <path d="M 31 75.875 
Q 24.46875 64.65625 21.28125 53.65625 
Q 18.109375 42.671875 18.109375 31.390625 
Q 18.109375 20.125 21.3125 9.0625 
Q 24.515625 -2 31 -13.1875 
L 23.1875 -13.1875 
Q 15.875 -1.703125 12.234375 9.375 
Q 8.59375 20.453125 8.59375 31.390625 
Q 8.59375 42.28125 12.203125 53.3125 
Q 15.828125 64.359375 23.1875 75.875 
z
" id="DejaVuSans-28"/>
      <path d="M 53.515625 70.515625 
L 53.515625 60.890625 
Q 47.90625 63.578125 42.921875 64.890625 
Q 37.9375 66.21875 33.296875 66.21875 
Q 25.25 66.21875 20.875 63.09375 
Q 16.5 59.96875 16.5 54.203125 
Q 16.5 49.359375 19.40625 46.890625 
Q 22.3125 44.4375 30.421875 42.921875 
L 36.375 41.703125 
Q 47.40625 39.59375 52.65625 34.296875 
Q 57.90625 29 57.90625 20.125 
Q 57.90625 9.515625 50.796875 4.046875 
Q 43.703125 -1.421875 29.984375 -1.421875 
Q 24.8125 -1.421875 18.96875 -0.25 
Q 13.140625 0.921875 6.890625 3.21875 
L 6.890625 13.375 
Q 12.890625 10.015625 18.65625 8.296875 
Q 24.421875 6.59375 29.984375 6.59375 
Q 38.421875 6.59375 43.015625 9.90625 
Q 47.609375 13.234375 47.609375 19.390625 
Q 47.609375 24.75 44.3125 27.78125 
Q 41.015625 30.8125 33.5 32.328125 
L 27.484375 33.5 
Q 16.453125 35.6875 11.515625 40.375 
Q 6.59375 45.0625 6.59375 53.421875 
Q 6.59375 63.09375 13.40625 68.65625 
Q 20.21875 74.21875 32.171875 74.21875 
Q 37.3125 74.21875 42.625 73.28125 
Q 47.953125 72.359375 53.515625 70.515625 
z
" id="DejaVuSans-53"/>
      <path d="M 48.78125 52.59375 
L 48.78125 44.1875 
Q 44.96875 46.296875 41.140625 47.34375 
Q 37.3125 48.390625 33.40625 48.390625 
Q 24.65625 48.390625 19.8125 42.84375 
Q 14.984375 37.3125 14.984375 27.296875 
Q 14.984375 17.28125 19.8125 11.734375 
Q 24.65625 6.203125 33.40625 6.203125 
Q 37.3125 6.203125 41.140625 7.25 
Q 44.96875 8.296875 48.78125 10.40625 
L 48.78125 2.09375 
Q 45.015625 0.34375 40.984375 -0.53125 
Q 36.96875 -1.421875 32.421875 -1.421875 
Q 20.0625 -1.421875 12.78125 6.34375 
Q 5.515625 14.109375 5.515625 27.296875 
Q 5.515625 40.671875 12.859375 48.328125 
Q 20.21875 56 33.015625 56 
Q 37.15625 56 41.109375 55.140625 
Q 45.0625 54.296875 48.78125 52.59375 
z
" id="DejaVuSans-63"/>
      <path d="M 8.015625 75.875 
L 15.828125 75.875 
Q 23.140625 64.359375 26.78125 53.3125 
Q 30.421875 42.28125 30.421875 31.390625 
Q 30.421875 20.453125 26.78125 9.375 
Q 23.140625 -1.703125 15.828125 -13.1875 
L 8.015625 -13.1875 
Q 14.5 -2 17.703125 9.0625 
Q 20.90625 20.125 20.90625 31.390625 
Q 20.90625 42.671875 17.703125 53.65625 
Q 14.5 64.65625 8.015625 75.875 
z
" id="DejaVuSans-29"/>
     </defs>
     <g transform="translate(209.281875 335.860562)scale(0.1 -0.1)">
      <use xlink:href="#DejaVuSans-54"/>
      <use x="61.037109" xlink:href="#DejaVuSans-69"/>
      <use x="88.820312" xlink:href="#DejaVuSans-6d"/>
      <use x="186.232422" xlink:href="#DejaVuSans-65"/>
      <use x="247.755859" xlink:href="#DejaVuSans-20"/>
      <use x="279.542969" xlink:href="#DejaVuSans-28"/>
      <use x="318.556641" xlink:href="#DejaVuSans-53"/>
      <use x="382.033203" xlink:href="#DejaVuSans-65"/>
      <use x="443.556641" xlink:href="#DejaVuSans-63"/>
      <use x="498.537109" xlink:href="#DejaVuSans-29"/>
     </g>
    </g>
   </g>
   <g id="matplotlib.axis_4">
    <g id="ytick_6">
     <g id="line2d_25">
      <g>
       <use style="stroke:#000000;stroke-width:0.8;" x="57.6" xlink:href="#m6e54dba107" y="280.908284"/>
      </g>
     </g>
     <g id="text_25">
      <!-- −10 -->
      <g transform="translate(29.495313 284.707503)scale(0.1 -0.1)">
       <use xlink:href="#DejaVuSans-2212"/>
       <use x="83.789062" xlink:href="#DejaVuSans-31"/>
       <use x="147.412109" xlink:href="#DejaVuSans-30"/>
      </g>
     </g>
    </g>
    <g id="ytick_7">
     <g id="line2d_26">
      <g>
       <use style="stroke:#000000;stroke-width:0.8;" x="57.6" xlink:href="#m6e54dba107" y="249.207205"/>
      </g>
     </g>
     <g id="text_26">
      <!-- 0 -->
      <g transform="translate(44.2375 253.006424)scale(0.1 -0.1)">
       <use xlink:href="#DejaVuSans-30"/>
      </g>
     </g>
    </g>
    <g id="ytick_8">
     <g id="line2d_27">
      <g>
       <use style="stroke:#000000;stroke-width:0.8;" x="57.6" xlink:href="#m6e54dba107" y="217.506127"/>
      </g>
     </g>
     <g id="text_27">
      <!-- 10 -->
      <g transform="translate(37.875 221.305345)scale(0.1 -0.1)">
       <use xlink:href="#DejaVuSans-31"/>
       <use x="63.623047" xlink:href="#DejaVuSans-30"/>
      </g>
     </g>
    </g>
   </g>
   <g id="line2d_28">
    <path clip-path="url(#pe17873b406)" d="M 73.832727 242.241935 
L 75.021938 246.003794 
L 76.211149 251.30505 
L 78.58957 262.604893 
L 79.778781 266.497167 
L 80.967992 268.237364 
L 82.157203 267.62669 
L 83.346414 264.958241 
L 84.535624 260.930426 
L 86.914046 252.30149 
L 88.103257 249.15815 
L 89.292468 247.296003 
L 90.481678 246.62564 
L 91.670889 246.720881 
L 92.8601 246.98234 
L 94.049311 246.83008 
L 95.238521 245.847171 
L 96.427732 243.895224 
L 98.806154 238.437803 
L 99.995365 236.319134 
L 101.184575 235.563201 
L 102.373786 236.612294 
L 103.562997 239.563372 
L 104.752208 244.136573 
L 108.31984 261.208557 
L 109.509051 265.886819 
L 110.698262 269.405433 
L 111.887473 271.638321 
L 113.076683 272.564901 
L 114.265894 272.241126 
L 115.455105 270.790147 
L 116.644316 268.39215 
L 117.833526 265.269474 
L 120.211948 257.850809 
L 122.59037 250.416218 
L 123.77958 247.104132 
L 124.968791 244.179327 
L 126.158002 241.715542 
L 127.347213 239.805076 
L 128.536424 238.539778 
L 129.725634 237.975314 
L 130.914845 238.107754 
L 132.104056 238.875329 
L 133.293267 240.180565 
L 134.482478 241.914155 
L 136.860899 246.244143 
L 141.617742 255.684918 
L 142.806953 257.597111 
L 143.996164 259.131601 
L 145.185375 260.248841 
L 146.374585 260.946071 
L 147.563796 261.228096 
L 148.753007 261.088216 
L 149.942218 260.515229 
L 151.131429 259.512562 
L 152.320639 258.110553 
L 153.50985 256.356725 
L 154.699061 254.286098 
L 155.888272 251.904035 
L 157.077483 249.197911 
L 158.266693 246.161841 
L 160.645115 239.263547 
L 161.834326 235.733148 
L 163.023536 232.611769 
L 164.212747 230.334092 
L 165.401958 229.255534 
L 166.591169 229.562822 
L 167.78038 231.237338 
L 168.96959 234.055562 
L 171.348012 241.546268 
L 172.537223 245.372322 
L 173.726434 248.810892 
L 174.915644 251.671309 
L 176.104855 253.852454 
L 177.294066 255.312135 
L 178.483277 256.053954 
L 179.672488 256.124799 
L 180.861698 255.6109 
L 182.050909 254.632608 
L 184.429331 251.904489 
L 186.807752 249.219544 
L 187.996963 248.186653 
L 189.186174 247.400543 
L 191.564595 246.094804 
L 192.753806 245.140726 
L 193.943017 243.699009 
L 195.132228 241.65081 
L 196.321439 239.018484 
L 198.69986 233.085867 
L 199.889071 230.687299 
L 201.078282 229.251712 
L 202.267493 229.032545 
L 203.456703 230.055898 
L 204.645914 232.086223 
L 207.024336 237.247524 
L 208.213546 239.327424 
L 209.402757 240.562026 
L 210.591968 240.840295 
L 211.781179 240.353545 
L 212.97039 239.56887 
L 214.1596 239.080639 
L 215.348811 239.428019 
L 216.538022 240.964768 
L 217.727233 243.788258 
L 218.916444 247.708678 
L 222.484076 261.357426 
L 223.673287 264.963348 
L 224.862498 267.651437 
L 226.051708 269.425198 
L 227.240919 270.433577 
L 228.43013 270.906546 
L 230.808551 271.190237 
L 233.186973 271.430264 
L 234.376184 271.281828 
L 235.565395 270.559112 
L 236.754605 268.979932 
L 237.943816 266.384437 
L 239.133027 262.761792 
L 240.322238 258.229067 
L 242.700659 247.269151 
L 246.268292 229.476084 
L 247.457502 224.14098 
L 248.646713 219.754266 
L 249.835924 216.801312 
L 251.025135 215.651019 
L 252.214346 216.456741 
L 253.403556 219.130301 
L 254.592767 223.37028 
L 255.781978 228.732557 
L 260.538821 252.431235 
L 261.728032 257.406362 
L 262.917243 261.726016 
L 264.106454 265.372663 
L 265.295664 268.377839 
L 266.484875 270.808473 
L 267.674086 272.72092 
L 268.863297 274.082296 
L 270.052507 274.743373 
L 271.241718 274.500257 
L 272.430929 273.189849 
L 273.62014 270.759556 
L 274.809351 267.309471 
L 277.187772 258.61757 
L 278.376983 254.283472 
L 279.566194 250.53398 
L 280.755405 247.647693 
L 281.944615 245.736662 
L 283.133826 244.754731 
L 284.323037 244.535943 
L 285.512248 244.85182 
L 287.890669 246.185083 
L 290.269091 247.590881 
L 291.458302 248.449549 
L 292.647512 249.687085 
L 293.836723 251.506853 
L 295.025934 254.021832 
L 296.215145 257.179516 
L 298.593566 263.928614 
L 299.782777 266.298013 
L 300.971988 267.214539 
L 302.161199 266.352858 
L 303.35041 263.714811 
L 304.53962 259.693747 
L 306.918042 250.564816 
L 308.107253 247.10566 
L 309.296464 245.166743 
L 310.485674 244.934367 
L 311.674885 246.228575 
L 312.864096 248.567187 
L 315.242517 253.891677 
L 316.431728 255.827537 
L 317.620939 256.909735 
L 318.81015 257.193877 
L 321.188571 256.691769 
L 322.377782 256.742923 
L 323.566993 257.427383 
L 324.756204 258.845147 
L 328.323836 264.834847 
L 329.513047 265.870049 
L 330.702258 265.808507 
L 331.891469 264.581302 
L 333.080679 262.392435 
L 335.459101 256.989378 
L 336.648312 254.817948 
L 337.837522 253.51138 
L 339.026733 253.186088 
L 340.215944 253.671432 
L 341.405155 254.539184 
L 342.594366 255.24063 
L 343.783576 255.272665 
L 344.972787 254.29717 
L 346.161998 252.213179 
L 347.351209 249.199386 
L 349.72963 242.172668 
L 350.918841 239.181645 
L 352.108052 237.048922 
L 353.297263 235.950773 
L 354.486474 235.933488 
L 355.675684 236.964247 
L 356.864895 238.957782 
L 358.054106 241.785899 
L 359.243317 245.282937 
L 362.810949 257.036584 
L 364.00016 260.021161 
L 365.189371 261.886041 
L 366.378581 262.445379 
L 367.567792 261.733126 
L 368.757003 260.041748 
L 371.135425 255.862047 
L 372.324635 254.507008 
L 373.513846 254.174166 
L 374.703057 254.974564 
L 375.892268 256.73525 
L 378.270689 261.354204 
L 379.4599 263.189952 
L 380.649111 264.200774 
L 381.838322 264.232831 
L 383.027532 263.320517 
L 384.216743 261.64357 
L 385.405954 259.458957 
L 388.973586 252.337856 
L 390.162797 250.470234 
L 391.352008 249.2328 
L 392.541219 248.858993 
L 393.73043 249.509356 
L 394.91964 251.22362 
L 396.108851 253.856975 
L 398.487273 259.924742 
L 398.487273 259.924742 
" style="fill:none;stroke:#7e1e9c;stroke-linecap:square;stroke-width:2;"/>
   </g>
   <g id="line2d_29">
    <path clip-path="url(#pe17873b406)" d="M 73.832727 238.129374 
L 75.021938 246.146755 
L 76.211149 262.524635 
L 77.40036 254.772072 
L 78.58957 281.189714 
L 79.778781 271.057043 
L 80.967992 231.148674 
L 82.157203 289.720918 
L 83.346414 270.64111 
L 84.535624 236.019872 
L 85.724835 255.544271 
L 86.914046 251.117238 
L 88.103257 275.963475 
L 89.292468 235.404182 
L 90.481678 237.798585 
L 91.670889 246.967538 
L 92.8601 265.785607 
L 94.049311 241.385683 
L 95.238521 249.931845 
L 96.427732 238.240336 
L 97.616943 227.761796 
L 98.806154 256.95896 
L 99.995365 216.786271 
L 101.184575 244.177077 
L 102.373786 241.575136 
L 103.562997 221.602603 
L 104.752208 245.701287 
L 105.941419 265.473903 
L 107.130629 266.954888 
L 109.509051 253.550688 
L 110.698262 286.297038 
L 111.887473 239.635307 
L 113.076683 293.94984 
L 114.265894 254.795211 
L 115.455105 280.882368 
L 116.644316 258.450038 
L 117.833526 263.888432 
L 119.022737 267.076166 
L 120.211948 263.39883 
L 121.401159 268.813719 
L 122.59037 265.908637 
L 123.77958 216.423491 
L 124.968791 256.159846 
L 126.158002 210.613924 
L 127.347213 253.641259 
L 128.536424 242.28782 
L 129.725634 242.216115 
L 130.914845 239.111362 
L 132.104056 228.658202 
L 133.293267 244.939343 
L 134.482478 247.737362 
L 135.671688 237.714727 
L 136.860899 257.201962 
L 138.05011 250.846684 
L 139.239321 249.701063 
L 140.428531 244.544431 
L 141.617742 257.25031 
L 142.806953 243.56448 
L 143.996164 262.948166 
L 145.185375 265.612031 
L 146.374585 269.732493 
L 147.563796 257.83205 
L 148.753007 263.663477 
L 149.942218 249.685706 
L 151.131429 271.861372 
L 152.320639 263.512251 
L 153.50985 249.269178 
L 154.699061 249.150775 
L 155.888272 254.918844 
L 157.077483 235.871591 
L 158.266693 242.07584 
L 159.455904 258.213974 
L 160.645115 250.392035 
L 161.834326 240.519834 
L 163.023536 215.921613 
L 164.212747 225.072159 
L 165.401958 229.868681 
L 166.591169 229.87014 
L 167.78038 238.164489 
L 168.96959 235.015774 
L 170.158801 240.131242 
L 171.348012 240.314719 
L 172.537223 243.264563 
L 173.726434 248.888747 
L 174.915644 245.27946 
L 176.104855 248.9429 
L 177.294066 258.779125 
L 178.483277 263.020029 
L 179.672488 260.351295 
L 180.861698 254.072218 
L 182.050909 271.401322 
L 183.24012 242.160538 
L 184.429331 242.359323 
L 185.618541 224.964938 
L 186.807752 265.71389 
L 187.996963 243.269606 
L 189.186174 271.539102 
L 190.375385 241.598898 
L 191.564595 251.026893 
L 192.753806 240.888541 
L 193.943017 251.428155 
L 195.132228 231.21195 
L 196.321439 215.88951 
L 197.510649 241.235291 
L 198.69986 248.250329 
L 199.889071 238.105965 
L 201.078282 237.552584 
L 202.267493 213.171295 
L 203.456703 235.885035 
L 204.645914 223.735113 
L 205.835125 242.529191 
L 207.024336 226.820509 
L 208.213546 240.389424 
L 209.402757 245.932297 
L 210.591968 211.381637 
L 211.781179 269.398764 
L 212.97039 248.375112 
L 214.1596 238.820536 
L 215.348811 253.761185 
L 216.538022 209.31682 
L 218.916444 276.18653 
L 220.105654 232.828815 
L 221.294865 249.02364 
L 222.484076 250.222509 
L 223.673287 265.754903 
L 224.862498 302.208 
L 226.051708 279.686592 
L 227.240919 249.690419 
L 231.997762 284.206695 
L 233.186973 277.706469 
L 234.376184 272.035036 
L 235.565395 267.97273 
L 236.754605 256.231504 
L 237.943816 249.766667 
L 239.133027 280.209699 
L 240.322238 251.989074 
L 241.511449 264.833168 
L 242.700659 250.199171 
L 243.88987 242.76831 
L 245.079081 237.498003 
L 246.268292 241.083284 
L 247.457502 203.833363 
L 248.646713 228.097049 
L 249.835924 194.688 
L 251.025135 203.895618 
L 252.214346 229.797377 
L 253.403556 227.697086 
L 254.592767 218.665212 
L 255.781978 247.970965 
L 256.971189 237.934285 
L 258.1604 236.604597 
L 259.34961 244.73083 
L 260.538821 262.444037 
L 261.728032 241.547736 
L 262.917243 250.243974 
L 264.106454 252.847811 
L 265.295664 285.469241 
L 266.484875 276.332214 
L 267.674086 257.497419 
L 268.863297 283.158614 
L 270.052507 295.810262 
L 271.241718 252.913022 
L 272.430929 293.996836 
L 273.62014 268.089593 
L 274.809351 271.782536 
L 275.998561 248.611902 
L 277.187772 245.402804 
L 278.376983 261.833653 
L 279.566194 246.634603 
L 280.755405 233.716495 
L 281.944615 250.439185 
L 283.133826 264.241254 
L 285.512248 244.186976 
L 286.701459 238.880356 
L 287.890669 260.056414 
L 289.07988 232.865036 
L 290.269091 253.408881 
L 291.458302 224.154557 
L 292.647512 236.06067 
L 293.836723 261.670958 
L 295.025934 267.255776 
L 296.215145 264.594227 
L 297.404356 277.122086 
L 298.593566 254.243293 
L 299.782777 264.32309 
L 300.971988 251.660747 
L 302.161199 257.078986 
L 304.53962 280.362375 
L 305.728831 249.960852 
L 306.918042 245.166355 
L 309.296464 253.894374 
L 310.485674 238.669239 
L 311.674885 241.76702 
L 312.864096 239.525447 
L 314.053307 260.753467 
L 315.242517 251.179883 
L 316.431728 259.543408 
L 317.620939 253.243913 
L 318.81015 262.673303 
L 319.999361 261.580406 
L 321.188571 236.652203 
L 322.377782 274.326632 
L 324.756204 253.354172 
L 325.945415 249.830194 
L 327.134625 256.417275 
L 328.323836 282.236637 
L 329.513047 263.366044 
L 330.702258 259.628179 
L 331.891469 263.629541 
L 333.080679 268.614342 
L 334.26989 262.157266 
L 335.459101 251.776575 
L 336.648312 262.386768 
L 337.837522 252.743417 
L 339.026733 238.511965 
L 340.215944 246.518058 
L 341.405155 275.331432 
L 342.594366 249.819817 
L 343.783576 263.867816 
L 344.972787 242.445813 
L 346.161998 265.316608 
L 347.351209 242.401963 
L 348.54042 256.18629 
L 349.72963 232.192549 
L 350.918841 222.499913 
L 352.108052 221.064199 
L 353.297263 264.493058 
L 354.486474 227.982575 
L 355.675684 257.374607 
L 356.864895 241.311563 
L 358.054106 238.214289 
L 359.243317 243.362949 
L 360.432527 252.765237 
L 361.621738 240.956452 
L 362.810949 248.379874 
L 364.00016 256.997436 
L 365.189371 247.280509 
L 366.378581 294.014456 
L 367.567792 261.557132 
L 368.757003 265.379707 
L 369.946214 258.591994 
L 371.135425 258.45887 
L 372.324635 225.120243 
L 373.513846 272.185431 
L 374.703057 236.014604 
L 375.892268 278.043687 
L 377.081479 260.184866 
L 378.270689 259.258732 
L 379.4599 253.08266 
L 380.649111 284.212894 
L 381.838322 256.655974 
L 383.027532 258.497685 
L 384.216743 248.402897 
L 385.405954 270.1611 
L 386.595165 265.628489 
L 387.784376 240.420029 
L 388.973586 253.370008 
L 390.162797 255.011286 
L 391.352008 259.351445 
L 392.541219 254.483378 
L 393.73043 215.182633 
L 394.91964 277.410317 
L 396.108851 257.585548 
L 397.298062 249.069965 
L 398.487273 266.045939 
L 398.487273 266.045939 
" style="fill:none;stroke:#0343df;stroke-linecap:square;stroke-width:2;"/>
   </g>
   <g id="patch_8">
    <path d="M 57.6 307.584 
L 57.6 189.312 
" style="fill:none;stroke:#000000;stroke-linecap:square;stroke-linejoin:miter;stroke-width:0.8;"/>
   </g>
   <g id="patch_9">
    <path d="M 414.72 307.584 
L 414.72 189.312 
" style="fill:none;stroke:#000000;stroke-linecap:square;stroke-linejoin:miter;stroke-width:0.8;"/>
   </g>
   <g id="patch_10">
    <path d="M 57.6 307.584 
L 414.72 307.584 
" style="fill:none;stroke:#000000;stroke-linecap:square;stroke-linejoin:miter;stroke-width:0.8;"/>
   </g>
   <g id="patch_11">
    <path d="M 57.6 189.312 
L 414.72 189.312 
" style="fill:none;stroke:#000000;stroke-linecap:square;stroke-linejoin:miter;stroke-width:0.8;"/>
   </g>
  </g>
 </g>
 <defs>
  <clipPath id="p7b85da0ad5">
   <rect height="118.272" width="357.12" x="57.6" y="41.472"/>
  </clipPath>
  <clipPath id="pe17873b406">
   <rect height="118.272" width="357.12" x="57.6" y="189.312"/>
  </clipPath>
 </defs>
</svg>
