<?xml version="1.0" encoding="utf-8" standalone="no"?>
<!DOCTYPE svg PUBLIC "-//W3C//DTD SVG 1.1//EN"
  "http://www.w3.org/Graphics/SVG/1.1/DTD/svg11.dtd">
<!-- Created with matplotlib (http://matplotlib.org/) -->
<svg height="345.6pt" version="1.1" viewBox="0 0 460.8 345.6" width="460.8pt" xmlns="http://www.w3.org/2000/svg" xmlns:xlink="http://www.w3.org/1999/xlink">
 <defs>
  <style type="text/css">
*{stroke-linecap:butt;stroke-linejoin:round;}
  </style>
 </defs>
 <g id="figure_1">
  <g id="patch_1">
   <path d="M 0 345.6 
L 460.8 345.6 
L 460.8 0 
L 0 0 
z
" style="fill:#ffffff;"/>
  </g>
  <g id="axes_1">
   <g id="patch_2">
    <path d="M 57.6 159.744 
L 414.72 159.744 
L 414.72 41.472 
L 57.6 41.472 
z
" style="fill:#ffffff;"/>
   </g>
   <g id="matplotlib.axis_1">
    <g id="xtick_1">
     <g id="line2d_1">
      <defs>
       <path d="M 0 0 
L 0 3.5 
" id="m8647b44692" style="stroke:#000000;stroke-width:0.8;"/>
      </defs>
      <g>
       <use style="stroke:#000000;stroke-width:0.8;" x="57.183776" xlink:href="#m8647b44692" y="159.744"/>
      </g>
     </g>
     <g id="text_1">
      <!-- 0 -->
      <defs>
       <path d="M 31.78125 66.40625 
Q 24.171875 66.40625 20.328125 58.90625 
Q 16.5 51.421875 16.5 36.375 
Q 16.5 21.390625 20.328125 13.890625 
Q 24.171875 6.390625 31.78125 6.390625 
Q 39.453125 6.390625 43.28125 13.890625 
Q 47.125 21.390625 47.125 36.375 
Q 47.125 51.421875 43.28125 58.90625 
Q 39.453125 66.40625 31.78125 66.40625 
z
M 31.78125 74.21875 
Q 44.046875 74.21875 50.515625 64.515625 
Q 56.984375 54.828125 56.984375 36.375 
Q 56.984375 17.96875 50.515625 8.265625 
Q 44.046875 -1.421875 31.78125 -1.421875 
Q 19.53125 -1.421875 13.0625 8.265625 
Q 6.59375 17.96875 6.59375 36.375 
Q 6.59375 54.828125 13.0625 64.515625 
Q 19.53125 74.21875 31.78125 74.21875 
z
" id="DejaVuSans-30"/>
      </defs>
      <g transform="translate(54.002526 174.342437)scale(0.1 -0.1)">
       <use xlink:href="#DejaVuSans-30"/>
      </g>
     </g>
    </g>
    <g id="xtick_2">
     <g id="line2d_2">
      <g>
       <use style="stroke:#000000;stroke-width:0.8;" x="98.475818" xlink:href="#m8647b44692" y="159.744"/>
      </g>
     </g>
     <g id="text_2">
      <!-- 25 -->
      <defs>
       <path d="M 19.1875 8.296875 
L 53.609375 8.296875 
L 53.609375 0 
L 7.328125 0 
L 7.328125 8.296875 
Q 12.9375 14.109375 22.625 23.890625 
Q 32.328125 33.6875 34.8125 36.53125 
Q 39.546875 41.84375 41.421875 45.53125 
Q 43.3125 49.21875 43.3125 52.78125 
Q 43.3125 58.59375 39.234375 62.25 
Q 35.15625 65.921875 28.609375 65.921875 
Q 23.96875 65.921875 18.8125 64.3125 
Q 13.671875 62.703125 7.8125 59.421875 
L 7.8125 69.390625 
Q 13.765625 71.78125 18.9375 73 
Q 24.125 74.21875 28.421875 74.21875 
Q 39.75 74.21875 46.484375 68.546875 
Q 53.21875 62.890625 53.21875 53.421875 
Q 53.21875 48.921875 51.53125 44.890625 
Q 49.859375 40.875 45.40625 35.40625 
Q 44.1875 33.984375 37.640625 27.21875 
Q 31.109375 20.453125 19.1875 8.296875 
z
" id="DejaVuSans-32"/>
       <path d="M 10.796875 72.90625 
L 49.515625 72.90625 
L 49.515625 64.59375 
L 19.828125 64.59375 
L 19.828125 46.734375 
Q 21.96875 47.46875 24.109375 47.828125 
Q 26.265625 48.1875 28.421875 48.1875 
Q 40.625 48.1875 47.75 41.5 
Q 54.890625 34.8125 54.890625 23.390625 
Q 54.890625 11.625 47.5625 5.09375 
Q 40.234375 -1.421875 26.90625 -1.421875 
Q 22.3125 -1.421875 17.546875 -0.640625 
Q 12.796875 0.140625 7.71875 1.703125 
L 7.71875 11.625 
Q 12.109375 9.234375 16.796875 8.0625 
Q 21.484375 6.890625 26.703125 6.890625 
Q 35.15625 6.890625 40.078125 11.328125 
Q 45.015625 15.765625 45.015625 23.390625 
Q 45.015625 31 40.078125 35.4375 
Q 35.15625 39.890625 26.703125 39.890625 
Q 22.75 39.890625 18.8125 39.015625 
Q 14.890625 38.140625 10.796875 36.28125 
z
" id="DejaVuSans-35"/>
      </defs>
      <g transform="translate(92.113318 174.342437)scale(0.1 -0.1)">
       <use xlink:href="#DejaVuSans-32"/>
       <use x="63.623047" xlink:href="#DejaVuSans-35"/>
      </g>
     </g>
    </g>
    <g id="xtick_3">
     <g id="line2d_3">
      <g>
       <use style="stroke:#000000;stroke-width:0.8;" x="139.767859" xlink:href="#m8647b44692" y="159.744"/>
      </g>
     </g>
     <g id="text_3">
      <!-- 50 -->
      <g transform="translate(133.405359 174.342437)scale(0.1 -0.1)">
       <use xlink:href="#DejaVuSans-35"/>
       <use x="63.623047" xlink:href="#DejaVuSans-30"/>
      </g>
     </g>
    </g>
    <g id="xtick_4">
     <g id="line2d_4">
      <g>
       <use style="stroke:#000000;stroke-width:0.8;" x="181.0599" xlink:href="#m8647b44692" y="159.744"/>
      </g>
     </g>
     <g id="text_4">
      <!-- 75 -->
      <defs>
       <path d="M 8.203125 72.90625 
L 55.078125 72.90625 
L 55.078125 68.703125 
L 28.609375 0 
L 18.3125 0 
L 43.21875 64.59375 
L 8.203125 64.59375 
z
" id="DejaVuSans-37"/>
      </defs>
      <g transform="translate(174.6974 174.342437)scale(0.1 -0.1)">
       <use xlink:href="#DejaVuSans-37"/>
       <use x="63.623047" xlink:href="#DejaVuSans-35"/>
      </g>
     </g>
    </g>
    <g id="xtick_5">
     <g id="line2d_5">
      <g>
       <use style="stroke:#000000;stroke-width:0.8;" x="222.351941" xlink:href="#m8647b44692" y="159.744"/>
      </g>
     </g>
     <g id="text_5">
      <!-- 100 -->
      <defs>
       <path d="M 12.40625 8.296875 
L 28.515625 8.296875 
L 28.515625 63.921875 
L 10.984375 60.40625 
L 10.984375 69.390625 
L 28.421875 72.90625 
L 38.28125 72.90625 
L 38.28125 8.296875 
L 54.390625 8.296875 
L 54.390625 0 
L 12.40625 0 
z
" id="DejaVuSans-31"/>
      </defs>
      <g transform="translate(212.808191 174.342437)scale(0.1 -0.1)">
       <use xlink:href="#DejaVuSans-31"/>
       <use x="63.623047" xlink:href="#DejaVuSans-30"/>
       <use x="127.246094" xlink:href="#DejaVuSans-30"/>
      </g>
     </g>
    </g>
    <g id="xtick_6">
     <g id="line2d_6">
      <g>
       <use style="stroke:#000000;stroke-width:0.8;" x="263.643983" xlink:href="#m8647b44692" y="159.744"/>
      </g>
     </g>
     <g id="text_6">
      <!-- 125 -->
      <g transform="translate(254.100233 174.342437)scale(0.1 -0.1)">
       <use xlink:href="#DejaVuSans-31"/>
       <use x="63.623047" xlink:href="#DejaVuSans-32"/>
       <use x="127.246094" xlink:href="#DejaVuSans-35"/>
      </g>
     </g>
    </g>
    <g id="xtick_7">
     <g id="line2d_7">
      <g>
       <use style="stroke:#000000;stroke-width:0.8;" x="304.936024" xlink:href="#m8647b44692" y="159.744"/>
      </g>
     </g>
     <g id="text_7">
      <!-- 150 -->
      <g transform="translate(295.392274 174.342437)scale(0.1 -0.1)">
       <use xlink:href="#DejaVuSans-31"/>
       <use x="63.623047" xlink:href="#DejaVuSans-35"/>
       <use x="127.246094" xlink:href="#DejaVuSans-30"/>
      </g>
     </g>
    </g>
    <g id="xtick_8">
     <g id="line2d_8">
      <g>
       <use style="stroke:#000000;stroke-width:0.8;" x="346.228065" xlink:href="#m8647b44692" y="159.744"/>
      </g>
     </g>
     <g id="text_8">
      <!-- 175 -->
      <g transform="translate(336.684315 174.342437)scale(0.1 -0.1)">
       <use xlink:href="#DejaVuSans-31"/>
       <use x="63.623047" xlink:href="#DejaVuSans-37"/>
       <use x="127.246094" xlink:href="#DejaVuSans-35"/>
      </g>
     </g>
    </g>
    <g id="xtick_9">
     <g id="line2d_9">
      <g>
       <use style="stroke:#000000;stroke-width:0.8;" x="387.520107" xlink:href="#m8647b44692" y="159.744"/>
      </g>
     </g>
     <g id="text_9">
      <!-- 200 -->
      <g transform="translate(377.976357 174.342437)scale(0.1 -0.1)">
       <use xlink:href="#DejaVuSans-32"/>
       <use x="63.623047" xlink:href="#DejaVuSans-30"/>
       <use x="127.246094" xlink:href="#DejaVuSans-30"/>
      </g>
     </g>
    </g>
   </g>
   <g id="matplotlib.axis_2">
    <g id="ytick_1">
     <g id="line2d_10">
      <defs>
       <path d="M 0 0 
L -3.5 0 
" id="mfd9dd6157b" style="stroke:#000000;stroke-width:0.8;"/>
      </defs>
      <g>
       <use style="stroke:#000000;stroke-width:0.8;" x="57.6" xlink:href="#mfd9dd6157b" y="135.006289"/>
      </g>
     </g>
     <g id="text_10">
      <!-- −2 -->
      <defs>
       <path d="M 10.59375 35.5 
L 73.1875 35.5 
L 73.1875 27.203125 
L 10.59375 27.203125 
z
" id="DejaVuSans-2212"/>
      </defs>
      <g transform="translate(35.857813 138.805508)scale(0.1 -0.1)">
       <use xlink:href="#DejaVuSans-2212"/>
       <use x="83.789062" xlink:href="#DejaVuSans-32"/>
      </g>
     </g>
    </g>
    <g id="ytick_2">
     <g id="line2d_11">
      <g>
       <use style="stroke:#000000;stroke-width:0.8;" x="57.6" xlink:href="#mfd9dd6157b" y="97.349397"/>
      </g>
     </g>
     <g id="text_11">
      <!-- 0 -->
      <g transform="translate(44.2375 101.148615)scale(0.1 -0.1)">
       <use xlink:href="#DejaVuSans-30"/>
      </g>
     </g>
    </g>
    <g id="ytick_3">
     <g id="line2d_12">
      <g>
       <use style="stroke:#000000;stroke-width:0.8;" x="57.6" xlink:href="#mfd9dd6157b" y="59.692504"/>
      </g>
     </g>
     <g id="text_12">
      <!-- 2 -->
      <g transform="translate(44.2375 63.491723)scale(0.1 -0.1)">
       <use xlink:href="#DejaVuSans-32"/>
      </g>
     </g>
    </g>
   </g>
   <g id="line2d_13">
    <path clip-path="url(#pce2aa8d65c)" d="M 73.832727 117.124591 
L 78.58957 77.556416 
L 85.724835 130.934108 
L 92.8601 88.458824 
L 99.995365 154.368 
L 107.130629 74.836788 
L 114.265894 124.33327 
L 121.401159 72.222746 
L 128.536424 101.820755 
L 135.671688 68.286165 
L 142.806953 96.152268 
L 149.942218 82.530841 
L 157.077483 101.598575 
L 164.212747 115.102241 
L 171.348012 116.474609 
L 178.483277 109.027943 
L 185.618541 122.202363 
L 192.753806 98.202664 
L 199.889071 46.848 
L 207.024336 74.172815 
L 214.1596 93.505006 
L 221.294865 68.398954 
L 228.43013 72.888553 
L 235.565395 135.319309 
L 242.700659 58.622512 
L 249.835924 50.57276 
L 256.971189 51.876884 
L 264.106454 112.089371 
L 271.241718 60.228695 
L 278.376983 83.418604 
L 285.512248 82.247958 
L 292.647512 114.431651 
L 299.782777 127.420502 
L 306.918042 130.349221 
L 314.053307 123.359947 
L 321.188571 120.159774 
L 328.323836 90.544973 
L 335.459101 111.541037 
L 342.594366 50.119443 
L 349.72963 63.218879 
L 356.864895 52.35411 
L 364.00016 59.360275 
L 371.135425 78.155126 
L 378.270689 109.314674 
L 385.405954 127.716255 
L 392.541219 153.092713 
L 398.487273 112.114103 
L 398.487273 112.114103 
" style="fill:none;stroke:#ff0000;stroke-linecap:square;stroke-width:2;"/>
   </g>
   <g id="patch_3">
    <path d="M 57.6 159.744 
L 57.6 41.472 
" style="fill:none;stroke:#000000;stroke-linecap:square;stroke-linejoin:miter;stroke-width:0.8;"/>
   </g>
   <g id="patch_4">
    <path d="M 414.72 159.744 
L 414.72 41.472 
" style="fill:none;stroke:#000000;stroke-linecap:square;stroke-linejoin:miter;stroke-width:0.8;"/>
   </g>
   <g id="patch_5">
    <path d="M 57.6 159.744 
L 414.72 159.744 
" style="fill:none;stroke:#000000;stroke-linecap:square;stroke-linejoin:miter;stroke-width:0.8;"/>
   </g>
   <g id="patch_6">
    <path d="M 57.6 41.472 
L 414.72 41.472 
" style="fill:none;stroke:#000000;stroke-linecap:square;stroke-linejoin:miter;stroke-width:0.8;"/>
   </g>
  </g>
  <g id="axes_2">
   <g id="patch_7">
    <path d="M 57.6 307.584 
L 414.72 307.584 
L 414.72 189.312 
L 57.6 189.312 
z
" style="fill:#ffffff;"/>
   </g>
   <g id="matplotlib.axis_3">
    <g id="xtick_10">
     <g id="line2d_14">
      <g>
       <use style="stroke:#000000;stroke-width:0.8;" x="57.183776" xlink:href="#m8647b44692" y="307.584"/>
      </g>
     </g>
     <g id="text_13">
      <!-- 0 -->
      <g transform="translate(54.002526 322.182437)scale(0.1 -0.1)">
       <use xlink:href="#DejaVuSans-30"/>
      </g>
     </g>
    </g>
    <g id="xtick_11">
     <g id="line2d_15">
      <g>
       <use style="stroke:#000000;stroke-width:0.8;" x="98.475818" xlink:href="#m8647b44692" y="307.584"/>
      </g>
     </g>
     <g id="text_14">
      <!-- 25 -->
      <g transform="translate(92.113318 322.182437)scale(0.1 -0.1)">
       <use xlink:href="#DejaVuSans-32"/>
       <use x="63.623047" xlink:href="#DejaVuSans-35"/>
      </g>
     </g>
    </g>
    <g id="xtick_12">
     <g id="line2d_16">
      <g>
       <use style="stroke:#000000;stroke-width:0.8;" x="139.767859" xlink:href="#m8647b44692" y="307.584"/>
      </g>
     </g>
     <g id="text_15">
      <!-- 50 -->
      <g transform="translate(133.405359 322.182437)scale(0.1 -0.1)">
       <use xlink:href="#DejaVuSans-35"/>
       <use x="63.623047" xlink:href="#DejaVuSans-30"/>
      </g>
     </g>
    </g>
    <g id="xtick_13">
     <g id="line2d_17">
      <g>
       <use style="stroke:#000000;stroke-width:0.8;" x="181.0599" xlink:href="#m8647b44692" y="307.584"/>
      </g>
     </g>
     <g id="text_16">
      <!-- 75 -->
      <g transform="translate(174.6974 322.182437)scale(0.1 -0.1)">
       <use xlink:href="#DejaVuSans-37"/>
       <use x="63.623047" xlink:href="#DejaVuSans-35"/>
      </g>
     </g>
    </g>
    <g id="xtick_14">
     <g id="line2d_18">
      <g>
       <use style="stroke:#000000;stroke-width:0.8;" x="222.351941" xlink:href="#m8647b44692" y="307.584"/>
      </g>
     </g>
     <g id="text_17">
      <!-- 100 -->
      <g transform="translate(212.808191 322.182437)scale(0.1 -0.1)">
       <use xlink:href="#DejaVuSans-31"/>
       <use x="63.623047" xlink:href="#DejaVuSans-30"/>
       <use x="127.246094" xlink:href="#DejaVuSans-30"/>
      </g>
     </g>
    </g>
    <g id="xtick_15">
     <g id="line2d_19">
      <g>
       <use style="stroke:#000000;stroke-width:0.8;" x="263.643983" xlink:href="#m8647b44692" y="307.584"/>
      </g>
     </g>
     <g id="text_18">
      <!-- 125 -->
      <g transform="translate(254.100233 322.182437)scale(0.1 -0.1)">
       <use xlink:href="#DejaVuSans-31"/>
       <use x="63.623047" xlink:href="#DejaVuSans-32"/>
       <use x="127.246094" xlink:href="#DejaVuSans-35"/>
      </g>
     </g>
    </g>
    <g id="xtick_16">
     <g id="line2d_20">
      <g>
       <use style="stroke:#000000;stroke-width:0.8;" x="304.936024" xlink:href="#m8647b44692" y="307.584"/>
      </g>
     </g>
     <g id="text_19">
      <!-- 150 -->
      <g transform="translate(295.392274 322.182437)scale(0.1 -0.1)">
       <use xlink:href="#DejaVuSans-31"/>
       <use x="63.623047" xlink:href="#DejaVuSans-35"/>
       <use x="127.246094" xlink:href="#DejaVuSans-30"/>
      </g>
     </g>
    </g>
    <g id="xtick_17">
     <g id="line2d_21">
      <g>
       <use style="stroke:#000000;stroke-width:0.8;" x="346.228065" xlink:href="#m8647b44692" y="307.584"/>
      </g>
     </g>
     <g id="text_20">
      <!-- 175 -->
      <g transform="translate(336.684315 322.182437)scale(0.1 -0.1)">
       <use xlink:href="#DejaVuSans-31"/>
       <use x="63.623047" xlink:href="#DejaVuSans-37"/>
       <use x="127.246094" xlink:href="#DejaVuSans-35"/>
      </g>
     </g>
    </g>
    <g id="xtick_18">
     <g id="line2d_22">
      <g>
       <use style="stroke:#000000;stroke-width:0.8;" x="387.520107" xlink:href="#m8647b44692" y="307.584"/>
      </g>
     </g>
     <g id="text_21">
      <!-- 200 -->
      <g transform="translate(377.976357 322.182437)scale(0.1 -0.1)">
       <use xlink:href="#DejaVuSans-32"/>
       <use x="63.623047" xlink:href="#DejaVuSans-30"/>
       <use x="127.246094" xlink:href="#DejaVuSans-30"/>
      </g>
     </g>
    </g>
    <g id="text_22">
     <!-- Time (Sec) -->
     <defs>
      <path d="M -0.296875 72.90625 
L 61.375 72.90625 
L 61.375 64.59375 
L 35.5 64.59375 
L 35.5 0 
L 25.59375 0 
L 25.59375 64.59375 
L -0.296875 64.59375 
z
" id="DejaVuSans-54"/>
      <path d="M 9.421875 54.6875 
L 18.40625 54.6875 
L 18.40625 0 
L 9.421875 0 
z
M 9.421875 75.984375 
L 18.40625 75.984375 
L 18.40625 64.59375 
L 9.421875 64.59375 
z
" id="DejaVuSans-69"/>
      <path d="M 52 44.1875 
Q 55.375 50.25 60.0625 53.125 
Q 64.75 56 71.09375 56 
Q 79.640625 56 84.28125 50.015625 
Q 88.921875 44.046875 88.921875 33.015625 
L 88.921875 0 
L 79.890625 0 
L 79.890625 32.71875 
Q 79.890625 40.578125 77.09375 44.375 
Q 74.3125 48.1875 68.609375 48.1875 
Q 61.625 48.1875 57.5625 43.546875 
Q 53.515625 38.921875 53.515625 30.90625 
L 53.515625 0 
L 44.484375 0 
L 44.484375 32.71875 
Q 44.484375 40.625 41.703125 44.40625 
Q 38.921875 48.1875 33.109375 48.1875 
Q 26.21875 48.1875 22.15625 43.53125 
Q 18.109375 38.875 18.109375 30.90625 
L 18.109375 0 
L 9.078125 0 
L 9.078125 54.6875 
L 18.109375 54.6875 
L 18.109375 46.1875 
Q 21.1875 51.21875 25.484375 53.609375 
Q 29.78125 56 35.6875 56 
Q 41.65625 56 45.828125 52.96875 
Q 50 49.953125 52 44.1875 
z
" id="DejaVuSans-6d"/>
      <path d="M 56.203125 29.59375 
L 56.203125 25.203125 
L 14.890625 25.203125 
Q 15.484375 15.921875 20.484375 11.0625 
Q 25.484375 6.203125 34.421875 6.203125 
Q 39.59375 6.203125 44.453125 7.46875 
Q 49.3125 8.734375 54.109375 11.28125 
L 54.109375 2.78125 
Q 49.265625 0.734375 44.1875 -0.34375 
Q 39.109375 -1.421875 33.890625 -1.421875 
Q 20.796875 -1.421875 13.15625 6.1875 
Q 5.515625 13.8125 5.515625 26.8125 
Q 5.515625 40.234375 12.765625 48.109375 
Q 20.015625 56 32.328125 56 
Q 43.359375 56 49.78125 48.890625 
Q 56.203125 41.796875 56.203125 29.59375 
z
M 47.21875 32.234375 
Q 47.125 39.59375 43.09375 43.984375 
Q 39.0625 48.390625 32.421875 48.390625 
Q 24.90625 48.390625 20.390625 44.140625 
Q 15.875 39.890625 15.1875 32.171875 
z
" id="DejaVuSans-65"/>
      <path id="DejaVuSans-20"/>
      <path d="M 31 75.875 
Q 24.46875 64.65625 21.28125 53.65625 
Q 18.109375 42.671875 18.109375 31.390625 
Q 18.109375 20.125 21.3125 9.0625 
Q 24.515625 -2 31 -13.1875 
L 23.1875 -13.1875 
Q 15.875 -1.703125 12.234375 9.375 
Q 8.59375 20.453125 8.59375 31.390625 
Q 8.59375 42.28125 12.203125 53.3125 
Q 15.828125 64.359375 23.1875 75.875 
z
" id="DejaVuSans-28"/>
      <path d="M 53.515625 70.515625 
L 53.515625 60.890625 
Q 47.90625 63.578125 42.921875 64.890625 
Q 37.9375 66.21875 33.296875 66.21875 
Q 25.25 66.21875 20.875 63.09375 
Q 16.5 59.96875 16.5 54.203125 
Q 16.5 49.359375 19.40625 46.890625 
Q 22.3125 44.4375 30.421875 42.921875 
L 36.375 41.703125 
Q 47.40625 39.59375 52.65625 34.296875 
Q 57.90625 29 57.90625 20.125 
Q 57.90625 9.515625 50.796875 4.046875 
Q 43.703125 -1.421875 29.984375 -1.421875 
Q 24.8125 -1.421875 18.96875 -0.25 
Q 13.140625 0.921875 6.890625 3.21875 
L 6.890625 13.375 
Q 12.890625 10.015625 18.65625 8.296875 
Q 24.421875 6.59375 29.984375 6.59375 
Q 38.421875 6.59375 43.015625 9.90625 
Q 47.609375 13.234375 47.609375 19.390625 
Q 47.609375 24.75 44.3125 27.78125 
Q 41.015625 30.8125 33.5 32.328125 
L 27.484375 33.5 
Q 16.453125 35.6875 11.515625 40.375 
Q 6.59375 45.0625 6.59375 53.421875 
Q 6.59375 63.09375 13.40625 68.65625 
Q 20.21875 74.21875 32.171875 74.21875 
Q 37.3125 74.21875 42.625 73.28125 
Q 47.953125 72.359375 53.515625 70.515625 
z
" id="DejaVuSans-53"/>
      <path d="M 48.78125 52.59375 
L 48.78125 44.1875 
Q 44.96875 46.296875 41.140625 47.34375 
Q 37.3125 48.390625 33.40625 48.390625 
Q 24.65625 48.390625 19.8125 42.84375 
Q 14.984375 37.3125 14.984375 27.296875 
Q 14.984375 17.28125 19.8125 11.734375 
Q 24.65625 6.203125 33.40625 6.203125 
Q 37.3125 6.203125 41.140625 7.25 
Q 44.96875 8.296875 48.78125 10.40625 
L 48.78125 2.09375 
Q 45.015625 0.34375 40.984375 -0.53125 
Q 36.96875 -1.421875 32.421875 -1.421875 
Q 20.0625 -1.421875 12.78125 6.34375 
Q 5.515625 14.109375 5.515625 27.296875 
Q 5.515625 40.671875 12.859375 48.328125 
Q 20.21875 56 33.015625 56 
Q 37.15625 56 41.109375 55.140625 
Q 45.0625 54.296875 48.78125 52.59375 
z
" id="DejaVuSans-63"/>
      <path d="M 8.015625 75.875 
L 15.828125 75.875 
Q 23.140625 64.359375 26.78125 53.3125 
Q 30.421875 42.28125 30.421875 31.390625 
Q 30.421875 20.453125 26.78125 9.375 
Q 23.140625 -1.703125 15.828125 -13.1875 
L 8.015625 -13.1875 
Q 14.5 -2 17.703125 9.0625 
Q 20.90625 20.125 20.90625 31.390625 
Q 20.90625 42.671875 17.703125 53.65625 
Q 14.5 64.65625 8.015625 75.875 
z
" id="DejaVuSans-29"/>
     </defs>
     <g transform="translate(209.281875 335.860562)scale(0.1 -0.1)">
      <use xlink:href="#DejaVuSans-54"/>
      <use x="61.037109" xlink:href="#DejaVuSans-69"/>
      <use x="88.820312" xlink:href="#DejaVuSans-6d"/>
      <use x="186.232422" xlink:href="#DejaVuSans-65"/>
      <use x="247.755859" xlink:href="#DejaVuSans-20"/>
      <use x="279.542969" xlink:href="#DejaVuSans-28"/>
      <use x="318.556641" xlink:href="#DejaVuSans-53"/>
      <use x="382.033203" xlink:href="#DejaVuSans-65"/>
      <use x="443.556641" xlink:href="#DejaVuSans-63"/>
      <use x="498.537109" xlink:href="#DejaVuSans-29"/>
     </g>
    </g>
   </g>
   <g id="matplotlib.axis_4">
    <g id="ytick_4">
     <g id="line2d_23">
      <g>
       <use style="stroke:#000000;stroke-width:0.8;" x="57.6" xlink:href="#mfd9dd6157b" y="286.480091"/>
      </g>
     </g>
     <g id="text_23">
      <!-- −10 -->
      <g transform="translate(29.495313 290.27931)scale(0.1 -0.1)">
       <use xlink:href="#DejaVuSans-2212"/>
       <use x="83.789062" xlink:href="#DejaVuSans-31"/>
       <use x="147.412109" xlink:href="#DejaVuSans-30"/>
      </g>
     </g>
    </g>
    <g id="ytick_5">
     <g id="line2d_24">
      <g>
       <use style="stroke:#000000;stroke-width:0.8;" x="57.6" xlink:href="#mfd9dd6157b" y="253.071388"/>
      </g>
     </g>
     <g id="text_24">
      <!-- 0 -->
      <g transform="translate(44.2375 256.870607)scale(0.1 -0.1)">
       <use xlink:href="#DejaVuSans-30"/>
      </g>
     </g>
    </g>
    <g id="ytick_6">
     <g id="line2d_25">
      <g>
       <use style="stroke:#000000;stroke-width:0.8;" x="57.6" xlink:href="#mfd9dd6157b" y="219.662686"/>
      </g>
     </g>
     <g id="text_25">
      <!-- 10 -->
      <g transform="translate(37.875 223.461905)scale(0.1 -0.1)">
       <use xlink:href="#DejaVuSans-31"/>
       <use x="63.623047" xlink:href="#DejaVuSans-30"/>
      </g>
     </g>
    </g>
   </g>
   <g id="line2d_26">
    <path clip-path="url(#pb07ccf4418)" d="M 73.832727 248.097587 
L 75.021938 252.652914 
L 77.40036 263.690599 
L 78.58957 268.299683 
L 79.778781 271.101035 
L 80.967992 271.56611 
L 82.157203 269.626353 
L 83.346414 265.755313 
L 85.724835 256.176102 
L 86.914046 252.638471 
L 88.103257 250.98195 
L 89.292468 251.451116 
L 90.481678 253.757984 
L 92.8601 260.682539 
L 94.049311 263.435175 
L 95.238521 264.777858 
L 96.427732 264.477268 
L 97.616943 262.805805 
L 98.806154 260.489533 
L 99.995365 258.469427 
L 101.184575 257.612761 
L 102.373786 258.501792 
L 103.562997 261.274317 
L 104.752208 265.48376 
L 105.941419 270.150353 
L 107.130629 274.056796 
L 108.31984 276.111781 
L 109.509051 275.610373 
L 110.698262 272.394647 
L 111.887473 266.954827 
L 114.265894 253.84908 
L 115.455105 248.669283 
L 116.644316 245.619175 
L 117.833526 244.999598 
L 119.022737 246.515159 
L 122.59037 254.888199 
L 123.77958 255.865341 
L 124.968791 255.109354 
L 126.158002 252.797419 
L 129.725634 243.266958 
L 130.914845 241.598682 
L 132.104056 241.318811 
L 133.293267 242.283021 
L 136.860899 247.323642 
L 138.05011 247.850672 
L 139.239321 247.306801 
L 140.428531 245.831484 
L 142.806953 241.904456 
L 143.996164 240.532781 
L 145.185375 240.094287 
L 146.374585 240.725311 
L 147.563796 242.301565 
L 151.131429 248.839053 
L 152.320639 250.281195 
L 153.50985 250.984874 
L 154.699061 251.009633 
L 155.888272 250.5897 
L 157.077483 250.048276 
L 158.266693 249.697448 
L 159.455904 249.766674 
L 160.645115 250.37135 
L 161.834326 251.512948 
L 163.023536 253.103732 
L 165.401958 257.071506 
L 167.78038 261.194948 
L 168.96959 263.056413 
L 170.158801 264.669817 
L 171.348012 265.966123 
L 172.537223 266.905488 
L 173.726434 267.484555 
L 174.915644 267.728855 
L 176.104855 267.672571 
L 177.294066 267.343803 
L 178.483277 266.764829 
L 179.672488 265.960299 
L 182.050909 263.836579 
L 184.429331 261.634173 
L 185.618541 260.864906 
L 186.807752 260.497861 
L 187.996963 260.600462 
L 189.186174 261.150655 
L 191.564595 262.898906 
L 192.753806 263.533247 
L 193.943017 263.64281 
L 195.132228 263.062292 
L 196.321439 261.724935 
L 197.510649 259.613859 
L 198.69986 256.722135 
L 199.889071 253.053549 
L 201.078282 248.644094 
L 203.456703 238.04849 
L 205.835125 227.175922 
L 207.024336 222.949271 
L 208.213546 220.196252 
L 209.402757 219.173174 
L 210.591968 219.89034 
L 211.781179 222.142789 
L 212.97039 225.579577 
L 215.348811 234.373784 
L 217.727233 243.400155 
L 218.916444 247.306483 
L 220.105654 250.44224 
L 221.294865 252.553168 
L 222.484076 253.472246 
L 223.673287 253.160757 
L 224.862498 251.725809 
L 226.051708 249.4254 
L 229.619341 241.164847 
L 230.808551 239.100931 
L 231.997762 237.73552 
L 233.186973 237.231735 
L 234.376184 237.795011 
L 235.565395 239.630835 
L 236.754605 242.866028 
L 237.943816 247.487816 
L 240.322238 259.567209 
L 241.511449 265.472088 
L 242.700659 269.901014 
L 243.88987 271.963836 
L 245.079081 271.153962 
L 246.268292 267.440337 
L 247.457502 261.282465 
L 249.835924 245.170627 
L 251.025135 237.15099 
L 252.214346 230.155305 
L 253.403556 224.580172 
L 254.592767 220.56111 
L 255.781978 218.041695 
L 256.971189 216.841496 
L 258.1604 216.711886 
L 259.34961 217.383925 
L 260.538821 218.637794 
L 261.728032 220.396222 
L 262.917243 222.752746 
L 264.106454 225.89739 
L 265.295664 230.003071 
L 266.484875 235.135964 
L 271.241718 258.744222 
L 272.430929 261.795161 
L 273.62014 262.505058 
L 274.809351 260.847517 
L 275.998561 257.232921 
L 279.566194 242.849098 
L 280.755405 239.515753 
L 281.944615 237.647356 
L 283.133826 237.224524 
L 284.323037 237.978209 
L 285.512248 239.503149 
L 287.890669 243.245163 
L 289.07988 244.888056 
L 291.458302 247.479991 
L 292.647512 248.764644 
L 293.836723 250.331734 
L 295.025934 252.335223 
L 296.215145 254.826152 
L 298.593566 260.890907 
L 300.971988 267.076124 
L 302.161199 269.747408 
L 303.35041 272.001856 
L 304.53962 273.802939 
L 305.728831 275.14352 
L 306.918042 276.038723 
L 308.107253 276.526173 
L 309.296464 276.664203 
L 310.485674 276.519986 
L 311.674885 276.148676 
L 312.864096 275.581635 
L 314.053307 274.832407 
L 315.242517 273.91123 
L 317.620939 271.641381 
L 321.188571 267.869426 
L 323.566993 265.753087 
L 327.134625 263.196429 
L 328.323836 262.056165 
L 329.513047 260.521186 
L 330.702258 258.514649 
L 331.891469 256.066717 
L 334.26989 250.739966 
L 335.459101 248.587309 
L 336.648312 247.241295 
L 337.837522 246.897917 
L 339.026733 247.541699 
L 341.405155 250.311859 
L 342.594366 251.191634 
L 343.783576 250.916998 
L 344.972787 249.120765 
L 346.161998 245.745502 
L 347.351209 241.098653 
L 349.72963 230.608051 
L 350.918841 226.206665 
L 352.108052 223.067919 
L 353.297263 221.38557 
L 354.486474 221.073352 
L 355.675684 221.824684 
L 356.864895 223.219994 
L 359.243317 226.336458 
L 360.432527 227.498401 
L 361.621738 228.255173 
L 362.810949 228.670327 
L 366.378581 229.339983 
L 367.567792 229.797548 
L 368.757003 230.497587 
L 369.946214 231.482267 
L 371.135425 232.776973 
L 372.324635 234.382926 
L 373.513846 236.274309 
L 375.892268 240.755973 
L 378.270689 246.053468 
L 380.649111 252.161282 
L 385.405954 265.34087 
L 386.595165 268.247511 
L 387.784376 270.830318 
L 388.973586 273.079563 
L 391.352008 276.786872 
L 397.298062 285.095154 
L 398.487273 286.211772 
L 398.487273 286.211772 
" style="fill:none;stroke:#ff0000;stroke-linecap:square;stroke-width:2;"/>
   </g>
   <g id="line2d_27">
    <path clip-path="url(#pb07ccf4418)" d="M 73.832727 252.649038 
L 75.021938 243.261297 
L 76.211149 246.942554 
L 78.58957 293.130057 
L 79.778781 263.785492 
L 80.967992 263.426354 
L 82.157203 261.012696 
L 83.346414 273.043649 
L 84.535624 245.290118 
L 85.724835 271.905035 
L 86.914046 246.616079 
L 88.103257 260.100532 
L 89.292468 265.566066 
L 91.670889 238.883838 
L 92.8601 242.13189 
L 94.049311 261.824701 
L 95.238521 286.330809 
L 96.427732 270.000306 
L 97.616943 259.72984 
L 98.806154 274.845153 
L 99.995365 230.054637 
L 101.184575 282.233435 
L 102.373786 247.089502 
L 103.562997 249.817578 
L 104.752208 282.542458 
L 105.941419 249.236557 
L 107.130629 282.259537 
L 108.31984 279.089513 
L 109.509051 298.201293 
L 110.698262 260.688103 
L 111.887473 253.154814 
L 113.076683 262.957119 
L 114.265894 260.812365 
L 115.455105 235.092474 
L 116.644316 251.965221 
L 117.833526 238.327744 
L 120.211948 261.555997 
L 121.401159 260.962716 
L 122.59037 241.311953 
L 123.77958 261.236393 
L 124.968791 264.212501 
L 126.158002 232.44109 
L 127.347213 243.825732 
L 128.536424 241.783486 
L 129.725634 244.847371 
L 130.914845 263.224576 
L 132.104056 247.622615 
L 133.293267 249.17951 
L 134.482478 217.711234 
L 135.671688 249.848168 
L 136.860899 239.4419 
L 138.05011 238.184548 
L 139.239321 269.731986 
L 140.428531 233.20792 
L 141.617742 257.032777 
L 142.806953 257.241344 
L 143.996164 230.876826 
L 145.185375 222.566665 
L 146.374585 248.830189 
L 147.563796 242.329476 
L 148.753007 245.679396 
L 149.942218 247.423763 
L 151.131429 243.440257 
L 152.320639 244.791245 
L 153.50985 256.932426 
L 154.699061 241.421432 
L 155.888272 249.362875 
L 157.077483 293.426033 
L 158.266693 216.833943 
L 159.455904 262.843781 
L 160.645115 245.062833 
L 161.834326 259.076192 
L 163.023536 248.294452 
L 164.212747 247.845652 
L 165.401958 234.042019 
L 166.591169 254.523751 
L 167.78038 266.329343 
L 168.96959 286.43472 
L 170.158801 291.586581 
L 171.348012 239.028667 
L 172.537223 277.82259 
L 173.726434 273.063426 
L 174.915644 264.127303 
L 176.104855 262.841007 
L 177.294066 247.239843 
L 179.672488 267.699789 
L 180.861698 264.537086 
L 182.050909 285.141997 
L 183.24012 266.834226 
L 184.429331 254.115943 
L 185.618541 276.34233 
L 186.807752 262.45381 
L 187.996963 254.003961 
L 189.186174 261.947411 
L 190.375385 239.61034 
L 191.564595 260.511901 
L 192.753806 276.747145 
L 193.943017 262.604464 
L 195.132228 262.178675 
L 196.321439 256.12759 
L 197.510649 273.862606 
L 198.69986 242.689267 
L 199.889071 268.316774 
L 201.078282 246.681793 
L 202.267493 246.655436 
L 203.456703 239.859283 
L 204.645914 223.7508 
L 205.835125 239.623788 
L 207.024336 196.002168 
L 208.213546 232.389768 
L 209.402757 194.688 
L 210.591968 233.984087 
L 211.781179 218.547633 
L 212.97039 252.821184 
L 214.1596 232.484131 
L 215.348811 241.304232 
L 216.538022 235.063007 
L 217.727233 231.423941 
L 218.916444 243.706615 
L 220.105654 231.981516 
L 221.294865 251.52321 
L 222.484076 257.680554 
L 223.673287 263.249032 
L 224.862498 253.159445 
L 226.051708 255.18815 
L 227.240919 254.23854 
L 228.43013 237.741381 
L 229.619341 236.84537 
L 230.808551 246.016707 
L 231.997762 225.125601 
L 233.186973 235.127228 
L 234.376184 259.169213 
L 235.565395 218.184832 
L 236.754605 234.664467 
L 237.943816 253.195232 
L 239.133027 267.291798 
L 240.322238 269.644043 
L 241.511449 258.348798 
L 242.700659 244.078039 
L 243.88987 285.064779 
L 245.079081 282.927626 
L 246.268292 260.099886 
L 247.457502 282.918549 
L 248.646713 222.570431 
L 249.835924 257.043494 
L 251.025135 232.189435 
L 252.214346 217.47747 
L 253.403556 230.932005 
L 254.592767 234.7864 
L 255.781978 217.09528 
L 256.971189 221.261214 
L 258.1604 208.646958 
L 259.34961 216.929255 
L 260.538821 221.438054 
L 261.728032 230.113819 
L 262.917243 213.269301 
L 264.106454 211.997667 
L 265.295664 242.644605 
L 266.484875 212.268944 
L 267.674086 260.178038 
L 268.863297 244.0907 
L 270.052507 252.894518 
L 271.241718 276.791233 
L 272.430929 267.242148 
L 273.62014 262.285446 
L 274.809351 249.494737 
L 275.998561 247.759952 
L 277.187772 252.248389 
L 278.376983 247.262965 
L 279.566194 232.033201 
L 280.755405 242.897486 
L 281.944615 244.82838 
L 284.323037 238.692429 
L 285.512248 253.303469 
L 286.701459 240.228334 
L 287.890669 231.069383 
L 289.07988 265.983535 
L 290.269091 215.921403 
L 291.458302 234.88392 
L 292.647512 258.377919 
L 293.836723 258.339226 
L 295.025934 254.059771 
L 296.215145 250.676547 
L 297.404356 277.641754 
L 298.593566 259.626543 
L 299.782777 275.692118 
L 300.971988 239.11887 
L 302.161199 242.420433 
L 303.35041 276.561069 
L 304.53962 283.859202 
L 305.728831 296.164004 
L 306.918042 300.545838 
L 308.107253 275.478513 
L 309.296464 259.120381 
L 310.485674 267.199642 
L 311.674885 248.888837 
L 312.864096 289.649649 
L 314.053307 284.944479 
L 315.242517 284.48402 
L 316.431728 253.788477 
L 317.620939 259.952579 
L 318.81015 302.208 
L 319.999361 279.633139 
L 321.188571 250.410841 
L 322.377782 272.725452 
L 323.566993 253.024557 
L 324.756204 255.377026 
L 325.945415 266.994068 
L 327.134625 258.641944 
L 328.323836 281.996858 
L 330.702258 253.047932 
L 331.891469 272.723923 
L 333.080679 233.222481 
L 334.26989 234.4185 
L 335.459101 260.625617 
L 336.648312 222.70344 
L 337.837522 253.445287 
L 339.026733 273.946295 
L 340.215944 229.78701 
L 341.405155 278.689574 
L 342.594366 256.279085 
L 343.783576 236.843537 
L 344.972787 236.875676 
L 346.161998 236.213597 
L 347.351209 251.164288 
L 348.54042 248.836086 
L 349.72963 224.929684 
L 350.918841 197.182957 
L 352.108052 251.478399 
L 353.297263 235.435977 
L 354.486474 198.959133 
L 355.675684 221.366194 
L 356.864895 221.758261 
L 358.054106 241.959505 
L 359.243317 223.452273 
L 360.432527 221.448182 
L 361.621738 211.869045 
L 362.810949 239.598015 
L 364.00016 243.78045 
L 365.189371 210.127714 
L 366.378581 238.197875 
L 367.567792 244.413264 
L 368.757003 205.83278 
L 369.946214 237.517331 
L 371.135425 245.095152 
L 372.324635 215.939934 
L 373.513846 232.165985 
L 374.703057 258.154565 
L 375.892268 237.121925 
L 377.081479 242.258309 
L 378.270689 263.836722 
L 379.4599 223.867304 
L 380.649111 254.964041 
L 381.838322 245.296942 
L 383.027532 256.420703 
L 384.216743 277.795266 
L 385.405954 273.042912 
L 386.595165 265.705018 
L 387.784376 278.487947 
L 388.973586 275.357154 
L 390.162797 263.02176 
L 391.352008 269.658142 
L 392.541219 265.922039 
L 393.73043 285.204161 
L 394.91964 282.13213 
L 396.108851 287.280431 
L 397.298062 296.882121 
L 398.487273 292.759214 
L 398.487273 292.759214 
" style="fill:none;stroke:#0000ff;stroke-linecap:square;stroke-width:2;"/>
   </g>
   <g id="patch_8">
    <path d="M 57.6 307.584 
L 57.6 189.312 
" style="fill:none;stroke:#000000;stroke-linecap:square;stroke-linejoin:miter;stroke-width:0.8;"/>
   </g>
   <g id="patch_9">
    <path d="M 414.72 307.584 
L 414.72 189.312 
" style="fill:none;stroke:#000000;stroke-linecap:square;stroke-linejoin:miter;stroke-width:0.8;"/>
   </g>
   <g id="patch_10">
    <path d="M 57.6 307.584 
L 414.72 307.584 
" style="fill:none;stroke:#000000;stroke-linecap:square;stroke-linejoin:miter;stroke-width:0.8;"/>
   </g>
   <g id="patch_11">
    <path d="M 57.6 189.312 
L 414.72 189.312 
" style="fill:none;stroke:#000000;stroke-linecap:square;stroke-linejoin:miter;stroke-width:0.8;"/>
   </g>
   <g id="text_26">
    <!-- BOLD signal -->
    <defs>
     <path d="M 19.671875 34.8125 
L 19.671875 8.109375 
L 35.5 8.109375 
Q 43.453125 8.109375 47.28125 11.40625 
Q 51.125 14.703125 51.125 21.484375 
Q 51.125 28.328125 47.28125 31.5625 
Q 43.453125 34.8125 35.5 34.8125 
z
M 19.671875 64.796875 
L 19.671875 42.828125 
L 34.28125 42.828125 
Q 41.5 42.828125 45.03125 45.53125 
Q 48.578125 48.25 48.578125 53.8125 
Q 48.578125 59.328125 45.03125 62.0625 
Q 41.5 64.796875 34.28125 64.796875 
z
M 9.8125 72.90625 
L 35.015625 72.90625 
Q 46.296875 72.90625 52.390625 68.21875 
Q 58.5 63.53125 58.5 54.890625 
Q 58.5 48.1875 55.375 44.234375 
Q 52.25 40.28125 46.1875 39.3125 
Q 53.46875 37.75 57.5 32.78125 
Q 61.53125 27.828125 61.53125 20.40625 
Q 61.53125 10.640625 54.890625 5.3125 
Q 48.25 0 35.984375 0 
L 9.8125 0 
z
" id="DejaVuSans-42"/>
     <path d="M 39.40625 66.21875 
Q 28.65625 66.21875 22.328125 58.203125 
Q 16.015625 50.203125 16.015625 36.375 
Q 16.015625 22.609375 22.328125 14.59375 
Q 28.65625 6.59375 39.40625 6.59375 
Q 50.140625 6.59375 56.421875 14.59375 
Q 62.703125 22.609375 62.703125 36.375 
Q 62.703125 50.203125 56.421875 58.203125 
Q 50.140625 66.21875 39.40625 66.21875 
z
M 39.40625 74.21875 
Q 54.734375 74.21875 63.90625 63.9375 
Q 73.09375 53.65625 73.09375 36.375 
Q 73.09375 19.140625 63.90625 8.859375 
Q 54.734375 -1.421875 39.40625 -1.421875 
Q 24.03125 -1.421875 14.8125 8.828125 
Q 5.609375 19.09375 5.609375 36.375 
Q 5.609375 53.65625 14.8125 63.9375 
Q 24.03125 74.21875 39.40625 74.21875 
z
" id="DejaVuSans-4f"/>
     <path d="M 9.8125 72.90625 
L 19.671875 72.90625 
L 19.671875 8.296875 
L 55.171875 8.296875 
L 55.171875 0 
L 9.8125 0 
z
" id="DejaVuSans-4c"/>
     <path d="M 19.671875 64.796875 
L 19.671875 8.109375 
L 31.59375 8.109375 
Q 46.6875 8.109375 53.6875 14.9375 
Q 60.6875 21.78125 60.6875 36.53125 
Q 60.6875 51.171875 53.6875 57.984375 
Q 46.6875 64.796875 31.59375 64.796875 
z
M 9.8125 72.90625 
L 30.078125 72.90625 
Q 51.265625 72.90625 61.171875 64.09375 
Q 71.09375 55.28125 71.09375 36.53125 
Q 71.09375 17.671875 61.125 8.828125 
Q 51.171875 0 30.078125 0 
L 9.8125 0 
z
" id="DejaVuSans-44"/>
     <path d="M 44.28125 53.078125 
L 44.28125 44.578125 
Q 40.484375 46.53125 36.375 47.5 
Q 32.28125 48.484375 27.875 48.484375 
Q 21.1875 48.484375 17.84375 46.4375 
Q 14.5 44.390625 14.5 40.28125 
Q 14.5 37.15625 16.890625 35.375 
Q 19.28125 33.59375 26.515625 31.984375 
L 29.59375 31.296875 
Q 39.15625 29.25 43.1875 25.515625 
Q 47.21875 21.78125 47.21875 15.09375 
Q 47.21875 7.46875 41.1875 3.015625 
Q 35.15625 -1.421875 24.609375 -1.421875 
Q 20.21875 -1.421875 15.453125 -0.5625 
Q 10.6875 0.296875 5.421875 2 
L 5.421875 11.28125 
Q 10.40625 8.6875 15.234375 7.390625 
Q 20.0625 6.109375 24.8125 6.109375 
Q 31.15625 6.109375 34.5625 8.28125 
Q 37.984375 10.453125 37.984375 14.40625 
Q 37.984375 18.0625 35.515625 20.015625 
Q 33.0625 21.96875 24.703125 23.78125 
L 21.578125 24.515625 
Q 13.234375 26.265625 9.515625 29.90625 
Q 5.8125 33.546875 5.8125 39.890625 
Q 5.8125 47.609375 11.28125 51.796875 
Q 16.75 56 26.8125 56 
Q 31.78125 56 36.171875 55.265625 
Q 40.578125 54.546875 44.28125 53.078125 
z
" id="DejaVuSans-73"/>
     <path d="M 45.40625 27.984375 
Q 45.40625 37.75 41.375 43.109375 
Q 37.359375 48.484375 30.078125 48.484375 
Q 22.859375 48.484375 18.828125 43.109375 
Q 14.796875 37.75 14.796875 27.984375 
Q 14.796875 18.265625 18.828125 12.890625 
Q 22.859375 7.515625 30.078125 7.515625 
Q 37.359375 7.515625 41.375 12.890625 
Q 45.40625 18.265625 45.40625 27.984375 
z
M 54.390625 6.78125 
Q 54.390625 -7.171875 48.1875 -13.984375 
Q 42 -20.796875 29.203125 -20.796875 
Q 24.46875 -20.796875 20.265625 -20.09375 
Q 16.0625 -19.390625 12.109375 -17.921875 
L 12.109375 -9.1875 
Q 16.0625 -11.328125 19.921875 -12.34375 
Q 23.78125 -13.375 27.78125 -13.375 
Q 36.625 -13.375 41.015625 -8.765625 
Q 45.40625 -4.15625 45.40625 5.171875 
L 45.40625 9.625 
Q 42.625 4.78125 38.28125 2.390625 
Q 33.9375 0 27.875 0 
Q 17.828125 0 11.671875 7.65625 
Q 5.515625 15.328125 5.515625 27.984375 
Q 5.515625 40.671875 11.671875 48.328125 
Q 17.828125 56 27.875 56 
Q 33.9375 56 38.28125 53.609375 
Q 42.625 51.21875 45.40625 46.390625 
L 45.40625 54.6875 
L 54.390625 54.6875 
z
" id="DejaVuSans-67"/>
     <path d="M 54.890625 33.015625 
L 54.890625 0 
L 45.90625 0 
L 45.90625 32.71875 
Q 45.90625 40.484375 42.875 44.328125 
Q 39.84375 48.1875 33.796875 48.1875 
Q 26.515625 48.1875 22.3125 43.546875 
Q 18.109375 38.921875 18.109375 30.90625 
L 18.109375 0 
L 9.078125 0 
L 9.078125 54.6875 
L 18.109375 54.6875 
L 18.109375 46.1875 
Q 21.34375 51.125 25.703125 53.5625 
Q 30.078125 56 35.796875 56 
Q 45.21875 56 50.046875 50.171875 
Q 54.890625 44.34375 54.890625 33.015625 
z
" id="DejaVuSans-6e"/>
     <path d="M 34.28125 27.484375 
Q 23.390625 27.484375 19.1875 25 
Q 14.984375 22.515625 14.984375 16.5 
Q 14.984375 11.71875 18.140625 8.90625 
Q 21.296875 6.109375 26.703125 6.109375 
Q 34.1875 6.109375 38.703125 11.40625 
Q 43.21875 16.703125 43.21875 25.484375 
L 43.21875 27.484375 
z
M 52.203125 31.203125 
L 52.203125 0 
L 43.21875 0 
L 43.21875 8.296875 
Q 40.140625 3.328125 35.546875 0.953125 
Q 30.953125 -1.421875 24.3125 -1.421875 
Q 15.921875 -1.421875 10.953125 3.296875 
Q 6 8.015625 6 15.921875 
Q 6 25.140625 12.171875 29.828125 
Q 18.359375 34.515625 30.609375 34.515625 
L 43.21875 34.515625 
L 43.21875 35.40625 
Q 43.21875 41.609375 39.140625 45 
Q 35.0625 48.390625 27.6875 48.390625 
Q 23 48.390625 18.546875 47.265625 
Q 14.109375 46.140625 10.015625 43.890625 
L 10.015625 52.203125 
Q 14.9375 54.109375 19.578125 55.046875 
Q 24.21875 56 28.609375 56 
Q 40.484375 56 46.34375 49.84375 
Q 52.203125 43.703125 52.203125 31.203125 
z
" id="DejaVuSans-61"/>
     <path d="M 9.421875 75.984375 
L 18.40625 75.984375 
L 18.40625 0 
L 9.421875 0 
z
" id="DejaVuSans-6c"/>
    </defs>
    <g transform="translate(199.703438 183.312)scale(0.12 -0.12)">
     <use xlink:href="#DejaVuSans-42"/>
     <use x="68.587891" xlink:href="#DejaVuSans-4f"/>
     <use x="147.298828" xlink:href="#DejaVuSans-4c"/>
     <use x="203.011719" xlink:href="#DejaVuSans-44"/>
     <use x="280.013672" xlink:href="#DejaVuSans-20"/>
     <use x="311.800781" xlink:href="#DejaVuSans-73"/>
     <use x="363.900391" xlink:href="#DejaVuSans-69"/>
     <use x="391.683594" xlink:href="#DejaVuSans-67"/>
     <use x="455.160156" xlink:href="#DejaVuSans-6e"/>
     <use x="518.539062" xlink:href="#DejaVuSans-61"/>
     <use x="579.818359" xlink:href="#DejaVuSans-6c"/>
    </g>
   </g>
  </g>
 </g>
 <defs>
  <clipPath id="pce2aa8d65c">
   <rect height="118.272" width="357.12" x="57.6" y="41.472"/>
  </clipPath>
  <clipPath id="pb07ccf4418">
   <rect height="118.272" width="357.12" x="57.6" y="189.312"/>
  </clipPath>
 </defs>
</svg>
