<?xml version="1.0" encoding="utf-8" standalone="no"?>
<!DOCTYPE svg PUBLIC "-//W3C//DTD SVG 1.1//EN"
  "http://www.w3.org/Graphics/SVG/1.1/DTD/svg11.dtd">
<!-- Created with matplotlib (http://matplotlib.org/) -->
<svg height="345.6pt" version="1.1" viewBox="0 0 460.8 345.6" width="460.8pt" xmlns="http://www.w3.org/2000/svg" xmlns:xlink="http://www.w3.org/1999/xlink">
 <defs>
  <style type="text/css">
*{stroke-linecap:butt;stroke-linejoin:round;}
  </style>
 </defs>
 <g id="figure_1">
  <g id="patch_1">
   <path d="M 0 345.6 
L 460.8 345.6 
L 460.8 0 
L 0 0 
z
" style="fill:#ffffff;"/>
  </g>
  <g id="axes_1">
   <g id="patch_2">
    <path d="M 57.6 159.744 
L 414.72 159.744 
L 414.72 41.472 
L 57.6 41.472 
z
" style="fill:#ffffff;"/>
   </g>
   <g id="matplotlib.axis_1">
    <g id="xtick_1">
     <g id="line2d_1">
      <defs>
       <path d="M 0 0 
L 0 3.5 
" id="m01c58dedb2" style="stroke:#000000;stroke-width:0.8;"/>
      </defs>
      <g>
       <use style="stroke:#000000;stroke-width:0.8;" x="57.183776" xlink:href="#m01c58dedb2" y="159.744"/>
      </g>
     </g>
     <g id="text_1">
      <!-- 0 -->
      <defs>
       <path d="M 31.78125 66.40625 
Q 24.171875 66.40625 20.328125 58.90625 
Q 16.5 51.421875 16.5 36.375 
Q 16.5 21.390625 20.328125 13.890625 
Q 24.171875 6.390625 31.78125 6.390625 
Q 39.453125 6.390625 43.28125 13.890625 
Q 47.125 21.390625 47.125 36.375 
Q 47.125 51.421875 43.28125 58.90625 
Q 39.453125 66.40625 31.78125 66.40625 
z
M 31.78125 74.21875 
Q 44.046875 74.21875 50.515625 64.515625 
Q 56.984375 54.828125 56.984375 36.375 
Q 56.984375 17.96875 50.515625 8.265625 
Q 44.046875 -1.421875 31.78125 -1.421875 
Q 19.53125 -1.421875 13.0625 8.265625 
Q 6.59375 17.96875 6.59375 36.375 
Q 6.59375 54.828125 13.0625 64.515625 
Q 19.53125 74.21875 31.78125 74.21875 
z
" id="DejaVuSans-30"/>
      </defs>
      <g transform="translate(54.002526 174.342437)scale(0.1 -0.1)">
       <use xlink:href="#DejaVuSans-30"/>
      </g>
     </g>
    </g>
    <g id="xtick_2">
     <g id="line2d_2">
      <g>
       <use style="stroke:#000000;stroke-width:0.8;" x="98.475818" xlink:href="#m01c58dedb2" y="159.744"/>
      </g>
     </g>
     <g id="text_2">
      <!-- 25 -->
      <defs>
       <path d="M 19.1875 8.296875 
L 53.609375 8.296875 
L 53.609375 0 
L 7.328125 0 
L 7.328125 8.296875 
Q 12.9375 14.109375 22.625 23.890625 
Q 32.328125 33.6875 34.8125 36.53125 
Q 39.546875 41.84375 41.421875 45.53125 
Q 43.3125 49.21875 43.3125 52.78125 
Q 43.3125 58.59375 39.234375 62.25 
Q 35.15625 65.921875 28.609375 65.921875 
Q 23.96875 65.921875 18.8125 64.3125 
Q 13.671875 62.703125 7.8125 59.421875 
L 7.8125 69.390625 
Q 13.765625 71.78125 18.9375 73 
Q 24.125 74.21875 28.421875 74.21875 
Q 39.75 74.21875 46.484375 68.546875 
Q 53.21875 62.890625 53.21875 53.421875 
Q 53.21875 48.921875 51.53125 44.890625 
Q 49.859375 40.875 45.40625 35.40625 
Q 44.1875 33.984375 37.640625 27.21875 
Q 31.109375 20.453125 19.1875 8.296875 
z
" id="DejaVuSans-32"/>
       <path d="M 10.796875 72.90625 
L 49.515625 72.90625 
L 49.515625 64.59375 
L 19.828125 64.59375 
L 19.828125 46.734375 
Q 21.96875 47.46875 24.109375 47.828125 
Q 26.265625 48.1875 28.421875 48.1875 
Q 40.625 48.1875 47.75 41.5 
Q 54.890625 34.8125 54.890625 23.390625 
Q 54.890625 11.625 47.5625 5.09375 
Q 40.234375 -1.421875 26.90625 -1.421875 
Q 22.3125 -1.421875 17.546875 -0.640625 
Q 12.796875 0.140625 7.71875 1.703125 
L 7.71875 11.625 
Q 12.109375 9.234375 16.796875 8.0625 
Q 21.484375 6.890625 26.703125 6.890625 
Q 35.15625 6.890625 40.078125 11.328125 
Q 45.015625 15.765625 45.015625 23.390625 
Q 45.015625 31 40.078125 35.4375 
Q 35.15625 39.890625 26.703125 39.890625 
Q 22.75 39.890625 18.8125 39.015625 
Q 14.890625 38.140625 10.796875 36.28125 
z
" id="DejaVuSans-35"/>
      </defs>
      <g transform="translate(92.113318 174.342437)scale(0.1 -0.1)">
       <use xlink:href="#DejaVuSans-32"/>
       <use x="63.623047" xlink:href="#DejaVuSans-35"/>
      </g>
     </g>
    </g>
    <g id="xtick_3">
     <g id="line2d_3">
      <g>
       <use style="stroke:#000000;stroke-width:0.8;" x="139.767859" xlink:href="#m01c58dedb2" y="159.744"/>
      </g>
     </g>
     <g id="text_3">
      <!-- 50 -->
      <g transform="translate(133.405359 174.342437)scale(0.1 -0.1)">
       <use xlink:href="#DejaVuSans-35"/>
       <use x="63.623047" xlink:href="#DejaVuSans-30"/>
      </g>
     </g>
    </g>
    <g id="xtick_4">
     <g id="line2d_4">
      <g>
       <use style="stroke:#000000;stroke-width:0.8;" x="181.0599" xlink:href="#m01c58dedb2" y="159.744"/>
      </g>
     </g>
     <g id="text_4">
      <!-- 75 -->
      <defs>
       <path d="M 8.203125 72.90625 
L 55.078125 72.90625 
L 55.078125 68.703125 
L 28.609375 0 
L 18.3125 0 
L 43.21875 64.59375 
L 8.203125 64.59375 
z
" id="DejaVuSans-37"/>
      </defs>
      <g transform="translate(174.6974 174.342437)scale(0.1 -0.1)">
       <use xlink:href="#DejaVuSans-37"/>
       <use x="63.623047" xlink:href="#DejaVuSans-35"/>
      </g>
     </g>
    </g>
    <g id="xtick_5">
     <g id="line2d_5">
      <g>
       <use style="stroke:#000000;stroke-width:0.8;" x="222.351941" xlink:href="#m01c58dedb2" y="159.744"/>
      </g>
     </g>
     <g id="text_5">
      <!-- 100 -->
      <defs>
       <path d="M 12.40625 8.296875 
L 28.515625 8.296875 
L 28.515625 63.921875 
L 10.984375 60.40625 
L 10.984375 69.390625 
L 28.421875 72.90625 
L 38.28125 72.90625 
L 38.28125 8.296875 
L 54.390625 8.296875 
L 54.390625 0 
L 12.40625 0 
z
" id="DejaVuSans-31"/>
      </defs>
      <g transform="translate(212.808191 174.342437)scale(0.1 -0.1)">
       <use xlink:href="#DejaVuSans-31"/>
       <use x="63.623047" xlink:href="#DejaVuSans-30"/>
       <use x="127.246094" xlink:href="#DejaVuSans-30"/>
      </g>
     </g>
    </g>
    <g id="xtick_6">
     <g id="line2d_6">
      <g>
       <use style="stroke:#000000;stroke-width:0.8;" x="263.643983" xlink:href="#m01c58dedb2" y="159.744"/>
      </g>
     </g>
     <g id="text_6">
      <!-- 125 -->
      <g transform="translate(254.100233 174.342437)scale(0.1 -0.1)">
       <use xlink:href="#DejaVuSans-31"/>
       <use x="63.623047" xlink:href="#DejaVuSans-32"/>
       <use x="127.246094" xlink:href="#DejaVuSans-35"/>
      </g>
     </g>
    </g>
    <g id="xtick_7">
     <g id="line2d_7">
      <g>
       <use style="stroke:#000000;stroke-width:0.8;" x="304.936024" xlink:href="#m01c58dedb2" y="159.744"/>
      </g>
     </g>
     <g id="text_7">
      <!-- 150 -->
      <g transform="translate(295.392274 174.342437)scale(0.1 -0.1)">
       <use xlink:href="#DejaVuSans-31"/>
       <use x="63.623047" xlink:href="#DejaVuSans-35"/>
       <use x="127.246094" xlink:href="#DejaVuSans-30"/>
      </g>
     </g>
    </g>
    <g id="xtick_8">
     <g id="line2d_8">
      <g>
       <use style="stroke:#000000;stroke-width:0.8;" x="346.228065" xlink:href="#m01c58dedb2" y="159.744"/>
      </g>
     </g>
     <g id="text_8">
      <!-- 175 -->
      <g transform="translate(336.684315 174.342437)scale(0.1 -0.1)">
       <use xlink:href="#DejaVuSans-31"/>
       <use x="63.623047" xlink:href="#DejaVuSans-37"/>
       <use x="127.246094" xlink:href="#DejaVuSans-35"/>
      </g>
     </g>
    </g>
    <g id="xtick_9">
     <g id="line2d_9">
      <g>
       <use style="stroke:#000000;stroke-width:0.8;" x="387.520107" xlink:href="#m01c58dedb2" y="159.744"/>
      </g>
     </g>
     <g id="text_9">
      <!-- 200 -->
      <g transform="translate(377.976357 174.342437)scale(0.1 -0.1)">
       <use xlink:href="#DejaVuSans-32"/>
       <use x="63.623047" xlink:href="#DejaVuSans-30"/>
       <use x="127.246094" xlink:href="#DejaVuSans-30"/>
      </g>
     </g>
    </g>
   </g>
   <g id="matplotlib.axis_2">
    <g id="ytick_1">
     <g id="line2d_10">
      <defs>
       <path d="M 0 0 
L -3.5 0 
" id="m013074fae0" style="stroke:#000000;stroke-width:0.8;"/>
      </defs>
      <g>
       <use style="stroke:#000000;stroke-width:0.8;" x="57.6" xlink:href="#m013074fae0" y="142.740026"/>
      </g>
     </g>
     <g id="text_10">
      <!-- −4 -->
      <defs>
       <path d="M 10.59375 35.5 
L 73.1875 35.5 
L 73.1875 27.203125 
L 10.59375 27.203125 
z
" id="DejaVuSans-2212"/>
       <path d="M 37.796875 64.3125 
L 12.890625 25.390625 
L 37.796875 25.390625 
z
M 35.203125 72.90625 
L 47.609375 72.90625 
L 47.609375 25.390625 
L 58.015625 25.390625 
L 58.015625 17.1875 
L 47.609375 17.1875 
L 47.609375 0 
L 37.796875 0 
L 37.796875 17.1875 
L 4.890625 17.1875 
L 4.890625 26.703125 
z
" id="DejaVuSans-34"/>
      </defs>
      <g transform="translate(35.857813 146.539244)scale(0.1 -0.1)">
       <use xlink:href="#DejaVuSans-2212"/>
       <use x="83.789062" xlink:href="#DejaVuSans-34"/>
      </g>
     </g>
    </g>
    <g id="ytick_2">
     <g id="line2d_11">
      <g>
       <use style="stroke:#000000;stroke-width:0.8;" x="57.6" xlink:href="#m013074fae0" y="117.629024"/>
      </g>
     </g>
     <g id="text_11">
      <!-- −2 -->
      <g transform="translate(35.857813 121.428242)scale(0.1 -0.1)">
       <use xlink:href="#DejaVuSans-2212"/>
       <use x="83.789062" xlink:href="#DejaVuSans-32"/>
      </g>
     </g>
    </g>
    <g id="ytick_3">
     <g id="line2d_12">
      <g>
       <use style="stroke:#000000;stroke-width:0.8;" x="57.6" xlink:href="#m013074fae0" y="92.518021"/>
      </g>
     </g>
     <g id="text_12">
      <!-- 0 -->
      <g transform="translate(44.2375 96.31724)scale(0.1 -0.1)">
       <use xlink:href="#DejaVuSans-30"/>
      </g>
     </g>
    </g>
    <g id="ytick_4">
     <g id="line2d_13">
      <g>
       <use style="stroke:#000000;stroke-width:0.8;" x="57.6" xlink:href="#m013074fae0" y="67.407019"/>
      </g>
     </g>
     <g id="text_13">
      <!-- 2 -->
      <g transform="translate(44.2375 71.206238)scale(0.1 -0.1)">
       <use xlink:href="#DejaVuSans-32"/>
      </g>
     </g>
    </g>
    <g id="ytick_5">
     <g id="line2d_14">
      <g>
       <use style="stroke:#000000;stroke-width:0.8;" x="57.6" xlink:href="#m013074fae0" y="42.296017"/>
      </g>
     </g>
     <g id="text_14">
      <!-- 4 -->
      <g transform="translate(44.2375 46.095236)scale(0.1 -0.1)">
       <use xlink:href="#DejaVuSans-34"/>
      </g>
     </g>
    </g>
   </g>
   <g id="line2d_15">
    <path clip-path="url(#p8b0390bd0d)" d="M 73.832727 93.326 
L 78.58957 78.412117 
L 85.724835 105.935663 
L 92.8601 101.280804 
L 99.995365 78.722918 
L 107.130629 99.153856 
L 114.265894 77.776936 
L 121.401159 87.135864 
L 128.536424 92.297883 
L 135.671688 92.69501 
L 142.806953 89.748877 
L 149.942218 103.011439 
L 157.077483 86.343607 
L 164.212747 88.006467 
L 171.348012 88.493354 
L 178.483277 89.827509 
L 185.618541 85.275632 
L 192.753806 75.080191 
L 199.889071 59.299255 
L 207.024336 140.970104 
L 214.1596 154.368 
L 221.294865 76.13511 
L 234.376184 95.238178 
L 235.565395 96.954785 
L 242.700659 121.350496 
L 249.835924 72.887465 
L 256.971189 143.666755 
L 264.106454 132.704959 
L 271.241718 53.606779 
L 278.376983 73.543606 
L 285.512248 115.823807 
L 292.647512 119.754027 
L 299.782777 133.733586 
L 306.918042 97.245401 
L 314.053307 78.386157 
L 321.188571 46.848 
L 328.323836 79.114066 
L 342.594366 132.35113 
L 349.72963 131.970909 
L 356.864895 96.121997 
L 364.00016 65.970123 
L 371.135425 47.730183 
L 378.270689 81.390975 
L 385.405954 98.293139 
L 392.541219 141.800268 
L 398.487273 123.817382 
L 398.487273 123.817382 
" style="fill:none;stroke:#ff0000;stroke-linecap:square;stroke-width:2;"/>
   </g>
   <g id="patch_3">
    <path d="M 57.6 159.744 
L 57.6 41.472 
" style="fill:none;stroke:#000000;stroke-linecap:square;stroke-linejoin:miter;stroke-width:0.8;"/>
   </g>
   <g id="patch_4">
    <path d="M 414.72 159.744 
L 414.72 41.472 
" style="fill:none;stroke:#000000;stroke-linecap:square;stroke-linejoin:miter;stroke-width:0.8;"/>
   </g>
   <g id="patch_5">
    <path d="M 57.6 159.744 
L 414.72 159.744 
" style="fill:none;stroke:#000000;stroke-linecap:square;stroke-linejoin:miter;stroke-width:0.8;"/>
   </g>
   <g id="patch_6">
    <path d="M 57.6 41.472 
L 414.72 41.472 
" style="fill:none;stroke:#000000;stroke-linecap:square;stroke-linejoin:miter;stroke-width:0.8;"/>
   </g>
  </g>
  <g id="axes_2">
   <g id="patch_7">
    <path d="M 57.6 307.584 
L 414.72 307.584 
L 414.72 189.312 
L 57.6 189.312 
z
" style="fill:#ffffff;"/>
   </g>
   <g id="matplotlib.axis_3">
    <g id="xtick_10">
     <g id="line2d_16">
      <g>
       <use style="stroke:#000000;stroke-width:0.8;" x="57.183776" xlink:href="#m01c58dedb2" y="307.584"/>
      </g>
     </g>
     <g id="text_15">
      <!-- 0 -->
      <g transform="translate(54.002526 322.182437)scale(0.1 -0.1)">
       <use xlink:href="#DejaVuSans-30"/>
      </g>
     </g>
    </g>
    <g id="xtick_11">
     <g id="line2d_17">
      <g>
       <use style="stroke:#000000;stroke-width:0.8;" x="98.475818" xlink:href="#m01c58dedb2" y="307.584"/>
      </g>
     </g>
     <g id="text_16">
      <!-- 25 -->
      <g transform="translate(92.113318 322.182437)scale(0.1 -0.1)">
       <use xlink:href="#DejaVuSans-32"/>
       <use x="63.623047" xlink:href="#DejaVuSans-35"/>
      </g>
     </g>
    </g>
    <g id="xtick_12">
     <g id="line2d_18">
      <g>
       <use style="stroke:#000000;stroke-width:0.8;" x="139.767859" xlink:href="#m01c58dedb2" y="307.584"/>
      </g>
     </g>
     <g id="text_17">
      <!-- 50 -->
      <g transform="translate(133.405359 322.182437)scale(0.1 -0.1)">
       <use xlink:href="#DejaVuSans-35"/>
       <use x="63.623047" xlink:href="#DejaVuSans-30"/>
      </g>
     </g>
    </g>
    <g id="xtick_13">
     <g id="line2d_19">
      <g>
       <use style="stroke:#000000;stroke-width:0.8;" x="181.0599" xlink:href="#m01c58dedb2" y="307.584"/>
      </g>
     </g>
     <g id="text_18">
      <!-- 75 -->
      <g transform="translate(174.6974 322.182437)scale(0.1 -0.1)">
       <use xlink:href="#DejaVuSans-37"/>
       <use x="63.623047" xlink:href="#DejaVuSans-35"/>
      </g>
     </g>
    </g>
    <g id="xtick_14">
     <g id="line2d_20">
      <g>
       <use style="stroke:#000000;stroke-width:0.8;" x="222.351941" xlink:href="#m01c58dedb2" y="307.584"/>
      </g>
     </g>
     <g id="text_19">
      <!-- 100 -->
      <g transform="translate(212.808191 322.182437)scale(0.1 -0.1)">
       <use xlink:href="#DejaVuSans-31"/>
       <use x="63.623047" xlink:href="#DejaVuSans-30"/>
       <use x="127.246094" xlink:href="#DejaVuSans-30"/>
      </g>
     </g>
    </g>
    <g id="xtick_15">
     <g id="line2d_21">
      <g>
       <use style="stroke:#000000;stroke-width:0.8;" x="263.643983" xlink:href="#m01c58dedb2" y="307.584"/>
      </g>
     </g>
     <g id="text_20">
      <!-- 125 -->
      <g transform="translate(254.100233 322.182437)scale(0.1 -0.1)">
       <use xlink:href="#DejaVuSans-31"/>
       <use x="63.623047" xlink:href="#DejaVuSans-32"/>
       <use x="127.246094" xlink:href="#DejaVuSans-35"/>
      </g>
     </g>
    </g>
    <g id="xtick_16">
     <g id="line2d_22">
      <g>
       <use style="stroke:#000000;stroke-width:0.8;" x="304.936024" xlink:href="#m01c58dedb2" y="307.584"/>
      </g>
     </g>
     <g id="text_21">
      <!-- 150 -->
      <g transform="translate(295.392274 322.182437)scale(0.1 -0.1)">
       <use xlink:href="#DejaVuSans-31"/>
       <use x="63.623047" xlink:href="#DejaVuSans-35"/>
       <use x="127.246094" xlink:href="#DejaVuSans-30"/>
      </g>
     </g>
    </g>
    <g id="xtick_17">
     <g id="line2d_23">
      <g>
       <use style="stroke:#000000;stroke-width:0.8;" x="346.228065" xlink:href="#m01c58dedb2" y="307.584"/>
      </g>
     </g>
     <g id="text_22">
      <!-- 175 -->
      <g transform="translate(336.684315 322.182437)scale(0.1 -0.1)">
       <use xlink:href="#DejaVuSans-31"/>
       <use x="63.623047" xlink:href="#DejaVuSans-37"/>
       <use x="127.246094" xlink:href="#DejaVuSans-35"/>
      </g>
     </g>
    </g>
    <g id="xtick_18">
     <g id="line2d_24">
      <g>
       <use style="stroke:#000000;stroke-width:0.8;" x="387.520107" xlink:href="#m01c58dedb2" y="307.584"/>
      </g>
     </g>
     <g id="text_23">
      <!-- 200 -->
      <g transform="translate(377.976357 322.182437)scale(0.1 -0.1)">
       <use xlink:href="#DejaVuSans-32"/>
       <use x="63.623047" xlink:href="#DejaVuSans-30"/>
       <use x="127.246094" xlink:href="#DejaVuSans-30"/>
      </g>
     </g>
    </g>
    <g id="text_24">
     <!-- Time (Sec) -->
     <defs>
      <path d="M -0.296875 72.90625 
L 61.375 72.90625 
L 61.375 64.59375 
L 35.5 64.59375 
L 35.5 0 
L 25.59375 0 
L 25.59375 64.59375 
L -0.296875 64.59375 
z
" id="DejaVuSans-54"/>
      <path d="M 9.421875 54.6875 
L 18.40625 54.6875 
L 18.40625 0 
L 9.421875 0 
z
M 9.421875 75.984375 
L 18.40625 75.984375 
L 18.40625 64.59375 
L 9.421875 64.59375 
z
" id="DejaVuSans-69"/>
      <path d="M 52 44.1875 
Q 55.375 50.25 60.0625 53.125 
Q 64.75 56 71.09375 56 
Q 79.640625 56 84.28125 50.015625 
Q 88.921875 44.046875 88.921875 33.015625 
L 88.921875 0 
L 79.890625 0 
L 79.890625 32.71875 
Q 79.890625 40.578125 77.09375 44.375 
Q 74.3125 48.1875 68.609375 48.1875 
Q 61.625 48.1875 57.5625 43.546875 
Q 53.515625 38.921875 53.515625 30.90625 
L 53.515625 0 
L 44.484375 0 
L 44.484375 32.71875 
Q 44.484375 40.625 41.703125 44.40625 
Q 38.921875 48.1875 33.109375 48.1875 
Q 26.21875 48.1875 22.15625 43.53125 
Q 18.109375 38.875 18.109375 30.90625 
L 18.109375 0 
L 9.078125 0 
L 9.078125 54.6875 
L 18.109375 54.6875 
L 18.109375 46.1875 
Q 21.1875 51.21875 25.484375 53.609375 
Q 29.78125 56 35.6875 56 
Q 41.65625 56 45.828125 52.96875 
Q 50 49.953125 52 44.1875 
z
" id="DejaVuSans-6d"/>
      <path d="M 56.203125 29.59375 
L 56.203125 25.203125 
L 14.890625 25.203125 
Q 15.484375 15.921875 20.484375 11.0625 
Q 25.484375 6.203125 34.421875 6.203125 
Q 39.59375 6.203125 44.453125 7.46875 
Q 49.3125 8.734375 54.109375 11.28125 
L 54.109375 2.78125 
Q 49.265625 0.734375 44.1875 -0.34375 
Q 39.109375 -1.421875 33.890625 -1.421875 
Q 20.796875 -1.421875 13.15625 6.1875 
Q 5.515625 13.8125 5.515625 26.8125 
Q 5.515625 40.234375 12.765625 48.109375 
Q 20.015625 56 32.328125 56 
Q 43.359375 56 49.78125 48.890625 
Q 56.203125 41.796875 56.203125 29.59375 
z
M 47.21875 32.234375 
Q 47.125 39.59375 43.09375 43.984375 
Q 39.0625 48.390625 32.421875 48.390625 
Q 24.90625 48.390625 20.390625 44.140625 
Q 15.875 39.890625 15.1875 32.171875 
z
" id="DejaVuSans-65"/>
      <path id="DejaVuSans-20"/>
      <path d="M 31 75.875 
Q 24.46875 64.65625 21.28125 53.65625 
Q 18.109375 42.671875 18.109375 31.390625 
Q 18.109375 20.125 21.3125 9.0625 
Q 24.515625 -2 31 -13.1875 
L 23.1875 -13.1875 
Q 15.875 -1.703125 12.234375 9.375 
Q 8.59375 20.453125 8.59375 31.390625 
Q 8.59375 42.28125 12.203125 53.3125 
Q 15.828125 64.359375 23.1875 75.875 
z
" id="DejaVuSans-28"/>
      <path d="M 53.515625 70.515625 
L 53.515625 60.890625 
Q 47.90625 63.578125 42.921875 64.890625 
Q 37.9375 66.21875 33.296875 66.21875 
Q 25.25 66.21875 20.875 63.09375 
Q 16.5 59.96875 16.5 54.203125 
Q 16.5 49.359375 19.40625 46.890625 
Q 22.3125 44.4375 30.421875 42.921875 
L 36.375 41.703125 
Q 47.40625 39.59375 52.65625 34.296875 
Q 57.90625 29 57.90625 20.125 
Q 57.90625 9.515625 50.796875 4.046875 
Q 43.703125 -1.421875 29.984375 -1.421875 
Q 24.8125 -1.421875 18.96875 -0.25 
Q 13.140625 0.921875 6.890625 3.21875 
L 6.890625 13.375 
Q 12.890625 10.015625 18.65625 8.296875 
Q 24.421875 6.59375 29.984375 6.59375 
Q 38.421875 6.59375 43.015625 9.90625 
Q 47.609375 13.234375 47.609375 19.390625 
Q 47.609375 24.75 44.3125 27.78125 
Q 41.015625 30.8125 33.5 32.328125 
L 27.484375 33.5 
Q 16.453125 35.6875 11.515625 40.375 
Q 6.59375 45.0625 6.59375 53.421875 
Q 6.59375 63.09375 13.40625 68.65625 
Q 20.21875 74.21875 32.171875 74.21875 
Q 37.3125 74.21875 42.625 73.28125 
Q 47.953125 72.359375 53.515625 70.515625 
z
" id="DejaVuSans-53"/>
      <path d="M 48.78125 52.59375 
L 48.78125 44.1875 
Q 44.96875 46.296875 41.140625 47.34375 
Q 37.3125 48.390625 33.40625 48.390625 
Q 24.65625 48.390625 19.8125 42.84375 
Q 14.984375 37.3125 14.984375 27.296875 
Q 14.984375 17.28125 19.8125 11.734375 
Q 24.65625 6.203125 33.40625 6.203125 
Q 37.3125 6.203125 41.140625 7.25 
Q 44.96875 8.296875 48.78125 10.40625 
L 48.78125 2.09375 
Q 45.015625 0.34375 40.984375 -0.53125 
Q 36.96875 -1.421875 32.421875 -1.421875 
Q 20.0625 -1.421875 12.78125 6.34375 
Q 5.515625 14.109375 5.515625 27.296875 
Q 5.515625 40.671875 12.859375 48.328125 
Q 20.21875 56 33.015625 56 
Q 37.15625 56 41.109375 55.140625 
Q 45.0625 54.296875 48.78125 52.59375 
z
" id="DejaVuSans-63"/>
      <path d="M 8.015625 75.875 
L 15.828125 75.875 
Q 23.140625 64.359375 26.78125 53.3125 
Q 30.421875 42.28125 30.421875 31.390625 
Q 30.421875 20.453125 26.78125 9.375 
Q 23.140625 -1.703125 15.828125 -13.1875 
L 8.015625 -13.1875 
Q 14.5 -2 17.703125 9.0625 
Q 20.90625 20.125 20.90625 31.390625 
Q 20.90625 42.671875 17.703125 53.65625 
Q 14.5 64.65625 8.015625 75.875 
z
" id="DejaVuSans-29"/>
     </defs>
     <g transform="translate(209.281875 335.860562)scale(0.1 -0.1)">
      <use xlink:href="#DejaVuSans-54"/>
      <use x="61.037109" xlink:href="#DejaVuSans-69"/>
      <use x="88.820312" xlink:href="#DejaVuSans-6d"/>
      <use x="186.232422" xlink:href="#DejaVuSans-65"/>
      <use x="247.755859" xlink:href="#DejaVuSans-20"/>
      <use x="279.542969" xlink:href="#DejaVuSans-28"/>
      <use x="318.556641" xlink:href="#DejaVuSans-53"/>
      <use x="382.033203" xlink:href="#DejaVuSans-65"/>
      <use x="443.556641" xlink:href="#DejaVuSans-63"/>
      <use x="498.537109" xlink:href="#DejaVuSans-29"/>
     </g>
    </g>
   </g>
   <g id="matplotlib.axis_4">
    <g id="ytick_6">
     <g id="line2d_25">
      <g>
       <use style="stroke:#000000;stroke-width:0.8;" x="57.6" xlink:href="#m013074fae0" y="290.29312"/>
      </g>
     </g>
     <g id="text_25">
      <!-- −20 -->
      <g transform="translate(29.495313 294.092338)scale(0.1 -0.1)">
       <use xlink:href="#DejaVuSans-2212"/>
       <use x="83.789062" xlink:href="#DejaVuSans-32"/>
       <use x="147.412109" xlink:href="#DejaVuSans-30"/>
      </g>
     </g>
    </g>
    <g id="ytick_7">
     <g id="line2d_26">
      <g>
       <use style="stroke:#000000;stroke-width:0.8;" x="57.6" xlink:href="#m013074fae0" y="265.319796"/>
      </g>
     </g>
     <g id="text_26">
      <!-- −10 -->
      <g transform="translate(29.495313 269.119015)scale(0.1 -0.1)">
       <use xlink:href="#DejaVuSans-2212"/>
       <use x="83.789062" xlink:href="#DejaVuSans-31"/>
       <use x="147.412109" xlink:href="#DejaVuSans-30"/>
      </g>
     </g>
    </g>
    <g id="ytick_8">
     <g id="line2d_27">
      <g>
       <use style="stroke:#000000;stroke-width:0.8;" x="57.6" xlink:href="#m013074fae0" y="240.346472"/>
      </g>
     </g>
     <g id="text_27">
      <!-- 0 -->
      <g transform="translate(44.2375 244.145691)scale(0.1 -0.1)">
       <use xlink:href="#DejaVuSans-30"/>
      </g>
     </g>
    </g>
    <g id="ytick_9">
     <g id="line2d_28">
      <g>
       <use style="stroke:#000000;stroke-width:0.8;" x="57.6" xlink:href="#m013074fae0" y="215.373148"/>
      </g>
     </g>
     <g id="text_28">
      <!-- 10 -->
      <g transform="translate(37.875 219.172367)scale(0.1 -0.1)">
       <use xlink:href="#DejaVuSans-31"/>
       <use x="63.623047" xlink:href="#DejaVuSans-30"/>
      </g>
     </g>
    </g>
    <g id="ytick_10">
     <g id="line2d_29">
      <g>
       <use style="stroke:#000000;stroke-width:0.8;" x="57.6" xlink:href="#m013074fae0" y="190.399824"/>
      </g>
     </g>
     <g id="text_29">
      <!-- 20 -->
      <g transform="translate(37.875 194.199043)scale(0.1 -0.1)">
       <use xlink:href="#DejaVuSans-32"/>
       <use x="63.623047" xlink:href="#DejaVuSans-30"/>
      </g>
     </g>
    </g>
   </g>
   <g id="line2d_30">
    <path clip-path="url(#pdc51a5afa7)" d="M 73.832727 236.989619 
L 75.021938 238.262363 
L 77.40036 241.441318 
L 78.58957 242.687536 
L 79.778781 243.280544 
L 80.967992 243.035707 
L 82.157203 241.943157 
L 83.346414 240.21575 
L 84.535624 238.265674 
L 85.724835 236.588973 
L 86.914046 235.625486 
L 88.103257 235.66028 
L 89.292468 236.771355 
L 90.481678 238.80837 
L 94.049311 246.761274 
L 95.238521 248.775372 
L 96.427732 250.088905 
L 97.616943 250.622273 
L 98.806154 250.348149 
L 99.995365 249.279657 
L 101.184575 247.473419 
L 102.373786 245.032237 
L 105.941419 236.100636 
L 107.130629 233.756026 
L 108.31984 232.308202 
L 109.509051 231.932222 
L 110.698262 232.616219 
L 111.887473 234.131689 
L 114.265894 237.933588 
L 115.455105 239.298518 
L 116.644316 239.867238 
L 117.833526 239.535471 
L 119.022737 238.411569 
L 122.59037 233.485401 
L 123.77958 232.425762 
L 124.968791 231.97492 
L 126.158002 232.139586 
L 127.347213 232.830962 
L 128.536424 233.906169 
L 134.482478 240.298387 
L 135.671688 241.167774 
L 136.860899 241.808228 
L 138.05011 242.226172 
L 139.239321 242.443997 
L 140.428531 242.488807 
L 141.617742 242.384397 
L 143.996164 241.805385 
L 148.753007 240.064054 
L 149.942218 239.963328 
L 151.131429 240.205368 
L 152.320639 240.837891 
L 153.50985 241.833574 
L 155.888272 244.281707 
L 157.077483 245.231038 
L 158.266693 245.674747 
L 159.455904 245.472414 
L 160.645115 244.602603 
L 161.834326 243.17267 
L 165.401958 237.805197 
L 166.591169 236.404227 
L 167.78038 235.41381 
L 168.96959 234.846999 
L 170.158801 234.658049 
L 171.348012 234.766675 
L 172.537223 235.080811 
L 180.861698 238.001016 
L 183.24012 238.510172 
L 185.618541 238.711072 
L 186.807752 238.623049 
L 187.996963 238.388154 
L 189.186174 238.006786 
L 190.375385 237.481662 
L 191.564595 236.810758 
L 192.753806 235.990028 
L 195.132228 233.913862 
L 197.510649 231.354632 
L 199.889071 228.376743 
L 204.645914 221.807721 
L 205.835125 221.230168 
L 207.024336 222.139565 
L 208.213546 225.048255 
L 209.402757 230.201554 
L 210.591968 237.497742 
L 211.781179 246.448133 
L 214.1596 265.978087 
L 215.348811 274.816606 
L 216.538022 282.191628 
L 217.727233 287.762396 
L 218.916444 291.265622 
L 220.105654 292.41385 
L 221.294865 290.946896 
L 222.484076 286.750663 
L 223.673287 279.940841 
L 224.862498 270.921066 
L 228.43013 239.286272 
L 229.619341 230.64691 
L 230.808551 224.200017 
L 231.997762 220.159608 
L 233.186973 218.414725 
L 234.376184 218.629547 
L 235.565395 220.351605 
L 236.754605 223.103877 
L 239.133027 230.047683 
L 242.700659 240.682474 
L 246.268292 250.835071 
L 247.457502 253.907761 
L 248.646713 256.307881 
L 249.835924 257.555349 
L 251.025135 257.255298 
L 252.214346 255.217278 
L 253.403556 251.564611 
L 255.781978 242.058187 
L 256.971189 238.285485 
L 258.1604 236.501245 
L 259.34961 237.295113 
L 260.538821 240.768161 
L 261.728032 246.481958 
L 265.295664 267.535203 
L 266.484875 272.733883 
L 267.674086 276.076388 
L 268.863297 277.318365 
L 270.052507 276.28897 
L 271.241718 272.894028 
L 272.430929 267.171903 
L 273.62014 259.333208 
L 274.809351 249.810745 
L 277.187772 228.911784 
L 278.376983 219.589977 
L 279.566194 212.241467 
L 280.755405 207.386154 
L 281.944615 205.173265 
L 283.133826 205.472156 
L 284.323037 207.987464 
L 285.512248 212.340274 
L 286.701459 218.116195 
L 289.07988 232.26013 
L 291.458302 246.91089 
L 292.647512 253.281676 
L 293.836723 258.544097 
L 295.025934 262.534555 
L 296.215145 265.259033 
L 297.404356 266.873588 
L 298.593566 267.639415 
L 299.782777 267.86064 
L 303.35041 267.785869 
L 304.53962 267.841193 
L 305.728831 267.689599 
L 306.918042 267.006795 
L 308.107253 265.504424 
L 309.296464 263.017739 
L 310.485674 259.544469 
L 311.674885 255.24796 
L 316.431728 235.965461 
L 317.620939 231.922742 
L 318.81015 228.381997 
L 321.188571 222.380598 
L 325.945415 211.2506 
L 327.134625 208.957126 
L 328.323836 207.529203 
L 329.513047 207.325056 
L 330.702258 208.535972 
L 331.891469 211.154285 
L 333.080679 214.995841 
L 334.26989 219.757232 
L 340.215944 246.368153 
L 342.594366 254.99295 
L 344.972787 262.170016 
L 347.351209 268.184752 
L 348.54042 270.651188 
L 349.72963 272.59734 
L 350.918841 273.918237 
L 352.108052 274.569851 
L 353.297263 274.555572 
L 354.486474 273.865852 
L 355.675684 272.443464 
L 356.864895 270.210797 
L 358.054106 267.124078 
L 359.243317 263.211571 
L 360.432527 258.583147 
L 362.810949 247.938931 
L 366.378581 231.687564 
L 368.757003 222.357019 
L 369.946214 218.367048 
L 371.135425 214.885113 
L 372.324635 211.921225 
L 373.513846 209.452714 
L 374.703057 207.462668 
L 375.892268 206.020082 
L 377.081479 205.308542 
L 378.270689 205.561179 
L 379.4599 206.959971 
L 380.649111 209.564572 
L 381.838322 213.28482 
L 383.027532 217.884631 
L 387.784376 238.187695 
L 388.973586 242.382102 
L 391.352008 249.448377 
L 393.73043 256.160447 
L 396.108851 263.964067 
L 398.487273 272.107017 
L 398.487273 272.107017 
" style="fill:none;stroke:#ff0000;stroke-linecap:square;stroke-width:2;"/>
   </g>
   <g id="line2d_31">
    <path clip-path="url(#pdc51a5afa7)" d="M 73.832727 241.039711 
L 75.021938 235.835682 
L 76.211149 250.436668 
L 77.40036 245.51068 
L 78.58957 239.344558 
L 79.778781 259.700988 
L 80.967992 233.096387 
L 82.157203 240.213786 
L 83.346414 235.63136 
L 84.535624 238.070087 
L 85.724835 228.35296 
L 86.914046 235.960173 
L 88.103257 228.715015 
L 89.292468 253.340875 
L 90.481678 234.79439 
L 91.670889 239.944237 
L 92.8601 260.078608 
L 94.049311 250.169642 
L 95.238521 229.670233 
L 96.427732 261.89055 
L 97.616943 247.101667 
L 98.806154 249.156931 
L 99.995365 233.524582 
L 101.184575 240.865232 
L 102.373786 255.409702 
L 103.562997 250.892656 
L 104.752208 246.979941 
L 105.941419 227.60531 
L 107.130629 250.231272 
L 108.31984 225.809538 
L 109.509051 213.392494 
L 110.698262 238.186918 
L 111.887473 236.944424 
L 113.076683 231.289551 
L 114.265894 238.586008 
L 115.455105 246.709812 
L 116.644316 243.362314 
L 117.833526 230.008619 
L 119.022737 247.634118 
L 120.211948 232.905264 
L 121.401159 228.414096 
L 122.59037 234.006934 
L 123.77958 231.742411 
L 124.968791 238.21858 
L 126.158002 232.00358 
L 127.347213 230.152058 
L 128.536424 232.600929 
L 129.725634 237.552799 
L 130.914845 246.806712 
L 132.104056 240.442311 
L 133.293267 219.869864 
L 134.482478 238.320386 
L 135.671688 240.583768 
L 136.860899 246.554198 
L 138.05011 251.735086 
L 139.239321 243.651029 
L 140.428531 252.170001 
L 141.617742 228.802221 
L 142.806953 223.537821 
L 143.996164 242.204702 
L 145.185375 255.204467 
L 146.374585 262.855958 
L 147.563796 223.209285 
L 148.753007 237.318257 
L 149.942218 242.682365 
L 151.131429 229.522442 
L 152.320639 246.437028 
L 153.50985 239.719679 
L 154.699061 251.079586 
L 155.888272 244.051501 
L 157.077483 240.17138 
L 158.266693 261.558853 
L 159.455904 230.352978 
L 160.645115 236.008406 
L 161.834326 249.130394 
L 163.023536 244.195155 
L 164.212747 247.217525 
L 165.401958 224.89955 
L 166.591169 246.212678 
L 167.78038 236.779627 
L 168.96959 236.298302 
L 170.158801 227.555891 
L 171.348012 234.823882 
L 172.537223 227.180955 
L 173.726434 233.548015 
L 174.915644 235.940201 
L 176.104855 262.45745 
L 177.294066 228.339264 
L 178.483277 242.918716 
L 179.672488 231.53791 
L 180.861698 218.424439 
L 182.050909 240.516624 
L 183.24012 230.220939 
L 184.429331 267.250374 
L 185.618541 237.387509 
L 186.807752 243.227648 
L 187.996963 236.555355 
L 189.186174 223.822808 
L 190.375385 235.935884 
L 191.564595 233.855189 
L 192.753806 250.054942 
L 193.943017 215.032065 
L 195.132228 246.711857 
L 196.321439 235.294762 
L 197.510649 234.341163 
L 199.889071 223.776894 
L 201.078282 224.761088 
L 202.267493 228.034549 
L 203.456703 231.846442 
L 204.645914 216.314015 
L 205.835125 204.864249 
L 207.024336 225.579046 
L 208.213546 243.334362 
L 209.402757 233.453864 
L 210.591968 227.57764 
L 211.781179 241.24642 
L 212.97039 239.699682 
L 214.1596 278.681493 
L 215.348811 283.847854 
L 216.538022 302.208 
L 217.727233 276.357982 
L 218.916444 288.565931 
L 220.105654 275.762947 
L 222.484076 296.422925 
L 223.673287 276.21653 
L 224.862498 269.298495 
L 226.051708 269.999061 
L 227.240919 263.549147 
L 228.43013 240.924979 
L 229.619341 212.438691 
L 230.808551 234.06983 
L 231.997762 200.865722 
L 233.186973 231.008173 
L 234.376184 205.054194 
L 235.565395 233.16009 
L 236.754605 227.020893 
L 237.943816 226.357362 
L 239.133027 227.110976 
L 240.322238 243.643942 
L 241.511449 227.618172 
L 242.700659 226.806724 
L 243.88987 266.171416 
L 245.079081 224.293599 
L 246.268292 255.628189 
L 247.457502 260.780995 
L 248.646713 256.982475 
L 249.835924 266.570176 
L 251.025135 257.953099 
L 252.214346 255.92325 
L 253.403556 246.963389 
L 255.781978 239.572223 
L 256.971189 234.027139 
L 258.1604 231.736938 
L 259.34961 238.993998 
L 260.538821 241.137345 
L 261.728032 258.089024 
L 262.917243 262.74555 
L 264.106454 254.61229 
L 265.295664 259.364947 
L 266.484875 286.893615 
L 267.674086 260.14572 
L 268.863297 280.991858 
L 270.052507 281.809409 
L 271.241718 263.997499 
L 272.430929 253.239667 
L 273.62014 271.328591 
L 274.809351 265.205722 
L 275.998561 234.149053 
L 277.187772 224.974791 
L 278.376983 213.013191 
L 279.566194 221.388227 
L 281.944615 201.315634 
L 283.133826 198.305789 
L 284.323037 212.343769 
L 285.512248 218.49198 
L 286.701459 206.21177 
L 287.890669 222.316813 
L 289.07988 236.098192 
L 290.269091 245.284301 
L 291.458302 250.147899 
L 292.647512 244.139492 
L 293.836723 278.965547 
L 295.025934 247.19629 
L 296.215145 265.845963 
L 297.404356 263.543596 
L 298.593566 263.012953 
L 299.782777 278.638153 
L 300.971988 268.548997 
L 302.161199 249.374575 
L 303.35041 281.644033 
L 304.53962 264.68948 
L 305.728831 281.52644 
L 306.918042 258.733892 
L 308.107253 259.62034 
L 309.296464 272.399261 
L 310.485674 253.24425 
L 311.674885 255.991516 
L 312.864096 248.513756 
L 314.053307 235.522158 
L 315.242517 247.594215 
L 316.431728 239.671348 
L 317.620939 246.874676 
L 318.81015 225.331642 
L 319.999361 219.782159 
L 321.188571 208.691747 
L 322.377782 228.529656 
L 323.566993 197.714247 
L 324.756204 215.723194 
L 325.945415 224.659291 
L 327.134625 224.303262 
L 328.323836 201.550092 
L 329.513047 215.163298 
L 330.702258 206.473892 
L 331.891469 198.669912 
L 333.080679 212.291311 
L 334.26989 220.31897 
L 335.459101 216.617206 
L 336.648312 229.795547 
L 337.837522 248.647896 
L 339.026733 241.064737 
L 340.215944 245.359477 
L 342.594366 265.666387 
L 343.783576 241.685393 
L 344.972787 264.595115 
L 346.161998 267.461037 
L 347.351209 254.008545 
L 348.54042 281.777772 
L 349.72963 276.034527 
L 350.918841 277.00108 
L 352.108052 268.186298 
L 353.297263 274.131989 
L 354.486474 267.15482 
L 355.675684 284.759676 
L 356.864895 273.127511 
L 358.054106 267.308474 
L 359.243317 250.685978 
L 360.432527 247.352282 
L 361.621738 259.772465 
L 362.810949 260.07159 
L 364.00016 257.031329 
L 365.189371 230.150343 
L 367.567792 217.392179 
L 368.757003 229.510485 
L 369.946214 207.126239 
L 371.135425 215.013367 
L 372.324635 236.490916 
L 373.513846 194.688 
L 374.703057 213.871606 
L 375.892268 209.123437 
L 377.081479 199.286692 
L 378.270689 196.039137 
L 379.4599 209.968747 
L 380.649111 213.956091 
L 381.838322 206.71293 
L 383.027532 209.519502 
L 384.216743 242.429267 
L 385.405954 233.936676 
L 386.595165 238.747202 
L 387.784376 230.788952 
L 388.973586 233.243226 
L 390.162797 240.079529 
L 391.352008 249.837144 
L 392.541219 253.554821 
L 393.73043 265.106353 
L 394.91964 248.510765 
L 396.108851 282.368925 
L 397.298062 258.890656 
L 398.487273 273.0825 
L 398.487273 273.0825 
" style="fill:none;stroke:#0000ff;stroke-linecap:square;stroke-width:2;"/>
   </g>
   <g id="patch_8">
    <path d="M 57.6 307.584 
L 57.6 189.312 
" style="fill:none;stroke:#000000;stroke-linecap:square;stroke-linejoin:miter;stroke-width:0.8;"/>
   </g>
   <g id="patch_9">
    <path d="M 414.72 307.584 
L 414.72 189.312 
" style="fill:none;stroke:#000000;stroke-linecap:square;stroke-linejoin:miter;stroke-width:0.8;"/>
   </g>
   <g id="patch_10">
    <path d="M 57.6 307.584 
L 414.72 307.584 
" style="fill:none;stroke:#000000;stroke-linecap:square;stroke-linejoin:miter;stroke-width:0.8;"/>
   </g>
   <g id="patch_11">
    <path d="M 57.6 189.312 
L 414.72 189.312 
" style="fill:none;stroke:#000000;stroke-linecap:square;stroke-linejoin:miter;stroke-width:0.8;"/>
   </g>
   <g id="text_30">
    <!-- BOLD signal -->
    <defs>
     <path d="M 19.671875 34.8125 
L 19.671875 8.109375 
L 35.5 8.109375 
Q 43.453125 8.109375 47.28125 11.40625 
Q 51.125 14.703125 51.125 21.484375 
Q 51.125 28.328125 47.28125 31.5625 
Q 43.453125 34.8125 35.5 34.8125 
z
M 19.671875 64.796875 
L 19.671875 42.828125 
L 34.28125 42.828125 
Q 41.5 42.828125 45.03125 45.53125 
Q 48.578125 48.25 48.578125 53.8125 
Q 48.578125 59.328125 45.03125 62.0625 
Q 41.5 64.796875 34.28125 64.796875 
z
M 9.8125 72.90625 
L 35.015625 72.90625 
Q 46.296875 72.90625 52.390625 68.21875 
Q 58.5 63.53125 58.5 54.890625 
Q 58.5 48.1875 55.375 44.234375 
Q 52.25 40.28125 46.1875 39.3125 
Q 53.46875 37.75 57.5 32.78125 
Q 61.53125 27.828125 61.53125 20.40625 
Q 61.53125 10.640625 54.890625 5.3125 
Q 48.25 0 35.984375 0 
L 9.8125 0 
z
" id="DejaVuSans-42"/>
     <path d="M 39.40625 66.21875 
Q 28.65625 66.21875 22.328125 58.203125 
Q 16.015625 50.203125 16.015625 36.375 
Q 16.015625 22.609375 22.328125 14.59375 
Q 28.65625 6.59375 39.40625 6.59375 
Q 50.140625 6.59375 56.421875 14.59375 
Q 62.703125 22.609375 62.703125 36.375 
Q 62.703125 50.203125 56.421875 58.203125 
Q 50.140625 66.21875 39.40625 66.21875 
z
M 39.40625 74.21875 
Q 54.734375 74.21875 63.90625 63.9375 
Q 73.09375 53.65625 73.09375 36.375 
Q 73.09375 19.140625 63.90625 8.859375 
Q 54.734375 -1.421875 39.40625 -1.421875 
Q 24.03125 -1.421875 14.8125 8.828125 
Q 5.609375 19.09375 5.609375 36.375 
Q 5.609375 53.65625 14.8125 63.9375 
Q 24.03125 74.21875 39.40625 74.21875 
z
" id="DejaVuSans-4f"/>
     <path d="M 9.8125 72.90625 
L 19.671875 72.90625 
L 19.671875 8.296875 
L 55.171875 8.296875 
L 55.171875 0 
L 9.8125 0 
z
" id="DejaVuSans-4c"/>
     <path d="M 19.671875 64.796875 
L 19.671875 8.109375 
L 31.59375 8.109375 
Q 46.6875 8.109375 53.6875 14.9375 
Q 60.6875 21.78125 60.6875 36.53125 
Q 60.6875 51.171875 53.6875 57.984375 
Q 46.6875 64.796875 31.59375 64.796875 
z
M 9.8125 72.90625 
L 30.078125 72.90625 
Q 51.265625 72.90625 61.171875 64.09375 
Q 71.09375 55.28125 71.09375 36.53125 
Q 71.09375 17.671875 61.125 8.828125 
Q 51.171875 0 30.078125 0 
L 9.8125 0 
z
" id="DejaVuSans-44"/>
     <path d="M 44.28125 53.078125 
L 44.28125 44.578125 
Q 40.484375 46.53125 36.375 47.5 
Q 32.28125 48.484375 27.875 48.484375 
Q 21.1875 48.484375 17.84375 46.4375 
Q 14.5 44.390625 14.5 40.28125 
Q 14.5 37.15625 16.890625 35.375 
Q 19.28125 33.59375 26.515625 31.984375 
L 29.59375 31.296875 
Q 39.15625 29.25 43.1875 25.515625 
Q 47.21875 21.78125 47.21875 15.09375 
Q 47.21875 7.46875 41.1875 3.015625 
Q 35.15625 -1.421875 24.609375 -1.421875 
Q 20.21875 -1.421875 15.453125 -0.5625 
Q 10.6875 0.296875 5.421875 2 
L 5.421875 11.28125 
Q 10.40625 8.6875 15.234375 7.390625 
Q 20.0625 6.109375 24.8125 6.109375 
Q 31.15625 6.109375 34.5625 8.28125 
Q 37.984375 10.453125 37.984375 14.40625 
Q 37.984375 18.0625 35.515625 20.015625 
Q 33.0625 21.96875 24.703125 23.78125 
L 21.578125 24.515625 
Q 13.234375 26.265625 9.515625 29.90625 
Q 5.8125 33.546875 5.8125 39.890625 
Q 5.8125 47.609375 11.28125 51.796875 
Q 16.75 56 26.8125 56 
Q 31.78125 56 36.171875 55.265625 
Q 40.578125 54.546875 44.28125 53.078125 
z
" id="DejaVuSans-73"/>
     <path d="M 45.40625 27.984375 
Q 45.40625 37.75 41.375 43.109375 
Q 37.359375 48.484375 30.078125 48.484375 
Q 22.859375 48.484375 18.828125 43.109375 
Q 14.796875 37.75 14.796875 27.984375 
Q 14.796875 18.265625 18.828125 12.890625 
Q 22.859375 7.515625 30.078125 7.515625 
Q 37.359375 7.515625 41.375 12.890625 
Q 45.40625 18.265625 45.40625 27.984375 
z
M 54.390625 6.78125 
Q 54.390625 -7.171875 48.1875 -13.984375 
Q 42 -20.796875 29.203125 -20.796875 
Q 24.46875 -20.796875 20.265625 -20.09375 
Q 16.0625 -19.390625 12.109375 -17.921875 
L 12.109375 -9.1875 
Q 16.0625 -11.328125 19.921875 -12.34375 
Q 23.78125 -13.375 27.78125 -13.375 
Q 36.625 -13.375 41.015625 -8.765625 
Q 45.40625 -4.15625 45.40625 5.171875 
L 45.40625 9.625 
Q 42.625 4.78125 38.28125 2.390625 
Q 33.9375 0 27.875 0 
Q 17.828125 0 11.671875 7.65625 
Q 5.515625 15.328125 5.515625 27.984375 
Q 5.515625 40.671875 11.671875 48.328125 
Q 17.828125 56 27.875 56 
Q 33.9375 56 38.28125 53.609375 
Q 42.625 51.21875 45.40625 46.390625 
L 45.40625 54.6875 
L 54.390625 54.6875 
z
" id="DejaVuSans-67"/>
     <path d="M 54.890625 33.015625 
L 54.890625 0 
L 45.90625 0 
L 45.90625 32.71875 
Q 45.90625 40.484375 42.875 44.328125 
Q 39.84375 48.1875 33.796875 48.1875 
Q 26.515625 48.1875 22.3125 43.546875 
Q 18.109375 38.921875 18.109375 30.90625 
L 18.109375 0 
L 9.078125 0 
L 9.078125 54.6875 
L 18.109375 54.6875 
L 18.109375 46.1875 
Q 21.34375 51.125 25.703125 53.5625 
Q 30.078125 56 35.796875 56 
Q 45.21875 56 50.046875 50.171875 
Q 54.890625 44.34375 54.890625 33.015625 
z
" id="DejaVuSans-6e"/>
     <path d="M 34.28125 27.484375 
Q 23.390625 27.484375 19.1875 25 
Q 14.984375 22.515625 14.984375 16.5 
Q 14.984375 11.71875 18.140625 8.90625 
Q 21.296875 6.109375 26.703125 6.109375 
Q 34.1875 6.109375 38.703125 11.40625 
Q 43.21875 16.703125 43.21875 25.484375 
L 43.21875 27.484375 
z
M 52.203125 31.203125 
L 52.203125 0 
L 43.21875 0 
L 43.21875 8.296875 
Q 40.140625 3.328125 35.546875 0.953125 
Q 30.953125 -1.421875 24.3125 -1.421875 
Q 15.921875 -1.421875 10.953125 3.296875 
Q 6 8.015625 6 15.921875 
Q 6 25.140625 12.171875 29.828125 
Q 18.359375 34.515625 30.609375 34.515625 
L 43.21875 34.515625 
L 43.21875 35.40625 
Q 43.21875 41.609375 39.140625 45 
Q 35.0625 48.390625 27.6875 48.390625 
Q 23 48.390625 18.546875 47.265625 
Q 14.109375 46.140625 10.015625 43.890625 
L 10.015625 52.203125 
Q 14.9375 54.109375 19.578125 55.046875 
Q 24.21875 56 28.609375 56 
Q 40.484375 56 46.34375 49.84375 
Q 52.203125 43.703125 52.203125 31.203125 
z
" id="DejaVuSans-61"/>
     <path d="M 9.421875 75.984375 
L 18.40625 75.984375 
L 18.40625 0 
L 9.421875 0 
z
" id="DejaVuSans-6c"/>
    </defs>
    <g transform="translate(199.703438 183.312)scale(0.12 -0.12)">
     <use xlink:href="#DejaVuSans-42"/>
     <use x="68.587891" xlink:href="#DejaVuSans-4f"/>
     <use x="147.298828" xlink:href="#DejaVuSans-4c"/>
     <use x="203.011719" xlink:href="#DejaVuSans-44"/>
     <use x="280.013672" xlink:href="#DejaVuSans-20"/>
     <use x="311.800781" xlink:href="#DejaVuSans-73"/>
     <use x="363.900391" xlink:href="#DejaVuSans-69"/>
     <use x="391.683594" xlink:href="#DejaVuSans-67"/>
     <use x="455.160156" xlink:href="#DejaVuSans-6e"/>
     <use x="518.539062" xlink:href="#DejaVuSans-61"/>
     <use x="579.818359" xlink:href="#DejaVuSans-6c"/>
    </g>
   </g>
  </g>
 </g>
 <defs>
  <clipPath id="p8b0390bd0d">
   <rect height="118.272" width="357.12" x="57.6" y="41.472"/>
  </clipPath>
  <clipPath id="pdc51a5afa7">
   <rect height="118.272" width="357.12" x="57.6" y="189.312"/>
  </clipPath>
 </defs>
</svg>
