<?xml version="1.0" encoding="utf-8" standalone="no"?>
<!DOCTYPE svg PUBLIC "-//W3C//DTD SVG 1.1//EN"
  "http://www.w3.org/Graphics/SVG/1.1/DTD/svg11.dtd">
<!-- Created with matplotlib (http://matplotlib.org/) -->
<svg height="345pt" version="1.1" viewBox="0 0 460 345" width="460pt" xmlns="http://www.w3.org/2000/svg" xmlns:xlink="http://www.w3.org/1999/xlink">
 <defs>
  <style type="text/css">
*{stroke-linecap:butt;stroke-linejoin:round;}
  </style>
 </defs>
 <g id="figure_1">
  <g id="patch_1">
   <path d="M 0 345.6 
L 460.8 345.6 
L 460.8 0 
L 0 0 
z
" style="fill:#ffffff;"/>
  </g>
  <g id="axes_1">
   <g id="patch_2">
    <path d="M 57.6 159.744 
L 414.72 159.744 
L 414.72 41.472 
L 57.6 41.472 
z
" style="fill:#ffffff;"/>
   </g>
   <g id="matplotlib.axis_1">
    <g id="xtick_1">
     <g id="line2d_1">
      <defs>
       <path d="M 0 0 
L 0 3.5 
" id="m57e34588eb" style="stroke:#000000;stroke-width:0.8;"/>
      </defs>
      <g>
       <use style="stroke:#000000;stroke-width:0.8;" x="57.183776" xlink:href="#m57e34588eb" y="159.744"/>
      </g>
     </g>
     <g id="text_1">
      <!-- 0 -->
      <defs>
       <path d="M 31.78125 66.40625 
Q 24.171875 66.40625 20.328125 58.90625 
Q 16.5 51.421875 16.5 36.375 
Q 16.5 21.390625 20.328125 13.890625 
Q 24.171875 6.390625 31.78125 6.390625 
Q 39.453125 6.390625 43.28125 13.890625 
Q 47.125 21.390625 47.125 36.375 
Q 47.125 51.421875 43.28125 58.90625 
Q 39.453125 66.40625 31.78125 66.40625 
M 31.78125 74.21875 
Q 44.046875 74.21875 50.515625 64.515625 
Q 56.984375 54.828125 56.984375 36.375 
Q 56.984375 17.96875 50.515625 8.265625 
Q 44.046875 -1.421875 31.78125 -1.421875 
Q 19.53125 -1.421875 13.0625 8.265625 
Q 6.59375 17.96875 6.59375 36.375 
Q 6.59375 54.828125 13.0625 64.515625 
Q 19.53125 74.21875 31.78125 74.21875 
" id="DejaVuSans-30"/>
      </defs>
      <g transform="translate(54.002526 174.342437)scale(0.1 -0.1)">
       <use xlink:href="#DejaVuSans-30"/>
      </g>
     </g>
    </g>
    <g id="xtick_2">
     <g id="line2d_2">
      <g>
       <use style="stroke:#000000;stroke-width:0.8;" x="98.475818" xlink:href="#m57e34588eb" y="159.744"/>
      </g>
     </g>
     <g id="text_2">
      <!-- 25 -->
      <defs>
       <path d="M 19.1875 8.296875 
L 53.609375 8.296875 
L 53.609375 0 
L 7.328125 0 
L 7.328125 8.296875 
Q 12.9375 14.109375 22.625 23.890625 
Q 32.328125 33.6875 34.8125 36.53125 
Q 39.546875 41.84375 41.421875 45.53125 
Q 43.3125 49.21875 43.3125 52.78125 
Q 43.3125 58.59375 39.234375 62.25 
Q 35.15625 65.921875 28.609375 65.921875 
Q 23.96875 65.921875 18.8125 64.3125 
Q 13.671875 62.703125 7.8125 59.421875 
L 7.8125 69.390625 
Q 13.765625 71.78125 18.9375 73 
Q 24.125 74.21875 28.421875 74.21875 
Q 39.75 74.21875 46.484375 68.546875 
Q 53.21875 62.890625 53.21875 53.421875 
Q 53.21875 48.921875 51.53125 44.890625 
Q 49.859375 40.875 45.40625 35.40625 
Q 44.1875 33.984375 37.640625 27.21875 
Q 31.109375 20.453125 19.1875 8.296875 
" id="DejaVuSans-32"/>
       <path d="M 10.796875 72.90625 
L 49.515625 72.90625 
L 49.515625 64.59375 
L 19.828125 64.59375 
L 19.828125 46.734375 
Q 21.96875 47.46875 24.109375 47.828125 
Q 26.265625 48.1875 28.421875 48.1875 
Q 40.625 48.1875 47.75 41.5 
Q 54.890625 34.8125 54.890625 23.390625 
Q 54.890625 11.625 47.5625 5.09375 
Q 40.234375 -1.421875 26.90625 -1.421875 
Q 22.3125 -1.421875 17.546875 -0.640625 
Q 12.796875 0.140625 7.71875 1.703125 
L 7.71875 11.625 
Q 12.109375 9.234375 16.796875 8.0625 
Q 21.484375 6.890625 26.703125 6.890625 
Q 35.15625 6.890625 40.078125 11.328125 
Q 45.015625 15.765625 45.015625 23.390625 
Q 45.015625 31 40.078125 35.4375 
Q 35.15625 39.890625 26.703125 39.890625 
Q 22.75 39.890625 18.8125 39.015625 
Q 14.890625 38.140625 10.796875 36.28125 
z
" id="DejaVuSans-35"/>
      </defs>
      <g transform="translate(92.113318 174.342437)scale(0.1 -0.1)">
       <use xlink:href="#DejaVuSans-32"/>
       <use x="63.623047" xlink:href="#DejaVuSans-35"/>
      </g>
     </g>
    </g>
    <g id="xtick_3">
     <g id="line2d_3">
      <g>
       <use style="stroke:#000000;stroke-width:0.8;" x="139.767859" xlink:href="#m57e34588eb" y="159.744"/>
      </g>
     </g>
     <g id="text_3">
      <!-- 50 -->
      <g transform="translate(133.405359 174.342437)scale(0.1 -0.1)">
       <use xlink:href="#DejaVuSans-35"/>
       <use x="63.623047" xlink:href="#DejaVuSans-30"/>
      </g>
     </g>
    </g>
    <g id="xtick_4">
     <g id="line2d_4">
      <g>
       <use style="stroke:#000000;stroke-width:0.8;" x="181.0599" xlink:href="#m57e34588eb" y="159.744"/>
      </g>
     </g>
     <g id="text_4">
      <!-- 75 -->
      <defs>
       <path d="M 8.203125 72.90625 
L 55.078125 72.90625 
L 55.078125 68.703125 
L 28.609375 0 
L 18.3125 0 
L 43.21875 64.59375 
L 8.203125 64.59375 
z
" id="DejaVuSans-37"/>
      </defs>
      <g transform="translate(174.6974 174.342437)scale(0.1 -0.1)">
       <use xlink:href="#DejaVuSans-37"/>
       <use x="63.623047" xlink:href="#DejaVuSans-35"/>
      </g>
     </g>
    </g>
    <g id="xtick_5">
     <g id="line2d_5">
      <g>
       <use style="stroke:#000000;stroke-width:0.8;" x="222.351941" xlink:href="#m57e34588eb" y="159.744"/>
      </g>
     </g>
     <g id="text_5">
      <!-- 100 -->
      <defs>
       <path d="M 12.40625 8.296875 
L 28.515625 8.296875 
L 28.515625 63.921875 
L 10.984375 60.40625 
L 10.984375 69.390625 
L 28.421875 72.90625 
L 38.28125 72.90625 
L 38.28125 8.296875 
L 54.390625 8.296875 
L 54.390625 0 
L 12.40625 0 
z
" id="DejaVuSans-31"/>
      </defs>
      <g transform="translate(212.808191 174.342437)scale(0.1 -0.1)">
       <use xlink:href="#DejaVuSans-31"/>
       <use x="63.623047" xlink:href="#DejaVuSans-30"/>
       <use x="127.246094" xlink:href="#DejaVuSans-30"/>
      </g>
     </g>
    </g>
    <g id="xtick_6">
     <g id="line2d_6">
      <g>
       <use style="stroke:#000000;stroke-width:0.8;" x="263.643983" xlink:href="#m57e34588eb" y="159.744"/>
      </g>
     </g>
     <g id="text_6">
      <!-- 125 -->
      <g transform="translate(254.100233 174.342437)scale(0.1 -0.1)">
       <use xlink:href="#DejaVuSans-31"/>
       <use x="63.623047" xlink:href="#DejaVuSans-32"/>
       <use x="127.246094" xlink:href="#DejaVuSans-35"/>
      </g>
     </g>
    </g>
    <g id="xtick_7">
     <g id="line2d_7">
      <g>
       <use style="stroke:#000000;stroke-width:0.8;" x="304.936024" xlink:href="#m57e34588eb" y="159.744"/>
      </g>
     </g>
     <g id="text_7">
      <!-- 150 -->
      <g transform="translate(295.392274 174.342437)scale(0.1 -0.1)">
       <use xlink:href="#DejaVuSans-31"/>
       <use x="63.623047" xlink:href="#DejaVuSans-35"/>
       <use x="127.246094" xlink:href="#DejaVuSans-30"/>
      </g>
     </g>
    </g>
    <g id="xtick_8">
     <g id="line2d_8">
      <g>
       <use style="stroke:#000000;stroke-width:0.8;" x="346.228065" xlink:href="#m57e34588eb" y="159.744"/>
      </g>
     </g>
     <g id="text_8">
      <!-- 175 -->
      <g transform="translate(336.684315 174.342437)scale(0.1 -0.1)">
       <use xlink:href="#DejaVuSans-31"/>
       <use x="63.623047" xlink:href="#DejaVuSans-37"/>
       <use x="127.246094" xlink:href="#DejaVuSans-35"/>
      </g>
     </g>
    </g>
    <g id="xtick_9">
     <g id="line2d_9">
      <g>
       <use style="stroke:#000000;stroke-width:0.8;" x="387.520107" xlink:href="#m57e34588eb" y="159.744"/>
      </g>
     </g>
     <g id="text_9">
      <!-- 200 -->
      <g transform="translate(377.976357 174.342437)scale(0.1 -0.1)">
       <use xlink:href="#DejaVuSans-32"/>
       <use x="63.623047" xlink:href="#DejaVuSans-30"/>
       <use x="127.246094" xlink:href="#DejaVuSans-30"/>
      </g>
     </g>
    </g>
   </g>
   <g id="matplotlib.axis_2">
    <g id="ytick_1">
     <g id="line2d_10">
      <defs>
       <path d="M 0 0 
L -3.5 0 
" id="mcefc73edc3" style="stroke:#000000;stroke-width:0.8;"/>
      </defs>
      <g>
       <use style="stroke:#000000;stroke-width:0.8;" x="57.6" xlink:href="#mcefc73edc3" y="152.925914"/>
      </g>
     </g>
     <g id="text_10">
      <!-- −5.0 -->
      <defs>
       <path d="M 10.59375 35.5 
L 73.1875 35.5 
L 73.1875 27.203125 
L 10.59375 27.203125 
z
" id="DejaVuSans-2212"/>
       <path d="M 10.6875 12.40625 
L 21 12.40625 
L 21 0 
L 10.6875 0 
z
" id="DejaVuSans-2e"/>
      </defs>
      <g transform="translate(26.317187 156.725133)scale(0.1 -0.1)">
       <use xlink:href="#DejaVuSans-2212"/>
       <use x="83.789062" xlink:href="#DejaVuSans-35"/>
       <use x="147.412109" xlink:href="#DejaVuSans-2e"/>
       <use x="179.199219" xlink:href="#DejaVuSans-30"/>
      </g>
     </g>
    </g>
    <g id="ytick_2">
     <g id="line2d_11">
      <g>
       <use style="stroke:#000000;stroke-width:0.8;" x="57.6" xlink:href="#mcefc73edc3" y="126.885653"/>
      </g>
     </g>
     <g id="text_11">
      <!-- −2.5 -->
      <g transform="translate(26.317187 130.684872)scale(0.1 -0.1)">
       <use xlink:href="#DejaVuSans-2212"/>
       <use x="83.789062" xlink:href="#DejaVuSans-32"/>
       <use x="147.412109" xlink:href="#DejaVuSans-2e"/>
       <use x="179.199219" xlink:href="#DejaVuSans-35"/>
      </g>
     </g>
    </g>
    <g id="ytick_3">
     <g id="line2d_12">
      <g>
       <use style="stroke:#000000;stroke-width:0.8;" x="57.6" xlink:href="#mcefc73edc3" y="100.845392"/>
      </g>
     </g>
     <g id="text_12">
      <!-- 0.0 -->
      <g transform="translate(34.696875 104.64461)scale(0.1 -0.1)">
       <use xlink:href="#DejaVuSans-30"/>
       <use x="63.623047" xlink:href="#DejaVuSans-2e"/>
       <use x="95.410156" xlink:href="#DejaVuSans-30"/>
      </g>
     </g>
    </g>
    <g id="ytick_4">
     <g id="line2d_13">
      <g>
       <use style="stroke:#000000;stroke-width:0.8;" x="57.6" xlink:href="#mcefc73edc3" y="74.80513"/>
      </g>
     </g>
     <g id="text_13">
      <!-- 2.5 -->
      <g transform="translate(34.696875 78.604349)scale(0.1 -0.1)">
       <use xlink:href="#DejaVuSans-32"/>
       <use x="63.623047" xlink:href="#DejaVuSans-2e"/>
       <use x="95.410156" xlink:href="#DejaVuSans-35"/>
      </g>
     </g>
    </g>
    <g id="ytick_5">
     <g id="line2d_14">
      <g>
       <use style="stroke:#000000;stroke-width:0.8;" x="57.6" xlink:href="#mcefc73edc3" y="48.764869"/>
      </g>
     </g>
     <g id="text_14">
      <!-- 5.0 -->
      <g transform="translate(34.696875 52.564088)scale(0.1 -0.1)">
       <use xlink:href="#DejaVuSans-35"/>
       <use x="63.623047" xlink:href="#DejaVuSans-2e"/>
       <use x="95.410156" xlink:href="#DejaVuSans-30"/>
      </g>
     </g>
    </g>
   </g>
   <g id="line2d_15">
    <path clip-path="url(#p8431f4e856)" d="M 73.832727 88.430543 
L 78.58957 96.051633 
L 85.724835 94.368397 
L 92.8601 128.287053 
L 99.995365 95.964884 
L 107.130629 115.004223 
L 114.265894 85.080854 
L 121.401159 86.24729 
L 128.536424 112.711653 
L 135.671688 100.090844 
L 142.806953 115.237657 
L 149.942218 109.159365 
L 159.455904 94.191062 
L 164.212747 87.008732 
L 171.348012 91.394258 
L 178.483277 117.355273 
L 185.618541 121.628493 
L 192.753806 99.178285 
L 199.889071 54.439384 
L 207.024336 97.091639 
L 214.1596 109.336594 
L 221.294865 68.392673 
L 228.43013 82.37922 
L 235.565395 103.513459 
L 242.700659 97.532465 
L 249.835924 78.583492 
L 256.971189 88.515362 
L 264.106454 132.111993 
L 271.241718 84.109049 
L 278.376983 87.045673 
L 285.512248 122.237662 
L 292.647512 147.038457 
L 300.971988 106.274701 
L 306.918042 75.378616 
L 314.053307 46.848 
L 321.188571 74.597456 
L 329.513047 120.500745 
L 335.459101 151.052276 
L 342.594366 126.660086 
L 349.72963 81.780521 
L 356.864895 65.668304 
L 364.00016 59.202272 
L 371.135425 121.759272 
L 378.270689 154.368 
L 385.405954 132.214848 
L 392.541219 82.272797 
L 398.487273 60.88886 
L 398.487273 60.88886 
" style="fill:none;stroke:#7e1e9c;stroke-linecap:square;stroke-width:2;"/>
   </g>
   <g id="patch_3">
    <path d="M 57.6 159.744 
L 57.6 41.472 
" style="fill:none;stroke:#000000;stroke-linecap:square;stroke-linejoin:miter;stroke-width:0.8;"/>
   </g>
   <g id="patch_4">
    <path d="M 414.72 159.744 
L 414.72 41.472 
" style="fill:none;stroke:#000000;stroke-linecap:square;stroke-linejoin:miter;stroke-width:0.8;"/>
   </g>
   <g id="patch_5">
    <path d="M 57.6 159.744 
L 414.72 159.744 
" style="fill:none;stroke:#000000;stroke-linecap:square;stroke-linejoin:miter;stroke-width:0.8;"/>
   </g>
   <g id="patch_6">
    <path d="M 57.6 41.472 
L 414.72 41.472 
" style="fill:none;stroke:#000000;stroke-linecap:square;stroke-linejoin:miter;stroke-width:0.8;"/>
   </g>
  </g>
  <g id="axes_2">
   <g id="patch_7">
    <path d="M 57.6 307.584 
L 414.72 307.584 
L 414.72 189.312 
L 57.6 189.312 
z
" style="fill:#ffffff;"/>
   </g>
   <g id="matplotlib.axis_3">
    <g id="xtick_10">
     <g id="line2d_16">
      <g>
       <use style="stroke:#000000;stroke-width:0.8;" x="57.183776" xlink:href="#m57e34588eb" y="307.584"/>
      </g>
     </g>
     <g id="text_15">
      <!-- 0 -->
      <g transform="translate(54.002526 322.182437)scale(0.1 -0.1)">
       <use xlink:href="#DejaVuSans-30"/>
      </g>
     </g>
    </g>
    <g id="xtick_11">
     <g id="line2d_17">
      <g>
       <use style="stroke:#000000;stroke-width:0.8;" x="98.475818" xlink:href="#m57e34588eb" y="307.584"/>
      </g>
     </g>
     <g id="text_16">
      <!-- 25 -->
      <g transform="translate(92.113318 322.182437)scale(0.1 -0.1)">
       <use xlink:href="#DejaVuSans-32"/>
       <use x="63.623047" xlink:href="#DejaVuSans-35"/>
      </g>
     </g>
    </g>
    <g id="xtick_12">
     <g id="line2d_18">
      <g>
       <use style="stroke:#000000;stroke-width:0.8;" x="139.767859" xlink:href="#m57e34588eb" y="307.584"/>
      </g>
     </g>
     <g id="text_17">
      <!-- 50 -->
      <g transform="translate(133.405359 322.182437)scale(0.1 -0.1)">
       <use xlink:href="#DejaVuSans-35"/>
       <use x="63.623047" xlink:href="#DejaVuSans-30"/>
      </g>
     </g>
    </g>
    <g id="xtick_13">
     <g id="line2d_19">
      <g>
       <use style="stroke:#000000;stroke-width:0.8;" x="181.0599" xlink:href="#m57e34588eb" y="307.584"/>
      </g>
     </g>
     <g id="text_18">
      <!-- 75 -->
      <g transform="translate(174.6974 322.182437)scale(0.1 -0.1)">
       <use xlink:href="#DejaVuSans-37"/>
       <use x="63.623047" xlink:href="#DejaVuSans-35"/>
      </g>
     </g>
    </g>
    <g id="xtick_14">
     <g id="line2d_20">
      <g>
       <use style="stroke:#000000;stroke-width:0.8;" x="222.351941" xlink:href="#m57e34588eb" y="307.584"/>
      </g>
     </g>
     <g id="text_19">
      <!-- 100 -->
      <g transform="translate(212.808191 322.182437)scale(0.1 -0.1)">
       <use xlink:href="#DejaVuSans-31"/>
       <use x="63.623047" xlink:href="#DejaVuSans-30"/>
       <use x="127.246094" xlink:href="#DejaVuSans-30"/>
      </g>
     </g>
    </g>
    <g id="xtick_15">
     <g id="line2d_21">
      <g>
       <use style="stroke:#000000;stroke-width:0.8;" x="263.643983" xlink:href="#m57e34588eb" y="307.584"/>
      </g>
     </g>
     <g id="text_20">
      <!-- 125 -->
      <g transform="translate(254.100233 322.182437)scale(0.1 -0.1)">
       <use xlink:href="#DejaVuSans-31"/>
       <use x="63.623047" xlink:href="#DejaVuSans-32"/>
       <use x="127.246094" xlink:href="#DejaVuSans-35"/>
      </g>
     </g>
    </g>
    <g id="xtick_16">
     <g id="line2d_22">
      <g>
       <use style="stroke:#000000;stroke-width:0.8;" x="304.936024" xlink:href="#m57e34588eb" y="307.584"/>
      </g>
     </g>
     <g id="text_21">
      <!-- 150 -->
      <g transform="translate(295.392274 322.182437)scale(0.1 -0.1)">
       <use xlink:href="#DejaVuSans-31"/>
       <use x="63.623047" xlink:href="#DejaVuSans-35"/>
       <use x="127.246094" xlink:href="#DejaVuSans-30"/>
      </g>
     </g>
    </g>
    <g id="xtick_17">
     <g id="line2d_23">
      <g>
       <use style="stroke:#000000;stroke-width:0.8;" x="346.228065" xlink:href="#m57e34588eb" y="307.584"/>
      </g>
     </g>
     <g id="text_22">
      <!-- 175 -->
      <g transform="translate(336.684315 322.182437)scale(0.1 -0.1)">
       <use xlink:href="#DejaVuSans-31"/>
       <use x="63.623047" xlink:href="#DejaVuSans-37"/>
       <use x="127.246094" xlink:href="#DejaVuSans-35"/>
      </g>
     </g>
    </g>
    <g id="xtick_18">
     <g id="line2d_24">
      <g>
       <use style="stroke:#000000;stroke-width:0.8;" x="387.520107" xlink:href="#m57e34588eb" y="307.584"/>
      </g>
     </g>
     <g id="text_23">
      <!-- 200 -->
      <g transform="translate(377.976357 322.182437)scale(0.1 -0.1)">
       <use xlink:href="#DejaVuSans-32"/>
       <use x="63.623047" xlink:href="#DejaVuSans-30"/>
       <use x="127.246094" xlink:href="#DejaVuSans-30"/>
      </g>
     </g>
    </g>
    <g id="text_24">
     <!-- Time (Sec) -->
     <defs>
      <path d="M -0.296875 72.90625 
L 61.375 72.90625 
L 61.375 64.59375 
L 35.5 64.59375 
L 35.5 0 
L 25.59375 0 
L 25.59375 64.59375 
L -0.296875 64.59375 
z
" id="DejaVuSans-54"/>
      <path d="M 9.421875 54.6875 
L 18.40625 54.6875 
L 18.40625 0 
L 9.421875 0 
z
M 9.421875 75.984375 
L 18.40625 75.984375 
L 18.40625 64.59375 
L 9.421875 64.59375 
z
" id="DejaVuSans-69"/>
      <path d="M 52 44.1875 
Q 55.375 50.25 60.0625 53.125 
Q 64.75 56 71.09375 56 
Q 79.640625 56 84.28125 50.015625 
Q 88.921875 44.046875 88.921875 33.015625 
L 88.921875 0 
L 79.890625 0 
L 79.890625 32.71875 
Q 79.890625 40.578125 77.09375 44.375 
Q 74.3125 48.1875 68.609375 48.1875 
Q 61.625 48.1875 57.5625 43.546875 
Q 53.515625 38.921875 53.515625 30.90625 
L 53.515625 0 
L 44.484375 0 
L 44.484375 32.71875 
Q 44.484375 40.625 41.703125 44.40625 
Q 38.921875 48.1875 33.109375 48.1875 
Q 26.21875 48.1875 22.15625 43.53125 
Q 18.109375 38.875 18.109375 30.90625 
L 18.109375 0 
L 9.078125 0 
L 9.078125 54.6875 
L 18.109375 54.6875 
L 18.109375 46.1875 
Q 21.1875 51.21875 25.484375 53.609375 
Q 29.78125 56 35.6875 56 
Q 41.65625 56 45.828125 52.96875 
Q 50 49.953125 52 44.1875 
" id="DejaVuSans-6d"/>
      <path d="M 56.203125 29.59375 
L 56.203125 25.203125 
L 14.890625 25.203125 
Q 15.484375 15.921875 20.484375 11.0625 
Q 25.484375 6.203125 34.421875 6.203125 
Q 39.59375 6.203125 44.453125 7.46875 
Q 49.3125 8.734375 54.109375 11.28125 
L 54.109375 2.78125 
Q 49.265625 0.734375 44.1875 -0.34375 
Q 39.109375 -1.421875 33.890625 -1.421875 
Q 20.796875 -1.421875 13.15625 6.1875 
Q 5.515625 13.8125 5.515625 26.8125 
Q 5.515625 40.234375 12.765625 48.109375 
Q 20.015625 56 32.328125 56 
Q 43.359375 56 49.78125 48.890625 
Q 56.203125 41.796875 56.203125 29.59375 
M 47.21875 32.234375 
Q 47.125 39.59375 43.09375 43.984375 
Q 39.0625 48.390625 32.421875 48.390625 
Q 24.90625 48.390625 20.390625 44.140625 
Q 15.875 39.890625 15.1875 32.171875 
z
" id="DejaVuSans-65"/>
      <path id="DejaVuSans-20"/>
      <path d="M 31 75.875 
Q 24.46875 64.65625 21.28125 53.65625 
Q 18.109375 42.671875 18.109375 31.390625 
Q 18.109375 20.125 21.3125 9.0625 
Q 24.515625 -2 31 -13.1875 
L 23.1875 -13.1875 
Q 15.875 -1.703125 12.234375 9.375 
Q 8.59375 20.453125 8.59375 31.390625 
Q 8.59375 42.28125 12.203125 53.3125 
Q 15.828125 64.359375 23.1875 75.875 
z
" id="DejaVuSans-28"/>
      <path d="M 53.515625 70.515625 
L 53.515625 60.890625 
Q 47.90625 63.578125 42.921875 64.890625 
Q 37.9375 66.21875 33.296875 66.21875 
Q 25.25 66.21875 20.875 63.09375 
Q 16.5 59.96875 16.5 54.203125 
Q 16.5 49.359375 19.40625 46.890625 
Q 22.3125 44.4375 30.421875 42.921875 
L 36.375 41.703125 
Q 47.40625 39.59375 52.65625 34.296875 
Q 57.90625 29 57.90625 20.125 
Q 57.90625 9.515625 50.796875 4.046875 
Q 43.703125 -1.421875 29.984375 -1.421875 
Q 24.8125 -1.421875 18.96875 -0.25 
Q 13.140625 0.921875 6.890625 3.21875 
L 6.890625 13.375 
Q 12.890625 10.015625 18.65625 8.296875 
Q 24.421875 6.59375 29.984375 6.59375 
Q 38.421875 6.59375 43.015625 9.90625 
Q 47.609375 13.234375 47.609375 19.390625 
Q 47.609375 24.75 44.3125 27.78125 
Q 41.015625 30.8125 33.5 32.328125 
L 27.484375 33.5 
Q 16.453125 35.6875 11.515625 40.375 
Q 6.59375 45.0625 6.59375 53.421875 
Q 6.59375 63.09375 13.40625 68.65625 
Q 20.21875 74.21875 32.171875 74.21875 
Q 37.3125 74.21875 42.625 73.28125 
Q 47.953125 72.359375 53.515625 70.515625 
" id="DejaVuSans-53"/>
      <path d="M 48.78125 52.59375 
L 48.78125 44.1875 
Q 44.96875 46.296875 41.140625 47.34375 
Q 37.3125 48.390625 33.40625 48.390625 
Q 24.65625 48.390625 19.8125 42.84375 
Q 14.984375 37.3125 14.984375 27.296875 
Q 14.984375 17.28125 19.8125 11.734375 
Q 24.65625 6.203125 33.40625 6.203125 
Q 37.3125 6.203125 41.140625 7.25 
Q 44.96875 8.296875 48.78125 10.40625 
L 48.78125 2.09375 
Q 45.015625 0.34375 40.984375 -0.53125 
Q 36.96875 -1.421875 32.421875 -1.421875 
Q 20.0625 -1.421875 12.78125 6.34375 
Q 5.515625 14.109375 5.515625 27.296875 
Q 5.515625 40.671875 12.859375 48.328125 
Q 20.21875 56 33.015625 56 
Q 37.15625 56 41.109375 55.140625 
Q 45.0625 54.296875 48.78125 52.59375 
" id="DejaVuSans-63"/>
      <path d="M 8.015625 75.875 
L 15.828125 75.875 
Q 23.140625 64.359375 26.78125 53.3125 
Q 30.421875 42.28125 30.421875 31.390625 
Q 30.421875 20.453125 26.78125 9.375 
Q 23.140625 -1.703125 15.828125 -13.1875 
L 8.015625 -13.1875 
Q 14.5 -2 17.703125 9.0625 
Q 20.90625 20.125 20.90625 31.390625 
Q 20.90625 42.671875 17.703125 53.65625 
Q 14.5 64.65625 8.015625 75.875 
" id="DejaVuSans-29"/>
     </defs>
     <g transform="translate(209.281875 335.860562)scale(0.1 -0.1)">
      <use xlink:href="#DejaVuSans-54"/>
      <use x="61.037109" xlink:href="#DejaVuSans-69"/>
      <use x="88.820312" xlink:href="#DejaVuSans-6d"/>
      <use x="186.232422" xlink:href="#DejaVuSans-65"/>
      <use x="247.755859" xlink:href="#DejaVuSans-20"/>
      <use x="279.542969" xlink:href="#DejaVuSans-28"/>
      <use x="318.556641" xlink:href="#DejaVuSans-53"/>
      <use x="382.033203" xlink:href="#DejaVuSans-65"/>
      <use x="443.556641" xlink:href="#DejaVuSans-63"/>
      <use x="498.537109" xlink:href="#DejaVuSans-29"/>
     </g>
    </g>
   </g>
   <g id="matplotlib.axis_4">
    <g id="ytick_6">
     <g id="line2d_25">
      <g>
       <use style="stroke:#000000;stroke-width:0.8;" x="57.6" xlink:href="#mcefc73edc3" y="285.880422"/>
      </g>
     </g>
     <g id="text_25">
      <!-- −20 -->
      <g transform="translate(29.495313 289.679641)scale(0.1 -0.1)">
       <use xlink:href="#DejaVuSans-2212"/>
       <use x="83.789062" xlink:href="#DejaVuSans-32"/>
       <use x="147.412109" xlink:href="#DejaVuSans-30"/>
      </g>
     </g>
    </g>
    <g id="ytick_7">
     <g id="line2d_26">
      <g>
       <use style="stroke:#000000;stroke-width:0.8;" x="57.6" xlink:href="#mcefc73edc3" y="243.087767"/>
      </g>
     </g>
     <g id="text_26">
      <!-- 0 -->
      <g transform="translate(44.2375 246.886986)scale(0.1 -0.1)">
       <use xlink:href="#DejaVuSans-30"/>
      </g>
     </g>
    </g>
    <g id="ytick_8">
     <g id="line2d_27">
      <g>
       <use style="stroke:#000000;stroke-width:0.8;" x="57.6" xlink:href="#mcefc73edc3" y="200.295113"/>
      </g>
     </g>
     <g id="text_27">
      <!-- 20 -->
      <g transform="translate(37.875 204.094331)scale(0.1 -0.1)">
       <use xlink:href="#DejaVuSans-32"/>
       <use x="63.623047" xlink:href="#DejaVuSans-30"/>
      </g>
     </g>
    </g>
   </g>
   <g id="line2d_28">
    <path clip-path="url(#pc5a17827e2)" d="M 73.832727 238.574664 
L 75.021938 237.504863 
L 77.40036 234.91611 
L 78.58957 233.830699 
L 79.778781 233.167724 
L 80.967992 233.053671 
L 82.157203 233.513843 
L 83.346414 234.466308 
L 88.103257 239.561698 
L 89.292468 240.399314 
L 91.670889 241.749545 
L 92.8601 242.759441 
L 94.049311 244.332965 
L 95.238521 246.615863 
L 96.427732 249.585487 
L 98.806154 256.28371 
L 99.995365 258.920485 
L 101.184575 260.373288 
L 102.373786 260.335511 
L 103.562997 258.776236 
L 104.752208 255.978739 
L 107.130629 248.968804 
L 108.31984 246.015541 
L 109.509051 244.047828 
L 110.698262 243.226127 
L 111.887473 243.406427 
L 114.265894 245.005474 
L 115.455105 245.380611 
L 116.644316 244.947875 
L 117.833526 243.563342 
L 119.022737 241.323063 
L 122.59037 232.839144 
L 123.77958 230.617568 
L 124.968791 229.079505 
L 126.158002 228.329951 
L 127.347213 228.443145 
L 128.536424 229.460998 
L 129.725634 231.372019 
L 130.914845 234.096573 
L 132.104056 237.466819 
L 134.482478 244.882413 
L 135.671688 248.110897 
L 136.860899 250.533724 
L 138.05011 251.948073 
L 139.239321 252.328502 
L 140.428531 251.840803 
L 141.617742 250.806744 
L 142.806953 249.6154 
L 143.996164 248.624482 
L 145.185375 248.090974 
L 146.374585 248.131904 
L 147.563796 248.705398 
L 151.131429 251.571367 
L 152.320639 252.163492 
L 153.50985 252.346753 
L 154.699061 252.090349 
L 155.888272 251.409575 
L 157.077483 250.349708 
L 158.266693 248.975615 
L 160.645115 245.591231 
L 165.401958 238.248079 
L 167.78038 235.011385 
L 168.96959 233.610989 
L 170.158801 232.445468 
L 171.348012 231.599977 
L 172.537223 231.139443 
L 173.726434 231.089272 
L 174.915644 231.446316 
L 176.104855 232.217576 
L 177.294066 233.441736 
L 178.483277 235.171258 
L 179.672488 237.437541 
L 180.861698 240.224992 
L 183.24012 246.95192 
L 185.618541 253.799744 
L 186.807752 256.671735 
L 187.996963 258.965312 
L 189.186174 260.613651 
L 190.375385 261.571124 
L 191.564595 261.780298 
L 192.753806 261.186125 
L 193.943017 259.77144 
L 195.132228 257.579145 
L 196.321439 254.696703 
L 197.510649 251.207347 
L 198.69986 247.158076 
L 199.889071 242.570279 
L 202.267493 231.923012 
L 204.645914 220.351969 
L 205.835125 215.308105 
L 207.024336 211.635136 
L 208.213546 209.882142 
L 209.402757 210.333072 
L 210.591968 212.953634 
L 211.781179 217.399045 
L 212.97039 223.093767 
L 216.538022 241.351107 
L 217.727233 246.249884 
L 218.916444 250.037521 
L 220.105654 252.444233 
L 221.294865 253.238421 
L 222.484076 252.298684 
L 223.673287 249.662539 
L 224.862498 245.560421 
L 228.43013 229.839681 
L 229.619341 225.629065 
L 230.808551 222.726957 
L 231.997762 221.282755 
L 233.186973 221.256275 
L 234.376184 222.482907 
L 235.565395 224.73071 
L 236.754605 227.742732 
L 239.133027 235.051501 
L 241.511449 242.324578 
L 242.700659 245.253328 
L 243.88987 247.422702 
L 245.079081 248.739374 
L 246.268292 249.206444 
L 247.457502 248.88309 
L 248.646713 247.847845 
L 249.835924 246.186302 
L 251.025135 243.99374 
L 252.214346 241.379804 
L 255.781978 232.727695 
L 256.971189 230.404661 
L 258.1604 228.761891 
L 259.34961 227.919403 
L 260.538821 227.914391 
L 261.728032 228.766966 
L 262.917243 230.522681 
L 264.106454 233.234098 
L 265.295664 236.914671 
L 266.484875 241.500305 
L 270.052507 257.354621 
L 271.241718 261.149578 
L 272.430929 263.040688 
L 273.62014 262.672101 
L 274.809351 260.050853 
L 275.998561 255.564941 
L 279.566194 238.23946 
L 280.755405 233.524761 
L 281.944615 230.058466 
L 283.133826 228.003911 
L 284.323037 227.432982 
L 285.512248 228.344156 
L 286.701459 230.653223 
L 287.890669 234.19061 
L 289.07988 238.712109 
L 291.458302 249.475761 
L 293.836723 260.476371 
L 295.025934 265.487933 
L 296.215145 269.974938 
L 297.404356 273.740404 
L 298.593566 276.492456 
L 299.782777 277.914744 
L 300.971988 277.777765 
L 302.161199 276.013798 
L 303.35041 272.727398 
L 304.53962 268.155279 
L 305.728831 262.606774 
L 308.107253 249.866248 
L 311.674885 230.476933 
L 314.053307 219.277395 
L 315.242517 214.448506 
L 316.431728 210.147539 
L 317.620939 206.37879 
L 318.81015 203.241116 
L 319.999361 200.959056 
L 321.188571 199.808773 
L 322.377782 200.004413 
L 323.566993 201.620364 
L 324.756204 204.582159 
L 325.945415 208.713511 
L 327.134625 213.792848 
L 329.513047 225.877252 
L 335.459101 258.266936 
L 337.837522 269.425604 
L 339.026733 274.390856 
L 340.215944 278.78013 
L 341.405155 282.304545 
L 342.594366 284.623635 
L 343.783576 285.471786 
L 344.972787 284.743419 
L 346.161998 282.497565 
L 347.351209 278.895493 
L 348.54042 274.135465 
L 349.72963 268.42377 
L 352.108052 254.993781 
L 355.675684 233.491149 
L 356.864895 227.15933 
L 358.054106 221.694763 
L 359.243317 217.220755 
L 360.432527 213.747362 
L 361.621738 211.207497 
L 362.810949 209.495334 
L 364.00016 208.487404 
L 365.189371 208.050697 
L 366.378581 208.05293 
L 367.567792 208.418167 
L 368.757003 209.230576 
L 369.946214 210.762791 
L 371.135425 213.374586 
L 372.324635 217.363985 
L 373.513846 222.860927 
L 374.703057 229.778898 
L 377.081479 246.462886 
L 379.4599 263.548513 
L 380.649111 271.142423 
L 381.838322 277.755756 
L 383.027532 283.187969 
L 384.216743 287.214629 
L 385.405954 289.6277 
L 386.595165 290.315419 
L 387.784376 289.311986 
L 388.973586 286.777885 
L 390.162797 282.921949 
L 391.352008 277.937379 
L 392.541219 271.991909 
L 394.91964 257.888685 
L 398.487273 234.512179 
L 398.487273 234.512179 
" style="fill:none;stroke:#7e1e9c;stroke-linecap:square;stroke-width:2;"/>
   </g>
   <g id="line2d_29">
    <path clip-path="url(#pc5a17827e2)" d="M 73.832727 221.552662 
L 75.021938 239.400295 
L 76.211149 241.990281 
L 77.40036 225.81909 
L 78.58957 260.387254 
L 79.778781 238.906011 
L 80.967992 224.248702 
L 82.157203 228.925058 
L 83.346414 225.182089 
L 84.535624 224.936133 
L 85.724835 244.245483 
L 86.914046 249.195396 
L 88.103257 231.630426 
L 89.292468 246.424279 
L 90.481678 242.535547 
L 91.670889 237.037554 
L 92.8601 250.474639 
L 94.049311 248.380967 
L 95.238521 236.293624 
L 96.427732 247.144321 
L 97.616943 249.60185 
L 98.806154 256.980049 
L 99.995365 268.242243 
L 101.184575 268.032468 
L 102.373786 249.429739 
L 103.562997 250.718298 
L 104.752208 262.504114 
L 105.941419 257.083386 
L 107.130629 243.574929 
L 108.31984 244.858005 
L 109.509051 251.578176 
L 111.887473 238.50288 
L 113.076683 234.435289 
L 114.265894 250.140736 
L 115.455105 251.576019 
L 116.644316 242.586041 
L 117.833526 237.256214 
L 119.022737 257.607705 
L 120.211948 229.254797 
L 121.401159 237.77845 
L 122.59037 220.334595 
L 123.77958 234.376952 
L 124.968791 231.738392 
L 126.158002 237.696696 
L 127.347213 224.381791 
L 128.536424 224.100043 
L 129.725634 236.850993 
L 130.914845 232.725317 
L 132.104056 233.808201 
L 133.293267 249.478729 
L 134.482478 230.51839 
L 135.671688 256.775164 
L 136.860899 248.51402 
L 138.05011 255.72449 
L 139.239321 256.884363 
L 140.428531 240.182318 
L 141.617742 250.59304 
L 142.806953 257.374412 
L 143.996164 246.56023 
L 145.185375 247.974469 
L 146.374585 247.170882 
L 147.563796 259.723019 
L 148.753007 238.058263 
L 149.942218 247.912847 
L 151.131429 238.81153 
L 152.320639 270.955966 
L 153.50985 259.181284 
L 154.699061 254.883082 
L 155.888272 236.335439 
L 157.077483 248.586652 
L 158.266693 247.672676 
L 159.455904 250.182975 
L 160.645115 248.288068 
L 161.834326 259.076287 
L 163.023536 232.98914 
L 164.212747 225.087709 
L 165.401958 242.908586 
L 166.591169 239.974069 
L 167.78038 233.010311 
L 168.96959 246.671348 
L 170.158801 227.877518 
L 171.348012 217.512262 
L 172.537223 234.793162 
L 173.726434 237.894974 
L 174.915644 238.592918 
L 176.104855 220.83791 
L 177.294066 237.685084 
L 178.483277 234.374536 
L 179.672488 245.804393 
L 180.861698 219.794951 
L 182.050909 242.629769 
L 183.24012 256.073834 
L 184.429331 259.88172 
L 185.618541 243.07847 
L 186.807752 276.935323 
L 187.996963 247.554385 
L 189.186174 252.532504 
L 190.375385 269.358044 
L 191.564595 259.536862 
L 192.753806 254.801189 
L 193.943017 259.728955 
L 195.132228 253.679686 
L 196.321439 253.305551 
L 197.510649 256.942326 
L 198.69986 255.163593 
L 199.889071 248.353789 
L 201.078282 240.114151 
L 202.267493 225.639893 
L 203.456703 222.133851 
L 204.645914 213.01157 
L 205.835125 210.527704 
L 207.024336 212.965603 
L 208.213546 222.377547 
L 209.402757 212.358564 
L 210.591968 210.220752 
L 211.781179 204.81147 
L 212.97039 219.852313 
L 214.1596 241.841388 
L 215.348811 248.547474 
L 216.538022 243.967639 
L 217.727233 229.818841 
L 218.916444 251.924239 
L 220.105654 253.571201 
L 221.294865 245.532658 
L 222.484076 251.332784 
L 223.673287 242.845047 
L 224.862498 253.844976 
L 226.051708 247.424804 
L 228.43013 229.155118 
L 229.619341 232.839428 
L 230.808551 218.891495 
L 231.997762 212.783896 
L 233.186973 218.043448 
L 234.376184 217.185792 
L 235.565395 236.633517 
L 236.754605 218.675915 
L 237.943816 240.967703 
L 239.133027 228.069742 
L 240.322238 233.935609 
L 241.511449 259.186777 
L 242.700659 237.207313 
L 243.88987 249.755438 
L 245.079081 249.596856 
L 246.268292 252.889297 
L 247.457502 242.73151 
L 248.646713 244.907559 
L 249.835924 239.575423 
L 251.025135 247.347718 
L 252.214346 253.534253 
L 253.403556 225.572904 
L 254.592767 237.927377 
L 255.781978 233.53583 
L 256.971189 236.465268 
L 258.1604 228.571845 
L 259.34961 225.633369 
L 260.538821 244.505966 
L 261.728032 217.063745 
L 262.917243 222.157114 
L 264.106454 224.681626 
L 265.295664 239.238969 
L 266.484875 235.960313 
L 267.674086 258.537085 
L 268.863297 260.165289 
L 270.052507 263.186516 
L 271.241718 256.335381 
L 272.430929 261.882104 
L 273.62014 257.342687 
L 274.809351 251.484357 
L 275.998561 268.002723 
L 277.187772 254.501889 
L 278.376983 225.958964 
L 279.566194 249.502454 
L 280.755405 229.62814 
L 281.944615 224.31105 
L 283.133826 239.51177 
L 284.323037 220.513092 
L 285.512248 225.909958 
L 286.701459 245.2951 
L 287.890669 236.692919 
L 289.07988 234.426356 
L 290.269091 244.871876 
L 291.458302 231.54472 
L 292.647512 257.141372 
L 293.836723 260.102867 
L 295.025934 270.956884 
L 296.215145 269.348832 
L 297.404356 277.782138 
L 298.593566 280.932424 
L 299.782777 269.341613 
L 300.971988 289.990643 
L 302.161199 283.796551 
L 303.35041 260.670036 
L 304.53962 254.749252 
L 305.728831 259.714382 
L 306.918042 258.316855 
L 308.107253 273.576035 
L 309.296464 231.442552 
L 310.485674 230.785297 
L 311.674885 230.693492 
L 312.864096 224.65047 
L 314.053307 220.850174 
L 315.242517 222.773343 
L 316.431728 214.009716 
L 317.620939 201.647319 
L 318.81015 196.131025 
L 319.999361 202.217664 
L 321.188571 197.170199 
L 322.377782 199.752753 
L 323.566993 198.389792 
L 324.756204 209.898109 
L 325.945415 205.150376 
L 327.134625 215.198793 
L 328.323836 231.055496 
L 329.513047 227.475787 
L 330.702258 227.066418 
L 331.891469 240.932781 
L 333.080679 245.36766 
L 334.26989 242.782446 
L 335.459101 256.953977 
L 336.648312 263.53898 
L 337.837522 254.076661 
L 339.026733 287.664573 
L 340.215944 302.208 
L 341.405155 276.959448 
L 342.594366 276.833603 
L 343.783576 286.019131 
L 344.972787 283.273563 
L 346.161998 285.596941 
L 347.351209 272.347038 
L 348.54042 256.023126 
L 349.72963 288.63813 
L 350.918841 264.166152 
L 352.108052 259.616096 
L 353.297263 251.620762 
L 354.486474 227.685783 
L 355.675684 226.596002 
L 356.864895 233.798079 
L 358.054106 225.10662 
L 359.243317 212.652211 
L 360.432527 213.998675 
L 361.621738 214.499266 
L 362.810949 216.25616 
L 364.00016 205.833693 
L 365.189371 197.39261 
L 366.378581 222.87345 
L 367.567792 194.688 
L 368.757003 205.93436 
L 369.946214 213.176445 
L 371.135425 223.995049 
L 372.324635 226.449805 
L 373.513846 212.432351 
L 374.703057 224.84163 
L 375.892268 234.942683 
L 377.081479 243.452685 
L 379.4599 269.510561 
L 380.649111 277.365443 
L 381.838322 279.106276 
L 383.027532 286.304436 
L 384.216743 278.962063 
L 385.405954 280.447591 
L 386.595165 282.605368 
L 387.784376 295.3373 
L 388.973586 289.736574 
L 390.162797 297.178887 
L 391.352008 287.6369 
L 392.541219 256.229729 
L 393.73043 259.883036 
L 394.91964 252.178009 
L 396.108851 256.353435 
L 397.298062 249.716574 
L 398.487273 231.674531 
L 398.487273 231.674531 
" style="fill:none;stroke:#0343df;stroke-linecap:square;stroke-width:2;"/>
   </g>
   <g id="patch_8">
    <path d="M 57.6 307.584 
L 57.6 189.312 
" style="fill:none;stroke:#000000;stroke-linecap:square;stroke-linejoin:miter;stroke-width:0.8;"/>
   </g>
   <g id="patch_9">
    <path d="M 414.72 307.584 
L 414.72 189.312 
" style="fill:none;stroke:#000000;stroke-linecap:square;stroke-linejoin:miter;stroke-width:0.8;"/>
   </g>
   <g id="patch_10">
    <path d="M 57.6 307.584 
L 414.72 307.584 
" style="fill:none;stroke:#000000;stroke-linecap:square;stroke-linejoin:miter;stroke-width:0.8;"/>
   </g>
   <g id="patch_11">
    <path d="M 57.6 189.312 
L 414.72 189.312 
" style="fill:none;stroke:#000000;stroke-linecap:square;stroke-linejoin:miter;stroke-width:0.8;"/>
   </g>
  </g>
 </g>
 <defs>
  <clipPath id="p8431f4e856">
   <rect height="118.272" width="357.12" x="57.6" y="41.472"/>
  </clipPath>
  <clipPath id="pc5a17827e2">
   <rect height="118.272" width="357.12" x="57.6" y="189.312"/>
  </clipPath>
 </defs>
</svg>
