<?xml version="1.0" encoding="utf-8" standalone="no"?>
<!DOCTYPE svg PUBLIC "-//W3C//DTD SVG 1.1//EN"
  "http://www.w3.org/Graphics/SVG/1.1/DTD/svg11.dtd">
<!-- Created with matplotlib (http://matplotlib.org/) -->
<svg height="345.6pt" version="1.1" viewBox="0 0 460.8 345.6" width="460.8pt" xmlns="http://www.w3.org/2000/svg" xmlns:xlink="http://www.w3.org/1999/xlink">
 <defs>
  <style type="text/css">
*{stroke-linecap:butt;stroke-linejoin:round;}
  </style>
 </defs>
 <g id="figure_1">
  <g id="patch_1">
   <path d="M 0 345.6 
L 460.8 345.6 
L 460.8 0 
L 0 0 
z
" style="fill:#ffffff;"/>
  </g>
  <g id="axes_1">
   <g id="patch_2">
    <path d="M 57.6 159.744 
L 414.72 159.744 
L 414.72 41.472 
L 57.6 41.472 
z
" style="fill:#ffffff;"/>
   </g>
   <g id="matplotlib.axis_1">
    <g id="xtick_1">
     <g id="line2d_1">
      <defs>
       <path d="M 0 0 
L 0 3.5 
" id="m02c5be0e2f" style="stroke:#000000;stroke-width:0.8;"/>
      </defs>
      <g>
       <use style="stroke:#000000;stroke-width:0.8;" x="57.183776" xlink:href="#m02c5be0e2f" y="159.744"/>
      </g>
     </g>
     <g id="text_1">
      <!-- 0 -->
      <defs>
       <path d="M 31.78125 66.40625 
Q 24.171875 66.40625 20.328125 58.90625 
Q 16.5 51.421875 16.5 36.375 
Q 16.5 21.390625 20.328125 13.890625 
Q 24.171875 6.390625 31.78125 6.390625 
Q 39.453125 6.390625 43.28125 13.890625 
Q 47.125 21.390625 47.125 36.375 
Q 47.125 51.421875 43.28125 58.90625 
Q 39.453125 66.40625 31.78125 66.40625 
z
M 31.78125 74.21875 
Q 44.046875 74.21875 50.515625 64.515625 
Q 56.984375 54.828125 56.984375 36.375 
Q 56.984375 17.96875 50.515625 8.265625 
Q 44.046875 -1.421875 31.78125 -1.421875 
Q 19.53125 -1.421875 13.0625 8.265625 
Q 6.59375 17.96875 6.59375 36.375 
Q 6.59375 54.828125 13.0625 64.515625 
Q 19.53125 74.21875 31.78125 74.21875 
z
" id="DejaVuSans-30"/>
      </defs>
      <g transform="translate(54.002526 174.342437)scale(0.1 -0.1)">
       <use xlink:href="#DejaVuSans-30"/>
      </g>
     </g>
    </g>
    <g id="xtick_2">
     <g id="line2d_2">
      <g>
       <use style="stroke:#000000;stroke-width:0.8;" x="98.475818" xlink:href="#m02c5be0e2f" y="159.744"/>
      </g>
     </g>
     <g id="text_2">
      <!-- 25 -->
      <defs>
       <path d="M 19.1875 8.296875 
L 53.609375 8.296875 
L 53.609375 0 
L 7.328125 0 
L 7.328125 8.296875 
Q 12.9375 14.109375 22.625 23.890625 
Q 32.328125 33.6875 34.8125 36.53125 
Q 39.546875 41.84375 41.421875 45.53125 
Q 43.3125 49.21875 43.3125 52.78125 
Q 43.3125 58.59375 39.234375 62.25 
Q 35.15625 65.921875 28.609375 65.921875 
Q 23.96875 65.921875 18.8125 64.3125 
Q 13.671875 62.703125 7.8125 59.421875 
L 7.8125 69.390625 
Q 13.765625 71.78125 18.9375 73 
Q 24.125 74.21875 28.421875 74.21875 
Q 39.75 74.21875 46.484375 68.546875 
Q 53.21875 62.890625 53.21875 53.421875 
Q 53.21875 48.921875 51.53125 44.890625 
Q 49.859375 40.875 45.40625 35.40625 
Q 44.1875 33.984375 37.640625 27.21875 
Q 31.109375 20.453125 19.1875 8.296875 
z
" id="DejaVuSans-32"/>
       <path d="M 10.796875 72.90625 
L 49.515625 72.90625 
L 49.515625 64.59375 
L 19.828125 64.59375 
L 19.828125 46.734375 
Q 21.96875 47.46875 24.109375 47.828125 
Q 26.265625 48.1875 28.421875 48.1875 
Q 40.625 48.1875 47.75 41.5 
Q 54.890625 34.8125 54.890625 23.390625 
Q 54.890625 11.625 47.5625 5.09375 
Q 40.234375 -1.421875 26.90625 -1.421875 
Q 22.3125 -1.421875 17.546875 -0.640625 
Q 12.796875 0.140625 7.71875 1.703125 
L 7.71875 11.625 
Q 12.109375 9.234375 16.796875 8.0625 
Q 21.484375 6.890625 26.703125 6.890625 
Q 35.15625 6.890625 40.078125 11.328125 
Q 45.015625 15.765625 45.015625 23.390625 
Q 45.015625 31 40.078125 35.4375 
Q 35.15625 39.890625 26.703125 39.890625 
Q 22.75 39.890625 18.8125 39.015625 
Q 14.890625 38.140625 10.796875 36.28125 
z
" id="DejaVuSans-35"/>
      </defs>
      <g transform="translate(92.113318 174.342437)scale(0.1 -0.1)">
       <use xlink:href="#DejaVuSans-32"/>
       <use x="63.623047" xlink:href="#DejaVuSans-35"/>
      </g>
     </g>
    </g>
    <g id="xtick_3">
     <g id="line2d_3">
      <g>
       <use style="stroke:#000000;stroke-width:0.8;" x="139.767859" xlink:href="#m02c5be0e2f" y="159.744"/>
      </g>
     </g>
     <g id="text_3">
      <!-- 50 -->
      <g transform="translate(133.405359 174.342437)scale(0.1 -0.1)">
       <use xlink:href="#DejaVuSans-35"/>
       <use x="63.623047" xlink:href="#DejaVuSans-30"/>
      </g>
     </g>
    </g>
    <g id="xtick_4">
     <g id="line2d_4">
      <g>
       <use style="stroke:#000000;stroke-width:0.8;" x="181.0599" xlink:href="#m02c5be0e2f" y="159.744"/>
      </g>
     </g>
     <g id="text_4">
      <!-- 75 -->
      <defs>
       <path d="M 8.203125 72.90625 
L 55.078125 72.90625 
L 55.078125 68.703125 
L 28.609375 0 
L 18.3125 0 
L 43.21875 64.59375 
L 8.203125 64.59375 
z
" id="DejaVuSans-37"/>
      </defs>
      <g transform="translate(174.6974 174.342437)scale(0.1 -0.1)">
       <use xlink:href="#DejaVuSans-37"/>
       <use x="63.623047" xlink:href="#DejaVuSans-35"/>
      </g>
     </g>
    </g>
    <g id="xtick_5">
     <g id="line2d_5">
      <g>
       <use style="stroke:#000000;stroke-width:0.8;" x="222.351941" xlink:href="#m02c5be0e2f" y="159.744"/>
      </g>
     </g>
     <g id="text_5">
      <!-- 100 -->
      <defs>
       <path d="M 12.40625 8.296875 
L 28.515625 8.296875 
L 28.515625 63.921875 
L 10.984375 60.40625 
L 10.984375 69.390625 
L 28.421875 72.90625 
L 38.28125 72.90625 
L 38.28125 8.296875 
L 54.390625 8.296875 
L 54.390625 0 
L 12.40625 0 
z
" id="DejaVuSans-31"/>
      </defs>
      <g transform="translate(212.808191 174.342437)scale(0.1 -0.1)">
       <use xlink:href="#DejaVuSans-31"/>
       <use x="63.623047" xlink:href="#DejaVuSans-30"/>
       <use x="127.246094" xlink:href="#DejaVuSans-30"/>
      </g>
     </g>
    </g>
    <g id="xtick_6">
     <g id="line2d_6">
      <g>
       <use style="stroke:#000000;stroke-width:0.8;" x="263.643983" xlink:href="#m02c5be0e2f" y="159.744"/>
      </g>
     </g>
     <g id="text_6">
      <!-- 125 -->
      <g transform="translate(254.100233 174.342437)scale(0.1 -0.1)">
       <use xlink:href="#DejaVuSans-31"/>
       <use x="63.623047" xlink:href="#DejaVuSans-32"/>
       <use x="127.246094" xlink:href="#DejaVuSans-35"/>
      </g>
     </g>
    </g>
    <g id="xtick_7">
     <g id="line2d_7">
      <g>
       <use style="stroke:#000000;stroke-width:0.8;" x="304.936024" xlink:href="#m02c5be0e2f" y="159.744"/>
      </g>
     </g>
     <g id="text_7">
      <!-- 150 -->
      <g transform="translate(295.392274 174.342437)scale(0.1 -0.1)">
       <use xlink:href="#DejaVuSans-31"/>
       <use x="63.623047" xlink:href="#DejaVuSans-35"/>
       <use x="127.246094" xlink:href="#DejaVuSans-30"/>
      </g>
     </g>
    </g>
    <g id="xtick_8">
     <g id="line2d_8">
      <g>
       <use style="stroke:#000000;stroke-width:0.8;" x="346.228065" xlink:href="#m02c5be0e2f" y="159.744"/>
      </g>
     </g>
     <g id="text_8">
      <!-- 175 -->
      <g transform="translate(336.684315 174.342437)scale(0.1 -0.1)">
       <use xlink:href="#DejaVuSans-31"/>
       <use x="63.623047" xlink:href="#DejaVuSans-37"/>
       <use x="127.246094" xlink:href="#DejaVuSans-35"/>
      </g>
     </g>
    </g>
    <g id="xtick_9">
     <g id="line2d_9">
      <g>
       <use style="stroke:#000000;stroke-width:0.8;" x="387.520107" xlink:href="#m02c5be0e2f" y="159.744"/>
      </g>
     </g>
     <g id="text_9">
      <!-- 200 -->
      <g transform="translate(377.976357 174.342437)scale(0.1 -0.1)">
       <use xlink:href="#DejaVuSans-32"/>
       <use x="63.623047" xlink:href="#DejaVuSans-30"/>
       <use x="127.246094" xlink:href="#DejaVuSans-30"/>
      </g>
     </g>
    </g>
   </g>
   <g id="matplotlib.axis_2">
    <g id="ytick_1">
     <g id="line2d_10">
      <defs>
       <path d="M 0 0 
L -3.5 0 
" id="mf5567c7a3b" style="stroke:#000000;stroke-width:0.8;"/>
      </defs>
      <g>
       <use style="stroke:#000000;stroke-width:0.8;" x="57.6" xlink:href="#mf5567c7a3b" y="152.914438"/>
      </g>
     </g>
     <g id="text_10">
      <!-- −5.0 -->
      <defs>
       <path d="M 10.59375 35.5 
L 73.1875 35.5 
L 73.1875 27.203125 
L 10.59375 27.203125 
z
" id="DejaVuSans-2212"/>
       <path d="M 10.6875 12.40625 
L 21 12.40625 
L 21 0 
L 10.6875 0 
z
" id="DejaVuSans-2e"/>
      </defs>
      <g transform="translate(26.317187 156.713657)scale(0.1 -0.1)">
       <use xlink:href="#DejaVuSans-2212"/>
       <use x="83.789062" xlink:href="#DejaVuSans-35"/>
       <use x="147.412109" xlink:href="#DejaVuSans-2e"/>
       <use x="179.199219" xlink:href="#DejaVuSans-30"/>
      </g>
     </g>
    </g>
    <g id="ytick_2">
     <g id="line2d_11">
      <g>
       <use style="stroke:#000000;stroke-width:0.8;" x="57.6" xlink:href="#mf5567c7a3b" y="126.874701"/>
      </g>
     </g>
     <g id="text_11">
      <!-- −2.5 -->
      <g transform="translate(26.317187 130.673919)scale(0.1 -0.1)">
       <use xlink:href="#DejaVuSans-2212"/>
       <use x="83.789062" xlink:href="#DejaVuSans-32"/>
       <use x="147.412109" xlink:href="#DejaVuSans-2e"/>
       <use x="179.199219" xlink:href="#DejaVuSans-35"/>
      </g>
     </g>
    </g>
    <g id="ytick_3">
     <g id="line2d_12">
      <g>
       <use style="stroke:#000000;stroke-width:0.8;" x="57.6" xlink:href="#mf5567c7a3b" y="100.834963"/>
      </g>
     </g>
     <g id="text_12">
      <!-- 0.0 -->
      <g transform="translate(34.696875 104.634182)scale(0.1 -0.1)">
       <use xlink:href="#DejaVuSans-30"/>
       <use x="63.623047" xlink:href="#DejaVuSans-2e"/>
       <use x="95.410156" xlink:href="#DejaVuSans-30"/>
      </g>
     </g>
    </g>
    <g id="ytick_4">
     <g id="line2d_13">
      <g>
       <use style="stroke:#000000;stroke-width:0.8;" x="57.6" xlink:href="#mf5567c7a3b" y="74.795226"/>
      </g>
     </g>
     <g id="text_13">
      <!-- 2.5 -->
      <g transform="translate(34.696875 78.594445)scale(0.1 -0.1)">
       <use xlink:href="#DejaVuSans-32"/>
       <use x="63.623047" xlink:href="#DejaVuSans-2e"/>
       <use x="95.410156" xlink:href="#DejaVuSans-35"/>
      </g>
     </g>
    </g>
    <g id="ytick_5">
     <g id="line2d_14">
      <g>
       <use style="stroke:#000000;stroke-width:0.8;" x="57.6" xlink:href="#mf5567c7a3b" y="48.755489"/>
      </g>
     </g>
     <g id="text_14">
      <!-- 5.0 -->
      <g transform="translate(34.696875 52.554707)scale(0.1 -0.1)">
       <use xlink:href="#DejaVuSans-35"/>
       <use x="63.623047" xlink:href="#DejaVuSans-2e"/>
       <use x="95.410156" xlink:href="#DejaVuSans-30"/>
      </g>
     </g>
    </g>
   </g>
   <g id="line2d_15">
    <path clip-path="url(#p635fe458be)" d="M 73.832727 88.423526 
L 78.58957 96.050415 
L 85.724835 94.367193 
L 92.8601 128.276827 
L 99.995365 95.950286 
L 107.130629 114.992044 
L 114.265894 85.072285 
L 121.401159 86.236593 
L 128.536424 112.698503 
L 135.671688 100.082696 
L 142.806953 115.236681 
L 149.942218 109.158232 
L 159.455904 94.178667 
L 164.212747 86.991989 
L 171.348012 91.380916 
L 178.483277 117.347934 
L 185.618541 121.621422 
L 192.753806 99.168611 
L 199.889071 54.432209 
L 207.024336 97.089009 
L 214.1596 109.333695 
L 221.294865 68.382051 
L 228.43013 82.361141 
L 235.565395 103.498593 
L 242.700659 97.526738 
L 249.835924 78.580704 
L 256.971189 88.507977 
L 264.106454 132.101614 
L 271.241718 84.102709 
L 278.376983 87.040076 
L 285.512248 122.225017 
L 292.647512 147.01902 
L 300.971988 106.261192 
L 306.918042 75.374065 
L 314.053307 46.848 
L 321.188571 74.591388 
L 329.513047 120.488177 
L 335.459101 151.039851 
L 342.594366 126.650191 
L 349.72963 81.768802 
L 356.864895 65.652068 
L 364.00016 59.189897 
L 371.135425 121.753495 
L 378.270689 154.368 
L 385.405954 132.20462 
L 392.541219 82.263104 
L 398.487273 60.865572 
L 398.487273 60.865572 
" style="fill:none;stroke:#ff0000;stroke-linecap:square;stroke-width:2;"/>
   </g>
   <g id="patch_3">
    <path d="M 57.6 159.744 
L 57.6 41.472 
" style="fill:none;stroke:#000000;stroke-linecap:square;stroke-linejoin:miter;stroke-width:0.8;"/>
   </g>
   <g id="patch_4">
    <path d="M 414.72 159.744 
L 414.72 41.472 
" style="fill:none;stroke:#000000;stroke-linecap:square;stroke-linejoin:miter;stroke-width:0.8;"/>
   </g>
   <g id="patch_5">
    <path d="M 57.6 159.744 
L 414.72 159.744 
" style="fill:none;stroke:#000000;stroke-linecap:square;stroke-linejoin:miter;stroke-width:0.8;"/>
   </g>
   <g id="patch_6">
    <path d="M 57.6 41.472 
L 414.72 41.472 
" style="fill:none;stroke:#000000;stroke-linecap:square;stroke-linejoin:miter;stroke-width:0.8;"/>
   </g>
  </g>
  <g id="axes_2">
   <g id="patch_7">
    <path d="M 57.6 307.584 
L 414.72 307.584 
L 414.72 189.312 
L 57.6 189.312 
z
" style="fill:#ffffff;"/>
   </g>
   <g id="matplotlib.axis_3">
    <g id="xtick_10">
     <g id="line2d_16">
      <g>
       <use style="stroke:#000000;stroke-width:0.8;" x="57.183776" xlink:href="#m02c5be0e2f" y="307.584"/>
      </g>
     </g>
     <g id="text_15">
      <!-- 0 -->
      <g transform="translate(54.002526 322.182437)scale(0.1 -0.1)">
       <use xlink:href="#DejaVuSans-30"/>
      </g>
     </g>
    </g>
    <g id="xtick_11">
     <g id="line2d_17">
      <g>
       <use style="stroke:#000000;stroke-width:0.8;" x="98.475818" xlink:href="#m02c5be0e2f" y="307.584"/>
      </g>
     </g>
     <g id="text_16">
      <!-- 25 -->
      <g transform="translate(92.113318 322.182437)scale(0.1 -0.1)">
       <use xlink:href="#DejaVuSans-32"/>
       <use x="63.623047" xlink:href="#DejaVuSans-35"/>
      </g>
     </g>
    </g>
    <g id="xtick_12">
     <g id="line2d_18">
      <g>
       <use style="stroke:#000000;stroke-width:0.8;" x="139.767859" xlink:href="#m02c5be0e2f" y="307.584"/>
      </g>
     </g>
     <g id="text_17">
      <!-- 50 -->
      <g transform="translate(133.405359 322.182437)scale(0.1 -0.1)">
       <use xlink:href="#DejaVuSans-35"/>
       <use x="63.623047" xlink:href="#DejaVuSans-30"/>
      </g>
     </g>
    </g>
    <g id="xtick_13">
     <g id="line2d_19">
      <g>
       <use style="stroke:#000000;stroke-width:0.8;" x="181.0599" xlink:href="#m02c5be0e2f" y="307.584"/>
      </g>
     </g>
     <g id="text_18">
      <!-- 75 -->
      <g transform="translate(174.6974 322.182437)scale(0.1 -0.1)">
       <use xlink:href="#DejaVuSans-37"/>
       <use x="63.623047" xlink:href="#DejaVuSans-35"/>
      </g>
     </g>
    </g>
    <g id="xtick_14">
     <g id="line2d_20">
      <g>
       <use style="stroke:#000000;stroke-width:0.8;" x="222.351941" xlink:href="#m02c5be0e2f" y="307.584"/>
      </g>
     </g>
     <g id="text_19">
      <!-- 100 -->
      <g transform="translate(212.808191 322.182437)scale(0.1 -0.1)">
       <use xlink:href="#DejaVuSans-31"/>
       <use x="63.623047" xlink:href="#DejaVuSans-30"/>
       <use x="127.246094" xlink:href="#DejaVuSans-30"/>
      </g>
     </g>
    </g>
    <g id="xtick_15">
     <g id="line2d_21">
      <g>
       <use style="stroke:#000000;stroke-width:0.8;" x="263.643983" xlink:href="#m02c5be0e2f" y="307.584"/>
      </g>
     </g>
     <g id="text_20">
      <!-- 125 -->
      <g transform="translate(254.100233 322.182437)scale(0.1 -0.1)">
       <use xlink:href="#DejaVuSans-31"/>
       <use x="63.623047" xlink:href="#DejaVuSans-32"/>
       <use x="127.246094" xlink:href="#DejaVuSans-35"/>
      </g>
     </g>
    </g>
    <g id="xtick_16">
     <g id="line2d_22">
      <g>
       <use style="stroke:#000000;stroke-width:0.8;" x="304.936024" xlink:href="#m02c5be0e2f" y="307.584"/>
      </g>
     </g>
     <g id="text_21">
      <!-- 150 -->
      <g transform="translate(295.392274 322.182437)scale(0.1 -0.1)">
       <use xlink:href="#DejaVuSans-31"/>
       <use x="63.623047" xlink:href="#DejaVuSans-35"/>
       <use x="127.246094" xlink:href="#DejaVuSans-30"/>
      </g>
     </g>
    </g>
    <g id="xtick_17">
     <g id="line2d_23">
      <g>
       <use style="stroke:#000000;stroke-width:0.8;" x="346.228065" xlink:href="#m02c5be0e2f" y="307.584"/>
      </g>
     </g>
     <g id="text_22">
      <!-- 175 -->
      <g transform="translate(336.684315 322.182437)scale(0.1 -0.1)">
       <use xlink:href="#DejaVuSans-31"/>
       <use x="63.623047" xlink:href="#DejaVuSans-37"/>
       <use x="127.246094" xlink:href="#DejaVuSans-35"/>
      </g>
     </g>
    </g>
    <g id="xtick_18">
     <g id="line2d_24">
      <g>
       <use style="stroke:#000000;stroke-width:0.8;" x="387.520107" xlink:href="#m02c5be0e2f" y="307.584"/>
      </g>
     </g>
     <g id="text_23">
      <!-- 200 -->
      <g transform="translate(377.976357 322.182437)scale(0.1 -0.1)">
       <use xlink:href="#DejaVuSans-32"/>
       <use x="63.623047" xlink:href="#DejaVuSans-30"/>
       <use x="127.246094" xlink:href="#DejaVuSans-30"/>
      </g>
     </g>
    </g>
    <g id="text_24">
     <!-- Time (Sec) -->
     <defs>
      <path d="M -0.296875 72.90625 
L 61.375 72.90625 
L 61.375 64.59375 
L 35.5 64.59375 
L 35.5 0 
L 25.59375 0 
L 25.59375 64.59375 
L -0.296875 64.59375 
z
" id="DejaVuSans-54"/>
      <path d="M 9.421875 54.6875 
L 18.40625 54.6875 
L 18.40625 0 
L 9.421875 0 
z
M 9.421875 75.984375 
L 18.40625 75.984375 
L 18.40625 64.59375 
L 9.421875 64.59375 
z
" id="DejaVuSans-69"/>
      <path d="M 52 44.1875 
Q 55.375 50.25 60.0625 53.125 
Q 64.75 56 71.09375 56 
Q 79.640625 56 84.28125 50.015625 
Q 88.921875 44.046875 88.921875 33.015625 
L 88.921875 0 
L 79.890625 0 
L 79.890625 32.71875 
Q 79.890625 40.578125 77.09375 44.375 
Q 74.3125 48.1875 68.609375 48.1875 
Q 61.625 48.1875 57.5625 43.546875 
Q 53.515625 38.921875 53.515625 30.90625 
L 53.515625 0 
L 44.484375 0 
L 44.484375 32.71875 
Q 44.484375 40.625 41.703125 44.40625 
Q 38.921875 48.1875 33.109375 48.1875 
Q 26.21875 48.1875 22.15625 43.53125 
Q 18.109375 38.875 18.109375 30.90625 
L 18.109375 0 
L 9.078125 0 
L 9.078125 54.6875 
L 18.109375 54.6875 
L 18.109375 46.1875 
Q 21.1875 51.21875 25.484375 53.609375 
Q 29.78125 56 35.6875 56 
Q 41.65625 56 45.828125 52.96875 
Q 50 49.953125 52 44.1875 
z
" id="DejaVuSans-6d"/>
      <path d="M 56.203125 29.59375 
L 56.203125 25.203125 
L 14.890625 25.203125 
Q 15.484375 15.921875 20.484375 11.0625 
Q 25.484375 6.203125 34.421875 6.203125 
Q 39.59375 6.203125 44.453125 7.46875 
Q 49.3125 8.734375 54.109375 11.28125 
L 54.109375 2.78125 
Q 49.265625 0.734375 44.1875 -0.34375 
Q 39.109375 -1.421875 33.890625 -1.421875 
Q 20.796875 -1.421875 13.15625 6.1875 
Q 5.515625 13.8125 5.515625 26.8125 
Q 5.515625 40.234375 12.765625 48.109375 
Q 20.015625 56 32.328125 56 
Q 43.359375 56 49.78125 48.890625 
Q 56.203125 41.796875 56.203125 29.59375 
z
M 47.21875 32.234375 
Q 47.125 39.59375 43.09375 43.984375 
Q 39.0625 48.390625 32.421875 48.390625 
Q 24.90625 48.390625 20.390625 44.140625 
Q 15.875 39.890625 15.1875 32.171875 
z
" id="DejaVuSans-65"/>
      <path id="DejaVuSans-20"/>
      <path d="M 31 75.875 
Q 24.46875 64.65625 21.28125 53.65625 
Q 18.109375 42.671875 18.109375 31.390625 
Q 18.109375 20.125 21.3125 9.0625 
Q 24.515625 -2 31 -13.1875 
L 23.1875 -13.1875 
Q 15.875 -1.703125 12.234375 9.375 
Q 8.59375 20.453125 8.59375 31.390625 
Q 8.59375 42.28125 12.203125 53.3125 
Q 15.828125 64.359375 23.1875 75.875 
z
" id="DejaVuSans-28"/>
      <path d="M 53.515625 70.515625 
L 53.515625 60.890625 
Q 47.90625 63.578125 42.921875 64.890625 
Q 37.9375 66.21875 33.296875 66.21875 
Q 25.25 66.21875 20.875 63.09375 
Q 16.5 59.96875 16.5 54.203125 
Q 16.5 49.359375 19.40625 46.890625 
Q 22.3125 44.4375 30.421875 42.921875 
L 36.375 41.703125 
Q 47.40625 39.59375 52.65625 34.296875 
Q 57.90625 29 57.90625 20.125 
Q 57.90625 9.515625 50.796875 4.046875 
Q 43.703125 -1.421875 29.984375 -1.421875 
Q 24.8125 -1.421875 18.96875 -0.25 
Q 13.140625 0.921875 6.890625 3.21875 
L 6.890625 13.375 
Q 12.890625 10.015625 18.65625 8.296875 
Q 24.421875 6.59375 29.984375 6.59375 
Q 38.421875 6.59375 43.015625 9.90625 
Q 47.609375 13.234375 47.609375 19.390625 
Q 47.609375 24.75 44.3125 27.78125 
Q 41.015625 30.8125 33.5 32.328125 
L 27.484375 33.5 
Q 16.453125 35.6875 11.515625 40.375 
Q 6.59375 45.0625 6.59375 53.421875 
Q 6.59375 63.09375 13.40625 68.65625 
Q 20.21875 74.21875 32.171875 74.21875 
Q 37.3125 74.21875 42.625 73.28125 
Q 47.953125 72.359375 53.515625 70.515625 
z
" id="DejaVuSans-53"/>
      <path d="M 48.78125 52.59375 
L 48.78125 44.1875 
Q 44.96875 46.296875 41.140625 47.34375 
Q 37.3125 48.390625 33.40625 48.390625 
Q 24.65625 48.390625 19.8125 42.84375 
Q 14.984375 37.3125 14.984375 27.296875 
Q 14.984375 17.28125 19.8125 11.734375 
Q 24.65625 6.203125 33.40625 6.203125 
Q 37.3125 6.203125 41.140625 7.25 
Q 44.96875 8.296875 48.78125 10.40625 
L 48.78125 2.09375 
Q 45.015625 0.34375 40.984375 -0.53125 
Q 36.96875 -1.421875 32.421875 -1.421875 
Q 20.0625 -1.421875 12.78125 6.34375 
Q 5.515625 14.109375 5.515625 27.296875 
Q 5.515625 40.671875 12.859375 48.328125 
Q 20.21875 56 33.015625 56 
Q 37.15625 56 41.109375 55.140625 
Q 45.0625 54.296875 48.78125 52.59375 
z
" id="DejaVuSans-63"/>
      <path d="M 8.015625 75.875 
L 15.828125 75.875 
Q 23.140625 64.359375 26.78125 53.3125 
Q 30.421875 42.28125 30.421875 31.390625 
Q 30.421875 20.453125 26.78125 9.375 
Q 23.140625 -1.703125 15.828125 -13.1875 
L 8.015625 -13.1875 
Q 14.5 -2 17.703125 9.0625 
Q 20.90625 20.125 20.90625 31.390625 
Q 20.90625 42.671875 17.703125 53.65625 
Q 14.5 64.65625 8.015625 75.875 
z
" id="DejaVuSans-29"/>
     </defs>
     <g transform="translate(209.281875 335.860562)scale(0.1 -0.1)">
      <use xlink:href="#DejaVuSans-54"/>
      <use x="61.037109" xlink:href="#DejaVuSans-69"/>
      <use x="88.820312" xlink:href="#DejaVuSans-6d"/>
      <use x="186.232422" xlink:href="#DejaVuSans-65"/>
      <use x="247.755859" xlink:href="#DejaVuSans-20"/>
      <use x="279.542969" xlink:href="#DejaVuSans-28"/>
      <use x="318.556641" xlink:href="#DejaVuSans-53"/>
      <use x="382.033203" xlink:href="#DejaVuSans-65"/>
      <use x="443.556641" xlink:href="#DejaVuSans-63"/>
      <use x="498.537109" xlink:href="#DejaVuSans-29"/>
     </g>
    </g>
   </g>
   <g id="matplotlib.axis_4">
    <g id="ytick_6">
     <g id="line2d_25">
      <g>
       <use style="stroke:#000000;stroke-width:0.8;" x="57.6" xlink:href="#mf5567c7a3b" y="285.880422"/>
      </g>
     </g>
     <g id="text_25">
      <!-- −20 -->
      <g transform="translate(29.495313 289.679641)scale(0.1 -0.1)">
       <use xlink:href="#DejaVuSans-2212"/>
       <use x="83.789062" xlink:href="#DejaVuSans-32"/>
       <use x="147.412109" xlink:href="#DejaVuSans-30"/>
      </g>
     </g>
    </g>
    <g id="ytick_7">
     <g id="line2d_26">
      <g>
       <use style="stroke:#000000;stroke-width:0.8;" x="57.6" xlink:href="#mf5567c7a3b" y="243.087767"/>
      </g>
     </g>
     <g id="text_26">
      <!-- 0 -->
      <g transform="translate(44.2375 246.886986)scale(0.1 -0.1)">
       <use xlink:href="#DejaVuSans-30"/>
      </g>
     </g>
    </g>
    <g id="ytick_8">
     <g id="line2d_27">
      <g>
       <use style="stroke:#000000;stroke-width:0.8;" x="57.6" xlink:href="#mf5567c7a3b" y="200.295113"/>
      </g>
     </g>
     <g id="text_27">
      <!-- 20 -->
      <g transform="translate(37.875 204.094331)scale(0.1 -0.1)">
       <use xlink:href="#DejaVuSans-32"/>
       <use x="63.623047" xlink:href="#DejaVuSans-30"/>
      </g>
     </g>
    </g>
   </g>
   <g id="line2d_28">
    <path clip-path="url(#p781368bc28)" d="M 73.832727 238.570707 
L 75.021938 237.501636 
L 77.40036 234.914845 
L 78.58957 233.830599 
L 79.778781 233.168866 
L 80.967992 233.056102 
L 82.157203 233.517575 
L 83.346414 234.471301 
L 88.103257 239.570059 
L 89.292468 240.407905 
L 91.670889 241.757836 
L 92.8601 242.767202 
L 94.049311 244.339949 
L 95.238521 246.621847 
L 96.427732 249.590287 
L 98.806154 256.28584 
L 99.995365 258.921271 
L 101.184575 260.372807 
L 102.373786 260.333878 
L 103.562997 258.773595 
L 104.752208 255.975257 
L 107.130629 248.964259 
L 108.31984 246.010824 
L 109.509051 244.043179 
L 110.698262 243.221764 
L 111.887473 243.402528 
L 114.265894 245.002844 
L 115.455105 245.378695 
L 116.644316 244.946678 
L 117.833526 243.562837 
L 119.022737 241.323192 
L 122.59037 232.840467 
L 123.77958 230.618976 
L 124.968791 229.080842 
L 126.158002 228.331086 
L 127.347213 228.443975 
L 128.536424 229.461456 
L 129.725634 231.372069 
L 130.914845 234.096204 
L 132.104056 237.466046 
L 134.482478 244.881018 
L 135.671688 248.109372 
L 136.860899 250.532237 
L 138.05011 251.946806 
L 139.239321 252.327634 
L 140.428531 251.840494 
L 141.617742 250.807133 
L 142.806953 249.616608 
L 143.996164 248.626605 
L 145.185375 248.094086 
L 146.374585 248.136047 
L 147.563796 248.710568 
L 151.131429 251.578951 
L 152.320639 252.171494 
L 153.50985 252.35495 
L 154.699061 252.098515 
L 155.888272 251.417471 
L 157.077483 250.357084 
L 158.266693 248.982215 
L 160.645115 245.595595 
L 165.401958 238.246771 
L 167.78038 235.007575 
L 168.96959 233.60615 
L 170.158801 232.439809 
L 171.348012 231.593758 
L 172.537223 231.132959 
L 173.726434 231.082821 
L 174.915644 231.440178 
L 176.104855 232.211991 
L 177.294066 233.436903 
L 178.483277 235.167334 
L 179.672488 237.434642 
L 180.861698 240.223193 
L 183.24012 246.952379 
L 185.618541 253.802163 
L 186.807752 256.67489 
L 187.996963 258.969003 
L 189.186174 260.617677 
L 190.375385 261.575297 
L 191.564595 261.784443 
L 192.753806 261.190084 
L 193.943017 259.775076 
L 195.132228 257.582344 
L 196.321439 254.699383 
L 197.510649 251.209469 
L 198.69986 247.159655 
L 199.889071 242.571381 
L 202.267493 231.923516 
L 204.645914 220.352439 
L 205.835125 215.308773 
L 207.024336 211.636141 
L 208.213546 209.883616 
L 209.402757 210.335134 
L 210.591968 212.956373 
L 211.781179 217.402513 
L 212.97039 223.097955 
L 216.538022 241.356878 
L 217.727233 246.255888 
L 218.916444 250.043586 
L 220.105654 252.450161 
L 221.294865 253.243993 
L 222.484076 252.303663 
L 223.673287 249.666696 
L 224.862498 245.563555 
L 228.43013 229.839045 
L 229.619341 225.627125 
L 230.808551 222.723764 
L 231.997762 221.278394 
L 233.186973 221.250871 
L 234.376184 222.476647 
L 235.565395 224.723842 
L 236.754605 227.735549 
L 239.133027 235.044594 
L 241.511449 242.319002 
L 242.700659 245.24874 
L 243.88987 247.419274 
L 245.079081 248.737245 
L 246.268292 249.205704 
L 247.457502 248.883772 
L 248.646713 247.849906 
L 249.835924 246.189628 
L 251.025135 243.998156 
L 252.214346 241.385103 
L 255.781978 232.73432 
L 256.971189 230.411271 
L 258.1604 228.768258 
L 259.34961 227.925316 
L 260.538821 227.919676 
L 261.728032 228.771495 
L 262.917243 230.526387 
L 264.106454 233.236972 
L 265.295664 236.916754 
L 266.484875 241.501673 
L 270.052507 257.35451 
L 271.241718 261.149268 
L 272.430929 263.040349 
L 273.62014 262.671901 
L 274.809351 260.05094 
L 275.998561 255.565429 
L 279.566194 238.241368 
L 280.755405 233.527081 
L 281.944615 230.061124 
L 283.133826 228.006805 
L 284.323037 227.435978 
L 285.512248 228.347084 
L 286.701459 230.655889 
L 287.890669 234.192815 
L 289.07988 238.71367 
L 291.458302 249.475623 
L 293.836723 260.474256 
L 295.025934 265.484817 
L 296.215145 269.970855 
L 297.404356 273.73543 
L 298.593566 276.48673 
L 299.782777 277.908467 
L 300.971988 277.771187 
L 302.161199 276.007188 
L 303.35041 272.72102 
L 304.53962 268.149378 
L 305.728831 262.601582 
L 308.107253 249.863103 
L 311.674885 230.477983 
L 314.053307 219.281304 
L 315.242517 214.45365 
L 316.431728 210.153727 
L 317.620939 206.385817 
L 318.81015 203.248758 
L 319.999361 200.967065 
L 321.188571 199.816879 
L 322.377782 200.012331 
L 323.566993 201.627819 
L 324.756204 204.58891 
L 325.945415 208.719366 
L 327.134625 213.797673 
L 329.513047 225.879831 
L 335.459101 258.264749 
L 337.837522 269.422646 
L 339.026733 274.387821 
L 340.215944 278.777194 
L 341.405155 282.301851 
L 342.594366 284.621292 
L 343.783576 285.469869 
L 344.972787 284.741973 
L 346.161998 282.496605 
L 347.351209 278.894998 
L 348.54042 274.135377 
L 349.72963 268.423986 
L 352.108052 254.994198 
L 355.675684 233.490839 
L 356.864895 227.158552 
L 358.054106 221.693432 
L 359.243317 217.218805 
L 360.432527 213.744752 
L 361.621738 211.204233 
L 362.810949 209.491486 
L 364.00016 208.48311 
L 365.189371 208.046153 
L 366.378581 208.048359 
L 367.567792 208.413794 
L 368.757003 209.226614 
L 369.946214 210.759432 
L 371.135425 213.372004 
L 372.324635 217.362329 
L 373.513846 222.860317 
L 374.703057 229.779418 
L 377.081479 246.465771 
L 379.4599 263.553658 
L 380.649111 271.148596 
L 381.838322 277.762861 
L 383.027532 283.195862 
L 384.216743 287.223079 
L 385.405954 289.636376 
L 386.595165 290.323918 
L 387.784376 289.319872 
L 388.973586 286.784752 
L 390.162797 282.927485 
L 391.352008 277.941415 
L 392.541219 271.994434 
L 394.91964 257.888679 
L 398.487273 234.510047 
L 398.487273 234.510047 
" style="fill:none;stroke:#ff0000;stroke-linecap:square;stroke-width:2;"/>
   </g>
   <g id="line2d_29">
    <path clip-path="url(#p781368bc28)" d="M 73.832727 221.552662 
L 75.021938 239.400295 
L 76.211149 241.990281 
L 77.40036 225.81909 
L 78.58957 260.387254 
L 79.778781 238.906011 
L 80.967992 224.248702 
L 82.157203 228.925058 
L 83.346414 225.182089 
L 84.535624 224.936133 
L 85.724835 244.245483 
L 86.914046 249.195396 
L 88.103257 231.630426 
L 89.292468 246.424279 
L 90.481678 242.535547 
L 91.670889 237.037554 
L 92.8601 250.474639 
L 94.049311 248.380967 
L 95.238521 236.293624 
L 96.427732 247.144321 
L 97.616943 249.60185 
L 98.806154 256.980049 
L 99.995365 268.242243 
L 101.184575 268.032468 
L 102.373786 249.429739 
L 103.562997 250.718298 
L 104.752208 262.504114 
L 105.941419 257.083386 
L 107.130629 243.574929 
L 108.31984 244.858005 
L 109.509051 251.578176 
L 111.887473 238.50288 
L 113.076683 234.435289 
L 114.265894 250.140736 
L 115.455105 251.576019 
L 116.644316 242.586041 
L 117.833526 237.256214 
L 119.022737 257.607705 
L 120.211948 229.254797 
L 121.401159 237.77845 
L 122.59037 220.334595 
L 123.77958 234.376952 
L 124.968791 231.738392 
L 126.158002 237.696696 
L 127.347213 224.381791 
L 128.536424 224.100043 
L 129.725634 236.850993 
L 130.914845 232.725317 
L 132.104056 233.808201 
L 133.293267 249.478729 
L 134.482478 230.51839 
L 135.671688 256.775164 
L 136.860899 248.51402 
L 138.05011 255.72449 
L 139.239321 256.884363 
L 140.428531 240.182318 
L 141.617742 250.59304 
L 142.806953 257.374412 
L 143.996164 246.56023 
L 145.185375 247.974469 
L 146.374585 247.170882 
L 147.563796 259.723019 
L 148.753007 238.058263 
L 149.942218 247.912847 
L 151.131429 238.81153 
L 152.320639 270.955966 
L 153.50985 259.181284 
L 154.699061 254.883082 
L 155.888272 236.335439 
L 157.077483 248.586652 
L 158.266693 247.672676 
L 159.455904 250.182975 
L 160.645115 248.288068 
L 161.834326 259.076287 
L 163.023536 232.98914 
L 164.212747 225.087709 
L 165.401958 242.908586 
L 166.591169 239.974069 
L 167.78038 233.010311 
L 168.96959 246.671348 
L 170.158801 227.877518 
L 171.348012 217.512262 
L 172.537223 234.793162 
L 173.726434 237.894974 
L 174.915644 238.592918 
L 176.104855 220.83791 
L 177.294066 237.685084 
L 178.483277 234.374536 
L 179.672488 245.804393 
L 180.861698 219.794951 
L 182.050909 242.629769 
L 183.24012 256.073834 
L 184.429331 259.88172 
L 185.618541 243.07847 
L 186.807752 276.935323 
L 187.996963 247.554385 
L 189.186174 252.532504 
L 190.375385 269.358044 
L 191.564595 259.536862 
L 192.753806 254.801189 
L 193.943017 259.728955 
L 195.132228 253.679686 
L 196.321439 253.305551 
L 197.510649 256.942326 
L 198.69986 255.163593 
L 199.889071 248.353789 
L 201.078282 240.114151 
L 202.267493 225.639893 
L 203.456703 222.133851 
L 204.645914 213.01157 
L 205.835125 210.527704 
L 207.024336 212.965603 
L 208.213546 222.377547 
L 209.402757 212.358564 
L 210.591968 210.220752 
L 211.781179 204.81147 
L 212.97039 219.852313 
L 214.1596 241.841388 
L 215.348811 248.547474 
L 216.538022 243.967639 
L 217.727233 229.818841 
L 218.916444 251.924239 
L 220.105654 253.571201 
L 221.294865 245.532658 
L 222.484076 251.332784 
L 223.673287 242.845047 
L 224.862498 253.844976 
L 226.051708 247.424804 
L 228.43013 229.155118 
L 229.619341 232.839428 
L 230.808551 218.891495 
L 231.997762 212.783896 
L 233.186973 218.043448 
L 234.376184 217.185792 
L 235.565395 236.633517 
L 236.754605 218.675915 
L 237.943816 240.967703 
L 239.133027 228.069742 
L 240.322238 233.935609 
L 241.511449 259.186777 
L 242.700659 237.207313 
L 243.88987 249.755438 
L 245.079081 249.596856 
L 246.268292 252.889297 
L 247.457502 242.73151 
L 248.646713 244.907559 
L 249.835924 239.575423 
L 251.025135 247.347718 
L 252.214346 253.534253 
L 253.403556 225.572904 
L 254.592767 237.927377 
L 255.781978 233.53583 
L 256.971189 236.465268 
L 258.1604 228.571845 
L 259.34961 225.633369 
L 260.538821 244.505966 
L 261.728032 217.063745 
L 262.917243 222.157114 
L 264.106454 224.681626 
L 265.295664 239.238969 
L 266.484875 235.960313 
L 267.674086 258.537085 
L 268.863297 260.165289 
L 270.052507 263.186516 
L 271.241718 256.335381 
L 272.430929 261.882104 
L 273.62014 257.342687 
L 274.809351 251.484357 
L 275.998561 268.002723 
L 277.187772 254.501889 
L 278.376983 225.958964 
L 279.566194 249.502454 
L 280.755405 229.62814 
L 281.944615 224.31105 
L 283.133826 239.51177 
L 284.323037 220.513092 
L 285.512248 225.909958 
L 286.701459 245.2951 
L 287.890669 236.692919 
L 289.07988 234.426356 
L 290.269091 244.871876 
L 291.458302 231.54472 
L 292.647512 257.141372 
L 293.836723 260.102867 
L 295.025934 270.956884 
L 296.215145 269.348832 
L 297.404356 277.782138 
L 298.593566 280.932424 
L 299.782777 269.341613 
L 300.971988 289.990643 
L 302.161199 283.796551 
L 303.35041 260.670036 
L 304.53962 254.749252 
L 305.728831 259.714382 
L 306.918042 258.316855 
L 308.107253 273.576035 
L 309.296464 231.442552 
L 310.485674 230.785297 
L 311.674885 230.693492 
L 312.864096 224.65047 
L 314.053307 220.850174 
L 315.242517 222.773343 
L 316.431728 214.009716 
L 317.620939 201.647319 
L 318.81015 196.131025 
L 319.999361 202.217664 
L 321.188571 197.170199 
L 322.377782 199.752753 
L 323.566993 198.389792 
L 324.756204 209.898109 
L 325.945415 205.150376 
L 327.134625 215.198793 
L 328.323836 231.055496 
L 329.513047 227.475787 
L 330.702258 227.066418 
L 331.891469 240.932781 
L 333.080679 245.36766 
L 334.26989 242.782446 
L 335.459101 256.953977 
L 336.648312 263.53898 
L 337.837522 254.076661 
L 339.026733 287.664573 
L 340.215944 302.208 
L 341.405155 276.959448 
L 342.594366 276.833603 
L 343.783576 286.019131 
L 344.972787 283.273563 
L 346.161998 285.596941 
L 347.351209 272.347038 
L 348.54042 256.023126 
L 349.72963 288.63813 
L 350.918841 264.166152 
L 352.108052 259.616096 
L 353.297263 251.620762 
L 354.486474 227.685783 
L 355.675684 226.596002 
L 356.864895 233.798079 
L 358.054106 225.10662 
L 359.243317 212.652211 
L 360.432527 213.998675 
L 361.621738 214.499266 
L 362.810949 216.25616 
L 364.00016 205.833693 
L 365.189371 197.39261 
L 366.378581 222.87345 
L 367.567792 194.688 
L 368.757003 205.93436 
L 369.946214 213.176445 
L 371.135425 223.995049 
L 372.324635 226.449805 
L 373.513846 212.432351 
L 374.703057 224.84163 
L 375.892268 234.942683 
L 377.081479 243.452685 
L 379.4599 269.510561 
L 380.649111 277.365443 
L 381.838322 279.106276 
L 383.027532 286.304436 
L 384.216743 278.962063 
L 385.405954 280.447591 
L 386.595165 282.605368 
L 387.784376 295.3373 
L 388.973586 289.736574 
L 390.162797 297.178887 
L 391.352008 287.6369 
L 392.541219 256.229729 
L 393.73043 259.883036 
L 394.91964 252.178009 
L 396.108851 256.353435 
L 397.298062 249.716574 
L 398.487273 231.674531 
L 398.487273 231.674531 
" style="fill:none;stroke:#0000ff;stroke-linecap:square;stroke-width:2;"/>
   </g>
   <g id="patch_8">
    <path d="M 57.6 307.584 
L 57.6 189.312 
" style="fill:none;stroke:#000000;stroke-linecap:square;stroke-linejoin:miter;stroke-width:0.8;"/>
   </g>
   <g id="patch_9">
    <path d="M 414.72 307.584 
L 414.72 189.312 
" style="fill:none;stroke:#000000;stroke-linecap:square;stroke-linejoin:miter;stroke-width:0.8;"/>
   </g>
   <g id="patch_10">
    <path d="M 57.6 307.584 
L 414.72 307.584 
" style="fill:none;stroke:#000000;stroke-linecap:square;stroke-linejoin:miter;stroke-width:0.8;"/>
   </g>
   <g id="patch_11">
    <path d="M 57.6 189.312 
L 414.72 189.312 
" style="fill:none;stroke:#000000;stroke-linecap:square;stroke-linejoin:miter;stroke-width:0.8;"/>
   </g>
   <g id="text_28">
    <!-- BOLD signal -->
    <defs>
     <path d="M 19.671875 34.8125 
L 19.671875 8.109375 
L 35.5 8.109375 
Q 43.453125 8.109375 47.28125 11.40625 
Q 51.125 14.703125 51.125 21.484375 
Q 51.125 28.328125 47.28125 31.5625 
Q 43.453125 34.8125 35.5 34.8125 
z
M 19.671875 64.796875 
L 19.671875 42.828125 
L 34.28125 42.828125 
Q 41.5 42.828125 45.03125 45.53125 
Q 48.578125 48.25 48.578125 53.8125 
Q 48.578125 59.328125 45.03125 62.0625 
Q 41.5 64.796875 34.28125 64.796875 
z
M 9.8125 72.90625 
L 35.015625 72.90625 
Q 46.296875 72.90625 52.390625 68.21875 
Q 58.5 63.53125 58.5 54.890625 
Q 58.5 48.1875 55.375 44.234375 
Q 52.25 40.28125 46.1875 39.3125 
Q 53.46875 37.75 57.5 32.78125 
Q 61.53125 27.828125 61.53125 20.40625 
Q 61.53125 10.640625 54.890625 5.3125 
Q 48.25 0 35.984375 0 
L 9.8125 0 
z
" id="DejaVuSans-42"/>
     <path d="M 39.40625 66.21875 
Q 28.65625 66.21875 22.328125 58.203125 
Q 16.015625 50.203125 16.015625 36.375 
Q 16.015625 22.609375 22.328125 14.59375 
Q 28.65625 6.59375 39.40625 6.59375 
Q 50.140625 6.59375 56.421875 14.59375 
Q 62.703125 22.609375 62.703125 36.375 
Q 62.703125 50.203125 56.421875 58.203125 
Q 50.140625 66.21875 39.40625 66.21875 
z
M 39.40625 74.21875 
Q 54.734375 74.21875 63.90625 63.9375 
Q 73.09375 53.65625 73.09375 36.375 
Q 73.09375 19.140625 63.90625 8.859375 
Q 54.734375 -1.421875 39.40625 -1.421875 
Q 24.03125 -1.421875 14.8125 8.828125 
Q 5.609375 19.09375 5.609375 36.375 
Q 5.609375 53.65625 14.8125 63.9375 
Q 24.03125 74.21875 39.40625 74.21875 
z
" id="DejaVuSans-4f"/>
     <path d="M 9.8125 72.90625 
L 19.671875 72.90625 
L 19.671875 8.296875 
L 55.171875 8.296875 
L 55.171875 0 
L 9.8125 0 
z
" id="DejaVuSans-4c"/>
     <path d="M 19.671875 64.796875 
L 19.671875 8.109375 
L 31.59375 8.109375 
Q 46.6875 8.109375 53.6875 14.9375 
Q 60.6875 21.78125 60.6875 36.53125 
Q 60.6875 51.171875 53.6875 57.984375 
Q 46.6875 64.796875 31.59375 64.796875 
z
M 9.8125 72.90625 
L 30.078125 72.90625 
Q 51.265625 72.90625 61.171875 64.09375 
Q 71.09375 55.28125 71.09375 36.53125 
Q 71.09375 17.671875 61.125 8.828125 
Q 51.171875 0 30.078125 0 
L 9.8125 0 
z
" id="DejaVuSans-44"/>
     <path d="M 44.28125 53.078125 
L 44.28125 44.578125 
Q 40.484375 46.53125 36.375 47.5 
Q 32.28125 48.484375 27.875 48.484375 
Q 21.1875 48.484375 17.84375 46.4375 
Q 14.5 44.390625 14.5 40.28125 
Q 14.5 37.15625 16.890625 35.375 
Q 19.28125 33.59375 26.515625 31.984375 
L 29.59375 31.296875 
Q 39.15625 29.25 43.1875 25.515625 
Q 47.21875 21.78125 47.21875 15.09375 
Q 47.21875 7.46875 41.1875 3.015625 
Q 35.15625 -1.421875 24.609375 -1.421875 
Q 20.21875 -1.421875 15.453125 -0.5625 
Q 10.6875 0.296875 5.421875 2 
L 5.421875 11.28125 
Q 10.40625 8.6875 15.234375 7.390625 
Q 20.0625 6.109375 24.8125 6.109375 
Q 31.15625 6.109375 34.5625 8.28125 
Q 37.984375 10.453125 37.984375 14.40625 
Q 37.984375 18.0625 35.515625 20.015625 
Q 33.0625 21.96875 24.703125 23.78125 
L 21.578125 24.515625 
Q 13.234375 26.265625 9.515625 29.90625 
Q 5.8125 33.546875 5.8125 39.890625 
Q 5.8125 47.609375 11.28125 51.796875 
Q 16.75 56 26.8125 56 
Q 31.78125 56 36.171875 55.265625 
Q 40.578125 54.546875 44.28125 53.078125 
z
" id="DejaVuSans-73"/>
     <path d="M 45.40625 27.984375 
Q 45.40625 37.75 41.375 43.109375 
Q 37.359375 48.484375 30.078125 48.484375 
Q 22.859375 48.484375 18.828125 43.109375 
Q 14.796875 37.75 14.796875 27.984375 
Q 14.796875 18.265625 18.828125 12.890625 
Q 22.859375 7.515625 30.078125 7.515625 
Q 37.359375 7.515625 41.375 12.890625 
Q 45.40625 18.265625 45.40625 27.984375 
z
M 54.390625 6.78125 
Q 54.390625 -7.171875 48.1875 -13.984375 
Q 42 -20.796875 29.203125 -20.796875 
Q 24.46875 -20.796875 20.265625 -20.09375 
Q 16.0625 -19.390625 12.109375 -17.921875 
L 12.109375 -9.1875 
Q 16.0625 -11.328125 19.921875 -12.34375 
Q 23.78125 -13.375 27.78125 -13.375 
Q 36.625 -13.375 41.015625 -8.765625 
Q 45.40625 -4.15625 45.40625 5.171875 
L 45.40625 9.625 
Q 42.625 4.78125 38.28125 2.390625 
Q 33.9375 0 27.875 0 
Q 17.828125 0 11.671875 7.65625 
Q 5.515625 15.328125 5.515625 27.984375 
Q 5.515625 40.671875 11.671875 48.328125 
Q 17.828125 56 27.875 56 
Q 33.9375 56 38.28125 53.609375 
Q 42.625 51.21875 45.40625 46.390625 
L 45.40625 54.6875 
L 54.390625 54.6875 
z
" id="DejaVuSans-67"/>
     <path d="M 54.890625 33.015625 
L 54.890625 0 
L 45.90625 0 
L 45.90625 32.71875 
Q 45.90625 40.484375 42.875 44.328125 
Q 39.84375 48.1875 33.796875 48.1875 
Q 26.515625 48.1875 22.3125 43.546875 
Q 18.109375 38.921875 18.109375 30.90625 
L 18.109375 0 
L 9.078125 0 
L 9.078125 54.6875 
L 18.109375 54.6875 
L 18.109375 46.1875 
Q 21.34375 51.125 25.703125 53.5625 
Q 30.078125 56 35.796875 56 
Q 45.21875 56 50.046875 50.171875 
Q 54.890625 44.34375 54.890625 33.015625 
z
" id="DejaVuSans-6e"/>
     <path d="M 34.28125 27.484375 
Q 23.390625 27.484375 19.1875 25 
Q 14.984375 22.515625 14.984375 16.5 
Q 14.984375 11.71875 18.140625 8.90625 
Q 21.296875 6.109375 26.703125 6.109375 
Q 34.1875 6.109375 38.703125 11.40625 
Q 43.21875 16.703125 43.21875 25.484375 
L 43.21875 27.484375 
z
M 52.203125 31.203125 
L 52.203125 0 
L 43.21875 0 
L 43.21875 8.296875 
Q 40.140625 3.328125 35.546875 0.953125 
Q 30.953125 -1.421875 24.3125 -1.421875 
Q 15.921875 -1.421875 10.953125 3.296875 
Q 6 8.015625 6 15.921875 
Q 6 25.140625 12.171875 29.828125 
Q 18.359375 34.515625 30.609375 34.515625 
L 43.21875 34.515625 
L 43.21875 35.40625 
Q 43.21875 41.609375 39.140625 45 
Q 35.0625 48.390625 27.6875 48.390625 
Q 23 48.390625 18.546875 47.265625 
Q 14.109375 46.140625 10.015625 43.890625 
L 10.015625 52.203125 
Q 14.9375 54.109375 19.578125 55.046875 
Q 24.21875 56 28.609375 56 
Q 40.484375 56 46.34375 49.84375 
Q 52.203125 43.703125 52.203125 31.203125 
z
" id="DejaVuSans-61"/>
     <path d="M 9.421875 75.984375 
L 18.40625 75.984375 
L 18.40625 0 
L 9.421875 0 
z
" id="DejaVuSans-6c"/>
    </defs>
    <g transform="translate(199.703438 183.312)scale(0.12 -0.12)">
     <use xlink:href="#DejaVuSans-42"/>
     <use x="68.587891" xlink:href="#DejaVuSans-4f"/>
     <use x="147.298828" xlink:href="#DejaVuSans-4c"/>
     <use x="203.011719" xlink:href="#DejaVuSans-44"/>
     <use x="280.013672" xlink:href="#DejaVuSans-20"/>
     <use x="311.800781" xlink:href="#DejaVuSans-73"/>
     <use x="363.900391" xlink:href="#DejaVuSans-69"/>
     <use x="391.683594" xlink:href="#DejaVuSans-67"/>
     <use x="455.160156" xlink:href="#DejaVuSans-6e"/>
     <use x="518.539062" xlink:href="#DejaVuSans-61"/>
     <use x="579.818359" xlink:href="#DejaVuSans-6c"/>
    </g>
   </g>
  </g>
 </g>
 <defs>
  <clipPath id="p635fe458be">
   <rect height="118.272" width="357.12" x="57.6" y="41.472"/>
  </clipPath>
  <clipPath id="p781368bc28">
   <rect height="118.272" width="357.12" x="57.6" y="189.312"/>
  </clipPath>
 </defs>
</svg>
