<?xml version="1.0" encoding="utf-8" standalone="no"?>
<!DOCTYPE svg PUBLIC "-//W3C//DTD SVG 1.1//EN"
  "http://www.w3.org/Graphics/SVG/1.1/DTD/svg11.dtd">
<!-- Created with matplotlib (http://matplotlib.org/) -->
<svg height="345.6pt" version="1.1" viewBox="0 0 460.8 345.6" width="460.8pt" xmlns="http://www.w3.org/2000/svg" xmlns:xlink="http://www.w3.org/1999/xlink">
 <defs>
  <style type="text/css">
*{stroke-linecap:butt;stroke-linejoin:round;}
  </style>
 </defs>
 <g id="figure_1">
  <g id="patch_1">
   <path d="M 0 345.6 
L 460.8 345.6 
L 460.8 0 
L 0 0 
z
" style="fill:#ffffff;"/>
  </g>
  <g id="axes_1">
   <g id="patch_2">
    <path d="M 57.6 159.744 
L 414.72 159.744 
L 414.72 41.472 
L 57.6 41.472 
z
" style="fill:#ffffff;"/>
   </g>
   <g id="matplotlib.axis_1">
    <g id="xtick_1">
     <g id="line2d_1">
      <defs>
       <path d="M 0 0 
L 0 3.5 
" id="m53327097f0" style="stroke:#000000;stroke-width:0.8;"/>
      </defs>
      <g>
       <use style="stroke:#000000;stroke-width:0.8;" x="57.183776" xlink:href="#m53327097f0" y="159.744"/>
      </g>
     </g>
     <g id="text_1">
      <!-- 0 -->
      <defs>
       <path d="M 31.78125 66.40625 
Q 24.171875 66.40625 20.328125 58.90625 
Q 16.5 51.421875 16.5 36.375 
Q 16.5 21.390625 20.328125 13.890625 
Q 24.171875 6.390625 31.78125 6.390625 
Q 39.453125 6.390625 43.28125 13.890625 
Q 47.125 21.390625 47.125 36.375 
Q 47.125 51.421875 43.28125 58.90625 
Q 39.453125 66.40625 31.78125 66.40625 
z
M 31.78125 74.21875 
Q 44.046875 74.21875 50.515625 64.515625 
Q 56.984375 54.828125 56.984375 36.375 
Q 56.984375 17.96875 50.515625 8.265625 
Q 44.046875 -1.421875 31.78125 -1.421875 
Q 19.53125 -1.421875 13.0625 8.265625 
Q 6.59375 17.96875 6.59375 36.375 
Q 6.59375 54.828125 13.0625 64.515625 
Q 19.53125 74.21875 31.78125 74.21875 
z
" id="DejaVuSans-30"/>
      </defs>
      <g transform="translate(54.002526 174.342437)scale(0.1 -0.1)">
       <use xlink:href="#DejaVuSans-30"/>
      </g>
     </g>
    </g>
    <g id="xtick_2">
     <g id="line2d_2">
      <g>
       <use style="stroke:#000000;stroke-width:0.8;" x="98.475818" xlink:href="#m53327097f0" y="159.744"/>
      </g>
     </g>
     <g id="text_2">
      <!-- 25 -->
      <defs>
       <path d="M 19.1875 8.296875 
L 53.609375 8.296875 
L 53.609375 0 
L 7.328125 0 
L 7.328125 8.296875 
Q 12.9375 14.109375 22.625 23.890625 
Q 32.328125 33.6875 34.8125 36.53125 
Q 39.546875 41.84375 41.421875 45.53125 
Q 43.3125 49.21875 43.3125 52.78125 
Q 43.3125 58.59375 39.234375 62.25 
Q 35.15625 65.921875 28.609375 65.921875 
Q 23.96875 65.921875 18.8125 64.3125 
Q 13.671875 62.703125 7.8125 59.421875 
L 7.8125 69.390625 
Q 13.765625 71.78125 18.9375 73 
Q 24.125 74.21875 28.421875 74.21875 
Q 39.75 74.21875 46.484375 68.546875 
Q 53.21875 62.890625 53.21875 53.421875 
Q 53.21875 48.921875 51.53125 44.890625 
Q 49.859375 40.875 45.40625 35.40625 
Q 44.1875 33.984375 37.640625 27.21875 
Q 31.109375 20.453125 19.1875 8.296875 
z
" id="DejaVuSans-32"/>
       <path d="M 10.796875 72.90625 
L 49.515625 72.90625 
L 49.515625 64.59375 
L 19.828125 64.59375 
L 19.828125 46.734375 
Q 21.96875 47.46875 24.109375 47.828125 
Q 26.265625 48.1875 28.421875 48.1875 
Q 40.625 48.1875 47.75 41.5 
Q 54.890625 34.8125 54.890625 23.390625 
Q 54.890625 11.625 47.5625 5.09375 
Q 40.234375 -1.421875 26.90625 -1.421875 
Q 22.3125 -1.421875 17.546875 -0.640625 
Q 12.796875 0.140625 7.71875 1.703125 
L 7.71875 11.625 
Q 12.109375 9.234375 16.796875 8.0625 
Q 21.484375 6.890625 26.703125 6.890625 
Q 35.15625 6.890625 40.078125 11.328125 
Q 45.015625 15.765625 45.015625 23.390625 
Q 45.015625 31 40.078125 35.4375 
Q 35.15625 39.890625 26.703125 39.890625 
Q 22.75 39.890625 18.8125 39.015625 
Q 14.890625 38.140625 10.796875 36.28125 
z
" id="DejaVuSans-35"/>
      </defs>
      <g transform="translate(92.113318 174.342437)scale(0.1 -0.1)">
       <use xlink:href="#DejaVuSans-32"/>
       <use x="63.623047" xlink:href="#DejaVuSans-35"/>
      </g>
     </g>
    </g>
    <g id="xtick_3">
     <g id="line2d_3">
      <g>
       <use style="stroke:#000000;stroke-width:0.8;" x="139.767859" xlink:href="#m53327097f0" y="159.744"/>
      </g>
     </g>
     <g id="text_3">
      <!-- 50 -->
      <g transform="translate(133.405359 174.342437)scale(0.1 -0.1)">
       <use xlink:href="#DejaVuSans-35"/>
       <use x="63.623047" xlink:href="#DejaVuSans-30"/>
      </g>
     </g>
    </g>
    <g id="xtick_4">
     <g id="line2d_4">
      <g>
       <use style="stroke:#000000;stroke-width:0.8;" x="181.0599" xlink:href="#m53327097f0" y="159.744"/>
      </g>
     </g>
     <g id="text_4">
      <!-- 75 -->
      <defs>
       <path d="M 8.203125 72.90625 
L 55.078125 72.90625 
L 55.078125 68.703125 
L 28.609375 0 
L 18.3125 0 
L 43.21875 64.59375 
L 8.203125 64.59375 
z
" id="DejaVuSans-37"/>
      </defs>
      <g transform="translate(174.6974 174.342437)scale(0.1 -0.1)">
       <use xlink:href="#DejaVuSans-37"/>
       <use x="63.623047" xlink:href="#DejaVuSans-35"/>
      </g>
     </g>
    </g>
    <g id="xtick_5">
     <g id="line2d_5">
      <g>
       <use style="stroke:#000000;stroke-width:0.8;" x="222.351941" xlink:href="#m53327097f0" y="159.744"/>
      </g>
     </g>
     <g id="text_5">
      <!-- 100 -->
      <defs>
       <path d="M 12.40625 8.296875 
L 28.515625 8.296875 
L 28.515625 63.921875 
L 10.984375 60.40625 
L 10.984375 69.390625 
L 28.421875 72.90625 
L 38.28125 72.90625 
L 38.28125 8.296875 
L 54.390625 8.296875 
L 54.390625 0 
L 12.40625 0 
z
" id="DejaVuSans-31"/>
      </defs>
      <g transform="translate(212.808191 174.342437)scale(0.1 -0.1)">
       <use xlink:href="#DejaVuSans-31"/>
       <use x="63.623047" xlink:href="#DejaVuSans-30"/>
       <use x="127.246094" xlink:href="#DejaVuSans-30"/>
      </g>
     </g>
    </g>
    <g id="xtick_6">
     <g id="line2d_6">
      <g>
       <use style="stroke:#000000;stroke-width:0.8;" x="263.643983" xlink:href="#m53327097f0" y="159.744"/>
      </g>
     </g>
     <g id="text_6">
      <!-- 125 -->
      <g transform="translate(254.100233 174.342437)scale(0.1 -0.1)">
       <use xlink:href="#DejaVuSans-31"/>
       <use x="63.623047" xlink:href="#DejaVuSans-32"/>
       <use x="127.246094" xlink:href="#DejaVuSans-35"/>
      </g>
     </g>
    </g>
    <g id="xtick_7">
     <g id="line2d_7">
      <g>
       <use style="stroke:#000000;stroke-width:0.8;" x="304.936024" xlink:href="#m53327097f0" y="159.744"/>
      </g>
     </g>
     <g id="text_7">
      <!-- 150 -->
      <g transform="translate(295.392274 174.342437)scale(0.1 -0.1)">
       <use xlink:href="#DejaVuSans-31"/>
       <use x="63.623047" xlink:href="#DejaVuSans-35"/>
       <use x="127.246094" xlink:href="#DejaVuSans-30"/>
      </g>
     </g>
    </g>
    <g id="xtick_8">
     <g id="line2d_8">
      <g>
       <use style="stroke:#000000;stroke-width:0.8;" x="346.228065" xlink:href="#m53327097f0" y="159.744"/>
      </g>
     </g>
     <g id="text_8">
      <!-- 175 -->
      <g transform="translate(336.684315 174.342437)scale(0.1 -0.1)">
       <use xlink:href="#DejaVuSans-31"/>
       <use x="63.623047" xlink:href="#DejaVuSans-37"/>
       <use x="127.246094" xlink:href="#DejaVuSans-35"/>
      </g>
     </g>
    </g>
    <g id="xtick_9">
     <g id="line2d_9">
      <g>
       <use style="stroke:#000000;stroke-width:0.8;" x="387.520107" xlink:href="#m53327097f0" y="159.744"/>
      </g>
     </g>
     <g id="text_9">
      <!-- 200 -->
      <g transform="translate(377.976357 174.342437)scale(0.1 -0.1)">
       <use xlink:href="#DejaVuSans-32"/>
       <use x="63.623047" xlink:href="#DejaVuSans-30"/>
       <use x="127.246094" xlink:href="#DejaVuSans-30"/>
      </g>
     </g>
    </g>
   </g>
   <g id="matplotlib.axis_2">
    <g id="ytick_1">
     <g id="line2d_10">
      <defs>
       <path d="M 0 0 
L -3.5 0 
" id="m55744af23a" style="stroke:#000000;stroke-width:0.8;"/>
      </defs>
      <g>
       <use style="stroke:#000000;stroke-width:0.8;" x="57.6" xlink:href="#m55744af23a" y="155.91605"/>
      </g>
     </g>
     <g id="text_10">
      <!-- −4 -->
      <defs>
       <path d="M 10.59375 35.5 
L 73.1875 35.5 
L 73.1875 27.203125 
L 10.59375 27.203125 
z
" id="DejaVuSans-2212"/>
       <path d="M 37.796875 64.3125 
L 12.890625 25.390625 
L 37.796875 25.390625 
z
M 35.203125 72.90625 
L 47.609375 72.90625 
L 47.609375 25.390625 
L 58.015625 25.390625 
L 58.015625 17.1875 
L 47.609375 17.1875 
L 47.609375 0 
L 37.796875 0 
L 37.796875 17.1875 
L 4.890625 17.1875 
L 4.890625 26.703125 
z
" id="DejaVuSans-34"/>
      </defs>
      <g transform="translate(35.857813 159.715269)scale(0.1 -0.1)">
       <use xlink:href="#DejaVuSans-2212"/>
       <use x="83.789062" xlink:href="#DejaVuSans-34"/>
      </g>
     </g>
    </g>
    <g id="ytick_2">
     <g id="line2d_11">
      <g>
       <use style="stroke:#000000;stroke-width:0.8;" x="57.6" xlink:href="#m55744af23a" y="125.87745"/>
      </g>
     </g>
     <g id="text_11">
      <!-- −2 -->
      <g transform="translate(35.857813 129.676668)scale(0.1 -0.1)">
       <use xlink:href="#DejaVuSans-2212"/>
       <use x="83.789062" xlink:href="#DejaVuSans-32"/>
      </g>
     </g>
    </g>
    <g id="ytick_3">
     <g id="line2d_12">
      <g>
       <use style="stroke:#000000;stroke-width:0.8;" x="57.6" xlink:href="#m55744af23a" y="95.838849"/>
      </g>
     </g>
     <g id="text_12">
      <!-- 0 -->
      <g transform="translate(44.2375 99.638067)scale(0.1 -0.1)">
       <use xlink:href="#DejaVuSans-30"/>
      </g>
     </g>
    </g>
    <g id="ytick_4">
     <g id="line2d_13">
      <g>
       <use style="stroke:#000000;stroke-width:0.8;" x="57.6" xlink:href="#m55744af23a" y="65.800248"/>
      </g>
     </g>
     <g id="text_13">
      <!-- 2 -->
      <g transform="translate(44.2375 69.599466)scale(0.1 -0.1)">
       <use xlink:href="#DejaVuSans-32"/>
      </g>
     </g>
    </g>
   </g>
   <g id="line2d_14">
    <path clip-path="url(#pd9f8ce876c)" d="M 73.832727 95.183339 
L 78.58957 80.551994 
L 85.724835 101.522281 
L 92.8601 99.368313 
L 99.995365 109.637652 
L 107.130629 71.271018 
L 114.265894 107.822802 
L 121.401159 77.408813 
L 128.536424 101.300357 
L 135.671688 104.321582 
L 142.806953 100.749863 
L 149.942218 88.477068 
L 157.077483 92.54774 
L 164.212747 81.872788 
L 171.348012 89.830732 
L 178.483277 82.788497 
L 185.618541 109.816195 
L 192.753806 107.839585 
L 199.889071 60.521904 
L 207.024336 75.271261 
L 214.1596 134.541403 
L 221.294865 125.992758 
L 228.43013 77.235061 
L 235.565395 64.969608 
L 242.700659 110.744618 
L 249.835924 69.228788 
L 256.971189 98.414222 
L 264.106454 118.089598 
L 271.241718 132.852222 
L 278.376983 47.460668 
L 285.512248 46.848 
L 292.647512 97.235347 
L 299.782777 107.945524 
L 306.918042 154.368 
L 314.053307 131.100006 
L 321.188571 92.877511 
L 328.323836 62.009464 
L 335.459101 47.011852 
L 342.594366 102.043982 
L 349.72963 126.568175 
L 356.864895 147.9009 
L 364.00016 148.18001 
L 371.135425 87.462 
L 378.270689 51.936666 
L 385.405954 61.98004 
L 396.108851 100.030359 
L 398.487273 108.623038 
L 398.487273 108.623038 
" style="fill:none;stroke:#7e1e9c;stroke-linecap:square;stroke-width:2;"/>
   </g>
   <g id="patch_3">
    <path d="M 57.6 159.744 
L 57.6 41.472 
" style="fill:none;stroke:#000000;stroke-linecap:square;stroke-linejoin:miter;stroke-width:0.8;"/>
   </g>
   <g id="patch_4">
    <path d="M 414.72 159.744 
L 414.72 41.472 
" style="fill:none;stroke:#000000;stroke-linecap:square;stroke-linejoin:miter;stroke-width:0.8;"/>
   </g>
   <g id="patch_5">
    <path d="M 57.6 159.744 
L 414.72 159.744 
" style="fill:none;stroke:#000000;stroke-linecap:square;stroke-linejoin:miter;stroke-width:0.8;"/>
   </g>
   <g id="patch_6">
    <path d="M 57.6 41.472 
L 414.72 41.472 
" style="fill:none;stroke:#000000;stroke-linecap:square;stroke-linejoin:miter;stroke-width:0.8;"/>
   </g>
  </g>
  <g id="axes_2">
   <g id="patch_7">
    <path d="M 57.6 307.584 
L 414.72 307.584 
L 414.72 189.312 
L 57.6 189.312 
z
" style="fill:#ffffff;"/>
   </g>
   <g id="matplotlib.axis_3">
    <g id="xtick_10">
     <g id="line2d_15">
      <g>
       <use style="stroke:#000000;stroke-width:0.8;" x="57.183776" xlink:href="#m53327097f0" y="307.584"/>
      </g>
     </g>
     <g id="text_14">
      <!-- 0 -->
      <g transform="translate(54.002526 322.182437)scale(0.1 -0.1)">
       <use xlink:href="#DejaVuSans-30"/>
      </g>
     </g>
    </g>
    <g id="xtick_11">
     <g id="line2d_16">
      <g>
       <use style="stroke:#000000;stroke-width:0.8;" x="98.475818" xlink:href="#m53327097f0" y="307.584"/>
      </g>
     </g>
     <g id="text_15">
      <!-- 25 -->
      <g transform="translate(92.113318 322.182437)scale(0.1 -0.1)">
       <use xlink:href="#DejaVuSans-32"/>
       <use x="63.623047" xlink:href="#DejaVuSans-35"/>
      </g>
     </g>
    </g>
    <g id="xtick_12">
     <g id="line2d_17">
      <g>
       <use style="stroke:#000000;stroke-width:0.8;" x="139.767859" xlink:href="#m53327097f0" y="307.584"/>
      </g>
     </g>
     <g id="text_16">
      <!-- 50 -->
      <g transform="translate(133.405359 322.182437)scale(0.1 -0.1)">
       <use xlink:href="#DejaVuSans-35"/>
       <use x="63.623047" xlink:href="#DejaVuSans-30"/>
      </g>
     </g>
    </g>
    <g id="xtick_13">
     <g id="line2d_18">
      <g>
       <use style="stroke:#000000;stroke-width:0.8;" x="181.0599" xlink:href="#m53327097f0" y="307.584"/>
      </g>
     </g>
     <g id="text_17">
      <!-- 75 -->
      <g transform="translate(174.6974 322.182437)scale(0.1 -0.1)">
       <use xlink:href="#DejaVuSans-37"/>
       <use x="63.623047" xlink:href="#DejaVuSans-35"/>
      </g>
     </g>
    </g>
    <g id="xtick_14">
     <g id="line2d_19">
      <g>
       <use style="stroke:#000000;stroke-width:0.8;" x="222.351941" xlink:href="#m53327097f0" y="307.584"/>
      </g>
     </g>
     <g id="text_18">
      <!-- 100 -->
      <g transform="translate(212.808191 322.182437)scale(0.1 -0.1)">
       <use xlink:href="#DejaVuSans-31"/>
       <use x="63.623047" xlink:href="#DejaVuSans-30"/>
       <use x="127.246094" xlink:href="#DejaVuSans-30"/>
      </g>
     </g>
    </g>
    <g id="xtick_15">
     <g id="line2d_20">
      <g>
       <use style="stroke:#000000;stroke-width:0.8;" x="263.643983" xlink:href="#m53327097f0" y="307.584"/>
      </g>
     </g>
     <g id="text_19">
      <!-- 125 -->
      <g transform="translate(254.100233 322.182437)scale(0.1 -0.1)">
       <use xlink:href="#DejaVuSans-31"/>
       <use x="63.623047" xlink:href="#DejaVuSans-32"/>
       <use x="127.246094" xlink:href="#DejaVuSans-35"/>
      </g>
     </g>
    </g>
    <g id="xtick_16">
     <g id="line2d_21">
      <g>
       <use style="stroke:#000000;stroke-width:0.8;" x="304.936024" xlink:href="#m53327097f0" y="307.584"/>
      </g>
     </g>
     <g id="text_20">
      <!-- 150 -->
      <g transform="translate(295.392274 322.182437)scale(0.1 -0.1)">
       <use xlink:href="#DejaVuSans-31"/>
       <use x="63.623047" xlink:href="#DejaVuSans-35"/>
       <use x="127.246094" xlink:href="#DejaVuSans-30"/>
      </g>
     </g>
    </g>
    <g id="xtick_17">
     <g id="line2d_22">
      <g>
       <use style="stroke:#000000;stroke-width:0.8;" x="346.228065" xlink:href="#m53327097f0" y="307.584"/>
      </g>
     </g>
     <g id="text_21">
      <!-- 175 -->
      <g transform="translate(336.684315 322.182437)scale(0.1 -0.1)">
       <use xlink:href="#DejaVuSans-31"/>
       <use x="63.623047" xlink:href="#DejaVuSans-37"/>
       <use x="127.246094" xlink:href="#DejaVuSans-35"/>
      </g>
     </g>
    </g>
    <g id="xtick_18">
     <g id="line2d_23">
      <g>
       <use style="stroke:#000000;stroke-width:0.8;" x="387.520107" xlink:href="#m53327097f0" y="307.584"/>
      </g>
     </g>
     <g id="text_22">
      <!-- 200 -->
      <g transform="translate(377.976357 322.182437)scale(0.1 -0.1)">
       <use xlink:href="#DejaVuSans-32"/>
       <use x="63.623047" xlink:href="#DejaVuSans-30"/>
       <use x="127.246094" xlink:href="#DejaVuSans-30"/>
      </g>
     </g>
    </g>
    <g id="text_23">
     <!-- Time (Sec) -->
     <defs>
      <path d="M -0.296875 72.90625 
L 61.375 72.90625 
L 61.375 64.59375 
L 35.5 64.59375 
L 35.5 0 
L 25.59375 0 
L 25.59375 64.59375 
L -0.296875 64.59375 
z
" id="DejaVuSans-54"/>
      <path d="M 9.421875 54.6875 
L 18.40625 54.6875 
L 18.40625 0 
L 9.421875 0 
z
M 9.421875 75.984375 
L 18.40625 75.984375 
L 18.40625 64.59375 
L 9.421875 64.59375 
z
" id="DejaVuSans-69"/>
      <path d="M 52 44.1875 
Q 55.375 50.25 60.0625 53.125 
Q 64.75 56 71.09375 56 
Q 79.640625 56 84.28125 50.015625 
Q 88.921875 44.046875 88.921875 33.015625 
L 88.921875 0 
L 79.890625 0 
L 79.890625 32.71875 
Q 79.890625 40.578125 77.09375 44.375 
Q 74.3125 48.1875 68.609375 48.1875 
Q 61.625 48.1875 57.5625 43.546875 
Q 53.515625 38.921875 53.515625 30.90625 
L 53.515625 0 
L 44.484375 0 
L 44.484375 32.71875 
Q 44.484375 40.625 41.703125 44.40625 
Q 38.921875 48.1875 33.109375 48.1875 
Q 26.21875 48.1875 22.15625 43.53125 
Q 18.109375 38.875 18.109375 30.90625 
L 18.109375 0 
L 9.078125 0 
L 9.078125 54.6875 
L 18.109375 54.6875 
L 18.109375 46.1875 
Q 21.1875 51.21875 25.484375 53.609375 
Q 29.78125 56 35.6875 56 
Q 41.65625 56 45.828125 52.96875 
Q 50 49.953125 52 44.1875 
z
" id="DejaVuSans-6d"/>
      <path d="M 56.203125 29.59375 
L 56.203125 25.203125 
L 14.890625 25.203125 
Q 15.484375 15.921875 20.484375 11.0625 
Q 25.484375 6.203125 34.421875 6.203125 
Q 39.59375 6.203125 44.453125 7.46875 
Q 49.3125 8.734375 54.109375 11.28125 
L 54.109375 2.78125 
Q 49.265625 0.734375 44.1875 -0.34375 
Q 39.109375 -1.421875 33.890625 -1.421875 
Q 20.796875 -1.421875 13.15625 6.1875 
Q 5.515625 13.8125 5.515625 26.8125 
Q 5.515625 40.234375 12.765625 48.109375 
Q 20.015625 56 32.328125 56 
Q 43.359375 56 49.78125 48.890625 
Q 56.203125 41.796875 56.203125 29.59375 
z
M 47.21875 32.234375 
Q 47.125 39.59375 43.09375 43.984375 
Q 39.0625 48.390625 32.421875 48.390625 
Q 24.90625 48.390625 20.390625 44.140625 
Q 15.875 39.890625 15.1875 32.171875 
z
" id="DejaVuSans-65"/>
      <path id="DejaVuSans-20"/>
      <path d="M 31 75.875 
Q 24.46875 64.65625 21.28125 53.65625 
Q 18.109375 42.671875 18.109375 31.390625 
Q 18.109375 20.125 21.3125 9.0625 
Q 24.515625 -2 31 -13.1875 
L 23.1875 -13.1875 
Q 15.875 -1.703125 12.234375 9.375 
Q 8.59375 20.453125 8.59375 31.390625 
Q 8.59375 42.28125 12.203125 53.3125 
Q 15.828125 64.359375 23.1875 75.875 
z
" id="DejaVuSans-28"/>
      <path d="M 53.515625 70.515625 
L 53.515625 60.890625 
Q 47.90625 63.578125 42.921875 64.890625 
Q 37.9375 66.21875 33.296875 66.21875 
Q 25.25 66.21875 20.875 63.09375 
Q 16.5 59.96875 16.5 54.203125 
Q 16.5 49.359375 19.40625 46.890625 
Q 22.3125 44.4375 30.421875 42.921875 
L 36.375 41.703125 
Q 47.40625 39.59375 52.65625 34.296875 
Q 57.90625 29 57.90625 20.125 
Q 57.90625 9.515625 50.796875 4.046875 
Q 43.703125 -1.421875 29.984375 -1.421875 
Q 24.8125 -1.421875 18.96875 -0.25 
Q 13.140625 0.921875 6.890625 3.21875 
L 6.890625 13.375 
Q 12.890625 10.015625 18.65625 8.296875 
Q 24.421875 6.59375 29.984375 6.59375 
Q 38.421875 6.59375 43.015625 9.90625 
Q 47.609375 13.234375 47.609375 19.390625 
Q 47.609375 24.75 44.3125 27.78125 
Q 41.015625 30.8125 33.5 32.328125 
L 27.484375 33.5 
Q 16.453125 35.6875 11.515625 40.375 
Q 6.59375 45.0625 6.59375 53.421875 
Q 6.59375 63.09375 13.40625 68.65625 
Q 20.21875 74.21875 32.171875 74.21875 
Q 37.3125 74.21875 42.625 73.28125 
Q 47.953125 72.359375 53.515625 70.515625 
z
" id="DejaVuSans-53"/>
      <path d="M 48.78125 52.59375 
L 48.78125 44.1875 
Q 44.96875 46.296875 41.140625 47.34375 
Q 37.3125 48.390625 33.40625 48.390625 
Q 24.65625 48.390625 19.8125 42.84375 
Q 14.984375 37.3125 14.984375 27.296875 
Q 14.984375 17.28125 19.8125 11.734375 
Q 24.65625 6.203125 33.40625 6.203125 
Q 37.3125 6.203125 41.140625 7.25 
Q 44.96875 8.296875 48.78125 10.40625 
L 48.78125 2.09375 
Q 45.015625 0.34375 40.984375 -0.53125 
Q 36.96875 -1.421875 32.421875 -1.421875 
Q 20.0625 -1.421875 12.78125 6.34375 
Q 5.515625 14.109375 5.515625 27.296875 
Q 5.515625 40.671875 12.859375 48.328125 
Q 20.21875 56 33.015625 56 
Q 37.15625 56 41.109375 55.140625 
Q 45.0625 54.296875 48.78125 52.59375 
z
" id="DejaVuSans-63"/>
      <path d="M 8.015625 75.875 
L 15.828125 75.875 
Q 23.140625 64.359375 26.78125 53.3125 
Q 30.421875 42.28125 30.421875 31.390625 
Q 30.421875 20.453125 26.78125 9.375 
Q 23.140625 -1.703125 15.828125 -13.1875 
L 8.015625 -13.1875 
Q 14.5 -2 17.703125 9.0625 
Q 20.90625 20.125 20.90625 31.390625 
Q 20.90625 42.671875 17.703125 53.65625 
Q 14.5 64.65625 8.015625 75.875 
z
" id="DejaVuSans-29"/>
     </defs>
     <g transform="translate(209.281875 335.860562)scale(0.1 -0.1)">
      <use xlink:href="#DejaVuSans-54"/>
      <use x="61.037109" xlink:href="#DejaVuSans-69"/>
      <use x="88.820312" xlink:href="#DejaVuSans-6d"/>
      <use x="186.232422" xlink:href="#DejaVuSans-65"/>
      <use x="247.755859" xlink:href="#DejaVuSans-20"/>
      <use x="279.542969" xlink:href="#DejaVuSans-28"/>
      <use x="318.556641" xlink:href="#DejaVuSans-53"/>
      <use x="382.033203" xlink:href="#DejaVuSans-65"/>
      <use x="443.556641" xlink:href="#DejaVuSans-63"/>
      <use x="498.537109" xlink:href="#DejaVuSans-29"/>
     </g>
    </g>
   </g>
   <g id="matplotlib.axis_4">
    <g id="ytick_5">
     <g id="line2d_24">
      <g>
       <use style="stroke:#000000;stroke-width:0.8;" x="57.6" xlink:href="#m55744af23a" y="304.041847"/>
      </g>
     </g>
     <g id="text_24">
      <!-- −20 -->
      <g transform="translate(29.495313 307.841066)scale(0.1 -0.1)">
       <use xlink:href="#DejaVuSans-2212"/>
       <use x="83.789062" xlink:href="#DejaVuSans-32"/>
       <use x="147.412109" xlink:href="#DejaVuSans-30"/>
      </g>
     </g>
    </g>
    <g id="ytick_6">
     <g id="line2d_25">
      <g>
       <use style="stroke:#000000;stroke-width:0.8;" x="57.6" xlink:href="#m55744af23a" y="276.848724"/>
      </g>
     </g>
     <g id="text_25">
      <!-- −10 -->
      <g transform="translate(29.495313 280.647943)scale(0.1 -0.1)">
       <use xlink:href="#DejaVuSans-2212"/>
       <use x="83.789062" xlink:href="#DejaVuSans-31"/>
       <use x="147.412109" xlink:href="#DejaVuSans-30"/>
      </g>
     </g>
    </g>
    <g id="ytick_7">
     <g id="line2d_26">
      <g>
       <use style="stroke:#000000;stroke-width:0.8;" x="57.6" xlink:href="#m55744af23a" y="249.655601"/>
      </g>
     </g>
     <g id="text_26">
      <!-- 0 -->
      <g transform="translate(44.2375 253.454819)scale(0.1 -0.1)">
       <use xlink:href="#DejaVuSans-30"/>
      </g>
     </g>
    </g>
    <g id="ytick_8">
     <g id="line2d_27">
      <g>
       <use style="stroke:#000000;stroke-width:0.8;" x="57.6" xlink:href="#m55744af23a" y="222.462477"/>
      </g>
     </g>
     <g id="text_27">
      <!-- 10 -->
      <g transform="translate(37.875 226.261696)scale(0.1 -0.1)">
       <use xlink:href="#DejaVuSans-31"/>
       <use x="63.623047" xlink:href="#DejaVuSans-30"/>
      </g>
     </g>
    </g>
    <g id="ytick_9">
     <g id="line2d_28">
      <g>
       <use style="stroke:#000000;stroke-width:0.8;" x="57.6" xlink:href="#m55744af23a" y="195.269354"/>
      </g>
     </g>
     <g id="text_28">
      <!-- 20 -->
      <g transform="translate(37.875 199.068573)scale(0.1 -0.1)">
       <use xlink:href="#DejaVuSans-32"/>
       <use x="63.623047" xlink:href="#DejaVuSans-30"/>
      </g>
     </g>
    </g>
   </g>
   <g id="line2d_29">
    <path clip-path="url(#pc530c8c122)" d="M 73.832727 248.449142 
L 75.021938 248.996976 
L 77.40036 250.541692 
L 78.58957 251.055416 
L 79.778781 251.081006 
L 80.967992 250.480764 
L 82.157203 249.249567 
L 85.724835 244.107926 
L 86.914046 243.082303 
L 88.103257 242.853302 
L 89.292468 243.481237 
L 90.481678 244.857064 
L 92.8601 248.803465 
L 94.049311 250.771457 
L 95.238521 252.419958 
L 96.427732 253.634341 
L 97.616943 254.41324 
L 98.806154 254.850713 
L 102.373786 255.568167 
L 104.752208 256.367543 
L 105.941419 256.553734 
L 107.130629 256.213545 
L 108.31984 255.084322 
L 109.509051 253.022926 
L 110.698262 250.07355 
L 113.076683 242.962253 
L 114.265894 239.978737 
L 115.455105 238.139777 
L 116.644316 237.783907 
L 117.833526 238.959783 
L 119.022737 241.377155 
L 121.401159 247.491216 
L 122.59037 249.841791 
L 123.77958 251.067278 
L 124.968791 251.005674 
L 126.158002 249.815925 
L 129.725634 244.314685 
L 130.914845 243.497998 
L 132.104056 243.647188 
L 133.293267 244.721614 
L 134.482478 246.50413 
L 138.05011 253.045861 
L 139.239321 254.805935 
L 140.428531 256.139558 
L 141.617742 257.014945 
L 142.806953 257.443778 
L 143.996164 257.47058 
L 145.185375 257.162059 
L 146.374585 256.590855 
L 147.563796 255.814507 
L 148.753007 254.864743 
L 149.942218 253.753838 
L 152.320639 251.084548 
L 155.888272 246.595999 
L 157.077483 245.367259 
L 158.266693 244.461578 
L 159.455904 243.937184 
L 160.645115 243.789871 
L 161.834326 243.943277 
L 164.212747 244.577866 
L 165.401958 244.750835 
L 166.591169 244.679373 
L 167.78038 244.331023 
L 170.158801 243.086327 
L 171.348012 242.479756 
L 172.537223 242.085864 
L 173.726434 242.002995 
L 174.915644 242.258836 
L 176.104855 242.798514 
L 178.483277 244.194611 
L 179.672488 244.747056 
L 180.861698 245.052921 
L 182.050909 245.088701 
L 184.429331 244.823112 
L 185.618541 244.972351 
L 186.807752 245.612138 
L 187.996963 246.874664 
L 189.186174 248.770304 
L 191.564595 253.805316 
L 192.753806 256.381212 
L 193.943017 258.616277 
L 195.132228 260.317388 
L 196.321439 261.366407 
L 197.510649 261.653927 
L 198.69986 261.040126 
L 199.889071 259.385364 
L 201.078282 256.610284 
L 202.267493 252.739697 
L 203.456703 247.94333 
L 207.024336 232.379702 
L 208.213546 228.615017 
L 209.402757 226.211736 
L 210.591968 225.288124 
L 211.781179 225.862098 
L 212.97039 227.923404 
L 214.1596 231.43783 
L 215.348811 236.315805 
L 216.538022 242.387334 
L 218.916444 256.800752 
L 220.105654 264.080012 
L 221.294865 270.56605 
L 222.484076 275.739095 
L 223.673287 279.294465 
L 224.862498 281.138791 
L 226.051708 281.30224 
L 227.240919 279.859858 
L 228.43013 276.914909 
L 229.619341 272.617159 
L 230.808551 267.177467 
L 233.186973 254.104482 
L 235.565395 240.908846 
L 236.754605 235.295517 
L 237.943816 230.678664 
L 239.133027 227.166909 
L 240.322238 224.852526 
L 241.511449 223.86838 
L 242.700659 224.352479 
L 243.88987 226.372547 
L 245.079081 229.869443 
L 246.268292 234.599414 
L 248.646713 245.517166 
L 249.835924 250.163675 
L 251.025135 253.326145 
L 252.214346 254.601378 
L 253.403556 253.934608 
L 254.592767 251.661049 
L 258.1604 242.302004 
L 259.34961 240.632601 
L 260.538821 240.316367 
L 261.728032 241.342147 
L 262.917243 243.50284 
L 264.106454 246.483221 
L 270.052507 263.599843 
L 271.241718 266.285358 
L 272.430929 268.597026 
L 273.62014 270.55646 
L 274.809351 272.139185 
L 275.998561 273.140953 
L 277.187772 273.140802 
L 278.376983 271.629254 
L 279.566194 268.196222 
L 280.755405 262.666239 
L 281.944615 255.182143 
L 284.323037 236.738454 
L 285.512248 227.558311 
L 286.701459 219.550104 
L 287.890669 213.270918 
L 289.07988 208.990204 
L 290.269091 206.790047 
L 291.458302 206.661746 
L 292.647512 208.529183 
L 293.836723 212.231032 
L 295.025934 217.509191 
L 296.215145 224.002764 
L 299.782777 245.724517 
L 300.971988 251.987781 
L 302.161199 257.178319 
L 303.35041 261.224764 
L 304.53962 264.27232 
L 305.728831 266.645854 
L 308.107253 270.974739 
L 309.296464 273.585116 
L 310.485674 276.680076 
L 312.864096 283.455877 
L 314.053307 286.232076 
L 315.242517 287.980761 
L 316.431728 288.422801 
L 317.620939 287.477843 
L 318.81015 285.219438 
L 319.999361 281.812021 
L 321.188571 277.466059 
L 323.566993 266.880915 
L 328.323836 244.144292 
L 330.702258 234.519451 
L 331.891469 230.374322 
L 333.080679 226.686718 
L 334.26989 223.476565 
L 335.459101 220.766756 
L 336.648312 218.562556 
L 337.837522 216.841857 
L 339.026733 215.597388 
L 340.215944 214.931115 
L 341.405155 215.08651 
L 342.594366 216.366748 
L 343.783576 219.010007 
L 344.972787 223.101147 
L 346.161998 228.533057 
L 348.54042 242.056694 
L 350.918841 255.981241 
L 352.108052 262.091348 
L 353.297263 267.357764 
L 354.486474 271.73948 
L 355.675684 275.289495 
L 356.864895 278.119598 
L 358.054106 280.371035 
L 359.243317 282.190388 
L 360.432527 283.700102 
L 361.621738 284.962512 
L 362.810949 285.969294 
L 364.00016 286.669343 
L 365.189371 287.011532 
L 366.378581 286.97249 
L 367.567792 286.529794 
L 368.757003 285.581696 
L 369.946214 283.916139 
L 371.135425 281.27724 
L 372.324635 277.469216 
L 373.513846 272.429557 
L 374.703057 266.259503 
L 377.081479 251.715273 
L 379.4599 236.921525 
L 380.649111 230.284394 
L 381.838322 224.41913 
L 383.027532 219.473155 
L 384.216743 215.607535 
L 385.405954 212.968995 
L 386.595165 211.632588 
L 387.784376 211.565698 
L 388.973586 212.63813 
L 390.162797 214.669847 
L 391.352008 217.475833 
L 392.541219 220.884055 
L 394.91964 228.879099 
L 398.487273 241.772294 
L 398.487273 241.772294 
" style="fill:none;stroke:#7e1e9c;stroke-linecap:square;stroke-width:2;"/>
   </g>
   <g id="line2d_30">
    <path clip-path="url(#pc530c8c122)" d="M 73.832727 248.028958 
L 75.021938 244.932952 
L 76.211149 256.354474 
L 77.40036 256.655461 
L 78.58957 248.491865 
L 79.778781 259.340658 
L 80.967992 257.012883 
L 82.157203 245.393588 
L 83.346414 239.14015 
L 84.535624 233.871372 
L 85.724835 242.228031 
L 86.914046 244.869647 
L 88.103257 242.825273 
L 89.292468 248.206787 
L 91.670889 249.131335 
L 92.8601 268.220497 
L 94.049311 246.662339 
L 95.238521 242.888793 
L 96.427732 231.954173 
L 97.616943 240.466669 
L 98.806154 277.84722 
L 99.995365 266.806019 
L 101.184575 261.79109 
L 102.373786 254.456882 
L 103.562997 237.935682 
L 104.752208 269.032048 
L 105.941419 252.135085 
L 107.130629 243.644514 
L 108.31984 254.825946 
L 109.509051 258.937948 
L 110.698262 248.431012 
L 111.887473 260.59557 
L 113.076683 250.450164 
L 114.265894 219.014406 
L 115.455105 247.809552 
L 116.644316 234.935638 
L 117.833526 241.597812 
L 119.022737 229.85531 
L 120.211948 248.841342 
L 121.401159 246.70786 
L 122.59037 251.798393 
L 123.77958 267.78264 
L 124.968791 244.738608 
L 126.158002 234.476424 
L 127.347213 251.468067 
L 128.536424 242.562844 
L 129.725634 241.121329 
L 130.914845 260.188706 
L 132.104056 242.978056 
L 133.293267 248.521616 
L 134.482478 251.51271 
L 135.671688 227.178848 
L 136.860899 241.257329 
L 138.05011 260.173739 
L 139.239321 261.609282 
L 140.428531 260.535033 
L 141.617742 258.600695 
L 142.806953 257.27255 
L 143.996164 256.532745 
L 145.185375 252.59693 
L 146.374585 280.046246 
L 147.563796 244.019209 
L 148.753007 243.068004 
L 149.942218 244.9242 
L 151.131429 252.782818 
L 152.320639 244.218215 
L 153.50985 260.235384 
L 154.699061 254.837318 
L 155.888272 263.166441 
L 157.077483 237.660525 
L 158.266693 240.158222 
L 159.455904 253.183014 
L 160.645115 233.762785 
L 161.834326 230.92778 
L 163.023536 249.067246 
L 164.212747 247.045327 
L 165.401958 235.218849 
L 166.591169 252.154424 
L 167.78038 256.005552 
L 168.96959 239.02695 
L 170.158801 246.864462 
L 171.348012 231.247205 
L 172.537223 253.057754 
L 173.726434 236.067459 
L 174.915644 246.873352 
L 176.104855 221.37357 
L 177.294066 263.63784 
L 178.483277 244.462918 
L 179.672488 244.47122 
L 180.861698 243.143945 
L 182.050909 246.800405 
L 183.24012 232.192808 
L 184.429331 250.442862 
L 185.618541 248.648206 
L 186.807752 253.989072 
L 187.996963 247.782668 
L 189.186174 236.234239 
L 190.375385 248.235169 
L 191.564595 248.968846 
L 192.753806 269.86314 
L 193.943017 262.649714 
L 195.132228 261.203296 
L 196.321439 256.745324 
L 197.510649 254.777552 
L 198.69986 262.04419 
L 199.889071 272.585474 
L 201.078282 240.143001 
L 202.267493 243.927406 
L 203.456703 262.014261 
L 205.835125 241.238148 
L 207.024336 223.947484 
L 208.213546 229.596741 
L 209.402757 209.39516 
L 210.591968 233.396342 
L 211.781179 225.704787 
L 212.97039 235.582483 
L 214.1596 241.091217 
L 215.348811 233.209828 
L 216.538022 227.364777 
L 217.727233 248.404661 
L 218.916444 264.518895 
L 220.105654 256.202991 
L 221.294865 268.116871 
L 222.484076 296.764837 
L 223.673287 271.844075 
L 224.862498 289.777919 
L 226.051708 260.661561 
L 227.240919 286.975858 
L 228.43013 280.445016 
L 229.619341 270.446 
L 230.808551 252.963396 
L 231.997762 264.749128 
L 233.186973 263.752567 
L 234.376184 246.886112 
L 235.565395 250.361934 
L 236.754605 234.232835 
L 237.943816 231.167123 
L 239.133027 225.39769 
L 240.322238 215.741282 
L 241.511449 224.778172 
L 242.700659 219.517224 
L 243.88987 209.665983 
L 245.079081 245.743218 
L 246.268292 251.737617 
L 247.457502 248.37249 
L 248.646713 237.781086 
L 249.835924 234.992966 
L 251.025135 246.181347 
L 252.214346 259.538608 
L 253.403556 261.03449 
L 254.592767 257.745666 
L 255.781978 241.853523 
L 256.971189 240.305739 
L 258.1604 262.652471 
L 259.34961 230.246963 
L 260.538821 235.471778 
L 261.728032 227.290293 
L 262.917243 240.278756 
L 264.106454 263.385278 
L 265.295664 261.478529 
L 266.484875 257.437195 
L 267.674086 242.725452 
L 268.863297 273.33367 
L 270.052507 241.815142 
L 271.241718 271.582336 
L 272.430929 258.285307 
L 273.62014 272.642186 
L 274.809351 285.473609 
L 275.998561 262.870704 
L 277.187772 287.813964 
L 278.376983 276.514251 
L 279.566194 262.162507 
L 280.755405 259.212668 
L 281.944615 262.41623 
L 283.133826 245.369033 
L 284.323037 225.147287 
L 285.512248 219.490443 
L 286.701459 209.784065 
L 287.890669 222.82355 
L 289.07988 230.859414 
L 290.269091 207.855218 
L 291.458302 204.942486 
L 292.647512 201.523238 
L 293.836723 216.20597 
L 295.025934 205.818862 
L 296.215145 212.149504 
L 297.404356 242.415585 
L 298.593566 244.658398 
L 299.782777 257.107768 
L 300.971988 250.134828 
L 302.161199 254.577404 
L 303.35041 245.482408 
L 304.53962 271.169501 
L 305.728831 263.977818 
L 306.918042 275.106599 
L 308.107253 265.29467 
L 309.296464 277.113114 
L 310.485674 279.587925 
L 311.674885 283.131625 
L 312.864096 262.500911 
L 314.053307 302.208 
L 315.242517 296.049935 
L 316.431728 286.662645 
L 317.620939 280.05869 
L 318.81015 285.840365 
L 319.999361 280.583433 
L 321.188571 273.322754 
L 322.377782 261.33449 
L 323.566993 295.622237 
L 324.756204 260.562555 
L 325.945415 235.351988 
L 327.134625 251.585773 
L 328.323836 257.603496 
L 329.513047 225.739319 
L 330.702258 245.086415 
L 331.891469 221.318758 
L 333.080679 234.450143 
L 334.26989 231.903604 
L 335.459101 194.688 
L 336.648312 225.863585 
L 337.837522 230.692737 
L 339.026733 206.159976 
L 340.215944 229.87055 
L 341.405155 200.332931 
L 342.594366 209.66299 
L 343.783576 224.947759 
L 344.972787 223.784191 
L 346.161998 241.151826 
L 347.351209 221.333071 
L 348.54042 257.347822 
L 349.72963 243.346366 
L 350.918841 236.209327 
L 352.108052 262.962844 
L 354.486474 284.620746 
L 355.675684 274.751029 
L 356.864895 285.076881 
L 358.054106 271.969375 
L 359.243317 272.570958 
L 360.432527 275.669909 
L 361.621738 296.52862 
L 362.810949 285.762951 
L 364.00016 297.209412 
L 365.189371 283.993146 
L 366.378581 279.094931 
L 367.567792 282.546783 
L 368.757003 292.679695 
L 369.946214 283.692659 
L 371.135425 281.599856 
L 372.324635 273.679134 
L 373.513846 284.755819 
L 374.703057 262.642724 
L 375.892268 237.105293 
L 377.081479 243.119583 
L 378.270689 270.992237 
L 379.4599 248.177254 
L 380.649111 237.855131 
L 381.838322 218.663497 
L 383.027532 202.557622 
L 384.216743 212.499192 
L 385.405954 208.716186 
L 386.595165 200.063021 
L 388.973586 228.827503 
L 390.162797 229.70086 
L 391.352008 224.199789 
L 392.541219 200.6285 
L 393.73043 228.674929 
L 394.91964 216.204976 
L 396.108851 237.438958 
L 397.298062 241.680941 
L 398.487273 238.148003 
L 398.487273 238.148003 
" style="fill:none;stroke:#0343df;stroke-linecap:square;stroke-width:2;"/>
   </g>
   <g id="patch_8">
    <path d="M 57.6 307.584 
L 57.6 189.312 
" style="fill:none;stroke:#000000;stroke-linecap:square;stroke-linejoin:miter;stroke-width:0.8;"/>
   </g>
   <g id="patch_9">
    <path d="M 414.72 307.584 
L 414.72 189.312 
" style="fill:none;stroke:#000000;stroke-linecap:square;stroke-linejoin:miter;stroke-width:0.8;"/>
   </g>
   <g id="patch_10">
    <path d="M 57.6 307.584 
L 414.72 307.584 
" style="fill:none;stroke:#000000;stroke-linecap:square;stroke-linejoin:miter;stroke-width:0.8;"/>
   </g>
   <g id="patch_11">
    <path d="M 57.6 189.312 
L 414.72 189.312 
" style="fill:none;stroke:#000000;stroke-linecap:square;stroke-linejoin:miter;stroke-width:0.8;"/>
   </g>
  </g>
 </g>
 <defs>
  <clipPath id="pd9f8ce876c">
   <rect height="118.272" width="357.12" x="57.6" y="41.472"/>
  </clipPath>
  <clipPath id="pc530c8c122">
   <rect height="118.272" width="357.12" x="57.6" y="189.312"/>
  </clipPath>
 </defs>
</svg>
