<?xml version="1.0" encoding="utf-8" standalone="no"?>
<!DOCTYPE svg PUBLIC "-//W3C//DTD SVG 1.1//EN"
  "http://www.w3.org/Graphics/SVG/1.1/DTD/svg11.dtd">
<!-- Created with matplotlib (http://matplotlib.org/) -->
<svg height="345.6pt" version="1.1" viewBox="0 0 460.8 345.6" width="460.8pt" xmlns="http://www.w3.org/2000/svg" xmlns:xlink="http://www.w3.org/1999/xlink">
 <defs>
  <style type="text/css">
*{stroke-linecap:butt;stroke-linejoin:round;}
  </style>
 </defs>
 <g id="figure_1">
  <g id="patch_1">
   <path d="M 0 345.6 
L 460.8 345.6 
L 460.8 0 
L 0 0 
z
" style="fill:#ffffff;"/>
  </g>
  <g id="axes_1">
   <g id="patch_2">
    <path d="M 57.6 159.744 
L 414.72 159.744 
L 414.72 41.472 
L 57.6 41.472 
z
" style="fill:#ffffff;"/>
   </g>
   <g id="matplotlib.axis_1">
    <g id="xtick_1">
     <g id="line2d_1">
      <defs>
       <path d="M 0 0 
L 0 3.5 
" id="m1ffb9749fb" style="stroke:#000000;stroke-width:0.8;"/>
      </defs>
      <g>
       <use style="stroke:#000000;stroke-width:0.8;" x="57.183776" xlink:href="#m1ffb9749fb" y="159.744"/>
      </g>
     </g>
     <g id="text_1">
      <!-- 0 -->
      <defs>
       <path d="M 31.78125 66.40625 
Q 24.171875 66.40625 20.328125 58.90625 
Q 16.5 51.421875 16.5 36.375 
Q 16.5 21.390625 20.328125 13.890625 
Q 24.171875 6.390625 31.78125 6.390625 
Q 39.453125 6.390625 43.28125 13.890625 
Q 47.125 21.390625 47.125 36.375 
Q 47.125 51.421875 43.28125 58.90625 
Q 39.453125 66.40625 31.78125 66.40625 
z
M 31.78125 74.21875 
Q 44.046875 74.21875 50.515625 64.515625 
Q 56.984375 54.828125 56.984375 36.375 
Q 56.984375 17.96875 50.515625 8.265625 
Q 44.046875 -1.421875 31.78125 -1.421875 
Q 19.53125 -1.421875 13.0625 8.265625 
Q 6.59375 17.96875 6.59375 36.375 
Q 6.59375 54.828125 13.0625 64.515625 
Q 19.53125 74.21875 31.78125 74.21875 
z
" id="DejaVuSans-30"/>
      </defs>
      <g transform="translate(54.002526 174.342437)scale(0.1 -0.1)">
       <use xlink:href="#DejaVuSans-30"/>
      </g>
     </g>
    </g>
    <g id="xtick_2">
     <g id="line2d_2">
      <g>
       <use style="stroke:#000000;stroke-width:0.8;" x="98.475818" xlink:href="#m1ffb9749fb" y="159.744"/>
      </g>
     </g>
     <g id="text_2">
      <!-- 25 -->
      <defs>
       <path d="M 19.1875 8.296875 
L 53.609375 8.296875 
L 53.609375 0 
L 7.328125 0 
L 7.328125 8.296875 
Q 12.9375 14.109375 22.625 23.890625 
Q 32.328125 33.6875 34.8125 36.53125 
Q 39.546875 41.84375 41.421875 45.53125 
Q 43.3125 49.21875 43.3125 52.78125 
Q 43.3125 58.59375 39.234375 62.25 
Q 35.15625 65.921875 28.609375 65.921875 
Q 23.96875 65.921875 18.8125 64.3125 
Q 13.671875 62.703125 7.8125 59.421875 
L 7.8125 69.390625 
Q 13.765625 71.78125 18.9375 73 
Q 24.125 74.21875 28.421875 74.21875 
Q 39.75 74.21875 46.484375 68.546875 
Q 53.21875 62.890625 53.21875 53.421875 
Q 53.21875 48.921875 51.53125 44.890625 
Q 49.859375 40.875 45.40625 35.40625 
Q 44.1875 33.984375 37.640625 27.21875 
Q 31.109375 20.453125 19.1875 8.296875 
z
" id="DejaVuSans-32"/>
       <path d="M 10.796875 72.90625 
L 49.515625 72.90625 
L 49.515625 64.59375 
L 19.828125 64.59375 
L 19.828125 46.734375 
Q 21.96875 47.46875 24.109375 47.828125 
Q 26.265625 48.1875 28.421875 48.1875 
Q 40.625 48.1875 47.75 41.5 
Q 54.890625 34.8125 54.890625 23.390625 
Q 54.890625 11.625 47.5625 5.09375 
Q 40.234375 -1.421875 26.90625 -1.421875 
Q 22.3125 -1.421875 17.546875 -0.640625 
Q 12.796875 0.140625 7.71875 1.703125 
L 7.71875 11.625 
Q 12.109375 9.234375 16.796875 8.0625 
Q 21.484375 6.890625 26.703125 6.890625 
Q 35.15625 6.890625 40.078125 11.328125 
Q 45.015625 15.765625 45.015625 23.390625 
Q 45.015625 31 40.078125 35.4375 
Q 35.15625 39.890625 26.703125 39.890625 
Q 22.75 39.890625 18.8125 39.015625 
Q 14.890625 38.140625 10.796875 36.28125 
z
" id="DejaVuSans-35"/>
      </defs>
      <g transform="translate(92.113318 174.342437)scale(0.1 -0.1)">
       <use xlink:href="#DejaVuSans-32"/>
       <use x="63.623047" xlink:href="#DejaVuSans-35"/>
      </g>
     </g>
    </g>
    <g id="xtick_3">
     <g id="line2d_3">
      <g>
       <use style="stroke:#000000;stroke-width:0.8;" x="139.767859" xlink:href="#m1ffb9749fb" y="159.744"/>
      </g>
     </g>
     <g id="text_3">
      <!-- 50 -->
      <g transform="translate(133.405359 174.342437)scale(0.1 -0.1)">
       <use xlink:href="#DejaVuSans-35"/>
       <use x="63.623047" xlink:href="#DejaVuSans-30"/>
      </g>
     </g>
    </g>
    <g id="xtick_4">
     <g id="line2d_4">
      <g>
       <use style="stroke:#000000;stroke-width:0.8;" x="181.0599" xlink:href="#m1ffb9749fb" y="159.744"/>
      </g>
     </g>
     <g id="text_4">
      <!-- 75 -->
      <defs>
       <path d="M 8.203125 72.90625 
L 55.078125 72.90625 
L 55.078125 68.703125 
L 28.609375 0 
L 18.3125 0 
L 43.21875 64.59375 
L 8.203125 64.59375 
z
" id="DejaVuSans-37"/>
      </defs>
      <g transform="translate(174.6974 174.342437)scale(0.1 -0.1)">
       <use xlink:href="#DejaVuSans-37"/>
       <use x="63.623047" xlink:href="#DejaVuSans-35"/>
      </g>
     </g>
    </g>
    <g id="xtick_5">
     <g id="line2d_5">
      <g>
       <use style="stroke:#000000;stroke-width:0.8;" x="222.351941" xlink:href="#m1ffb9749fb" y="159.744"/>
      </g>
     </g>
     <g id="text_5">
      <!-- 100 -->
      <defs>
       <path d="M 12.40625 8.296875 
L 28.515625 8.296875 
L 28.515625 63.921875 
L 10.984375 60.40625 
L 10.984375 69.390625 
L 28.421875 72.90625 
L 38.28125 72.90625 
L 38.28125 8.296875 
L 54.390625 8.296875 
L 54.390625 0 
L 12.40625 0 
z
" id="DejaVuSans-31"/>
      </defs>
      <g transform="translate(212.808191 174.342437)scale(0.1 -0.1)">
       <use xlink:href="#DejaVuSans-31"/>
       <use x="63.623047" xlink:href="#DejaVuSans-30"/>
       <use x="127.246094" xlink:href="#DejaVuSans-30"/>
      </g>
     </g>
    </g>
    <g id="xtick_6">
     <g id="line2d_6">
      <g>
       <use style="stroke:#000000;stroke-width:0.8;" x="263.643983" xlink:href="#m1ffb9749fb" y="159.744"/>
      </g>
     </g>
     <g id="text_6">
      <!-- 125 -->
      <g transform="translate(254.100233 174.342437)scale(0.1 -0.1)">
       <use xlink:href="#DejaVuSans-31"/>
       <use x="63.623047" xlink:href="#DejaVuSans-32"/>
       <use x="127.246094" xlink:href="#DejaVuSans-35"/>
      </g>
     </g>
    </g>
    <g id="xtick_7">
     <g id="line2d_7">
      <g>
       <use style="stroke:#000000;stroke-width:0.8;" x="304.936024" xlink:href="#m1ffb9749fb" y="159.744"/>
      </g>
     </g>
     <g id="text_7">
      <!-- 150 -->
      <g transform="translate(295.392274 174.342437)scale(0.1 -0.1)">
       <use xlink:href="#DejaVuSans-31"/>
       <use x="63.623047" xlink:href="#DejaVuSans-35"/>
       <use x="127.246094" xlink:href="#DejaVuSans-30"/>
      </g>
     </g>
    </g>
    <g id="xtick_8">
     <g id="line2d_8">
      <g>
       <use style="stroke:#000000;stroke-width:0.8;" x="346.228065" xlink:href="#m1ffb9749fb" y="159.744"/>
      </g>
     </g>
     <g id="text_8">
      <!-- 175 -->
      <g transform="translate(336.684315 174.342437)scale(0.1 -0.1)">
       <use xlink:href="#DejaVuSans-31"/>
       <use x="63.623047" xlink:href="#DejaVuSans-37"/>
       <use x="127.246094" xlink:href="#DejaVuSans-35"/>
      </g>
     </g>
    </g>
    <g id="xtick_9">
     <g id="line2d_9">
      <g>
       <use style="stroke:#000000;stroke-width:0.8;" x="387.520107" xlink:href="#m1ffb9749fb" y="159.744"/>
      </g>
     </g>
     <g id="text_9">
      <!-- 200 -->
      <g transform="translate(377.976357 174.342437)scale(0.1 -0.1)">
       <use xlink:href="#DejaVuSans-32"/>
       <use x="63.623047" xlink:href="#DejaVuSans-30"/>
       <use x="127.246094" xlink:href="#DejaVuSans-30"/>
      </g>
     </g>
    </g>
   </g>
   <g id="matplotlib.axis_2">
    <g id="ytick_1">
     <g id="line2d_10">
      <defs>
       <path d="M 0 0 
L -3.5 0 
" id="m1d31f36073" style="stroke:#000000;stroke-width:0.8;"/>
      </defs>
      <g>
       <use style="stroke:#000000;stroke-width:0.8;" x="57.6" xlink:href="#m1d31f36073" y="146.0959"/>
      </g>
     </g>
     <g id="text_10">
      <!-- −4 -->
      <defs>
       <path d="M 10.59375 35.5 
L 73.1875 35.5 
L 73.1875 27.203125 
L 10.59375 27.203125 
z
" id="DejaVuSans-2212"/>
       <path d="M 37.796875 64.3125 
L 12.890625 25.390625 
L 37.796875 25.390625 
z
M 35.203125 72.90625 
L 47.609375 72.90625 
L 47.609375 25.390625 
L 58.015625 25.390625 
L 58.015625 17.1875 
L 47.609375 17.1875 
L 47.609375 0 
L 37.796875 0 
L 37.796875 17.1875 
L 4.890625 17.1875 
L 4.890625 26.703125 
z
" id="DejaVuSans-34"/>
      </defs>
      <g transform="translate(35.857813 149.895118)scale(0.1 -0.1)">
       <use xlink:href="#DejaVuSans-2212"/>
       <use x="83.789062" xlink:href="#DejaVuSans-34"/>
      </g>
     </g>
    </g>
    <g id="ytick_2">
     <g id="line2d_11">
      <g>
       <use style="stroke:#000000;stroke-width:0.8;" x="57.6" xlink:href="#m1d31f36073" y="113.292728"/>
      </g>
     </g>
     <g id="text_11">
      <!-- −2 -->
      <g transform="translate(35.857813 117.091946)scale(0.1 -0.1)">
       <use xlink:href="#DejaVuSans-2212"/>
       <use x="83.789062" xlink:href="#DejaVuSans-32"/>
      </g>
     </g>
    </g>
    <g id="ytick_3">
     <g id="line2d_12">
      <g>
       <use style="stroke:#000000;stroke-width:0.8;" x="57.6" xlink:href="#m1d31f36073" y="80.489556"/>
      </g>
     </g>
     <g id="text_12">
      <!-- 0 -->
      <g transform="translate(44.2375 84.288774)scale(0.1 -0.1)">
       <use xlink:href="#DejaVuSans-30"/>
      </g>
     </g>
    </g>
    <g id="ytick_4">
     <g id="line2d_13">
      <g>
       <use style="stroke:#000000;stroke-width:0.8;" x="57.6" xlink:href="#m1d31f36073" y="47.686383"/>
      </g>
     </g>
     <g id="text_13">
      <!-- 2 -->
      <g transform="translate(44.2375 51.485602)scale(0.1 -0.1)">
       <use xlink:href="#DejaVuSans-32"/>
      </g>
     </g>
    </g>
   </g>
   <g id="line2d_14">
    <path clip-path="url(#pbb8c932368)" d="M 73.832727 101.974375 
L 78.58957 82.262212 
L 85.724835 81.334771 
L 92.8601 77.14613 
L 99.995365 93.320319 
L 107.130629 96.894271 
L 114.265894 70.550112 
L 121.401159 70.535307 
L 128.536424 68.326574 
L 135.671688 80.308658 
L 142.806953 101.508869 
L 149.942218 77.841779 
L 157.077483 57.469287 
L 164.212747 86.134839 
L 171.348012 106.671573 
L 178.483277 93.050942 
L 185.618541 61.022429 
L 192.753806 53.366521 
L 199.889071 49.941558 
L 207.024336 79.670904 
L 214.1596 54.472982 
L 221.294865 154.368 
L 228.43013 93.732821 
L 237.943816 70.246812 
L 242.700659 58.147425 
L 249.835924 46.848 
L 256.971189 132.498501 
L 264.106454 77.474147 
L 271.241718 92.802916 
L 278.376983 71.587355 
L 285.512248 92.264337 
L 292.647512 76.063581 
L 299.782777 85.257064 
L 306.918042 66.177387 
L 314.053307 114.065235 
L 321.188571 78.389084 
L 328.323836 83.605842 
L 335.459101 67.630034 
L 342.594366 99.491369 
L 349.72963 69.990157 
L 356.864895 82.276431 
L 364.00016 97.135886 
L 371.135425 60.779018 
L 378.270689 91.907252 
L 385.405954 90.035965 
L 392.541219 60.944937 
L 398.487273 77.092005 
L 398.487273 77.092005 
" style="fill:none;stroke:#ff0000;stroke-linecap:square;stroke-width:2;"/>
   </g>
   <g id="patch_3">
    <path d="M 57.6 159.744 
L 57.6 41.472 
" style="fill:none;stroke:#000000;stroke-linecap:square;stroke-linejoin:miter;stroke-width:0.8;"/>
   </g>
   <g id="patch_4">
    <path d="M 414.72 159.744 
L 414.72 41.472 
" style="fill:none;stroke:#000000;stroke-linecap:square;stroke-linejoin:miter;stroke-width:0.8;"/>
   </g>
   <g id="patch_5">
    <path d="M 57.6 159.744 
L 414.72 159.744 
" style="fill:none;stroke:#000000;stroke-linecap:square;stroke-linejoin:miter;stroke-width:0.8;"/>
   </g>
   <g id="patch_6">
    <path d="M 57.6 41.472 
L 414.72 41.472 
" style="fill:none;stroke:#000000;stroke-linecap:square;stroke-linejoin:miter;stroke-width:0.8;"/>
   </g>
  </g>
  <g id="axes_2">
   <g id="patch_7">
    <path d="M 57.6 307.584 
L 414.72 307.584 
L 414.72 189.312 
L 57.6 189.312 
z
" style="fill:#ffffff;"/>
   </g>
   <g id="matplotlib.axis_3">
    <g id="xtick_10">
     <g id="line2d_15">
      <g>
       <use style="stroke:#000000;stroke-width:0.8;" x="57.183776" xlink:href="#m1ffb9749fb" y="307.584"/>
      </g>
     </g>
     <g id="text_14">
      <!-- 0 -->
      <g transform="translate(54.002526 322.182437)scale(0.1 -0.1)">
       <use xlink:href="#DejaVuSans-30"/>
      </g>
     </g>
    </g>
    <g id="xtick_11">
     <g id="line2d_16">
      <g>
       <use style="stroke:#000000;stroke-width:0.8;" x="98.475818" xlink:href="#m1ffb9749fb" y="307.584"/>
      </g>
     </g>
     <g id="text_15">
      <!-- 25 -->
      <g transform="translate(92.113318 322.182437)scale(0.1 -0.1)">
       <use xlink:href="#DejaVuSans-32"/>
       <use x="63.623047" xlink:href="#DejaVuSans-35"/>
      </g>
     </g>
    </g>
    <g id="xtick_12">
     <g id="line2d_17">
      <g>
       <use style="stroke:#000000;stroke-width:0.8;" x="139.767859" xlink:href="#m1ffb9749fb" y="307.584"/>
      </g>
     </g>
     <g id="text_16">
      <!-- 50 -->
      <g transform="translate(133.405359 322.182437)scale(0.1 -0.1)">
       <use xlink:href="#DejaVuSans-35"/>
       <use x="63.623047" xlink:href="#DejaVuSans-30"/>
      </g>
     </g>
    </g>
    <g id="xtick_13">
     <g id="line2d_18">
      <g>
       <use style="stroke:#000000;stroke-width:0.8;" x="181.0599" xlink:href="#m1ffb9749fb" y="307.584"/>
      </g>
     </g>
     <g id="text_17">
      <!-- 75 -->
      <g transform="translate(174.6974 322.182437)scale(0.1 -0.1)">
       <use xlink:href="#DejaVuSans-37"/>
       <use x="63.623047" xlink:href="#DejaVuSans-35"/>
      </g>
     </g>
    </g>
    <g id="xtick_14">
     <g id="line2d_19">
      <g>
       <use style="stroke:#000000;stroke-width:0.8;" x="222.351941" xlink:href="#m1ffb9749fb" y="307.584"/>
      </g>
     </g>
     <g id="text_18">
      <!-- 100 -->
      <g transform="translate(212.808191 322.182437)scale(0.1 -0.1)">
       <use xlink:href="#DejaVuSans-31"/>
       <use x="63.623047" xlink:href="#DejaVuSans-30"/>
       <use x="127.246094" xlink:href="#DejaVuSans-30"/>
      </g>
     </g>
    </g>
    <g id="xtick_15">
     <g id="line2d_20">
      <g>
       <use style="stroke:#000000;stroke-width:0.8;" x="263.643983" xlink:href="#m1ffb9749fb" y="307.584"/>
      </g>
     </g>
     <g id="text_19">
      <!-- 125 -->
      <g transform="translate(254.100233 322.182437)scale(0.1 -0.1)">
       <use xlink:href="#DejaVuSans-31"/>
       <use x="63.623047" xlink:href="#DejaVuSans-32"/>
       <use x="127.246094" xlink:href="#DejaVuSans-35"/>
      </g>
     </g>
    </g>
    <g id="xtick_16">
     <g id="line2d_21">
      <g>
       <use style="stroke:#000000;stroke-width:0.8;" x="304.936024" xlink:href="#m1ffb9749fb" y="307.584"/>
      </g>
     </g>
     <g id="text_20">
      <!-- 150 -->
      <g transform="translate(295.392274 322.182437)scale(0.1 -0.1)">
       <use xlink:href="#DejaVuSans-31"/>
       <use x="63.623047" xlink:href="#DejaVuSans-35"/>
       <use x="127.246094" xlink:href="#DejaVuSans-30"/>
      </g>
     </g>
    </g>
    <g id="xtick_17">
     <g id="line2d_22">
      <g>
       <use style="stroke:#000000;stroke-width:0.8;" x="346.228065" xlink:href="#m1ffb9749fb" y="307.584"/>
      </g>
     </g>
     <g id="text_21">
      <!-- 175 -->
      <g transform="translate(336.684315 322.182437)scale(0.1 -0.1)">
       <use xlink:href="#DejaVuSans-31"/>
       <use x="63.623047" xlink:href="#DejaVuSans-37"/>
       <use x="127.246094" xlink:href="#DejaVuSans-35"/>
      </g>
     </g>
    </g>
    <g id="xtick_18">
     <g id="line2d_23">
      <g>
       <use style="stroke:#000000;stroke-width:0.8;" x="387.520107" xlink:href="#m1ffb9749fb" y="307.584"/>
      </g>
     </g>
     <g id="text_22">
      <!-- 200 -->
      <g transform="translate(377.976357 322.182437)scale(0.1 -0.1)">
       <use xlink:href="#DejaVuSans-32"/>
       <use x="63.623047" xlink:href="#DejaVuSans-30"/>
       <use x="127.246094" xlink:href="#DejaVuSans-30"/>
      </g>
     </g>
    </g>
    <g id="text_23">
     <!-- Time (Sec) -->
     <defs>
      <path d="M -0.296875 72.90625 
L 61.375 72.90625 
L 61.375 64.59375 
L 35.5 64.59375 
L 35.5 0 
L 25.59375 0 
L 25.59375 64.59375 
L -0.296875 64.59375 
z
" id="DejaVuSans-54"/>
      <path d="M 9.421875 54.6875 
L 18.40625 54.6875 
L 18.40625 0 
L 9.421875 0 
z
M 9.421875 75.984375 
L 18.40625 75.984375 
L 18.40625 64.59375 
L 9.421875 64.59375 
z
" id="DejaVuSans-69"/>
      <path d="M 52 44.1875 
Q 55.375 50.25 60.0625 53.125 
Q 64.75 56 71.09375 56 
Q 79.640625 56 84.28125 50.015625 
Q 88.921875 44.046875 88.921875 33.015625 
L 88.921875 0 
L 79.890625 0 
L 79.890625 32.71875 
Q 79.890625 40.578125 77.09375 44.375 
Q 74.3125 48.1875 68.609375 48.1875 
Q 61.625 48.1875 57.5625 43.546875 
Q 53.515625 38.921875 53.515625 30.90625 
L 53.515625 0 
L 44.484375 0 
L 44.484375 32.71875 
Q 44.484375 40.625 41.703125 44.40625 
Q 38.921875 48.1875 33.109375 48.1875 
Q 26.21875 48.1875 22.15625 43.53125 
Q 18.109375 38.875 18.109375 30.90625 
L 18.109375 0 
L 9.078125 0 
L 9.078125 54.6875 
L 18.109375 54.6875 
L 18.109375 46.1875 
Q 21.1875 51.21875 25.484375 53.609375 
Q 29.78125 56 35.6875 56 
Q 41.65625 56 45.828125 52.96875 
Q 50 49.953125 52 44.1875 
z
" id="DejaVuSans-6d"/>
      <path d="M 56.203125 29.59375 
L 56.203125 25.203125 
L 14.890625 25.203125 
Q 15.484375 15.921875 20.484375 11.0625 
Q 25.484375 6.203125 34.421875 6.203125 
Q 39.59375 6.203125 44.453125 7.46875 
Q 49.3125 8.734375 54.109375 11.28125 
L 54.109375 2.78125 
Q 49.265625 0.734375 44.1875 -0.34375 
Q 39.109375 -1.421875 33.890625 -1.421875 
Q 20.796875 -1.421875 13.15625 6.1875 
Q 5.515625 13.8125 5.515625 26.8125 
Q 5.515625 40.234375 12.765625 48.109375 
Q 20.015625 56 32.328125 56 
Q 43.359375 56 49.78125 48.890625 
Q 56.203125 41.796875 56.203125 29.59375 
z
M 47.21875 32.234375 
Q 47.125 39.59375 43.09375 43.984375 
Q 39.0625 48.390625 32.421875 48.390625 
Q 24.90625 48.390625 20.390625 44.140625 
Q 15.875 39.890625 15.1875 32.171875 
z
" id="DejaVuSans-65"/>
      <path id="DejaVuSans-20"/>
      <path d="M 31 75.875 
Q 24.46875 64.65625 21.28125 53.65625 
Q 18.109375 42.671875 18.109375 31.390625 
Q 18.109375 20.125 21.3125 9.0625 
Q 24.515625 -2 31 -13.1875 
L 23.1875 -13.1875 
Q 15.875 -1.703125 12.234375 9.375 
Q 8.59375 20.453125 8.59375 31.390625 
Q 8.59375 42.28125 12.203125 53.3125 
Q 15.828125 64.359375 23.1875 75.875 
z
" id="DejaVuSans-28"/>
      <path d="M 53.515625 70.515625 
L 53.515625 60.890625 
Q 47.90625 63.578125 42.921875 64.890625 
Q 37.9375 66.21875 33.296875 66.21875 
Q 25.25 66.21875 20.875 63.09375 
Q 16.5 59.96875 16.5 54.203125 
Q 16.5 49.359375 19.40625 46.890625 
Q 22.3125 44.4375 30.421875 42.921875 
L 36.375 41.703125 
Q 47.40625 39.59375 52.65625 34.296875 
Q 57.90625 29 57.90625 20.125 
Q 57.90625 9.515625 50.796875 4.046875 
Q 43.703125 -1.421875 29.984375 -1.421875 
Q 24.8125 -1.421875 18.96875 -0.25 
Q 13.140625 0.921875 6.890625 3.21875 
L 6.890625 13.375 
Q 12.890625 10.015625 18.65625 8.296875 
Q 24.421875 6.59375 29.984375 6.59375 
Q 38.421875 6.59375 43.015625 9.90625 
Q 47.609375 13.234375 47.609375 19.390625 
Q 47.609375 24.75 44.3125 27.78125 
Q 41.015625 30.8125 33.5 32.328125 
L 27.484375 33.5 
Q 16.453125 35.6875 11.515625 40.375 
Q 6.59375 45.0625 6.59375 53.421875 
Q 6.59375 63.09375 13.40625 68.65625 
Q 20.21875 74.21875 32.171875 74.21875 
Q 37.3125 74.21875 42.625 73.28125 
Q 47.953125 72.359375 53.515625 70.515625 
z
" id="DejaVuSans-53"/>
      <path d="M 48.78125 52.59375 
L 48.78125 44.1875 
Q 44.96875 46.296875 41.140625 47.34375 
Q 37.3125 48.390625 33.40625 48.390625 
Q 24.65625 48.390625 19.8125 42.84375 
Q 14.984375 37.3125 14.984375 27.296875 
Q 14.984375 17.28125 19.8125 11.734375 
Q 24.65625 6.203125 33.40625 6.203125 
Q 37.3125 6.203125 41.140625 7.25 
Q 44.96875 8.296875 48.78125 10.40625 
L 48.78125 2.09375 
Q 45.015625 0.34375 40.984375 -0.53125 
Q 36.96875 -1.421875 32.421875 -1.421875 
Q 20.0625 -1.421875 12.78125 6.34375 
Q 5.515625 14.109375 5.515625 27.296875 
Q 5.515625 40.671875 12.859375 48.328125 
Q 20.21875 56 33.015625 56 
Q 37.15625 56 41.109375 55.140625 
Q 45.0625 54.296875 48.78125 52.59375 
z
" id="DejaVuSans-63"/>
      <path d="M 8.015625 75.875 
L 15.828125 75.875 
Q 23.140625 64.359375 26.78125 53.3125 
Q 30.421875 42.28125 30.421875 31.390625 
Q 30.421875 20.453125 26.78125 9.375 
Q 23.140625 -1.703125 15.828125 -13.1875 
L 8.015625 -13.1875 
Q 14.5 -2 17.703125 9.0625 
Q 20.90625 20.125 20.90625 31.390625 
Q 20.90625 42.671875 17.703125 53.65625 
Q 14.5 64.65625 8.015625 75.875 
z
" id="DejaVuSans-29"/>
     </defs>
     <g transform="translate(209.281875 335.860562)scale(0.1 -0.1)">
      <use xlink:href="#DejaVuSans-54"/>
      <use x="61.037109" xlink:href="#DejaVuSans-69"/>
      <use x="88.820312" xlink:href="#DejaVuSans-6d"/>
      <use x="186.232422" xlink:href="#DejaVuSans-65"/>
      <use x="247.755859" xlink:href="#DejaVuSans-20"/>
      <use x="279.542969" xlink:href="#DejaVuSans-28"/>
      <use x="318.556641" xlink:href="#DejaVuSans-53"/>
      <use x="382.033203" xlink:href="#DejaVuSans-65"/>
      <use x="443.556641" xlink:href="#DejaVuSans-63"/>
      <use x="498.537109" xlink:href="#DejaVuSans-29"/>
     </g>
    </g>
   </g>
   <g id="matplotlib.axis_4">
    <g id="ytick_5">
     <g id="line2d_24">
      <g>
       <use style="stroke:#000000;stroke-width:0.8;" x="57.6" xlink:href="#m1d31f36073" y="295.735954"/>
      </g>
     </g>
     <g id="text_24">
      <!-- −20 -->
      <g transform="translate(29.495313 299.535173)scale(0.1 -0.1)">
       <use xlink:href="#DejaVuSans-2212"/>
       <use x="83.789062" xlink:href="#DejaVuSans-32"/>
       <use x="147.412109" xlink:href="#DejaVuSans-30"/>
      </g>
     </g>
    </g>
    <g id="ytick_6">
     <g id="line2d_25">
      <g>
       <use style="stroke:#000000;stroke-width:0.8;" x="57.6" xlink:href="#m1d31f36073" y="264.045366"/>
      </g>
     </g>
     <g id="text_25">
      <!-- −10 -->
      <g transform="translate(29.495313 267.844584)scale(0.1 -0.1)">
       <use xlink:href="#DejaVuSans-2212"/>
       <use x="83.789062" xlink:href="#DejaVuSans-31"/>
       <use x="147.412109" xlink:href="#DejaVuSans-30"/>
      </g>
     </g>
    </g>
    <g id="ytick_7">
     <g id="line2d_26">
      <g>
       <use style="stroke:#000000;stroke-width:0.8;" x="57.6" xlink:href="#m1d31f36073" y="232.354777"/>
      </g>
     </g>
     <g id="text_26">
      <!-- 0 -->
      <g transform="translate(44.2375 236.153996)scale(0.1 -0.1)">
       <use xlink:href="#DejaVuSans-30"/>
      </g>
     </g>
    </g>
    <g id="ytick_8">
     <g id="line2d_27">
      <g>
       <use style="stroke:#000000;stroke-width:0.8;" x="57.6" xlink:href="#m1d31f36073" y="200.664188"/>
      </g>
     </g>
     <g id="text_27">
      <!-- 10 -->
      <g transform="translate(37.875 204.463407)scale(0.1 -0.1)">
       <use xlink:href="#DejaVuSans-31"/>
       <use x="63.623047" xlink:href="#DejaVuSans-30"/>
      </g>
     </g>
    </g>
   </g>
   <g id="line2d_28">
    <path clip-path="url(#pbe92fe5842)" d="M 73.832727 227.918464 
L 76.211149 238.940837 
L 77.40036 244.496148 
L 78.58957 249.170827 
L 79.778781 252.382417 
L 80.967992 253.791598 
L 82.157203 253.352092 
L 83.346414 251.30614 
L 84.535624 248.115193 
L 88.103257 236.998248 
L 89.292468 234.096193 
L 90.481678 231.886083 
L 91.670889 230.341785 
L 92.8601 229.357991 
L 94.049311 228.794054 
L 95.238521 228.509378 
L 96.427732 228.397954 
L 97.616943 228.424336 
L 98.806154 228.630642 
L 99.995365 229.103316 
L 101.184575 229.925368 
L 102.373786 231.140567 
L 103.562997 232.73276 
L 105.941419 236.644281 
L 108.31984 240.487978 
L 109.509051 242.047157 
L 110.698262 243.255732 
L 111.887473 244.028713 
L 113.076683 244.247556 
L 114.265894 243.787977 
L 115.455105 242.567567 
L 116.644316 240.579411 
L 117.833526 237.913178 
L 122.59037 225.512034 
L 123.77958 223.355949 
L 124.968791 221.872662 
L 126.158002 221.033091 
L 127.347213 220.736234 
L 128.536424 220.843457 
L 129.725634 221.20965 
L 133.293267 222.790994 
L 135.671688 224.078585 
L 136.860899 224.953874 
L 138.05011 226.048499 
L 139.239321 227.376042 
L 140.428531 228.936763 
L 141.617742 230.730831 
L 142.806953 232.757151 
L 145.185375 237.44411 
L 147.563796 242.488157 
L 148.753007 244.631058 
L 149.942218 246.107273 
L 151.131429 246.658462 
L 152.320639 246.152344 
L 153.50985 244.599749 
L 154.699061 242.134736 
L 155.888272 238.97265 
L 158.266693 231.535413 
L 160.645115 224.025469 
L 161.834326 220.750975 
L 163.023536 218.167599 
L 164.212747 216.577705 
L 165.401958 216.202591 
L 166.591169 217.123725 
L 167.78038 219.269466 
L 168.96959 222.435259 
L 170.158801 226.329408 
L 174.915644 243.363999 
L 176.104855 246.896129 
L 177.294066 249.755308 
L 178.483277 251.755433 
L 179.672488 252.775198 
L 180.861698 252.790641 
L 182.050909 251.864018 
L 183.24012 250.095917 
L 184.429331 247.585505 
L 185.618541 244.423882 
L 186.807752 240.706309 
L 189.186174 232.079508 
L 191.564595 223.08129 
L 192.753806 219.044587 
L 193.943017 215.598732 
L 195.132228 212.855211 
L 196.321439 210.834111 
L 197.510649 209.485741 
L 198.69986 208.718857 
L 199.889071 208.422523 
L 201.078282 208.480523 
L 202.267493 208.783511 
L 203.456703 209.25815 
L 204.645914 209.915129 
L 205.835125 210.861125 
L 207.024336 212.251078 
L 208.213546 214.218516 
L 209.402757 216.822481 
L 210.591968 219.996986 
L 212.97039 226.890362 
L 214.1596 229.704571 
L 215.348811 231.523827 
L 216.538022 232.109203 
L 217.727233 231.502933 
L 220.105654 228.952357 
L 221.294865 228.888723 
L 222.484076 230.852956 
L 223.673287 235.363144 
L 224.862498 242.41002 
L 228.43013 269.209825 
L 229.619341 275.30778 
L 230.808551 278.169092 
L 231.997762 277.519252 
L 233.186973 273.674635 
L 234.376184 267.40082 
L 239.133027 236.477117 
L 240.322238 230.476145 
L 241.511449 225.617624 
L 242.700659 221.809007 
L 243.88987 218.874207 
L 245.079081 216.6068 
L 246.268292 214.811701 
L 247.457502 213.335968 
L 248.646713 212.080229 
L 251.025135 210.034533 
L 252.214346 209.201847 
L 253.403556 208.548156 
L 254.592767 208.323685 
L 255.781978 209.00145 
L 256.971189 211.140451 
L 258.1604 215.190191 
L 259.34961 221.347361 
L 260.538821 229.431741 
L 262.917243 248.154093 
L 264.106454 256.310284 
L 265.295664 262.082929 
L 266.484875 264.771571 
L 267.674086 264.228853 
L 268.863297 260.883184 
L 270.052507 255.620591 
L 272.430929 243.647793 
L 273.62014 238.737306 
L 274.809351 235.222311 
L 275.998561 233.143344 
L 277.187772 232.221117 
L 278.376983 231.996445 
L 279.566194 231.985429 
L 280.755405 231.79558 
L 281.944615 231.206142 
L 283.133826 230.224856 
L 284.323037 229.072391 
L 285.512248 228.082917 
L 286.701459 227.580364 
L 287.890669 227.786884 
L 289.07988 228.764187 
L 290.269091 230.375852 
L 292.647512 234.179533 
L 293.836723 235.621759 
L 295.025934 236.390326 
L 296.215145 236.393627 
L 297.404356 235.71631 
L 300.971988 232.213495 
L 302.161199 231.46396 
L 303.35041 231.171402 
L 304.53962 231.277398 
L 306.918042 231.840042 
L 308.107253 231.789978 
L 309.296464 231.272231 
L 310.485674 230.267486 
L 312.864096 227.835943 
L 314.053307 227.350623 
L 315.242517 227.973467 
L 316.431728 229.966324 
L 317.620939 233.316018 
L 321.188571 246.436025 
L 322.377782 249.345606 
L 323.566993 250.566145 
L 324.756204 249.965176 
L 325.945415 247.75701 
L 327.134625 244.434085 
L 329.513047 236.90367 
L 330.702258 233.737636 
L 331.891469 231.368117 
L 333.080679 229.822621 
L 334.26989 228.942853 
L 335.459101 228.465366 
L 337.837522 227.656488 
L 339.026733 226.991616 
L 341.405155 225.4953 
L 342.594366 225.248828 
L 343.783576 225.751238 
L 344.972787 227.183056 
L 346.161998 229.53466 
L 349.72963 238.483349 
L 350.918841 240.314369 
L 352.108052 240.887255 
L 353.297263 240.122866 
L 354.486474 238.21821 
L 358.054106 230.306704 
L 359.243317 228.484378 
L 360.432527 227.520251 
L 361.621738 227.450692 
L 362.810949 228.200423 
L 364.00016 229.626832 
L 365.189371 231.557983 
L 368.757003 238.472859 
L 369.946214 240.244292 
L 371.135425 241.158476 
L 372.324635 240.933167 
L 373.513846 239.442378 
L 374.703057 236.771701 
L 378.270689 226.249858 
L 379.4599 223.987671 
L 380.649111 223.127667 
L 381.838322 223.771381 
L 383.027532 225.738429 
L 384.216743 228.623832 
L 386.595165 235.139735 
L 387.784376 237.917774 
L 388.973586 240.015359 
L 390.162797 241.283414 
L 391.352008 241.620526 
L 392.541219 240.971306 
L 393.73043 239.344314 
L 394.91964 236.824174 
L 396.108851 233.593337 
L 398.487273 226.401624 
L 398.487273 226.401624 
" style="fill:none;stroke:#ff0000;stroke-linecap:square;stroke-width:2;"/>
   </g>
   <g id="line2d_29">
    <path clip-path="url(#pbe92fe5842)" d="M 73.832727 272.4024 
L 75.021938 236.681473 
L 76.211149 219.087659 
L 77.40036 238.388929 
L 78.58957 249.747802 
L 79.778781 253.730958 
L 80.967992 265.736135 
L 82.157203 239.957592 
L 83.346414 246.416365 
L 84.535624 251.895448 
L 85.724835 250.464571 
L 86.914046 251.153208 
L 88.103257 240.782172 
L 89.292468 216.014453 
L 90.481678 228.934511 
L 91.670889 233.813653 
L 92.8601 217.760449 
L 94.049311 247.233815 
L 96.427732 217.288544 
L 97.616943 227.922566 
L 98.806154 233.718026 
L 99.995365 231.495816 
L 101.184575 214.577491 
L 102.373786 241.068598 
L 103.562997 248.532538 
L 104.752208 232.930114 
L 105.941419 230.691524 
L 107.130629 211.656962 
L 108.31984 239.078818 
L 109.509051 272.075359 
L 110.698262 239.639295 
L 111.887473 240.828358 
L 113.076683 240.974121 
L 114.265894 252.198224 
L 115.455105 251.541438 
L 116.644316 215.925518 
L 117.833526 231.375425 
L 119.022737 250.965847 
L 120.211948 238.895563 
L 121.401159 214.84956 
L 122.59037 241.684087 
L 123.77958 209.585838 
L 124.968791 220.665951 
L 126.158002 225.783239 
L 127.347213 218.750322 
L 128.536424 229.945599 
L 129.725634 216.365507 
L 130.914845 207.161769 
L 132.104056 229.500786 
L 133.293267 231.066031 
L 134.482478 217.256583 
L 135.671688 226.82289 
L 136.860899 220.601675 
L 138.05011 244.044036 
L 140.428531 203.407497 
L 141.617742 241.683417 
L 142.806953 248.147043 
L 143.996164 223.893377 
L 145.185375 216.722438 
L 146.374585 251.688747 
L 147.563796 252.931335 
L 148.753007 241.727588 
L 149.942218 261.266804 
L 151.131429 236.966866 
L 152.320639 238.893092 
L 153.50985 250.669292 
L 154.699061 259.950829 
L 155.888272 195.587676 
L 157.077483 235.833471 
L 158.266693 264.480793 
L 159.455904 211.866713 
L 160.645115 235.977092 
L 161.834326 211.558901 
L 163.023536 219.288868 
L 165.401958 212.61352 
L 166.591169 230.481028 
L 167.78038 222.557354 
L 168.96959 205.332591 
L 171.348012 240.73831 
L 172.537223 223.814925 
L 173.726434 243.878819 
L 174.915644 253.978451 
L 176.104855 245.734073 
L 177.294066 250.561497 
L 178.483277 260.697338 
L 179.672488 224.913066 
L 180.861698 266.375253 
L 182.050909 235.548135 
L 183.24012 250.278528 
L 184.429331 270.164093 
L 185.618541 252.419722 
L 186.807752 247.551272 
L 187.996963 214.899722 
L 189.186174 230.810844 
L 190.375385 217.804291 
L 191.564595 230.573063 
L 192.753806 218.350232 
L 193.943017 219.590989 
L 195.132228 199.876577 
L 196.321439 238.148918 
L 197.510649 211.09973 
L 198.69986 194.688 
L 199.889071 197.71002 
L 201.078282 206.557614 
L 202.267493 222.813536 
L 203.456703 202.09103 
L 204.645914 218.030693 
L 205.835125 195.798312 
L 207.024336 241.088419 
L 208.213546 205.278431 
L 209.402757 208.536748 
L 210.591968 208.445382 
L 211.781179 238.185106 
L 212.97039 202.389857 
L 214.1596 255.765685 
L 215.348811 248.860565 
L 216.538022 211.373868 
L 217.727233 215.85533 
L 218.916444 243.692314 
L 220.105654 233.706328 
L 221.294865 216.907209 
L 222.484076 236.602638 
L 223.673287 254.216422 
L 224.862498 224.503464 
L 226.051708 243.647043 
L 227.240919 254.356263 
L 228.43013 294.783691 
L 229.619341 262.37635 
L 230.808551 277.020801 
L 231.997762 302.208 
L 233.186973 260.731013 
L 234.376184 253.377558 
L 235.565395 255.803138 
L 236.754605 246.127173 
L 237.943816 261.896781 
L 239.133027 222.137054 
L 240.322238 249.152946 
L 241.511449 229.205505 
L 242.700659 217.700025 
L 243.88987 208.780736 
L 245.079081 220.46847 
L 246.268292 212.010091 
L 247.457502 212.635793 
L 248.646713 210.072149 
L 249.835924 211.153227 
L 251.025135 207.631627 
L 252.214346 230.232892 
L 253.403556 205.992395 
L 254.592767 200.10073 
L 255.781978 205.222551 
L 256.971189 198.645453 
L 259.34961 233.750162 
L 260.538821 223.416947 
L 261.728032 258.862731 
L 262.917243 225.612629 
L 264.106454 270.547503 
L 265.295664 250.541738 
L 266.484875 270.219618 
L 267.674086 275.94108 
L 268.863297 246.691293 
L 270.052507 250.686821 
L 271.241718 250.546057 
L 272.430929 247.38671 
L 273.62014 240.545272 
L 274.809351 241.325456 
L 275.998561 216.323308 
L 277.187772 256.519659 
L 278.376983 216.143748 
L 279.566194 235.416015 
L 280.755405 227.088871 
L 281.944615 229.446344 
L 283.133826 240.838601 
L 284.323037 224.263617 
L 285.512248 229.026394 
L 286.701459 225.575134 
L 287.890669 228.593067 
L 289.07988 225.618179 
L 290.269091 225.383063 
L 291.458302 245.346897 
L 292.647512 246.113524 
L 293.836723 213.572212 
L 295.025934 234.286488 
L 296.215145 244.546461 
L 297.404356 213.329149 
L 298.593566 256.726496 
L 299.782777 254.148927 
L 300.971988 225.994011 
L 302.161199 212.341937 
L 303.35041 221.288402 
L 304.53962 244.237834 
L 305.728831 221.686908 
L 306.918042 234.734684 
L 308.107253 246.384292 
L 309.296464 236.515921 
L 310.485674 232.129014 
L 311.674885 216.078419 
L 312.864096 225.362014 
L 314.053307 216.362858 
L 315.242517 221.563213 
L 316.431728 249.946314 
L 317.620939 236.948418 
L 318.81015 236.102234 
L 319.999361 237.307226 
L 321.188571 255.703826 
L 322.377782 250.35167 
L 323.566993 222.433424 
L 324.756204 281.068652 
L 325.945415 248.09858 
L 327.134625 229.02343 
L 328.323836 233.551779 
L 329.513047 249.986944 
L 330.702258 224.876806 
L 331.891469 231.334664 
L 333.080679 239.067355 
L 334.26989 227.83452 
L 335.459101 232.976378 
L 336.648312 220.906288 
L 337.837522 228.630885 
L 339.026733 222.550102 
L 340.215944 252.330031 
L 341.405155 211.219303 
L 342.594366 197.947642 
L 343.783576 233.476496 
L 344.972787 239.66563 
L 346.161998 217.14606 
L 347.351209 257.324143 
L 349.72963 211.52704 
L 350.918841 263.023151 
L 352.108052 242.785996 
L 353.297263 241.475409 
L 354.486474 227.090151 
L 355.675684 245.441439 
L 356.864895 222.791369 
L 358.054106 216.56012 
L 359.243317 220.416435 
L 360.432527 251.018134 
L 361.621738 225.565946 
L 362.810949 249.689383 
L 365.189371 206.146932 
L 366.378581 244.62174 
L 367.567792 216.803561 
L 368.757003 270.501722 
L 369.946214 234.912177 
L 371.135425 216.283986 
L 372.324635 238.616043 
L 373.513846 257.936455 
L 374.703057 239.103611 
L 375.892268 237.174106 
L 377.081479 225.956277 
L 378.270689 213.26131 
L 379.4599 241.01662 
L 380.649111 214.586968 
L 381.838322 223.529422 
L 383.027532 224.365656 
L 384.216743 219.189744 
L 385.405954 236.166283 
L 386.595165 249.032464 
L 387.784376 245.617939 
L 388.973586 234.912537 
L 390.162797 231.614997 
L 391.352008 238.388178 
L 392.541219 233.763798 
L 393.73043 246.448673 
L 394.91964 237.914185 
L 396.108851 228.059733 
L 397.298062 234.867322 
L 398.487273 235.690669 
L 398.487273 235.690669 
" style="fill:none;stroke:#0000ff;stroke-linecap:square;stroke-width:2;"/>
   </g>
   <g id="patch_8">
    <path d="M 57.6 307.584 
L 57.6 189.312 
" style="fill:none;stroke:#000000;stroke-linecap:square;stroke-linejoin:miter;stroke-width:0.8;"/>
   </g>
   <g id="patch_9">
    <path d="M 414.72 307.584 
L 414.72 189.312 
" style="fill:none;stroke:#000000;stroke-linecap:square;stroke-linejoin:miter;stroke-width:0.8;"/>
   </g>
   <g id="patch_10">
    <path d="M 57.6 307.584 
L 414.72 307.584 
" style="fill:none;stroke:#000000;stroke-linecap:square;stroke-linejoin:miter;stroke-width:0.8;"/>
   </g>
   <g id="patch_11">
    <path d="M 57.6 189.312 
L 414.72 189.312 
" style="fill:none;stroke:#000000;stroke-linecap:square;stroke-linejoin:miter;stroke-width:0.8;"/>
   </g>
   <g id="text_28">
    <!-- BOLD signal -->
    <defs>
     <path d="M 19.671875 34.8125 
L 19.671875 8.109375 
L 35.5 8.109375 
Q 43.453125 8.109375 47.28125 11.40625 
Q 51.125 14.703125 51.125 21.484375 
Q 51.125 28.328125 47.28125 31.5625 
Q 43.453125 34.8125 35.5 34.8125 
z
M 19.671875 64.796875 
L 19.671875 42.828125 
L 34.28125 42.828125 
Q 41.5 42.828125 45.03125 45.53125 
Q 48.578125 48.25 48.578125 53.8125 
Q 48.578125 59.328125 45.03125 62.0625 
Q 41.5 64.796875 34.28125 64.796875 
z
M 9.8125 72.90625 
L 35.015625 72.90625 
Q 46.296875 72.90625 52.390625 68.21875 
Q 58.5 63.53125 58.5 54.890625 
Q 58.5 48.1875 55.375 44.234375 
Q 52.25 40.28125 46.1875 39.3125 
Q 53.46875 37.75 57.5 32.78125 
Q 61.53125 27.828125 61.53125 20.40625 
Q 61.53125 10.640625 54.890625 5.3125 
Q 48.25 0 35.984375 0 
L 9.8125 0 
z
" id="DejaVuSans-42"/>
     <path d="M 39.40625 66.21875 
Q 28.65625 66.21875 22.328125 58.203125 
Q 16.015625 50.203125 16.015625 36.375 
Q 16.015625 22.609375 22.328125 14.59375 
Q 28.65625 6.59375 39.40625 6.59375 
Q 50.140625 6.59375 56.421875 14.59375 
Q 62.703125 22.609375 62.703125 36.375 
Q 62.703125 50.203125 56.421875 58.203125 
Q 50.140625 66.21875 39.40625 66.21875 
z
M 39.40625 74.21875 
Q 54.734375 74.21875 63.90625 63.9375 
Q 73.09375 53.65625 73.09375 36.375 
Q 73.09375 19.140625 63.90625 8.859375 
Q 54.734375 -1.421875 39.40625 -1.421875 
Q 24.03125 -1.421875 14.8125 8.828125 
Q 5.609375 19.09375 5.609375 36.375 
Q 5.609375 53.65625 14.8125 63.9375 
Q 24.03125 74.21875 39.40625 74.21875 
z
" id="DejaVuSans-4f"/>
     <path d="M 9.8125 72.90625 
L 19.671875 72.90625 
L 19.671875 8.296875 
L 55.171875 8.296875 
L 55.171875 0 
L 9.8125 0 
z
" id="DejaVuSans-4c"/>
     <path d="M 19.671875 64.796875 
L 19.671875 8.109375 
L 31.59375 8.109375 
Q 46.6875 8.109375 53.6875 14.9375 
Q 60.6875 21.78125 60.6875 36.53125 
Q 60.6875 51.171875 53.6875 57.984375 
Q 46.6875 64.796875 31.59375 64.796875 
z
M 9.8125 72.90625 
L 30.078125 72.90625 
Q 51.265625 72.90625 61.171875 64.09375 
Q 71.09375 55.28125 71.09375 36.53125 
Q 71.09375 17.671875 61.125 8.828125 
Q 51.171875 0 30.078125 0 
L 9.8125 0 
z
" id="DejaVuSans-44"/>
     <path d="M 44.28125 53.078125 
L 44.28125 44.578125 
Q 40.484375 46.53125 36.375 47.5 
Q 32.28125 48.484375 27.875 48.484375 
Q 21.1875 48.484375 17.84375 46.4375 
Q 14.5 44.390625 14.5 40.28125 
Q 14.5 37.15625 16.890625 35.375 
Q 19.28125 33.59375 26.515625 31.984375 
L 29.59375 31.296875 
Q 39.15625 29.25 43.1875 25.515625 
Q 47.21875 21.78125 47.21875 15.09375 
Q 47.21875 7.46875 41.1875 3.015625 
Q 35.15625 -1.421875 24.609375 -1.421875 
Q 20.21875 -1.421875 15.453125 -0.5625 
Q 10.6875 0.296875 5.421875 2 
L 5.421875 11.28125 
Q 10.40625 8.6875 15.234375 7.390625 
Q 20.0625 6.109375 24.8125 6.109375 
Q 31.15625 6.109375 34.5625 8.28125 
Q 37.984375 10.453125 37.984375 14.40625 
Q 37.984375 18.0625 35.515625 20.015625 
Q 33.0625 21.96875 24.703125 23.78125 
L 21.578125 24.515625 
Q 13.234375 26.265625 9.515625 29.90625 
Q 5.8125 33.546875 5.8125 39.890625 
Q 5.8125 47.609375 11.28125 51.796875 
Q 16.75 56 26.8125 56 
Q 31.78125 56 36.171875 55.265625 
Q 40.578125 54.546875 44.28125 53.078125 
z
" id="DejaVuSans-73"/>
     <path d="M 45.40625 27.984375 
Q 45.40625 37.75 41.375 43.109375 
Q 37.359375 48.484375 30.078125 48.484375 
Q 22.859375 48.484375 18.828125 43.109375 
Q 14.796875 37.75 14.796875 27.984375 
Q 14.796875 18.265625 18.828125 12.890625 
Q 22.859375 7.515625 30.078125 7.515625 
Q 37.359375 7.515625 41.375 12.890625 
Q 45.40625 18.265625 45.40625 27.984375 
z
M 54.390625 6.78125 
Q 54.390625 -7.171875 48.1875 -13.984375 
Q 42 -20.796875 29.203125 -20.796875 
Q 24.46875 -20.796875 20.265625 -20.09375 
Q 16.0625 -19.390625 12.109375 -17.921875 
L 12.109375 -9.1875 
Q 16.0625 -11.328125 19.921875 -12.34375 
Q 23.78125 -13.375 27.78125 -13.375 
Q 36.625 -13.375 41.015625 -8.765625 
Q 45.40625 -4.15625 45.40625 5.171875 
L 45.40625 9.625 
Q 42.625 4.78125 38.28125 2.390625 
Q 33.9375 0 27.875 0 
Q 17.828125 0 11.671875 7.65625 
Q 5.515625 15.328125 5.515625 27.984375 
Q 5.515625 40.671875 11.671875 48.328125 
Q 17.828125 56 27.875 56 
Q 33.9375 56 38.28125 53.609375 
Q 42.625 51.21875 45.40625 46.390625 
L 45.40625 54.6875 
L 54.390625 54.6875 
z
" id="DejaVuSans-67"/>
     <path d="M 54.890625 33.015625 
L 54.890625 0 
L 45.90625 0 
L 45.90625 32.71875 
Q 45.90625 40.484375 42.875 44.328125 
Q 39.84375 48.1875 33.796875 48.1875 
Q 26.515625 48.1875 22.3125 43.546875 
Q 18.109375 38.921875 18.109375 30.90625 
L 18.109375 0 
L 9.078125 0 
L 9.078125 54.6875 
L 18.109375 54.6875 
L 18.109375 46.1875 
Q 21.34375 51.125 25.703125 53.5625 
Q 30.078125 56 35.796875 56 
Q 45.21875 56 50.046875 50.171875 
Q 54.890625 44.34375 54.890625 33.015625 
z
" id="DejaVuSans-6e"/>
     <path d="M 34.28125 27.484375 
Q 23.390625 27.484375 19.1875 25 
Q 14.984375 22.515625 14.984375 16.5 
Q 14.984375 11.71875 18.140625 8.90625 
Q 21.296875 6.109375 26.703125 6.109375 
Q 34.1875 6.109375 38.703125 11.40625 
Q 43.21875 16.703125 43.21875 25.484375 
L 43.21875 27.484375 
z
M 52.203125 31.203125 
L 52.203125 0 
L 43.21875 0 
L 43.21875 8.296875 
Q 40.140625 3.328125 35.546875 0.953125 
Q 30.953125 -1.421875 24.3125 -1.421875 
Q 15.921875 -1.421875 10.953125 3.296875 
Q 6 8.015625 6 15.921875 
Q 6 25.140625 12.171875 29.828125 
Q 18.359375 34.515625 30.609375 34.515625 
L 43.21875 34.515625 
L 43.21875 35.40625 
Q 43.21875 41.609375 39.140625 45 
Q 35.0625 48.390625 27.6875 48.390625 
Q 23 48.390625 18.546875 47.265625 
Q 14.109375 46.140625 10.015625 43.890625 
L 10.015625 52.203125 
Q 14.9375 54.109375 19.578125 55.046875 
Q 24.21875 56 28.609375 56 
Q 40.484375 56 46.34375 49.84375 
Q 52.203125 43.703125 52.203125 31.203125 
z
" id="DejaVuSans-61"/>
     <path d="M 9.421875 75.984375 
L 18.40625 75.984375 
L 18.40625 0 
L 9.421875 0 
z
" id="DejaVuSans-6c"/>
    </defs>
    <g transform="translate(199.703438 183.312)scale(0.12 -0.12)">
     <use xlink:href="#DejaVuSans-42"/>
     <use x="68.587891" xlink:href="#DejaVuSans-4f"/>
     <use x="147.298828" xlink:href="#DejaVuSans-4c"/>
     <use x="203.011719" xlink:href="#DejaVuSans-44"/>
     <use x="280.013672" xlink:href="#DejaVuSans-20"/>
     <use x="311.800781" xlink:href="#DejaVuSans-73"/>
     <use x="363.900391" xlink:href="#DejaVuSans-69"/>
     <use x="391.683594" xlink:href="#DejaVuSans-67"/>
     <use x="455.160156" xlink:href="#DejaVuSans-6e"/>
     <use x="518.539062" xlink:href="#DejaVuSans-61"/>
     <use x="579.818359" xlink:href="#DejaVuSans-6c"/>
    </g>
   </g>
  </g>
 </g>
 <defs>
  <clipPath id="pbb8c932368">
   <rect height="118.272" width="357.12" x="57.6" y="41.472"/>
  </clipPath>
  <clipPath id="pbe92fe5842">
   <rect height="118.272" width="357.12" x="57.6" y="189.312"/>
  </clipPath>
 </defs>
</svg>
