<?xml version="1.0" encoding="utf-8" standalone="no"?>
<!DOCTYPE svg PUBLIC "-//W3C//DTD SVG 1.1//EN"
  "http://www.w3.org/Graphics/SVG/1.1/DTD/svg11.dtd">
<!-- Created with matplotlib (http://matplotlib.org/) -->
<svg height="345.6pt" version="1.1" viewBox="0 0 460.8 345.6" width="460.8pt" xmlns="http://www.w3.org/2000/svg" xmlns:xlink="http://www.w3.org/1999/xlink">
 <defs>
  <style type="text/css">
*{stroke-linecap:butt;stroke-linejoin:round;}
  </style>
 </defs>
 <g id="figure_1">
  <g id="patch_1">
   <path d="M 0 345.6 
L 460.8 345.6 
L 460.8 0 
L 0 0 
z
" style="fill:#ffffff;"/>
  </g>
  <g id="axes_1">
   <g id="patch_2">
    <path d="M 57.6 159.744 
L 414.72 159.744 
L 414.72 41.472 
L 57.6 41.472 
z
" style="fill:#ffffff;"/>
   </g>
   <g id="matplotlib.axis_1">
    <g id="xtick_1">
     <g id="line2d_1">
      <defs>
       <path d="M 0 0 
L 0 3.5 
" id="m4de9ccacd0" style="stroke:#000000;stroke-width:0.8;"/>
      </defs>
      <g>
       <use style="stroke:#000000;stroke-width:0.8;" x="57.183776" xlink:href="#m4de9ccacd0" y="159.744"/>
      </g>
     </g>
     <g id="text_1">
      <!-- 0 -->
      <defs>
       <path d="M 31.78125 66.40625 
Q 24.171875 66.40625 20.328125 58.90625 
Q 16.5 51.421875 16.5 36.375 
Q 16.5 21.390625 20.328125 13.890625 
Q 24.171875 6.390625 31.78125 6.390625 
Q 39.453125 6.390625 43.28125 13.890625 
Q 47.125 21.390625 47.125 36.375 
Q 47.125 51.421875 43.28125 58.90625 
Q 39.453125 66.40625 31.78125 66.40625 
z
M 31.78125 74.21875 
Q 44.046875 74.21875 50.515625 64.515625 
Q 56.984375 54.828125 56.984375 36.375 
Q 56.984375 17.96875 50.515625 8.265625 
Q 44.046875 -1.421875 31.78125 -1.421875 
Q 19.53125 -1.421875 13.0625 8.265625 
Q 6.59375 17.96875 6.59375 36.375 
Q 6.59375 54.828125 13.0625 64.515625 
Q 19.53125 74.21875 31.78125 74.21875 
z
" id="DejaVuSans-30"/>
      </defs>
      <g transform="translate(54.002526 174.342437)scale(0.1 -0.1)">
       <use xlink:href="#DejaVuSans-30"/>
      </g>
     </g>
    </g>
    <g id="xtick_2">
     <g id="line2d_2">
      <g>
       <use style="stroke:#000000;stroke-width:0.8;" x="98.475818" xlink:href="#m4de9ccacd0" y="159.744"/>
      </g>
     </g>
     <g id="text_2">
      <!-- 25 -->
      <defs>
       <path d="M 19.1875 8.296875 
L 53.609375 8.296875 
L 53.609375 0 
L 7.328125 0 
L 7.328125 8.296875 
Q 12.9375 14.109375 22.625 23.890625 
Q 32.328125 33.6875 34.8125 36.53125 
Q 39.546875 41.84375 41.421875 45.53125 
Q 43.3125 49.21875 43.3125 52.78125 
Q 43.3125 58.59375 39.234375 62.25 
Q 35.15625 65.921875 28.609375 65.921875 
Q 23.96875 65.921875 18.8125 64.3125 
Q 13.671875 62.703125 7.8125 59.421875 
L 7.8125 69.390625 
Q 13.765625 71.78125 18.9375 73 
Q 24.125 74.21875 28.421875 74.21875 
Q 39.75 74.21875 46.484375 68.546875 
Q 53.21875 62.890625 53.21875 53.421875 
Q 53.21875 48.921875 51.53125 44.890625 
Q 49.859375 40.875 45.40625 35.40625 
Q 44.1875 33.984375 37.640625 27.21875 
Q 31.109375 20.453125 19.1875 8.296875 
z
" id="DejaVuSans-32"/>
       <path d="M 10.796875 72.90625 
L 49.515625 72.90625 
L 49.515625 64.59375 
L 19.828125 64.59375 
L 19.828125 46.734375 
Q 21.96875 47.46875 24.109375 47.828125 
Q 26.265625 48.1875 28.421875 48.1875 
Q 40.625 48.1875 47.75 41.5 
Q 54.890625 34.8125 54.890625 23.390625 
Q 54.890625 11.625 47.5625 5.09375 
Q 40.234375 -1.421875 26.90625 -1.421875 
Q 22.3125 -1.421875 17.546875 -0.640625 
Q 12.796875 0.140625 7.71875 1.703125 
L 7.71875 11.625 
Q 12.109375 9.234375 16.796875 8.0625 
Q 21.484375 6.890625 26.703125 6.890625 
Q 35.15625 6.890625 40.078125 11.328125 
Q 45.015625 15.765625 45.015625 23.390625 
Q 45.015625 31 40.078125 35.4375 
Q 35.15625 39.890625 26.703125 39.890625 
Q 22.75 39.890625 18.8125 39.015625 
Q 14.890625 38.140625 10.796875 36.28125 
z
" id="DejaVuSans-35"/>
      </defs>
      <g transform="translate(92.113318 174.342437)scale(0.1 -0.1)">
       <use xlink:href="#DejaVuSans-32"/>
       <use x="63.623047" xlink:href="#DejaVuSans-35"/>
      </g>
     </g>
    </g>
    <g id="xtick_3">
     <g id="line2d_3">
      <g>
       <use style="stroke:#000000;stroke-width:0.8;" x="139.767859" xlink:href="#m4de9ccacd0" y="159.744"/>
      </g>
     </g>
     <g id="text_3">
      <!-- 50 -->
      <g transform="translate(133.405359 174.342437)scale(0.1 -0.1)">
       <use xlink:href="#DejaVuSans-35"/>
       <use x="63.623047" xlink:href="#DejaVuSans-30"/>
      </g>
     </g>
    </g>
    <g id="xtick_4">
     <g id="line2d_4">
      <g>
       <use style="stroke:#000000;stroke-width:0.8;" x="181.0599" xlink:href="#m4de9ccacd0" y="159.744"/>
      </g>
     </g>
     <g id="text_4">
      <!-- 75 -->
      <defs>
       <path d="M 8.203125 72.90625 
L 55.078125 72.90625 
L 55.078125 68.703125 
L 28.609375 0 
L 18.3125 0 
L 43.21875 64.59375 
L 8.203125 64.59375 
z
" id="DejaVuSans-37"/>
      </defs>
      <g transform="translate(174.6974 174.342437)scale(0.1 -0.1)">
       <use xlink:href="#DejaVuSans-37"/>
       <use x="63.623047" xlink:href="#DejaVuSans-35"/>
      </g>
     </g>
    </g>
    <g id="xtick_5">
     <g id="line2d_5">
      <g>
       <use style="stroke:#000000;stroke-width:0.8;" x="222.351941" xlink:href="#m4de9ccacd0" y="159.744"/>
      </g>
     </g>
     <g id="text_5">
      <!-- 100 -->
      <defs>
       <path d="M 12.40625 8.296875 
L 28.515625 8.296875 
L 28.515625 63.921875 
L 10.984375 60.40625 
L 10.984375 69.390625 
L 28.421875 72.90625 
L 38.28125 72.90625 
L 38.28125 8.296875 
L 54.390625 8.296875 
L 54.390625 0 
L 12.40625 0 
z
" id="DejaVuSans-31"/>
      </defs>
      <g transform="translate(212.808191 174.342437)scale(0.1 -0.1)">
       <use xlink:href="#DejaVuSans-31"/>
       <use x="63.623047" xlink:href="#DejaVuSans-30"/>
       <use x="127.246094" xlink:href="#DejaVuSans-30"/>
      </g>
     </g>
    </g>
    <g id="xtick_6">
     <g id="line2d_6">
      <g>
       <use style="stroke:#000000;stroke-width:0.8;" x="263.643983" xlink:href="#m4de9ccacd0" y="159.744"/>
      </g>
     </g>
     <g id="text_6">
      <!-- 125 -->
      <g transform="translate(254.100233 174.342437)scale(0.1 -0.1)">
       <use xlink:href="#DejaVuSans-31"/>
       <use x="63.623047" xlink:href="#DejaVuSans-32"/>
       <use x="127.246094" xlink:href="#DejaVuSans-35"/>
      </g>
     </g>
    </g>
    <g id="xtick_7">
     <g id="line2d_7">
      <g>
       <use style="stroke:#000000;stroke-width:0.8;" x="304.936024" xlink:href="#m4de9ccacd0" y="159.744"/>
      </g>
     </g>
     <g id="text_7">
      <!-- 150 -->
      <g transform="translate(295.392274 174.342437)scale(0.1 -0.1)">
       <use xlink:href="#DejaVuSans-31"/>
       <use x="63.623047" xlink:href="#DejaVuSans-35"/>
       <use x="127.246094" xlink:href="#DejaVuSans-30"/>
      </g>
     </g>
    </g>
    <g id="xtick_8">
     <g id="line2d_8">
      <g>
       <use style="stroke:#000000;stroke-width:0.8;" x="346.228065" xlink:href="#m4de9ccacd0" y="159.744"/>
      </g>
     </g>
     <g id="text_8">
      <!-- 175 -->
      <g transform="translate(336.684315 174.342437)scale(0.1 -0.1)">
       <use xlink:href="#DejaVuSans-31"/>
       <use x="63.623047" xlink:href="#DejaVuSans-37"/>
       <use x="127.246094" xlink:href="#DejaVuSans-35"/>
      </g>
     </g>
    </g>
    <g id="xtick_9">
     <g id="line2d_9">
      <g>
       <use style="stroke:#000000;stroke-width:0.8;" x="387.520107" xlink:href="#m4de9ccacd0" y="159.744"/>
      </g>
     </g>
     <g id="text_9">
      <!-- 200 -->
      <g transform="translate(377.976357 174.342437)scale(0.1 -0.1)">
       <use xlink:href="#DejaVuSans-32"/>
       <use x="63.623047" xlink:href="#DejaVuSans-30"/>
       <use x="127.246094" xlink:href="#DejaVuSans-30"/>
      </g>
     </g>
    </g>
   </g>
   <g id="matplotlib.axis_2">
    <g id="ytick_1">
     <g id="line2d_10">
      <defs>
       <path d="M 0 0 
L -3.5 0 
" id="m4eef60649e" style="stroke:#000000;stroke-width:0.8;"/>
      </defs>
      <g>
       <use style="stroke:#000000;stroke-width:0.8;" x="57.6" xlink:href="#m4eef60649e" y="151.060298"/>
      </g>
     </g>
     <g id="text_10">
      <!-- −4 -->
      <defs>
       <path d="M 10.59375 35.5 
L 73.1875 35.5 
L 73.1875 27.203125 
L 10.59375 27.203125 
z
" id="DejaVuSans-2212"/>
       <path d="M 37.796875 64.3125 
L 12.890625 25.390625 
L 37.796875 25.390625 
z
M 35.203125 72.90625 
L 47.609375 72.90625 
L 47.609375 25.390625 
L 58.015625 25.390625 
L 58.015625 17.1875 
L 47.609375 17.1875 
L 47.609375 0 
L 37.796875 0 
L 37.796875 17.1875 
L 4.890625 17.1875 
L 4.890625 26.703125 
z
" id="DejaVuSans-34"/>
      </defs>
      <g transform="translate(35.857813 154.859516)scale(0.1 -0.1)">
       <use xlink:href="#DejaVuSans-2212"/>
       <use x="83.789062" xlink:href="#DejaVuSans-34"/>
      </g>
     </g>
    </g>
    <g id="ytick_2">
     <g id="line2d_11">
      <g>
       <use style="stroke:#000000;stroke-width:0.8;" x="57.6" xlink:href="#m4eef60649e" y="122.899944"/>
      </g>
     </g>
     <g id="text_11">
      <!-- −2 -->
      <g transform="translate(35.857813 126.699162)scale(0.1 -0.1)">
       <use xlink:href="#DejaVuSans-2212"/>
       <use x="83.789062" xlink:href="#DejaVuSans-32"/>
      </g>
     </g>
    </g>
    <g id="ytick_3">
     <g id="line2d_12">
      <g>
       <use style="stroke:#000000;stroke-width:0.8;" x="57.6" xlink:href="#m4eef60649e" y="94.739589"/>
      </g>
     </g>
     <g id="text_12">
      <!-- 0 -->
      <g transform="translate(44.2375 98.538808)scale(0.1 -0.1)">
       <use xlink:href="#DejaVuSans-30"/>
      </g>
     </g>
    </g>
    <g id="ytick_4">
     <g id="line2d_13">
      <g>
       <use style="stroke:#000000;stroke-width:0.8;" x="57.6" xlink:href="#m4eef60649e" y="66.579235"/>
      </g>
     </g>
     <g id="text_13">
      <!-- 2 -->
      <g transform="translate(44.2375 70.378454)scale(0.1 -0.1)">
       <use xlink:href="#DejaVuSans-32"/>
      </g>
     </g>
    </g>
   </g>
   <g id="line2d_14">
    <path clip-path="url(#p8363bd09f1)" d="M 73.832727 94.70209 
L 78.58957 95.815966 
L 85.724835 118.153526 
L 92.8601 77.942248 
L 99.995365 97.391925 
L 107.130629 83.613208 
L 114.265894 94.567791 
L 121.401159 98.529668 
L 128.536424 96.939873 
L 135.671688 83.419564 
L 142.806953 103.357319 
L 149.942218 95.485668 
L 157.077483 111.657497 
L 164.212747 88.427047 
L 171.348012 116.568593 
L 178.483277 76.857994 
L 185.618541 91.169169 
L 192.753806 108.97189 
L 199.889071 114.370881 
L 207.024336 154.368 
L 214.1596 109.431404 
L 221.294865 115.062721 
L 228.43013 142.815447 
L 235.565395 123.524077 
L 242.700659 46.848 
L 249.835924 148.204089 
L 256.971189 126.601383 
L 264.106454 113.788566 
L 271.241718 103.937001 
L 278.376983 126.250676 
L 285.512248 122.791336 
L 292.647512 108.456067 
L 299.782777 54.122184 
L 306.918042 90.399207 
L 314.053307 82.917786 
L 321.188571 142.699308 
L 328.323836 101.240153 
L 335.459101 67.579532 
L 342.594366 51.672487 
L 349.72963 107.832989 
L 356.864895 114.992955 
L 364.00016 134.898051 
L 371.135425 58.057733 
L 378.270689 75.58994 
L 385.405954 58.062889 
L 392.541219 133.32433 
L 398.487273 120.034811 
L 398.487273 120.034811 
" style="fill:none;stroke:#ff0000;stroke-linecap:square;stroke-width:2;"/>
   </g>
   <g id="patch_3">
    <path d="M 57.6 159.744 
L 57.6 41.472 
" style="fill:none;stroke:#000000;stroke-linecap:square;stroke-linejoin:miter;stroke-width:0.8;"/>
   </g>
   <g id="patch_4">
    <path d="M 414.72 159.744 
L 414.72 41.472 
" style="fill:none;stroke:#000000;stroke-linecap:square;stroke-linejoin:miter;stroke-width:0.8;"/>
   </g>
   <g id="patch_5">
    <path d="M 57.6 159.744 
L 414.72 159.744 
" style="fill:none;stroke:#000000;stroke-linecap:square;stroke-linejoin:miter;stroke-width:0.8;"/>
   </g>
   <g id="patch_6">
    <path d="M 57.6 41.472 
L 414.72 41.472 
" style="fill:none;stroke:#000000;stroke-linecap:square;stroke-linejoin:miter;stroke-width:0.8;"/>
   </g>
  </g>
  <g id="axes_2">
   <g id="patch_7">
    <path d="M 57.6 307.584 
L 414.72 307.584 
L 414.72 189.312 
L 57.6 189.312 
z
" style="fill:#ffffff;"/>
   </g>
   <g id="matplotlib.axis_3">
    <g id="xtick_10">
     <g id="line2d_15">
      <g>
       <use style="stroke:#000000;stroke-width:0.8;" x="57.183776" xlink:href="#m4de9ccacd0" y="307.584"/>
      </g>
     </g>
     <g id="text_14">
      <!-- 0 -->
      <g transform="translate(54.002526 322.182437)scale(0.1 -0.1)">
       <use xlink:href="#DejaVuSans-30"/>
      </g>
     </g>
    </g>
    <g id="xtick_11">
     <g id="line2d_16">
      <g>
       <use style="stroke:#000000;stroke-width:0.8;" x="98.475818" xlink:href="#m4de9ccacd0" y="307.584"/>
      </g>
     </g>
     <g id="text_15">
      <!-- 25 -->
      <g transform="translate(92.113318 322.182437)scale(0.1 -0.1)">
       <use xlink:href="#DejaVuSans-32"/>
       <use x="63.623047" xlink:href="#DejaVuSans-35"/>
      </g>
     </g>
    </g>
    <g id="xtick_12">
     <g id="line2d_17">
      <g>
       <use style="stroke:#000000;stroke-width:0.8;" x="139.767859" xlink:href="#m4de9ccacd0" y="307.584"/>
      </g>
     </g>
     <g id="text_16">
      <!-- 50 -->
      <g transform="translate(133.405359 322.182437)scale(0.1 -0.1)">
       <use xlink:href="#DejaVuSans-35"/>
       <use x="63.623047" xlink:href="#DejaVuSans-30"/>
      </g>
     </g>
    </g>
    <g id="xtick_13">
     <g id="line2d_18">
      <g>
       <use style="stroke:#000000;stroke-width:0.8;" x="181.0599" xlink:href="#m4de9ccacd0" y="307.584"/>
      </g>
     </g>
     <g id="text_17">
      <!-- 75 -->
      <g transform="translate(174.6974 322.182437)scale(0.1 -0.1)">
       <use xlink:href="#DejaVuSans-37"/>
       <use x="63.623047" xlink:href="#DejaVuSans-35"/>
      </g>
     </g>
    </g>
    <g id="xtick_14">
     <g id="line2d_19">
      <g>
       <use style="stroke:#000000;stroke-width:0.8;" x="222.351941" xlink:href="#m4de9ccacd0" y="307.584"/>
      </g>
     </g>
     <g id="text_18">
      <!-- 100 -->
      <g transform="translate(212.808191 322.182437)scale(0.1 -0.1)">
       <use xlink:href="#DejaVuSans-31"/>
       <use x="63.623047" xlink:href="#DejaVuSans-30"/>
       <use x="127.246094" xlink:href="#DejaVuSans-30"/>
      </g>
     </g>
    </g>
    <g id="xtick_15">
     <g id="line2d_20">
      <g>
       <use style="stroke:#000000;stroke-width:0.8;" x="263.643983" xlink:href="#m4de9ccacd0" y="307.584"/>
      </g>
     </g>
     <g id="text_19">
      <!-- 125 -->
      <g transform="translate(254.100233 322.182437)scale(0.1 -0.1)">
       <use xlink:href="#DejaVuSans-31"/>
       <use x="63.623047" xlink:href="#DejaVuSans-32"/>
       <use x="127.246094" xlink:href="#DejaVuSans-35"/>
      </g>
     </g>
    </g>
    <g id="xtick_16">
     <g id="line2d_21">
      <g>
       <use style="stroke:#000000;stroke-width:0.8;" x="304.936024" xlink:href="#m4de9ccacd0" y="307.584"/>
      </g>
     </g>
     <g id="text_20">
      <!-- 150 -->
      <g transform="translate(295.392274 322.182437)scale(0.1 -0.1)">
       <use xlink:href="#DejaVuSans-31"/>
       <use x="63.623047" xlink:href="#DejaVuSans-35"/>
       <use x="127.246094" xlink:href="#DejaVuSans-30"/>
      </g>
     </g>
    </g>
    <g id="xtick_17">
     <g id="line2d_22">
      <g>
       <use style="stroke:#000000;stroke-width:0.8;" x="346.228065" xlink:href="#m4de9ccacd0" y="307.584"/>
      </g>
     </g>
     <g id="text_21">
      <!-- 175 -->
      <g transform="translate(336.684315 322.182437)scale(0.1 -0.1)">
       <use xlink:href="#DejaVuSans-31"/>
       <use x="63.623047" xlink:href="#DejaVuSans-37"/>
       <use x="127.246094" xlink:href="#DejaVuSans-35"/>
      </g>
     </g>
    </g>
    <g id="xtick_18">
     <g id="line2d_23">
      <g>
       <use style="stroke:#000000;stroke-width:0.8;" x="387.520107" xlink:href="#m4de9ccacd0" y="307.584"/>
      </g>
     </g>
     <g id="text_22">
      <!-- 200 -->
      <g transform="translate(377.976357 322.182437)scale(0.1 -0.1)">
       <use xlink:href="#DejaVuSans-32"/>
       <use x="63.623047" xlink:href="#DejaVuSans-30"/>
       <use x="127.246094" xlink:href="#DejaVuSans-30"/>
      </g>
     </g>
    </g>
    <g id="text_23">
     <!-- Time (Sec) -->
     <defs>
      <path d="M -0.296875 72.90625 
L 61.375 72.90625 
L 61.375 64.59375 
L 35.5 64.59375 
L 35.5 0 
L 25.59375 0 
L 25.59375 64.59375 
L -0.296875 64.59375 
z
" id="DejaVuSans-54"/>
      <path d="M 9.421875 54.6875 
L 18.40625 54.6875 
L 18.40625 0 
L 9.421875 0 
z
M 9.421875 75.984375 
L 18.40625 75.984375 
L 18.40625 64.59375 
L 9.421875 64.59375 
z
" id="DejaVuSans-69"/>
      <path d="M 52 44.1875 
Q 55.375 50.25 60.0625 53.125 
Q 64.75 56 71.09375 56 
Q 79.640625 56 84.28125 50.015625 
Q 88.921875 44.046875 88.921875 33.015625 
L 88.921875 0 
L 79.890625 0 
L 79.890625 32.71875 
Q 79.890625 40.578125 77.09375 44.375 
Q 74.3125 48.1875 68.609375 48.1875 
Q 61.625 48.1875 57.5625 43.546875 
Q 53.515625 38.921875 53.515625 30.90625 
L 53.515625 0 
L 44.484375 0 
L 44.484375 32.71875 
Q 44.484375 40.625 41.703125 44.40625 
Q 38.921875 48.1875 33.109375 48.1875 
Q 26.21875 48.1875 22.15625 43.53125 
Q 18.109375 38.875 18.109375 30.90625 
L 18.109375 0 
L 9.078125 0 
L 9.078125 54.6875 
L 18.109375 54.6875 
L 18.109375 46.1875 
Q 21.1875 51.21875 25.484375 53.609375 
Q 29.78125 56 35.6875 56 
Q 41.65625 56 45.828125 52.96875 
Q 50 49.953125 52 44.1875 
z
" id="DejaVuSans-6d"/>
      <path d="M 56.203125 29.59375 
L 56.203125 25.203125 
L 14.890625 25.203125 
Q 15.484375 15.921875 20.484375 11.0625 
Q 25.484375 6.203125 34.421875 6.203125 
Q 39.59375 6.203125 44.453125 7.46875 
Q 49.3125 8.734375 54.109375 11.28125 
L 54.109375 2.78125 
Q 49.265625 0.734375 44.1875 -0.34375 
Q 39.109375 -1.421875 33.890625 -1.421875 
Q 20.796875 -1.421875 13.15625 6.1875 
Q 5.515625 13.8125 5.515625 26.8125 
Q 5.515625 40.234375 12.765625 48.109375 
Q 20.015625 56 32.328125 56 
Q 43.359375 56 49.78125 48.890625 
Q 56.203125 41.796875 56.203125 29.59375 
z
M 47.21875 32.234375 
Q 47.125 39.59375 43.09375 43.984375 
Q 39.0625 48.390625 32.421875 48.390625 
Q 24.90625 48.390625 20.390625 44.140625 
Q 15.875 39.890625 15.1875 32.171875 
z
" id="DejaVuSans-65"/>
      <path id="DejaVuSans-20"/>
      <path d="M 31 75.875 
Q 24.46875 64.65625 21.28125 53.65625 
Q 18.109375 42.671875 18.109375 31.390625 
Q 18.109375 20.125 21.3125 9.0625 
Q 24.515625 -2 31 -13.1875 
L 23.1875 -13.1875 
Q 15.875 -1.703125 12.234375 9.375 
Q 8.59375 20.453125 8.59375 31.390625 
Q 8.59375 42.28125 12.203125 53.3125 
Q 15.828125 64.359375 23.1875 75.875 
z
" id="DejaVuSans-28"/>
      <path d="M 53.515625 70.515625 
L 53.515625 60.890625 
Q 47.90625 63.578125 42.921875 64.890625 
Q 37.9375 66.21875 33.296875 66.21875 
Q 25.25 66.21875 20.875 63.09375 
Q 16.5 59.96875 16.5 54.203125 
Q 16.5 49.359375 19.40625 46.890625 
Q 22.3125 44.4375 30.421875 42.921875 
L 36.375 41.703125 
Q 47.40625 39.59375 52.65625 34.296875 
Q 57.90625 29 57.90625 20.125 
Q 57.90625 9.515625 50.796875 4.046875 
Q 43.703125 -1.421875 29.984375 -1.421875 
Q 24.8125 -1.421875 18.96875 -0.25 
Q 13.140625 0.921875 6.890625 3.21875 
L 6.890625 13.375 
Q 12.890625 10.015625 18.65625 8.296875 
Q 24.421875 6.59375 29.984375 6.59375 
Q 38.421875 6.59375 43.015625 9.90625 
Q 47.609375 13.234375 47.609375 19.390625 
Q 47.609375 24.75 44.3125 27.78125 
Q 41.015625 30.8125 33.5 32.328125 
L 27.484375 33.5 
Q 16.453125 35.6875 11.515625 40.375 
Q 6.59375 45.0625 6.59375 53.421875 
Q 6.59375 63.09375 13.40625 68.65625 
Q 20.21875 74.21875 32.171875 74.21875 
Q 37.3125 74.21875 42.625 73.28125 
Q 47.953125 72.359375 53.515625 70.515625 
z
" id="DejaVuSans-53"/>
      <path d="M 48.78125 52.59375 
L 48.78125 44.1875 
Q 44.96875 46.296875 41.140625 47.34375 
Q 37.3125 48.390625 33.40625 48.390625 
Q 24.65625 48.390625 19.8125 42.84375 
Q 14.984375 37.3125 14.984375 27.296875 
Q 14.984375 17.28125 19.8125 11.734375 
Q 24.65625 6.203125 33.40625 6.203125 
Q 37.3125 6.203125 41.140625 7.25 
Q 44.96875 8.296875 48.78125 10.40625 
L 48.78125 2.09375 
Q 45.015625 0.34375 40.984375 -0.53125 
Q 36.96875 -1.421875 32.421875 -1.421875 
Q 20.0625 -1.421875 12.78125 6.34375 
Q 5.515625 14.109375 5.515625 27.296875 
Q 5.515625 40.671875 12.859375 48.328125 
Q 20.21875 56 33.015625 56 
Q 37.15625 56 41.109375 55.140625 
Q 45.0625 54.296875 48.78125 52.59375 
z
" id="DejaVuSans-63"/>
      <path d="M 8.015625 75.875 
L 15.828125 75.875 
Q 23.140625 64.359375 26.78125 53.3125 
Q 30.421875 42.28125 30.421875 31.390625 
Q 30.421875 20.453125 26.78125 9.375 
Q 23.140625 -1.703125 15.828125 -13.1875 
L 8.015625 -13.1875 
Q 14.5 -2 17.703125 9.0625 
Q 20.90625 20.125 20.90625 31.390625 
Q 20.90625 42.671875 17.703125 53.65625 
Q 14.5 64.65625 8.015625 75.875 
z
" id="DejaVuSans-29"/>
     </defs>
     <g transform="translate(209.281875 335.860562)scale(0.1 -0.1)">
      <use xlink:href="#DejaVuSans-54"/>
      <use x="61.037109" xlink:href="#DejaVuSans-69"/>
      <use x="88.820312" xlink:href="#DejaVuSans-6d"/>
      <use x="186.232422" xlink:href="#DejaVuSans-65"/>
      <use x="247.755859" xlink:href="#DejaVuSans-20"/>
      <use x="279.542969" xlink:href="#DejaVuSans-28"/>
      <use x="318.556641" xlink:href="#DejaVuSans-53"/>
      <use x="382.033203" xlink:href="#DejaVuSans-65"/>
      <use x="443.556641" xlink:href="#DejaVuSans-63"/>
      <use x="498.537109" xlink:href="#DejaVuSans-29"/>
     </g>
    </g>
   </g>
   <g id="matplotlib.axis_4">
    <g id="ytick_5">
     <g id="line2d_24">
      <g>
       <use style="stroke:#000000;stroke-width:0.8;" x="57.6" xlink:href="#m4eef60649e" y="294.499255"/>
      </g>
     </g>
     <g id="text_24">
      <!-- −20 -->
      <g transform="translate(29.495313 298.298474)scale(0.1 -0.1)">
       <use xlink:href="#DejaVuSans-2212"/>
       <use x="83.789062" xlink:href="#DejaVuSans-32"/>
       <use x="147.412109" xlink:href="#DejaVuSans-30"/>
      </g>
     </g>
    </g>
    <g id="ytick_6">
     <g id="line2d_25">
      <g>
       <use style="stroke:#000000;stroke-width:0.8;" x="57.6" xlink:href="#m4eef60649e" y="268.127998"/>
      </g>
     </g>
     <g id="text_25">
      <!-- −10 -->
      <g transform="translate(29.495313 271.927217)scale(0.1 -0.1)">
       <use xlink:href="#DejaVuSans-2212"/>
       <use x="83.789062" xlink:href="#DejaVuSans-31"/>
       <use x="147.412109" xlink:href="#DejaVuSans-30"/>
      </g>
     </g>
    </g>
    <g id="ytick_7">
     <g id="line2d_26">
      <g>
       <use style="stroke:#000000;stroke-width:0.8;" x="57.6" xlink:href="#m4eef60649e" y="241.75674"/>
      </g>
     </g>
     <g id="text_26">
      <!-- 0 -->
      <g transform="translate(44.2375 245.555959)scale(0.1 -0.1)">
       <use xlink:href="#DejaVuSans-30"/>
      </g>
     </g>
    </g>
    <g id="ytick_8">
     <g id="line2d_27">
      <g>
       <use style="stroke:#000000;stroke-width:0.8;" x="57.6" xlink:href="#m4eef60649e" y="215.385483"/>
      </g>
     </g>
     <g id="text_27">
      <!-- 10 -->
      <g transform="translate(37.875 219.184702)scale(0.1 -0.1)">
       <use xlink:href="#DejaVuSans-31"/>
       <use x="63.623047" xlink:href="#DejaVuSans-30"/>
      </g>
     </g>
    </g>
    <g id="ytick_9">
     <g id="line2d_28">
      <g>
       <use style="stroke:#000000;stroke-width:0.8;" x="57.6" xlink:href="#m4eef60649e" y="189.014225"/>
      </g>
     </g>
     <g id="text_28">
      <!-- 20 -->
      <g transform="translate(37.875 192.813444)scale(0.1 -0.1)">
       <use xlink:href="#DejaVuSans-32"/>
       <use x="63.623047" xlink:href="#DejaVuSans-30"/>
      </g>
     </g>
    </g>
   </g>
   <g id="line2d_29">
    <path clip-path="url(#p126654b0e4)" d="M 73.832727 234.493353 
L 75.021938 235.196241 
L 76.211149 236.31418 
L 80.967992 241.887127 
L 82.157203 242.926551 
L 85.724835 245.453231 
L 86.914046 246.576431 
L 88.103257 248.031232 
L 91.670889 253.325116 
L 92.8601 254.254285 
L 94.049311 254.097819 
L 95.238521 252.643123 
L 96.427732 249.910806 
L 97.616943 246.201293 
L 99.995365 238.11169 
L 101.184575 234.937363 
L 102.373786 232.912317 
L 103.562997 232.170407 
L 104.752208 232.582501 
L 105.941419 233.804404 
L 108.31984 236.90131 
L 109.509051 238.019228 
L 110.698262 238.570328 
L 111.887473 238.563063 
L 113.076683 238.162189 
L 115.455105 237.175285 
L 116.644316 237.026624 
L 117.833526 237.268362 
L 119.022737 237.902311 
L 120.211948 238.852068 
L 124.968791 243.450834 
L 126.158002 244.343599 
L 127.347213 245.031171 
L 128.536424 245.493337 
L 129.725634 245.72824 
L 130.914845 245.751715 
L 132.104056 245.586081 
L 133.293267 245.239083 
L 134.482478 244.694146 
L 135.671688 243.921719 
L 136.860899 242.899496 
L 138.05011 241.629114 
L 141.617742 237.265219 
L 142.806953 236.313552 
L 143.996164 235.98718 
L 145.185375 236.40103 
L 146.374585 237.544672 
L 147.563796 239.264018 
L 149.942218 243.283401 
L 151.131429 244.970751 
L 152.320639 246.148446 
L 153.50985 246.743476 
L 154.699061 246.827154 
L 158.266693 246.187157 
L 159.455904 246.421879 
L 160.645115 247.060851 
L 163.023536 248.993603 
L 164.212747 249.71924 
L 165.401958 249.893453 
L 166.591169 249.337655 
L 167.78038 248.035294 
L 171.348012 242.450746 
L 172.537223 241.457752 
L 173.726434 241.450124 
L 174.915644 242.469721 
L 176.104855 244.270447 
L 177.294066 246.346262 
L 178.483277 248.078252 
L 179.672488 248.914108 
L 180.861698 248.495704 
L 182.050909 246.733614 
L 183.24012 243.84833 
L 185.618541 236.763004 
L 186.807752 233.721931 
L 187.996963 231.59403 
L 189.186174 230.571265 
L 190.375385 230.666487 
L 191.564595 231.764474 
L 192.753806 233.675503 
L 193.943017 236.180329 
L 196.321439 242.125151 
L 198.69986 248.064057 
L 199.889071 250.628381 
L 201.078282 252.780336 
L 202.267493 254.483165 
L 203.456703 255.776745 
L 205.835125 257.826317 
L 207.024336 259.116262 
L 208.213546 260.921209 
L 209.402757 263.381472 
L 210.591968 266.46561 
L 212.97039 273.075424 
L 214.1596 275.402511 
L 215.348811 276.305642 
L 216.538022 275.462442 
L 217.727233 272.853525 
L 218.916444 268.787323 
L 222.484076 253.965715 
L 223.673287 250.125695 
L 224.862498 247.422091 
L 226.051708 245.955401 
L 227.240919 245.728753 
L 228.43013 246.676474 
L 229.619341 248.673576 
L 230.808551 251.542822 
L 233.186973 258.831902 
L 234.376184 262.47576 
L 235.565395 265.52926 
L 236.754605 267.637736 
L 237.943816 268.59893 
L 239.133027 268.338157 
L 240.322238 266.806508 
L 241.511449 263.915815 
L 242.700659 259.568423 
L 243.88987 253.729864 
L 245.079081 246.490546 
L 248.646713 221.875147 
L 249.835924 216.430821 
L 251.025135 214.353443 
L 252.214346 216.244004 
L 253.403556 222.053076 
L 254.592767 231.017653 
L 258.1604 262.61784 
L 259.34961 270.233749 
L 260.538821 275.156273 
L 261.728032 277.368373 
L 262.917243 277.209353 
L 264.106454 275.221102 
L 265.295664 272.005133 
L 270.052507 256.348868 
L 271.241718 253.123952 
L 272.430929 250.379145 
L 273.62014 248.097429 
L 274.809351 246.249249 
L 275.998561 244.851158 
L 277.187772 243.988553 
L 278.376983 243.77981 
L 279.566194 244.317546 
L 280.755405 245.625145 
L 281.944615 247.629725 
L 284.323037 252.885744 
L 285.512248 255.540371 
L 286.701459 257.834553 
L 287.890669 259.584182 
L 289.07988 260.702014 
L 290.269091 261.171434 
L 291.458302 261.016806 
L 292.647512 260.289181 
L 293.836723 259.06208 
L 295.025934 257.424993 
L 296.215145 255.45021 
L 297.404356 253.132245 
L 298.593566 250.367019 
L 299.782777 247.000717 
L 300.971988 242.905668 
L 302.161199 238.040118 
L 305.728831 221.261854 
L 306.918042 216.858846 
L 308.107253 214.109653 
L 309.296464 213.35457 
L 310.485674 214.611259 
L 311.674885 217.564073 
L 312.864096 221.636349 
L 315.242517 230.444381 
L 316.431728 234.076534 
L 317.620939 236.820297 
L 318.81015 238.779853 
L 321.188571 242.094675 
L 322.377782 244.510786 
L 323.566993 247.945181 
L 324.756204 252.456871 
L 327.134625 263.026403 
L 328.323836 267.540936 
L 329.513047 270.508347 
L 330.702258 271.456138 
L 331.891469 270.249872 
L 333.080679 267.061278 
L 334.26989 262.278807 
L 335.459101 256.395568 
L 340.215944 230.662708 
L 341.405155 225.203517 
L 342.594366 220.500629 
L 343.783576 216.614682 
L 344.972787 213.534431 
L 346.161998 211.235159 
L 347.351209 209.791278 
L 348.54042 209.420339 
L 349.72963 210.402862 
L 350.918841 212.953772 
L 352.108052 217.129395 
L 353.297263 222.77581 
L 355.675684 236.723271 
L 356.864895 243.796293 
L 358.054106 250.159061 
L 359.243317 255.43159 
L 360.432527 259.452628 
L 361.621738 262.271479 
L 362.810949 264.099366 
L 364.00016 265.233286 
L 365.189371 265.979694 
L 367.567792 267.18926 
L 368.757003 267.61544 
L 369.946214 267.437723 
L 371.135425 266.09111 
L 372.324635 263.089659 
L 373.513846 258.179337 
L 374.703057 251.440667 
L 378.270689 226.761767 
L 379.4599 220.091194 
L 380.649111 215.371187 
L 381.838322 212.798247 
L 383.027532 212.190566 
L 384.216743 213.069831 
L 385.405954 214.812294 
L 386.595165 216.806439 
L 387.784376 218.570035 
L 388.973586 219.857928 
L 391.352008 221.77672 
L 392.541219 223.481235 
L 393.73043 226.457192 
L 394.91964 231.050263 
L 396.108851 237.27288 
L 398.487273 252.627586 
L 398.487273 252.627586 
" style="fill:none;stroke:#ff0000;stroke-linecap:square;stroke-width:2;"/>
   </g>
   <g id="line2d_30">
    <path clip-path="url(#p126654b0e4)" d="M 73.832727 239.810099 
L 75.021938 227.258927 
L 76.211149 227.824412 
L 77.40036 237.696426 
L 78.58957 229.602701 
L 79.778781 257.392352 
L 80.967992 237.446228 
L 82.157203 248.974536 
L 83.346414 218.650859 
L 84.535624 259.646898 
L 85.724835 253.4801 
L 86.914046 251.163192 
L 88.103257 256.535713 
L 89.292468 254.312003 
L 90.481678 248.202772 
L 91.670889 233.54891 
L 92.8601 231.437232 
L 94.049311 251.955361 
L 95.238521 275.244068 
L 96.427732 253.279562 
L 97.616943 242.676736 
L 98.806154 245.838602 
L 99.995365 262.003991 
L 101.184575 239.608468 
L 102.373786 213.168276 
L 103.562997 222.398526 
L 104.752208 233.527546 
L 105.941419 229.648036 
L 107.130629 229.369681 
L 108.31984 237.803989 
L 109.509051 243.199113 
L 110.698262 244.920594 
L 111.887473 244.274148 
L 113.076683 229.187974 
L 114.265894 251.66027 
L 115.455105 238.973394 
L 116.644316 216.670131 
L 117.833526 239.658403 
L 119.022737 246.629258 
L 120.211948 232.391816 
L 121.401159 241.770696 
L 122.59037 244.646331 
L 123.77958 241.129639 
L 124.968791 244.566293 
L 126.158002 219.310245 
L 127.347213 262.866489 
L 128.536424 251.583195 
L 130.914845 257.740582 
L 132.104056 230.238333 
L 133.293267 243.968142 
L 134.482478 227.611643 
L 135.671688 247.064558 
L 136.860899 231.15883 
L 138.05011 253.836806 
L 139.239321 250.803614 
L 140.428531 245.608593 
L 141.617742 238.158672 
L 142.806953 225.293749 
L 143.996164 236.187527 
L 145.185375 231.706401 
L 146.374585 244.878875 
L 147.563796 255.358298 
L 148.753007 222.343798 
L 149.942218 226.114687 
L 151.131429 253.632918 
L 152.320639 253.031202 
L 153.50985 250.966695 
L 154.699061 246.38584 
L 155.888272 252.919257 
L 157.077483 247.188608 
L 158.266693 235.950787 
L 159.455904 238.901143 
L 160.645115 251.399164 
L 161.834326 255.292285 
L 163.023536 251.280635 
L 164.212747 239.71958 
L 165.401958 254.329458 
L 166.591169 257.068307 
L 167.78038 237.716525 
L 168.96959 244.984218 
L 170.158801 261.063393 
L 171.348012 227.987862 
L 172.537223 239.074093 
L 174.915644 244.410301 
L 176.104855 242.037155 
L 177.294066 243.447673 
L 178.483277 260.12725 
L 179.672488 249.466856 
L 180.861698 256.124359 
L 182.050909 248.044973 
L 183.24012 223.625951 
L 184.429331 227.552777 
L 185.618541 250.241943 
L 186.807752 242.618663 
L 187.996963 217.647493 
L 189.186174 241.08926 
L 190.375385 248.123847 
L 191.564595 212.476283 
L 192.753806 232.28197 
L 193.943017 234.307191 
L 195.132228 252.333578 
L 196.321439 229.705814 
L 197.510649 245.272459 
L 198.69986 243.756437 
L 199.889071 267.735419 
L 201.078282 247.57001 
L 202.267493 248.921991 
L 203.456703 259.074362 
L 204.645914 256.443477 
L 205.835125 253.536107 
L 207.024336 267.66031 
L 209.402757 249.88746 
L 210.591968 271.94066 
L 211.781179 270.221234 
L 212.97039 282.729694 
L 214.1596 263.689769 
L 215.348811 302.208 
L 216.538022 272.230129 
L 217.727233 249.451357 
L 218.916444 261.317528 
L 220.105654 283.335894 
L 221.294865 246.758256 
L 222.484076 258.554613 
L 223.673287 256.535281 
L 224.862498 250.520654 
L 226.051708 252.118798 
L 227.240919 220.910565 
L 228.43013 242.119606 
L 229.619341 270.553387 
L 230.808551 260.173867 
L 231.997762 237.085434 
L 234.376184 279.979881 
L 235.565395 245.653455 
L 236.754605 273.135828 
L 237.943816 257.098289 
L 239.133027 275.087729 
L 240.322238 273.685889 
L 241.511449 273.342255 
L 242.700659 251.361556 
L 243.88987 246.099201 
L 245.079081 252.329287 
L 246.268292 247.082134 
L 247.457502 208.089118 
L 248.646713 235.719365 
L 249.835924 209.284713 
L 251.025135 216.174679 
L 252.214346 233.622313 
L 253.403556 194.688 
L 254.592767 238.213955 
L 255.781978 257.278733 
L 256.971189 246.372317 
L 258.1604 257.818799 
L 259.34961 273.827981 
L 260.538821 262.440136 
L 261.728032 292.347887 
L 262.917243 277.001149 
L 264.106454 269.843867 
L 265.295664 271.282692 
L 266.484875 263.411025 
L 267.674086 270.496715 
L 268.863297 270.463135 
L 270.052507 254.913314 
L 271.241718 241.852364 
L 272.430929 240.980152 
L 273.62014 257.457093 
L 274.809351 252.722647 
L 275.998561 233.390992 
L 277.187772 242.835791 
L 278.376983 255.246575 
L 279.566194 253.782858 
L 280.755405 247.598265 
L 281.944615 242.076343 
L 283.133826 230.761921 
L 284.323037 256.063426 
L 285.512248 250.429548 
L 287.890669 279.569182 
L 289.07988 243.437075 
L 290.269091 262.51029 
L 291.458302 266.865659 
L 292.647512 255.761875 
L 293.836723 259.000349 
L 295.025934 265.110039 
L 296.215145 235.701567 
L 297.404356 260.342128 
L 298.593566 274.88472 
L 299.782777 220.506714 
L 300.971988 247.86379 
L 302.161199 248.070198 
L 303.35041 207.769667 
L 304.53962 236.137715 
L 305.728831 242.49963 
L 306.918042 212.572467 
L 308.107253 209.868216 
L 309.296464 200.236723 
L 310.485674 218.086031 
L 311.674885 209.995606 
L 312.864096 237.328566 
L 314.053307 221.977841 
L 315.242517 226.291719 
L 316.431728 251.309504 
L 317.620939 239.281982 
L 318.81015 229.872607 
L 319.999361 224.70968 
L 321.188571 234.908083 
L 322.377782 253.328047 
L 323.566993 245.661043 
L 324.756204 274.681254 
L 325.945415 252.135132 
L 327.134625 261.958937 
L 328.323836 269.832603 
L 329.513047 260.689096 
L 330.702258 264.801948 
L 331.891469 278.932202 
L 333.080679 256.863439 
L 334.26989 264.303135 
L 335.459101 280.396762 
L 336.648312 235.845605 
L 337.837522 250.552313 
L 339.026733 231.231971 
L 340.215944 230.49869 
L 341.405155 212.493061 
L 342.594366 218.912178 
L 343.783576 226.703825 
L 346.161998 205.394149 
L 347.351209 220.393352 
L 348.54042 199.400184 
L 349.72963 221.581741 
L 350.918841 219.792291 
L 352.108052 200.026751 
L 353.297263 209.125377 
L 354.486474 241.626986 
L 355.675684 243.01595 
L 356.864895 244.047694 
L 358.054106 254.344081 
L 359.243317 263.551457 
L 360.432527 247.621614 
L 361.621738 241.501622 
L 362.810949 272.43551 
L 364.00016 280.919424 
L 365.189371 260.112593 
L 366.378581 265.205685 
L 367.567792 283.241613 
L 368.757003 259.181011 
L 369.946214 256.060704 
L 371.135425 261.144919 
L 372.324635 273.112361 
L 373.513846 251.618655 
L 374.703057 252.845043 
L 375.892268 260.707028 
L 377.081479 227.901944 
L 378.270689 216.473806 
L 379.4599 229.455411 
L 380.649111 209.127597 
L 381.838322 209.786317 
L 383.027532 228.134883 
L 384.216743 199.8748 
L 385.405954 216.733503 
L 386.595165 215.817269 
L 387.784376 211.740935 
L 388.973586 223.01611 
L 390.162797 237.931995 
L 391.352008 213.318292 
L 392.541219 218.042308 
L 393.73043 228.402384 
L 394.91964 232.677802 
L 396.108851 233.613312 
L 397.298062 243.962513 
L 398.487273 249.781594 
L 398.487273 249.781594 
" style="fill:none;stroke:#0000ff;stroke-linecap:square;stroke-width:2;"/>
   </g>
   <g id="patch_8">
    <path d="M 57.6 307.584 
L 57.6 189.312 
" style="fill:none;stroke:#000000;stroke-linecap:square;stroke-linejoin:miter;stroke-width:0.8;"/>
   </g>
   <g id="patch_9">
    <path d="M 414.72 307.584 
L 414.72 189.312 
" style="fill:none;stroke:#000000;stroke-linecap:square;stroke-linejoin:miter;stroke-width:0.8;"/>
   </g>
   <g id="patch_10">
    <path d="M 57.6 307.584 
L 414.72 307.584 
" style="fill:none;stroke:#000000;stroke-linecap:square;stroke-linejoin:miter;stroke-width:0.8;"/>
   </g>
   <g id="patch_11">
    <path d="M 57.6 189.312 
L 414.72 189.312 
" style="fill:none;stroke:#000000;stroke-linecap:square;stroke-linejoin:miter;stroke-width:0.8;"/>
   </g>
   <g id="text_29">
    <!-- BOLD signal -->
    <defs>
     <path d="M 19.671875 34.8125 
L 19.671875 8.109375 
L 35.5 8.109375 
Q 43.453125 8.109375 47.28125 11.40625 
Q 51.125 14.703125 51.125 21.484375 
Q 51.125 28.328125 47.28125 31.5625 
Q 43.453125 34.8125 35.5 34.8125 
z
M 19.671875 64.796875 
L 19.671875 42.828125 
L 34.28125 42.828125 
Q 41.5 42.828125 45.03125 45.53125 
Q 48.578125 48.25 48.578125 53.8125 
Q 48.578125 59.328125 45.03125 62.0625 
Q 41.5 64.796875 34.28125 64.796875 
z
M 9.8125 72.90625 
L 35.015625 72.90625 
Q 46.296875 72.90625 52.390625 68.21875 
Q 58.5 63.53125 58.5 54.890625 
Q 58.5 48.1875 55.375 44.234375 
Q 52.25 40.28125 46.1875 39.3125 
Q 53.46875 37.75 57.5 32.78125 
Q 61.53125 27.828125 61.53125 20.40625 
Q 61.53125 10.640625 54.890625 5.3125 
Q 48.25 0 35.984375 0 
L 9.8125 0 
z
" id="DejaVuSans-42"/>
     <path d="M 39.40625 66.21875 
Q 28.65625 66.21875 22.328125 58.203125 
Q 16.015625 50.203125 16.015625 36.375 
Q 16.015625 22.609375 22.328125 14.59375 
Q 28.65625 6.59375 39.40625 6.59375 
Q 50.140625 6.59375 56.421875 14.59375 
Q 62.703125 22.609375 62.703125 36.375 
Q 62.703125 50.203125 56.421875 58.203125 
Q 50.140625 66.21875 39.40625 66.21875 
z
M 39.40625 74.21875 
Q 54.734375 74.21875 63.90625 63.9375 
Q 73.09375 53.65625 73.09375 36.375 
Q 73.09375 19.140625 63.90625 8.859375 
Q 54.734375 -1.421875 39.40625 -1.421875 
Q 24.03125 -1.421875 14.8125 8.828125 
Q 5.609375 19.09375 5.609375 36.375 
Q 5.609375 53.65625 14.8125 63.9375 
Q 24.03125 74.21875 39.40625 74.21875 
z
" id="DejaVuSans-4f"/>
     <path d="M 9.8125 72.90625 
L 19.671875 72.90625 
L 19.671875 8.296875 
L 55.171875 8.296875 
L 55.171875 0 
L 9.8125 0 
z
" id="DejaVuSans-4c"/>
     <path d="M 19.671875 64.796875 
L 19.671875 8.109375 
L 31.59375 8.109375 
Q 46.6875 8.109375 53.6875 14.9375 
Q 60.6875 21.78125 60.6875 36.53125 
Q 60.6875 51.171875 53.6875 57.984375 
Q 46.6875 64.796875 31.59375 64.796875 
z
M 9.8125 72.90625 
L 30.078125 72.90625 
Q 51.265625 72.90625 61.171875 64.09375 
Q 71.09375 55.28125 71.09375 36.53125 
Q 71.09375 17.671875 61.125 8.828125 
Q 51.171875 0 30.078125 0 
L 9.8125 0 
z
" id="DejaVuSans-44"/>
     <path d="M 44.28125 53.078125 
L 44.28125 44.578125 
Q 40.484375 46.53125 36.375 47.5 
Q 32.28125 48.484375 27.875 48.484375 
Q 21.1875 48.484375 17.84375 46.4375 
Q 14.5 44.390625 14.5 40.28125 
Q 14.5 37.15625 16.890625 35.375 
Q 19.28125 33.59375 26.515625 31.984375 
L 29.59375 31.296875 
Q 39.15625 29.25 43.1875 25.515625 
Q 47.21875 21.78125 47.21875 15.09375 
Q 47.21875 7.46875 41.1875 3.015625 
Q 35.15625 -1.421875 24.609375 -1.421875 
Q 20.21875 -1.421875 15.453125 -0.5625 
Q 10.6875 0.296875 5.421875 2 
L 5.421875 11.28125 
Q 10.40625 8.6875 15.234375 7.390625 
Q 20.0625 6.109375 24.8125 6.109375 
Q 31.15625 6.109375 34.5625 8.28125 
Q 37.984375 10.453125 37.984375 14.40625 
Q 37.984375 18.0625 35.515625 20.015625 
Q 33.0625 21.96875 24.703125 23.78125 
L 21.578125 24.515625 
Q 13.234375 26.265625 9.515625 29.90625 
Q 5.8125 33.546875 5.8125 39.890625 
Q 5.8125 47.609375 11.28125 51.796875 
Q 16.75 56 26.8125 56 
Q 31.78125 56 36.171875 55.265625 
Q 40.578125 54.546875 44.28125 53.078125 
z
" id="DejaVuSans-73"/>
     <path d="M 45.40625 27.984375 
Q 45.40625 37.75 41.375 43.109375 
Q 37.359375 48.484375 30.078125 48.484375 
Q 22.859375 48.484375 18.828125 43.109375 
Q 14.796875 37.75 14.796875 27.984375 
Q 14.796875 18.265625 18.828125 12.890625 
Q 22.859375 7.515625 30.078125 7.515625 
Q 37.359375 7.515625 41.375 12.890625 
Q 45.40625 18.265625 45.40625 27.984375 
z
M 54.390625 6.78125 
Q 54.390625 -7.171875 48.1875 -13.984375 
Q 42 -20.796875 29.203125 -20.796875 
Q 24.46875 -20.796875 20.265625 -20.09375 
Q 16.0625 -19.390625 12.109375 -17.921875 
L 12.109375 -9.1875 
Q 16.0625 -11.328125 19.921875 -12.34375 
Q 23.78125 -13.375 27.78125 -13.375 
Q 36.625 -13.375 41.015625 -8.765625 
Q 45.40625 -4.15625 45.40625 5.171875 
L 45.40625 9.625 
Q 42.625 4.78125 38.28125 2.390625 
Q 33.9375 0 27.875 0 
Q 17.828125 0 11.671875 7.65625 
Q 5.515625 15.328125 5.515625 27.984375 
Q 5.515625 40.671875 11.671875 48.328125 
Q 17.828125 56 27.875 56 
Q 33.9375 56 38.28125 53.609375 
Q 42.625 51.21875 45.40625 46.390625 
L 45.40625 54.6875 
L 54.390625 54.6875 
z
" id="DejaVuSans-67"/>
     <path d="M 54.890625 33.015625 
L 54.890625 0 
L 45.90625 0 
L 45.90625 32.71875 
Q 45.90625 40.484375 42.875 44.328125 
Q 39.84375 48.1875 33.796875 48.1875 
Q 26.515625 48.1875 22.3125 43.546875 
Q 18.109375 38.921875 18.109375 30.90625 
L 18.109375 0 
L 9.078125 0 
L 9.078125 54.6875 
L 18.109375 54.6875 
L 18.109375 46.1875 
Q 21.34375 51.125 25.703125 53.5625 
Q 30.078125 56 35.796875 56 
Q 45.21875 56 50.046875 50.171875 
Q 54.890625 44.34375 54.890625 33.015625 
z
" id="DejaVuSans-6e"/>
     <path d="M 34.28125 27.484375 
Q 23.390625 27.484375 19.1875 25 
Q 14.984375 22.515625 14.984375 16.5 
Q 14.984375 11.71875 18.140625 8.90625 
Q 21.296875 6.109375 26.703125 6.109375 
Q 34.1875 6.109375 38.703125 11.40625 
Q 43.21875 16.703125 43.21875 25.484375 
L 43.21875 27.484375 
z
M 52.203125 31.203125 
L 52.203125 0 
L 43.21875 0 
L 43.21875 8.296875 
Q 40.140625 3.328125 35.546875 0.953125 
Q 30.953125 -1.421875 24.3125 -1.421875 
Q 15.921875 -1.421875 10.953125 3.296875 
Q 6 8.015625 6 15.921875 
Q 6 25.140625 12.171875 29.828125 
Q 18.359375 34.515625 30.609375 34.515625 
L 43.21875 34.515625 
L 43.21875 35.40625 
Q 43.21875 41.609375 39.140625 45 
Q 35.0625 48.390625 27.6875 48.390625 
Q 23 48.390625 18.546875 47.265625 
Q 14.109375 46.140625 10.015625 43.890625 
L 10.015625 52.203125 
Q 14.9375 54.109375 19.578125 55.046875 
Q 24.21875 56 28.609375 56 
Q 40.484375 56 46.34375 49.84375 
Q 52.203125 43.703125 52.203125 31.203125 
z
" id="DejaVuSans-61"/>
     <path d="M 9.421875 75.984375 
L 18.40625 75.984375 
L 18.40625 0 
L 9.421875 0 
z
" id="DejaVuSans-6c"/>
    </defs>
    <g transform="translate(199.703438 183.312)scale(0.12 -0.12)">
     <use xlink:href="#DejaVuSans-42"/>
     <use x="68.587891" xlink:href="#DejaVuSans-4f"/>
     <use x="147.298828" xlink:href="#DejaVuSans-4c"/>
     <use x="203.011719" xlink:href="#DejaVuSans-44"/>
     <use x="280.013672" xlink:href="#DejaVuSans-20"/>
     <use x="311.800781" xlink:href="#DejaVuSans-73"/>
     <use x="363.900391" xlink:href="#DejaVuSans-69"/>
     <use x="391.683594" xlink:href="#DejaVuSans-67"/>
     <use x="455.160156" xlink:href="#DejaVuSans-6e"/>
     <use x="518.539062" xlink:href="#DejaVuSans-61"/>
     <use x="579.818359" xlink:href="#DejaVuSans-6c"/>
    </g>
   </g>
  </g>
 </g>
 <defs>
  <clipPath id="p8363bd09f1">
   <rect height="118.272" width="357.12" x="57.6" y="41.472"/>
  </clipPath>
  <clipPath id="p126654b0e4">
   <rect height="118.272" width="357.12" x="57.6" y="189.312"/>
  </clipPath>
 </defs>
</svg>
