<?xml version="1.0" encoding="utf-8" standalone="no"?>
<!DOCTYPE svg PUBLIC "-//W3C//DTD SVG 1.1//EN"
  "http://www.w3.org/Graphics/SVG/1.1/DTD/svg11.dtd">
<!-- Created with matplotlib (http://matplotlib.org/) -->
<svg height="345pt" version="1.1" viewBox="0 0 460 345" width="460pt" xmlns="http://www.w3.org/2000/svg" xmlns:xlink="http://www.w3.org/1999/xlink">
 <defs>
  <style type="text/css">
*{stroke-linecap:butt;stroke-linejoin:round;}
  </style>
 </defs>
 <g id="figure_1">
  <g id="patch_1">
   <path d="M 0 345.6 
L 460.8 345.6 
L 460.8 0 
L 0 0 
z
" style="fill:#ffffff;"/>
  </g>
  <g id="axes_1">
   <g id="patch_2">
    <path d="M 57.6 159.744 
L 414.72 159.744 
L 414.72 41.472 
L 57.6 41.472 
z
" style="fill:#ffffff;"/>
   </g>
   <g id="matplotlib.axis_1">
    <g id="xtick_1">
     <g id="line2d_1">
      <defs>
       <path d="M 0 0 
L 0 3.5 
" id="mff6cfa9880" style="stroke:#000000;stroke-width:0.8;"/>
      </defs>
      <g>
       <use style="stroke:#000000;stroke-width:0.8;" x="57.183776" xlink:href="#mff6cfa9880" y="159.744"/>
      </g>
     </g>
     <g id="text_1">
      <!-- 0 -->
      <defs>
       <path d="M 31.78125 66.40625 
Q 24.171875 66.40625 20.328125 58.90625 
Q 16.5 51.421875 16.5 36.375 
Q 16.5 21.390625 20.328125 13.890625 
Q 24.171875 6.390625 31.78125 6.390625 
Q 39.453125 6.390625 43.28125 13.890625 
Q 47.125 21.390625 47.125 36.375 
Q 47.125 51.421875 43.28125 58.90625 
Q 39.453125 66.40625 31.78125 66.40625 
M 31.78125 74.21875 
Q 44.046875 74.21875 50.515625 64.515625 
Q 56.984375 54.828125 56.984375 36.375 
Q 56.984375 17.96875 50.515625 8.265625 
Q 44.046875 -1.421875 31.78125 -1.421875 
Q 19.53125 -1.421875 13.0625 8.265625 
Q 6.59375 17.96875 6.59375 36.375 
Q 6.59375 54.828125 13.0625 64.515625 
Q 19.53125 74.21875 31.78125 74.21875 
" id="DejaVuSans-30"/>
      </defs>
      <g transform="translate(54.002526 174.342437)scale(0.1 -0.1)">
       <use xlink:href="#DejaVuSans-30"/>
      </g>
     </g>
    </g>
    <g id="xtick_2">
     <g id="line2d_2">
      <g>
       <use style="stroke:#000000;stroke-width:0.8;" x="98.475818" xlink:href="#mff6cfa9880" y="159.744"/>
      </g>
     </g>
     <g id="text_2">
      <!-- 25 -->
      <defs>
       <path d="M 19.1875 8.296875 
L 53.609375 8.296875 
L 53.609375 0 
L 7.328125 0 
L 7.328125 8.296875 
Q 12.9375 14.109375 22.625 23.890625 
Q 32.328125 33.6875 34.8125 36.53125 
Q 39.546875 41.84375 41.421875 45.53125 
Q 43.3125 49.21875 43.3125 52.78125 
Q 43.3125 58.59375 39.234375 62.25 
Q 35.15625 65.921875 28.609375 65.921875 
Q 23.96875 65.921875 18.8125 64.3125 
Q 13.671875 62.703125 7.8125 59.421875 
L 7.8125 69.390625 
Q 13.765625 71.78125 18.9375 73 
Q 24.125 74.21875 28.421875 74.21875 
Q 39.75 74.21875 46.484375 68.546875 
Q 53.21875 62.890625 53.21875 53.421875 
Q 53.21875 48.921875 51.53125 44.890625 
Q 49.859375 40.875 45.40625 35.40625 
Q 44.1875 33.984375 37.640625 27.21875 
Q 31.109375 20.453125 19.1875 8.296875 
" id="DejaVuSans-32"/>
       <path d="M 10.796875 72.90625 
L 49.515625 72.90625 
L 49.515625 64.59375 
L 19.828125 64.59375 
L 19.828125 46.734375 
Q 21.96875 47.46875 24.109375 47.828125 
Q 26.265625 48.1875 28.421875 48.1875 
Q 40.625 48.1875 47.75 41.5 
Q 54.890625 34.8125 54.890625 23.390625 
Q 54.890625 11.625 47.5625 5.09375 
Q 40.234375 -1.421875 26.90625 -1.421875 
Q 22.3125 -1.421875 17.546875 -0.640625 
Q 12.796875 0.140625 7.71875 1.703125 
L 7.71875 11.625 
Q 12.109375 9.234375 16.796875 8.0625 
Q 21.484375 6.890625 26.703125 6.890625 
Q 35.15625 6.890625 40.078125 11.328125 
Q 45.015625 15.765625 45.015625 23.390625 
Q 45.015625 31 40.078125 35.4375 
Q 35.15625 39.890625 26.703125 39.890625 
Q 22.75 39.890625 18.8125 39.015625 
Q 14.890625 38.140625 10.796875 36.28125 
z
" id="DejaVuSans-35"/>
      </defs>
      <g transform="translate(92.113318 174.342437)scale(0.1 -0.1)">
       <use xlink:href="#DejaVuSans-32"/>
       <use x="63.623047" xlink:href="#DejaVuSans-35"/>
      </g>
     </g>
    </g>
    <g id="xtick_3">
     <g id="line2d_3">
      <g>
       <use style="stroke:#000000;stroke-width:0.8;" x="139.767859" xlink:href="#mff6cfa9880" y="159.744"/>
      </g>
     </g>
     <g id="text_3">
      <!-- 50 -->
      <g transform="translate(133.405359 174.342437)scale(0.1 -0.1)">
       <use xlink:href="#DejaVuSans-35"/>
       <use x="63.623047" xlink:href="#DejaVuSans-30"/>
      </g>
     </g>
    </g>
    <g id="xtick_4">
     <g id="line2d_4">
      <g>
       <use style="stroke:#000000;stroke-width:0.8;" x="181.0599" xlink:href="#mff6cfa9880" y="159.744"/>
      </g>
     </g>
     <g id="text_4">
      <!-- 75 -->
      <defs>
       <path d="M 8.203125 72.90625 
L 55.078125 72.90625 
L 55.078125 68.703125 
L 28.609375 0 
L 18.3125 0 
L 43.21875 64.59375 
L 8.203125 64.59375 
z
" id="DejaVuSans-37"/>
      </defs>
      <g transform="translate(174.6974 174.342437)scale(0.1 -0.1)">
       <use xlink:href="#DejaVuSans-37"/>
       <use x="63.623047" xlink:href="#DejaVuSans-35"/>
      </g>
     </g>
    </g>
    <g id="xtick_5">
     <g id="line2d_5">
      <g>
       <use style="stroke:#000000;stroke-width:0.8;" x="222.351941" xlink:href="#mff6cfa9880" y="159.744"/>
      </g>
     </g>
     <g id="text_5">
      <!-- 100 -->
      <defs>
       <path d="M 12.40625 8.296875 
L 28.515625 8.296875 
L 28.515625 63.921875 
L 10.984375 60.40625 
L 10.984375 69.390625 
L 28.421875 72.90625 
L 38.28125 72.90625 
L 38.28125 8.296875 
L 54.390625 8.296875 
L 54.390625 0 
L 12.40625 0 
z
" id="DejaVuSans-31"/>
      </defs>
      <g transform="translate(212.808191 174.342437)scale(0.1 -0.1)">
       <use xlink:href="#DejaVuSans-31"/>
       <use x="63.623047" xlink:href="#DejaVuSans-30"/>
       <use x="127.246094" xlink:href="#DejaVuSans-30"/>
      </g>
     </g>
    </g>
    <g id="xtick_6">
     <g id="line2d_6">
      <g>
       <use style="stroke:#000000;stroke-width:0.8;" x="263.643983" xlink:href="#mff6cfa9880" y="159.744"/>
      </g>
     </g>
     <g id="text_6">
      <!-- 125 -->
      <g transform="translate(254.100233 174.342437)scale(0.1 -0.1)">
       <use xlink:href="#DejaVuSans-31"/>
       <use x="63.623047" xlink:href="#DejaVuSans-32"/>
       <use x="127.246094" xlink:href="#DejaVuSans-35"/>
      </g>
     </g>
    </g>
    <g id="xtick_7">
     <g id="line2d_7">
      <g>
       <use style="stroke:#000000;stroke-width:0.8;" x="304.936024" xlink:href="#mff6cfa9880" y="159.744"/>
      </g>
     </g>
     <g id="text_7">
      <!-- 150 -->
      <g transform="translate(295.392274 174.342437)scale(0.1 -0.1)">
       <use xlink:href="#DejaVuSans-31"/>
       <use x="63.623047" xlink:href="#DejaVuSans-35"/>
       <use x="127.246094" xlink:href="#DejaVuSans-30"/>
      </g>
     </g>
    </g>
    <g id="xtick_8">
     <g id="line2d_8">
      <g>
       <use style="stroke:#000000;stroke-width:0.8;" x="346.228065" xlink:href="#mff6cfa9880" y="159.744"/>
      </g>
     </g>
     <g id="text_8">
      <!-- 175 -->
      <g transform="translate(336.684315 174.342437)scale(0.1 -0.1)">
       <use xlink:href="#DejaVuSans-31"/>
       <use x="63.623047" xlink:href="#DejaVuSans-37"/>
       <use x="127.246094" xlink:href="#DejaVuSans-35"/>
      </g>
     </g>
    </g>
    <g id="xtick_9">
     <g id="line2d_9">
      <g>
       <use style="stroke:#000000;stroke-width:0.8;" x="387.520107" xlink:href="#mff6cfa9880" y="159.744"/>
      </g>
     </g>
     <g id="text_9">
      <!-- 200 -->
      <g transform="translate(377.976357 174.342437)scale(0.1 -0.1)">
       <use xlink:href="#DejaVuSans-32"/>
       <use x="63.623047" xlink:href="#DejaVuSans-30"/>
       <use x="127.246094" xlink:href="#DejaVuSans-30"/>
      </g>
     </g>
    </g>
   </g>
   <g id="matplotlib.axis_2">
    <g id="ytick_1">
     <g id="line2d_10">
      <defs>
       <path d="M 0 0 
L -3.5 0 
" id="mfb03bafc7c" style="stroke:#000000;stroke-width:0.8;"/>
      </defs>
      <g>
       <use style="stroke:#000000;stroke-width:0.8;" x="57.6" xlink:href="#mfb03bafc7c" y="154.092085"/>
      </g>
     </g>
     <g id="text_10">
      <!-- −4 -->
      <defs>
       <path d="M 10.59375 35.5 
L 73.1875 35.5 
L 73.1875 27.203125 
L 10.59375 27.203125 
z
" id="DejaVuSans-2212"/>
       <path d="M 37.796875 64.3125 
L 12.890625 25.390625 
L 37.796875 25.390625 
z
M 35.203125 72.90625 
L 47.609375 72.90625 
L 47.609375 25.390625 
L 58.015625 25.390625 
L 58.015625 17.1875 
L 47.609375 17.1875 
L 47.609375 0 
L 37.796875 0 
L 37.796875 17.1875 
L 4.890625 17.1875 
L 4.890625 26.703125 
z
" id="DejaVuSans-34"/>
      </defs>
      <g transform="translate(35.857813 157.891304)scale(0.1 -0.1)">
       <use xlink:href="#DejaVuSans-2212"/>
       <use x="83.789062" xlink:href="#DejaVuSans-34"/>
      </g>
     </g>
    </g>
    <g id="ytick_2">
     <g id="line2d_11">
      <g>
       <use style="stroke:#000000;stroke-width:0.8;" x="57.6" xlink:href="#mfb03bafc7c" y="122.758179"/>
      </g>
     </g>
     <g id="text_11">
      <!-- −2 -->
      <g transform="translate(35.857813 126.557398)scale(0.1 -0.1)">
       <use xlink:href="#DejaVuSans-2212"/>
       <use x="83.789062" xlink:href="#DejaVuSans-32"/>
      </g>
     </g>
    </g>
    <g id="ytick_3">
     <g id="line2d_12">
      <g>
       <use style="stroke:#000000;stroke-width:0.8;" x="57.6" xlink:href="#mfb03bafc7c" y="91.424272"/>
      </g>
     </g>
     <g id="text_12">
      <!-- 0 -->
      <g transform="translate(44.2375 95.223491)scale(0.1 -0.1)">
       <use xlink:href="#DejaVuSans-30"/>
      </g>
     </g>
    </g>
    <g id="ytick_4">
     <g id="line2d_13">
      <g>
       <use style="stroke:#000000;stroke-width:0.8;" x="57.6" xlink:href="#mfb03bafc7c" y="60.090366"/>
      </g>
     </g>
     <g id="text_13">
      <!-- 2 -->
      <g transform="translate(44.2375 63.889585)scale(0.1 -0.1)">
       <use xlink:href="#DejaVuSans-32"/>
      </g>
     </g>
    </g>
   </g>
   <g id="line2d_14">
    <path clip-path="url(#pb093f14677)" d="M 73.832727 91.548195 
L 78.58957 115.477169 
L 85.724835 84.893633 
L 92.8601 94.639122 
L 99.995365 83.996575 
L 107.130629 78.844552 
L 114.265894 78.274072 
L 121.401159 52.910012 
L 128.536424 101.887869 
L 135.671688 94.89453 
L 142.806953 113.328243 
L 149.942218 98.954784 
L 157.077483 119.914711 
L 164.212747 103.734523 
L 171.348012 117.697074 
L 178.483277 82.377385 
L 185.618541 91.618853 
L 192.753806 54.168143 
L 199.889071 76.903256 
L 207.024336 129.144586 
L 216.538022 101.536214 
L 221.294865 87.251729 
L 228.43013 146.385044 
L 235.565395 143.227409 
L 242.700659 74.451496 
L 249.835924 78.909779 
L 256.971189 154.368 
L 264.106454 108.271336 
L 271.241718 99.263437 
L 278.376983 108.140761 
L 285.512248 120.61357 
L 292.647512 128.333366 
L 299.782777 101.678804 
L 306.918042 112.33314 
L 314.053307 87.467429 
L 321.188571 70.071884 
L 328.323836 66.097325 
L 335.459101 46.848 
L 342.594366 57.965499 
L 349.72963 79.214166 
L 356.864895 78.706589 
L 364.00016 121.313316 
L 371.135425 107.036257 
L 378.270689 131.409324 
L 385.405954 115.742395 
L 392.541219 93.459831 
L 398.487273 86.923634 
L 398.487273 86.923634 
" style="fill:none;stroke:#7e1e9c;stroke-linecap:square;stroke-width:2;"/>
   </g>
   <g id="patch_3">
    <path d="M 57.6 159.744 
L 57.6 41.472 
" style="fill:none;stroke:#000000;stroke-linecap:square;stroke-linejoin:miter;stroke-width:0.8;"/>
   </g>
   <g id="patch_4">
    <path d="M 414.72 159.744 
L 414.72 41.472 
" style="fill:none;stroke:#000000;stroke-linecap:square;stroke-linejoin:miter;stroke-width:0.8;"/>
   </g>
   <g id="patch_5">
    <path d="M 57.6 159.744 
L 414.72 159.744 
" style="fill:none;stroke:#000000;stroke-linecap:square;stroke-linejoin:miter;stroke-width:0.8;"/>
   </g>
   <g id="patch_6">
    <path d="M 57.6 41.472 
L 414.72 41.472 
" style="fill:none;stroke:#000000;stroke-linecap:square;stroke-linejoin:miter;stroke-width:0.8;"/>
   </g>
  </g>
  <g id="axes_2">
   <g id="patch_7">
    <path d="M 57.6 307.584 
L 414.72 307.584 
L 414.72 189.312 
L 57.6 189.312 
z
" style="fill:#ffffff;"/>
   </g>
   <g id="matplotlib.axis_3">
    <g id="xtick_10">
     <g id="line2d_15">
      <g>
       <use style="stroke:#000000;stroke-width:0.8;" x="57.183776" xlink:href="#mff6cfa9880" y="307.584"/>
      </g>
     </g>
     <g id="text_14">
      <!-- 0 -->
      <g transform="translate(54.002526 322.182437)scale(0.1 -0.1)">
       <use xlink:href="#DejaVuSans-30"/>
      </g>
     </g>
    </g>
    <g id="xtick_11">
     <g id="line2d_16">
      <g>
       <use style="stroke:#000000;stroke-width:0.8;" x="98.475818" xlink:href="#mff6cfa9880" y="307.584"/>
      </g>
     </g>
     <g id="text_15">
      <!-- 25 -->
      <g transform="translate(92.113318 322.182437)scale(0.1 -0.1)">
       <use xlink:href="#DejaVuSans-32"/>
       <use x="63.623047" xlink:href="#DejaVuSans-35"/>
      </g>
     </g>
    </g>
    <g id="xtick_12">
     <g id="line2d_17">
      <g>
       <use style="stroke:#000000;stroke-width:0.8;" x="139.767859" xlink:href="#mff6cfa9880" y="307.584"/>
      </g>
     </g>
     <g id="text_16">
      <!-- 50 -->
      <g transform="translate(133.405359 322.182437)scale(0.1 -0.1)">
       <use xlink:href="#DejaVuSans-35"/>
       <use x="63.623047" xlink:href="#DejaVuSans-30"/>
      </g>
     </g>
    </g>
    <g id="xtick_13">
     <g id="line2d_18">
      <g>
       <use style="stroke:#000000;stroke-width:0.8;" x="181.0599" xlink:href="#mff6cfa9880" y="307.584"/>
      </g>
     </g>
     <g id="text_17">
      <!-- 75 -->
      <g transform="translate(174.6974 322.182437)scale(0.1 -0.1)">
       <use xlink:href="#DejaVuSans-37"/>
       <use x="63.623047" xlink:href="#DejaVuSans-35"/>
      </g>
     </g>
    </g>
    <g id="xtick_14">
     <g id="line2d_19">
      <g>
       <use style="stroke:#000000;stroke-width:0.8;" x="222.351941" xlink:href="#mff6cfa9880" y="307.584"/>
      </g>
     </g>
     <g id="text_18">
      <!-- 100 -->
      <g transform="translate(212.808191 322.182437)scale(0.1 -0.1)">
       <use xlink:href="#DejaVuSans-31"/>
       <use x="63.623047" xlink:href="#DejaVuSans-30"/>
       <use x="127.246094" xlink:href="#DejaVuSans-30"/>
      </g>
     </g>
    </g>
    <g id="xtick_15">
     <g id="line2d_20">
      <g>
       <use style="stroke:#000000;stroke-width:0.8;" x="263.643983" xlink:href="#mff6cfa9880" y="307.584"/>
      </g>
     </g>
     <g id="text_19">
      <!-- 125 -->
      <g transform="translate(254.100233 322.182437)scale(0.1 -0.1)">
       <use xlink:href="#DejaVuSans-31"/>
       <use x="63.623047" xlink:href="#DejaVuSans-32"/>
       <use x="127.246094" xlink:href="#DejaVuSans-35"/>
      </g>
     </g>
    </g>
    <g id="xtick_16">
     <g id="line2d_21">
      <g>
       <use style="stroke:#000000;stroke-width:0.8;" x="304.936024" xlink:href="#mff6cfa9880" y="307.584"/>
      </g>
     </g>
     <g id="text_20">
      <!-- 150 -->
      <g transform="translate(295.392274 322.182437)scale(0.1 -0.1)">
       <use xlink:href="#DejaVuSans-31"/>
       <use x="63.623047" xlink:href="#DejaVuSans-35"/>
       <use x="127.246094" xlink:href="#DejaVuSans-30"/>
      </g>
     </g>
    </g>
    <g id="xtick_17">
     <g id="line2d_22">
      <g>
       <use style="stroke:#000000;stroke-width:0.8;" x="346.228065" xlink:href="#mff6cfa9880" y="307.584"/>
      </g>
     </g>
     <g id="text_21">
      <!-- 175 -->
      <g transform="translate(336.684315 322.182437)scale(0.1 -0.1)">
       <use xlink:href="#DejaVuSans-31"/>
       <use x="63.623047" xlink:href="#DejaVuSans-37"/>
       <use x="127.246094" xlink:href="#DejaVuSans-35"/>
      </g>
     </g>
    </g>
    <g id="xtick_18">
     <g id="line2d_23">
      <g>
       <use style="stroke:#000000;stroke-width:0.8;" x="387.520107" xlink:href="#mff6cfa9880" y="307.584"/>
      </g>
     </g>
     <g id="text_22">
      <!-- 200 -->
      <g transform="translate(377.976357 322.182437)scale(0.1 -0.1)">
       <use xlink:href="#DejaVuSans-32"/>
       <use x="63.623047" xlink:href="#DejaVuSans-30"/>
       <use x="127.246094" xlink:href="#DejaVuSans-30"/>
      </g>
     </g>
    </g>
    <g id="text_23">
     <!-- Time (Sec) -->
     <defs>
      <path d="M -0.296875 72.90625 
L 61.375 72.90625 
L 61.375 64.59375 
L 35.5 64.59375 
L 35.5 0 
L 25.59375 0 
L 25.59375 64.59375 
L -0.296875 64.59375 
z
" id="DejaVuSans-54"/>
      <path d="M 9.421875 54.6875 
L 18.40625 54.6875 
L 18.40625 0 
L 9.421875 0 
z
M 9.421875 75.984375 
L 18.40625 75.984375 
L 18.40625 64.59375 
L 9.421875 64.59375 
z
" id="DejaVuSans-69"/>
      <path d="M 52 44.1875 
Q 55.375 50.25 60.0625 53.125 
Q 64.75 56 71.09375 56 
Q 79.640625 56 84.28125 50.015625 
Q 88.921875 44.046875 88.921875 33.015625 
L 88.921875 0 
L 79.890625 0 
L 79.890625 32.71875 
Q 79.890625 40.578125 77.09375 44.375 
Q 74.3125 48.1875 68.609375 48.1875 
Q 61.625 48.1875 57.5625 43.546875 
Q 53.515625 38.921875 53.515625 30.90625 
L 53.515625 0 
L 44.484375 0 
L 44.484375 32.71875 
Q 44.484375 40.625 41.703125 44.40625 
Q 38.921875 48.1875 33.109375 48.1875 
Q 26.21875 48.1875 22.15625 43.53125 
Q 18.109375 38.875 18.109375 30.90625 
L 18.109375 0 
L 9.078125 0 
L 9.078125 54.6875 
L 18.109375 54.6875 
L 18.109375 46.1875 
Q 21.1875 51.21875 25.484375 53.609375 
Q 29.78125 56 35.6875 56 
Q 41.65625 56 45.828125 52.96875 
Q 50 49.953125 52 44.1875 
" id="DejaVuSans-6d"/>
      <path d="M 56.203125 29.59375 
L 56.203125 25.203125 
L 14.890625 25.203125 
Q 15.484375 15.921875 20.484375 11.0625 
Q 25.484375 6.203125 34.421875 6.203125 
Q 39.59375 6.203125 44.453125 7.46875 
Q 49.3125 8.734375 54.109375 11.28125 
L 54.109375 2.78125 
Q 49.265625 0.734375 44.1875 -0.34375 
Q 39.109375 -1.421875 33.890625 -1.421875 
Q 20.796875 -1.421875 13.15625 6.1875 
Q 5.515625 13.8125 5.515625 26.8125 
Q 5.515625 40.234375 12.765625 48.109375 
Q 20.015625 56 32.328125 56 
Q 43.359375 56 49.78125 48.890625 
Q 56.203125 41.796875 56.203125 29.59375 
M 47.21875 32.234375 
Q 47.125 39.59375 43.09375 43.984375 
Q 39.0625 48.390625 32.421875 48.390625 
Q 24.90625 48.390625 20.390625 44.140625 
Q 15.875 39.890625 15.1875 32.171875 
z
" id="DejaVuSans-65"/>
      <path id="DejaVuSans-20"/>
      <path d="M 31 75.875 
Q 24.46875 64.65625 21.28125 53.65625 
Q 18.109375 42.671875 18.109375 31.390625 
Q 18.109375 20.125 21.3125 9.0625 
Q 24.515625 -2 31 -13.1875 
L 23.1875 -13.1875 
Q 15.875 -1.703125 12.234375 9.375 
Q 8.59375 20.453125 8.59375 31.390625 
Q 8.59375 42.28125 12.203125 53.3125 
Q 15.828125 64.359375 23.1875 75.875 
z
" id="DejaVuSans-28"/>
      <path d="M 53.515625 70.515625 
L 53.515625 60.890625 
Q 47.90625 63.578125 42.921875 64.890625 
Q 37.9375 66.21875 33.296875 66.21875 
Q 25.25 66.21875 20.875 63.09375 
Q 16.5 59.96875 16.5 54.203125 
Q 16.5 49.359375 19.40625 46.890625 
Q 22.3125 44.4375 30.421875 42.921875 
L 36.375 41.703125 
Q 47.40625 39.59375 52.65625 34.296875 
Q 57.90625 29 57.90625 20.125 
Q 57.90625 9.515625 50.796875 4.046875 
Q 43.703125 -1.421875 29.984375 -1.421875 
Q 24.8125 -1.421875 18.96875 -0.25 
Q 13.140625 0.921875 6.890625 3.21875 
L 6.890625 13.375 
Q 12.890625 10.015625 18.65625 8.296875 
Q 24.421875 6.59375 29.984375 6.59375 
Q 38.421875 6.59375 43.015625 9.90625 
Q 47.609375 13.234375 47.609375 19.390625 
Q 47.609375 24.75 44.3125 27.78125 
Q 41.015625 30.8125 33.5 32.328125 
L 27.484375 33.5 
Q 16.453125 35.6875 11.515625 40.375 
Q 6.59375 45.0625 6.59375 53.421875 
Q 6.59375 63.09375 13.40625 68.65625 
Q 20.21875 74.21875 32.171875 74.21875 
Q 37.3125 74.21875 42.625 73.28125 
Q 47.953125 72.359375 53.515625 70.515625 
" id="DejaVuSans-53"/>
      <path d="M 48.78125 52.59375 
L 48.78125 44.1875 
Q 44.96875 46.296875 41.140625 47.34375 
Q 37.3125 48.390625 33.40625 48.390625 
Q 24.65625 48.390625 19.8125 42.84375 
Q 14.984375 37.3125 14.984375 27.296875 
Q 14.984375 17.28125 19.8125 11.734375 
Q 24.65625 6.203125 33.40625 6.203125 
Q 37.3125 6.203125 41.140625 7.25 
Q 44.96875 8.296875 48.78125 10.40625 
L 48.78125 2.09375 
Q 45.015625 0.34375 40.984375 -0.53125 
Q 36.96875 -1.421875 32.421875 -1.421875 
Q 20.0625 -1.421875 12.78125 6.34375 
Q 5.515625 14.109375 5.515625 27.296875 
Q 5.515625 40.671875 12.859375 48.328125 
Q 20.21875 56 33.015625 56 
Q 37.15625 56 41.109375 55.140625 
Q 45.0625 54.296875 48.78125 52.59375 
" id="DejaVuSans-63"/>
      <path d="M 8.015625 75.875 
L 15.828125 75.875 
Q 23.140625 64.359375 26.78125 53.3125 
Q 30.421875 42.28125 30.421875 31.390625 
Q 30.421875 20.453125 26.78125 9.375 
Q 23.140625 -1.703125 15.828125 -13.1875 
L 8.015625 -13.1875 
Q 14.5 -2 17.703125 9.0625 
Q 20.90625 20.125 20.90625 31.390625 
Q 20.90625 42.671875 17.703125 53.65625 
Q 14.5 64.65625 8.015625 75.875 
" id="DejaVuSans-29"/>
     </defs>
     <g transform="translate(209.281875 335.860562)scale(0.1 -0.1)">
      <use xlink:href="#DejaVuSans-54"/>
      <use x="61.037109" xlink:href="#DejaVuSans-69"/>
      <use x="88.820312" xlink:href="#DejaVuSans-6d"/>
      <use x="186.232422" xlink:href="#DejaVuSans-65"/>
      <use x="247.755859" xlink:href="#DejaVuSans-20"/>
      <use x="279.542969" xlink:href="#DejaVuSans-28"/>
      <use x="318.556641" xlink:href="#DejaVuSans-53"/>
      <use x="382.033203" xlink:href="#DejaVuSans-65"/>
      <use x="443.556641" xlink:href="#DejaVuSans-63"/>
      <use x="498.537109" xlink:href="#DejaVuSans-29"/>
     </g>
    </g>
   </g>
   <g id="matplotlib.axis_4">
    <g id="ytick_5">
     <g id="line2d_24">
      <g>
       <use style="stroke:#000000;stroke-width:0.8;" x="57.6" xlink:href="#mfb03bafc7c" y="304.738646"/>
      </g>
     </g>
     <g id="text_24">
      <!-- −20 -->
      <g transform="translate(29.495313 308.537865)scale(0.1 -0.1)">
       <use xlink:href="#DejaVuSans-2212"/>
       <use x="83.789062" xlink:href="#DejaVuSans-32"/>
       <use x="147.412109" xlink:href="#DejaVuSans-30"/>
      </g>
     </g>
    </g>
    <g id="ytick_6">
     <g id="line2d_25">
      <g>
       <use style="stroke:#000000;stroke-width:0.8;" x="57.6" xlink:href="#mfb03bafc7c" y="273.474155"/>
      </g>
     </g>
     <g id="text_25">
      <!-- −10 -->
      <g transform="translate(29.495313 277.273374)scale(0.1 -0.1)">
       <use xlink:href="#DejaVuSans-2212"/>
       <use x="83.789062" xlink:href="#DejaVuSans-31"/>
       <use x="147.412109" xlink:href="#DejaVuSans-30"/>
      </g>
     </g>
    </g>
    <g id="ytick_7">
     <g id="line2d_26">
      <g>
       <use style="stroke:#000000;stroke-width:0.8;" x="57.6" xlink:href="#mfb03bafc7c" y="242.209664"/>
      </g>
     </g>
     <g id="text_26">
      <!-- 0 -->
      <g transform="translate(44.2375 246.008883)scale(0.1 -0.1)">
       <use xlink:href="#DejaVuSans-30"/>
      </g>
     </g>
    </g>
    <g id="ytick_8">
     <g id="line2d_27">
      <g>
       <use style="stroke:#000000;stroke-width:0.8;" x="57.6" xlink:href="#mfb03bafc7c" y="210.945173"/>
      </g>
     </g>
     <g id="text_27">
      <!-- 10 -->
      <g transform="translate(37.875 214.744391)scale(0.1 -0.1)">
       <use xlink:href="#DejaVuSans-31"/>
       <use x="63.623047" xlink:href="#DejaVuSans-30"/>
      </g>
     </g>
    </g>
   </g>
   <g id="line2d_28">
    <path clip-path="url(#p46510a2340)" d="M 73.832727 263.057583 
L 75.021938 260.727619 
L 76.211149 256.649463 
L 78.58957 246.773792 
L 79.778781 242.901216 
L 80.967992 240.669432 
L 82.157203 240.308381 
L 83.346414 241.597637 
L 84.535624 243.933584 
L 85.724835 246.527821 
L 86.914046 248.634868 
L 88.103257 249.714872 
L 89.292468 249.52198 
L 90.481678 248.139553 
L 91.670889 245.929371 
L 94.049311 241.035294 
L 95.238521 239.221001 
L 96.427732 238.148706 
L 97.616943 237.813949 
L 98.806154 238.043024 
L 101.184575 239.120116 
L 102.373786 239.477411 
L 103.562997 239.511576 
L 104.752208 239.187415 
L 105.941419 238.548915 
L 108.31984 236.710237 
L 110.698262 234.761417 
L 111.887473 233.9173 
L 113.076683 233.218135 
L 114.265894 232.689537 
L 115.455105 232.340184 
L 116.644316 232.159681 
L 120.211948 231.890008 
L 121.401159 231.374893 
L 122.59037 230.371254 
L 123.77958 228.802383 
L 127.347213 222.419099 
L 128.536424 221.278025 
L 129.725634 221.506498 
L 130.914845 223.384087 
L 132.104056 226.902025 
L 133.293267 231.725564 
L 135.671688 242.757318 
L 136.860899 247.604653 
L 138.05011 251.343592 
L 139.239321 253.782772 
L 140.428531 254.997863 
L 141.617742 255.280738 
L 142.806953 255.034581 
L 143.996164 254.661056 
L 145.185375 254.477662 
L 146.374585 254.660105 
L 147.563796 255.199894 
L 149.942218 256.544047 
L 151.131429 256.817168 
L 152.320639 256.558085 
L 153.50985 255.721289 
L 154.699061 254.433905 
L 155.888272 252.97843 
L 157.077483 251.707275 
L 158.266693 250.939084 
L 159.455904 250.883999 
L 160.645115 251.593985 
L 161.834326 252.926795 
L 164.212747 256.129426 
L 165.401958 257.252121 
L 166.591169 257.695497 
L 167.78038 257.380094 
L 168.96959 256.414926 
L 171.348012 253.694159 
L 172.537223 252.608511 
L 173.726434 252.04054 
L 174.915644 252.061423 
L 178.483277 253.364726 
L 179.672488 252.915092 
L 180.861698 251.513974 
L 182.050909 249.118146 
L 183.24012 245.926134 
L 185.618541 238.875424 
L 186.807752 235.968311 
L 187.996963 233.931435 
L 189.186174 232.862349 
L 190.375385 232.603682 
L 192.753806 232.884628 
L 193.943017 232.489145 
L 195.132228 231.281061 
L 196.321439 229.173337 
L 199.889071 220.558433 
L 201.078282 218.650073 
L 202.267493 217.917019 
L 203.456703 218.508337 
L 204.645914 220.444321 
L 205.835125 223.682676 
L 207.024336 228.139202 
L 208.213546 233.68117 
L 209.402757 240.119311 
L 212.97039 261.150372 
L 214.1596 266.815357 
L 215.348811 270.861669 
L 216.538022 273.008974 
L 217.727233 273.237158 
L 218.916444 271.739897 
L 220.105654 268.847258 
L 221.294865 264.947325 
L 223.673287 255.615444 
L 224.862498 250.855546 
L 226.051708 246.566837 
L 227.240919 243.294526 
L 228.43013 241.597896 
L 229.619341 241.894859 
L 230.808551 244.35563 
L 231.997762 248.845381 
L 233.186973 254.89267 
L 235.565395 268.585788 
L 236.754605 274.648135 
L 237.943816 279.426091 
L 239.133027 282.629381 
L 240.322238 284.072944 
L 241.511449 283.589034 
L 242.700659 281.048126 
L 243.88987 276.430546 
L 245.079081 269.877518 
L 246.268292 261.73393 
L 249.835924 234.665235 
L 251.025135 227.448174 
L 252.214346 222.08801 
L 253.403556 218.785432 
L 254.592767 217.631714 
L 255.781978 218.712459 
L 256.971189 222.089814 
L 258.1604 227.726451 
L 259.34961 235.426348 
L 261.728032 254.934018 
L 262.917243 264.848001 
L 264.106454 273.303403 
L 265.295664 279.316118 
L 266.484875 282.313488 
L 267.674086 282.205617 
L 268.863297 279.363464 
L 270.052507 274.500666 
L 274.809351 250.844301 
L 275.998561 246.604865 
L 277.187772 243.512386 
L 278.376983 241.586505 
L 279.566194 240.758716 
L 280.755405 240.890646 
L 281.944615 241.801032 
L 283.133826 243.297911 
L 284.323037 245.204086 
L 286.701459 249.67306 
L 290.269091 256.568954 
L 292.647512 260.537763 
L 293.836723 262.203873 
L 295.025934 263.638048 
L 296.215145 264.824072 
L 297.404356 265.688582 
L 298.593566 266.084374 
L 299.782777 265.835497 
L 300.971988 264.805096 
L 302.161199 262.944691 
L 303.35041 260.329939 
L 306.918042 250.865559 
L 308.107253 248.448696 
L 309.296464 246.876919 
L 310.485674 246.203849 
L 311.674885 246.280027 
L 314.053307 247.30604 
L 315.242517 247.484264 
L 316.431728 247.058376 
L 317.620939 245.914139 
L 318.81015 244.077901 
L 319.999361 241.684248 
L 322.377782 235.998116 
L 324.756204 230.278725 
L 325.945415 227.725039 
L 327.134625 225.50827 
L 328.323836 223.705615 
L 329.513047 222.358411 
L 330.702258 221.462115 
L 331.891469 220.95909 
L 334.26989 220.604914 
L 335.459101 220.398781 
L 336.648312 219.954857 
L 337.837522 219.17428 
L 339.026733 218.04423 
L 341.405155 215.267595 
L 342.594366 214.099931 
L 343.783576 213.397874 
L 344.972787 213.305873 
L 346.161998 213.872309 
L 347.351209 215.07681 
L 348.54042 216.862357 
L 349.72963 219.152028 
L 350.918841 221.854401 
L 353.297263 228.063587 
L 355.675684 234.320395 
L 356.864895 236.970473 
L 358.054106 239.073482 
L 359.243317 240.549582 
L 360.432527 241.433037 
L 362.810949 242.333547 
L 364.00016 243.082324 
L 365.189371 244.502013 
L 366.378581 246.799231 
L 367.567792 249.986262 
L 371.135425 261.517351 
L 372.324635 264.321871 
L 373.513846 265.952835 
L 374.703057 266.331805 
L 375.892268 265.643924 
L 379.4599 261.585822 
L 380.649111 261.034562 
L 381.838322 261.274471 
L 383.027532 262.214483 
L 385.405954 264.89489 
L 386.595165 265.85405 
L 387.784376 266.165008 
L 388.973586 265.699757 
L 390.162797 264.449033 
L 391.352008 262.483796 
L 392.541219 259.922176 
L 393.73043 256.905508 
L 398.487273 243.303517 
L 398.487273 243.303517 
" style="fill:none;stroke:#7e1e9c;stroke-linecap:square;stroke-width:2;"/>
   </g>
   <g id="line2d_29">
    <path clip-path="url(#p46510a2340)" d="M 73.832727 225.306299 
L 75.021938 251.847694 
L 76.211149 267.381389 
L 77.40036 270.13803 
L 78.58957 238.090536 
L 79.778781 229.702629 
L 80.967992 252.235762 
L 82.157203 226.117416 
L 83.346414 261.743878 
L 85.724835 230.349482 
L 86.914046 259.401915 
L 89.292468 244.482445 
L 90.481678 250.170384 
L 91.670889 245.172349 
L 92.8601 234.739038 
L 94.049311 238.982583 
L 95.238521 244.714809 
L 96.427732 246.41126 
L 97.616943 232.15769 
L 98.806154 238.447846 
L 99.995365 242.400321 
L 101.184575 227.344919 
L 102.373786 264.182723 
L 103.562997 226.259694 
L 104.752208 236.225426 
L 105.941419 220.411483 
L 107.130629 249.105352 
L 108.31984 253.654409 
L 109.509051 221.580591 
L 110.698262 249.157576 
L 111.887473 224.894189 
L 113.076683 228.921409 
L 114.265894 222.144553 
L 115.455105 242.523999 
L 116.644316 242.8184 
L 117.833526 220.431038 
L 119.022737 239.707547 
L 120.211948 245.206213 
L 121.401159 212.868986 
L 122.59037 225.087493 
L 123.77958 227.546561 
L 124.968791 222.570986 
L 126.158002 232.717516 
L 127.347213 219.515574 
L 128.536424 242.225865 
L 129.725634 215.512951 
L 130.914845 236.416213 
L 132.104056 209.385694 
L 133.293267 214.123444 
L 134.482478 243.557397 
L 135.671688 248.746395 
L 136.860899 238.439319 
L 138.05011 270.225468 
L 139.239321 238.125206 
L 140.428531 265.637326 
L 141.617742 247.447373 
L 142.806953 254.61327 
L 143.996164 263.629304 
L 145.185375 260.802128 
L 146.374585 263.215603 
L 147.563796 237.397511 
L 148.753007 255.929757 
L 151.131429 245.026743 
L 152.320639 257.216426 
L 153.50985 271.495669 
L 154.699061 251.363206 
L 155.888272 257.018713 
L 157.077483 255.874625 
L 158.266693 270.361323 
L 160.645115 225.064745 
L 161.834326 251.90282 
L 163.023536 252.751814 
L 164.212747 258.02404 
L 165.401958 252.275463 
L 166.591169 254.058808 
L 167.78038 278.510404 
L 168.96959 256.292241 
L 170.158801 266.389021 
L 171.348012 228.993351 
L 172.537223 259.103816 
L 173.726434 247.46281 
L 174.915644 266.986909 
L 176.104855 241.382442 
L 177.294066 243.833375 
L 178.483277 263.070898 
L 179.672488 263.485351 
L 180.861698 246.551781 
L 182.050909 237.076777 
L 183.24012 247.446323 
L 184.429331 238.527035 
L 185.618541 251.376607 
L 186.807752 245.499158 
L 187.996963 227.467577 
L 189.186174 229.760258 
L 190.375385 220.917088 
L 191.564595 237.277917 
L 192.753806 243.503307 
L 193.943017 228.482057 
L 195.132228 224.732633 
L 196.321439 221.891394 
L 197.510649 234.373245 
L 198.69986 222.227177 
L 199.889071 239.985903 
L 201.078282 203.631968 
L 202.267493 217.446901 
L 204.645914 232.827645 
L 205.835125 210.141777 
L 207.024336 204.15704 
L 208.213546 232.343806 
L 209.402757 257.624236 
L 210.591968 240.878747 
L 211.781179 272.117543 
L 212.97039 256.840325 
L 214.1596 266.921241 
L 216.538022 275.987441 
L 217.727233 266.290362 
L 218.916444 275.661028 
L 220.105654 258.703523 
L 221.294865 275.383311 
L 222.484076 227.42311 
L 223.673287 288.296516 
L 224.862498 239.893306 
L 226.051708 244.1293 
L 227.240919 250.625678 
L 228.43013 265.23723 
L 229.619341 226.970373 
L 230.808551 244.1019 
L 231.997762 243.993355 
L 233.186973 246.003919 
L 234.376184 241.32447 
L 235.565395 283.006366 
L 236.754605 302.208 
L 237.943816 289.562826 
L 239.133027 249.14823 
L 240.322238 289.27156 
L 241.511449 278.190498 
L 242.700659 288.937114 
L 243.88987 283.28366 
L 245.079081 268.76292 
L 246.268292 242.378127 
L 247.457502 255.212299 
L 248.646713 254.955705 
L 249.835924 248.813776 
L 251.025135 220.983842 
L 252.214346 213.809689 
L 253.403556 226.969414 
L 254.592767 201.215752 
L 255.781978 217.340981 
L 256.971189 230.098396 
L 258.1604 218.630177 
L 259.34961 257.197129 
L 260.538821 245.404938 
L 261.728032 246.905101 
L 262.917243 258.556442 
L 264.106454 274.738799 
L 265.295664 266.939623 
L 266.484875 285.116733 
L 267.674086 297.618306 
L 268.863297 285.002672 
L 270.052507 289.426883 
L 271.241718 237.614233 
L 272.430929 260.507331 
L 273.62014 247.796209 
L 274.809351 252.569465 
L 275.998561 258.525208 
L 277.187772 265.618615 
L 278.376983 231.670523 
L 279.566194 244.348089 
L 280.755405 229.3561 
L 281.944615 215.829642 
L 283.133826 256.527181 
L 284.323037 255.411787 
L 285.512248 247.31066 
L 286.701459 258.258935 
L 287.890669 250.059505 
L 289.07988 265.089342 
L 290.269091 243.583083 
L 291.458302 251.185625 
L 292.647512 243.601781 
L 293.836723 271.705919 
L 295.025934 268.405553 
L 296.215145 271.643211 
L 297.404356 283.516221 
L 298.593566 252.893892 
L 299.782777 260.547038 
L 300.971988 262.604965 
L 302.161199 262.771197 
L 303.35041 259.154422 
L 304.53962 258.593883 
L 305.728831 257.483626 
L 306.918042 263.650505 
L 308.107253 218.903565 
L 309.296464 261.032962 
L 310.485674 258.118931 
L 311.674885 228.598635 
L 312.864096 257.824788 
L 314.053307 241.488935 
L 315.242517 255.601408 
L 316.431728 234.629715 
L 317.620939 247.923008 
L 318.81015 248.471953 
L 319.999361 238.953756 
L 321.188571 238.258483 
L 322.377782 235.372826 
L 323.566993 248.932477 
L 325.945415 214.769754 
L 327.134625 225.726888 
L 328.323836 217.09367 
L 329.513047 209.877393 
L 330.702258 220.676961 
L 331.891469 239.756834 
L 333.080679 242.474767 
L 335.459101 194.688 
L 336.648312 216.002179 
L 337.837522 230.604721 
L 339.026733 200.551893 
L 340.215944 229.381269 
L 341.405155 231.499834 
L 342.594366 200.780656 
L 343.783576 217.796167 
L 344.972787 209.672275 
L 346.161998 206.398397 
L 347.351209 209.729923 
L 348.54042 236.224558 
L 349.72963 222.356791 
L 350.918841 223.891956 
L 352.108052 200.833094 
L 353.297263 221.936154 
L 354.486474 235.357064 
L 355.675684 250.826861 
L 356.864895 229.43655 
L 358.054106 269.071345 
L 359.243317 228.237825 
L 360.432527 240.154665 
L 361.621738 215.303358 
L 362.810949 246.1327 
L 364.00016 244.097276 
L 365.189371 242.394283 
L 366.378581 253.735764 
L 367.567792 271.312165 
L 368.757003 247.079211 
L 369.946214 241.783476 
L 371.135425 276.430779 
L 372.324635 257.861695 
L 373.513846 254.783933 
L 374.703057 265.807665 
L 375.892268 264.550054 
L 377.081479 276.275542 
L 378.270689 271.328044 
L 379.4599 268.042894 
L 380.649111 252.727799 
L 381.838322 253.091977 
L 383.027532 250.866844 
L 384.216743 258.996033 
L 385.405954 274.649176 
L 386.595165 268.871992 
L 387.784376 289.554858 
L 388.973586 257.323126 
L 390.162797 252.781161 
L 391.352008 260.433407 
L 392.541219 250.433442 
L 393.73043 261.016142 
L 394.91964 252.553676 
L 396.108851 268.113075 
L 397.298062 239.414334 
L 398.487273 235.426796 
L 398.487273 235.426796 
" style="fill:none;stroke:#0343df;stroke-linecap:square;stroke-width:2;"/>
   </g>
   <g id="patch_8">
    <path d="M 57.6 307.584 
L 57.6 189.312 
" style="fill:none;stroke:#000000;stroke-linecap:square;stroke-linejoin:miter;stroke-width:0.8;"/>
   </g>
   <g id="patch_9">
    <path d="M 414.72 307.584 
L 414.72 189.312 
" style="fill:none;stroke:#000000;stroke-linecap:square;stroke-linejoin:miter;stroke-width:0.8;"/>
   </g>
   <g id="patch_10">
    <path d="M 57.6 307.584 
L 414.72 307.584 
" style="fill:none;stroke:#000000;stroke-linecap:square;stroke-linejoin:miter;stroke-width:0.8;"/>
   </g>
   <g id="patch_11">
    <path d="M 57.6 189.312 
L 414.72 189.312 
" style="fill:none;stroke:#000000;stroke-linecap:square;stroke-linejoin:miter;stroke-width:0.8;"/>
   </g>
  </g>
 </g>
 <defs>
  <clipPath id="pb093f14677">
   <rect height="118.272" width="357.12" x="57.6" y="41.472"/>
  </clipPath>
  <clipPath id="p46510a2340">
   <rect height="118.272" width="357.12" x="57.6" y="189.312"/>
  </clipPath>
 </defs>
</svg>
