<?xml version="1.0" encoding="utf-8" standalone="no"?>
<!DOCTYPE svg PUBLIC "-//W3C//DTD SVG 1.1//EN"
  "http://www.w3.org/Graphics/SVG/1.1/DTD/svg11.dtd">
<!-- Created with matplotlib (http://matplotlib.org/) -->
<svg height="345.6pt" version="1.1" viewBox="0 0 460.8 345.6" width="460.8pt" xmlns="http://www.w3.org/2000/svg" xmlns:xlink="http://www.w3.org/1999/xlink">
 <defs>
  <style type="text/css">
*{stroke-linecap:butt;stroke-linejoin:round;}
  </style>
 </defs>
 <g id="figure_1">
  <g id="patch_1">
   <path d="M 0 345.6 
L 460.8 345.6 
L 460.8 0 
L 0 0 
z
" style="fill:#ffffff;"/>
  </g>
  <g id="axes_1">
   <g id="patch_2">
    <path d="M 57.6 159.744 
L 414.72 159.744 
L 414.72 41.472 
L 57.6 41.472 
z
" style="fill:#ffffff;"/>
   </g>
   <g id="matplotlib.axis_1">
    <g id="xtick_1">
     <g id="line2d_1">
      <defs>
       <path d="M 0 0 
L 0 3.5 
" id="m1cd28836fe" style="stroke:#000000;stroke-width:0.8;"/>
      </defs>
      <g>
       <use style="stroke:#000000;stroke-width:0.8;" x="57.183776" xlink:href="#m1cd28836fe" y="159.744"/>
      </g>
     </g>
     <g id="text_1">
      <!-- 0 -->
      <defs>
       <path d="M 31.78125 66.40625 
Q 24.171875 66.40625 20.328125 58.90625 
Q 16.5 51.421875 16.5 36.375 
Q 16.5 21.390625 20.328125 13.890625 
Q 24.171875 6.390625 31.78125 6.390625 
Q 39.453125 6.390625 43.28125 13.890625 
Q 47.125 21.390625 47.125 36.375 
Q 47.125 51.421875 43.28125 58.90625 
Q 39.453125 66.40625 31.78125 66.40625 
z
M 31.78125 74.21875 
Q 44.046875 74.21875 50.515625 64.515625 
Q 56.984375 54.828125 56.984375 36.375 
Q 56.984375 17.96875 50.515625 8.265625 
Q 44.046875 -1.421875 31.78125 -1.421875 
Q 19.53125 -1.421875 13.0625 8.265625 
Q 6.59375 17.96875 6.59375 36.375 
Q 6.59375 54.828125 13.0625 64.515625 
Q 19.53125 74.21875 31.78125 74.21875 
z
" id="DejaVuSans-30"/>
      </defs>
      <g transform="translate(54.002526 174.342437)scale(0.1 -0.1)">
       <use xlink:href="#DejaVuSans-30"/>
      </g>
     </g>
    </g>
    <g id="xtick_2">
     <g id="line2d_2">
      <g>
       <use style="stroke:#000000;stroke-width:0.8;" x="98.475818" xlink:href="#m1cd28836fe" y="159.744"/>
      </g>
     </g>
     <g id="text_2">
      <!-- 25 -->
      <defs>
       <path d="M 19.1875 8.296875 
L 53.609375 8.296875 
L 53.609375 0 
L 7.328125 0 
L 7.328125 8.296875 
Q 12.9375 14.109375 22.625 23.890625 
Q 32.328125 33.6875 34.8125 36.53125 
Q 39.546875 41.84375 41.421875 45.53125 
Q 43.3125 49.21875 43.3125 52.78125 
Q 43.3125 58.59375 39.234375 62.25 
Q 35.15625 65.921875 28.609375 65.921875 
Q 23.96875 65.921875 18.8125 64.3125 
Q 13.671875 62.703125 7.8125 59.421875 
L 7.8125 69.390625 
Q 13.765625 71.78125 18.9375 73 
Q 24.125 74.21875 28.421875 74.21875 
Q 39.75 74.21875 46.484375 68.546875 
Q 53.21875 62.890625 53.21875 53.421875 
Q 53.21875 48.921875 51.53125 44.890625 
Q 49.859375 40.875 45.40625 35.40625 
Q 44.1875 33.984375 37.640625 27.21875 
Q 31.109375 20.453125 19.1875 8.296875 
z
" id="DejaVuSans-32"/>
       <path d="M 10.796875 72.90625 
L 49.515625 72.90625 
L 49.515625 64.59375 
L 19.828125 64.59375 
L 19.828125 46.734375 
Q 21.96875 47.46875 24.109375 47.828125 
Q 26.265625 48.1875 28.421875 48.1875 
Q 40.625 48.1875 47.75 41.5 
Q 54.890625 34.8125 54.890625 23.390625 
Q 54.890625 11.625 47.5625 5.09375 
Q 40.234375 -1.421875 26.90625 -1.421875 
Q 22.3125 -1.421875 17.546875 -0.640625 
Q 12.796875 0.140625 7.71875 1.703125 
L 7.71875 11.625 
Q 12.109375 9.234375 16.796875 8.0625 
Q 21.484375 6.890625 26.703125 6.890625 
Q 35.15625 6.890625 40.078125 11.328125 
Q 45.015625 15.765625 45.015625 23.390625 
Q 45.015625 31 40.078125 35.4375 
Q 35.15625 39.890625 26.703125 39.890625 
Q 22.75 39.890625 18.8125 39.015625 
Q 14.890625 38.140625 10.796875 36.28125 
z
" id="DejaVuSans-35"/>
      </defs>
      <g transform="translate(92.113318 174.342437)scale(0.1 -0.1)">
       <use xlink:href="#DejaVuSans-32"/>
       <use x="63.623047" xlink:href="#DejaVuSans-35"/>
      </g>
     </g>
    </g>
    <g id="xtick_3">
     <g id="line2d_3">
      <g>
       <use style="stroke:#000000;stroke-width:0.8;" x="139.767859" xlink:href="#m1cd28836fe" y="159.744"/>
      </g>
     </g>
     <g id="text_3">
      <!-- 50 -->
      <g transform="translate(133.405359 174.342437)scale(0.1 -0.1)">
       <use xlink:href="#DejaVuSans-35"/>
       <use x="63.623047" xlink:href="#DejaVuSans-30"/>
      </g>
     </g>
    </g>
    <g id="xtick_4">
     <g id="line2d_4">
      <g>
       <use style="stroke:#000000;stroke-width:0.8;" x="181.0599" xlink:href="#m1cd28836fe" y="159.744"/>
      </g>
     </g>
     <g id="text_4">
      <!-- 75 -->
      <defs>
       <path d="M 8.203125 72.90625 
L 55.078125 72.90625 
L 55.078125 68.703125 
L 28.609375 0 
L 18.3125 0 
L 43.21875 64.59375 
L 8.203125 64.59375 
z
" id="DejaVuSans-37"/>
      </defs>
      <g transform="translate(174.6974 174.342437)scale(0.1 -0.1)">
       <use xlink:href="#DejaVuSans-37"/>
       <use x="63.623047" xlink:href="#DejaVuSans-35"/>
      </g>
     </g>
    </g>
    <g id="xtick_5">
     <g id="line2d_5">
      <g>
       <use style="stroke:#000000;stroke-width:0.8;" x="222.351941" xlink:href="#m1cd28836fe" y="159.744"/>
      </g>
     </g>
     <g id="text_5">
      <!-- 100 -->
      <defs>
       <path d="M 12.40625 8.296875 
L 28.515625 8.296875 
L 28.515625 63.921875 
L 10.984375 60.40625 
L 10.984375 69.390625 
L 28.421875 72.90625 
L 38.28125 72.90625 
L 38.28125 8.296875 
L 54.390625 8.296875 
L 54.390625 0 
L 12.40625 0 
z
" id="DejaVuSans-31"/>
      </defs>
      <g transform="translate(212.808191 174.342437)scale(0.1 -0.1)">
       <use xlink:href="#DejaVuSans-31"/>
       <use x="63.623047" xlink:href="#DejaVuSans-30"/>
       <use x="127.246094" xlink:href="#DejaVuSans-30"/>
      </g>
     </g>
    </g>
    <g id="xtick_6">
     <g id="line2d_6">
      <g>
       <use style="stroke:#000000;stroke-width:0.8;" x="263.643983" xlink:href="#m1cd28836fe" y="159.744"/>
      </g>
     </g>
     <g id="text_6">
      <!-- 125 -->
      <g transform="translate(254.100233 174.342437)scale(0.1 -0.1)">
       <use xlink:href="#DejaVuSans-31"/>
       <use x="63.623047" xlink:href="#DejaVuSans-32"/>
       <use x="127.246094" xlink:href="#DejaVuSans-35"/>
      </g>
     </g>
    </g>
    <g id="xtick_7">
     <g id="line2d_7">
      <g>
       <use style="stroke:#000000;stroke-width:0.8;" x="304.936024" xlink:href="#m1cd28836fe" y="159.744"/>
      </g>
     </g>
     <g id="text_7">
      <!-- 150 -->
      <g transform="translate(295.392274 174.342437)scale(0.1 -0.1)">
       <use xlink:href="#DejaVuSans-31"/>
       <use x="63.623047" xlink:href="#DejaVuSans-35"/>
       <use x="127.246094" xlink:href="#DejaVuSans-30"/>
      </g>
     </g>
    </g>
    <g id="xtick_8">
     <g id="line2d_8">
      <g>
       <use style="stroke:#000000;stroke-width:0.8;" x="346.228065" xlink:href="#m1cd28836fe" y="159.744"/>
      </g>
     </g>
     <g id="text_8">
      <!-- 175 -->
      <g transform="translate(336.684315 174.342437)scale(0.1 -0.1)">
       <use xlink:href="#DejaVuSans-31"/>
       <use x="63.623047" xlink:href="#DejaVuSans-37"/>
       <use x="127.246094" xlink:href="#DejaVuSans-35"/>
      </g>
     </g>
    </g>
    <g id="xtick_9">
     <g id="line2d_9">
      <g>
       <use style="stroke:#000000;stroke-width:0.8;" x="387.520107" xlink:href="#m1cd28836fe" y="159.744"/>
      </g>
     </g>
     <g id="text_9">
      <!-- 200 -->
      <g transform="translate(377.976357 174.342437)scale(0.1 -0.1)">
       <use xlink:href="#DejaVuSans-32"/>
       <use x="63.623047" xlink:href="#DejaVuSans-30"/>
       <use x="127.246094" xlink:href="#DejaVuSans-30"/>
      </g>
     </g>
    </g>
   </g>
   <g id="matplotlib.axis_2">
    <g id="ytick_1">
     <g id="line2d_10">
      <defs>
       <path d="M 0 0 
L -3.5 0 
" id="m73150324be" style="stroke:#000000;stroke-width:0.8;"/>
      </defs>
      <g>
       <use style="stroke:#000000;stroke-width:0.8;" x="57.6" xlink:href="#m73150324be" y="135.014843"/>
      </g>
     </g>
     <g id="text_10">
      <!-- −2 -->
      <defs>
       <path d="M 10.59375 35.5 
L 73.1875 35.5 
L 73.1875 27.203125 
L 10.59375 27.203125 
z
" id="DejaVuSans-2212"/>
      </defs>
      <g transform="translate(35.857813 138.814061)scale(0.1 -0.1)">
       <use xlink:href="#DejaVuSans-2212"/>
       <use x="83.789062" xlink:href="#DejaVuSans-32"/>
      </g>
     </g>
    </g>
    <g id="ytick_2">
     <g id="line2d_11">
      <g>
       <use style="stroke:#000000;stroke-width:0.8;" x="57.6" xlink:href="#m73150324be" y="97.350671"/>
      </g>
     </g>
     <g id="text_11">
      <!-- 0 -->
      <g transform="translate(44.2375 101.14989)scale(0.1 -0.1)">
       <use xlink:href="#DejaVuSans-30"/>
      </g>
     </g>
    </g>
    <g id="ytick_3">
     <g id="line2d_12">
      <g>
       <use style="stroke:#000000;stroke-width:0.8;" x="57.6" xlink:href="#m73150324be" y="59.6865"/>
      </g>
     </g>
     <g id="text_12">
      <!-- 2 -->
      <g transform="translate(44.2375 63.485719)scale(0.1 -0.1)">
       <use xlink:href="#DejaVuSans-32"/>
      </g>
     </g>
    </g>
   </g>
   <g id="line2d_13">
    <path clip-path="url(#p2b45b94424)" d="M 73.832727 117.132081 
L 78.58957 77.567426 
L 85.724835 130.959037 
L 92.8601 88.460667 
L 99.995365 154.368 
L 107.130629 74.824583 
L 114.265894 124.337609 
L 121.401159 72.212559 
L 128.536424 101.813845 
L 135.671688 68.284458 
L 142.806953 96.16995 
L 149.942218 82.545779 
L 157.077483 101.600863 
L 164.212747 115.091655 
L 171.348012 116.468464 
L 178.483277 109.034943 
L 185.618541 122.214939 
L 192.753806 98.206776 
L 199.889071 46.848 
L 207.024336 74.187593 
L 214.1596 93.520623 
L 221.294865 68.393571 
L 228.43013 72.870691 
L 235.565395 135.319766 
L 242.700659 58.627175 
L 249.835924 50.582956 
L 256.971189 51.879455 
L 264.106454 112.100383 
L 271.241718 60.234199 
L 278.376983 83.425769 
L 285.512248 82.241587 
L 292.647512 114.422034 
L 299.782777 127.421559 
L 306.918042 130.370772 
L 314.053307 123.387639 
L 321.188571 120.174661 
L 328.323836 90.542173 
L 335.459101 111.544311 
L 342.594366 50.111381 
L 349.72963 63.207883 
L 356.864895 52.332581 
L 364.00016 59.35423 
L 371.135425 78.16142 
L 378.270689 109.34861 
L 385.405954 127.709967 
L 392.541219 153.127039 
L 398.487273 112.050837 
L 398.487273 112.050837 
" style="fill:none;stroke:#7e1e9c;stroke-linecap:square;stroke-width:2;"/>
   </g>
   <g id="patch_3">
    <path d="M 57.6 159.744 
L 57.6 41.472 
" style="fill:none;stroke:#000000;stroke-linecap:square;stroke-linejoin:miter;stroke-width:0.8;"/>
   </g>
   <g id="patch_4">
    <path d="M 414.72 159.744 
L 414.72 41.472 
" style="fill:none;stroke:#000000;stroke-linecap:square;stroke-linejoin:miter;stroke-width:0.8;"/>
   </g>
   <g id="patch_5">
    <path d="M 57.6 159.744 
L 414.72 159.744 
" style="fill:none;stroke:#000000;stroke-linecap:square;stroke-linejoin:miter;stroke-width:0.8;"/>
   </g>
   <g id="patch_6">
    <path d="M 57.6 41.472 
L 414.72 41.472 
" style="fill:none;stroke:#000000;stroke-linecap:square;stroke-linejoin:miter;stroke-width:0.8;"/>
   </g>
  </g>
  <g id="axes_2">
   <g id="patch_7">
    <path d="M 57.6 307.584 
L 414.72 307.584 
L 414.72 189.312 
L 57.6 189.312 
z
" style="fill:#ffffff;"/>
   </g>
   <g id="matplotlib.axis_3">
    <g id="xtick_10">
     <g id="line2d_14">
      <g>
       <use style="stroke:#000000;stroke-width:0.8;" x="57.183776" xlink:href="#m1cd28836fe" y="307.584"/>
      </g>
     </g>
     <g id="text_13">
      <!-- 0 -->
      <g transform="translate(54.002526 322.182437)scale(0.1 -0.1)">
       <use xlink:href="#DejaVuSans-30"/>
      </g>
     </g>
    </g>
    <g id="xtick_11">
     <g id="line2d_15">
      <g>
       <use style="stroke:#000000;stroke-width:0.8;" x="98.475818" xlink:href="#m1cd28836fe" y="307.584"/>
      </g>
     </g>
     <g id="text_14">
      <!-- 25 -->
      <g transform="translate(92.113318 322.182437)scale(0.1 -0.1)">
       <use xlink:href="#DejaVuSans-32"/>
       <use x="63.623047" xlink:href="#DejaVuSans-35"/>
      </g>
     </g>
    </g>
    <g id="xtick_12">
     <g id="line2d_16">
      <g>
       <use style="stroke:#000000;stroke-width:0.8;" x="139.767859" xlink:href="#m1cd28836fe" y="307.584"/>
      </g>
     </g>
     <g id="text_15">
      <!-- 50 -->
      <g transform="translate(133.405359 322.182437)scale(0.1 -0.1)">
       <use xlink:href="#DejaVuSans-35"/>
       <use x="63.623047" xlink:href="#DejaVuSans-30"/>
      </g>
     </g>
    </g>
    <g id="xtick_13">
     <g id="line2d_17">
      <g>
       <use style="stroke:#000000;stroke-width:0.8;" x="181.0599" xlink:href="#m1cd28836fe" y="307.584"/>
      </g>
     </g>
     <g id="text_16">
      <!-- 75 -->
      <g transform="translate(174.6974 322.182437)scale(0.1 -0.1)">
       <use xlink:href="#DejaVuSans-37"/>
       <use x="63.623047" xlink:href="#DejaVuSans-35"/>
      </g>
     </g>
    </g>
    <g id="xtick_14">
     <g id="line2d_18">
      <g>
       <use style="stroke:#000000;stroke-width:0.8;" x="222.351941" xlink:href="#m1cd28836fe" y="307.584"/>
      </g>
     </g>
     <g id="text_17">
      <!-- 100 -->
      <g transform="translate(212.808191 322.182437)scale(0.1 -0.1)">
       <use xlink:href="#DejaVuSans-31"/>
       <use x="63.623047" xlink:href="#DejaVuSans-30"/>
       <use x="127.246094" xlink:href="#DejaVuSans-30"/>
      </g>
     </g>
    </g>
    <g id="xtick_15">
     <g id="line2d_19">
      <g>
       <use style="stroke:#000000;stroke-width:0.8;" x="263.643983" xlink:href="#m1cd28836fe" y="307.584"/>
      </g>
     </g>
     <g id="text_18">
      <!-- 125 -->
      <g transform="translate(254.100233 322.182437)scale(0.1 -0.1)">
       <use xlink:href="#DejaVuSans-31"/>
       <use x="63.623047" xlink:href="#DejaVuSans-32"/>
       <use x="127.246094" xlink:href="#DejaVuSans-35"/>
      </g>
     </g>
    </g>
    <g id="xtick_16">
     <g id="line2d_20">
      <g>
       <use style="stroke:#000000;stroke-width:0.8;" x="304.936024" xlink:href="#m1cd28836fe" y="307.584"/>
      </g>
     </g>
     <g id="text_19">
      <!-- 150 -->
      <g transform="translate(295.392274 322.182437)scale(0.1 -0.1)">
       <use xlink:href="#DejaVuSans-31"/>
       <use x="63.623047" xlink:href="#DejaVuSans-35"/>
       <use x="127.246094" xlink:href="#DejaVuSans-30"/>
      </g>
     </g>
    </g>
    <g id="xtick_17">
     <g id="line2d_21">
      <g>
       <use style="stroke:#000000;stroke-width:0.8;" x="346.228065" xlink:href="#m1cd28836fe" y="307.584"/>
      </g>
     </g>
     <g id="text_20">
      <!-- 175 -->
      <g transform="translate(336.684315 322.182437)scale(0.1 -0.1)">
       <use xlink:href="#DejaVuSans-31"/>
       <use x="63.623047" xlink:href="#DejaVuSans-37"/>
       <use x="127.246094" xlink:href="#DejaVuSans-35"/>
      </g>
     </g>
    </g>
    <g id="xtick_18">
     <g id="line2d_22">
      <g>
       <use style="stroke:#000000;stroke-width:0.8;" x="387.520107" xlink:href="#m1cd28836fe" y="307.584"/>
      </g>
     </g>
     <g id="text_21">
      <!-- 200 -->
      <g transform="translate(377.976357 322.182437)scale(0.1 -0.1)">
       <use xlink:href="#DejaVuSans-32"/>
       <use x="63.623047" xlink:href="#DejaVuSans-30"/>
       <use x="127.246094" xlink:href="#DejaVuSans-30"/>
      </g>
     </g>
    </g>
    <g id="text_22">
     <!-- Time (Sec) -->
     <defs>
      <path d="M -0.296875 72.90625 
L 61.375 72.90625 
L 61.375 64.59375 
L 35.5 64.59375 
L 35.5 0 
L 25.59375 0 
L 25.59375 64.59375 
L -0.296875 64.59375 
z
" id="DejaVuSans-54"/>
      <path d="M 9.421875 54.6875 
L 18.40625 54.6875 
L 18.40625 0 
L 9.421875 0 
z
M 9.421875 75.984375 
L 18.40625 75.984375 
L 18.40625 64.59375 
L 9.421875 64.59375 
z
" id="DejaVuSans-69"/>
      <path d="M 52 44.1875 
Q 55.375 50.25 60.0625 53.125 
Q 64.75 56 71.09375 56 
Q 79.640625 56 84.28125 50.015625 
Q 88.921875 44.046875 88.921875 33.015625 
L 88.921875 0 
L 79.890625 0 
L 79.890625 32.71875 
Q 79.890625 40.578125 77.09375 44.375 
Q 74.3125 48.1875 68.609375 48.1875 
Q 61.625 48.1875 57.5625 43.546875 
Q 53.515625 38.921875 53.515625 30.90625 
L 53.515625 0 
L 44.484375 0 
L 44.484375 32.71875 
Q 44.484375 40.625 41.703125 44.40625 
Q 38.921875 48.1875 33.109375 48.1875 
Q 26.21875 48.1875 22.15625 43.53125 
Q 18.109375 38.875 18.109375 30.90625 
L 18.109375 0 
L 9.078125 0 
L 9.078125 54.6875 
L 18.109375 54.6875 
L 18.109375 46.1875 
Q 21.1875 51.21875 25.484375 53.609375 
Q 29.78125 56 35.6875 56 
Q 41.65625 56 45.828125 52.96875 
Q 50 49.953125 52 44.1875 
z
" id="DejaVuSans-6d"/>
      <path d="M 56.203125 29.59375 
L 56.203125 25.203125 
L 14.890625 25.203125 
Q 15.484375 15.921875 20.484375 11.0625 
Q 25.484375 6.203125 34.421875 6.203125 
Q 39.59375 6.203125 44.453125 7.46875 
Q 49.3125 8.734375 54.109375 11.28125 
L 54.109375 2.78125 
Q 49.265625 0.734375 44.1875 -0.34375 
Q 39.109375 -1.421875 33.890625 -1.421875 
Q 20.796875 -1.421875 13.15625 6.1875 
Q 5.515625 13.8125 5.515625 26.8125 
Q 5.515625 40.234375 12.765625 48.109375 
Q 20.015625 56 32.328125 56 
Q 43.359375 56 49.78125 48.890625 
Q 56.203125 41.796875 56.203125 29.59375 
z
M 47.21875 32.234375 
Q 47.125 39.59375 43.09375 43.984375 
Q 39.0625 48.390625 32.421875 48.390625 
Q 24.90625 48.390625 20.390625 44.140625 
Q 15.875 39.890625 15.1875 32.171875 
z
" id="DejaVuSans-65"/>
      <path id="DejaVuSans-20"/>
      <path d="M 31 75.875 
Q 24.46875 64.65625 21.28125 53.65625 
Q 18.109375 42.671875 18.109375 31.390625 
Q 18.109375 20.125 21.3125 9.0625 
Q 24.515625 -2 31 -13.1875 
L 23.1875 -13.1875 
Q 15.875 -1.703125 12.234375 9.375 
Q 8.59375 20.453125 8.59375 31.390625 
Q 8.59375 42.28125 12.203125 53.3125 
Q 15.828125 64.359375 23.1875 75.875 
z
" id="DejaVuSans-28"/>
      <path d="M 53.515625 70.515625 
L 53.515625 60.890625 
Q 47.90625 63.578125 42.921875 64.890625 
Q 37.9375 66.21875 33.296875 66.21875 
Q 25.25 66.21875 20.875 63.09375 
Q 16.5 59.96875 16.5 54.203125 
Q 16.5 49.359375 19.40625 46.890625 
Q 22.3125 44.4375 30.421875 42.921875 
L 36.375 41.703125 
Q 47.40625 39.59375 52.65625 34.296875 
Q 57.90625 29 57.90625 20.125 
Q 57.90625 9.515625 50.796875 4.046875 
Q 43.703125 -1.421875 29.984375 -1.421875 
Q 24.8125 -1.421875 18.96875 -0.25 
Q 13.140625 0.921875 6.890625 3.21875 
L 6.890625 13.375 
Q 12.890625 10.015625 18.65625 8.296875 
Q 24.421875 6.59375 29.984375 6.59375 
Q 38.421875 6.59375 43.015625 9.90625 
Q 47.609375 13.234375 47.609375 19.390625 
Q 47.609375 24.75 44.3125 27.78125 
Q 41.015625 30.8125 33.5 32.328125 
L 27.484375 33.5 
Q 16.453125 35.6875 11.515625 40.375 
Q 6.59375 45.0625 6.59375 53.421875 
Q 6.59375 63.09375 13.40625 68.65625 
Q 20.21875 74.21875 32.171875 74.21875 
Q 37.3125 74.21875 42.625 73.28125 
Q 47.953125 72.359375 53.515625 70.515625 
z
" id="DejaVuSans-53"/>
      <path d="M 48.78125 52.59375 
L 48.78125 44.1875 
Q 44.96875 46.296875 41.140625 47.34375 
Q 37.3125 48.390625 33.40625 48.390625 
Q 24.65625 48.390625 19.8125 42.84375 
Q 14.984375 37.3125 14.984375 27.296875 
Q 14.984375 17.28125 19.8125 11.734375 
Q 24.65625 6.203125 33.40625 6.203125 
Q 37.3125 6.203125 41.140625 7.25 
Q 44.96875 8.296875 48.78125 10.40625 
L 48.78125 2.09375 
Q 45.015625 0.34375 40.984375 -0.53125 
Q 36.96875 -1.421875 32.421875 -1.421875 
Q 20.0625 -1.421875 12.78125 6.34375 
Q 5.515625 14.109375 5.515625 27.296875 
Q 5.515625 40.671875 12.859375 48.328125 
Q 20.21875 56 33.015625 56 
Q 37.15625 56 41.109375 55.140625 
Q 45.0625 54.296875 48.78125 52.59375 
z
" id="DejaVuSans-63"/>
      <path d="M 8.015625 75.875 
L 15.828125 75.875 
Q 23.140625 64.359375 26.78125 53.3125 
Q 30.421875 42.28125 30.421875 31.390625 
Q 30.421875 20.453125 26.78125 9.375 
Q 23.140625 -1.703125 15.828125 -13.1875 
L 8.015625 -13.1875 
Q 14.5 -2 17.703125 9.0625 
Q 20.90625 20.125 20.90625 31.390625 
Q 20.90625 42.671875 17.703125 53.65625 
Q 14.5 64.65625 8.015625 75.875 
z
" id="DejaVuSans-29"/>
     </defs>
     <g transform="translate(209.281875 335.860562)scale(0.1 -0.1)">
      <use xlink:href="#DejaVuSans-54"/>
      <use x="61.037109" xlink:href="#DejaVuSans-69"/>
      <use x="88.820312" xlink:href="#DejaVuSans-6d"/>
      <use x="186.232422" xlink:href="#DejaVuSans-65"/>
      <use x="247.755859" xlink:href="#DejaVuSans-20"/>
      <use x="279.542969" xlink:href="#DejaVuSans-28"/>
      <use x="318.556641" xlink:href="#DejaVuSans-53"/>
      <use x="382.033203" xlink:href="#DejaVuSans-65"/>
      <use x="443.556641" xlink:href="#DejaVuSans-63"/>
      <use x="498.537109" xlink:href="#DejaVuSans-29"/>
     </g>
    </g>
   </g>
   <g id="matplotlib.axis_4">
    <g id="ytick_4">
     <g id="line2d_23">
      <g>
       <use style="stroke:#000000;stroke-width:0.8;" x="57.6" xlink:href="#m73150324be" y="286.480091"/>
      </g>
     </g>
     <g id="text_23">
      <!-- −10 -->
      <g transform="translate(29.495313 290.27931)scale(0.1 -0.1)">
       <use xlink:href="#DejaVuSans-2212"/>
       <use x="83.789062" xlink:href="#DejaVuSans-31"/>
       <use x="147.412109" xlink:href="#DejaVuSans-30"/>
      </g>
     </g>
    </g>
    <g id="ytick_5">
     <g id="line2d_24">
      <g>
       <use style="stroke:#000000;stroke-width:0.8;" x="57.6" xlink:href="#m73150324be" y="253.071388"/>
      </g>
     </g>
     <g id="text_24">
      <!-- 0 -->
      <g transform="translate(44.2375 256.870607)scale(0.1 -0.1)">
       <use xlink:href="#DejaVuSans-30"/>
      </g>
     </g>
    </g>
    <g id="ytick_6">
     <g id="line2d_25">
      <g>
       <use style="stroke:#000000;stroke-width:0.8;" x="57.6" xlink:href="#m73150324be" y="219.662686"/>
      </g>
     </g>
     <g id="text_25">
      <!-- 10 -->
      <g transform="translate(37.875 223.461905)scale(0.1 -0.1)">
       <use xlink:href="#DejaVuSans-31"/>
       <use x="63.623047" xlink:href="#DejaVuSans-30"/>
      </g>
     </g>
    </g>
   </g>
   <g id="line2d_26">
    <path clip-path="url(#pc53236ea60)" d="M 73.832727 248.08867 
L 75.021938 252.645276 
L 77.40036 263.686346 
L 78.58957 268.297412 
L 79.778781 271.100859 
L 80.967992 271.568091 
L 82.157203 269.6305 
L 83.346414 265.761561 
L 85.724835 256.185998 
L 86.914046 252.649751 
L 88.103257 250.994265 
L 89.292468 251.464112 
L 90.481678 253.7713 
L 92.8601 260.6953 
L 94.049311 263.447011 
L 95.238521 264.78835 
L 96.427732 264.486051 
L 97.616943 262.812593 
L 98.806154 260.494136 
L 99.995365 258.471749 
L 101.184575 257.612788 
L 102.373786 258.499575 
L 103.562997 261.269963 
L 104.752208 265.477449 
L 105.941419 270.142357 
L 107.130629 274.047483 
L 108.31984 276.101587 
L 109.509051 275.599757 
L 110.698262 272.384046 
L 111.887473 266.944624 
L 114.265894 253.840542 
L 115.455105 248.661872 
L 116.644316 245.612998 
L 117.833526 244.994696 
L 119.022737 246.511499 
L 122.59037 254.887186 
L 123.77958 255.864645 
L 124.968791 255.108673 
L 126.158002 252.796492 
L 129.725634 243.264395 
L 130.914845 241.595492 
L 132.104056 241.31504 
L 133.293267 242.278773 
L 136.860899 247.319338 
L 138.05011 247.846979 
L 139.239321 247.304035 
L 140.428531 245.829921 
L 142.806953 241.905901 
L 143.996164 240.53592 
L 145.185375 240.099176 
L 146.374585 240.731954 
L 147.563796 242.309897 
L 151.131429 248.85117 
L 152.320639 250.293926 
L 153.50985 250.997866 
L 154.699061 251.022533 
L 155.888272 250.602143 
L 157.077483 250.059881 
L 158.266693 249.707827 
L 159.455904 249.775464 
L 160.645115 250.378241 
L 161.834326 251.517707 
L 163.023536 253.106213 
L 165.401958 257.069322 
L 167.78038 261.188376 
L 168.96959 263.047897 
L 170.158801 264.659644 
L 171.348012 265.954682 
L 172.537223 266.893243 
L 173.726434 267.471996 
L 174.915644 267.716453 
L 176.104855 267.660754 
L 177.294066 267.332956 
L 178.483277 266.755292 
L 179.672488 265.952367 
L 182.050909 263.832495 
L 184.429331 261.634185 
L 185.618541 260.86677 
L 186.807752 260.501312 
L 187.996963 260.605183 
L 189.186174 261.156311 
L 191.564595 262.905472 
L 192.753806 263.539828 
L 193.943017 263.649149 
L 195.132228 263.068175 
L 196.321439 261.730203 
L 197.510649 259.618426 
L 198.69986 256.726015 
L 199.889071 253.056849 
L 201.078282 248.647 
L 203.456703 238.051312 
L 205.835125 227.179591 
L 207.024336 222.953658 
L 208.213546 220.201515 
L 209.402757 219.179435 
L 210.591968 219.897677 
L 211.781179 222.151213 
L 212.97039 225.589008 
L 215.348811 234.384641 
L 217.727233 243.411325 
L 218.916444 247.317363 
L 220.105654 250.452522 
L 221.294865 252.562529 
L 222.484076 253.480361 
L 223.673287 253.167323 
L 224.862498 251.730573 
L 226.051708 249.428178 
L 229.619341 241.161376 
L 230.808551 239.095507 
L 231.997762 237.728289 
L 233.186973 237.222902 
L 234.376184 237.784868 
L 235.565395 239.619767 
L 236.754605 242.854489 
L 237.943816 247.476279 
L 240.322238 259.557001 
L 241.511449 265.463138 
L 242.700659 269.893677 
L 243.88987 271.958436 
L 245.079081 271.15077 
L 246.268292 267.439554 
L 247.457502 261.28419 
L 249.835924 245.177147 
L 251.025135 237.159564 
L 252.214346 230.165604 
L 253.403556 224.591843 
L 254.592767 220.573781 
L 255.781978 218.054974 
L 256.971189 216.85497 
L 258.1604 216.725137 
L 259.34961 217.396563 
L 260.538821 218.649486 
L 261.728032 220.406724 
L 262.917243 222.761918 
L 264.106454 225.905201 
L 265.295664 230.00958 
L 266.484875 235.141298 
L 271.241718 258.746799 
L 272.430929 261.797645 
L 273.62014 262.507686 
L 274.809351 260.850495 
L 275.998561 257.236391 
L 279.566194 242.854076 
L 280.755405 239.52101 
L 281.944615 237.652716 
L 283.133826 237.229789 
L 284.323037 237.983155 
L 285.512248 239.507525 
L 287.890669 243.247614 
L 289.07988 244.889195 
L 291.458302 247.47809 
L 292.647512 248.761164 
L 293.836723 250.326725 
L 295.025934 252.328783 
L 296.215145 254.818417 
L 298.593566 260.881214 
L 300.971988 267.065818 
L 302.161199 269.737411 
L 303.35041 271.992564 
L 304.53962 273.794716 
L 305.728831 275.136702 
L 306.918042 276.033623 
L 308.107253 276.523076 
L 309.296464 276.663352 
L 310.485674 276.521558 
L 311.674885 276.152752 
L 312.864096 275.588176 
L 314.053307 274.841244 
L 315.242517 273.922093 
L 317.620939 271.655275 
L 321.188571 267.884842 
L 323.566993 265.767129 
L 327.134625 263.205523 
L 328.323836 262.063217 
L 329.513047 260.52616 
L 330.702258 258.517582 
L 331.891469 256.067705 
L 334.26989 250.737633 
L 335.459101 248.583754 
L 336.648312 247.236889 
L 337.837522 246.893046 
L 339.026733 247.536727 
L 341.405155 250.307513 
L 342.594366 251.187854 
L 343.783576 250.913846 
L 344.972787 249.118242 
L 346.161998 245.74356 
L 347.351209 241.097201 
L 349.72963 230.607155 
L 350.918841 226.205783 
L 352.108052 223.066868 
L 353.297263 221.384176 
L 354.486474 221.071465 
L 355.675684 221.822173 
L 356.864895 223.216747 
L 359.243317 226.331484 
L 360.432527 227.492495 
L 361.621738 228.248382 
L 362.810949 228.662824 
L 366.378581 229.332622 
L 367.567792 229.791171 
L 368.757003 230.492592 
L 369.946214 231.478935 
L 371.135425 232.775448 
L 372.324635 234.383228 
L 373.513846 236.276363 
L 375.892268 240.761144 
L 378.270689 246.061513 
L 380.649111 252.172582 
L 385.405954 265.357763 
L 386.595165 268.263852 
L 387.784376 270.844792 
L 388.973586 273.090917 
L 391.352008 276.789933 
L 397.298062 285.09233 
L 398.487273 286.210565 
L 398.487273 286.210565 
" style="fill:none;stroke:#7e1e9c;stroke-linecap:square;stroke-width:2;"/>
   </g>
   <g id="line2d_27">
    <path clip-path="url(#pc53236ea60)" d="M 73.832727 252.649038 
L 75.021938 243.261297 
L 76.211149 246.942554 
L 78.58957 293.130057 
L 79.778781 263.785492 
L 80.967992 263.426354 
L 82.157203 261.012696 
L 83.346414 273.043649 
L 84.535624 245.290118 
L 85.724835 271.905035 
L 86.914046 246.616079 
L 88.103257 260.100532 
L 89.292468 265.566066 
L 91.670889 238.883838 
L 92.8601 242.13189 
L 94.049311 261.824701 
L 95.238521 286.330809 
L 96.427732 270.000306 
L 97.616943 259.72984 
L 98.806154 274.845153 
L 99.995365 230.054637 
L 101.184575 282.233435 
L 102.373786 247.089502 
L 103.562997 249.817578 
L 104.752208 282.542458 
L 105.941419 249.236557 
L 107.130629 282.259537 
L 108.31984 279.089513 
L 109.509051 298.201293 
L 110.698262 260.688103 
L 111.887473 253.154814 
L 113.076683 262.957119 
L 114.265894 260.812365 
L 115.455105 235.092474 
L 116.644316 251.965221 
L 117.833526 238.327744 
L 120.211948 261.555997 
L 121.401159 260.962716 
L 122.59037 241.311953 
L 123.77958 261.236393 
L 124.968791 264.212501 
L 126.158002 232.44109 
L 127.347213 243.825732 
L 128.536424 241.783486 
L 129.725634 244.847371 
L 130.914845 263.224576 
L 132.104056 247.622615 
L 133.293267 249.17951 
L 134.482478 217.711234 
L 135.671688 249.848168 
L 136.860899 239.4419 
L 138.05011 238.184548 
L 139.239321 269.731986 
L 140.428531 233.20792 
L 141.617742 257.032777 
L 142.806953 257.241344 
L 143.996164 230.876826 
L 145.185375 222.566665 
L 146.374585 248.830189 
L 147.563796 242.329476 
L 148.753007 245.679396 
L 149.942218 247.423763 
L 151.131429 243.440257 
L 152.320639 244.791245 
L 153.50985 256.932426 
L 154.699061 241.421432 
L 155.888272 249.362875 
L 157.077483 293.426033 
L 158.266693 216.833943 
L 159.455904 262.843781 
L 160.645115 245.062833 
L 161.834326 259.076192 
L 163.023536 248.294452 
L 164.212747 247.845652 
L 165.401958 234.042019 
L 166.591169 254.523751 
L 167.78038 266.329343 
L 168.96959 286.43472 
L 170.158801 291.586581 
L 171.348012 239.028667 
L 172.537223 277.82259 
L 173.726434 273.063426 
L 174.915644 264.127303 
L 176.104855 262.841007 
L 177.294066 247.239843 
L 179.672488 267.699789 
L 180.861698 264.537086 
L 182.050909 285.141997 
L 183.24012 266.834226 
L 184.429331 254.115943 
L 185.618541 276.34233 
L 186.807752 262.45381 
L 187.996963 254.003961 
L 189.186174 261.947411 
L 190.375385 239.61034 
L 191.564595 260.511901 
L 192.753806 276.747145 
L 193.943017 262.604464 
L 195.132228 262.178675 
L 196.321439 256.12759 
L 197.510649 273.862606 
L 198.69986 242.689267 
L 199.889071 268.316774 
L 201.078282 246.681793 
L 202.267493 246.655436 
L 203.456703 239.859283 
L 204.645914 223.7508 
L 205.835125 239.623788 
L 207.024336 196.002168 
L 208.213546 232.389768 
L 209.402757 194.688 
L 210.591968 233.984087 
L 211.781179 218.547633 
L 212.97039 252.821184 
L 214.1596 232.484131 
L 215.348811 241.304232 
L 216.538022 235.063007 
L 217.727233 231.423941 
L 218.916444 243.706615 
L 220.105654 231.981516 
L 221.294865 251.52321 
L 222.484076 257.680554 
L 223.673287 263.249032 
L 224.862498 253.159445 
L 226.051708 255.18815 
L 227.240919 254.23854 
L 228.43013 237.741381 
L 229.619341 236.84537 
L 230.808551 246.016707 
L 231.997762 225.125601 
L 233.186973 235.127228 
L 234.376184 259.169213 
L 235.565395 218.184832 
L 236.754605 234.664467 
L 237.943816 253.195232 
L 239.133027 267.291798 
L 240.322238 269.644043 
L 241.511449 258.348798 
L 242.700659 244.078039 
L 243.88987 285.064779 
L 245.079081 282.927626 
L 246.268292 260.099886 
L 247.457502 282.918549 
L 248.646713 222.570431 
L 249.835924 257.043494 
L 251.025135 232.189435 
L 252.214346 217.47747 
L 253.403556 230.932005 
L 254.592767 234.7864 
L 255.781978 217.09528 
L 256.971189 221.261214 
L 258.1604 208.646958 
L 259.34961 216.929255 
L 260.538821 221.438054 
L 261.728032 230.113819 
L 262.917243 213.269301 
L 264.106454 211.997667 
L 265.295664 242.644605 
L 266.484875 212.268944 
L 267.674086 260.178038 
L 268.863297 244.0907 
L 270.052507 252.894518 
L 271.241718 276.791233 
L 272.430929 267.242148 
L 273.62014 262.285446 
L 274.809351 249.494737 
L 275.998561 247.759952 
L 277.187772 252.248389 
L 278.376983 247.262965 
L 279.566194 232.033201 
L 280.755405 242.897486 
L 281.944615 244.82838 
L 284.323037 238.692429 
L 285.512248 253.303469 
L 286.701459 240.228334 
L 287.890669 231.069383 
L 289.07988 265.983535 
L 290.269091 215.921403 
L 291.458302 234.88392 
L 292.647512 258.377919 
L 293.836723 258.339226 
L 295.025934 254.059771 
L 296.215145 250.676547 
L 297.404356 277.641754 
L 298.593566 259.626543 
L 299.782777 275.692118 
L 300.971988 239.11887 
L 302.161199 242.420433 
L 303.35041 276.561069 
L 304.53962 283.859202 
L 305.728831 296.164004 
L 306.918042 300.545838 
L 308.107253 275.478513 
L 309.296464 259.120381 
L 310.485674 267.199642 
L 311.674885 248.888837 
L 312.864096 289.649649 
L 314.053307 284.944479 
L 315.242517 284.48402 
L 316.431728 253.788477 
L 317.620939 259.952579 
L 318.81015 302.208 
L 319.999361 279.633139 
L 321.188571 250.410841 
L 322.377782 272.725452 
L 323.566993 253.024557 
L 324.756204 255.377026 
L 325.945415 266.994068 
L 327.134625 258.641944 
L 328.323836 281.996858 
L 330.702258 253.047932 
L 331.891469 272.723923 
L 333.080679 233.222481 
L 334.26989 234.4185 
L 335.459101 260.625617 
L 336.648312 222.70344 
L 337.837522 253.445287 
L 339.026733 273.946295 
L 340.215944 229.78701 
L 341.405155 278.689574 
L 342.594366 256.279085 
L 343.783576 236.843537 
L 344.972787 236.875676 
L 346.161998 236.213597 
L 347.351209 251.164288 
L 348.54042 248.836086 
L 349.72963 224.929684 
L 350.918841 197.182957 
L 352.108052 251.478399 
L 353.297263 235.435977 
L 354.486474 198.959133 
L 355.675684 221.366194 
L 356.864895 221.758261 
L 358.054106 241.959505 
L 359.243317 223.452273 
L 360.432527 221.448182 
L 361.621738 211.869045 
L 362.810949 239.598015 
L 364.00016 243.78045 
L 365.189371 210.127714 
L 366.378581 238.197875 
L 367.567792 244.413264 
L 368.757003 205.83278 
L 369.946214 237.517331 
L 371.135425 245.095152 
L 372.324635 215.939934 
L 373.513846 232.165985 
L 374.703057 258.154565 
L 375.892268 237.121925 
L 377.081479 242.258309 
L 378.270689 263.836722 
L 379.4599 223.867304 
L 380.649111 254.964041 
L 381.838322 245.296942 
L 383.027532 256.420703 
L 384.216743 277.795266 
L 385.405954 273.042912 
L 386.595165 265.705018 
L 387.784376 278.487947 
L 388.973586 275.357154 
L 390.162797 263.02176 
L 391.352008 269.658142 
L 392.541219 265.922039 
L 393.73043 285.204161 
L 394.91964 282.13213 
L 396.108851 287.280431 
L 397.298062 296.882121 
L 398.487273 292.759214 
L 398.487273 292.759214 
" style="fill:none;stroke:#0343df;stroke-linecap:square;stroke-width:2;"/>
   </g>
   <g id="patch_8">
    <path d="M 57.6 307.584 
L 57.6 189.312 
" style="fill:none;stroke:#000000;stroke-linecap:square;stroke-linejoin:miter;stroke-width:0.8;"/>
   </g>
   <g id="patch_9">
    <path d="M 414.72 307.584 
L 414.72 189.312 
" style="fill:none;stroke:#000000;stroke-linecap:square;stroke-linejoin:miter;stroke-width:0.8;"/>
   </g>
   <g id="patch_10">
    <path d="M 57.6 307.584 
L 414.72 307.584 
" style="fill:none;stroke:#000000;stroke-linecap:square;stroke-linejoin:miter;stroke-width:0.8;"/>
   </g>
   <g id="patch_11">
    <path d="M 57.6 189.312 
L 414.72 189.312 
" style="fill:none;stroke:#000000;stroke-linecap:square;stroke-linejoin:miter;stroke-width:0.8;"/>
   </g>
  </g>
 </g>
 <defs>
  <clipPath id="p2b45b94424">
   <rect height="118.272" width="357.12" x="57.6" y="41.472"/>
  </clipPath>
  <clipPath id="pc53236ea60">
   <rect height="118.272" width="357.12" x="57.6" y="189.312"/>
  </clipPath>
 </defs>
</svg>
