<?xml version="1.0" encoding="utf-8" standalone="no"?>
<!DOCTYPE svg PUBLIC "-//W3C//DTD SVG 1.1//EN"
  "http://www.w3.org/Graphics/SVG/1.1/DTD/svg11.dtd">
<!-- Created with matplotlib (http://matplotlib.org/) -->
<svg height="345.6pt" version="1.1" viewBox="0 0 460.8 345.6" width="460.8pt" xmlns="http://www.w3.org/2000/svg" xmlns:xlink="http://www.w3.org/1999/xlink">
 <defs>
  <style type="text/css">
*{stroke-linecap:butt;stroke-linejoin:round;}
  </style>
 </defs>
 <g id="figure_1">
  <g id="patch_1">
   <path d="M 0 345.6 
L 460.8 345.6 
L 460.8 0 
L 0 0 
z
" style="fill:#ffffff;"/>
  </g>
  <g id="axes_1">
   <g id="patch_2">
    <path d="M 57.6 159.744 
L 414.72 159.744 
L 414.72 41.472 
L 57.6 41.472 
z
" style="fill:#ffffff;"/>
   </g>
   <g id="matplotlib.axis_1">
    <g id="xtick_1">
     <g id="line2d_1">
      <defs>
       <path d="M 0 0 
L 0 3.5 
" id="m66a4e4900a" style="stroke:#000000;stroke-width:0.8;"/>
      </defs>
      <g>
       <use style="stroke:#000000;stroke-width:0.8;" x="57.183776" xlink:href="#m66a4e4900a" y="159.744"/>
      </g>
     </g>
     <g id="text_1">
      <!-- 0 -->
      <defs>
       <path d="M 31.78125 66.40625 
Q 24.171875 66.40625 20.328125 58.90625 
Q 16.5 51.421875 16.5 36.375 
Q 16.5 21.390625 20.328125 13.890625 
Q 24.171875 6.390625 31.78125 6.390625 
Q 39.453125 6.390625 43.28125 13.890625 
Q 47.125 21.390625 47.125 36.375 
Q 47.125 51.421875 43.28125 58.90625 
Q 39.453125 66.40625 31.78125 66.40625 
z
M 31.78125 74.21875 
Q 44.046875 74.21875 50.515625 64.515625 
Q 56.984375 54.828125 56.984375 36.375 
Q 56.984375 17.96875 50.515625 8.265625 
Q 44.046875 -1.421875 31.78125 -1.421875 
Q 19.53125 -1.421875 13.0625 8.265625 
Q 6.59375 17.96875 6.59375 36.375 
Q 6.59375 54.828125 13.0625 64.515625 
Q 19.53125 74.21875 31.78125 74.21875 
z
" id="DejaVuSans-30"/>
      </defs>
      <g transform="translate(54.002526 174.342437)scale(0.1 -0.1)">
       <use xlink:href="#DejaVuSans-30"/>
      </g>
     </g>
    </g>
    <g id="xtick_2">
     <g id="line2d_2">
      <g>
       <use style="stroke:#000000;stroke-width:0.8;" x="98.475818" xlink:href="#m66a4e4900a" y="159.744"/>
      </g>
     </g>
     <g id="text_2">
      <!-- 25 -->
      <defs>
       <path d="M 19.1875 8.296875 
L 53.609375 8.296875 
L 53.609375 0 
L 7.328125 0 
L 7.328125 8.296875 
Q 12.9375 14.109375 22.625 23.890625 
Q 32.328125 33.6875 34.8125 36.53125 
Q 39.546875 41.84375 41.421875 45.53125 
Q 43.3125 49.21875 43.3125 52.78125 
Q 43.3125 58.59375 39.234375 62.25 
Q 35.15625 65.921875 28.609375 65.921875 
Q 23.96875 65.921875 18.8125 64.3125 
Q 13.671875 62.703125 7.8125 59.421875 
L 7.8125 69.390625 
Q 13.765625 71.78125 18.9375 73 
Q 24.125 74.21875 28.421875 74.21875 
Q 39.75 74.21875 46.484375 68.546875 
Q 53.21875 62.890625 53.21875 53.421875 
Q 53.21875 48.921875 51.53125 44.890625 
Q 49.859375 40.875 45.40625 35.40625 
Q 44.1875 33.984375 37.640625 27.21875 
Q 31.109375 20.453125 19.1875 8.296875 
z
" id="DejaVuSans-32"/>
       <path d="M 10.796875 72.90625 
L 49.515625 72.90625 
L 49.515625 64.59375 
L 19.828125 64.59375 
L 19.828125 46.734375 
Q 21.96875 47.46875 24.109375 47.828125 
Q 26.265625 48.1875 28.421875 48.1875 
Q 40.625 48.1875 47.75 41.5 
Q 54.890625 34.8125 54.890625 23.390625 
Q 54.890625 11.625 47.5625 5.09375 
Q 40.234375 -1.421875 26.90625 -1.421875 
Q 22.3125 -1.421875 17.546875 -0.640625 
Q 12.796875 0.140625 7.71875 1.703125 
L 7.71875 11.625 
Q 12.109375 9.234375 16.796875 8.0625 
Q 21.484375 6.890625 26.703125 6.890625 
Q 35.15625 6.890625 40.078125 11.328125 
Q 45.015625 15.765625 45.015625 23.390625 
Q 45.015625 31 40.078125 35.4375 
Q 35.15625 39.890625 26.703125 39.890625 
Q 22.75 39.890625 18.8125 39.015625 
Q 14.890625 38.140625 10.796875 36.28125 
z
" id="DejaVuSans-35"/>
      </defs>
      <g transform="translate(92.113318 174.342437)scale(0.1 -0.1)">
       <use xlink:href="#DejaVuSans-32"/>
       <use x="63.623047" xlink:href="#DejaVuSans-35"/>
      </g>
     </g>
    </g>
    <g id="xtick_3">
     <g id="line2d_3">
      <g>
       <use style="stroke:#000000;stroke-width:0.8;" x="139.767859" xlink:href="#m66a4e4900a" y="159.744"/>
      </g>
     </g>
     <g id="text_3">
      <!-- 50 -->
      <g transform="translate(133.405359 174.342437)scale(0.1 -0.1)">
       <use xlink:href="#DejaVuSans-35"/>
       <use x="63.623047" xlink:href="#DejaVuSans-30"/>
      </g>
     </g>
    </g>
    <g id="xtick_4">
     <g id="line2d_4">
      <g>
       <use style="stroke:#000000;stroke-width:0.8;" x="181.0599" xlink:href="#m66a4e4900a" y="159.744"/>
      </g>
     </g>
     <g id="text_4">
      <!-- 75 -->
      <defs>
       <path d="M 8.203125 72.90625 
L 55.078125 72.90625 
L 55.078125 68.703125 
L 28.609375 0 
L 18.3125 0 
L 43.21875 64.59375 
L 8.203125 64.59375 
z
" id="DejaVuSans-37"/>
      </defs>
      <g transform="translate(174.6974 174.342437)scale(0.1 -0.1)">
       <use xlink:href="#DejaVuSans-37"/>
       <use x="63.623047" xlink:href="#DejaVuSans-35"/>
      </g>
     </g>
    </g>
    <g id="xtick_5">
     <g id="line2d_5">
      <g>
       <use style="stroke:#000000;stroke-width:0.8;" x="222.351941" xlink:href="#m66a4e4900a" y="159.744"/>
      </g>
     </g>
     <g id="text_5">
      <!-- 100 -->
      <defs>
       <path d="M 12.40625 8.296875 
L 28.515625 8.296875 
L 28.515625 63.921875 
L 10.984375 60.40625 
L 10.984375 69.390625 
L 28.421875 72.90625 
L 38.28125 72.90625 
L 38.28125 8.296875 
L 54.390625 8.296875 
L 54.390625 0 
L 12.40625 0 
z
" id="DejaVuSans-31"/>
      </defs>
      <g transform="translate(212.808191 174.342437)scale(0.1 -0.1)">
       <use xlink:href="#DejaVuSans-31"/>
       <use x="63.623047" xlink:href="#DejaVuSans-30"/>
       <use x="127.246094" xlink:href="#DejaVuSans-30"/>
      </g>
     </g>
    </g>
    <g id="xtick_6">
     <g id="line2d_6">
      <g>
       <use style="stroke:#000000;stroke-width:0.8;" x="263.643983" xlink:href="#m66a4e4900a" y="159.744"/>
      </g>
     </g>
     <g id="text_6">
      <!-- 125 -->
      <g transform="translate(254.100233 174.342437)scale(0.1 -0.1)">
       <use xlink:href="#DejaVuSans-31"/>
       <use x="63.623047" xlink:href="#DejaVuSans-32"/>
       <use x="127.246094" xlink:href="#DejaVuSans-35"/>
      </g>
     </g>
    </g>
    <g id="xtick_7">
     <g id="line2d_7">
      <g>
       <use style="stroke:#000000;stroke-width:0.8;" x="304.936024" xlink:href="#m66a4e4900a" y="159.744"/>
      </g>
     </g>
     <g id="text_7">
      <!-- 150 -->
      <g transform="translate(295.392274 174.342437)scale(0.1 -0.1)">
       <use xlink:href="#DejaVuSans-31"/>
       <use x="63.623047" xlink:href="#DejaVuSans-35"/>
       <use x="127.246094" xlink:href="#DejaVuSans-30"/>
      </g>
     </g>
    </g>
    <g id="xtick_8">
     <g id="line2d_8">
      <g>
       <use style="stroke:#000000;stroke-width:0.8;" x="346.228065" xlink:href="#m66a4e4900a" y="159.744"/>
      </g>
     </g>
     <g id="text_8">
      <!-- 175 -->
      <g transform="translate(336.684315 174.342437)scale(0.1 -0.1)">
       <use xlink:href="#DejaVuSans-31"/>
       <use x="63.623047" xlink:href="#DejaVuSans-37"/>
       <use x="127.246094" xlink:href="#DejaVuSans-35"/>
      </g>
     </g>
    </g>
    <g id="xtick_9">
     <g id="line2d_9">
      <g>
       <use style="stroke:#000000;stroke-width:0.8;" x="387.520107" xlink:href="#m66a4e4900a" y="159.744"/>
      </g>
     </g>
     <g id="text_9">
      <!-- 200 -->
      <g transform="translate(377.976357 174.342437)scale(0.1 -0.1)">
       <use xlink:href="#DejaVuSans-32"/>
       <use x="63.623047" xlink:href="#DejaVuSans-30"/>
       <use x="127.246094" xlink:href="#DejaVuSans-30"/>
      </g>
     </g>
    </g>
   </g>
   <g id="matplotlib.axis_2">
    <g id="ytick_1">
     <g id="line2d_10">
      <defs>
       <path d="M 0 0 
L -3.5 0 
" id="ma3d77dceed" style="stroke:#000000;stroke-width:0.8;"/>
      </defs>
      <g>
       <use style="stroke:#000000;stroke-width:0.8;" x="57.6" xlink:href="#ma3d77dceed" y="156.574384"/>
      </g>
     </g>
     <g id="text_10">
      <!-- −2 -->
      <defs>
       <path d="M 10.59375 35.5 
L 73.1875 35.5 
L 73.1875 27.203125 
L 10.59375 27.203125 
z
" id="DejaVuSans-2212"/>
      </defs>
      <g transform="translate(35.857813 160.373603)scale(0.1 -0.1)">
       <use xlink:href="#DejaVuSans-2212"/>
       <use x="83.789062" xlink:href="#DejaVuSans-32"/>
      </g>
     </g>
    </g>
    <g id="ytick_2">
     <g id="line2d_11">
      <g>
       <use style="stroke:#000000;stroke-width:0.8;" x="57.6" xlink:href="#ma3d77dceed" y="124.087313"/>
      </g>
     </g>
     <g id="text_11">
      <!-- 0 -->
      <g transform="translate(44.2375 127.886532)scale(0.1 -0.1)">
       <use xlink:href="#DejaVuSans-30"/>
      </g>
     </g>
    </g>
    <g id="ytick_3">
     <g id="line2d_12">
      <g>
       <use style="stroke:#000000;stroke-width:0.8;" x="57.6" xlink:href="#ma3d77dceed" y="91.600241"/>
      </g>
     </g>
     <g id="text_12">
      <!-- 2 -->
      <g transform="translate(44.2375 95.39946)scale(0.1 -0.1)">
       <use xlink:href="#DejaVuSans-32"/>
      </g>
     </g>
    </g>
    <g id="ytick_4">
     <g id="line2d_13">
      <g>
       <use style="stroke:#000000;stroke-width:0.8;" x="57.6" xlink:href="#ma3d77dceed" y="59.11317"/>
      </g>
     </g>
     <g id="text_13">
      <!-- 4 -->
      <defs>
       <path d="M 37.796875 64.3125 
L 12.890625 25.390625 
L 37.796875 25.390625 
z
M 35.203125 72.90625 
L 47.609375 72.90625 
L 47.609375 25.390625 
L 58.015625 25.390625 
L 58.015625 17.1875 
L 47.609375 17.1875 
L 47.609375 0 
L 37.796875 0 
L 37.796875 17.1875 
L 4.890625 17.1875 
L 4.890625 26.703125 
z
" id="DejaVuSans-34"/>
      </defs>
      <g transform="translate(44.2375 62.912388)scale(0.1 -0.1)">
       <use xlink:href="#DejaVuSans-34"/>
      </g>
     </g>
    </g>
   </g>
   <g id="line2d_14">
    <path clip-path="url(#p89744cd036)" d="M 73.832727 122.551769 
L 78.58957 154.140273 
L 85.724835 117.731902 
L 92.8601 119.862231 
L 99.995365 108.041118 
L 107.130629 119.924882 
L 114.265894 138.818677 
L 121.401159 119.499948 
L 128.536424 105.039789 
L 135.671688 113.591493 
L 142.806953 139.223152 
L 149.942218 139.885197 
L 157.077483 119.88805 
L 164.212747 107.368708 
L 171.348012 131.375501 
L 178.483277 116.630578 
L 185.618541 154.368 
L 192.753806 118.7621 
L 199.889071 104.991845 
L 207.024336 122.270592 
L 214.1596 74.951619 
L 221.294865 83.430792 
L 228.43013 106.911052 
L 235.565395 151.143632 
L 242.700659 113.816269 
L 249.835924 46.848 
L 256.971189 93.971817 
L 264.106454 111.40432 
L 271.241718 89.866242 
L 278.376983 120.140086 
L 285.512248 120.879502 
L 292.647512 119.733981 
L 299.782777 127.881583 
L 306.918042 123.313831 
L 314.053307 129.871952 
L 321.188571 114.46657 
L 328.323836 132.562531 
L 335.459101 121.761259 
L 342.594366 122.734124 
L 349.72963 116.6563 
L 356.864895 138.802552 
L 364.00016 104.549428 
L 371.135425 142.846415 
L 378.270689 121.898075 
L 385.405954 126.712978 
L 392.541219 130.501572 
L 398.487273 109.103445 
L 398.487273 109.103445 
" style="fill:none;stroke:#ff0000;stroke-linecap:square;stroke-width:2;"/>
   </g>
   <g id="patch_3">
    <path d="M 57.6 159.744 
L 57.6 41.472 
" style="fill:none;stroke:#000000;stroke-linecap:square;stroke-linejoin:miter;stroke-width:0.8;"/>
   </g>
   <g id="patch_4">
    <path d="M 414.72 159.744 
L 414.72 41.472 
" style="fill:none;stroke:#000000;stroke-linecap:square;stroke-linejoin:miter;stroke-width:0.8;"/>
   </g>
   <g id="patch_5">
    <path d="M 57.6 159.744 
L 414.72 159.744 
" style="fill:none;stroke:#000000;stroke-linecap:square;stroke-linejoin:miter;stroke-width:0.8;"/>
   </g>
   <g id="patch_6">
    <path d="M 57.6 41.472 
L 414.72 41.472 
" style="fill:none;stroke:#000000;stroke-linecap:square;stroke-linejoin:miter;stroke-width:0.8;"/>
   </g>
  </g>
  <g id="axes_2">
   <g id="patch_7">
    <path d="M 57.6 307.584 
L 414.72 307.584 
L 414.72 189.312 
L 57.6 189.312 
z
" style="fill:#ffffff;"/>
   </g>
   <g id="matplotlib.axis_3">
    <g id="xtick_10">
     <g id="line2d_15">
      <g>
       <use style="stroke:#000000;stroke-width:0.8;" x="57.183776" xlink:href="#m66a4e4900a" y="307.584"/>
      </g>
     </g>
     <g id="text_14">
      <!-- 0 -->
      <g transform="translate(54.002526 322.182437)scale(0.1 -0.1)">
       <use xlink:href="#DejaVuSans-30"/>
      </g>
     </g>
    </g>
    <g id="xtick_11">
     <g id="line2d_16">
      <g>
       <use style="stroke:#000000;stroke-width:0.8;" x="98.475818" xlink:href="#m66a4e4900a" y="307.584"/>
      </g>
     </g>
     <g id="text_15">
      <!-- 25 -->
      <g transform="translate(92.113318 322.182437)scale(0.1 -0.1)">
       <use xlink:href="#DejaVuSans-32"/>
       <use x="63.623047" xlink:href="#DejaVuSans-35"/>
      </g>
     </g>
    </g>
    <g id="xtick_12">
     <g id="line2d_17">
      <g>
       <use style="stroke:#000000;stroke-width:0.8;" x="139.767859" xlink:href="#m66a4e4900a" y="307.584"/>
      </g>
     </g>
     <g id="text_16">
      <!-- 50 -->
      <g transform="translate(133.405359 322.182437)scale(0.1 -0.1)">
       <use xlink:href="#DejaVuSans-35"/>
       <use x="63.623047" xlink:href="#DejaVuSans-30"/>
      </g>
     </g>
    </g>
    <g id="xtick_13">
     <g id="line2d_18">
      <g>
       <use style="stroke:#000000;stroke-width:0.8;" x="181.0599" xlink:href="#m66a4e4900a" y="307.584"/>
      </g>
     </g>
     <g id="text_17">
      <!-- 75 -->
      <g transform="translate(174.6974 322.182437)scale(0.1 -0.1)">
       <use xlink:href="#DejaVuSans-37"/>
       <use x="63.623047" xlink:href="#DejaVuSans-35"/>
      </g>
     </g>
    </g>
    <g id="xtick_14">
     <g id="line2d_19">
      <g>
       <use style="stroke:#000000;stroke-width:0.8;" x="222.351941" xlink:href="#m66a4e4900a" y="307.584"/>
      </g>
     </g>
     <g id="text_18">
      <!-- 100 -->
      <g transform="translate(212.808191 322.182437)scale(0.1 -0.1)">
       <use xlink:href="#DejaVuSans-31"/>
       <use x="63.623047" xlink:href="#DejaVuSans-30"/>
       <use x="127.246094" xlink:href="#DejaVuSans-30"/>
      </g>
     </g>
    </g>
    <g id="xtick_15">
     <g id="line2d_20">
      <g>
       <use style="stroke:#000000;stroke-width:0.8;" x="263.643983" xlink:href="#m66a4e4900a" y="307.584"/>
      </g>
     </g>
     <g id="text_19">
      <!-- 125 -->
      <g transform="translate(254.100233 322.182437)scale(0.1 -0.1)">
       <use xlink:href="#DejaVuSans-31"/>
       <use x="63.623047" xlink:href="#DejaVuSans-32"/>
       <use x="127.246094" xlink:href="#DejaVuSans-35"/>
      </g>
     </g>
    </g>
    <g id="xtick_16">
     <g id="line2d_21">
      <g>
       <use style="stroke:#000000;stroke-width:0.8;" x="304.936024" xlink:href="#m66a4e4900a" y="307.584"/>
      </g>
     </g>
     <g id="text_20">
      <!-- 150 -->
      <g transform="translate(295.392274 322.182437)scale(0.1 -0.1)">
       <use xlink:href="#DejaVuSans-31"/>
       <use x="63.623047" xlink:href="#DejaVuSans-35"/>
       <use x="127.246094" xlink:href="#DejaVuSans-30"/>
      </g>
     </g>
    </g>
    <g id="xtick_17">
     <g id="line2d_22">
      <g>
       <use style="stroke:#000000;stroke-width:0.8;" x="346.228065" xlink:href="#m66a4e4900a" y="307.584"/>
      </g>
     </g>
     <g id="text_21">
      <!-- 175 -->
      <g transform="translate(336.684315 322.182437)scale(0.1 -0.1)">
       <use xlink:href="#DejaVuSans-31"/>
       <use x="63.623047" xlink:href="#DejaVuSans-37"/>
       <use x="127.246094" xlink:href="#DejaVuSans-35"/>
      </g>
     </g>
    </g>
    <g id="xtick_18">
     <g id="line2d_23">
      <g>
       <use style="stroke:#000000;stroke-width:0.8;" x="387.520107" xlink:href="#m66a4e4900a" y="307.584"/>
      </g>
     </g>
     <g id="text_22">
      <!-- 200 -->
      <g transform="translate(377.976357 322.182437)scale(0.1 -0.1)">
       <use xlink:href="#DejaVuSans-32"/>
       <use x="63.623047" xlink:href="#DejaVuSans-30"/>
       <use x="127.246094" xlink:href="#DejaVuSans-30"/>
      </g>
     </g>
    </g>
    <g id="text_23">
     <!-- Time (Sec) -->
     <defs>
      <path d="M -0.296875 72.90625 
L 61.375 72.90625 
L 61.375 64.59375 
L 35.5 64.59375 
L 35.5 0 
L 25.59375 0 
L 25.59375 64.59375 
L -0.296875 64.59375 
z
" id="DejaVuSans-54"/>
      <path d="M 9.421875 54.6875 
L 18.40625 54.6875 
L 18.40625 0 
L 9.421875 0 
z
M 9.421875 75.984375 
L 18.40625 75.984375 
L 18.40625 64.59375 
L 9.421875 64.59375 
z
" id="DejaVuSans-69"/>
      <path d="M 52 44.1875 
Q 55.375 50.25 60.0625 53.125 
Q 64.75 56 71.09375 56 
Q 79.640625 56 84.28125 50.015625 
Q 88.921875 44.046875 88.921875 33.015625 
L 88.921875 0 
L 79.890625 0 
L 79.890625 32.71875 
Q 79.890625 40.578125 77.09375 44.375 
Q 74.3125 48.1875 68.609375 48.1875 
Q 61.625 48.1875 57.5625 43.546875 
Q 53.515625 38.921875 53.515625 30.90625 
L 53.515625 0 
L 44.484375 0 
L 44.484375 32.71875 
Q 44.484375 40.625 41.703125 44.40625 
Q 38.921875 48.1875 33.109375 48.1875 
Q 26.21875 48.1875 22.15625 43.53125 
Q 18.109375 38.875 18.109375 30.90625 
L 18.109375 0 
L 9.078125 0 
L 9.078125 54.6875 
L 18.109375 54.6875 
L 18.109375 46.1875 
Q 21.1875 51.21875 25.484375 53.609375 
Q 29.78125 56 35.6875 56 
Q 41.65625 56 45.828125 52.96875 
Q 50 49.953125 52 44.1875 
z
" id="DejaVuSans-6d"/>
      <path d="M 56.203125 29.59375 
L 56.203125 25.203125 
L 14.890625 25.203125 
Q 15.484375 15.921875 20.484375 11.0625 
Q 25.484375 6.203125 34.421875 6.203125 
Q 39.59375 6.203125 44.453125 7.46875 
Q 49.3125 8.734375 54.109375 11.28125 
L 54.109375 2.78125 
Q 49.265625 0.734375 44.1875 -0.34375 
Q 39.109375 -1.421875 33.890625 -1.421875 
Q 20.796875 -1.421875 13.15625 6.1875 
Q 5.515625 13.8125 5.515625 26.8125 
Q 5.515625 40.234375 12.765625 48.109375 
Q 20.015625 56 32.328125 56 
Q 43.359375 56 49.78125 48.890625 
Q 56.203125 41.796875 56.203125 29.59375 
z
M 47.21875 32.234375 
Q 47.125 39.59375 43.09375 43.984375 
Q 39.0625 48.390625 32.421875 48.390625 
Q 24.90625 48.390625 20.390625 44.140625 
Q 15.875 39.890625 15.1875 32.171875 
z
" id="DejaVuSans-65"/>
      <path id="DejaVuSans-20"/>
      <path d="M 31 75.875 
Q 24.46875 64.65625 21.28125 53.65625 
Q 18.109375 42.671875 18.109375 31.390625 
Q 18.109375 20.125 21.3125 9.0625 
Q 24.515625 -2 31 -13.1875 
L 23.1875 -13.1875 
Q 15.875 -1.703125 12.234375 9.375 
Q 8.59375 20.453125 8.59375 31.390625 
Q 8.59375 42.28125 12.203125 53.3125 
Q 15.828125 64.359375 23.1875 75.875 
z
" id="DejaVuSans-28"/>
      <path d="M 53.515625 70.515625 
L 53.515625 60.890625 
Q 47.90625 63.578125 42.921875 64.890625 
Q 37.9375 66.21875 33.296875 66.21875 
Q 25.25 66.21875 20.875 63.09375 
Q 16.5 59.96875 16.5 54.203125 
Q 16.5 49.359375 19.40625 46.890625 
Q 22.3125 44.4375 30.421875 42.921875 
L 36.375 41.703125 
Q 47.40625 39.59375 52.65625 34.296875 
Q 57.90625 29 57.90625 20.125 
Q 57.90625 9.515625 50.796875 4.046875 
Q 43.703125 -1.421875 29.984375 -1.421875 
Q 24.8125 -1.421875 18.96875 -0.25 
Q 13.140625 0.921875 6.890625 3.21875 
L 6.890625 13.375 
Q 12.890625 10.015625 18.65625 8.296875 
Q 24.421875 6.59375 29.984375 6.59375 
Q 38.421875 6.59375 43.015625 9.90625 
Q 47.609375 13.234375 47.609375 19.390625 
Q 47.609375 24.75 44.3125 27.78125 
Q 41.015625 30.8125 33.5 32.328125 
L 27.484375 33.5 
Q 16.453125 35.6875 11.515625 40.375 
Q 6.59375 45.0625 6.59375 53.421875 
Q 6.59375 63.09375 13.40625 68.65625 
Q 20.21875 74.21875 32.171875 74.21875 
Q 37.3125 74.21875 42.625 73.28125 
Q 47.953125 72.359375 53.515625 70.515625 
z
" id="DejaVuSans-53"/>
      <path d="M 48.78125 52.59375 
L 48.78125 44.1875 
Q 44.96875 46.296875 41.140625 47.34375 
Q 37.3125 48.390625 33.40625 48.390625 
Q 24.65625 48.390625 19.8125 42.84375 
Q 14.984375 37.3125 14.984375 27.296875 
Q 14.984375 17.28125 19.8125 11.734375 
Q 24.65625 6.203125 33.40625 6.203125 
Q 37.3125 6.203125 41.140625 7.25 
Q 44.96875 8.296875 48.78125 10.40625 
L 48.78125 2.09375 
Q 45.015625 0.34375 40.984375 -0.53125 
Q 36.96875 -1.421875 32.421875 -1.421875 
Q 20.0625 -1.421875 12.78125 6.34375 
Q 5.515625 14.109375 5.515625 27.296875 
Q 5.515625 40.671875 12.859375 48.328125 
Q 20.21875 56 33.015625 56 
Q 37.15625 56 41.109375 55.140625 
Q 45.0625 54.296875 48.78125 52.59375 
z
" id="DejaVuSans-63"/>
      <path d="M 8.015625 75.875 
L 15.828125 75.875 
Q 23.140625 64.359375 26.78125 53.3125 
Q 30.421875 42.28125 30.421875 31.390625 
Q 30.421875 20.453125 26.78125 9.375 
Q 23.140625 -1.703125 15.828125 -13.1875 
L 8.015625 -13.1875 
Q 14.5 -2 17.703125 9.0625 
Q 20.90625 20.125 20.90625 31.390625 
Q 20.90625 42.671875 17.703125 53.65625 
Q 14.5 64.65625 8.015625 75.875 
z
" id="DejaVuSans-29"/>
     </defs>
     <g transform="translate(209.281875 335.860562)scale(0.1 -0.1)">
      <use xlink:href="#DejaVuSans-54"/>
      <use x="61.037109" xlink:href="#DejaVuSans-69"/>
      <use x="88.820312" xlink:href="#DejaVuSans-6d"/>
      <use x="186.232422" xlink:href="#DejaVuSans-65"/>
      <use x="247.755859" xlink:href="#DejaVuSans-20"/>
      <use x="279.542969" xlink:href="#DejaVuSans-28"/>
      <use x="318.556641" xlink:href="#DejaVuSans-53"/>
      <use x="382.033203" xlink:href="#DejaVuSans-65"/>
      <use x="443.556641" xlink:href="#DejaVuSans-63"/>
      <use x="498.537109" xlink:href="#DejaVuSans-29"/>
     </g>
    </g>
   </g>
   <g id="matplotlib.axis_4">
    <g id="ytick_5">
     <g id="line2d_24">
      <g>
       <use style="stroke:#000000;stroke-width:0.8;" x="57.6" xlink:href="#ma3d77dceed" y="296.008584"/>
      </g>
     </g>
     <g id="text_24">
      <!-- −10 -->
      <g transform="translate(29.495313 299.807802)scale(0.1 -0.1)">
       <use xlink:href="#DejaVuSans-2212"/>
       <use x="83.789062" xlink:href="#DejaVuSans-31"/>
       <use x="147.412109" xlink:href="#DejaVuSans-30"/>
      </g>
     </g>
    </g>
    <g id="ytick_6">
     <g id="line2d_25">
      <g>
       <use style="stroke:#000000;stroke-width:0.8;" x="57.6" xlink:href="#ma3d77dceed" y="263.848262"/>
      </g>
     </g>
     <g id="text_25">
      <!-- 0 -->
      <g transform="translate(44.2375 267.64748)scale(0.1 -0.1)">
       <use xlink:href="#DejaVuSans-30"/>
      </g>
     </g>
    </g>
    <g id="ytick_7">
     <g id="line2d_26">
      <g>
       <use style="stroke:#000000;stroke-width:0.8;" x="57.6" xlink:href="#ma3d77dceed" y="231.68794"/>
      </g>
     </g>
     <g id="text_26">
      <!-- 10 -->
      <g transform="translate(37.875 235.487158)scale(0.1 -0.1)">
       <use xlink:href="#DejaVuSans-31"/>
       <use x="63.623047" xlink:href="#DejaVuSans-30"/>
      </g>
     </g>
    </g>
    <g id="ytick_8">
     <g id="line2d_27">
      <g>
       <use style="stroke:#000000;stroke-width:0.8;" x="57.6" xlink:href="#ma3d77dceed" y="199.527618"/>
      </g>
     </g>
     <g id="text_27">
      <!-- 20 -->
      <g transform="translate(37.875 203.326836)scale(0.1 -0.1)">
       <use xlink:href="#DejaVuSans-32"/>
       <use x="63.623047" xlink:href="#DejaVuSans-30"/>
      </g>
     </g>
    </g>
   </g>
   <g id="line2d_28">
    <path clip-path="url(#p1135d48685)" d="M 73.832727 250.520039 
L 75.021938 249.482511 
L 76.211149 249.146188 
L 77.40036 249.689513 
L 78.58957 251.302021 
L 79.778781 254.108625 
L 80.967992 258.112902 
L 82.157203 263.134278 
L 84.535624 274.187576 
L 85.724835 278.743104 
L 86.914046 281.73706 
L 88.103257 282.783059 
L 89.292468 281.824852 
L 90.481678 279.142613 
L 91.670889 275.279037 
L 94.049311 266.595144 
L 95.238521 262.854427 
L 96.427732 259.931724 
L 97.616943 257.880238 
L 98.806154 256.581038 
L 99.995365 255.814372 
L 105.941419 253.434153 
L 107.130629 253.100408 
L 108.31984 253.096088 
L 109.509051 253.521642 
L 110.698262 254.412389 
L 111.887473 255.754207 
L 113.076683 257.505022 
L 114.265894 259.607055 
L 116.644316 264.580979 
L 119.022737 269.866089 
L 120.211948 272.115665 
L 121.401159 273.730818 
L 122.59037 274.486983 
L 123.77958 274.273973 
L 124.968791 273.110156 
L 126.158002 271.126269 
L 127.347213 268.528424 
L 133.293267 253.735838 
L 134.482478 251.566023 
L 135.671688 249.995149 
L 136.860899 249.11328 
L 138.05011 248.940597 
L 139.239321 249.438999 
L 140.428531 250.552104 
L 141.617742 252.234685 
L 142.806953 254.450834 
L 143.996164 257.156069 
L 146.374585 263.719027 
L 148.753007 270.758488 
L 149.942218 273.872768 
L 151.131429 276.429752 
L 152.320639 278.311323 
L 153.50985 279.479304 
L 154.699061 279.93241 
L 155.888272 279.672934 
L 157.077483 278.70875 
L 158.266693 277.073009 
L 159.455904 274.83805 
L 160.645115 272.118595 
L 166.591169 256.897415 
L 167.78038 254.478643 
L 168.96959 252.511504 
L 170.158801 251.162954 
L 171.348012 250.614561 
L 172.537223 250.996959 
L 173.726434 252.342987 
L 174.915644 254.554353 
L 178.483277 263.187872 
L 179.672488 265.361335 
L 180.861698 266.674193 
L 182.050909 267.077225 
L 183.24012 266.765378 
L 184.429331 266.152351 
L 185.618541 265.748307 
L 186.807752 266.011507 
L 187.996963 267.240571 
L 189.186174 269.491263 
L 192.753806 278.445689 
L 193.943017 280.094352 
L 195.132228 280.267718 
L 196.321439 278.851067 
L 197.510649 276.003302 
L 198.69986 272.093204 
L 202.267493 258.52988 
L 203.456703 254.602932 
L 204.645914 251.368407 
L 205.835125 249.002658 
L 207.024336 247.641246 
L 208.213546 247.344802 
L 209.402757 248.075203 
L 210.591968 249.658999 
L 212.97039 253.732045 
L 214.1596 255.066872 
L 215.348811 255.228678 
L 216.538022 253.924197 
L 217.727233 251.134034 
L 218.916444 247.151149 
L 221.294865 237.940411 
L 222.484076 233.980034 
L 223.673287 231.067849 
L 224.862498 229.407651 
L 226.051708 229.032162 
L 227.240919 229.863922 
L 228.43013 231.757683 
L 229.619341 234.52549 
L 230.808551 237.957957 
L 233.186973 246.087935 
L 235.565395 255.353825 
L 237.943816 265.703814 
L 240.322238 276.489566 
L 241.511449 281.154276 
L 242.700659 284.576109 
L 243.88987 286.274928 
L 245.079081 285.999103 
L 246.268292 283.735564 
L 247.457502 279.626792 
L 248.646713 273.882927 
L 249.835924 266.74273 
L 251.025135 258.467963 
L 255.781978 221.875656 
L 256.971189 215.310718 
L 258.1604 211.342525 
L 259.34961 210.327111 
L 260.538821 212.214315 
L 261.728032 216.577249 
L 262.917243 222.720231 
L 266.484875 244.199193 
L 267.674086 250.434407 
L 268.863297 255.606697 
L 270.052507 259.483773 
L 271.241718 261.905903 
L 272.430929 262.820024 
L 273.62014 262.300653 
L 274.809351 260.571032 
L 278.376983 252.819589 
L 279.566194 251.235256 
L 280.755405 250.811682 
L 281.944615 251.630561 
L 283.133826 253.534823 
L 284.323037 256.176328 
L 286.701459 261.95437 
L 287.890669 264.373384 
L 289.07988 266.200999 
L 290.269091 267.38229 
L 291.458302 267.952693 
L 292.647512 268.004446 
L 293.836723 267.657358 
L 295.025934 267.036767 
L 298.593566 264.744696 
L 299.782777 264.222368 
L 300.971988 263.967295 
L 302.161199 264.012543 
L 303.35041 264.343027 
L 305.728831 265.526129 
L 306.918042 266.121629 
L 308.107253 266.553723 
L 309.296464 266.744405 
L 310.485674 266.672419 
L 311.674885 266.381959 
L 314.053307 265.571032 
L 315.242517 265.291015 
L 316.431728 265.212001 
L 317.620939 265.353224 
L 319.999361 265.952301 
L 321.188571 266.081071 
L 322.377782 265.873899 
L 323.566993 265.232641 
L 324.756204 264.157333 
L 327.134625 261.3617 
L 328.323836 260.205493 
L 329.513047 259.582283 
L 330.702258 259.659906 
L 331.891469 260.466406 
L 333.080679 261.866678 
L 335.459101 265.290203 
L 336.648312 266.672906 
L 337.837522 267.522796 
L 339.026733 267.751469 
L 340.215944 267.398429 
L 341.405155 266.605989 
L 344.972787 263.496174 
L 346.161998 262.706774 
L 347.351209 262.13536 
L 349.72963 261.455874 
L 352.108052 260.886093 
L 354.486474 260.158975 
L 355.675684 259.955988 
L 356.864895 260.103031 
L 358.054106 260.764828 
L 359.243317 262.028934 
L 360.432527 263.85434 
L 362.810949 268.078883 
L 364.00016 269.578608 
L 365.189371 270.09274 
L 366.378581 269.377199 
L 367.567792 267.435515 
L 368.757003 264.588121 
L 369.946214 261.439031 
L 371.135425 258.709645 
L 372.324635 257.037034 
L 373.513846 256.831407 
L 374.703057 258.192829 
L 375.892268 260.86445 
L 378.270689 267.760827 
L 379.4599 270.646555 
L 380.649111 272.491277 
L 381.838322 273.097886 
L 383.027532 272.537602 
L 384.216743 271.099705 
L 387.784376 265.450204 
L 388.973586 264.144775 
L 390.162797 263.3609 
L 391.352008 263.083631 
L 392.541219 263.235951 
L 393.73043 263.71126 
L 397.298062 265.871509 
L 398.487273 266.288849 
L 398.487273 266.288849 
" style="fill:none;stroke:#ff0000;stroke-linecap:square;stroke-width:2;"/>
   </g>
   <g id="line2d_29">
    <path clip-path="url(#p1135d48685)" d="M 73.832727 259.78016 
L 75.021938 251.400393 
L 76.211149 254.859512 
L 77.40036 239.055179 
L 78.58957 246.576712 
L 79.778781 245.941874 
L 80.967992 269.521306 
L 82.157203 266.834393 
L 83.346414 247.461366 
L 84.535624 297.894063 
L 85.724835 270.922749 
L 86.914046 299.133531 
L 88.103257 268.817866 
L 89.292468 301.000236 
L 90.481678 262.117842 
L 91.670889 265.394786 
L 92.8601 262.616279 
L 94.049311 276.325753 
L 95.238521 260.704764 
L 96.427732 256.692269 
L 97.616943 264.361426 
L 98.806154 260.845977 
L 99.995365 269.89446 
L 101.184575 253.928854 
L 102.373786 261.760015 
L 103.562997 229.254069 
L 104.752208 253.835312 
L 105.941419 258.730907 
L 107.130629 230.642221 
L 108.31984 275.654949 
L 109.509051 257.386143 
L 110.698262 263.945417 
L 111.887473 229.392068 
L 114.265894 274.994594 
L 115.455105 290.489498 
L 116.644316 252.001559 
L 117.833526 261.073377 
L 119.022737 251.292239 
L 120.211948 282.148305 
L 121.401159 260.597987 
L 122.59037 285.279797 
L 123.77958 269.013058 
L 124.968791 278.746287 
L 126.158002 278.224186 
L 127.347213 280.591001 
L 128.536424 255.462377 
L 129.725634 245.360399 
L 130.914845 264.349533 
L 132.104056 262.768749 
L 133.293267 266.611159 
L 134.482478 237.407125 
L 135.671688 245.375423 
L 136.860899 256.321095 
L 138.05011 235.194168 
L 139.239321 256.648727 
L 140.428531 268.015359 
L 141.617742 227.521539 
L 142.806953 272.998007 
L 145.185375 247.714928 
L 146.374585 267.462423 
L 147.563796 261.042641 
L 148.753007 286.668605 
L 149.942218 260.267415 
L 151.131429 275.802721 
L 152.320639 274.146931 
L 153.50985 286.837256 
L 154.699061 278.277619 
L 155.888272 285.64823 
L 157.077483 271.154795 
L 158.266693 293.799791 
L 159.455904 262.243256 
L 160.645115 268.053584 
L 161.834326 284.569798 
L 163.023536 244.759207 
L 164.212747 272.642946 
L 165.401958 255.470193 
L 166.591169 261.557327 
L 167.78038 246.127909 
L 168.96959 242.62062 
L 170.158801 269.809357 
L 171.348012 265.708277 
L 172.537223 253.863532 
L 173.726434 247.953164 
L 174.915644 219.868641 
L 176.104855 256.811483 
L 177.294066 277.739478 
L 178.483277 268.117833 
L 179.672488 274.170691 
L 180.861698 265.329878 
L 182.050909 253.7999 
L 183.24012 259.841465 
L 184.429331 280.377379 
L 185.618541 266.35717 
L 186.807752 268.334224 
L 187.996963 248.617554 
L 189.186174 278.346194 
L 190.375385 275.8902 
L 191.564595 271.833732 
L 192.753806 275.063923 
L 193.943017 296.341679 
L 195.132228 275.747381 
L 196.321439 302.208 
L 197.510649 244.53348 
L 198.69986 266.735915 
L 199.889071 269.395038 
L 201.078282 253.326431 
L 202.267493 252.534068 
L 203.456703 289.735635 
L 204.645914 262.026864 
L 205.835125 239.579275 
L 207.024336 230.401115 
L 208.213546 238.771723 
L 209.402757 260.155574 
L 210.591968 242.303289 
L 211.781179 257.798428 
L 212.97039 250.120296 
L 214.1596 271.512705 
L 215.348811 260.065062 
L 216.538022 229.158343 
L 217.727233 260.69487 
L 218.916444 239.756395 
L 220.105654 251.163818 
L 221.294865 231.850477 
L 222.484076 233.887022 
L 223.673287 233.302988 
L 226.051708 235.298951 
L 227.240919 220.191384 
L 228.43013 227.320171 
L 229.619341 245.559294 
L 230.808551 231.415402 
L 231.997762 225.155419 
L 233.186973 266.40422 
L 234.376184 237.205189 
L 235.565395 261.829496 
L 236.754605 281.064569 
L 237.943816 261.027339 
L 239.133027 266.219022 
L 240.322238 261.825036 
L 241.511449 294.409788 
L 242.700659 278.02772 
L 243.88987 266.109656 
L 245.079081 299.322358 
L 246.268292 277.940298 
L 247.457502 291.243408 
L 248.646713 291.583817 
L 249.835924 256.971528 
L 251.025135 260.866046 
L 252.214346 251.73999 
L 253.403556 228.431989 
L 254.592767 223.306984 
L 255.781978 220.074912 
L 256.971189 218.449248 
L 258.1604 216.531164 
L 259.34961 217.926989 
L 260.538821 194.688 
L 261.728032 229.221079 
L 262.917243 219.046524 
L 264.106454 240.142717 
L 265.295664 228.86182 
L 266.484875 249.244405 
L 267.674086 243.053138 
L 268.863297 252.479542 
L 270.052507 272.846721 
L 271.241718 237.262582 
L 272.430929 283.603943 
L 273.62014 258.433642 
L 274.809351 261.137064 
L 275.998561 256.677705 
L 277.187772 258.141443 
L 278.376983 258.33574 
L 279.566194 243.252117 
L 280.755405 243.241414 
L 281.944615 245.956008 
L 283.133826 266.968949 
L 284.323037 253.176807 
L 285.512248 271.957464 
L 286.701459 264.739368 
L 287.890669 250.634374 
L 289.07988 264.200926 
L 290.269091 259.061088 
L 291.458302 290.061141 
L 292.647512 258.850432 
L 293.836723 256.711632 
L 295.025934 271.639482 
L 296.215145 265.900807 
L 297.404356 277.57261 
L 298.593566 249.758487 
L 299.782777 284.455819 
L 300.971988 261.221303 
L 302.161199 240.873273 
L 303.35041 275.096308 
L 304.53962 271.243881 
L 305.728831 272.61155 
L 306.918042 251.317215 
L 308.107253 262.743362 
L 309.296464 276.436614 
L 310.485674 246.43034 
L 311.674885 282.10616 
L 312.864096 285.605828 
L 314.053307 272.790307 
L 315.242517 254.181547 
L 316.431728 232.927301 
L 317.620939 255.061953 
L 318.81015 279.588776 
L 319.999361 287.118015 
L 321.188571 271.482453 
L 323.566993 260.943171 
L 324.756204 272.715836 
L 325.945415 260.872823 
L 327.134625 246.623488 
L 328.323836 250.973471 
L 329.513047 239.754294 
L 330.702258 268.710933 
L 331.891469 267.547504 
L 333.080679 280.155154 
L 334.26989 278.375907 
L 335.459101 261.2946 
L 336.648312 259.241925 
L 337.837522 272.169085 
L 339.026733 268.858253 
L 340.215944 244.785564 
L 341.405155 266.109598 
L 342.594366 252.951216 
L 343.783576 281.873908 
L 344.972787 278.677782 
L 346.161998 254.151777 
L 347.351209 241.298742 
L 348.54042 274.564534 
L 349.72963 294.818281 
L 350.918841 242.467346 
L 352.108052 256.780469 
L 353.297263 246.849837 
L 354.486474 275.577033 
L 355.675684 242.830559 
L 356.864895 274.760389 
L 358.054106 261.678319 
L 359.243317 244.01753 
L 360.432527 277.117832 
L 361.621738 256.428752 
L 362.810949 273.314838 
L 364.00016 286.263194 
L 365.189371 270.515251 
L 366.378581 261.451889 
L 367.567792 257.829118 
L 368.757003 279.021165 
L 369.946214 245.302115 
L 371.135425 272.702221 
L 372.324635 239.38468 
L 373.513846 251.718156 
L 374.703057 262.297946 
L 375.892268 274.796543 
L 377.081479 256.246473 
L 378.270689 294.728642 
L 379.4599 262.583515 
L 380.649111 259.558742 
L 381.838322 279.258536 
L 383.027532 268.102778 
L 384.216743 247.610236 
L 385.405954 292.537443 
L 386.595165 242.813709 
L 387.784376 290.548558 
L 388.973586 283.681594 
L 390.162797 246.999743 
L 391.352008 252.653853 
L 392.541219 248.625252 
L 393.73043 277.159915 
L 394.91964 275.742538 
L 396.108851 277.110472 
L 397.298062 258.362889 
L 398.487273 262.511437 
L 398.487273 262.511437 
" style="fill:none;stroke:#0000ff;stroke-linecap:square;stroke-width:2;"/>
   </g>
   <g id="patch_8">
    <path d="M 57.6 307.584 
L 57.6 189.312 
" style="fill:none;stroke:#000000;stroke-linecap:square;stroke-linejoin:miter;stroke-width:0.8;"/>
   </g>
   <g id="patch_9">
    <path d="M 414.72 307.584 
L 414.72 189.312 
" style="fill:none;stroke:#000000;stroke-linecap:square;stroke-linejoin:miter;stroke-width:0.8;"/>
   </g>
   <g id="patch_10">
    <path d="M 57.6 307.584 
L 414.72 307.584 
" style="fill:none;stroke:#000000;stroke-linecap:square;stroke-linejoin:miter;stroke-width:0.8;"/>
   </g>
   <g id="patch_11">
    <path d="M 57.6 189.312 
L 414.72 189.312 
" style="fill:none;stroke:#000000;stroke-linecap:square;stroke-linejoin:miter;stroke-width:0.8;"/>
   </g>
   <g id="text_28">
    <!-- BOLD signal -->
    <defs>
     <path d="M 19.671875 34.8125 
L 19.671875 8.109375 
L 35.5 8.109375 
Q 43.453125 8.109375 47.28125 11.40625 
Q 51.125 14.703125 51.125 21.484375 
Q 51.125 28.328125 47.28125 31.5625 
Q 43.453125 34.8125 35.5 34.8125 
z
M 19.671875 64.796875 
L 19.671875 42.828125 
L 34.28125 42.828125 
Q 41.5 42.828125 45.03125 45.53125 
Q 48.578125 48.25 48.578125 53.8125 
Q 48.578125 59.328125 45.03125 62.0625 
Q 41.5 64.796875 34.28125 64.796875 
z
M 9.8125 72.90625 
L 35.015625 72.90625 
Q 46.296875 72.90625 52.390625 68.21875 
Q 58.5 63.53125 58.5 54.890625 
Q 58.5 48.1875 55.375 44.234375 
Q 52.25 40.28125 46.1875 39.3125 
Q 53.46875 37.75 57.5 32.78125 
Q 61.53125 27.828125 61.53125 20.40625 
Q 61.53125 10.640625 54.890625 5.3125 
Q 48.25 0 35.984375 0 
L 9.8125 0 
z
" id="DejaVuSans-42"/>
     <path d="M 39.40625 66.21875 
Q 28.65625 66.21875 22.328125 58.203125 
Q 16.015625 50.203125 16.015625 36.375 
Q 16.015625 22.609375 22.328125 14.59375 
Q 28.65625 6.59375 39.40625 6.59375 
Q 50.140625 6.59375 56.421875 14.59375 
Q 62.703125 22.609375 62.703125 36.375 
Q 62.703125 50.203125 56.421875 58.203125 
Q 50.140625 66.21875 39.40625 66.21875 
z
M 39.40625 74.21875 
Q 54.734375 74.21875 63.90625 63.9375 
Q 73.09375 53.65625 73.09375 36.375 
Q 73.09375 19.140625 63.90625 8.859375 
Q 54.734375 -1.421875 39.40625 -1.421875 
Q 24.03125 -1.421875 14.8125 8.828125 
Q 5.609375 19.09375 5.609375 36.375 
Q 5.609375 53.65625 14.8125 63.9375 
Q 24.03125 74.21875 39.40625 74.21875 
z
" id="DejaVuSans-4f"/>
     <path d="M 9.8125 72.90625 
L 19.671875 72.90625 
L 19.671875 8.296875 
L 55.171875 8.296875 
L 55.171875 0 
L 9.8125 0 
z
" id="DejaVuSans-4c"/>
     <path d="M 19.671875 64.796875 
L 19.671875 8.109375 
L 31.59375 8.109375 
Q 46.6875 8.109375 53.6875 14.9375 
Q 60.6875 21.78125 60.6875 36.53125 
Q 60.6875 51.171875 53.6875 57.984375 
Q 46.6875 64.796875 31.59375 64.796875 
z
M 9.8125 72.90625 
L 30.078125 72.90625 
Q 51.265625 72.90625 61.171875 64.09375 
Q 71.09375 55.28125 71.09375 36.53125 
Q 71.09375 17.671875 61.125 8.828125 
Q 51.171875 0 30.078125 0 
L 9.8125 0 
z
" id="DejaVuSans-44"/>
     <path d="M 44.28125 53.078125 
L 44.28125 44.578125 
Q 40.484375 46.53125 36.375 47.5 
Q 32.28125 48.484375 27.875 48.484375 
Q 21.1875 48.484375 17.84375 46.4375 
Q 14.5 44.390625 14.5 40.28125 
Q 14.5 37.15625 16.890625 35.375 
Q 19.28125 33.59375 26.515625 31.984375 
L 29.59375 31.296875 
Q 39.15625 29.25 43.1875 25.515625 
Q 47.21875 21.78125 47.21875 15.09375 
Q 47.21875 7.46875 41.1875 3.015625 
Q 35.15625 -1.421875 24.609375 -1.421875 
Q 20.21875 -1.421875 15.453125 -0.5625 
Q 10.6875 0.296875 5.421875 2 
L 5.421875 11.28125 
Q 10.40625 8.6875 15.234375 7.390625 
Q 20.0625 6.109375 24.8125 6.109375 
Q 31.15625 6.109375 34.5625 8.28125 
Q 37.984375 10.453125 37.984375 14.40625 
Q 37.984375 18.0625 35.515625 20.015625 
Q 33.0625 21.96875 24.703125 23.78125 
L 21.578125 24.515625 
Q 13.234375 26.265625 9.515625 29.90625 
Q 5.8125 33.546875 5.8125 39.890625 
Q 5.8125 47.609375 11.28125 51.796875 
Q 16.75 56 26.8125 56 
Q 31.78125 56 36.171875 55.265625 
Q 40.578125 54.546875 44.28125 53.078125 
z
" id="DejaVuSans-73"/>
     <path d="M 45.40625 27.984375 
Q 45.40625 37.75 41.375 43.109375 
Q 37.359375 48.484375 30.078125 48.484375 
Q 22.859375 48.484375 18.828125 43.109375 
Q 14.796875 37.75 14.796875 27.984375 
Q 14.796875 18.265625 18.828125 12.890625 
Q 22.859375 7.515625 30.078125 7.515625 
Q 37.359375 7.515625 41.375 12.890625 
Q 45.40625 18.265625 45.40625 27.984375 
z
M 54.390625 6.78125 
Q 54.390625 -7.171875 48.1875 -13.984375 
Q 42 -20.796875 29.203125 -20.796875 
Q 24.46875 -20.796875 20.265625 -20.09375 
Q 16.0625 -19.390625 12.109375 -17.921875 
L 12.109375 -9.1875 
Q 16.0625 -11.328125 19.921875 -12.34375 
Q 23.78125 -13.375 27.78125 -13.375 
Q 36.625 -13.375 41.015625 -8.765625 
Q 45.40625 -4.15625 45.40625 5.171875 
L 45.40625 9.625 
Q 42.625 4.78125 38.28125 2.390625 
Q 33.9375 0 27.875 0 
Q 17.828125 0 11.671875 7.65625 
Q 5.515625 15.328125 5.515625 27.984375 
Q 5.515625 40.671875 11.671875 48.328125 
Q 17.828125 56 27.875 56 
Q 33.9375 56 38.28125 53.609375 
Q 42.625 51.21875 45.40625 46.390625 
L 45.40625 54.6875 
L 54.390625 54.6875 
z
" id="DejaVuSans-67"/>
     <path d="M 54.890625 33.015625 
L 54.890625 0 
L 45.90625 0 
L 45.90625 32.71875 
Q 45.90625 40.484375 42.875 44.328125 
Q 39.84375 48.1875 33.796875 48.1875 
Q 26.515625 48.1875 22.3125 43.546875 
Q 18.109375 38.921875 18.109375 30.90625 
L 18.109375 0 
L 9.078125 0 
L 9.078125 54.6875 
L 18.109375 54.6875 
L 18.109375 46.1875 
Q 21.34375 51.125 25.703125 53.5625 
Q 30.078125 56 35.796875 56 
Q 45.21875 56 50.046875 50.171875 
Q 54.890625 44.34375 54.890625 33.015625 
z
" id="DejaVuSans-6e"/>
     <path d="M 34.28125 27.484375 
Q 23.390625 27.484375 19.1875 25 
Q 14.984375 22.515625 14.984375 16.5 
Q 14.984375 11.71875 18.140625 8.90625 
Q 21.296875 6.109375 26.703125 6.109375 
Q 34.1875 6.109375 38.703125 11.40625 
Q 43.21875 16.703125 43.21875 25.484375 
L 43.21875 27.484375 
z
M 52.203125 31.203125 
L 52.203125 0 
L 43.21875 0 
L 43.21875 8.296875 
Q 40.140625 3.328125 35.546875 0.953125 
Q 30.953125 -1.421875 24.3125 -1.421875 
Q 15.921875 -1.421875 10.953125 3.296875 
Q 6 8.015625 6 15.921875 
Q 6 25.140625 12.171875 29.828125 
Q 18.359375 34.515625 30.609375 34.515625 
L 43.21875 34.515625 
L 43.21875 35.40625 
Q 43.21875 41.609375 39.140625 45 
Q 35.0625 48.390625 27.6875 48.390625 
Q 23 48.390625 18.546875 47.265625 
Q 14.109375 46.140625 10.015625 43.890625 
L 10.015625 52.203125 
Q 14.9375 54.109375 19.578125 55.046875 
Q 24.21875 56 28.609375 56 
Q 40.484375 56 46.34375 49.84375 
Q 52.203125 43.703125 52.203125 31.203125 
z
" id="DejaVuSans-61"/>
     <path d="M 9.421875 75.984375 
L 18.40625 75.984375 
L 18.40625 0 
L 9.421875 0 
z
" id="DejaVuSans-6c"/>
    </defs>
    <g transform="translate(199.703438 183.312)scale(0.12 -0.12)">
     <use xlink:href="#DejaVuSans-42"/>
     <use x="68.587891" xlink:href="#DejaVuSans-4f"/>
     <use x="147.298828" xlink:href="#DejaVuSans-4c"/>
     <use x="203.011719" xlink:href="#DejaVuSans-44"/>
     <use x="280.013672" xlink:href="#DejaVuSans-20"/>
     <use x="311.800781" xlink:href="#DejaVuSans-73"/>
     <use x="363.900391" xlink:href="#DejaVuSans-69"/>
     <use x="391.683594" xlink:href="#DejaVuSans-67"/>
     <use x="455.160156" xlink:href="#DejaVuSans-6e"/>
     <use x="518.539062" xlink:href="#DejaVuSans-61"/>
     <use x="579.818359" xlink:href="#DejaVuSans-6c"/>
    </g>
   </g>
  </g>
 </g>
 <defs>
  <clipPath id="p89744cd036">
   <rect height="118.272" width="357.12" x="57.6" y="41.472"/>
  </clipPath>
  <clipPath id="p1135d48685">
   <rect height="118.272" width="357.12" x="57.6" y="189.312"/>
  </clipPath>
 </defs>
</svg>
