<?xml version="1.0" encoding="utf-8" standalone="no"?>
<!DOCTYPE svg PUBLIC "-//W3C//DTD SVG 1.1//EN"
  "http://www.w3.org/Graphics/SVG/1.1/DTD/svg11.dtd">
<!-- Created with matplotlib (http://matplotlib.org/) -->
<svg height="345.6pt" version="1.1" viewBox="0 0 460.8 345.6" width="460.8pt" xmlns="http://www.w3.org/2000/svg" xmlns:xlink="http://www.w3.org/1999/xlink">
 <defs>
  <style type="text/css">
*{stroke-linecap:butt;stroke-linejoin:round;}
  </style>
 </defs>
 <g id="figure_1">
  <g id="patch_1">
   <path d="M 0 345.6 
L 460.8 345.6 
L 460.8 0 
L 0 0 
z
" style="fill:#ffffff;"/>
  </g>
  <g id="axes_1">
   <g id="patch_2">
    <path d="M 57.6 159.744 
L 414.72 159.744 
L 414.72 41.472 
L 57.6 41.472 
z
" style="fill:#ffffff;"/>
   </g>
   <g id="matplotlib.axis_1">
    <g id="xtick_1">
     <g id="line2d_1">
      <defs>
       <path d="M 0 0 
L 0 3.5 
" id="mc25a77ed76" style="stroke:#000000;stroke-width:0.8;"/>
      </defs>
      <g>
       <use style="stroke:#000000;stroke-width:0.8;" x="57.183776" xlink:href="#mc25a77ed76" y="159.744"/>
      </g>
     </g>
     <g id="text_1">
      <!-- 0 -->
      <defs>
       <path d="M 31.78125 66.40625 
Q 24.171875 66.40625 20.328125 58.90625 
Q 16.5 51.421875 16.5 36.375 
Q 16.5 21.390625 20.328125 13.890625 
Q 24.171875 6.390625 31.78125 6.390625 
Q 39.453125 6.390625 43.28125 13.890625 
Q 47.125 21.390625 47.125 36.375 
Q 47.125 51.421875 43.28125 58.90625 
Q 39.453125 66.40625 31.78125 66.40625 
z
M 31.78125 74.21875 
Q 44.046875 74.21875 50.515625 64.515625 
Q 56.984375 54.828125 56.984375 36.375 
Q 56.984375 17.96875 50.515625 8.265625 
Q 44.046875 -1.421875 31.78125 -1.421875 
Q 19.53125 -1.421875 13.0625 8.265625 
Q 6.59375 17.96875 6.59375 36.375 
Q 6.59375 54.828125 13.0625 64.515625 
Q 19.53125 74.21875 31.78125 74.21875 
z
" id="DejaVuSans-30"/>
      </defs>
      <g transform="translate(54.002526 174.342437)scale(0.1 -0.1)">
       <use xlink:href="#DejaVuSans-30"/>
      </g>
     </g>
    </g>
    <g id="xtick_2">
     <g id="line2d_2">
      <g>
       <use style="stroke:#000000;stroke-width:0.8;" x="98.475818" xlink:href="#mc25a77ed76" y="159.744"/>
      </g>
     </g>
     <g id="text_2">
      <!-- 25 -->
      <defs>
       <path d="M 19.1875 8.296875 
L 53.609375 8.296875 
L 53.609375 0 
L 7.328125 0 
L 7.328125 8.296875 
Q 12.9375 14.109375 22.625 23.890625 
Q 32.328125 33.6875 34.8125 36.53125 
Q 39.546875 41.84375 41.421875 45.53125 
Q 43.3125 49.21875 43.3125 52.78125 
Q 43.3125 58.59375 39.234375 62.25 
Q 35.15625 65.921875 28.609375 65.921875 
Q 23.96875 65.921875 18.8125 64.3125 
Q 13.671875 62.703125 7.8125 59.421875 
L 7.8125 69.390625 
Q 13.765625 71.78125 18.9375 73 
Q 24.125 74.21875 28.421875 74.21875 
Q 39.75 74.21875 46.484375 68.546875 
Q 53.21875 62.890625 53.21875 53.421875 
Q 53.21875 48.921875 51.53125 44.890625 
Q 49.859375 40.875 45.40625 35.40625 
Q 44.1875 33.984375 37.640625 27.21875 
Q 31.109375 20.453125 19.1875 8.296875 
z
" id="DejaVuSans-32"/>
       <path d="M 10.796875 72.90625 
L 49.515625 72.90625 
L 49.515625 64.59375 
L 19.828125 64.59375 
L 19.828125 46.734375 
Q 21.96875 47.46875 24.109375 47.828125 
Q 26.265625 48.1875 28.421875 48.1875 
Q 40.625 48.1875 47.75 41.5 
Q 54.890625 34.8125 54.890625 23.390625 
Q 54.890625 11.625 47.5625 5.09375 
Q 40.234375 -1.421875 26.90625 -1.421875 
Q 22.3125 -1.421875 17.546875 -0.640625 
Q 12.796875 0.140625 7.71875 1.703125 
L 7.71875 11.625 
Q 12.109375 9.234375 16.796875 8.0625 
Q 21.484375 6.890625 26.703125 6.890625 
Q 35.15625 6.890625 40.078125 11.328125 
Q 45.015625 15.765625 45.015625 23.390625 
Q 45.015625 31 40.078125 35.4375 
Q 35.15625 39.890625 26.703125 39.890625 
Q 22.75 39.890625 18.8125 39.015625 
Q 14.890625 38.140625 10.796875 36.28125 
z
" id="DejaVuSans-35"/>
      </defs>
      <g transform="translate(92.113318 174.342437)scale(0.1 -0.1)">
       <use xlink:href="#DejaVuSans-32"/>
       <use x="63.623047" xlink:href="#DejaVuSans-35"/>
      </g>
     </g>
    </g>
    <g id="xtick_3">
     <g id="line2d_3">
      <g>
       <use style="stroke:#000000;stroke-width:0.8;" x="139.767859" xlink:href="#mc25a77ed76" y="159.744"/>
      </g>
     </g>
     <g id="text_3">
      <!-- 50 -->
      <g transform="translate(133.405359 174.342437)scale(0.1 -0.1)">
       <use xlink:href="#DejaVuSans-35"/>
       <use x="63.623047" xlink:href="#DejaVuSans-30"/>
      </g>
     </g>
    </g>
    <g id="xtick_4">
     <g id="line2d_4">
      <g>
       <use style="stroke:#000000;stroke-width:0.8;" x="181.0599" xlink:href="#mc25a77ed76" y="159.744"/>
      </g>
     </g>
     <g id="text_4">
      <!-- 75 -->
      <defs>
       <path d="M 8.203125 72.90625 
L 55.078125 72.90625 
L 55.078125 68.703125 
L 28.609375 0 
L 18.3125 0 
L 43.21875 64.59375 
L 8.203125 64.59375 
z
" id="DejaVuSans-37"/>
      </defs>
      <g transform="translate(174.6974 174.342437)scale(0.1 -0.1)">
       <use xlink:href="#DejaVuSans-37"/>
       <use x="63.623047" xlink:href="#DejaVuSans-35"/>
      </g>
     </g>
    </g>
    <g id="xtick_5">
     <g id="line2d_5">
      <g>
       <use style="stroke:#000000;stroke-width:0.8;" x="222.351941" xlink:href="#mc25a77ed76" y="159.744"/>
      </g>
     </g>
     <g id="text_5">
      <!-- 100 -->
      <defs>
       <path d="M 12.40625 8.296875 
L 28.515625 8.296875 
L 28.515625 63.921875 
L 10.984375 60.40625 
L 10.984375 69.390625 
L 28.421875 72.90625 
L 38.28125 72.90625 
L 38.28125 8.296875 
L 54.390625 8.296875 
L 54.390625 0 
L 12.40625 0 
z
" id="DejaVuSans-31"/>
      </defs>
      <g transform="translate(212.808191 174.342437)scale(0.1 -0.1)">
       <use xlink:href="#DejaVuSans-31"/>
       <use x="63.623047" xlink:href="#DejaVuSans-30"/>
       <use x="127.246094" xlink:href="#DejaVuSans-30"/>
      </g>
     </g>
    </g>
    <g id="xtick_6">
     <g id="line2d_6">
      <g>
       <use style="stroke:#000000;stroke-width:0.8;" x="263.643983" xlink:href="#mc25a77ed76" y="159.744"/>
      </g>
     </g>
     <g id="text_6">
      <!-- 125 -->
      <g transform="translate(254.100233 174.342437)scale(0.1 -0.1)">
       <use xlink:href="#DejaVuSans-31"/>
       <use x="63.623047" xlink:href="#DejaVuSans-32"/>
       <use x="127.246094" xlink:href="#DejaVuSans-35"/>
      </g>
     </g>
    </g>
    <g id="xtick_7">
     <g id="line2d_7">
      <g>
       <use style="stroke:#000000;stroke-width:0.8;" x="304.936024" xlink:href="#mc25a77ed76" y="159.744"/>
      </g>
     </g>
     <g id="text_7">
      <!-- 150 -->
      <g transform="translate(295.392274 174.342437)scale(0.1 -0.1)">
       <use xlink:href="#DejaVuSans-31"/>
       <use x="63.623047" xlink:href="#DejaVuSans-35"/>
       <use x="127.246094" xlink:href="#DejaVuSans-30"/>
      </g>
     </g>
    </g>
    <g id="xtick_8">
     <g id="line2d_8">
      <g>
       <use style="stroke:#000000;stroke-width:0.8;" x="346.228065" xlink:href="#mc25a77ed76" y="159.744"/>
      </g>
     </g>
     <g id="text_8">
      <!-- 175 -->
      <g transform="translate(336.684315 174.342437)scale(0.1 -0.1)">
       <use xlink:href="#DejaVuSans-31"/>
       <use x="63.623047" xlink:href="#DejaVuSans-37"/>
       <use x="127.246094" xlink:href="#DejaVuSans-35"/>
      </g>
     </g>
    </g>
    <g id="xtick_9">
     <g id="line2d_9">
      <g>
       <use style="stroke:#000000;stroke-width:0.8;" x="387.520107" xlink:href="#mc25a77ed76" y="159.744"/>
      </g>
     </g>
     <g id="text_9">
      <!-- 200 -->
      <g transform="translate(377.976357 174.342437)scale(0.1 -0.1)">
       <use xlink:href="#DejaVuSans-32"/>
       <use x="63.623047" xlink:href="#DejaVuSans-30"/>
       <use x="127.246094" xlink:href="#DejaVuSans-30"/>
      </g>
     </g>
    </g>
   </g>
   <g id="matplotlib.axis_2">
    <g id="ytick_1">
     <g id="line2d_10">
      <defs>
       <path d="M 0 0 
L -3.5 0 
" id="mcbf4be56eb" style="stroke:#000000;stroke-width:0.8;"/>
      </defs>
      <g>
       <use style="stroke:#000000;stroke-width:0.8;" x="57.6" xlink:href="#mcbf4be56eb" y="134.460525"/>
      </g>
     </g>
     <g id="text_10">
      <!-- −2 -->
      <defs>
       <path d="M 10.59375 35.5 
L 73.1875 35.5 
L 73.1875 27.203125 
L 10.59375 27.203125 
z
" id="DejaVuSans-2212"/>
      </defs>
      <g transform="translate(35.857813 138.259744)scale(0.1 -0.1)">
       <use xlink:href="#DejaVuSans-2212"/>
       <use x="83.789062" xlink:href="#DejaVuSans-32"/>
      </g>
     </g>
    </g>
    <g id="ytick_2">
     <g id="line2d_11">
      <g>
       <use style="stroke:#000000;stroke-width:0.8;" x="57.6" xlink:href="#mcbf4be56eb" y="101.72232"/>
      </g>
     </g>
     <g id="text_11">
      <!-- 0 -->
      <g transform="translate(44.2375 105.521539)scale(0.1 -0.1)">
       <use xlink:href="#DejaVuSans-30"/>
      </g>
     </g>
    </g>
    <g id="ytick_3">
     <g id="line2d_12">
      <g>
       <use style="stroke:#000000;stroke-width:0.8;" x="57.6" xlink:href="#mcbf4be56eb" y="68.984115"/>
      </g>
     </g>
     <g id="text_12">
      <!-- 2 -->
      <g transform="translate(44.2375 72.783334)scale(0.1 -0.1)">
       <use xlink:href="#DejaVuSans-32"/>
      </g>
     </g>
    </g>
   </g>
   <g id="line2d_13">
    <path clip-path="url(#p90844f5d9b)" d="M 73.832727 101.468082 
L 78.58957 98.884673 
L 85.724835 98.8952 
L 92.8601 99.641519 
L 99.995365 105.383516 
L 107.130629 107.967191 
L 114.265894 113.983117 
L 121.401159 66.478484 
L 128.536424 104.213017 
L 135.671688 95.835841 
L 142.806953 101.229006 
L 149.942218 104.212154 
L 157.077483 102.189117 
L 164.212747 80.530763 
L 171.348012 93.132679 
L 178.483277 108.04213 
L 185.618541 97.917054 
L 192.753806 104.96028 
L 199.889071 88.739295 
L 207.024336 100.568999 
L 214.1596 82.464567 
L 221.294865 87.653614 
L 228.43013 154.368 
L 235.565395 46.848 
L 242.700659 110.760907 
L 249.835924 63.196255 
L 256.971189 110.727434 
L 264.106454 103.337835 
L 271.241718 93.880215 
L 278.376983 125.30683 
L 285.512248 83.635257 
L 292.647512 60.141204 
L 299.782777 56.583748 
L 306.918042 128.421717 
L 314.053307 142.384749 
L 321.188571 98.097754 
L 328.323836 60.903298 
L 335.459101 62.743079 
L 342.594366 121.939941 
L 349.72963 150.439998 
L 356.864895 125.315838 
L 364.00016 57.365659 
L 371.135425 76.152922 
L 378.270689 68.69919 
L 385.405954 136.741793 
L 392.541219 128.401937 
L 398.487273 76.696194 
L 398.487273 76.696194 
" style="fill:none;stroke:#ff0000;stroke-linecap:square;stroke-width:2;"/>
   </g>
   <g id="patch_3">
    <path d="M 57.6 159.744 
L 57.6 41.472 
" style="fill:none;stroke:#000000;stroke-linecap:square;stroke-linejoin:miter;stroke-width:0.8;"/>
   </g>
   <g id="patch_4">
    <path d="M 414.72 159.744 
L 414.72 41.472 
" style="fill:none;stroke:#000000;stroke-linecap:square;stroke-linejoin:miter;stroke-width:0.8;"/>
   </g>
   <g id="patch_5">
    <path d="M 57.6 159.744 
L 414.72 159.744 
" style="fill:none;stroke:#000000;stroke-linecap:square;stroke-linejoin:miter;stroke-width:0.8;"/>
   </g>
   <g id="patch_6">
    <path d="M 57.6 41.472 
L 414.72 41.472 
" style="fill:none;stroke:#000000;stroke-linecap:square;stroke-linejoin:miter;stroke-width:0.8;"/>
   </g>
  </g>
  <g id="axes_2">
   <g id="patch_7">
    <path d="M 57.6 307.584 
L 414.72 307.584 
L 414.72 189.312 
L 57.6 189.312 
z
" style="fill:#ffffff;"/>
   </g>
   <g id="matplotlib.axis_3">
    <g id="xtick_10">
     <g id="line2d_14">
      <g>
       <use style="stroke:#000000;stroke-width:0.8;" x="57.183776" xlink:href="#mc25a77ed76" y="307.584"/>
      </g>
     </g>
     <g id="text_13">
      <!-- 0 -->
      <g transform="translate(54.002526 322.182437)scale(0.1 -0.1)">
       <use xlink:href="#DejaVuSans-30"/>
      </g>
     </g>
    </g>
    <g id="xtick_11">
     <g id="line2d_15">
      <g>
       <use style="stroke:#000000;stroke-width:0.8;" x="98.475818" xlink:href="#mc25a77ed76" y="307.584"/>
      </g>
     </g>
     <g id="text_14">
      <!-- 25 -->
      <g transform="translate(92.113318 322.182437)scale(0.1 -0.1)">
       <use xlink:href="#DejaVuSans-32"/>
       <use x="63.623047" xlink:href="#DejaVuSans-35"/>
      </g>
     </g>
    </g>
    <g id="xtick_12">
     <g id="line2d_16">
      <g>
       <use style="stroke:#000000;stroke-width:0.8;" x="139.767859" xlink:href="#mc25a77ed76" y="307.584"/>
      </g>
     </g>
     <g id="text_15">
      <!-- 50 -->
      <g transform="translate(133.405359 322.182437)scale(0.1 -0.1)">
       <use xlink:href="#DejaVuSans-35"/>
       <use x="63.623047" xlink:href="#DejaVuSans-30"/>
      </g>
     </g>
    </g>
    <g id="xtick_13">
     <g id="line2d_17">
      <g>
       <use style="stroke:#000000;stroke-width:0.8;" x="181.0599" xlink:href="#mc25a77ed76" y="307.584"/>
      </g>
     </g>
     <g id="text_16">
      <!-- 75 -->
      <g transform="translate(174.6974 322.182437)scale(0.1 -0.1)">
       <use xlink:href="#DejaVuSans-37"/>
       <use x="63.623047" xlink:href="#DejaVuSans-35"/>
      </g>
     </g>
    </g>
    <g id="xtick_14">
     <g id="line2d_18">
      <g>
       <use style="stroke:#000000;stroke-width:0.8;" x="222.351941" xlink:href="#mc25a77ed76" y="307.584"/>
      </g>
     </g>
     <g id="text_17">
      <!-- 100 -->
      <g transform="translate(212.808191 322.182437)scale(0.1 -0.1)">
       <use xlink:href="#DejaVuSans-31"/>
       <use x="63.623047" xlink:href="#DejaVuSans-30"/>
       <use x="127.246094" xlink:href="#DejaVuSans-30"/>
      </g>
     </g>
    </g>
    <g id="xtick_15">
     <g id="line2d_19">
      <g>
       <use style="stroke:#000000;stroke-width:0.8;" x="263.643983" xlink:href="#mc25a77ed76" y="307.584"/>
      </g>
     </g>
     <g id="text_18">
      <!-- 125 -->
      <g transform="translate(254.100233 322.182437)scale(0.1 -0.1)">
       <use xlink:href="#DejaVuSans-31"/>
       <use x="63.623047" xlink:href="#DejaVuSans-32"/>
       <use x="127.246094" xlink:href="#DejaVuSans-35"/>
      </g>
     </g>
    </g>
    <g id="xtick_16">
     <g id="line2d_20">
      <g>
       <use style="stroke:#000000;stroke-width:0.8;" x="304.936024" xlink:href="#mc25a77ed76" y="307.584"/>
      </g>
     </g>
     <g id="text_19">
      <!-- 150 -->
      <g transform="translate(295.392274 322.182437)scale(0.1 -0.1)">
       <use xlink:href="#DejaVuSans-31"/>
       <use x="63.623047" xlink:href="#DejaVuSans-35"/>
       <use x="127.246094" xlink:href="#DejaVuSans-30"/>
      </g>
     </g>
    </g>
    <g id="xtick_17">
     <g id="line2d_21">
      <g>
       <use style="stroke:#000000;stroke-width:0.8;" x="346.228065" xlink:href="#mc25a77ed76" y="307.584"/>
      </g>
     </g>
     <g id="text_20">
      <!-- 175 -->
      <g transform="translate(336.684315 322.182437)scale(0.1 -0.1)">
       <use xlink:href="#DejaVuSans-31"/>
       <use x="63.623047" xlink:href="#DejaVuSans-37"/>
       <use x="127.246094" xlink:href="#DejaVuSans-35"/>
      </g>
     </g>
    </g>
    <g id="xtick_18">
     <g id="line2d_22">
      <g>
       <use style="stroke:#000000;stroke-width:0.8;" x="387.520107" xlink:href="#mc25a77ed76" y="307.584"/>
      </g>
     </g>
     <g id="text_21">
      <!-- 200 -->
      <g transform="translate(377.976357 322.182437)scale(0.1 -0.1)">
       <use xlink:href="#DejaVuSans-32"/>
       <use x="63.623047" xlink:href="#DejaVuSans-30"/>
       <use x="127.246094" xlink:href="#DejaVuSans-30"/>
      </g>
     </g>
    </g>
    <g id="text_22">
     <!-- Time (Sec) -->
     <defs>
      <path d="M -0.296875 72.90625 
L 61.375 72.90625 
L 61.375 64.59375 
L 35.5 64.59375 
L 35.5 0 
L 25.59375 0 
L 25.59375 64.59375 
L -0.296875 64.59375 
z
" id="DejaVuSans-54"/>
      <path d="M 9.421875 54.6875 
L 18.40625 54.6875 
L 18.40625 0 
L 9.421875 0 
z
M 9.421875 75.984375 
L 18.40625 75.984375 
L 18.40625 64.59375 
L 9.421875 64.59375 
z
" id="DejaVuSans-69"/>
      <path d="M 52 44.1875 
Q 55.375 50.25 60.0625 53.125 
Q 64.75 56 71.09375 56 
Q 79.640625 56 84.28125 50.015625 
Q 88.921875 44.046875 88.921875 33.015625 
L 88.921875 0 
L 79.890625 0 
L 79.890625 32.71875 
Q 79.890625 40.578125 77.09375 44.375 
Q 74.3125 48.1875 68.609375 48.1875 
Q 61.625 48.1875 57.5625 43.546875 
Q 53.515625 38.921875 53.515625 30.90625 
L 53.515625 0 
L 44.484375 0 
L 44.484375 32.71875 
Q 44.484375 40.625 41.703125 44.40625 
Q 38.921875 48.1875 33.109375 48.1875 
Q 26.21875 48.1875 22.15625 43.53125 
Q 18.109375 38.875 18.109375 30.90625 
L 18.109375 0 
L 9.078125 0 
L 9.078125 54.6875 
L 18.109375 54.6875 
L 18.109375 46.1875 
Q 21.1875 51.21875 25.484375 53.609375 
Q 29.78125 56 35.6875 56 
Q 41.65625 56 45.828125 52.96875 
Q 50 49.953125 52 44.1875 
z
" id="DejaVuSans-6d"/>
      <path d="M 56.203125 29.59375 
L 56.203125 25.203125 
L 14.890625 25.203125 
Q 15.484375 15.921875 20.484375 11.0625 
Q 25.484375 6.203125 34.421875 6.203125 
Q 39.59375 6.203125 44.453125 7.46875 
Q 49.3125 8.734375 54.109375 11.28125 
L 54.109375 2.78125 
Q 49.265625 0.734375 44.1875 -0.34375 
Q 39.109375 -1.421875 33.890625 -1.421875 
Q 20.796875 -1.421875 13.15625 6.1875 
Q 5.515625 13.8125 5.515625 26.8125 
Q 5.515625 40.234375 12.765625 48.109375 
Q 20.015625 56 32.328125 56 
Q 43.359375 56 49.78125 48.890625 
Q 56.203125 41.796875 56.203125 29.59375 
z
M 47.21875 32.234375 
Q 47.125 39.59375 43.09375 43.984375 
Q 39.0625 48.390625 32.421875 48.390625 
Q 24.90625 48.390625 20.390625 44.140625 
Q 15.875 39.890625 15.1875 32.171875 
z
" id="DejaVuSans-65"/>
      <path id="DejaVuSans-20"/>
      <path d="M 31 75.875 
Q 24.46875 64.65625 21.28125 53.65625 
Q 18.109375 42.671875 18.109375 31.390625 
Q 18.109375 20.125 21.3125 9.0625 
Q 24.515625 -2 31 -13.1875 
L 23.1875 -13.1875 
Q 15.875 -1.703125 12.234375 9.375 
Q 8.59375 20.453125 8.59375 31.390625 
Q 8.59375 42.28125 12.203125 53.3125 
Q 15.828125 64.359375 23.1875 75.875 
z
" id="DejaVuSans-28"/>
      <path d="M 53.515625 70.515625 
L 53.515625 60.890625 
Q 47.90625 63.578125 42.921875 64.890625 
Q 37.9375 66.21875 33.296875 66.21875 
Q 25.25 66.21875 20.875 63.09375 
Q 16.5 59.96875 16.5 54.203125 
Q 16.5 49.359375 19.40625 46.890625 
Q 22.3125 44.4375 30.421875 42.921875 
L 36.375 41.703125 
Q 47.40625 39.59375 52.65625 34.296875 
Q 57.90625 29 57.90625 20.125 
Q 57.90625 9.515625 50.796875 4.046875 
Q 43.703125 -1.421875 29.984375 -1.421875 
Q 24.8125 -1.421875 18.96875 -0.25 
Q 13.140625 0.921875 6.890625 3.21875 
L 6.890625 13.375 
Q 12.890625 10.015625 18.65625 8.296875 
Q 24.421875 6.59375 29.984375 6.59375 
Q 38.421875 6.59375 43.015625 9.90625 
Q 47.609375 13.234375 47.609375 19.390625 
Q 47.609375 24.75 44.3125 27.78125 
Q 41.015625 30.8125 33.5 32.328125 
L 27.484375 33.5 
Q 16.453125 35.6875 11.515625 40.375 
Q 6.59375 45.0625 6.59375 53.421875 
Q 6.59375 63.09375 13.40625 68.65625 
Q 20.21875 74.21875 32.171875 74.21875 
Q 37.3125 74.21875 42.625 73.28125 
Q 47.953125 72.359375 53.515625 70.515625 
z
" id="DejaVuSans-53"/>
      <path d="M 48.78125 52.59375 
L 48.78125 44.1875 
Q 44.96875 46.296875 41.140625 47.34375 
Q 37.3125 48.390625 33.40625 48.390625 
Q 24.65625 48.390625 19.8125 42.84375 
Q 14.984375 37.3125 14.984375 27.296875 
Q 14.984375 17.28125 19.8125 11.734375 
Q 24.65625 6.203125 33.40625 6.203125 
Q 37.3125 6.203125 41.140625 7.25 
Q 44.96875 8.296875 48.78125 10.40625 
L 48.78125 2.09375 
Q 45.015625 0.34375 40.984375 -0.53125 
Q 36.96875 -1.421875 32.421875 -1.421875 
Q 20.0625 -1.421875 12.78125 6.34375 
Q 5.515625 14.109375 5.515625 27.296875 
Q 5.515625 40.671875 12.859375 48.328125 
Q 20.21875 56 33.015625 56 
Q 37.15625 56 41.109375 55.140625 
Q 45.0625 54.296875 48.78125 52.59375 
z
" id="DejaVuSans-63"/>
      <path d="M 8.015625 75.875 
L 15.828125 75.875 
Q 23.140625 64.359375 26.78125 53.3125 
Q 30.421875 42.28125 30.421875 31.390625 
Q 30.421875 20.453125 26.78125 9.375 
Q 23.140625 -1.703125 15.828125 -13.1875 
L 8.015625 -13.1875 
Q 14.5 -2 17.703125 9.0625 
Q 20.90625 20.125 20.90625 31.390625 
Q 20.90625 42.671875 17.703125 53.65625 
Q 14.5 64.65625 8.015625 75.875 
z
" id="DejaVuSans-29"/>
     </defs>
     <g transform="translate(209.281875 335.860562)scale(0.1 -0.1)">
      <use xlink:href="#DejaVuSans-54"/>
      <use x="61.037109" xlink:href="#DejaVuSans-69"/>
      <use x="88.820312" xlink:href="#DejaVuSans-6d"/>
      <use x="186.232422" xlink:href="#DejaVuSans-65"/>
      <use x="247.755859" xlink:href="#DejaVuSans-20"/>
      <use x="279.542969" xlink:href="#DejaVuSans-28"/>
      <use x="318.556641" xlink:href="#DejaVuSans-53"/>
      <use x="382.033203" xlink:href="#DejaVuSans-65"/>
      <use x="443.556641" xlink:href="#DejaVuSans-63"/>
      <use x="498.537109" xlink:href="#DejaVuSans-29"/>
     </g>
    </g>
   </g>
   <g id="matplotlib.axis_4">
    <g id="ytick_4">
     <g id="line2d_23">
      <g>
       <use style="stroke:#000000;stroke-width:0.8;" x="57.6" xlink:href="#mcbf4be56eb" y="283.3496"/>
      </g>
     </g>
     <g id="text_23">
      <!-- −10 -->
      <g transform="translate(29.495313 287.148819)scale(0.1 -0.1)">
       <use xlink:href="#DejaVuSans-2212"/>
       <use x="83.789062" xlink:href="#DejaVuSans-31"/>
       <use x="147.412109" xlink:href="#DejaVuSans-30"/>
      </g>
     </g>
    </g>
    <g id="ytick_5">
     <g id="line2d_24">
      <g>
       <use style="stroke:#000000;stroke-width:0.8;" x="57.6" xlink:href="#mcbf4be56eb" y="256.055967"/>
      </g>
     </g>
     <g id="text_24">
      <!-- 0 -->
      <g transform="translate(44.2375 259.855186)scale(0.1 -0.1)">
       <use xlink:href="#DejaVuSans-30"/>
      </g>
     </g>
    </g>
    <g id="ytick_6">
     <g id="line2d_25">
      <g>
       <use style="stroke:#000000;stroke-width:0.8;" x="57.6" xlink:href="#mcbf4be56eb" y="228.762334"/>
      </g>
     </g>
     <g id="text_25">
      <!-- 10 -->
      <g transform="translate(37.875 232.561553)scale(0.1 -0.1)">
       <use xlink:href="#DejaVuSans-31"/>
       <use x="63.623047" xlink:href="#DejaVuSans-30"/>
      </g>
     </g>
    </g>
    <g id="ytick_7">
     <g id="line2d_26">
      <g>
       <use style="stroke:#000000;stroke-width:0.8;" x="57.6" xlink:href="#mcbf4be56eb" y="201.468701"/>
      </g>
     </g>
     <g id="text_26">
      <!-- 20 -->
      <g transform="translate(37.875 205.26792)scale(0.1 -0.1)">
       <use xlink:href="#DejaVuSans-32"/>
       <use x="63.623047" xlink:href="#DejaVuSans-30"/>
      </g>
     </g>
    </g>
   </g>
   <g id="line2d_27">
    <path clip-path="url(#p2848504822)" d="M 73.832727 250.399343 
L 77.40036 255.249845 
L 78.58957 256.589205 
L 79.778781 257.596257 
L 80.967992 258.215759 
L 82.157203 258.447112 
L 83.346414 258.339232 
L 84.535624 257.976112 
L 90.481678 255.377559 
L 92.8601 254.856567 
L 95.238521 254.700008 
L 97.616943 254.806339 
L 99.995365 255.183321 
L 102.373786 255.918743 
L 104.752208 256.986213 
L 108.31984 258.717567 
L 110.698262 259.615923 
L 117.833526 261.650682 
L 119.022737 261.905946 
L 120.211948 261.796624 
L 121.401159 261.032899 
L 122.59037 259.377284 
L 123.77958 256.716282 
L 124.968791 253.125422 
L 127.347213 244.744667 
L 128.536424 241.203311 
L 129.725634 238.893456 
L 130.914845 238.166793 
L 132.104056 239.089018 
L 133.293267 241.423509 
L 134.482478 244.691262 
L 136.860899 251.719223 
L 138.05011 254.525703 
L 139.239321 256.506395 
L 140.428531 257.633532 
L 141.617742 258.033621 
L 142.806953 257.92173 
L 147.563796 256.447197 
L 148.753007 256.388777 
L 149.942218 256.489257 
L 152.320639 257.0062 
L 155.888272 257.927907 
L 158.266693 258.191508 
L 159.455904 258.150986 
L 160.645115 257.985672 
L 161.834326 257.66524 
L 163.023536 257.125985 
L 164.212747 256.290573 
L 165.401958 255.099285 
L 166.591169 253.533663 
L 168.96959 249.562942 
L 170.158801 247.531989 
L 171.348012 245.811309 
L 172.537223 244.62367 
L 173.726434 244.102352 
L 174.915644 244.279408 
L 176.104855 245.103287 
L 177.294066 246.468468 
L 178.483277 248.243702 
L 180.861698 252.494628 
L 183.24012 256.848025 
L 184.429331 258.697566 
L 185.618541 260.112893 
L 186.807752 260.975549 
L 187.996963 261.236469 
L 189.186174 260.928458 
L 190.375385 260.170712 
L 193.943017 257.147276 
L 195.132228 256.483779 
L 196.321439 256.140182 
L 197.510649 256.067138 
L 199.889071 256.13267 
L 201.078282 255.920991 
L 202.267493 255.378016 
L 203.456703 254.477111 
L 207.024336 250.905637 
L 208.213546 250.11595 
L 209.402757 249.799348 
L 210.591968 249.984601 
L 211.781179 250.572481 
L 214.1596 252.0574 
L 215.348811 252.454206 
L 216.538022 252.381157 
L 217.727233 251.786728 
L 218.916444 250.744353 
L 222.484076 246.913743 
L 223.673287 246.076128 
L 224.862498 245.691372 
L 226.051708 245.914687 
L 227.240919 246.972123 
L 228.43013 249.106438 
L 229.619341 252.488411 
L 230.808551 257.147103 
L 234.376184 274.511176 
L 235.565395 278.210977 
L 236.754605 279.10668 
L 237.943816 276.64985 
L 239.133027 270.891516 
L 240.322238 262.597484 
L 242.700659 244.167937 
L 243.88987 237.107198 
L 245.079081 232.932587 
L 246.268292 231.974822 
L 247.457502 233.866098 
L 248.646713 237.658328 
L 249.835924 242.125903 
L 251.025135 246.104918 
L 252.214346 248.736369 
L 253.403556 249.612802 
L 254.592767 248.860432 
L 255.781978 247.073068 
L 256.971189 245.084475 
L 258.1604 243.700869 
L 259.34961 243.507211 
L 260.538821 244.760932 
L 261.728032 247.349143 
L 264.106454 254.665011 
L 265.295664 258.236744 
L 266.484875 261.129212 
L 267.674086 263.099417 
L 268.863297 264.082071 
L 270.052507 264.146642 
L 271.241718 263.446565 
L 272.430929 262.173466 
L 274.809351 258.699902 
L 275.998561 256.940012 
L 277.187772 255.527444 
L 278.376983 254.740372 
L 279.566194 254.785885 
L 280.755405 255.753609 
L 281.944615 257.569451 
L 284.323037 262.3593 
L 285.512248 264.259974 
L 286.701459 265.147504 
L 287.890669 264.720202 
L 289.07988 262.907175 
L 290.269091 259.857866 
L 291.458302 255.885273 
L 296.215145 238.011399 
L 297.404356 234.349469 
L 298.593566 231.305754 
L 299.782777 228.949018 
L 300.971988 227.29547 
L 302.161199 226.308906 
L 303.35041 225.952316 
L 304.53962 226.290066 
L 305.728831 227.526503 
L 306.918042 229.929168 
L 308.107253 233.707428 
L 309.296464 238.924101 
L 310.485674 245.442425 
L 315.242517 275.033757 
L 316.431728 280.628801 
L 317.620939 284.866792 
L 318.81015 287.639596 
L 319.999361 288.853776 
L 321.188571 288.443281 
L 322.377782 286.420519 
L 323.566993 282.909629 
L 324.756204 278.144696 
L 325.945415 272.442665 
L 331.891469 241.242487 
L 333.080679 236.085876 
L 334.26989 231.698948 
L 335.459101 228.248686 
L 336.648312 225.840399 
L 337.837522 224.487562 
L 339.026733 224.143243 
L 340.215944 224.787873 
L 341.405155 226.477373 
L 342.594366 229.304473 
L 343.783576 233.322449 
L 344.972787 238.489384 
L 346.161998 244.640817 
L 350.918841 272.132521 
L 352.108052 277.922935 
L 353.297263 282.838741 
L 354.486474 286.754757 
L 355.675684 289.521259 
L 356.864895 290.99492 
L 358.054106 291.102372 
L 359.243317 289.879579 
L 360.432527 287.448438 
L 361.621738 283.938481 
L 362.810949 279.433203 
L 364.00016 273.982527 
L 365.189371 267.64805 
L 367.567792 252.883132 
L 369.946214 237.711515 
L 371.135425 231.427465 
L 372.324635 226.745094 
L 373.513846 223.95052 
L 374.703057 223.054543 
L 375.892268 223.805604 
L 377.081479 225.758792 
L 380.649111 233.797222 
L 381.838322 235.991048 
L 384.216743 239.667002 
L 385.405954 241.920559 
L 386.595165 245.016012 
L 387.784376 249.210141 
L 388.973586 254.518594 
L 392.541219 273.054639 
L 393.73043 278.056539 
L 394.91964 281.664003 
L 396.108851 283.69092 
L 397.298062 284.073181 
L 398.487273 282.791068 
L 398.487273 282.791068 
" style="fill:none;stroke:#ff0000;stroke-linecap:square;stroke-width:2;"/>
   </g>
   <g id="line2d_28">
    <path clip-path="url(#p2848504822)" d="M 73.832727 232.252704 
L 75.021938 261.7605 
L 76.211149 259.990051 
L 77.40036 246.123093 
L 78.58957 251.972311 
L 79.778781 254.446753 
L 80.967992 254.666463 
L 82.157203 266.899887 
L 83.346414 265.20354 
L 84.535624 264.735317 
L 85.724835 247.222582 
L 86.914046 256.598602 
L 88.103257 262.496644 
L 89.292468 262.110986 
L 90.481678 251.142146 
L 91.670889 241.413832 
L 92.8601 253.510032 
L 94.049311 245.374932 
L 95.238521 262.824145 
L 96.427732 269.311173 
L 97.616943 249.195443 
L 98.806154 263.820086 
L 99.995365 244.914049 
L 101.184575 271.033992 
L 102.373786 236.193139 
L 103.562997 249.690171 
L 104.752208 280.894289 
L 105.941419 245.382818 
L 107.130629 257.603562 
L 108.31984 248.255171 
L 109.509051 266.97708 
L 110.698262 263.97681 
L 111.887473 260.370924 
L 113.076683 276.808579 
L 114.265894 246.079002 
L 115.455105 246.769705 
L 116.644316 258.517764 
L 117.833526 264.517645 
L 119.022737 290.329143 
L 120.211948 254.270813 
L 121.401159 260.352825 
L 122.59037 243.804933 
L 123.77958 248.575562 
L 124.968791 263.685444 
L 126.158002 246.326215 
L 127.347213 250.923158 
L 128.536424 260.060894 
L 129.725634 221.844442 
L 130.914845 242.77035 
L 132.104056 222.565851 
L 133.293267 254.887413 
L 134.482478 237.184607 
L 135.671688 246.066572 
L 136.860899 253.747785 
L 138.05011 268.185407 
L 139.239321 252.348138 
L 140.428531 255.311213 
L 141.617742 244.084608 
L 142.806953 267.706376 
L 143.996164 266.367721 
L 145.185375 257.773924 
L 146.374585 247.479226 
L 147.563796 244.335159 
L 148.753007 253.27196 
L 149.942218 280.564555 
L 151.131429 256.178073 
L 152.320639 266.70374 
L 153.50985 246.472896 
L 154.699061 247.386829 
L 155.888272 256.305865 
L 157.077483 261.798105 
L 158.266693 253.542598 
L 159.455904 260.022755 
L 160.645115 251.387857 
L 161.834326 276.400111 
L 163.023536 252.300027 
L 164.212747 257.036428 
L 165.401958 265.703732 
L 166.591169 245.507059 
L 167.78038 245.385988 
L 168.96959 240.581486 
L 170.158801 248.733943 
L 171.348012 246.849736 
L 172.537223 243.620877 
L 173.726434 274.711924 
L 174.915644 238.133151 
L 176.104855 217.216108 
L 177.294066 253.595112 
L 178.483277 247.080561 
L 179.672488 255.3923 
L 180.861698 257.444967 
L 182.050909 242.949519 
L 183.24012 268.848861 
L 184.429331 256.796599 
L 185.618541 248.211541 
L 186.807752 274.355168 
L 187.996963 265.338326 
L 189.186174 260.618193 
L 190.375385 250.991706 
L 191.564595 252.565014 
L 192.753806 265.213653 
L 195.132228 251.415453 
L 196.321439 255.480506 
L 197.510649 263.848486 
L 198.69986 247.435889 
L 199.889071 271.941776 
L 201.078282 255.168178 
L 202.267493 251.877311 
L 203.456703 245.831407 
L 204.645914 254.395142 
L 205.835125 242.707841 
L 207.024336 252.46866 
L 208.213546 266.247043 
L 209.402757 253.018582 
L 210.591968 250.594104 
L 211.781179 237.115885 
L 212.97039 249.89197 
L 214.1596 263.939169 
L 215.348811 237.200654 
L 216.538022 249.512899 
L 217.727233 271.034817 
L 218.916444 232.83702 
L 220.105654 257.080846 
L 221.294865 254.281004 
L 222.484076 259.32262 
L 223.673287 237.246197 
L 224.862498 230.731229 
L 226.051708 242.718269 
L 227.240919 271.058735 
L 228.43013 233.749937 
L 230.808551 253.525294 
L 231.997762 280.734396 
L 233.186973 278.0779 
L 234.376184 258.599094 
L 235.565395 284.334457 
L 236.754605 269.582356 
L 237.943816 299.159031 
L 239.133027 254.951719 
L 240.322238 255.655926 
L 241.511449 246.642238 
L 242.700659 255.373471 
L 243.88987 249.885175 
L 245.079081 229.227016 
L 246.268292 232.497952 
L 247.457502 226.416096 
L 248.646713 218.694957 
L 249.835924 261.59737 
L 251.025135 233.610101 
L 252.214346 271.403291 
L 253.403556 259.13064 
L 254.592767 228.675677 
L 255.781978 254.757046 
L 256.971189 215.72637 
L 258.1604 252.936246 
L 259.34961 257.807661 
L 260.538821 251.549207 
L 261.728032 247.379998 
L 262.917243 234.633449 
L 264.106454 257.434485 
L 265.295664 267.347414 
L 266.484875 261.753176 
L 267.674086 263.959587 
L 268.863297 257.189149 
L 270.052507 265.028544 
L 271.241718 254.338116 
L 272.430929 271.030993 
L 273.62014 259.50466 
L 274.809351 257.719511 
L 275.998561 269.400402 
L 277.187772 235.194508 
L 278.376983 277.339659 
L 279.566194 244.074279 
L 280.755405 248.453201 
L 281.944615 258.797107 
L 283.133826 264.745407 
L 284.323037 266.968741 
L 285.512248 256.123767 
L 286.701459 267.29531 
L 287.890669 273.545405 
L 289.07988 254.197283 
L 290.269091 255.846382 
L 291.458302 264.787153 
L 292.647512 235.167752 
L 293.836723 264.11572 
L 295.025934 238.832286 
L 296.215145 239.290325 
L 297.404356 229.928604 
L 298.593566 244.626756 
L 299.782777 216.209312 
L 300.971988 218.464658 
L 302.161199 228.40505 
L 303.35041 220.661899 
L 304.53962 245.600155 
L 305.728831 245.281598 
L 306.918042 194.688 
L 308.107253 238.696695 
L 309.296464 236.688154 
L 310.485674 275.467282 
L 311.674885 237.679342 
L 312.864096 254.651851 
L 314.053307 256.947254 
L 315.242517 279.888763 
L 316.431728 284.378162 
L 317.620939 280.475789 
L 318.81015 285.155019 
L 319.999361 302.208 
L 321.188571 297.075693 
L 322.377782 282.862464 
L 323.566993 280.882182 
L 324.756204 268.626663 
L 325.945415 270.690284 
L 327.134625 262.402738 
L 328.323836 268.334559 
L 329.513047 242.138601 
L 330.702258 254.480228 
L 331.891469 256.905531 
L 333.080679 217.744827 
L 334.26989 235.622997 
L 335.459101 237.149649 
L 336.648312 210.34415 
L 337.837522 243.91328 
L 339.026733 214.684964 
L 340.215944 210.696363 
L 341.405155 231.748571 
L 342.594366 236.274666 
L 343.783576 234.615433 
L 344.972787 239.818078 
L 346.161998 251.450778 
L 347.351209 247.465162 
L 348.54042 258.76068 
L 349.72963 257.693376 
L 350.918841 264.588134 
L 352.108052 268.44056 
L 353.297263 296.802464 
L 354.486474 289.172533 
L 355.675684 300.926945 
L 356.864895 294.745401 
L 358.054106 281.58083 
L 359.243317 284.66211 
L 360.432527 298.654253 
L 361.621738 287.212069 
L 362.810949 273.333331 
L 364.00016 255.28982 
L 365.189371 260.340217 
L 366.378581 277.706871 
L 367.567792 235.936414 
L 368.757003 262.023433 
L 369.946214 255.943707 
L 371.135425 228.836025 
L 372.324635 224.440902 
L 373.513846 223.590163 
L 374.703057 209.087638 
L 375.892268 236.065304 
L 377.081479 205.385337 
L 378.270689 225.534226 
L 379.4599 240.08074 
L 380.649111 245.053178 
L 381.838322 224.736971 
L 383.027532 242.835466 
L 384.216743 240.416351 
L 385.405954 256.408043 
L 386.595165 234.945909 
L 387.784376 245.652999 
L 388.973586 252.867402 
L 390.162797 254.405025 
L 391.352008 271.957663 
L 392.541219 275.252358 
L 393.73043 278.888092 
L 394.91964 287.194175 
L 396.108851 268.144234 
L 397.298062 290.708624 
L 398.487273 292.757735 
L 398.487273 292.757735 
" style="fill:none;stroke:#0000ff;stroke-linecap:square;stroke-width:2;"/>
   </g>
   <g id="patch_8">
    <path d="M 57.6 307.584 
L 57.6 189.312 
" style="fill:none;stroke:#000000;stroke-linecap:square;stroke-linejoin:miter;stroke-width:0.8;"/>
   </g>
   <g id="patch_9">
    <path d="M 414.72 307.584 
L 414.72 189.312 
" style="fill:none;stroke:#000000;stroke-linecap:square;stroke-linejoin:miter;stroke-width:0.8;"/>
   </g>
   <g id="patch_10">
    <path d="M 57.6 307.584 
L 414.72 307.584 
" style="fill:none;stroke:#000000;stroke-linecap:square;stroke-linejoin:miter;stroke-width:0.8;"/>
   </g>
   <g id="patch_11">
    <path d="M 57.6 189.312 
L 414.72 189.312 
" style="fill:none;stroke:#000000;stroke-linecap:square;stroke-linejoin:miter;stroke-width:0.8;"/>
   </g>
   <g id="text_27">
    <!-- BOLD signal -->
    <defs>
     <path d="M 19.671875 34.8125 
L 19.671875 8.109375 
L 35.5 8.109375 
Q 43.453125 8.109375 47.28125 11.40625 
Q 51.125 14.703125 51.125 21.484375 
Q 51.125 28.328125 47.28125 31.5625 
Q 43.453125 34.8125 35.5 34.8125 
z
M 19.671875 64.796875 
L 19.671875 42.828125 
L 34.28125 42.828125 
Q 41.5 42.828125 45.03125 45.53125 
Q 48.578125 48.25 48.578125 53.8125 
Q 48.578125 59.328125 45.03125 62.0625 
Q 41.5 64.796875 34.28125 64.796875 
z
M 9.8125 72.90625 
L 35.015625 72.90625 
Q 46.296875 72.90625 52.390625 68.21875 
Q 58.5 63.53125 58.5 54.890625 
Q 58.5 48.1875 55.375 44.234375 
Q 52.25 40.28125 46.1875 39.3125 
Q 53.46875 37.75 57.5 32.78125 
Q 61.53125 27.828125 61.53125 20.40625 
Q 61.53125 10.640625 54.890625 5.3125 
Q 48.25 0 35.984375 0 
L 9.8125 0 
z
" id="DejaVuSans-42"/>
     <path d="M 39.40625 66.21875 
Q 28.65625 66.21875 22.328125 58.203125 
Q 16.015625 50.203125 16.015625 36.375 
Q 16.015625 22.609375 22.328125 14.59375 
Q 28.65625 6.59375 39.40625 6.59375 
Q 50.140625 6.59375 56.421875 14.59375 
Q 62.703125 22.609375 62.703125 36.375 
Q 62.703125 50.203125 56.421875 58.203125 
Q 50.140625 66.21875 39.40625 66.21875 
z
M 39.40625 74.21875 
Q 54.734375 74.21875 63.90625 63.9375 
Q 73.09375 53.65625 73.09375 36.375 
Q 73.09375 19.140625 63.90625 8.859375 
Q 54.734375 -1.421875 39.40625 -1.421875 
Q 24.03125 -1.421875 14.8125 8.828125 
Q 5.609375 19.09375 5.609375 36.375 
Q 5.609375 53.65625 14.8125 63.9375 
Q 24.03125 74.21875 39.40625 74.21875 
z
" id="DejaVuSans-4f"/>
     <path d="M 9.8125 72.90625 
L 19.671875 72.90625 
L 19.671875 8.296875 
L 55.171875 8.296875 
L 55.171875 0 
L 9.8125 0 
z
" id="DejaVuSans-4c"/>
     <path d="M 19.671875 64.796875 
L 19.671875 8.109375 
L 31.59375 8.109375 
Q 46.6875 8.109375 53.6875 14.9375 
Q 60.6875 21.78125 60.6875 36.53125 
Q 60.6875 51.171875 53.6875 57.984375 
Q 46.6875 64.796875 31.59375 64.796875 
z
M 9.8125 72.90625 
L 30.078125 72.90625 
Q 51.265625 72.90625 61.171875 64.09375 
Q 71.09375 55.28125 71.09375 36.53125 
Q 71.09375 17.671875 61.125 8.828125 
Q 51.171875 0 30.078125 0 
L 9.8125 0 
z
" id="DejaVuSans-44"/>
     <path d="M 44.28125 53.078125 
L 44.28125 44.578125 
Q 40.484375 46.53125 36.375 47.5 
Q 32.28125 48.484375 27.875 48.484375 
Q 21.1875 48.484375 17.84375 46.4375 
Q 14.5 44.390625 14.5 40.28125 
Q 14.5 37.15625 16.890625 35.375 
Q 19.28125 33.59375 26.515625 31.984375 
L 29.59375 31.296875 
Q 39.15625 29.25 43.1875 25.515625 
Q 47.21875 21.78125 47.21875 15.09375 
Q 47.21875 7.46875 41.1875 3.015625 
Q 35.15625 -1.421875 24.609375 -1.421875 
Q 20.21875 -1.421875 15.453125 -0.5625 
Q 10.6875 0.296875 5.421875 2 
L 5.421875 11.28125 
Q 10.40625 8.6875 15.234375 7.390625 
Q 20.0625 6.109375 24.8125 6.109375 
Q 31.15625 6.109375 34.5625 8.28125 
Q 37.984375 10.453125 37.984375 14.40625 
Q 37.984375 18.0625 35.515625 20.015625 
Q 33.0625 21.96875 24.703125 23.78125 
L 21.578125 24.515625 
Q 13.234375 26.265625 9.515625 29.90625 
Q 5.8125 33.546875 5.8125 39.890625 
Q 5.8125 47.609375 11.28125 51.796875 
Q 16.75 56 26.8125 56 
Q 31.78125 56 36.171875 55.265625 
Q 40.578125 54.546875 44.28125 53.078125 
z
" id="DejaVuSans-73"/>
     <path d="M 45.40625 27.984375 
Q 45.40625 37.75 41.375 43.109375 
Q 37.359375 48.484375 30.078125 48.484375 
Q 22.859375 48.484375 18.828125 43.109375 
Q 14.796875 37.75 14.796875 27.984375 
Q 14.796875 18.265625 18.828125 12.890625 
Q 22.859375 7.515625 30.078125 7.515625 
Q 37.359375 7.515625 41.375 12.890625 
Q 45.40625 18.265625 45.40625 27.984375 
z
M 54.390625 6.78125 
Q 54.390625 -7.171875 48.1875 -13.984375 
Q 42 -20.796875 29.203125 -20.796875 
Q 24.46875 -20.796875 20.265625 -20.09375 
Q 16.0625 -19.390625 12.109375 -17.921875 
L 12.109375 -9.1875 
Q 16.0625 -11.328125 19.921875 -12.34375 
Q 23.78125 -13.375 27.78125 -13.375 
Q 36.625 -13.375 41.015625 -8.765625 
Q 45.40625 -4.15625 45.40625 5.171875 
L 45.40625 9.625 
Q 42.625 4.78125 38.28125 2.390625 
Q 33.9375 0 27.875 0 
Q 17.828125 0 11.671875 7.65625 
Q 5.515625 15.328125 5.515625 27.984375 
Q 5.515625 40.671875 11.671875 48.328125 
Q 17.828125 56 27.875 56 
Q 33.9375 56 38.28125 53.609375 
Q 42.625 51.21875 45.40625 46.390625 
L 45.40625 54.6875 
L 54.390625 54.6875 
z
" id="DejaVuSans-67"/>
     <path d="M 54.890625 33.015625 
L 54.890625 0 
L 45.90625 0 
L 45.90625 32.71875 
Q 45.90625 40.484375 42.875 44.328125 
Q 39.84375 48.1875 33.796875 48.1875 
Q 26.515625 48.1875 22.3125 43.546875 
Q 18.109375 38.921875 18.109375 30.90625 
L 18.109375 0 
L 9.078125 0 
L 9.078125 54.6875 
L 18.109375 54.6875 
L 18.109375 46.1875 
Q 21.34375 51.125 25.703125 53.5625 
Q 30.078125 56 35.796875 56 
Q 45.21875 56 50.046875 50.171875 
Q 54.890625 44.34375 54.890625 33.015625 
z
" id="DejaVuSans-6e"/>
     <path d="M 34.28125 27.484375 
Q 23.390625 27.484375 19.1875 25 
Q 14.984375 22.515625 14.984375 16.5 
Q 14.984375 11.71875 18.140625 8.90625 
Q 21.296875 6.109375 26.703125 6.109375 
Q 34.1875 6.109375 38.703125 11.40625 
Q 43.21875 16.703125 43.21875 25.484375 
L 43.21875 27.484375 
z
M 52.203125 31.203125 
L 52.203125 0 
L 43.21875 0 
L 43.21875 8.296875 
Q 40.140625 3.328125 35.546875 0.953125 
Q 30.953125 -1.421875 24.3125 -1.421875 
Q 15.921875 -1.421875 10.953125 3.296875 
Q 6 8.015625 6 15.921875 
Q 6 25.140625 12.171875 29.828125 
Q 18.359375 34.515625 30.609375 34.515625 
L 43.21875 34.515625 
L 43.21875 35.40625 
Q 43.21875 41.609375 39.140625 45 
Q 35.0625 48.390625 27.6875 48.390625 
Q 23 48.390625 18.546875 47.265625 
Q 14.109375 46.140625 10.015625 43.890625 
L 10.015625 52.203125 
Q 14.9375 54.109375 19.578125 55.046875 
Q 24.21875 56 28.609375 56 
Q 40.484375 56 46.34375 49.84375 
Q 52.203125 43.703125 52.203125 31.203125 
z
" id="DejaVuSans-61"/>
     <path d="M 9.421875 75.984375 
L 18.40625 75.984375 
L 18.40625 0 
L 9.421875 0 
z
" id="DejaVuSans-6c"/>
    </defs>
    <g transform="translate(199.703438 183.312)scale(0.12 -0.12)">
     <use xlink:href="#DejaVuSans-42"/>
     <use x="68.587891" xlink:href="#DejaVuSans-4f"/>
     <use x="147.298828" xlink:href="#DejaVuSans-4c"/>
     <use x="203.011719" xlink:href="#DejaVuSans-44"/>
     <use x="280.013672" xlink:href="#DejaVuSans-20"/>
     <use x="311.800781" xlink:href="#DejaVuSans-73"/>
     <use x="363.900391" xlink:href="#DejaVuSans-69"/>
     <use x="391.683594" xlink:href="#DejaVuSans-67"/>
     <use x="455.160156" xlink:href="#DejaVuSans-6e"/>
     <use x="518.539062" xlink:href="#DejaVuSans-61"/>
     <use x="579.818359" xlink:href="#DejaVuSans-6c"/>
    </g>
   </g>
  </g>
 </g>
 <defs>
  <clipPath id="p90844f5d9b">
   <rect height="118.272" width="357.12" x="57.6" y="41.472"/>
  </clipPath>
  <clipPath id="p2848504822">
   <rect height="118.272" width="357.12" x="57.6" y="189.312"/>
  </clipPath>
 </defs>
</svg>
