<?xml version="1.0" encoding="utf-8" standalone="no"?>
<!DOCTYPE svg PUBLIC "-//W3C//DTD SVG 1.1//EN"
  "http://www.w3.org/Graphics/SVG/1.1/DTD/svg11.dtd">
<!-- Created with matplotlib (http://matplotlib.org/) -->
<svg height="345.6pt" version="1.1" viewBox="0 0 460.8 345.6" width="460.8pt" xmlns="http://www.w3.org/2000/svg" xmlns:xlink="http://www.w3.org/1999/xlink">
 <defs>
  <style type="text/css">
*{stroke-linecap:butt;stroke-linejoin:round;}
  </style>
 </defs>
 <g id="figure_1">
  <g id="patch_1">
   <path d="M 0 345.6 
L 460.8 345.6 
L 460.8 0 
L 0 0 
z
" style="fill:#ffffff;"/>
  </g>
  <g id="axes_1">
   <g id="patch_2">
    <path d="M 57.6 159.744 
L 414.72 159.744 
L 414.72 41.472 
L 57.6 41.472 
z
" style="fill:#ffffff;"/>
   </g>
   <g id="matplotlib.axis_1">
    <g id="xtick_1">
     <g id="line2d_1">
      <defs>
       <path d="M 0 0 
L 0 3.5 
" id="m80733e10df" style="stroke:#000000;stroke-width:0.8;"/>
      </defs>
      <g>
       <use style="stroke:#000000;stroke-width:0.8;" x="57.183776" xlink:href="#m80733e10df" y="159.744"/>
      </g>
     </g>
     <g id="text_1">
      <!-- 0 -->
      <defs>
       <path d="M 31.78125 66.40625 
Q 24.171875 66.40625 20.328125 58.90625 
Q 16.5 51.421875 16.5 36.375 
Q 16.5 21.390625 20.328125 13.890625 
Q 24.171875 6.390625 31.78125 6.390625 
Q 39.453125 6.390625 43.28125 13.890625 
Q 47.125 21.390625 47.125 36.375 
Q 47.125 51.421875 43.28125 58.90625 
Q 39.453125 66.40625 31.78125 66.40625 
z
M 31.78125 74.21875 
Q 44.046875 74.21875 50.515625 64.515625 
Q 56.984375 54.828125 56.984375 36.375 
Q 56.984375 17.96875 50.515625 8.265625 
Q 44.046875 -1.421875 31.78125 -1.421875 
Q 19.53125 -1.421875 13.0625 8.265625 
Q 6.59375 17.96875 6.59375 36.375 
Q 6.59375 54.828125 13.0625 64.515625 
Q 19.53125 74.21875 31.78125 74.21875 
z
" id="DejaVuSans-30"/>
      </defs>
      <g transform="translate(54.002526 174.342437)scale(0.1 -0.1)">
       <use xlink:href="#DejaVuSans-30"/>
      </g>
     </g>
    </g>
    <g id="xtick_2">
     <g id="line2d_2">
      <g>
       <use style="stroke:#000000;stroke-width:0.8;" x="98.475818" xlink:href="#m80733e10df" y="159.744"/>
      </g>
     </g>
     <g id="text_2">
      <!-- 25 -->
      <defs>
       <path d="M 19.1875 8.296875 
L 53.609375 8.296875 
L 53.609375 0 
L 7.328125 0 
L 7.328125 8.296875 
Q 12.9375 14.109375 22.625 23.890625 
Q 32.328125 33.6875 34.8125 36.53125 
Q 39.546875 41.84375 41.421875 45.53125 
Q 43.3125 49.21875 43.3125 52.78125 
Q 43.3125 58.59375 39.234375 62.25 
Q 35.15625 65.921875 28.609375 65.921875 
Q 23.96875 65.921875 18.8125 64.3125 
Q 13.671875 62.703125 7.8125 59.421875 
L 7.8125 69.390625 
Q 13.765625 71.78125 18.9375 73 
Q 24.125 74.21875 28.421875 74.21875 
Q 39.75 74.21875 46.484375 68.546875 
Q 53.21875 62.890625 53.21875 53.421875 
Q 53.21875 48.921875 51.53125 44.890625 
Q 49.859375 40.875 45.40625 35.40625 
Q 44.1875 33.984375 37.640625 27.21875 
Q 31.109375 20.453125 19.1875 8.296875 
z
" id="DejaVuSans-32"/>
       <path d="M 10.796875 72.90625 
L 49.515625 72.90625 
L 49.515625 64.59375 
L 19.828125 64.59375 
L 19.828125 46.734375 
Q 21.96875 47.46875 24.109375 47.828125 
Q 26.265625 48.1875 28.421875 48.1875 
Q 40.625 48.1875 47.75 41.5 
Q 54.890625 34.8125 54.890625 23.390625 
Q 54.890625 11.625 47.5625 5.09375 
Q 40.234375 -1.421875 26.90625 -1.421875 
Q 22.3125 -1.421875 17.546875 -0.640625 
Q 12.796875 0.140625 7.71875 1.703125 
L 7.71875 11.625 
Q 12.109375 9.234375 16.796875 8.0625 
Q 21.484375 6.890625 26.703125 6.890625 
Q 35.15625 6.890625 40.078125 11.328125 
Q 45.015625 15.765625 45.015625 23.390625 
Q 45.015625 31 40.078125 35.4375 
Q 35.15625 39.890625 26.703125 39.890625 
Q 22.75 39.890625 18.8125 39.015625 
Q 14.890625 38.140625 10.796875 36.28125 
z
" id="DejaVuSans-35"/>
      </defs>
      <g transform="translate(92.113318 174.342437)scale(0.1 -0.1)">
       <use xlink:href="#DejaVuSans-32"/>
       <use x="63.623047" xlink:href="#DejaVuSans-35"/>
      </g>
     </g>
    </g>
    <g id="xtick_3">
     <g id="line2d_3">
      <g>
       <use style="stroke:#000000;stroke-width:0.8;" x="139.767859" xlink:href="#m80733e10df" y="159.744"/>
      </g>
     </g>
     <g id="text_3">
      <!-- 50 -->
      <g transform="translate(133.405359 174.342437)scale(0.1 -0.1)">
       <use xlink:href="#DejaVuSans-35"/>
       <use x="63.623047" xlink:href="#DejaVuSans-30"/>
      </g>
     </g>
    </g>
    <g id="xtick_4">
     <g id="line2d_4">
      <g>
       <use style="stroke:#000000;stroke-width:0.8;" x="181.0599" xlink:href="#m80733e10df" y="159.744"/>
      </g>
     </g>
     <g id="text_4">
      <!-- 75 -->
      <defs>
       <path d="M 8.203125 72.90625 
L 55.078125 72.90625 
L 55.078125 68.703125 
L 28.609375 0 
L 18.3125 0 
L 43.21875 64.59375 
L 8.203125 64.59375 
z
" id="DejaVuSans-37"/>
      </defs>
      <g transform="translate(174.6974 174.342437)scale(0.1 -0.1)">
       <use xlink:href="#DejaVuSans-37"/>
       <use x="63.623047" xlink:href="#DejaVuSans-35"/>
      </g>
     </g>
    </g>
    <g id="xtick_5">
     <g id="line2d_5">
      <g>
       <use style="stroke:#000000;stroke-width:0.8;" x="222.351941" xlink:href="#m80733e10df" y="159.744"/>
      </g>
     </g>
     <g id="text_5">
      <!-- 100 -->
      <defs>
       <path d="M 12.40625 8.296875 
L 28.515625 8.296875 
L 28.515625 63.921875 
L 10.984375 60.40625 
L 10.984375 69.390625 
L 28.421875 72.90625 
L 38.28125 72.90625 
L 38.28125 8.296875 
L 54.390625 8.296875 
L 54.390625 0 
L 12.40625 0 
z
" id="DejaVuSans-31"/>
      </defs>
      <g transform="translate(212.808191 174.342437)scale(0.1 -0.1)">
       <use xlink:href="#DejaVuSans-31"/>
       <use x="63.623047" xlink:href="#DejaVuSans-30"/>
       <use x="127.246094" xlink:href="#DejaVuSans-30"/>
      </g>
     </g>
    </g>
    <g id="xtick_6">
     <g id="line2d_6">
      <g>
       <use style="stroke:#000000;stroke-width:0.8;" x="263.643983" xlink:href="#m80733e10df" y="159.744"/>
      </g>
     </g>
     <g id="text_6">
      <!-- 125 -->
      <g transform="translate(254.100233 174.342437)scale(0.1 -0.1)">
       <use xlink:href="#DejaVuSans-31"/>
       <use x="63.623047" xlink:href="#DejaVuSans-32"/>
       <use x="127.246094" xlink:href="#DejaVuSans-35"/>
      </g>
     </g>
    </g>
    <g id="xtick_7">
     <g id="line2d_7">
      <g>
       <use style="stroke:#000000;stroke-width:0.8;" x="304.936024" xlink:href="#m80733e10df" y="159.744"/>
      </g>
     </g>
     <g id="text_7">
      <!-- 150 -->
      <g transform="translate(295.392274 174.342437)scale(0.1 -0.1)">
       <use xlink:href="#DejaVuSans-31"/>
       <use x="63.623047" xlink:href="#DejaVuSans-35"/>
       <use x="127.246094" xlink:href="#DejaVuSans-30"/>
      </g>
     </g>
    </g>
    <g id="xtick_8">
     <g id="line2d_8">
      <g>
       <use style="stroke:#000000;stroke-width:0.8;" x="346.228065" xlink:href="#m80733e10df" y="159.744"/>
      </g>
     </g>
     <g id="text_8">
      <!-- 175 -->
      <g transform="translate(336.684315 174.342437)scale(0.1 -0.1)">
       <use xlink:href="#DejaVuSans-31"/>
       <use x="63.623047" xlink:href="#DejaVuSans-37"/>
       <use x="127.246094" xlink:href="#DejaVuSans-35"/>
      </g>
     </g>
    </g>
    <g id="xtick_9">
     <g id="line2d_9">
      <g>
       <use style="stroke:#000000;stroke-width:0.8;" x="387.520107" xlink:href="#m80733e10df" y="159.744"/>
      </g>
     </g>
     <g id="text_9">
      <!-- 200 -->
      <g transform="translate(377.976357 174.342437)scale(0.1 -0.1)">
       <use xlink:href="#DejaVuSans-32"/>
       <use x="63.623047" xlink:href="#DejaVuSans-30"/>
       <use x="127.246094" xlink:href="#DejaVuSans-30"/>
      </g>
     </g>
    </g>
   </g>
   <g id="matplotlib.axis_2">
    <g id="ytick_1">
     <g id="line2d_10">
      <defs>
       <path d="M 0 0 
L -3.5 0 
" id="me72659c329" style="stroke:#000000;stroke-width:0.8;"/>
      </defs>
      <g>
       <use style="stroke:#000000;stroke-width:0.8;" x="57.6" xlink:href="#me72659c329" y="134.449545"/>
      </g>
     </g>
     <g id="text_10">
      <!-- −2 -->
      <defs>
       <path d="M 10.59375 35.5 
L 73.1875 35.5 
L 73.1875 27.203125 
L 10.59375 27.203125 
z
" id="DejaVuSans-2212"/>
      </defs>
      <g transform="translate(35.857813 138.248764)scale(0.1 -0.1)">
       <use xlink:href="#DejaVuSans-2212"/>
       <use x="83.789062" xlink:href="#DejaVuSans-32"/>
      </g>
     </g>
    </g>
    <g id="ytick_2">
     <g id="line2d_11">
      <g>
       <use style="stroke:#000000;stroke-width:0.8;" x="57.6" xlink:href="#me72659c329" y="101.713182"/>
      </g>
     </g>
     <g id="text_11">
      <!-- 0 -->
      <g transform="translate(44.2375 105.512401)scale(0.1 -0.1)">
       <use xlink:href="#DejaVuSans-30"/>
      </g>
     </g>
    </g>
    <g id="ytick_3">
     <g id="line2d_12">
      <g>
       <use style="stroke:#000000;stroke-width:0.8;" x="57.6" xlink:href="#me72659c329" y="68.976819"/>
      </g>
     </g>
     <g id="text_12">
      <!-- 2 -->
      <g transform="translate(44.2375 72.776038)scale(0.1 -0.1)">
       <use xlink:href="#DejaVuSans-32"/>
      </g>
     </g>
    </g>
   </g>
   <g id="line2d_13">
    <path clip-path="url(#p53e1084da2)" d="M 73.832727 101.453291 
L 78.58957 98.861282 
L 85.724835 98.87393 
L 92.8601 99.633603 
L 99.995365 105.381157 
L 107.130629 107.959146 
L 114.265894 113.970251 
L 121.401159 66.471776 
L 128.536424 104.20785 
L 135.671688 95.824642 
L 142.806953 101.205891 
L 149.942218 104.189471 
L 157.077483 102.181355 
L 164.212747 80.533374 
L 171.348012 93.1275 
L 178.483277 108.026352 
L 185.618541 97.902566 
L 192.753806 104.951057 
L 199.889071 88.729327 
L 207.024336 100.54957 
L 214.1596 82.444515 
L 221.294865 87.645934 
L 228.43013 154.368 
L 235.565395 46.848 
L 242.700659 110.743464 
L 249.835924 63.178828 
L 256.971189 110.714842 
L 264.106454 103.328784 
L 271.241718 93.866295 
L 278.376983 125.288085 
L 285.512248 83.627462 
L 292.647512 60.145807 
L 299.782777 56.584904 
L 306.918042 128.40323 
L 314.053307 142.359229 
L 321.188571 98.083066 
L 328.323836 60.899339 
L 335.459101 62.736487 
L 342.594366 121.927365 
L 349.72963 150.42737 
L 356.864895 125.316305 
L 364.00016 57.361153 
L 371.135425 76.145204 
L 378.270689 68.663222 
L 385.405954 136.747213 
L 392.541219 128.353688 
L 398.487273 76.768092 
L 398.487273 76.768092 
" style="fill:none;stroke:#7e1e9c;stroke-linecap:square;stroke-width:2;"/>
   </g>
   <g id="patch_3">
    <path d="M 57.6 159.744 
L 57.6 41.472 
" style="fill:none;stroke:#000000;stroke-linecap:square;stroke-linejoin:miter;stroke-width:0.8;"/>
   </g>
   <g id="patch_4">
    <path d="M 414.72 159.744 
L 414.72 41.472 
" style="fill:none;stroke:#000000;stroke-linecap:square;stroke-linejoin:miter;stroke-width:0.8;"/>
   </g>
   <g id="patch_5">
    <path d="M 57.6 159.744 
L 414.72 159.744 
" style="fill:none;stroke:#000000;stroke-linecap:square;stroke-linejoin:miter;stroke-width:0.8;"/>
   </g>
   <g id="patch_6">
    <path d="M 57.6 41.472 
L 414.72 41.472 
" style="fill:none;stroke:#000000;stroke-linecap:square;stroke-linejoin:miter;stroke-width:0.8;"/>
   </g>
  </g>
  <g id="axes_2">
   <g id="patch_7">
    <path d="M 57.6 307.584 
L 414.72 307.584 
L 414.72 189.312 
L 57.6 189.312 
z
" style="fill:#ffffff;"/>
   </g>
   <g id="matplotlib.axis_3">
    <g id="xtick_10">
     <g id="line2d_14">
      <g>
       <use style="stroke:#000000;stroke-width:0.8;" x="57.183776" xlink:href="#m80733e10df" y="307.584"/>
      </g>
     </g>
     <g id="text_13">
      <!-- 0 -->
      <g transform="translate(54.002526 322.182437)scale(0.1 -0.1)">
       <use xlink:href="#DejaVuSans-30"/>
      </g>
     </g>
    </g>
    <g id="xtick_11">
     <g id="line2d_15">
      <g>
       <use style="stroke:#000000;stroke-width:0.8;" x="98.475818" xlink:href="#m80733e10df" y="307.584"/>
      </g>
     </g>
     <g id="text_14">
      <!-- 25 -->
      <g transform="translate(92.113318 322.182437)scale(0.1 -0.1)">
       <use xlink:href="#DejaVuSans-32"/>
       <use x="63.623047" xlink:href="#DejaVuSans-35"/>
      </g>
     </g>
    </g>
    <g id="xtick_12">
     <g id="line2d_16">
      <g>
       <use style="stroke:#000000;stroke-width:0.8;" x="139.767859" xlink:href="#m80733e10df" y="307.584"/>
      </g>
     </g>
     <g id="text_15">
      <!-- 50 -->
      <g transform="translate(133.405359 322.182437)scale(0.1 -0.1)">
       <use xlink:href="#DejaVuSans-35"/>
       <use x="63.623047" xlink:href="#DejaVuSans-30"/>
      </g>
     </g>
    </g>
    <g id="xtick_13">
     <g id="line2d_17">
      <g>
       <use style="stroke:#000000;stroke-width:0.8;" x="181.0599" xlink:href="#m80733e10df" y="307.584"/>
      </g>
     </g>
     <g id="text_16">
      <!-- 75 -->
      <g transform="translate(174.6974 322.182437)scale(0.1 -0.1)">
       <use xlink:href="#DejaVuSans-37"/>
       <use x="63.623047" xlink:href="#DejaVuSans-35"/>
      </g>
     </g>
    </g>
    <g id="xtick_14">
     <g id="line2d_18">
      <g>
       <use style="stroke:#000000;stroke-width:0.8;" x="222.351941" xlink:href="#m80733e10df" y="307.584"/>
      </g>
     </g>
     <g id="text_17">
      <!-- 100 -->
      <g transform="translate(212.808191 322.182437)scale(0.1 -0.1)">
       <use xlink:href="#DejaVuSans-31"/>
       <use x="63.623047" xlink:href="#DejaVuSans-30"/>
       <use x="127.246094" xlink:href="#DejaVuSans-30"/>
      </g>
     </g>
    </g>
    <g id="xtick_15">
     <g id="line2d_19">
      <g>
       <use style="stroke:#000000;stroke-width:0.8;" x="263.643983" xlink:href="#m80733e10df" y="307.584"/>
      </g>
     </g>
     <g id="text_18">
      <!-- 125 -->
      <g transform="translate(254.100233 322.182437)scale(0.1 -0.1)">
       <use xlink:href="#DejaVuSans-31"/>
       <use x="63.623047" xlink:href="#DejaVuSans-32"/>
       <use x="127.246094" xlink:href="#DejaVuSans-35"/>
      </g>
     </g>
    </g>
    <g id="xtick_16">
     <g id="line2d_20">
      <g>
       <use style="stroke:#000000;stroke-width:0.8;" x="304.936024" xlink:href="#m80733e10df" y="307.584"/>
      </g>
     </g>
     <g id="text_19">
      <!-- 150 -->
      <g transform="translate(295.392274 322.182437)scale(0.1 -0.1)">
       <use xlink:href="#DejaVuSans-31"/>
       <use x="63.623047" xlink:href="#DejaVuSans-35"/>
       <use x="127.246094" xlink:href="#DejaVuSans-30"/>
      </g>
     </g>
    </g>
    <g id="xtick_17">
     <g id="line2d_21">
      <g>
       <use style="stroke:#000000;stroke-width:0.8;" x="346.228065" xlink:href="#m80733e10df" y="307.584"/>
      </g>
     </g>
     <g id="text_20">
      <!-- 175 -->
      <g transform="translate(336.684315 322.182437)scale(0.1 -0.1)">
       <use xlink:href="#DejaVuSans-31"/>
       <use x="63.623047" xlink:href="#DejaVuSans-37"/>
       <use x="127.246094" xlink:href="#DejaVuSans-35"/>
      </g>
     </g>
    </g>
    <g id="xtick_18">
     <g id="line2d_22">
      <g>
       <use style="stroke:#000000;stroke-width:0.8;" x="387.520107" xlink:href="#m80733e10df" y="307.584"/>
      </g>
     </g>
     <g id="text_21">
      <!-- 200 -->
      <g transform="translate(377.976357 322.182437)scale(0.1 -0.1)">
       <use xlink:href="#DejaVuSans-32"/>
       <use x="63.623047" xlink:href="#DejaVuSans-30"/>
       <use x="127.246094" xlink:href="#DejaVuSans-30"/>
      </g>
     </g>
    </g>
    <g id="text_22">
     <!-- Time (Sec) -->
     <defs>
      <path d="M -0.296875 72.90625 
L 61.375 72.90625 
L 61.375 64.59375 
L 35.5 64.59375 
L 35.5 0 
L 25.59375 0 
L 25.59375 64.59375 
L -0.296875 64.59375 
z
" id="DejaVuSans-54"/>
      <path d="M 9.421875 54.6875 
L 18.40625 54.6875 
L 18.40625 0 
L 9.421875 0 
z
M 9.421875 75.984375 
L 18.40625 75.984375 
L 18.40625 64.59375 
L 9.421875 64.59375 
z
" id="DejaVuSans-69"/>
      <path d="M 52 44.1875 
Q 55.375 50.25 60.0625 53.125 
Q 64.75 56 71.09375 56 
Q 79.640625 56 84.28125 50.015625 
Q 88.921875 44.046875 88.921875 33.015625 
L 88.921875 0 
L 79.890625 0 
L 79.890625 32.71875 
Q 79.890625 40.578125 77.09375 44.375 
Q 74.3125 48.1875 68.609375 48.1875 
Q 61.625 48.1875 57.5625 43.546875 
Q 53.515625 38.921875 53.515625 30.90625 
L 53.515625 0 
L 44.484375 0 
L 44.484375 32.71875 
Q 44.484375 40.625 41.703125 44.40625 
Q 38.921875 48.1875 33.109375 48.1875 
Q 26.21875 48.1875 22.15625 43.53125 
Q 18.109375 38.875 18.109375 30.90625 
L 18.109375 0 
L 9.078125 0 
L 9.078125 54.6875 
L 18.109375 54.6875 
L 18.109375 46.1875 
Q 21.1875 51.21875 25.484375 53.609375 
Q 29.78125 56 35.6875 56 
Q 41.65625 56 45.828125 52.96875 
Q 50 49.953125 52 44.1875 
z
" id="DejaVuSans-6d"/>
      <path d="M 56.203125 29.59375 
L 56.203125 25.203125 
L 14.890625 25.203125 
Q 15.484375 15.921875 20.484375 11.0625 
Q 25.484375 6.203125 34.421875 6.203125 
Q 39.59375 6.203125 44.453125 7.46875 
Q 49.3125 8.734375 54.109375 11.28125 
L 54.109375 2.78125 
Q 49.265625 0.734375 44.1875 -0.34375 
Q 39.109375 -1.421875 33.890625 -1.421875 
Q 20.796875 -1.421875 13.15625 6.1875 
Q 5.515625 13.8125 5.515625 26.8125 
Q 5.515625 40.234375 12.765625 48.109375 
Q 20.015625 56 32.328125 56 
Q 43.359375 56 49.78125 48.890625 
Q 56.203125 41.796875 56.203125 29.59375 
z
M 47.21875 32.234375 
Q 47.125 39.59375 43.09375 43.984375 
Q 39.0625 48.390625 32.421875 48.390625 
Q 24.90625 48.390625 20.390625 44.140625 
Q 15.875 39.890625 15.1875 32.171875 
z
" id="DejaVuSans-65"/>
      <path id="DejaVuSans-20"/>
      <path d="M 31 75.875 
Q 24.46875 64.65625 21.28125 53.65625 
Q 18.109375 42.671875 18.109375 31.390625 
Q 18.109375 20.125 21.3125 9.0625 
Q 24.515625 -2 31 -13.1875 
L 23.1875 -13.1875 
Q 15.875 -1.703125 12.234375 9.375 
Q 8.59375 20.453125 8.59375 31.390625 
Q 8.59375 42.28125 12.203125 53.3125 
Q 15.828125 64.359375 23.1875 75.875 
z
" id="DejaVuSans-28"/>
      <path d="M 53.515625 70.515625 
L 53.515625 60.890625 
Q 47.90625 63.578125 42.921875 64.890625 
Q 37.9375 66.21875 33.296875 66.21875 
Q 25.25 66.21875 20.875 63.09375 
Q 16.5 59.96875 16.5 54.203125 
Q 16.5 49.359375 19.40625 46.890625 
Q 22.3125 44.4375 30.421875 42.921875 
L 36.375 41.703125 
Q 47.40625 39.59375 52.65625 34.296875 
Q 57.90625 29 57.90625 20.125 
Q 57.90625 9.515625 50.796875 4.046875 
Q 43.703125 -1.421875 29.984375 -1.421875 
Q 24.8125 -1.421875 18.96875 -0.25 
Q 13.140625 0.921875 6.890625 3.21875 
L 6.890625 13.375 
Q 12.890625 10.015625 18.65625 8.296875 
Q 24.421875 6.59375 29.984375 6.59375 
Q 38.421875 6.59375 43.015625 9.90625 
Q 47.609375 13.234375 47.609375 19.390625 
Q 47.609375 24.75 44.3125 27.78125 
Q 41.015625 30.8125 33.5 32.328125 
L 27.484375 33.5 
Q 16.453125 35.6875 11.515625 40.375 
Q 6.59375 45.0625 6.59375 53.421875 
Q 6.59375 63.09375 13.40625 68.65625 
Q 20.21875 74.21875 32.171875 74.21875 
Q 37.3125 74.21875 42.625 73.28125 
Q 47.953125 72.359375 53.515625 70.515625 
z
" id="DejaVuSans-53"/>
      <path d="M 48.78125 52.59375 
L 48.78125 44.1875 
Q 44.96875 46.296875 41.140625 47.34375 
Q 37.3125 48.390625 33.40625 48.390625 
Q 24.65625 48.390625 19.8125 42.84375 
Q 14.984375 37.3125 14.984375 27.296875 
Q 14.984375 17.28125 19.8125 11.734375 
Q 24.65625 6.203125 33.40625 6.203125 
Q 37.3125 6.203125 41.140625 7.25 
Q 44.96875 8.296875 48.78125 10.40625 
L 48.78125 2.09375 
Q 45.015625 0.34375 40.984375 -0.53125 
Q 36.96875 -1.421875 32.421875 -1.421875 
Q 20.0625 -1.421875 12.78125 6.34375 
Q 5.515625 14.109375 5.515625 27.296875 
Q 5.515625 40.671875 12.859375 48.328125 
Q 20.21875 56 33.015625 56 
Q 37.15625 56 41.109375 55.140625 
Q 45.0625 54.296875 48.78125 52.59375 
z
" id="DejaVuSans-63"/>
      <path d="M 8.015625 75.875 
L 15.828125 75.875 
Q 23.140625 64.359375 26.78125 53.3125 
Q 30.421875 42.28125 30.421875 31.390625 
Q 30.421875 20.453125 26.78125 9.375 
Q 23.140625 -1.703125 15.828125 -13.1875 
L 8.015625 -13.1875 
Q 14.5 -2 17.703125 9.0625 
Q 20.90625 20.125 20.90625 31.390625 
Q 20.90625 42.671875 17.703125 53.65625 
Q 14.5 64.65625 8.015625 75.875 
z
" id="DejaVuSans-29"/>
     </defs>
     <g transform="translate(209.281875 335.860562)scale(0.1 -0.1)">
      <use xlink:href="#DejaVuSans-54"/>
      <use x="61.037109" xlink:href="#DejaVuSans-69"/>
      <use x="88.820312" xlink:href="#DejaVuSans-6d"/>
      <use x="186.232422" xlink:href="#DejaVuSans-65"/>
      <use x="247.755859" xlink:href="#DejaVuSans-20"/>
      <use x="279.542969" xlink:href="#DejaVuSans-28"/>
      <use x="318.556641" xlink:href="#DejaVuSans-53"/>
      <use x="382.033203" xlink:href="#DejaVuSans-65"/>
      <use x="443.556641" xlink:href="#DejaVuSans-63"/>
      <use x="498.537109" xlink:href="#DejaVuSans-29"/>
     </g>
    </g>
   </g>
   <g id="matplotlib.axis_4">
    <g id="ytick_4">
     <g id="line2d_23">
      <g>
       <use style="stroke:#000000;stroke-width:0.8;" x="57.6" xlink:href="#me72659c329" y="283.3496"/>
      </g>
     </g>
     <g id="text_23">
      <!-- −10 -->
      <g transform="translate(29.495313 287.148819)scale(0.1 -0.1)">
       <use xlink:href="#DejaVuSans-2212"/>
       <use x="83.789062" xlink:href="#DejaVuSans-31"/>
       <use x="147.412109" xlink:href="#DejaVuSans-30"/>
      </g>
     </g>
    </g>
    <g id="ytick_5">
     <g id="line2d_24">
      <g>
       <use style="stroke:#000000;stroke-width:0.8;" x="57.6" xlink:href="#me72659c329" y="256.055967"/>
      </g>
     </g>
     <g id="text_24">
      <!-- 0 -->
      <g transform="translate(44.2375 259.855186)scale(0.1 -0.1)">
       <use xlink:href="#DejaVuSans-30"/>
      </g>
     </g>
    </g>
    <g id="ytick_6">
     <g id="line2d_25">
      <g>
       <use style="stroke:#000000;stroke-width:0.8;" x="57.6" xlink:href="#me72659c329" y="228.762334"/>
      </g>
     </g>
     <g id="text_25">
      <!-- 10 -->
      <g transform="translate(37.875 232.561553)scale(0.1 -0.1)">
       <use xlink:href="#DejaVuSans-31"/>
       <use x="63.623047" xlink:href="#DejaVuSans-30"/>
      </g>
     </g>
    </g>
    <g id="ytick_7">
     <g id="line2d_26">
      <g>
       <use style="stroke:#000000;stroke-width:0.8;" x="57.6" xlink:href="#me72659c329" y="201.468701"/>
      </g>
     </g>
     <g id="text_26">
      <!-- 20 -->
      <g transform="translate(37.875 205.26792)scale(0.1 -0.1)">
       <use xlink:href="#DejaVuSans-32"/>
       <use x="63.623047" xlink:href="#DejaVuSans-30"/>
      </g>
     </g>
    </g>
   </g>
   <g id="line2d_27">
    <path clip-path="url(#p4f619fa97b)" d="M 73.832727 250.403836 
L 77.40036 255.250896 
L 78.58957 256.588791 
L 79.778781 257.594298 
L 80.967992 258.212215 
L 82.157203 258.441989 
L 83.346414 258.332601 
L 84.535624 257.968128 
L 90.481678 255.367415 
L 92.8601 254.847856 
L 95.238521 254.693848 
L 97.616943 254.803475 
L 99.995365 255.183832 
L 102.373786 255.922054 
L 104.752208 256.99143 
L 108.31984 258.723591 
L 110.698262 259.621071 
L 117.833526 261.650479 
L 119.022737 261.904984 
L 120.211948 261.795043 
L 121.401159 261.030876 
L 122.59037 259.375025 
L 123.77958 256.713993 
L 124.968791 253.123298 
L 127.347213 244.743322 
L 128.536424 241.202501 
L 129.725634 238.893228 
L 130.914845 238.167163 
L 132.104056 239.08997 
L 133.293267 241.424987 
L 134.482478 244.693156 
L 136.860899 251.721402 
L 138.05011 254.527692 
L 139.239321 256.50797 
L 140.428531 257.63449 
L 141.617742 258.033777 
L 142.806953 257.920922 
L 147.563796 256.441488 
L 148.753007 256.381846 
L 149.942218 256.481269 
L 152.320639 256.996843 
L 155.888272 257.918649 
L 158.266693 258.183897 
L 159.455904 258.144673 
L 160.645115 257.980918 
L 161.834326 257.66223 
L 163.023536 257.124809 
L 164.212747 256.291224 
L 165.401958 255.101673 
L 166.591169 253.537639 
L 168.96959 249.569492 
L 170.158801 247.539424 
L 171.348012 245.819282 
L 172.537223 244.631798 
L 173.726434 244.110249 
L 174.915644 244.286719 
L 176.104855 245.109716 
L 177.294066 246.473782 
L 178.483277 248.247735 
L 180.861698 252.495839 
L 183.24012 256.846425 
L 184.429331 258.694722 
L 185.618541 260.109006 
L 186.807752 260.97087 
L 187.996963 261.231271 
L 189.186174 260.923009 
L 190.375385 260.165258 
L 193.943017 257.143013 
L 195.132228 256.480215 
L 196.321439 256.137403 
L 197.510649 256.065179 
L 199.889071 256.132189 
L 201.078282 255.921052 
L 202.267493 255.378441 
L 203.456703 254.477714 
L 207.024336 250.905628 
L 208.213546 250.115356 
L 209.402757 249.797998 
L 210.591968 249.982356 
L 211.781179 250.569257 
L 214.1596 252.052247 
L 215.348811 252.448238 
L 216.538022 252.374533 
L 217.727233 251.779629 
L 218.916444 250.736985 
L 222.484076 246.9072 
L 223.673287 246.070481 
L 224.862498 245.686904 
L 226.051708 245.91162 
L 227.240919 246.970611 
L 228.43013 249.106559 
L 229.619341 252.490177 
L 230.808551 257.150474 
L 234.376184 274.51858 
L 235.565395 278.219206 
L 236.754605 279.115355 
L 237.943816 276.658566 
L 239.133027 270.899888 
L 240.322238 262.605164 
L 242.700659 244.173359 
L 243.88987 237.111142 
L 245.079081 232.934886 
L 246.268292 231.975369 
L 247.457502 233.864864 
L 248.646713 237.655382 
L 249.835924 242.121412 
L 251.025135 246.099126 
L 252.214346 248.72956 
L 253.403556 249.605272 
L 254.592767 248.852477 
L 255.781978 247.064982 
L 256.971189 245.076548 
L 258.1604 243.693382 
L 259.34961 243.500415 
L 260.538821 244.755034 
L 261.728032 247.344281 
L 264.106454 254.662341 
L 265.295664 258.235091 
L 266.484875 261.128458 
L 267.674086 263.09942 
L 268.863297 264.082665 
L 270.052507 264.147637 
L 271.241718 263.447747 
L 272.430929 262.174611 
L 274.809351 258.700337 
L 275.998561 256.939847 
L 277.187772 255.526583 
L 278.376983 254.738777 
L 279.566194 254.783567 
L 280.755405 255.750616 
L 281.944615 257.56586 
L 284.323037 262.354907 
L 285.512248 264.255478 
L 286.701459 265.143159 
L 287.890669 264.716271 
L 289.07988 262.903907 
L 290.269091 259.855473 
L 291.458302 255.88393 
L 296.215145 238.015155 
L 297.404356 234.354501 
L 298.593566 231.311923 
L 299.782777 228.956094 
L 300.971988 227.303154 
L 302.161199 226.316867 
L 303.35041 225.960222 
L 304.53962 226.297595 
L 305.728831 227.533344 
L 306.918042 229.935015 
L 308.107253 233.71199 
L 309.296464 238.927121 
L 310.485674 245.443699 
L 315.242517 275.027874 
L 316.431728 280.621535 
L 317.620939 284.858405 
L 318.81015 287.630373 
L 319.999361 288.844032 
L 321.188571 288.433366 
L 322.377782 286.410795 
L 323.566993 282.900447 
L 324.756204 278.136364 
L 325.945415 272.435426 
L 331.891469 241.242003 
L 333.080679 236.086617 
L 334.26989 231.700746 
L 335.459101 228.251313 
L 336.648312 225.843584 
L 337.837522 224.491023 
L 339.026733 224.146709 
L 340.215944 224.791116 
L 341.405155 226.480214 
L 342.594366 229.30679 
L 343.783576 233.324173 
L 344.972787 238.490488 
L 346.161998 244.641313 
L 350.918841 272.131318 
L 352.108052 277.921596 
L 353.297263 282.837393 
L 354.486474 286.753532 
L 355.675684 289.520315 
L 356.864895 290.994441 
L 358.054106 291.102563 
L 359.243317 289.880648 
L 360.432527 287.450558 
L 361.621738 283.941739 
L 362.810949 279.437551 
L 364.00016 273.987766 
L 365.189371 267.653852 
L 367.567792 252.888846 
L 369.946214 237.715758 
L 371.135425 231.430708 
L 372.324635 226.747315 
L 373.513846 223.951786 
L 374.703057 223.05496 
L 375.892268 223.805236 
L 377.081479 225.757587 
L 380.649111 233.79178 
L 381.838322 235.983416 
L 384.216743 239.654928 
L 385.405954 241.907134 
L 386.595165 245.002388 
L 387.784376 249.1977 
L 388.973586 254.508678 
L 392.541219 273.055131 
L 393.73043 278.058928 
L 394.91964 281.666552 
L 396.108851 283.691872 
L 397.298062 284.071364 
L 398.487273 282.786473 
L 398.487273 282.786473 
" style="fill:none;stroke:#7e1e9c;stroke-linecap:square;stroke-width:2;"/>
   </g>
   <g id="line2d_28">
    <path clip-path="url(#p4f619fa97b)" d="M 73.832727 232.252704 
L 75.021938 261.7605 
L 76.211149 259.990051 
L 77.40036 246.123093 
L 78.58957 251.972311 
L 79.778781 254.446753 
L 80.967992 254.666463 
L 82.157203 266.899887 
L 83.346414 265.20354 
L 84.535624 264.735317 
L 85.724835 247.222582 
L 86.914046 256.598602 
L 88.103257 262.496644 
L 89.292468 262.110986 
L 90.481678 251.142146 
L 91.670889 241.413832 
L 92.8601 253.510032 
L 94.049311 245.374932 
L 95.238521 262.824145 
L 96.427732 269.311173 
L 97.616943 249.195443 
L 98.806154 263.820086 
L 99.995365 244.914049 
L 101.184575 271.033992 
L 102.373786 236.193139 
L 103.562997 249.690171 
L 104.752208 280.894289 
L 105.941419 245.382818 
L 107.130629 257.603562 
L 108.31984 248.255171 
L 109.509051 266.97708 
L 110.698262 263.97681 
L 111.887473 260.370924 
L 113.076683 276.808579 
L 114.265894 246.079002 
L 115.455105 246.769705 
L 116.644316 258.517764 
L 117.833526 264.517645 
L 119.022737 290.329143 
L 120.211948 254.270813 
L 121.401159 260.352825 
L 122.59037 243.804933 
L 123.77958 248.575562 
L 124.968791 263.685444 
L 126.158002 246.326215 
L 127.347213 250.923158 
L 128.536424 260.060894 
L 129.725634 221.844442 
L 130.914845 242.77035 
L 132.104056 222.565851 
L 133.293267 254.887413 
L 134.482478 237.184607 
L 135.671688 246.066572 
L 136.860899 253.747785 
L 138.05011 268.185407 
L 139.239321 252.348138 
L 140.428531 255.311213 
L 141.617742 244.084608 
L 142.806953 267.706376 
L 143.996164 266.367721 
L 145.185375 257.773924 
L 146.374585 247.479226 
L 147.563796 244.335159 
L 148.753007 253.27196 
L 149.942218 280.564555 
L 151.131429 256.178073 
L 152.320639 266.70374 
L 153.50985 246.472896 
L 154.699061 247.386829 
L 155.888272 256.305865 
L 157.077483 261.798105 
L 158.266693 253.542598 
L 159.455904 260.022755 
L 160.645115 251.387857 
L 161.834326 276.400111 
L 163.023536 252.300027 
L 164.212747 257.036428 
L 165.401958 265.703732 
L 166.591169 245.507059 
L 167.78038 245.385988 
L 168.96959 240.581486 
L 170.158801 248.733943 
L 171.348012 246.849736 
L 172.537223 243.620877 
L 173.726434 274.711924 
L 174.915644 238.133151 
L 176.104855 217.216108 
L 177.294066 253.595112 
L 178.483277 247.080561 
L 179.672488 255.3923 
L 180.861698 257.444967 
L 182.050909 242.949519 
L 183.24012 268.848861 
L 184.429331 256.796599 
L 185.618541 248.211541 
L 186.807752 274.355168 
L 187.996963 265.338326 
L 189.186174 260.618193 
L 190.375385 250.991706 
L 191.564595 252.565014 
L 192.753806 265.213653 
L 195.132228 251.415453 
L 196.321439 255.480506 
L 197.510649 263.848486 
L 198.69986 247.435889 
L 199.889071 271.941776 
L 201.078282 255.168178 
L 202.267493 251.877311 
L 203.456703 245.831407 
L 204.645914 254.395142 
L 205.835125 242.707841 
L 207.024336 252.46866 
L 208.213546 266.247043 
L 209.402757 253.018582 
L 210.591968 250.594104 
L 211.781179 237.115885 
L 212.97039 249.89197 
L 214.1596 263.939169 
L 215.348811 237.200654 
L 216.538022 249.512899 
L 217.727233 271.034817 
L 218.916444 232.83702 
L 220.105654 257.080846 
L 221.294865 254.281004 
L 222.484076 259.32262 
L 223.673287 237.246197 
L 224.862498 230.731229 
L 226.051708 242.718269 
L 227.240919 271.058735 
L 228.43013 233.749937 
L 230.808551 253.525294 
L 231.997762 280.734396 
L 233.186973 278.0779 
L 234.376184 258.599094 
L 235.565395 284.334457 
L 236.754605 269.582356 
L 237.943816 299.159031 
L 239.133027 254.951719 
L 240.322238 255.655926 
L 241.511449 246.642238 
L 242.700659 255.373471 
L 243.88987 249.885175 
L 245.079081 229.227016 
L 246.268292 232.497952 
L 247.457502 226.416096 
L 248.646713 218.694957 
L 249.835924 261.59737 
L 251.025135 233.610101 
L 252.214346 271.403291 
L 253.403556 259.13064 
L 254.592767 228.675677 
L 255.781978 254.757046 
L 256.971189 215.72637 
L 258.1604 252.936246 
L 259.34961 257.807661 
L 260.538821 251.549207 
L 261.728032 247.379998 
L 262.917243 234.633449 
L 264.106454 257.434485 
L 265.295664 267.347414 
L 266.484875 261.753176 
L 267.674086 263.959587 
L 268.863297 257.189149 
L 270.052507 265.028544 
L 271.241718 254.338116 
L 272.430929 271.030993 
L 273.62014 259.50466 
L 274.809351 257.719511 
L 275.998561 269.400402 
L 277.187772 235.194508 
L 278.376983 277.339659 
L 279.566194 244.074279 
L 280.755405 248.453201 
L 281.944615 258.797107 
L 283.133826 264.745407 
L 284.323037 266.968741 
L 285.512248 256.123767 
L 286.701459 267.29531 
L 287.890669 273.545405 
L 289.07988 254.197283 
L 290.269091 255.846382 
L 291.458302 264.787153 
L 292.647512 235.167752 
L 293.836723 264.11572 
L 295.025934 238.832286 
L 296.215145 239.290325 
L 297.404356 229.928604 
L 298.593566 244.626756 
L 299.782777 216.209312 
L 300.971988 218.464658 
L 302.161199 228.40505 
L 303.35041 220.661899 
L 304.53962 245.600155 
L 305.728831 245.281598 
L 306.918042 194.688 
L 308.107253 238.696695 
L 309.296464 236.688154 
L 310.485674 275.467282 
L 311.674885 237.679342 
L 312.864096 254.651851 
L 314.053307 256.947254 
L 315.242517 279.888763 
L 316.431728 284.378162 
L 317.620939 280.475789 
L 318.81015 285.155019 
L 319.999361 302.208 
L 321.188571 297.075693 
L 322.377782 282.862464 
L 323.566993 280.882182 
L 324.756204 268.626663 
L 325.945415 270.690284 
L 327.134625 262.402738 
L 328.323836 268.334559 
L 329.513047 242.138601 
L 330.702258 254.480228 
L 331.891469 256.905531 
L 333.080679 217.744827 
L 334.26989 235.622997 
L 335.459101 237.149649 
L 336.648312 210.34415 
L 337.837522 243.91328 
L 339.026733 214.684964 
L 340.215944 210.696363 
L 341.405155 231.748571 
L 342.594366 236.274666 
L 343.783576 234.615433 
L 344.972787 239.818078 
L 346.161998 251.450778 
L 347.351209 247.465162 
L 348.54042 258.76068 
L 349.72963 257.693376 
L 350.918841 264.588134 
L 352.108052 268.44056 
L 353.297263 296.802464 
L 354.486474 289.172533 
L 355.675684 300.926945 
L 356.864895 294.745401 
L 358.054106 281.58083 
L 359.243317 284.66211 
L 360.432527 298.654253 
L 361.621738 287.212069 
L 362.810949 273.333331 
L 364.00016 255.28982 
L 365.189371 260.340217 
L 366.378581 277.706871 
L 367.567792 235.936414 
L 368.757003 262.023433 
L 369.946214 255.943707 
L 371.135425 228.836025 
L 372.324635 224.440902 
L 373.513846 223.590163 
L 374.703057 209.087638 
L 375.892268 236.065304 
L 377.081479 205.385337 
L 378.270689 225.534226 
L 379.4599 240.08074 
L 380.649111 245.053178 
L 381.838322 224.736971 
L 383.027532 242.835466 
L 384.216743 240.416351 
L 385.405954 256.408043 
L 386.595165 234.945909 
L 387.784376 245.652999 
L 388.973586 252.867402 
L 390.162797 254.405025 
L 391.352008 271.957663 
L 392.541219 275.252358 
L 393.73043 278.888092 
L 394.91964 287.194175 
L 396.108851 268.144234 
L 397.298062 290.708624 
L 398.487273 292.757735 
L 398.487273 292.757735 
" style="fill:none;stroke:#0343df;stroke-linecap:square;stroke-width:2;"/>
   </g>
   <g id="patch_8">
    <path d="M 57.6 307.584 
L 57.6 189.312 
" style="fill:none;stroke:#000000;stroke-linecap:square;stroke-linejoin:miter;stroke-width:0.8;"/>
   </g>
   <g id="patch_9">
    <path d="M 414.72 307.584 
L 414.72 189.312 
" style="fill:none;stroke:#000000;stroke-linecap:square;stroke-linejoin:miter;stroke-width:0.8;"/>
   </g>
   <g id="patch_10">
    <path d="M 57.6 307.584 
L 414.72 307.584 
" style="fill:none;stroke:#000000;stroke-linecap:square;stroke-linejoin:miter;stroke-width:0.8;"/>
   </g>
   <g id="patch_11">
    <path d="M 57.6 189.312 
L 414.72 189.312 
" style="fill:none;stroke:#000000;stroke-linecap:square;stroke-linejoin:miter;stroke-width:0.8;"/>
   </g>
  </g>
 </g>
 <defs>
  <clipPath id="p53e1084da2">
   <rect height="118.272" width="357.12" x="57.6" y="41.472"/>
  </clipPath>
  <clipPath id="p4f619fa97b">
   <rect height="118.272" width="357.12" x="57.6" y="189.312"/>
  </clipPath>
 </defs>
</svg>
