<?xml version="1.0" encoding="utf-8" standalone="no"?>
<!DOCTYPE svg PUBLIC "-//W3C//DTD SVG 1.1//EN"
  "http://www.w3.org/Graphics/SVG/1.1/DTD/svg11.dtd">
<!-- Created with matplotlib (http://matplotlib.org/) -->
<svg height="345.6pt" version="1.1" viewBox="0 0 460.8 345.6" width="460.8pt" xmlns="http://www.w3.org/2000/svg" xmlns:xlink="http://www.w3.org/1999/xlink">
 <defs>
  <style type="text/css">
*{stroke-linecap:butt;stroke-linejoin:round;}
  </style>
 </defs>
 <g id="figure_1">
  <g id="patch_1">
   <path d="M 0 345.6 
L 460.8 345.6 
L 460.8 0 
L 0 0 
z
" style="fill:#ffffff;"/>
  </g>
  <g id="axes_1">
   <g id="patch_2">
    <path d="M 57.6 159.744 
L 414.72 159.744 
L 414.72 41.472 
L 57.6 41.472 
z
" style="fill:#ffffff;"/>
   </g>
   <g id="matplotlib.axis_1">
    <g id="xtick_1">
     <g id="line2d_1">
      <defs>
       <path d="M 0 0 
L 0 3.5 
" id="m71e1350eca" style="stroke:#000000;stroke-width:0.8;"/>
      </defs>
      <g>
       <use style="stroke:#000000;stroke-width:0.8;" x="57.183776" xlink:href="#m71e1350eca" y="159.744"/>
      </g>
     </g>
     <g id="text_1">
      <!-- 0 -->
      <defs>
       <path d="M 31.78125 66.40625 
Q 24.171875 66.40625 20.328125 58.90625 
Q 16.5 51.421875 16.5 36.375 
Q 16.5 21.390625 20.328125 13.890625 
Q 24.171875 6.390625 31.78125 6.390625 
Q 39.453125 6.390625 43.28125 13.890625 
Q 47.125 21.390625 47.125 36.375 
Q 47.125 51.421875 43.28125 58.90625 
Q 39.453125 66.40625 31.78125 66.40625 
z
M 31.78125 74.21875 
Q 44.046875 74.21875 50.515625 64.515625 
Q 56.984375 54.828125 56.984375 36.375 
Q 56.984375 17.96875 50.515625 8.265625 
Q 44.046875 -1.421875 31.78125 -1.421875 
Q 19.53125 -1.421875 13.0625 8.265625 
Q 6.59375 17.96875 6.59375 36.375 
Q 6.59375 54.828125 13.0625 64.515625 
Q 19.53125 74.21875 31.78125 74.21875 
z
" id="DejaVuSans-30"/>
      </defs>
      <g transform="translate(54.002526 174.342437)scale(0.1 -0.1)">
       <use xlink:href="#DejaVuSans-30"/>
      </g>
     </g>
    </g>
    <g id="xtick_2">
     <g id="line2d_2">
      <g>
       <use style="stroke:#000000;stroke-width:0.8;" x="98.475818" xlink:href="#m71e1350eca" y="159.744"/>
      </g>
     </g>
     <g id="text_2">
      <!-- 25 -->
      <defs>
       <path d="M 19.1875 8.296875 
L 53.609375 8.296875 
L 53.609375 0 
L 7.328125 0 
L 7.328125 8.296875 
Q 12.9375 14.109375 22.625 23.890625 
Q 32.328125 33.6875 34.8125 36.53125 
Q 39.546875 41.84375 41.421875 45.53125 
Q 43.3125 49.21875 43.3125 52.78125 
Q 43.3125 58.59375 39.234375 62.25 
Q 35.15625 65.921875 28.609375 65.921875 
Q 23.96875 65.921875 18.8125 64.3125 
Q 13.671875 62.703125 7.8125 59.421875 
L 7.8125 69.390625 
Q 13.765625 71.78125 18.9375 73 
Q 24.125 74.21875 28.421875 74.21875 
Q 39.75 74.21875 46.484375 68.546875 
Q 53.21875 62.890625 53.21875 53.421875 
Q 53.21875 48.921875 51.53125 44.890625 
Q 49.859375 40.875 45.40625 35.40625 
Q 44.1875 33.984375 37.640625 27.21875 
Q 31.109375 20.453125 19.1875 8.296875 
z
" id="DejaVuSans-32"/>
       <path d="M 10.796875 72.90625 
L 49.515625 72.90625 
L 49.515625 64.59375 
L 19.828125 64.59375 
L 19.828125 46.734375 
Q 21.96875 47.46875 24.109375 47.828125 
Q 26.265625 48.1875 28.421875 48.1875 
Q 40.625 48.1875 47.75 41.5 
Q 54.890625 34.8125 54.890625 23.390625 
Q 54.890625 11.625 47.5625 5.09375 
Q 40.234375 -1.421875 26.90625 -1.421875 
Q 22.3125 -1.421875 17.546875 -0.640625 
Q 12.796875 0.140625 7.71875 1.703125 
L 7.71875 11.625 
Q 12.109375 9.234375 16.796875 8.0625 
Q 21.484375 6.890625 26.703125 6.890625 
Q 35.15625 6.890625 40.078125 11.328125 
Q 45.015625 15.765625 45.015625 23.390625 
Q 45.015625 31 40.078125 35.4375 
Q 35.15625 39.890625 26.703125 39.890625 
Q 22.75 39.890625 18.8125 39.015625 
Q 14.890625 38.140625 10.796875 36.28125 
z
" id="DejaVuSans-35"/>
      </defs>
      <g transform="translate(92.113318 174.342437)scale(0.1 -0.1)">
       <use xlink:href="#DejaVuSans-32"/>
       <use x="63.623047" xlink:href="#DejaVuSans-35"/>
      </g>
     </g>
    </g>
    <g id="xtick_3">
     <g id="line2d_3">
      <g>
       <use style="stroke:#000000;stroke-width:0.8;" x="139.767859" xlink:href="#m71e1350eca" y="159.744"/>
      </g>
     </g>
     <g id="text_3">
      <!-- 50 -->
      <g transform="translate(133.405359 174.342437)scale(0.1 -0.1)">
       <use xlink:href="#DejaVuSans-35"/>
       <use x="63.623047" xlink:href="#DejaVuSans-30"/>
      </g>
     </g>
    </g>
    <g id="xtick_4">
     <g id="line2d_4">
      <g>
       <use style="stroke:#000000;stroke-width:0.8;" x="181.0599" xlink:href="#m71e1350eca" y="159.744"/>
      </g>
     </g>
     <g id="text_4">
      <!-- 75 -->
      <defs>
       <path d="M 8.203125 72.90625 
L 55.078125 72.90625 
L 55.078125 68.703125 
L 28.609375 0 
L 18.3125 0 
L 43.21875 64.59375 
L 8.203125 64.59375 
z
" id="DejaVuSans-37"/>
      </defs>
      <g transform="translate(174.6974 174.342437)scale(0.1 -0.1)">
       <use xlink:href="#DejaVuSans-37"/>
       <use x="63.623047" xlink:href="#DejaVuSans-35"/>
      </g>
     </g>
    </g>
    <g id="xtick_5">
     <g id="line2d_5">
      <g>
       <use style="stroke:#000000;stroke-width:0.8;" x="222.351941" xlink:href="#m71e1350eca" y="159.744"/>
      </g>
     </g>
     <g id="text_5">
      <!-- 100 -->
      <defs>
       <path d="M 12.40625 8.296875 
L 28.515625 8.296875 
L 28.515625 63.921875 
L 10.984375 60.40625 
L 10.984375 69.390625 
L 28.421875 72.90625 
L 38.28125 72.90625 
L 38.28125 8.296875 
L 54.390625 8.296875 
L 54.390625 0 
L 12.40625 0 
z
" id="DejaVuSans-31"/>
      </defs>
      <g transform="translate(212.808191 174.342437)scale(0.1 -0.1)">
       <use xlink:href="#DejaVuSans-31"/>
       <use x="63.623047" xlink:href="#DejaVuSans-30"/>
       <use x="127.246094" xlink:href="#DejaVuSans-30"/>
      </g>
     </g>
    </g>
    <g id="xtick_6">
     <g id="line2d_6">
      <g>
       <use style="stroke:#000000;stroke-width:0.8;" x="263.643983" xlink:href="#m71e1350eca" y="159.744"/>
      </g>
     </g>
     <g id="text_6">
      <!-- 125 -->
      <g transform="translate(254.100233 174.342437)scale(0.1 -0.1)">
       <use xlink:href="#DejaVuSans-31"/>
       <use x="63.623047" xlink:href="#DejaVuSans-32"/>
       <use x="127.246094" xlink:href="#DejaVuSans-35"/>
      </g>
     </g>
    </g>
    <g id="xtick_7">
     <g id="line2d_7">
      <g>
       <use style="stroke:#000000;stroke-width:0.8;" x="304.936024" xlink:href="#m71e1350eca" y="159.744"/>
      </g>
     </g>
     <g id="text_7">
      <!-- 150 -->
      <g transform="translate(295.392274 174.342437)scale(0.1 -0.1)">
       <use xlink:href="#DejaVuSans-31"/>
       <use x="63.623047" xlink:href="#DejaVuSans-35"/>
       <use x="127.246094" xlink:href="#DejaVuSans-30"/>
      </g>
     </g>
    </g>
    <g id="xtick_8">
     <g id="line2d_8">
      <g>
       <use style="stroke:#000000;stroke-width:0.8;" x="346.228065" xlink:href="#m71e1350eca" y="159.744"/>
      </g>
     </g>
     <g id="text_8">
      <!-- 175 -->
      <g transform="translate(336.684315 174.342437)scale(0.1 -0.1)">
       <use xlink:href="#DejaVuSans-31"/>
       <use x="63.623047" xlink:href="#DejaVuSans-37"/>
       <use x="127.246094" xlink:href="#DejaVuSans-35"/>
      </g>
     </g>
    </g>
    <g id="xtick_9">
     <g id="line2d_9">
      <g>
       <use style="stroke:#000000;stroke-width:0.8;" x="387.520107" xlink:href="#m71e1350eca" y="159.744"/>
      </g>
     </g>
     <g id="text_9">
      <!-- 200 -->
      <g transform="translate(377.976357 174.342437)scale(0.1 -0.1)">
       <use xlink:href="#DejaVuSans-32"/>
       <use x="63.623047" xlink:href="#DejaVuSans-30"/>
       <use x="127.246094" xlink:href="#DejaVuSans-30"/>
      </g>
     </g>
    </g>
   </g>
   <g id="matplotlib.axis_2">
    <g id="ytick_1">
     <g id="line2d_10">
      <defs>
       <path d="M 0 0 
L -3.5 0 
" id="mab5c05b3c1" style="stroke:#000000;stroke-width:0.8;"/>
      </defs>
      <g>
       <use style="stroke:#000000;stroke-width:0.8;" x="57.6" xlink:href="#mab5c05b3c1" y="155.905795"/>
      </g>
     </g>
     <g id="text_10">
      <!-- −4 -->
      <defs>
       <path d="M 10.59375 35.5 
L 73.1875 35.5 
L 73.1875 27.203125 
L 10.59375 27.203125 
z
" id="DejaVuSans-2212"/>
       <path d="M 37.796875 64.3125 
L 12.890625 25.390625 
L 37.796875 25.390625 
z
M 35.203125 72.90625 
L 47.609375 72.90625 
L 47.609375 25.390625 
L 58.015625 25.390625 
L 58.015625 17.1875 
L 47.609375 17.1875 
L 47.609375 0 
L 37.796875 0 
L 37.796875 17.1875 
L 4.890625 17.1875 
L 4.890625 26.703125 
z
" id="DejaVuSans-34"/>
      </defs>
      <g transform="translate(35.857813 159.705014)scale(0.1 -0.1)">
       <use xlink:href="#DejaVuSans-2212"/>
       <use x="83.789062" xlink:href="#DejaVuSans-34"/>
      </g>
     </g>
    </g>
    <g id="ytick_2">
     <g id="line2d_11">
      <g>
       <use style="stroke:#000000;stroke-width:0.8;" x="57.6" xlink:href="#mab5c05b3c1" y="125.867725"/>
      </g>
     </g>
     <g id="text_11">
      <!-- −2 -->
      <g transform="translate(35.857813 129.666943)scale(0.1 -0.1)">
       <use xlink:href="#DejaVuSans-2212"/>
       <use x="83.789062" xlink:href="#DejaVuSans-32"/>
      </g>
     </g>
    </g>
    <g id="ytick_3">
     <g id="line2d_12">
      <g>
       <use style="stroke:#000000;stroke-width:0.8;" x="57.6" xlink:href="#mab5c05b3c1" y="95.829654"/>
      </g>
     </g>
     <g id="text_12">
      <!-- 0 -->
      <g transform="translate(44.2375 99.628873)scale(0.1 -0.1)">
       <use xlink:href="#DejaVuSans-30"/>
      </g>
     </g>
    </g>
    <g id="ytick_4">
     <g id="line2d_13">
      <g>
       <use style="stroke:#000000;stroke-width:0.8;" x="57.6" xlink:href="#mab5c05b3c1" y="65.791583"/>
      </g>
     </g>
     <g id="text_13">
      <!-- 2 -->
      <g transform="translate(44.2375 69.590802)scale(0.1 -0.1)">
       <use xlink:href="#DejaVuSans-32"/>
      </g>
     </g>
    </g>
   </g>
   <g id="line2d_14">
    <path clip-path="url(#pb4fce05084)" d="M 73.832727 95.175314 
L 78.58957 80.550294 
L 85.724835 101.512828 
L 92.8601 99.355722 
L 99.995365 109.634618 
L 107.130629 71.26369 
L 114.265894 107.808102 
L 121.401159 77.404306 
L 128.536424 101.295222 
L 135.671688 104.308215 
L 142.806953 100.743828 
L 149.942218 88.47379 
L 157.077483 92.535292 
L 164.212747 81.865373 
L 171.348012 89.82888 
L 178.483277 82.777996 
L 185.618541 109.806903 
L 192.753806 107.839188 
L 199.889071 60.516271 
L 207.024336 75.262753 
L 214.1596 134.539359 
L 221.294865 125.986927 
L 228.43013 77.226242 
L 235.565395 64.969304 
L 242.700659 110.742469 
L 249.835924 69.220943 
L 256.971189 98.412374 
L 264.106454 118.089864 
L 271.241718 132.844751 
L 278.376983 47.456757 
L 285.512248 46.848 
L 292.647512 97.229691 
L 299.782777 107.94142 
L 306.918042 154.368 
L 314.053307 131.094989 
L 321.188571 92.871076 
L 328.323836 62.009145 
L 335.459101 47.009504 
L 342.594366 102.036001 
L 349.72963 126.563846 
L 356.864895 147.896888 
L 364.00016 148.173782 
L 371.135425 87.457478 
L 378.270689 51.935092 
L 385.405954 61.969189 
L 397.298062 104.315303 
L 398.487273 108.609486 
L 398.487273 108.609486 
" style="fill:none;stroke:#ff0000;stroke-linecap:square;stroke-width:2;"/>
   </g>
   <g id="patch_3">
    <path d="M 57.6 159.744 
L 57.6 41.472 
" style="fill:none;stroke:#000000;stroke-linecap:square;stroke-linejoin:miter;stroke-width:0.8;"/>
   </g>
   <g id="patch_4">
    <path d="M 414.72 159.744 
L 414.72 41.472 
" style="fill:none;stroke:#000000;stroke-linecap:square;stroke-linejoin:miter;stroke-width:0.8;"/>
   </g>
   <g id="patch_5">
    <path d="M 57.6 159.744 
L 414.72 159.744 
" style="fill:none;stroke:#000000;stroke-linecap:square;stroke-linejoin:miter;stroke-width:0.8;"/>
   </g>
   <g id="patch_6">
    <path d="M 57.6 41.472 
L 414.72 41.472 
" style="fill:none;stroke:#000000;stroke-linecap:square;stroke-linejoin:miter;stroke-width:0.8;"/>
   </g>
  </g>
  <g id="axes_2">
   <g id="patch_7">
    <path d="M 57.6 307.584 
L 414.72 307.584 
L 414.72 189.312 
L 57.6 189.312 
z
" style="fill:#ffffff;"/>
   </g>
   <g id="matplotlib.axis_3">
    <g id="xtick_10">
     <g id="line2d_15">
      <g>
       <use style="stroke:#000000;stroke-width:0.8;" x="57.183776" xlink:href="#m71e1350eca" y="307.584"/>
      </g>
     </g>
     <g id="text_14">
      <!-- 0 -->
      <g transform="translate(54.002526 322.182437)scale(0.1 -0.1)">
       <use xlink:href="#DejaVuSans-30"/>
      </g>
     </g>
    </g>
    <g id="xtick_11">
     <g id="line2d_16">
      <g>
       <use style="stroke:#000000;stroke-width:0.8;" x="98.475818" xlink:href="#m71e1350eca" y="307.584"/>
      </g>
     </g>
     <g id="text_15">
      <!-- 25 -->
      <g transform="translate(92.113318 322.182437)scale(0.1 -0.1)">
       <use xlink:href="#DejaVuSans-32"/>
       <use x="63.623047" xlink:href="#DejaVuSans-35"/>
      </g>
     </g>
    </g>
    <g id="xtick_12">
     <g id="line2d_17">
      <g>
       <use style="stroke:#000000;stroke-width:0.8;" x="139.767859" xlink:href="#m71e1350eca" y="307.584"/>
      </g>
     </g>
     <g id="text_16">
      <!-- 50 -->
      <g transform="translate(133.405359 322.182437)scale(0.1 -0.1)">
       <use xlink:href="#DejaVuSans-35"/>
       <use x="63.623047" xlink:href="#DejaVuSans-30"/>
      </g>
     </g>
    </g>
    <g id="xtick_13">
     <g id="line2d_18">
      <g>
       <use style="stroke:#000000;stroke-width:0.8;" x="181.0599" xlink:href="#m71e1350eca" y="307.584"/>
      </g>
     </g>
     <g id="text_17">
      <!-- 75 -->
      <g transform="translate(174.6974 322.182437)scale(0.1 -0.1)">
       <use xlink:href="#DejaVuSans-37"/>
       <use x="63.623047" xlink:href="#DejaVuSans-35"/>
      </g>
     </g>
    </g>
    <g id="xtick_14">
     <g id="line2d_19">
      <g>
       <use style="stroke:#000000;stroke-width:0.8;" x="222.351941" xlink:href="#m71e1350eca" y="307.584"/>
      </g>
     </g>
     <g id="text_18">
      <!-- 100 -->
      <g transform="translate(212.808191 322.182437)scale(0.1 -0.1)">
       <use xlink:href="#DejaVuSans-31"/>
       <use x="63.623047" xlink:href="#DejaVuSans-30"/>
       <use x="127.246094" xlink:href="#DejaVuSans-30"/>
      </g>
     </g>
    </g>
    <g id="xtick_15">
     <g id="line2d_20">
      <g>
       <use style="stroke:#000000;stroke-width:0.8;" x="263.643983" xlink:href="#m71e1350eca" y="307.584"/>
      </g>
     </g>
     <g id="text_19">
      <!-- 125 -->
      <g transform="translate(254.100233 322.182437)scale(0.1 -0.1)">
       <use xlink:href="#DejaVuSans-31"/>
       <use x="63.623047" xlink:href="#DejaVuSans-32"/>
       <use x="127.246094" xlink:href="#DejaVuSans-35"/>
      </g>
     </g>
    </g>
    <g id="xtick_16">
     <g id="line2d_21">
      <g>
       <use style="stroke:#000000;stroke-width:0.8;" x="304.936024" xlink:href="#m71e1350eca" y="307.584"/>
      </g>
     </g>
     <g id="text_20">
      <!-- 150 -->
      <g transform="translate(295.392274 322.182437)scale(0.1 -0.1)">
       <use xlink:href="#DejaVuSans-31"/>
       <use x="63.623047" xlink:href="#DejaVuSans-35"/>
       <use x="127.246094" xlink:href="#DejaVuSans-30"/>
      </g>
     </g>
    </g>
    <g id="xtick_17">
     <g id="line2d_22">
      <g>
       <use style="stroke:#000000;stroke-width:0.8;" x="346.228065" xlink:href="#m71e1350eca" y="307.584"/>
      </g>
     </g>
     <g id="text_21">
      <!-- 175 -->
      <g transform="translate(336.684315 322.182437)scale(0.1 -0.1)">
       <use xlink:href="#DejaVuSans-31"/>
       <use x="63.623047" xlink:href="#DejaVuSans-37"/>
       <use x="127.246094" xlink:href="#DejaVuSans-35"/>
      </g>
     </g>
    </g>
    <g id="xtick_18">
     <g id="line2d_23">
      <g>
       <use style="stroke:#000000;stroke-width:0.8;" x="387.520107" xlink:href="#m71e1350eca" y="307.584"/>
      </g>
     </g>
     <g id="text_22">
      <!-- 200 -->
      <g transform="translate(377.976357 322.182437)scale(0.1 -0.1)">
       <use xlink:href="#DejaVuSans-32"/>
       <use x="63.623047" xlink:href="#DejaVuSans-30"/>
       <use x="127.246094" xlink:href="#DejaVuSans-30"/>
      </g>
     </g>
    </g>
    <g id="text_23">
     <!-- Time (Sec) -->
     <defs>
      <path d="M -0.296875 72.90625 
L 61.375 72.90625 
L 61.375 64.59375 
L 35.5 64.59375 
L 35.5 0 
L 25.59375 0 
L 25.59375 64.59375 
L -0.296875 64.59375 
z
" id="DejaVuSans-54"/>
      <path d="M 9.421875 54.6875 
L 18.40625 54.6875 
L 18.40625 0 
L 9.421875 0 
z
M 9.421875 75.984375 
L 18.40625 75.984375 
L 18.40625 64.59375 
L 9.421875 64.59375 
z
" id="DejaVuSans-69"/>
      <path d="M 52 44.1875 
Q 55.375 50.25 60.0625 53.125 
Q 64.75 56 71.09375 56 
Q 79.640625 56 84.28125 50.015625 
Q 88.921875 44.046875 88.921875 33.015625 
L 88.921875 0 
L 79.890625 0 
L 79.890625 32.71875 
Q 79.890625 40.578125 77.09375 44.375 
Q 74.3125 48.1875 68.609375 48.1875 
Q 61.625 48.1875 57.5625 43.546875 
Q 53.515625 38.921875 53.515625 30.90625 
L 53.515625 0 
L 44.484375 0 
L 44.484375 32.71875 
Q 44.484375 40.625 41.703125 44.40625 
Q 38.921875 48.1875 33.109375 48.1875 
Q 26.21875 48.1875 22.15625 43.53125 
Q 18.109375 38.875 18.109375 30.90625 
L 18.109375 0 
L 9.078125 0 
L 9.078125 54.6875 
L 18.109375 54.6875 
L 18.109375 46.1875 
Q 21.1875 51.21875 25.484375 53.609375 
Q 29.78125 56 35.6875 56 
Q 41.65625 56 45.828125 52.96875 
Q 50 49.953125 52 44.1875 
z
" id="DejaVuSans-6d"/>
      <path d="M 56.203125 29.59375 
L 56.203125 25.203125 
L 14.890625 25.203125 
Q 15.484375 15.921875 20.484375 11.0625 
Q 25.484375 6.203125 34.421875 6.203125 
Q 39.59375 6.203125 44.453125 7.46875 
Q 49.3125 8.734375 54.109375 11.28125 
L 54.109375 2.78125 
Q 49.265625 0.734375 44.1875 -0.34375 
Q 39.109375 -1.421875 33.890625 -1.421875 
Q 20.796875 -1.421875 13.15625 6.1875 
Q 5.515625 13.8125 5.515625 26.8125 
Q 5.515625 40.234375 12.765625 48.109375 
Q 20.015625 56 32.328125 56 
Q 43.359375 56 49.78125 48.890625 
Q 56.203125 41.796875 56.203125 29.59375 
z
M 47.21875 32.234375 
Q 47.125 39.59375 43.09375 43.984375 
Q 39.0625 48.390625 32.421875 48.390625 
Q 24.90625 48.390625 20.390625 44.140625 
Q 15.875 39.890625 15.1875 32.171875 
z
" id="DejaVuSans-65"/>
      <path id="DejaVuSans-20"/>
      <path d="M 31 75.875 
Q 24.46875 64.65625 21.28125 53.65625 
Q 18.109375 42.671875 18.109375 31.390625 
Q 18.109375 20.125 21.3125 9.0625 
Q 24.515625 -2 31 -13.1875 
L 23.1875 -13.1875 
Q 15.875 -1.703125 12.234375 9.375 
Q 8.59375 20.453125 8.59375 31.390625 
Q 8.59375 42.28125 12.203125 53.3125 
Q 15.828125 64.359375 23.1875 75.875 
z
" id="DejaVuSans-28"/>
      <path d="M 53.515625 70.515625 
L 53.515625 60.890625 
Q 47.90625 63.578125 42.921875 64.890625 
Q 37.9375 66.21875 33.296875 66.21875 
Q 25.25 66.21875 20.875 63.09375 
Q 16.5 59.96875 16.5 54.203125 
Q 16.5 49.359375 19.40625 46.890625 
Q 22.3125 44.4375 30.421875 42.921875 
L 36.375 41.703125 
Q 47.40625 39.59375 52.65625 34.296875 
Q 57.90625 29 57.90625 20.125 
Q 57.90625 9.515625 50.796875 4.046875 
Q 43.703125 -1.421875 29.984375 -1.421875 
Q 24.8125 -1.421875 18.96875 -0.25 
Q 13.140625 0.921875 6.890625 3.21875 
L 6.890625 13.375 
Q 12.890625 10.015625 18.65625 8.296875 
Q 24.421875 6.59375 29.984375 6.59375 
Q 38.421875 6.59375 43.015625 9.90625 
Q 47.609375 13.234375 47.609375 19.390625 
Q 47.609375 24.75 44.3125 27.78125 
Q 41.015625 30.8125 33.5 32.328125 
L 27.484375 33.5 
Q 16.453125 35.6875 11.515625 40.375 
Q 6.59375 45.0625 6.59375 53.421875 
Q 6.59375 63.09375 13.40625 68.65625 
Q 20.21875 74.21875 32.171875 74.21875 
Q 37.3125 74.21875 42.625 73.28125 
Q 47.953125 72.359375 53.515625 70.515625 
z
" id="DejaVuSans-53"/>
      <path d="M 48.78125 52.59375 
L 48.78125 44.1875 
Q 44.96875 46.296875 41.140625 47.34375 
Q 37.3125 48.390625 33.40625 48.390625 
Q 24.65625 48.390625 19.8125 42.84375 
Q 14.984375 37.3125 14.984375 27.296875 
Q 14.984375 17.28125 19.8125 11.734375 
Q 24.65625 6.203125 33.40625 6.203125 
Q 37.3125 6.203125 41.140625 7.25 
Q 44.96875 8.296875 48.78125 10.40625 
L 48.78125 2.09375 
Q 45.015625 0.34375 40.984375 -0.53125 
Q 36.96875 -1.421875 32.421875 -1.421875 
Q 20.0625 -1.421875 12.78125 6.34375 
Q 5.515625 14.109375 5.515625 27.296875 
Q 5.515625 40.671875 12.859375 48.328125 
Q 20.21875 56 33.015625 56 
Q 37.15625 56 41.109375 55.140625 
Q 45.0625 54.296875 48.78125 52.59375 
z
" id="DejaVuSans-63"/>
      <path d="M 8.015625 75.875 
L 15.828125 75.875 
Q 23.140625 64.359375 26.78125 53.3125 
Q 30.421875 42.28125 30.421875 31.390625 
Q 30.421875 20.453125 26.78125 9.375 
Q 23.140625 -1.703125 15.828125 -13.1875 
L 8.015625 -13.1875 
Q 14.5 -2 17.703125 9.0625 
Q 20.90625 20.125 20.90625 31.390625 
Q 20.90625 42.671875 17.703125 53.65625 
Q 14.5 64.65625 8.015625 75.875 
z
" id="DejaVuSans-29"/>
     </defs>
     <g transform="translate(209.281875 335.860562)scale(0.1 -0.1)">
      <use xlink:href="#DejaVuSans-54"/>
      <use x="61.037109" xlink:href="#DejaVuSans-69"/>
      <use x="88.820312" xlink:href="#DejaVuSans-6d"/>
      <use x="186.232422" xlink:href="#DejaVuSans-65"/>
      <use x="247.755859" xlink:href="#DejaVuSans-20"/>
      <use x="279.542969" xlink:href="#DejaVuSans-28"/>
      <use x="318.556641" xlink:href="#DejaVuSans-53"/>
      <use x="382.033203" xlink:href="#DejaVuSans-65"/>
      <use x="443.556641" xlink:href="#DejaVuSans-63"/>
      <use x="498.537109" xlink:href="#DejaVuSans-29"/>
     </g>
    </g>
   </g>
   <g id="matplotlib.axis_4">
    <g id="ytick_5">
     <g id="line2d_24">
      <g>
       <use style="stroke:#000000;stroke-width:0.8;" x="57.6" xlink:href="#mab5c05b3c1" y="304.041847"/>
      </g>
     </g>
     <g id="text_24">
      <!-- −20 -->
      <g transform="translate(29.495313 307.841066)scale(0.1 -0.1)">
       <use xlink:href="#DejaVuSans-2212"/>
       <use x="83.789062" xlink:href="#DejaVuSans-32"/>
       <use x="147.412109" xlink:href="#DejaVuSans-30"/>
      </g>
     </g>
    </g>
    <g id="ytick_6">
     <g id="line2d_25">
      <g>
       <use style="stroke:#000000;stroke-width:0.8;" x="57.6" xlink:href="#mab5c05b3c1" y="276.848724"/>
      </g>
     </g>
     <g id="text_25">
      <!-- −10 -->
      <g transform="translate(29.495313 280.647943)scale(0.1 -0.1)">
       <use xlink:href="#DejaVuSans-2212"/>
       <use x="83.789062" xlink:href="#DejaVuSans-31"/>
       <use x="147.412109" xlink:href="#DejaVuSans-30"/>
      </g>
     </g>
    </g>
    <g id="ytick_7">
     <g id="line2d_26">
      <g>
       <use style="stroke:#000000;stroke-width:0.8;" x="57.6" xlink:href="#mab5c05b3c1" y="249.655601"/>
      </g>
     </g>
     <g id="text_26">
      <!-- 0 -->
      <g transform="translate(44.2375 253.454819)scale(0.1 -0.1)">
       <use xlink:href="#DejaVuSans-30"/>
      </g>
     </g>
    </g>
    <g id="ytick_8">
     <g id="line2d_27">
      <g>
       <use style="stroke:#000000;stroke-width:0.8;" x="57.6" xlink:href="#mab5c05b3c1" y="222.462477"/>
      </g>
     </g>
     <g id="text_27">
      <!-- 10 -->
      <g transform="translate(37.875 226.261696)scale(0.1 -0.1)">
       <use xlink:href="#DejaVuSans-31"/>
       <use x="63.623047" xlink:href="#DejaVuSans-30"/>
      </g>
     </g>
    </g>
    <g id="ytick_9">
     <g id="line2d_28">
      <g>
       <use style="stroke:#000000;stroke-width:0.8;" x="57.6" xlink:href="#mab5c05b3c1" y="195.269354"/>
      </g>
     </g>
     <g id="text_28">
      <!-- 20 -->
      <g transform="translate(37.875 199.068573)scale(0.1 -0.1)">
       <use xlink:href="#DejaVuSans-32"/>
       <use x="63.623047" xlink:href="#DejaVuSans-30"/>
      </g>
     </g>
    </g>
   </g>
   <g id="line2d_29">
    <path clip-path="url(#p4cbeab7018)" d="M 73.832727 248.447706 
L 75.021938 248.994943 
L 77.40036 250.539249 
L 78.58957 251.053196 
L 79.778781 251.079295 
L 80.967992 250.479821 
L 82.157203 249.249598 
L 85.724835 244.110971 
L 86.914046 243.085932 
L 88.103257 242.857149 
L 89.292468 243.484927 
L 90.481678 244.860265 
L 92.8601 248.805042 
L 94.049311 250.772098 
L 95.238521 252.419691 
L 96.427732 253.633255 
L 97.616943 254.411487 
L 98.806154 254.848512 
L 102.373786 255.566465 
L 104.752208 256.367641 
L 105.941419 256.554902 
L 107.130629 256.2157 
L 108.31984 255.087248 
L 109.509051 253.026322 
L 110.698262 250.077086 
L 113.076683 242.96515 
L 114.265894 239.980949 
L 115.455105 238.141137 
L 116.644316 237.784309 
L 117.833526 238.959184 
L 119.022737 241.375595 
L 121.401159 247.488306 
L 122.59037 249.838688 
L 123.77958 251.064375 
L 124.968791 251.003345 
L 126.158002 249.81447 
L 129.725634 244.316385 
L 130.914845 243.500535 
L 132.104056 243.650338 
L 133.293267 244.725125 
L 134.482478 246.507732 
L 138.05011 253.048122 
L 139.239321 254.807308 
L 140.428531 256.139946 
L 141.617742 257.014377 
L 142.806953 257.44242 
L 143.996164 257.468711 
L 145.185375 257.160021 
L 146.374585 256.589001 
L 147.563796 255.813145 
L 148.753007 254.864099 
L 149.942218 253.75404 
L 152.320639 251.086459 
L 155.888272 246.599588 
L 157.077483 245.370945 
L 158.266693 244.465061 
L 159.455904 243.940159 
L 160.645115 243.792069 
L 161.834326 243.944517 
L 164.212747 244.577176 
L 165.401958 244.749434 
L 166.591169 244.67755 
L 167.78038 244.329093 
L 170.158801 243.085041 
L 171.348012 242.479122 
L 172.537223 242.086023 
L 173.726434 242.004028 
L 174.915644 242.260768 
L 176.104855 242.801294 
L 178.483277 244.198549 
L 179.672488 244.751132 
L 180.861698 245.056785 
L 182.050909 245.092022 
L 184.429331 244.824686 
L 185.618541 244.972971 
L 186.807752 245.611912 
L 187.996963 246.873783 
L 189.186174 248.769004 
L 191.564595 253.80395 
L 192.753806 256.38021 
L 193.943017 258.615886 
L 195.132228 260.317827 
L 196.321439 261.367842 
L 197.510649 261.656435 
L 198.69986 261.043664 
L 199.889071 259.389759 
L 201.078282 256.615257 
L 202.267493 252.744911 
L 203.456703 247.94844 
L 207.024336 232.382996 
L 208.213546 228.617488 
L 209.402757 226.213403 
L 210.591968 225.289064 
L 211.781179 225.862435 
L 212.97039 227.923323 
L 214.1596 231.437565 
L 215.348811 236.315622 
L 216.538022 242.387504 
L 218.916444 256.802278 
L 220.105654 264.082359 
L 221.294865 270.569155 
L 222.484076 275.742794 
L 223.673287 279.298525 
L 224.862498 281.142957 
L 226.051708 281.306269 
L 227.240919 279.863543 
L 228.43013 276.918096 
L 229.619341 272.619744 
L 230.808551 267.179398 
L 233.186973 254.105149 
L 235.565395 240.908779 
L 236.754605 235.295457 
L 237.943816 230.678903 
L 239.133027 227.167722 
L 240.322238 224.854124 
L 241.511449 223.870872 
L 242.700659 224.355861 
L 243.88987 226.376713 
L 245.079081 229.874217 
L 246.268292 234.604586 
L 248.646713 245.522455 
L 249.835924 250.168691 
L 251.025135 253.330688 
L 252.214346 254.605276 
L 253.403556 253.937735 
L 254.592767 251.663355 
L 258.1604 242.302563 
L 259.34961 240.633089 
L 260.538821 240.317082 
L 261.728032 241.343347 
L 262.917243 243.504709 
L 264.106454 246.485861 
L 270.052507 263.60554 
L 271.241718 266.291162 
L 272.430929 268.602681 
L 273.62014 270.561705 
L 274.809351 272.143788 
L 275.998561 273.144751 
L 277.187772 273.143732 
L 278.376983 271.631359 
L 279.566194 268.197638 
L 280.755405 262.667163 
L 281.944615 255.182796 
L 284.323037 236.739203 
L 285.512248 227.559374 
L 286.701459 219.551611 
L 287.890669 213.272961 
L 289.07988 208.992836 
L 290.269091 206.793264 
L 291.458302 206.665482 
L 292.647512 208.533302 
L 293.836723 212.235348 
L 295.025934 217.513494 
L 296.215145 224.006849 
L 299.782777 245.727271 
L 300.971988 251.990114 
L 302.161199 257.180345 
L 303.35041 261.22662 
L 304.53962 264.274153 
L 305.728831 266.647815 
L 308.107253 270.977363 
L 309.296464 273.588241 
L 310.485674 276.683776 
L 312.864096 283.460713 
L 314.053307 286.237319 
L 315.242517 287.986211 
L 316.431728 288.428225 
L 317.620939 287.483009 
L 318.81015 285.224147 
L 319.999361 281.816133 
L 321.188571 277.469504 
L 323.566993 266.883052 
L 328.323836 244.145035 
L 330.702258 234.52059 
L 331.891469 230.37594 
L 333.080679 226.688941 
L 334.26989 223.479437 
L 335.459101 220.770237 
L 336.648312 218.566531 
L 337.837522 216.846163 
L 339.026733 215.601843 
L 340.215944 214.935536 
L 341.405155 215.09073 
L 342.594366 216.370621 
L 343.783576 219.013412 
L 344.972787 223.103993 
L 346.161998 228.535288 
L 348.54042 242.057743 
L 350.918841 255.981602 
L 352.108052 262.091662 
L 353.297263 267.358236 
L 354.486474 271.740282 
L 355.675684 275.290744 
L 356.864895 278.121349 
L 358.054106 280.373286 
L 359.243317 282.193093 
L 360.432527 283.703185 
L 361.621738 284.965881 
L 362.810949 285.972845 
L 364.00016 286.672965 
L 365.189371 287.015118 
L 366.378581 286.975939 
L 367.567792 286.533026 
L 368.757003 285.584657 
L 369.946214 283.918808 
L 371.135425 281.279632 
L 372.324635 277.471377 
L 373.513846 272.43155 
L 374.703057 266.261401 
L 377.081479 251.717199 
L 379.4599 236.923749 
L 380.649111 230.28685 
L 381.838322 224.421851 
L 383.027532 219.476131 
L 384.216743 215.610687 
L 385.405954 212.97217 
L 386.595165 211.635572 
L 387.784376 211.568246 
L 388.973586 212.640015 
L 390.162797 214.670916 
L 391.352008 217.476065 
L 392.541219 220.883584 
L 394.91964 228.878098 
L 398.487273 241.772743 
L 398.487273 241.772743 
" style="fill:none;stroke:#ff0000;stroke-linecap:square;stroke-width:2;"/>
   </g>
   <g id="line2d_30">
    <path clip-path="url(#p4cbeab7018)" d="M 73.832727 248.028958 
L 75.021938 244.932952 
L 76.211149 256.354474 
L 77.40036 256.655461 
L 78.58957 248.491865 
L 79.778781 259.340658 
L 80.967992 257.012883 
L 82.157203 245.393588 
L 83.346414 239.14015 
L 84.535624 233.871372 
L 85.724835 242.228031 
L 86.914046 244.869647 
L 88.103257 242.825273 
L 89.292468 248.206787 
L 91.670889 249.131335 
L 92.8601 268.220497 
L 94.049311 246.662339 
L 95.238521 242.888793 
L 96.427732 231.954173 
L 97.616943 240.466669 
L 98.806154 277.84722 
L 99.995365 266.806019 
L 101.184575 261.79109 
L 102.373786 254.456882 
L 103.562997 237.935682 
L 104.752208 269.032048 
L 105.941419 252.135085 
L 107.130629 243.644514 
L 108.31984 254.825946 
L 109.509051 258.937948 
L 110.698262 248.431012 
L 111.887473 260.59557 
L 113.076683 250.450164 
L 114.265894 219.014406 
L 115.455105 247.809552 
L 116.644316 234.935638 
L 117.833526 241.597812 
L 119.022737 229.85531 
L 120.211948 248.841342 
L 121.401159 246.70786 
L 122.59037 251.798393 
L 123.77958 267.78264 
L 124.968791 244.738608 
L 126.158002 234.476424 
L 127.347213 251.468067 
L 128.536424 242.562844 
L 129.725634 241.121329 
L 130.914845 260.188706 
L 132.104056 242.978056 
L 133.293267 248.521616 
L 134.482478 251.51271 
L 135.671688 227.178848 
L 136.860899 241.257329 
L 138.05011 260.173739 
L 139.239321 261.609282 
L 140.428531 260.535033 
L 141.617742 258.600695 
L 142.806953 257.27255 
L 143.996164 256.532745 
L 145.185375 252.59693 
L 146.374585 280.046246 
L 147.563796 244.019209 
L 148.753007 243.068004 
L 149.942218 244.9242 
L 151.131429 252.782818 
L 152.320639 244.218215 
L 153.50985 260.235384 
L 154.699061 254.837318 
L 155.888272 263.166441 
L 157.077483 237.660525 
L 158.266693 240.158222 
L 159.455904 253.183014 
L 160.645115 233.762785 
L 161.834326 230.92778 
L 163.023536 249.067246 
L 164.212747 247.045327 
L 165.401958 235.218849 
L 166.591169 252.154424 
L 167.78038 256.005552 
L 168.96959 239.02695 
L 170.158801 246.864462 
L 171.348012 231.247205 
L 172.537223 253.057754 
L 173.726434 236.067459 
L 174.915644 246.873352 
L 176.104855 221.37357 
L 177.294066 263.63784 
L 178.483277 244.462918 
L 179.672488 244.47122 
L 180.861698 243.143945 
L 182.050909 246.800405 
L 183.24012 232.192808 
L 184.429331 250.442862 
L 185.618541 248.648206 
L 186.807752 253.989072 
L 187.996963 247.782668 
L 189.186174 236.234239 
L 190.375385 248.235169 
L 191.564595 248.968846 
L 192.753806 269.86314 
L 193.943017 262.649714 
L 195.132228 261.203296 
L 196.321439 256.745324 
L 197.510649 254.777552 
L 198.69986 262.04419 
L 199.889071 272.585474 
L 201.078282 240.143001 
L 202.267493 243.927406 
L 203.456703 262.014261 
L 205.835125 241.238148 
L 207.024336 223.947484 
L 208.213546 229.596741 
L 209.402757 209.39516 
L 210.591968 233.396342 
L 211.781179 225.704787 
L 212.97039 235.582483 
L 214.1596 241.091217 
L 215.348811 233.209828 
L 216.538022 227.364777 
L 217.727233 248.404661 
L 218.916444 264.518895 
L 220.105654 256.202991 
L 221.294865 268.116871 
L 222.484076 296.764837 
L 223.673287 271.844075 
L 224.862498 289.777919 
L 226.051708 260.661561 
L 227.240919 286.975858 
L 228.43013 280.445016 
L 229.619341 270.446 
L 230.808551 252.963396 
L 231.997762 264.749128 
L 233.186973 263.752567 
L 234.376184 246.886112 
L 235.565395 250.361934 
L 236.754605 234.232835 
L 237.943816 231.167123 
L 239.133027 225.39769 
L 240.322238 215.741282 
L 241.511449 224.778172 
L 242.700659 219.517224 
L 243.88987 209.665983 
L 245.079081 245.743218 
L 246.268292 251.737617 
L 247.457502 248.37249 
L 248.646713 237.781086 
L 249.835924 234.992966 
L 251.025135 246.181347 
L 252.214346 259.538608 
L 253.403556 261.03449 
L 254.592767 257.745666 
L 255.781978 241.853523 
L 256.971189 240.305739 
L 258.1604 262.652471 
L 259.34961 230.246963 
L 260.538821 235.471778 
L 261.728032 227.290293 
L 262.917243 240.278756 
L 264.106454 263.385278 
L 265.295664 261.478529 
L 266.484875 257.437195 
L 267.674086 242.725452 
L 268.863297 273.33367 
L 270.052507 241.815142 
L 271.241718 271.582336 
L 272.430929 258.285307 
L 273.62014 272.642186 
L 274.809351 285.473609 
L 275.998561 262.870704 
L 277.187772 287.813964 
L 278.376983 276.514251 
L 279.566194 262.162507 
L 280.755405 259.212668 
L 281.944615 262.41623 
L 283.133826 245.369033 
L 284.323037 225.147287 
L 285.512248 219.490443 
L 286.701459 209.784065 
L 287.890669 222.82355 
L 289.07988 230.859414 
L 290.269091 207.855218 
L 291.458302 204.942486 
L 292.647512 201.523238 
L 293.836723 216.20597 
L 295.025934 205.818862 
L 296.215145 212.149504 
L 297.404356 242.415585 
L 298.593566 244.658398 
L 299.782777 257.107768 
L 300.971988 250.134828 
L 302.161199 254.577404 
L 303.35041 245.482408 
L 304.53962 271.169501 
L 305.728831 263.977818 
L 306.918042 275.106599 
L 308.107253 265.29467 
L 309.296464 277.113114 
L 310.485674 279.587925 
L 311.674885 283.131625 
L 312.864096 262.500911 
L 314.053307 302.208 
L 315.242517 296.049935 
L 316.431728 286.662645 
L 317.620939 280.05869 
L 318.81015 285.840365 
L 319.999361 280.583433 
L 321.188571 273.322754 
L 322.377782 261.33449 
L 323.566993 295.622237 
L 324.756204 260.562555 
L 325.945415 235.351988 
L 327.134625 251.585773 
L 328.323836 257.603496 
L 329.513047 225.739319 
L 330.702258 245.086415 
L 331.891469 221.318758 
L 333.080679 234.450143 
L 334.26989 231.903604 
L 335.459101 194.688 
L 336.648312 225.863585 
L 337.837522 230.692737 
L 339.026733 206.159976 
L 340.215944 229.87055 
L 341.405155 200.332931 
L 342.594366 209.66299 
L 343.783576 224.947759 
L 344.972787 223.784191 
L 346.161998 241.151826 
L 347.351209 221.333071 
L 348.54042 257.347822 
L 349.72963 243.346366 
L 350.918841 236.209327 
L 352.108052 262.962844 
L 354.486474 284.620746 
L 355.675684 274.751029 
L 356.864895 285.076881 
L 358.054106 271.969375 
L 359.243317 272.570958 
L 360.432527 275.669909 
L 361.621738 296.52862 
L 362.810949 285.762951 
L 364.00016 297.209412 
L 365.189371 283.993146 
L 366.378581 279.094931 
L 367.567792 282.546783 
L 368.757003 292.679695 
L 369.946214 283.692659 
L 371.135425 281.599856 
L 372.324635 273.679134 
L 373.513846 284.755819 
L 374.703057 262.642724 
L 375.892268 237.105293 
L 377.081479 243.119583 
L 378.270689 270.992237 
L 379.4599 248.177254 
L 380.649111 237.855131 
L 381.838322 218.663497 
L 383.027532 202.557622 
L 384.216743 212.499192 
L 385.405954 208.716186 
L 386.595165 200.063021 
L 388.973586 228.827503 
L 390.162797 229.70086 
L 391.352008 224.199789 
L 392.541219 200.6285 
L 393.73043 228.674929 
L 394.91964 216.204976 
L 396.108851 237.438958 
L 397.298062 241.680941 
L 398.487273 238.148003 
L 398.487273 238.148003 
" style="fill:none;stroke:#0000ff;stroke-linecap:square;stroke-width:2;"/>
   </g>
   <g id="patch_8">
    <path d="M 57.6 307.584 
L 57.6 189.312 
" style="fill:none;stroke:#000000;stroke-linecap:square;stroke-linejoin:miter;stroke-width:0.8;"/>
   </g>
   <g id="patch_9">
    <path d="M 414.72 307.584 
L 414.72 189.312 
" style="fill:none;stroke:#000000;stroke-linecap:square;stroke-linejoin:miter;stroke-width:0.8;"/>
   </g>
   <g id="patch_10">
    <path d="M 57.6 307.584 
L 414.72 307.584 
" style="fill:none;stroke:#000000;stroke-linecap:square;stroke-linejoin:miter;stroke-width:0.8;"/>
   </g>
   <g id="patch_11">
    <path d="M 57.6 189.312 
L 414.72 189.312 
" style="fill:none;stroke:#000000;stroke-linecap:square;stroke-linejoin:miter;stroke-width:0.8;"/>
   </g>
   <g id="text_29">
    <!-- BOLD signal -->
    <defs>
     <path d="M 19.671875 34.8125 
L 19.671875 8.109375 
L 35.5 8.109375 
Q 43.453125 8.109375 47.28125 11.40625 
Q 51.125 14.703125 51.125 21.484375 
Q 51.125 28.328125 47.28125 31.5625 
Q 43.453125 34.8125 35.5 34.8125 
z
M 19.671875 64.796875 
L 19.671875 42.828125 
L 34.28125 42.828125 
Q 41.5 42.828125 45.03125 45.53125 
Q 48.578125 48.25 48.578125 53.8125 
Q 48.578125 59.328125 45.03125 62.0625 
Q 41.5 64.796875 34.28125 64.796875 
z
M 9.8125 72.90625 
L 35.015625 72.90625 
Q 46.296875 72.90625 52.390625 68.21875 
Q 58.5 63.53125 58.5 54.890625 
Q 58.5 48.1875 55.375 44.234375 
Q 52.25 40.28125 46.1875 39.3125 
Q 53.46875 37.75 57.5 32.78125 
Q 61.53125 27.828125 61.53125 20.40625 
Q 61.53125 10.640625 54.890625 5.3125 
Q 48.25 0 35.984375 0 
L 9.8125 0 
z
" id="DejaVuSans-42"/>
     <path d="M 39.40625 66.21875 
Q 28.65625 66.21875 22.328125 58.203125 
Q 16.015625 50.203125 16.015625 36.375 
Q 16.015625 22.609375 22.328125 14.59375 
Q 28.65625 6.59375 39.40625 6.59375 
Q 50.140625 6.59375 56.421875 14.59375 
Q 62.703125 22.609375 62.703125 36.375 
Q 62.703125 50.203125 56.421875 58.203125 
Q 50.140625 66.21875 39.40625 66.21875 
z
M 39.40625 74.21875 
Q 54.734375 74.21875 63.90625 63.9375 
Q 73.09375 53.65625 73.09375 36.375 
Q 73.09375 19.140625 63.90625 8.859375 
Q 54.734375 -1.421875 39.40625 -1.421875 
Q 24.03125 -1.421875 14.8125 8.828125 
Q 5.609375 19.09375 5.609375 36.375 
Q 5.609375 53.65625 14.8125 63.9375 
Q 24.03125 74.21875 39.40625 74.21875 
z
" id="DejaVuSans-4f"/>
     <path d="M 9.8125 72.90625 
L 19.671875 72.90625 
L 19.671875 8.296875 
L 55.171875 8.296875 
L 55.171875 0 
L 9.8125 0 
z
" id="DejaVuSans-4c"/>
     <path d="M 19.671875 64.796875 
L 19.671875 8.109375 
L 31.59375 8.109375 
Q 46.6875 8.109375 53.6875 14.9375 
Q 60.6875 21.78125 60.6875 36.53125 
Q 60.6875 51.171875 53.6875 57.984375 
Q 46.6875 64.796875 31.59375 64.796875 
z
M 9.8125 72.90625 
L 30.078125 72.90625 
Q 51.265625 72.90625 61.171875 64.09375 
Q 71.09375 55.28125 71.09375 36.53125 
Q 71.09375 17.671875 61.125 8.828125 
Q 51.171875 0 30.078125 0 
L 9.8125 0 
z
" id="DejaVuSans-44"/>
     <path d="M 44.28125 53.078125 
L 44.28125 44.578125 
Q 40.484375 46.53125 36.375 47.5 
Q 32.28125 48.484375 27.875 48.484375 
Q 21.1875 48.484375 17.84375 46.4375 
Q 14.5 44.390625 14.5 40.28125 
Q 14.5 37.15625 16.890625 35.375 
Q 19.28125 33.59375 26.515625 31.984375 
L 29.59375 31.296875 
Q 39.15625 29.25 43.1875 25.515625 
Q 47.21875 21.78125 47.21875 15.09375 
Q 47.21875 7.46875 41.1875 3.015625 
Q 35.15625 -1.421875 24.609375 -1.421875 
Q 20.21875 -1.421875 15.453125 -0.5625 
Q 10.6875 0.296875 5.421875 2 
L 5.421875 11.28125 
Q 10.40625 8.6875 15.234375 7.390625 
Q 20.0625 6.109375 24.8125 6.109375 
Q 31.15625 6.109375 34.5625 8.28125 
Q 37.984375 10.453125 37.984375 14.40625 
Q 37.984375 18.0625 35.515625 20.015625 
Q 33.0625 21.96875 24.703125 23.78125 
L 21.578125 24.515625 
Q 13.234375 26.265625 9.515625 29.90625 
Q 5.8125 33.546875 5.8125 39.890625 
Q 5.8125 47.609375 11.28125 51.796875 
Q 16.75 56 26.8125 56 
Q 31.78125 56 36.171875 55.265625 
Q 40.578125 54.546875 44.28125 53.078125 
z
" id="DejaVuSans-73"/>
     <path d="M 45.40625 27.984375 
Q 45.40625 37.75 41.375 43.109375 
Q 37.359375 48.484375 30.078125 48.484375 
Q 22.859375 48.484375 18.828125 43.109375 
Q 14.796875 37.75 14.796875 27.984375 
Q 14.796875 18.265625 18.828125 12.890625 
Q 22.859375 7.515625 30.078125 7.515625 
Q 37.359375 7.515625 41.375 12.890625 
Q 45.40625 18.265625 45.40625 27.984375 
z
M 54.390625 6.78125 
Q 54.390625 -7.171875 48.1875 -13.984375 
Q 42 -20.796875 29.203125 -20.796875 
Q 24.46875 -20.796875 20.265625 -20.09375 
Q 16.0625 -19.390625 12.109375 -17.921875 
L 12.109375 -9.1875 
Q 16.0625 -11.328125 19.921875 -12.34375 
Q 23.78125 -13.375 27.78125 -13.375 
Q 36.625 -13.375 41.015625 -8.765625 
Q 45.40625 -4.15625 45.40625 5.171875 
L 45.40625 9.625 
Q 42.625 4.78125 38.28125 2.390625 
Q 33.9375 0 27.875 0 
Q 17.828125 0 11.671875 7.65625 
Q 5.515625 15.328125 5.515625 27.984375 
Q 5.515625 40.671875 11.671875 48.328125 
Q 17.828125 56 27.875 56 
Q 33.9375 56 38.28125 53.609375 
Q 42.625 51.21875 45.40625 46.390625 
L 45.40625 54.6875 
L 54.390625 54.6875 
z
" id="DejaVuSans-67"/>
     <path d="M 54.890625 33.015625 
L 54.890625 0 
L 45.90625 0 
L 45.90625 32.71875 
Q 45.90625 40.484375 42.875 44.328125 
Q 39.84375 48.1875 33.796875 48.1875 
Q 26.515625 48.1875 22.3125 43.546875 
Q 18.109375 38.921875 18.109375 30.90625 
L 18.109375 0 
L 9.078125 0 
L 9.078125 54.6875 
L 18.109375 54.6875 
L 18.109375 46.1875 
Q 21.34375 51.125 25.703125 53.5625 
Q 30.078125 56 35.796875 56 
Q 45.21875 56 50.046875 50.171875 
Q 54.890625 44.34375 54.890625 33.015625 
z
" id="DejaVuSans-6e"/>
     <path d="M 34.28125 27.484375 
Q 23.390625 27.484375 19.1875 25 
Q 14.984375 22.515625 14.984375 16.5 
Q 14.984375 11.71875 18.140625 8.90625 
Q 21.296875 6.109375 26.703125 6.109375 
Q 34.1875 6.109375 38.703125 11.40625 
Q 43.21875 16.703125 43.21875 25.484375 
L 43.21875 27.484375 
z
M 52.203125 31.203125 
L 52.203125 0 
L 43.21875 0 
L 43.21875 8.296875 
Q 40.140625 3.328125 35.546875 0.953125 
Q 30.953125 -1.421875 24.3125 -1.421875 
Q 15.921875 -1.421875 10.953125 3.296875 
Q 6 8.015625 6 15.921875 
Q 6 25.140625 12.171875 29.828125 
Q 18.359375 34.515625 30.609375 34.515625 
L 43.21875 34.515625 
L 43.21875 35.40625 
Q 43.21875 41.609375 39.140625 45 
Q 35.0625 48.390625 27.6875 48.390625 
Q 23 48.390625 18.546875 47.265625 
Q 14.109375 46.140625 10.015625 43.890625 
L 10.015625 52.203125 
Q 14.9375 54.109375 19.578125 55.046875 
Q 24.21875 56 28.609375 56 
Q 40.484375 56 46.34375 49.84375 
Q 52.203125 43.703125 52.203125 31.203125 
z
" id="DejaVuSans-61"/>
     <path d="M 9.421875 75.984375 
L 18.40625 75.984375 
L 18.40625 0 
L 9.421875 0 
z
" id="DejaVuSans-6c"/>
    </defs>
    <g transform="translate(199.703438 183.312)scale(0.12 -0.12)">
     <use xlink:href="#DejaVuSans-42"/>
     <use x="68.587891" xlink:href="#DejaVuSans-4f"/>
     <use x="147.298828" xlink:href="#DejaVuSans-4c"/>
     <use x="203.011719" xlink:href="#DejaVuSans-44"/>
     <use x="280.013672" xlink:href="#DejaVuSans-20"/>
     <use x="311.800781" xlink:href="#DejaVuSans-73"/>
     <use x="363.900391" xlink:href="#DejaVuSans-69"/>
     <use x="391.683594" xlink:href="#DejaVuSans-67"/>
     <use x="455.160156" xlink:href="#DejaVuSans-6e"/>
     <use x="518.539062" xlink:href="#DejaVuSans-61"/>
     <use x="579.818359" xlink:href="#DejaVuSans-6c"/>
    </g>
   </g>
  </g>
 </g>
 <defs>
  <clipPath id="pb4fce05084">
   <rect height="118.272" width="357.12" x="57.6" y="41.472"/>
  </clipPath>
  <clipPath id="p4cbeab7018">
   <rect height="118.272" width="357.12" x="57.6" y="189.312"/>
  </clipPath>
 </defs>
</svg>
