<?xml version="1.0" encoding="utf-8" standalone="no"?>
<!DOCTYPE svg PUBLIC "-//W3C//DTD SVG 1.1//EN"
  "http://www.w3.org/Graphics/SVG/1.1/DTD/svg11.dtd">
<!-- Created with matplotlib (http://matplotlib.org/) -->
<svg height="345pt" version="1.1" viewBox="0 0 460 345" width="460pt" xmlns="http://www.w3.org/2000/svg" xmlns:xlink="http://www.w3.org/1999/xlink">
 <defs>
  <style type="text/css">
*{stroke-linecap:butt;stroke-linejoin:round;}
  </style>
 </defs>
 <g id="figure_1">
  <g id="patch_1">
   <path d="M 0 345.6 
L 460.8 345.6 
L 460.8 0 
L 0 0 
z
" style="fill:#ffffff;"/>
  </g>
  <g id="axes_1">
   <g id="patch_2">
    <path d="M 57.6 159.744 
L 414.72 159.744 
L 414.72 41.472 
L 57.6 41.472 
z
" style="fill:#ffffff;"/>
   </g>
   <g id="matplotlib.axis_1">
    <g id="xtick_1">
     <g id="line2d_1">
      <defs>
       <path d="M 0 0 
L 0 3.5 
" id="m5a565cb562" style="stroke:#000000;stroke-width:0.8;"/>
      </defs>
      <g>
       <use style="stroke:#000000;stroke-width:0.8;" x="57.183776" xlink:href="#m5a565cb562" y="159.744"/>
      </g>
     </g>
     <g id="text_1">
      <!-- 0 -->
      <defs>
       <path d="M 31.78125 66.40625 
Q 24.171875 66.40625 20.328125 58.90625 
Q 16.5 51.421875 16.5 36.375 
Q 16.5 21.390625 20.328125 13.890625 
Q 24.171875 6.390625 31.78125 6.390625 
Q 39.453125 6.390625 43.28125 13.890625 
Q 47.125 21.390625 47.125 36.375 
Q 47.125 51.421875 43.28125 58.90625 
Q 39.453125 66.40625 31.78125 66.40625 
M 31.78125 74.21875 
Q 44.046875 74.21875 50.515625 64.515625 
Q 56.984375 54.828125 56.984375 36.375 
Q 56.984375 17.96875 50.515625 8.265625 
Q 44.046875 -1.421875 31.78125 -1.421875 
Q 19.53125 -1.421875 13.0625 8.265625 
Q 6.59375 17.96875 6.59375 36.375 
Q 6.59375 54.828125 13.0625 64.515625 
Q 19.53125 74.21875 31.78125 74.21875 
" id="DejaVuSans-30"/>
      </defs>
      <g transform="translate(54.002526 174.342437)scale(0.1 -0.1)">
       <use xlink:href="#DejaVuSans-30"/>
      </g>
     </g>
    </g>
    <g id="xtick_2">
     <g id="line2d_2">
      <g>
       <use style="stroke:#000000;stroke-width:0.8;" x="98.475818" xlink:href="#m5a565cb562" y="159.744"/>
      </g>
     </g>
     <g id="text_2">
      <!-- 25 -->
      <defs>
       <path d="M 19.1875 8.296875 
L 53.609375 8.296875 
L 53.609375 0 
L 7.328125 0 
L 7.328125 8.296875 
Q 12.9375 14.109375 22.625 23.890625 
Q 32.328125 33.6875 34.8125 36.53125 
Q 39.546875 41.84375 41.421875 45.53125 
Q 43.3125 49.21875 43.3125 52.78125 
Q 43.3125 58.59375 39.234375 62.25 
Q 35.15625 65.921875 28.609375 65.921875 
Q 23.96875 65.921875 18.8125 64.3125 
Q 13.671875 62.703125 7.8125 59.421875 
L 7.8125 69.390625 
Q 13.765625 71.78125 18.9375 73 
Q 24.125 74.21875 28.421875 74.21875 
Q 39.75 74.21875 46.484375 68.546875 
Q 53.21875 62.890625 53.21875 53.421875 
Q 53.21875 48.921875 51.53125 44.890625 
Q 49.859375 40.875 45.40625 35.40625 
Q 44.1875 33.984375 37.640625 27.21875 
Q 31.109375 20.453125 19.1875 8.296875 
" id="DejaVuSans-32"/>
       <path d="M 10.796875 72.90625 
L 49.515625 72.90625 
L 49.515625 64.59375 
L 19.828125 64.59375 
L 19.828125 46.734375 
Q 21.96875 47.46875 24.109375 47.828125 
Q 26.265625 48.1875 28.421875 48.1875 
Q 40.625 48.1875 47.75 41.5 
Q 54.890625 34.8125 54.890625 23.390625 
Q 54.890625 11.625 47.5625 5.09375 
Q 40.234375 -1.421875 26.90625 -1.421875 
Q 22.3125 -1.421875 17.546875 -0.640625 
Q 12.796875 0.140625 7.71875 1.703125 
L 7.71875 11.625 
Q 12.109375 9.234375 16.796875 8.0625 
Q 21.484375 6.890625 26.703125 6.890625 
Q 35.15625 6.890625 40.078125 11.328125 
Q 45.015625 15.765625 45.015625 23.390625 
Q 45.015625 31 40.078125 35.4375 
Q 35.15625 39.890625 26.703125 39.890625 
Q 22.75 39.890625 18.8125 39.015625 
Q 14.890625 38.140625 10.796875 36.28125 
z
" id="DejaVuSans-35"/>
      </defs>
      <g transform="translate(92.113318 174.342437)scale(0.1 -0.1)">
       <use xlink:href="#DejaVuSans-32"/>
       <use x="63.623047" xlink:href="#DejaVuSans-35"/>
      </g>
     </g>
    </g>
    <g id="xtick_3">
     <g id="line2d_3">
      <g>
       <use style="stroke:#000000;stroke-width:0.8;" x="139.767859" xlink:href="#m5a565cb562" y="159.744"/>
      </g>
     </g>
     <g id="text_3">
      <!-- 50 -->
      <g transform="translate(133.405359 174.342437)scale(0.1 -0.1)">
       <use xlink:href="#DejaVuSans-35"/>
       <use x="63.623047" xlink:href="#DejaVuSans-30"/>
      </g>
     </g>
    </g>
    <g id="xtick_4">
     <g id="line2d_4">
      <g>
       <use style="stroke:#000000;stroke-width:0.8;" x="181.0599" xlink:href="#m5a565cb562" y="159.744"/>
      </g>
     </g>
     <g id="text_4">
      <!-- 75 -->
      <defs>
       <path d="M 8.203125 72.90625 
L 55.078125 72.90625 
L 55.078125 68.703125 
L 28.609375 0 
L 18.3125 0 
L 43.21875 64.59375 
L 8.203125 64.59375 
z
" id="DejaVuSans-37"/>
      </defs>
      <g transform="translate(174.6974 174.342437)scale(0.1 -0.1)">
       <use xlink:href="#DejaVuSans-37"/>
       <use x="63.623047" xlink:href="#DejaVuSans-35"/>
      </g>
     </g>
    </g>
    <g id="xtick_5">
     <g id="line2d_5">
      <g>
       <use style="stroke:#000000;stroke-width:0.8;" x="222.351941" xlink:href="#m5a565cb562" y="159.744"/>
      </g>
     </g>
     <g id="text_5">
      <!-- 100 -->
      <defs>
       <path d="M 12.40625 8.296875 
L 28.515625 8.296875 
L 28.515625 63.921875 
L 10.984375 60.40625 
L 10.984375 69.390625 
L 28.421875 72.90625 
L 38.28125 72.90625 
L 38.28125 8.296875 
L 54.390625 8.296875 
L 54.390625 0 
L 12.40625 0 
z
" id="DejaVuSans-31"/>
      </defs>
      <g transform="translate(212.808191 174.342437)scale(0.1 -0.1)">
       <use xlink:href="#DejaVuSans-31"/>
       <use x="63.623047" xlink:href="#DejaVuSans-30"/>
       <use x="127.246094" xlink:href="#DejaVuSans-30"/>
      </g>
     </g>
    </g>
    <g id="xtick_6">
     <g id="line2d_6">
      <g>
       <use style="stroke:#000000;stroke-width:0.8;" x="263.643983" xlink:href="#m5a565cb562" y="159.744"/>
      </g>
     </g>
     <g id="text_6">
      <!-- 125 -->
      <g transform="translate(254.100233 174.342437)scale(0.1 -0.1)">
       <use xlink:href="#DejaVuSans-31"/>
       <use x="63.623047" xlink:href="#DejaVuSans-32"/>
       <use x="127.246094" xlink:href="#DejaVuSans-35"/>
      </g>
     </g>
    </g>
    <g id="xtick_7">
     <g id="line2d_7">
      <g>
       <use style="stroke:#000000;stroke-width:0.8;" x="304.936024" xlink:href="#m5a565cb562" y="159.744"/>
      </g>
     </g>
     <g id="text_7">
      <!-- 150 -->
      <g transform="translate(295.392274 174.342437)scale(0.1 -0.1)">
       <use xlink:href="#DejaVuSans-31"/>
       <use x="63.623047" xlink:href="#DejaVuSans-35"/>
       <use x="127.246094" xlink:href="#DejaVuSans-30"/>
      </g>
     </g>
    </g>
    <g id="xtick_8">
     <g id="line2d_8">
      <g>
       <use style="stroke:#000000;stroke-width:0.8;" x="346.228065" xlink:href="#m5a565cb562" y="159.744"/>
      </g>
     </g>
     <g id="text_8">
      <!-- 175 -->
      <g transform="translate(336.684315 174.342437)scale(0.1 -0.1)">
       <use xlink:href="#DejaVuSans-31"/>
       <use x="63.623047" xlink:href="#DejaVuSans-37"/>
       <use x="127.246094" xlink:href="#DejaVuSans-35"/>
      </g>
     </g>
    </g>
    <g id="xtick_9">
     <g id="line2d_9">
      <g>
       <use style="stroke:#000000;stroke-width:0.8;" x="387.520107" xlink:href="#m5a565cb562" y="159.744"/>
      </g>
     </g>
     <g id="text_9">
      <!-- 200 -->
      <g transform="translate(377.976357 174.342437)scale(0.1 -0.1)">
       <use xlink:href="#DejaVuSans-32"/>
       <use x="63.623047" xlink:href="#DejaVuSans-30"/>
       <use x="127.246094" xlink:href="#DejaVuSans-30"/>
      </g>
     </g>
    </g>
    <g id="text_10">
     <!-- Time (Sec) -->
     <defs>
      <path d="M -0.296875 72.90625 
L 61.375 72.90625 
L 61.375 64.59375 
L 35.5 64.59375 
L 35.5 0 
L 25.59375 0 
L 25.59375 64.59375 
L -0.296875 64.59375 
z
" id="DejaVuSans-54"/>
      <path d="M 9.421875 54.6875 
L 18.40625 54.6875 
L 18.40625 0 
L 9.421875 0 
z
M 9.421875 75.984375 
L 18.40625 75.984375 
L 18.40625 64.59375 
L 9.421875 64.59375 
z
" id="DejaVuSans-69"/>
      <path d="M 52 44.1875 
Q 55.375 50.25 60.0625 53.125 
Q 64.75 56 71.09375 56 
Q 79.640625 56 84.28125 50.015625 
Q 88.921875 44.046875 88.921875 33.015625 
L 88.921875 0 
L 79.890625 0 
L 79.890625 32.71875 
Q 79.890625 40.578125 77.09375 44.375 
Q 74.3125 48.1875 68.609375 48.1875 
Q 61.625 48.1875 57.5625 43.546875 
Q 53.515625 38.921875 53.515625 30.90625 
L 53.515625 0 
L 44.484375 0 
L 44.484375 32.71875 
Q 44.484375 40.625 41.703125 44.40625 
Q 38.921875 48.1875 33.109375 48.1875 
Q 26.21875 48.1875 22.15625 43.53125 
Q 18.109375 38.875 18.109375 30.90625 
L 18.109375 0 
L 9.078125 0 
L 9.078125 54.6875 
L 18.109375 54.6875 
L 18.109375 46.1875 
Q 21.1875 51.21875 25.484375 53.609375 
Q 29.78125 56 35.6875 56 
Q 41.65625 56 45.828125 52.96875 
Q 50 49.953125 52 44.1875 
" id="DejaVuSans-6d"/>
      <path d="M 56.203125 29.59375 
L 56.203125 25.203125 
L 14.890625 25.203125 
Q 15.484375 15.921875 20.484375 11.0625 
Q 25.484375 6.203125 34.421875 6.203125 
Q 39.59375 6.203125 44.453125 7.46875 
Q 49.3125 8.734375 54.109375 11.28125 
L 54.109375 2.78125 
Q 49.265625 0.734375 44.1875 -0.34375 
Q 39.109375 -1.421875 33.890625 -1.421875 
Q 20.796875 -1.421875 13.15625 6.1875 
Q 5.515625 13.8125 5.515625 26.8125 
Q 5.515625 40.234375 12.765625 48.109375 
Q 20.015625 56 32.328125 56 
Q 43.359375 56 49.78125 48.890625 
Q 56.203125 41.796875 56.203125 29.59375 
M 47.21875 32.234375 
Q 47.125 39.59375 43.09375 43.984375 
Q 39.0625 48.390625 32.421875 48.390625 
Q 24.90625 48.390625 20.390625 44.140625 
Q 15.875 39.890625 15.1875 32.171875 
z
" id="DejaVuSans-65"/>
      <path id="DejaVuSans-20"/>
      <path d="M 31 75.875 
Q 24.46875 64.65625 21.28125 53.65625 
Q 18.109375 42.671875 18.109375 31.390625 
Q 18.109375 20.125 21.3125 9.0625 
Q 24.515625 -2 31 -13.1875 
L 23.1875 -13.1875 
Q 15.875 -1.703125 12.234375 9.375 
Q 8.59375 20.453125 8.59375 31.390625 
Q 8.59375 42.28125 12.203125 53.3125 
Q 15.828125 64.359375 23.1875 75.875 
z
" id="DejaVuSans-28"/>
      <path d="M 53.515625 70.515625 
L 53.515625 60.890625 
Q 47.90625 63.578125 42.921875 64.890625 
Q 37.9375 66.21875 33.296875 66.21875 
Q 25.25 66.21875 20.875 63.09375 
Q 16.5 59.96875 16.5 54.203125 
Q 16.5 49.359375 19.40625 46.890625 
Q 22.3125 44.4375 30.421875 42.921875 
L 36.375 41.703125 
Q 47.40625 39.59375 52.65625 34.296875 
Q 57.90625 29 57.90625 20.125 
Q 57.90625 9.515625 50.796875 4.046875 
Q 43.703125 -1.421875 29.984375 -1.421875 
Q 24.8125 -1.421875 18.96875 -0.25 
Q 13.140625 0.921875 6.890625 3.21875 
L 6.890625 13.375 
Q 12.890625 10.015625 18.65625 8.296875 
Q 24.421875 6.59375 29.984375 6.59375 
Q 38.421875 6.59375 43.015625 9.90625 
Q 47.609375 13.234375 47.609375 19.390625 
Q 47.609375 24.75 44.3125 27.78125 
Q 41.015625 30.8125 33.5 32.328125 
L 27.484375 33.5 
Q 16.453125 35.6875 11.515625 40.375 
Q 6.59375 45.0625 6.59375 53.421875 
Q 6.59375 63.09375 13.40625 68.65625 
Q 20.21875 74.21875 32.171875 74.21875 
Q 37.3125 74.21875 42.625 73.28125 
Q 47.953125 72.359375 53.515625 70.515625 
" id="DejaVuSans-53"/>
      <path d="M 48.78125 52.59375 
L 48.78125 44.1875 
Q 44.96875 46.296875 41.140625 47.34375 
Q 37.3125 48.390625 33.40625 48.390625 
Q 24.65625 48.390625 19.8125 42.84375 
Q 14.984375 37.3125 14.984375 27.296875 
Q 14.984375 17.28125 19.8125 11.734375 
Q 24.65625 6.203125 33.40625 6.203125 
Q 37.3125 6.203125 41.140625 7.25 
Q 44.96875 8.296875 48.78125 10.40625 
L 48.78125 2.09375 
Q 45.015625 0.34375 40.984375 -0.53125 
Q 36.96875 -1.421875 32.421875 -1.421875 
Q 20.0625 -1.421875 12.78125 6.34375 
Q 5.515625 14.109375 5.515625 27.296875 
Q 5.515625 40.671875 12.859375 48.328125 
Q 20.21875 56 33.015625 56 
Q 37.15625 56 41.109375 55.140625 
Q 45.0625 54.296875 48.78125 52.59375 
" id="DejaVuSans-63"/>
      <path d="M 8.015625 75.875 
L 15.828125 75.875 
Q 23.140625 64.359375 26.78125 53.3125 
Q 30.421875 42.28125 30.421875 31.390625 
Q 30.421875 20.453125 26.78125 9.375 
Q 23.140625 -1.703125 15.828125 -13.1875 
L 8.015625 -13.1875 
Q 14.5 -2 17.703125 9.0625 
Q 20.90625 20.125 20.90625 31.390625 
Q 20.90625 42.671875 17.703125 53.65625 
Q 14.5 64.65625 8.015625 75.875 
" id="DejaVuSans-29"/>
     </defs>
     <g transform="translate(209.281875 188.020562)scale(0.1 -0.1)">
      <use xlink:href="#DejaVuSans-54"/>
      <use x="61.037109" xlink:href="#DejaVuSans-69"/>
      <use x="88.820312" xlink:href="#DejaVuSans-6d"/>
      <use x="186.232422" xlink:href="#DejaVuSans-65"/>
      <use x="247.755859" xlink:href="#DejaVuSans-20"/>
      <use x="279.542969" xlink:href="#DejaVuSans-28"/>
      <use x="318.556641" xlink:href="#DejaVuSans-53"/>
      <use x="382.033203" xlink:href="#DejaVuSans-65"/>
      <use x="443.556641" xlink:href="#DejaVuSans-63"/>
      <use x="498.537109" xlink:href="#DejaVuSans-29"/>
     </g>
    </g>
   </g>
   <g id="matplotlib.axis_2">
    <g id="ytick_1">
     <g id="line2d_10">
      <defs>
       <path d="M 0 0 
L -3.5 0 
" id="m02f564ae1c" style="stroke:#000000;stroke-width:0.8;"/>
      </defs>
      <g>
       <use style="stroke:#000000;stroke-width:0.8;" x="57.6" xlink:href="#m02f564ae1c" y="154.721175"/>
      </g>
     </g>
     <g id="text_11">
      <!-- −5.0 -->
      <defs>
       <path d="M 10.59375 35.5 
L 73.1875 35.5 
L 73.1875 27.203125 
L 10.59375 27.203125 
z
" id="DejaVuSans-2212"/>
       <path d="M 10.6875 12.40625 
L 21 12.40625 
L 21 0 
L 10.6875 0 
z
" id="DejaVuSans-2e"/>
      </defs>
      <g transform="translate(26.317187 158.520394)scale(0.1 -0.1)">
       <use xlink:href="#DejaVuSans-2212"/>
       <use x="83.789062" xlink:href="#DejaVuSans-35"/>
       <use x="147.412109" xlink:href="#DejaVuSans-2e"/>
       <use x="179.199219" xlink:href="#DejaVuSans-30"/>
      </g>
     </g>
    </g>
    <g id="ytick_2">
     <g id="line2d_11">
      <g>
       <use style="stroke:#000000;stroke-width:0.8;" x="57.6" xlink:href="#m02f564ae1c" y="130.002445"/>
      </g>
     </g>
     <g id="text_12">
      <!-- −2.5 -->
      <g transform="translate(26.317187 133.801663)scale(0.1 -0.1)">
       <use xlink:href="#DejaVuSans-2212"/>
       <use x="83.789062" xlink:href="#DejaVuSans-32"/>
       <use x="147.412109" xlink:href="#DejaVuSans-2e"/>
       <use x="179.199219" xlink:href="#DejaVuSans-35"/>
      </g>
     </g>
    </g>
    <g id="ytick_3">
     <g id="line2d_12">
      <g>
       <use style="stroke:#000000;stroke-width:0.8;" x="57.6" xlink:href="#m02f564ae1c" y="105.283714"/>
      </g>
     </g>
     <g id="text_13">
      <!-- 0.0 -->
      <g transform="translate(34.696875 109.082933)scale(0.1 -0.1)">
       <use xlink:href="#DejaVuSans-30"/>
       <use x="63.623047" xlink:href="#DejaVuSans-2e"/>
       <use x="95.410156" xlink:href="#DejaVuSans-30"/>
      </g>
     </g>
    </g>
    <g id="ytick_4">
     <g id="line2d_13">
      <g>
       <use style="stroke:#000000;stroke-width:0.8;" x="57.6" xlink:href="#m02f564ae1c" y="80.564984"/>
      </g>
     </g>
     <g id="text_14">
      <!-- 2.5 -->
      <g transform="translate(34.696875 84.364203)scale(0.1 -0.1)">
       <use xlink:href="#DejaVuSans-32"/>
       <use x="63.623047" xlink:href="#DejaVuSans-2e"/>
       <use x="95.410156" xlink:href="#DejaVuSans-35"/>
      </g>
     </g>
    </g>
    <g id="ytick_5">
     <g id="line2d_14">
      <g>
       <use style="stroke:#000000;stroke-width:0.8;" x="57.6" xlink:href="#m02f564ae1c" y="55.846254"/>
      </g>
     </g>
     <g id="text_15">
      <!-- 5.0 -->
      <g transform="translate(34.696875 59.645473)scale(0.1 -0.1)">
       <use xlink:href="#DejaVuSans-35"/>
       <use x="63.623047" xlink:href="#DejaVuSans-2e"/>
       <use x="95.410156" xlink:href="#DejaVuSans-30"/>
      </g>
     </g>
    </g>
   </g>
   <g id="line2d_15">
    <path clip-path="url(#p22e06e39fb)" d="M 73.832727 109.869604 
L 78.58957 100.608722 
L 85.724835 99.350845 
L 92.8601 89.928902 
L 99.995365 104.684943 
L 107.130629 113.325781 
L 114.265894 120.331996 
L 121.401159 92.869324 
L 128.536424 108.875374 
L 135.671688 92.448394 
L 142.806953 112.22624 
L 149.942218 111.054567 
L 157.077483 115.242834 
L 164.212747 104.43368 
L 171.348012 101.131556 
L 178.483277 99.32445 
L 185.618541 95.690654 
L 192.753806 122.892686 
L 199.889071 60.287912 
L 207.024336 49.435278 
L 214.1596 118.652619 
L 221.294865 98.736738 
L 229.619341 89.882696 
L 235.565395 83.050749 
L 242.700659 102.803919 
L 251.025135 70.776006 
L 256.971189 46.848 
L 264.106454 112.668906 
L 271.241718 106.765326 
L 278.376983 64.771633 
L 285.512248 72.848949 
L 292.647512 102.465174 
L 299.782777 152.859783 
L 306.918042 129.458562 
L 314.053307 129.622424 
L 321.188571 53.74305 
L 328.323836 90.035183 
L 335.459101 92.871336 
L 342.594366 154.368 
L 349.72963 131.791902 
L 356.864895 137.998959 
L 364.00016 51.354212 
L 371.135425 82.778993 
L 378.270689 87.740855 
L 385.405954 143.878664 
L 392.541219 152.295895 
L 398.487273 132.65883 
L 398.487273 132.65883 
" style="fill:none;stroke:#7e1e9c;stroke-linecap:square;stroke-width:2;"/>
   </g>
   <g id="patch_3">
    <path d="M 57.6 159.744 
L 57.6 41.472 
" style="fill:none;stroke:#000000;stroke-linecap:square;stroke-linejoin:miter;stroke-width:0.8;"/>
   </g>
   <g id="patch_4">
    <path d="M 414.72 159.744 
L 414.72 41.472 
" style="fill:none;stroke:#000000;stroke-linecap:square;stroke-linejoin:miter;stroke-width:0.8;"/>
   </g>
   <g id="patch_5">
    <path d="M 57.6 159.744 
L 414.72 159.744 
" style="fill:none;stroke:#000000;stroke-linecap:square;stroke-linejoin:miter;stroke-width:0.8;"/>
   </g>
   <g id="patch_6">
    <path d="M 57.6 41.472 
L 414.72 41.472 
" style="fill:none;stroke:#000000;stroke-linecap:square;stroke-linejoin:miter;stroke-width:0.8;"/>
   </g>
  </g>
  <g id="axes_2">
   <g id="patch_7">
    <path d="M 57.6 307.584 
L 414.72 307.584 
L 414.72 189.312 
L 57.6 189.312 
z
" style="fill:#ffffff;"/>
   </g>
   <g id="matplotlib.axis_3">
    <g id="xtick_10">
     <g id="line2d_16">
      <g>
       <use style="stroke:#000000;stroke-width:0.8;" x="57.183776" xlink:href="#m5a565cb562" y="307.584"/>
      </g>
     </g>
     <g id="text_16">
      <!-- 0 -->
      <g transform="translate(54.002526 322.182437)scale(0.1 -0.1)">
       <use xlink:href="#DejaVuSans-30"/>
      </g>
     </g>
    </g>
    <g id="xtick_11">
     <g id="line2d_17">
      <g>
       <use style="stroke:#000000;stroke-width:0.8;" x="98.475818" xlink:href="#m5a565cb562" y="307.584"/>
      </g>
     </g>
     <g id="text_17">
      <!-- 25 -->
      <g transform="translate(92.113318 322.182437)scale(0.1 -0.1)">
       <use xlink:href="#DejaVuSans-32"/>
       <use x="63.623047" xlink:href="#DejaVuSans-35"/>
      </g>
     </g>
    </g>
    <g id="xtick_12">
     <g id="line2d_18">
      <g>
       <use style="stroke:#000000;stroke-width:0.8;" x="139.767859" xlink:href="#m5a565cb562" y="307.584"/>
      </g>
     </g>
     <g id="text_18">
      <!-- 50 -->
      <g transform="translate(133.405359 322.182437)scale(0.1 -0.1)">
       <use xlink:href="#DejaVuSans-35"/>
       <use x="63.623047" xlink:href="#DejaVuSans-30"/>
      </g>
     </g>
    </g>
    <g id="xtick_13">
     <g id="line2d_19">
      <g>
       <use style="stroke:#000000;stroke-width:0.8;" x="181.0599" xlink:href="#m5a565cb562" y="307.584"/>
      </g>
     </g>
     <g id="text_19">
      <!-- 75 -->
      <g transform="translate(174.6974 322.182437)scale(0.1 -0.1)">
       <use xlink:href="#DejaVuSans-37"/>
       <use x="63.623047" xlink:href="#DejaVuSans-35"/>
      </g>
     </g>
    </g>
    <g id="xtick_14">
     <g id="line2d_20">
      <g>
       <use style="stroke:#000000;stroke-width:0.8;" x="222.351941" xlink:href="#m5a565cb562" y="307.584"/>
      </g>
     </g>
     <g id="text_20">
      <!-- 100 -->
      <g transform="translate(212.808191 322.182437)scale(0.1 -0.1)">
       <use xlink:href="#DejaVuSans-31"/>
       <use x="63.623047" xlink:href="#DejaVuSans-30"/>
       <use x="127.246094" xlink:href="#DejaVuSans-30"/>
      </g>
     </g>
    </g>
    <g id="xtick_15">
     <g id="line2d_21">
      <g>
       <use style="stroke:#000000;stroke-width:0.8;" x="263.643983" xlink:href="#m5a565cb562" y="307.584"/>
      </g>
     </g>
     <g id="text_21">
      <!-- 125 -->
      <g transform="translate(254.100233 322.182437)scale(0.1 -0.1)">
       <use xlink:href="#DejaVuSans-31"/>
       <use x="63.623047" xlink:href="#DejaVuSans-32"/>
       <use x="127.246094" xlink:href="#DejaVuSans-35"/>
      </g>
     </g>
    </g>
    <g id="xtick_16">
     <g id="line2d_22">
      <g>
       <use style="stroke:#000000;stroke-width:0.8;" x="304.936024" xlink:href="#m5a565cb562" y="307.584"/>
      </g>
     </g>
     <g id="text_22">
      <!-- 150 -->
      <g transform="translate(295.392274 322.182437)scale(0.1 -0.1)">
       <use xlink:href="#DejaVuSans-31"/>
       <use x="63.623047" xlink:href="#DejaVuSans-35"/>
       <use x="127.246094" xlink:href="#DejaVuSans-30"/>
      </g>
     </g>
    </g>
    <g id="xtick_17">
     <g id="line2d_23">
      <g>
       <use style="stroke:#000000;stroke-width:0.8;" x="346.228065" xlink:href="#m5a565cb562" y="307.584"/>
      </g>
     </g>
     <g id="text_23">
      <!-- 175 -->
      <g transform="translate(336.684315 322.182437)scale(0.1 -0.1)">
       <use xlink:href="#DejaVuSans-31"/>
       <use x="63.623047" xlink:href="#DejaVuSans-37"/>
       <use x="127.246094" xlink:href="#DejaVuSans-35"/>
      </g>
     </g>
    </g>
    <g id="xtick_18">
     <g id="line2d_24">
      <g>
       <use style="stroke:#000000;stroke-width:0.8;" x="387.520107" xlink:href="#m5a565cb562" y="307.584"/>
      </g>
     </g>
     <g id="text_24">
      <!-- 200 -->
      <g transform="translate(377.976357 322.182437)scale(0.1 -0.1)">
       <use xlink:href="#DejaVuSans-32"/>
       <use x="63.623047" xlink:href="#DejaVuSans-30"/>
       <use x="127.246094" xlink:href="#DejaVuSans-30"/>
      </g>
     </g>
    </g>
    <g id="text_25">
     <!-- Time (Sec) -->
     <g transform="translate(209.281875 335.860562)scale(0.1 -0.1)">
      <use xlink:href="#DejaVuSans-54"/>
      <use x="61.037109" xlink:href="#DejaVuSans-69"/>
      <use x="88.820312" xlink:href="#DejaVuSans-6d"/>
      <use x="186.232422" xlink:href="#DejaVuSans-65"/>
      <use x="247.755859" xlink:href="#DejaVuSans-20"/>
      <use x="279.542969" xlink:href="#DejaVuSans-28"/>
      <use x="318.556641" xlink:href="#DejaVuSans-53"/>
      <use x="382.033203" xlink:href="#DejaVuSans-65"/>
      <use x="443.556641" xlink:href="#DejaVuSans-63"/>
      <use x="498.537109" xlink:href="#DejaVuSans-29"/>
     </g>
    </g>
   </g>
   <g id="matplotlib.axis_4">
    <g id="ytick_6">
     <g id="line2d_25">
      <g>
       <use style="stroke:#000000;stroke-width:0.8;" x="57.6" xlink:href="#m02f564ae1c" y="295.992618"/>
      </g>
     </g>
     <g id="text_26">
      <!-- −20 -->
      <g transform="translate(29.495313 299.791837)scale(0.1 -0.1)">
       <use xlink:href="#DejaVuSans-2212"/>
       <use x="83.789062" xlink:href="#DejaVuSans-32"/>
       <use x="147.412109" xlink:href="#DejaVuSans-30"/>
      </g>
     </g>
    </g>
    <g id="ytick_7">
     <g id="line2d_26">
      <g>
       <use style="stroke:#000000;stroke-width:0.8;" x="57.6" xlink:href="#m02f564ae1c" y="253.147037"/>
      </g>
     </g>
     <g id="text_27">
      <!-- 0 -->
      <g transform="translate(44.2375 256.946255)scale(0.1 -0.1)">
       <use xlink:href="#DejaVuSans-30"/>
      </g>
     </g>
    </g>
    <g id="ytick_8">
     <g id="line2d_27">
      <g>
       <use style="stroke:#000000;stroke-width:0.8;" x="57.6" xlink:href="#m02f564ae1c" y="210.301455"/>
      </g>
     </g>
     <g id="text_28">
      <!-- 20 -->
      <g transform="translate(37.875 214.100674)scale(0.1 -0.1)">
       <use xlink:href="#DejaVuSans-32"/>
       <use x="63.623047" xlink:href="#DejaVuSans-30"/>
      </g>
     </g>
    </g>
   </g>
   <g id="line2d_28">
    <path clip-path="url(#pb2402abf73)" d="M 73.832727 266.723207 
L 75.021938 266.519098 
L 76.211149 265.681653 
L 77.40036 264.295898 
L 78.58957 262.468956 
L 80.967992 257.947688 
L 84.535624 250.745988 
L 85.724835 248.752643 
L 86.914046 247.148142 
L 88.103257 245.977177 
L 89.292468 245.225313 
L 90.481678 244.8178 
L 92.8601 244.531081 
L 94.049311 244.386091 
L 95.238521 244.108251 
L 97.616943 243.134644 
L 98.806154 242.660132 
L 99.995365 242.443144 
L 101.184575 242.656365 
L 102.373786 243.401927 
L 103.562997 244.693179 
L 104.752208 246.457323 
L 107.130629 250.830116 
L 109.509051 255.301163 
L 110.698262 257.296878 
L 111.887473 259.064219 
L 113.076683 260.591371 
L 114.265894 261.888284 
L 115.455105 262.980006 
L 116.644316 263.898131 
L 117.833526 264.649827 
L 119.022737 265.162965 
L 120.211948 265.271625 
L 121.401159 264.769848 
L 122.59037 263.490034 
L 123.77958 261.36062 
L 124.968791 258.451846 
L 128.536424 248.346727 
L 129.725634 246.006971 
L 130.914845 244.732941 
L 132.104056 244.580907 
L 133.293267 245.378183 
L 136.860899 249.520435 
L 138.05011 250.184962 
L 139.239321 250.153695 
L 140.428531 249.523149 
L 142.806953 247.718064 
L 143.996164 247.284966 
L 145.185375 247.529586 
L 146.374585 248.539482 
L 147.563796 250.226629 
L 151.131429 256.742304 
L 152.320639 258.49189 
L 153.50985 259.76057 
L 154.699061 260.538826 
L 155.888272 260.900827 
L 157.077483 260.968569 
L 163.023536 260.401622 
L 164.212747 260.135407 
L 165.401958 259.633197 
L 166.591169 258.835738 
L 167.78038 257.737202 
L 170.158801 254.898441 
L 172.537223 251.95302 
L 173.726434 250.694189 
L 174.915644 249.649873 
L 176.104855 248.832727 
L 177.294066 248.232628 
L 178.483277 247.824733 
L 179.672488 247.575605 
L 182.050909 247.403556 
L 186.807752 247.313404 
L 190.375385 246.882428 
L 191.564595 247.018492 
L 192.753806 247.627221 
L 193.943017 248.890254 
L 195.132228 250.892609 
L 198.69986 258.986735 
L 199.889071 260.335409 
L 201.078282 259.857431 
L 202.267493 257.186065 
L 203.456703 252.320929 
L 204.645914 245.653746 
L 208.213546 222.341222 
L 209.402757 215.875283 
L 210.591968 210.829992 
L 211.781179 207.512032 
L 212.97039 206.258959 
L 214.1596 207.381347 
L 215.348811 211.043295 
L 216.538022 217.178284 
L 217.727233 225.424083 
L 221.294865 254.221875 
L 222.484076 261.688024 
L 223.673287 266.828275 
L 224.862498 269.450545 
L 226.051708 269.730395 
L 227.240919 268.108687 
L 228.43013 265.157035 
L 230.808551 257.489108 
L 233.186973 250.121188 
L 234.376184 247.062215 
L 235.565395 244.480574 
L 236.754605 242.340165 
L 237.943816 240.575588 
L 239.133027 239.13372 
L 240.322238 238.028181 
L 241.511449 237.355927 
L 242.700659 237.254963 
L 243.88987 237.840218 
L 245.079081 239.154352 
L 246.268292 241.120114 
L 248.646713 245.833677 
L 249.835924 247.689076 
L 251.025135 248.645436 
L 252.214346 248.455487 
L 253.403556 247.054134 
L 254.592767 244.530241 
L 255.781978 241.074729 
L 256.971189 236.927579 
L 261.728032 218.478033 
L 262.917243 215.305324 
L 264.106454 213.928979 
L 265.295664 214.880512 
L 266.484875 218.392926 
L 267.674086 224.320879 
L 268.863297 232.096722 
L 271.241718 249.418731 
L 272.430929 257.011438 
L 273.62014 262.955619 
L 274.809351 266.930869 
L 275.998561 268.837098 
L 277.187772 268.697911 
L 278.376983 266.623262 
L 279.566194 262.808664 
L 280.755405 257.534489 
L 283.133826 244.256858 
L 284.323037 237.39412 
L 285.512248 231.22283 
L 286.701459 226.247525 
L 287.890669 222.763619 
L 289.07988 220.858798 
L 290.269091 220.482748 
L 291.458302 221.517596 
L 292.647512 223.808644 
L 293.836723 227.169092 
L 295.025934 231.38501 
L 296.215145 236.243169 
L 298.593566 247.308522 
L 300.971988 259.824687 
L 305.728831 286.298569 
L 306.918042 291.117249 
L 308.107253 294.187928 
L 309.296464 295.262014 
L 310.485674 294.371771 
L 311.674885 291.820835 
L 312.864096 288.112782 
L 316.431728 275.572971 
L 317.620939 272.19849 
L 319.999361 266.309448 
L 321.188571 262.74907 
L 322.377782 258.036835 
L 323.566993 251.846851 
L 324.756204 244.200199 
L 327.134625 226.978619 
L 328.323836 219.468399 
L 329.513047 214.043733 
L 330.702258 211.311524 
L 331.891469 211.416382 
L 333.080679 214.048794 
L 334.26989 218.554387 
L 337.837522 235.455434 
L 339.026733 240.250448 
L 341.405155 248.02194 
L 342.594366 251.80201 
L 343.783576 256.153131 
L 344.972787 261.4011 
L 346.161998 267.605309 
L 348.54042 281.278929 
L 349.72963 287.273294 
L 350.918841 291.718036 
L 352.108052 294.165187 
L 353.297263 294.510427 
L 354.486474 292.995019 
L 355.675684 290.127022 
L 359.243317 279.475217 
L 360.432527 276.689089 
L 362.810949 271.805485 
L 364.00016 268.451963 
L 365.189371 263.605147 
L 366.378581 256.881238 
L 367.567792 248.303585 
L 371.135425 219.233713 
L 372.324635 212.248849 
L 373.513846 208.071684 
L 374.703057 206.907454 
L 375.892268 208.489025 
L 377.081479 212.195953 
L 378.270689 217.238139 
L 380.649111 228.355941 
L 381.838322 233.396917 
L 384.216743 242.012447 
L 385.405954 246.19037 
L 386.595165 250.802845 
L 387.784376 256.123524 
L 388.973586 262.224105 
L 392.541219 282.279304 
L 393.73043 287.949899 
L 394.91964 292.468998 
L 396.108851 295.686806 
L 397.298062 297.555321 
L 398.487273 298.067035 
L 398.487273 298.067035 
" style="fill:none;stroke:#7e1e9c;stroke-linecap:square;stroke-width:2;"/>
   </g>
   <g id="line2d_29">
    <path clip-path="url(#pb2402abf73)" d="M 73.832727 270.373705 
L 75.021938 276.936243 
L 76.211149 264.561532 
L 77.40036 265.709139 
L 78.58957 249.315274 
L 79.778781 251.493321 
L 80.967992 272.345795 
L 82.157203 258.946981 
L 83.346414 240.362744 
L 84.535624 274.725692 
L 85.724835 238.253466 
L 86.914046 250.758675 
L 88.103257 238.493372 
L 89.292468 240.097765 
L 90.481678 238.411746 
L 91.670889 254.385385 
L 92.8601 245.221132 
L 94.049311 252.881533 
L 95.238521 243.4681 
L 96.427732 249.450338 
L 97.616943 231.224421 
L 98.806154 227.584252 
L 99.995365 248.636419 
L 101.184575 255.024042 
L 102.373786 236.703754 
L 103.562997 250.054681 
L 104.752208 245.971237 
L 105.941419 251.231861 
L 107.130629 240.768587 
L 108.31984 252.907825 
L 109.509051 267.674785 
L 110.698262 250.32578 
L 111.887473 266.953209 
L 113.076683 258.686031 
L 114.265894 248.318578 
L 115.455105 260.270841 
L 117.833526 279.243925 
L 119.022737 251.134248 
L 120.211948 263.860815 
L 121.401159 268.629068 
L 122.59037 277.870164 
L 123.77958 248.829895 
L 124.968791 263.809038 
L 126.158002 248.94769 
L 127.347213 246.125831 
L 128.536424 257.827608 
L 129.725634 244.572056 
L 130.914845 234.404574 
L 132.104056 236.14279 
L 133.293267 259.761138 
L 134.482478 249.291066 
L 135.671688 256.395981 
L 136.860899 256.179521 
L 138.05011 244.302071 
L 139.239321 247.217635 
L 140.428531 235.075312 
L 141.617742 236.962471 
L 142.806953 263.648595 
L 143.996164 247.534869 
L 145.185375 257.261571 
L 146.374585 248.348017 
L 147.563796 249.111905 
L 148.753007 247.701551 
L 149.942218 250.108604 
L 151.131429 257.019845 
L 152.320639 265.883518 
L 153.50985 254.212959 
L 154.699061 254.592652 
L 155.888272 274.620727 
L 157.077483 256.280647 
L 158.266693 255.180333 
L 159.455904 268.003071 
L 160.645115 269.598151 
L 161.834326 259.542549 
L 163.023536 248.44937 
L 164.212747 246.023863 
L 165.401958 263.014729 
L 166.591169 267.710329 
L 167.78038 265.168428 
L 168.96959 258.276829 
L 170.158801 253.742804 
L 171.348012 252.206168 
L 172.537223 249.507818 
L 173.726434 248.831275 
L 174.915644 241.259961 
L 176.104855 253.562682 
L 177.294066 253.926145 
L 178.483277 251.228785 
L 179.672488 254.600497 
L 180.861698 234.260364 
L 182.050909 239.782327 
L 183.24012 243.678498 
L 184.429331 272.712824 
L 185.618541 233.058385 
L 186.807752 243.13028 
L 187.996963 256.133772 
L 189.186174 252.228644 
L 190.375385 239.40233 
L 191.564595 247.132985 
L 192.753806 249.418301 
L 193.943017 246.318593 
L 195.132228 236.741456 
L 196.321439 264.121572 
L 197.510649 246.652478 
L 198.69986 271.745122 
L 199.889071 267.595935 
L 201.078282 273.292104 
L 202.267493 245.045579 
L 203.456703 248.967729 
L 204.645914 240.736651 
L 205.835125 228.774446 
L 207.024336 230.583641 
L 208.213546 222.314198 
L 209.402757 219.322191 
L 210.591968 212.077835 
L 211.781179 216.916294 
L 212.97039 205.406571 
L 214.1596 211.810182 
L 215.348811 201.535736 
L 216.538022 220.100748 
L 217.727233 226.277939 
L 218.916444 226.893459 
L 220.105654 244.042734 
L 221.294865 256.755083 
L 222.484076 266.064117 
L 223.673287 265.034782 
L 224.862498 267.374366 
L 226.051708 283.019938 
L 227.240919 257.530787 
L 228.43013 271.654367 
L 229.619341 249.51107 
L 230.808551 252.941106 
L 231.997762 261.414567 
L 233.186973 244.836482 
L 234.376184 261.850312 
L 235.565395 238.755915 
L 236.754605 256.26262 
L 237.943816 227.492825 
L 239.133027 232.100644 
L 240.322238 238.217695 
L 241.511449 230.178907 
L 242.700659 248.597425 
L 243.88987 247.961067 
L 245.079081 231.660662 
L 246.268292 233.536788 
L 247.457502 247.240619 
L 248.646713 249.133053 
L 249.835924 250.141825 
L 251.025135 248.692781 
L 252.214346 239.165009 
L 253.403556 252.830912 
L 254.592767 232.713527 
L 256.971189 247.248208 
L 258.1604 249.989857 
L 259.34961 225.973725 
L 260.538821 225.581952 
L 261.728032 194.688 
L 262.917243 212.770921 
L 264.106454 208.150477 
L 265.295664 217.170359 
L 266.484875 240.125089 
L 267.674086 214.86066 
L 268.863297 239.296687 
L 270.052507 230.244232 
L 271.241718 250.0684 
L 272.430929 263.854649 
L 273.62014 255.587808 
L 274.809351 281.001871 
L 277.187772 261.871946 
L 278.376983 253.734671 
L 279.566194 255.198528 
L 280.755405 265.515391 
L 281.944615 245.182536 
L 283.133826 248.841305 
L 284.323037 243.211107 
L 285.512248 255.414019 
L 286.701459 215.412562 
L 287.890669 228.504342 
L 289.07988 209.674966 
L 290.269091 207.215209 
L 291.458302 220.43265 
L 292.647512 214.633976 
L 293.836723 241.350133 
L 295.025934 242.428907 
L 296.215145 225.234238 
L 297.404356 239.419346 
L 298.593566 250.20217 
L 299.782777 258.932696 
L 300.971988 268.855141 
L 302.161199 266.883676 
L 303.35041 265.365361 
L 304.53962 269.737938 
L 305.728831 297.109413 
L 306.918042 276.232358 
L 308.107253 302.208 
L 309.296464 288.815053 
L 310.485674 296.629138 
L 311.674885 299.445303 
L 312.864096 284.490572 
L 314.053307 298.323865 
L 315.242517 276.488191 
L 316.431728 274.459254 
L 317.620939 269.234522 
L 318.81015 266.974604 
L 319.999361 243.764946 
L 321.188571 272.999006 
L 322.377782 277.600616 
L 323.566993 243.049096 
L 324.756204 239.189055 
L 325.945415 240.861958 
L 327.134625 223.051616 
L 328.323836 222.249906 
L 329.513047 223.782797 
L 330.702258 203.486792 
L 331.891469 211.915374 
L 333.080679 210.762704 
L 334.26989 212.552706 
L 335.459101 224.744303 
L 336.648312 238.726121 
L 337.837522 231.970709 
L 339.026733 250.102712 
L 340.215944 230.324169 
L 341.405155 255.957034 
L 342.594366 251.996478 
L 343.783576 250.834638 
L 344.972787 260.102905 
L 347.351209 276.290932 
L 349.72963 289.285105 
L 350.918841 293.734583 
L 352.108052 288.623206 
L 353.297263 295.716715 
L 354.486474 295.494474 
L 355.675684 280.736197 
L 356.864895 296.153769 
L 358.054106 292.522155 
L 359.243317 256.048628 
L 360.432527 269.433089 
L 361.621738 289.05618 
L 362.810949 281.794159 
L 364.00016 277.227499 
L 366.378581 240.653823 
L 367.567792 237.992478 
L 368.757003 251.309087 
L 369.946214 237.19221 
L 371.135425 208.907012 
L 372.324635 219.673564 
L 373.513846 203.643921 
L 374.703057 204.296275 
L 375.892268 212.418942 
L 377.081479 210.975027 
L 378.270689 213.210108 
L 379.4599 231.297098 
L 380.649111 236.442581 
L 381.838322 217.709255 
L 383.027532 230.871778 
L 384.216743 239.745745 
L 385.405954 268.215397 
L 386.595165 252.769689 
L 387.784376 247.430623 
L 388.973586 253.384236 
L 390.162797 281.732474 
L 391.352008 265.899162 
L 392.541219 282.011337 
L 393.73043 286.387757 
L 394.91964 301.432991 
L 396.108851 290.55874 
L 397.298062 299.460774 
L 398.487273 297.359521 
L 398.487273 297.359521 
" style="fill:none;stroke:#0343df;stroke-linecap:square;stroke-width:2;"/>
   </g>
   <g id="patch_8">
    <path d="M 57.6 307.584 
L 57.6 189.312 
" style="fill:none;stroke:#000000;stroke-linecap:square;stroke-linejoin:miter;stroke-width:0.8;"/>
   </g>
   <g id="patch_9">
    <path d="M 414.72 307.584 
L 414.72 189.312 
" style="fill:none;stroke:#000000;stroke-linecap:square;stroke-linejoin:miter;stroke-width:0.8;"/>
   </g>
   <g id="patch_10">
    <path d="M 57.6 307.584 
L 414.72 307.584 
" style="fill:none;stroke:#000000;stroke-linecap:square;stroke-linejoin:miter;stroke-width:0.8;"/>
   </g>
   <g id="patch_11">
    <path d="M 57.6 189.312 
L 414.72 189.312 
" style="fill:none;stroke:#000000;stroke-linecap:square;stroke-linejoin:miter;stroke-width:0.8;"/>
   </g>
  </g>
 </g>
 <defs>
  <clipPath id="p22e06e39fb">
   <rect height="118.272" width="357.12" x="57.6" y="41.472"/>
  </clipPath>
  <clipPath id="pb2402abf73">
   <rect height="118.272" width="357.12" x="57.6" y="189.312"/>
  </clipPath>
 </defs>
</svg>
